<?xml version="1.0" encoding="utf-8"?>
<!-- Generator: Adobe Illustrator 27.7.0, SVG Export Plug-In . SVG Version: 6.00 Build 0)  -->
<svg version="1.1" id="Layer_1" xmlns="http://www.w3.org/2000/svg" xmlns:xlink="http://www.w3.org/1999/xlink" x="0px" y="0px" viewBox="0 0 871.7 707" style="enable-background:new 0 0 871.7 707;" xml:space="preserve">
<style type="text/css">
	.st0{fill:#EFAEA7;}
	.st1{fill:#49495C;}
	.st2{fill:#75757D;}
	.st3{fill:#98D4E2;}
	.st4{fill:#302F45;}
	.st5{fill:#FFFFFF;}
	.st6{fill:#F2AD1D;}
	.st7{fill:#F5B2B4;}
	.st8{fill:#1F1E39;}
	.st9{fill:#525261;}
	.st10{opacity:0.22;fill:#FFFFFF;}
	.st11{opacity:0.77;fill:#201F39;}
	.st12{fill:#3C3C4C;}
	.st13{opacity:0.57;fill:#201F39;}
	.st14{opacity:0.14;fill:#201F3B;}
	.st15{fill:#046AA9;}
	.st16{fill:#323340;}
	.st17{fill:#191939;}
	.st18{fill:#EEADA6;}
	.st19{fill:#0268A4;}
	.st20{opacity:0.24;fill:#201F3B;}
	.st21{fill:none;stroke:#3C3C4C;stroke-width:2.9302;stroke-linecap:round;stroke-linejoin:round;stroke-miterlimit:10;}
	.st22{fill:none;stroke:#FFFFFF;stroke-width:1.0496;stroke-linecap:round;stroke-linejoin:round;stroke-miterlimit:10;}
	.st23{fill:#0F72A6;}
	.st24{opacity:0.25;fill:#201F39;}
	.st25{opacity:0.55;fill:none;stroke:#201F39;stroke-width:2.9396;stroke-miterlimit:10;}
	.st26{opacity:0.55;fill:none;stroke:#201F39;stroke-width:2.1455;stroke-miterlimit:10;}
	.st27{opacity:0.55;fill:none;stroke:#201F39;stroke-width:2.507;stroke-miterlimit:10;}
	.st28{opacity:0.85;fill:#FFFFFF;}
</style>
<path class="st0" d="M219.3,206c-20.7-16.9,0.2-36.3-12.9-36.8c-3.6-0.1-5.5,12.7-12,13.1c-4.6,0.3-6.4,3.1-29.3-6.3
	c-17-6.9-19.7,11.9-6.8,17.8c32.1,14.7,43.8,33.6,43.8,33.6L219.3,206z"/>
<path class="st1" d="M684.2,232.3c9.7,3.4,20.5-3.5,18.4,42.6c-2.1,46.1-21.8,299.7-33.4,308.6c-19,14.6-201.7,79.5-227.1,82.3
	C410.6,669.4,14,628.4,8.5,626c-8-3.5-13.9-22.7-0.9-26.4c13-3.7,291.6-59.7,291.6-59.7L684.2,232.3z"/>
<path class="st2" d="M9.8,614.4l424.4,36.4c4.1,0.7,8.3,0.3,12.2-1c27.4-9.4,67.7-21.2,208.1-77.3c5.5-2.2,7.4-15.5,7.7-21.7
	L691.9,245c0.3-5.6-3-10.5-7.8-12.7c-1.5-0.7-3.2-1.1-4.9-1.2L273.7,206c-6.5-0.3-12.1,4.7-12.5,11.2
	c-2.1,30.8-15.8,189.5-27.6,306.7c0,0-196.7,66.4-225.8,75.7c-0.1,0-0.1,0-0.2,0c-0.2,0-0.3,0.1-0.5,0.1
	C2.9,601.2,0,611.4,9.8,614.4z"/>
<polygon class="st3" points="259.4,514.1 642,546.6 667,252 280.9,228.4 "/>
<path class="st4" d="M613.9,563.7c-24.9,11.1-123.1,44.4-147,44.5c-28.9,0.1-311.5-24.6-323.7-32c-12.2-7.4,131.8-40.1,131.8-40.1
	L613.9,563.7z"/>
<path class="st4" d="M371.6,608.9c1.6,3.8-51.7,26.5-66.5,24.8c-18-2.1-146.6-13.1-149.7-15.3s68.9-24.2,68.9-24.2
	S370,605.1,371.6,608.9z"/>
<g>
	<defs>
		<polygon id="SVGID_1_" points="259.4,514.1 642,546.6 667,252 280.9,228.4 		"/>
	</defs>
	<clipPath id="SVGID_00000106855688326645385790000015927675925867353477_">
		<use xlink:href="#SVGID_1_" style="overflow:visible;"/>
	</clipPath>
</g>
<g>
	<path class="st5" d="M554.9,706.7l13.5-3.6l12.7-3.4l-0.9-3.4l-4-14.9l-12.7,3.4l-13.5,3.6c-4.5,1.2-7.2,5.8-6,10.3l0.5,2
		c0.5,1.7,1.4,3.2,2.7,4.3C549.3,706.7,552.1,707.4,554.9,706.7z"/>
	<path class="st6" d="M568.4,703.1l12.7-3.4l263-70.1l4.1-2.6l13.4-8.4c2.9-1.8,1.7-6.3-1.7-6.5l-20.6-0.8l-263,70.1l-12.7,3.4
		l4,14.9L568.4,703.1z"/>
	<path class="st7" d="M844.1,629.6l23.6-13.7c2.1-1.2,1.3-4.5-1.2-4.5l-27.3-0.1l-0.3,0.1c-0.1,3.3-1.9,3.7-1.4,5.1
		c0.7,1.8,5,1.5,5.6,3.6c0.5,2.1-1.9,1.7-1.3,3.7c0.5,2,1.8,1.7,2.2,3C844.3,628,843.3,626.7,844.1,629.6z"/>
	<path class="st8" d="M862.6,618.9l8.4-4.9c1.2-0.7,0.7-2.6-0.7-2.6l-9.7,0c-0.1,0-0.2,0.1-0.3,0.2c-0.4,2.3,1.6,2.4,1.8,3.8
		c0.1,0.7,0.1,2,0,3.2C862.2,618.8,862.4,619,862.6,618.9z"/>
</g>
<g>
	<path class="st9" d="M542.7,470.2l-1.1-8.4l81.3-10.5c3.1-0.4,6-2,8.1-4.4c1.5-1.8,3.7-3,6.2-3.4c5.5-0.8,10.6,3.1,11.4,8.5
		c0.8,5.6-3.1,10.7-8.7,11.4c-2.3,0.3-4.5-0.2-6.4-1.3c-3.3-2-7.2-2.8-11-2.3L542.7,470.2z M639.4,459.6c3.3-0.4,5.7-3.5,5.2-6.8
		c-0.4-3.3-3.5-5.7-6.8-5.2c-3.3,0.4-5.7,3.5-5.2,6.8C633,457.7,636,460.1,639.4,459.6z"/>
	<path class="st9" d="M544.3,461.5c-8.7-0.9-14.8-5-20-1c-5.2,4-7.6,9.6-5.9,9.1c1.7-0.5,8-4.4,10.1-2.8c2.2,1.6,3.9,6.9,1.4,8.4
		c-3,1.8-8.4,2.7-8.1,3.6c0.6,1.4,8.7,1.8,12.9,0.8c4.2-1.1,6.5-9.1,10.3-9.6c3.8-0.5,2.2-8.8,2.2-8.8L544.3,461.5z"/>
	<path class="st10" d="M629.6,451.8c-5.2,2.8-13.4,3.2-13.4,3.2s-69.5,7.6-71.1,9c-1.7,1.5-1.8,4.2,2.2,3.7c4-0.5,68.6-9.2,70.5-9.3
		c1.9-0.1,9.8-2.1,13.3-0.2C628,454.5,629.6,451.8,629.6,451.8z"/>
	<path class="st11" d="M630.3,451.2c-1.3,1.7-1.7,3.9,0.7,7.1c-2.5-1.9-3-2.1-3-3.8C628,452.9,630.3,451.2,630.3,451.2z"/>
	<path class="st11" d="M535,462.1c2.5,2.5,4.3,3.5,4.8,5.3c0.6,1.8-1.3,5.8-1.7,6.2c-0.4,0.4,4-4,3.4-6.7
		C540.9,464.3,535,462.1,535,462.1z"/>
</g>
<g>
	<g>
		<g>
			<path class="st12" d="M318.7,520.2l85.8,7.1c7.8-12.3,15-25.7,15.7-26.8c0,0,0,0,0,0c0,0,0-0.1,0.1-0.1
				c-0.1,8.5-0.3,20.8-0.4,28.3l81.9,6.9c7.5-41.9,14.8-88.5,17.4-126.6c0.5-7.9-108.4-30.1-108.4-30.1L384,376
				C368.8,401.1,339.7,467.6,318.7,520.2z"/>
			<path class="st13" d="M402,527.1l2.7,0.4c7.7-11.9,15-25.9,15.6-27c0,0,0,0,0,0c0,0,0-0.1,0.1-0.1c0,0,0,0,0,0
				c0.5-16,2.4-34.5,2.4-34.5S410.6,501.8,402,527.1z"/>
		</g>
		<g>
			<path class="st0" d="M434.2,139.9c1.5,11.3,13.4,37.9,12.6,50.5l-26.7,7.4c0,0-26,6.8-21.5,0.3c6.1-8.6,3.8-4.4,6.2-10.1
				c1.4-3.4,2.3-9.8,3-16.6c0.8-9.3,1.1-19.5,1.2-24.4c0-1.9,0-3.1,0-3.1l-0.5-2.2l9.9-25.9C418.4,115.9,432.6,127.5,434.2,139.9z"/>
			<path class="st14" d="M408,166.5c0.8-9.3,0.9-14.5,0.9-19.4l6.2-3.1c0,0,12.4-1.4,14.9,1.6C433.7,150.2,422.5,171.4,408,166.5z"/>
		</g>
		<path class="st5" d="M440.6,164.2c-10.3-3.4-11.8,15.6-22.3,16.3c-5.6,0.4-4.3-2.3-6.8-5.2c-1.6-1.8-3-3.8-5.7-0.9
			c-53.3,57.5-10.2,206.2-17,216.4c-5.6,8.3,45.2,28.5,73,21.7c69.8-17,38.3-40.5,35.9-63.3c-0.9-8.7-21.7-156.4-21.7-156.4
			S457,181.2,440.6,164.2z"/>
		<path class="st15" d="M189.8,220.4c2.9,2.8,78.2,98.9,112.5,94.7c22-2.6,58.5-50.7,66-43.6c11.6,11,4.8,30.5,3.8,43.9
			c-0.7,8.9-6.2,26-7,32.3c-2,15.6-13.1,46.7-9.9,56.2c3.2,9.5,3.5,16.8,7.6,20.3c4.1,3.5,36.6,15.8,43.6,9
			c3.8-3.7,9.5-13.7,10.2-24.7c0-0.3,0-0.5,0-0.8c0.5-11.9-7.7-30.2-8-46.9c-0.3-16.3-0.1-34.2,1.8-51.8
			c4.5-40.9-12.2-65.4-7.4-99.2c0.5-3.7,0.9-7,1.3-10c0.2-1.4,0.3-2.7,0.4-4c0.7-6.9,0.9-11.9,1-15.4c0.1-4.2-0.1-6-0.1-6
			c-0.2,0-0.4,0.1-0.6,0.1c-47.4,2.4-93.6,89-115.7,89.5c-16.8,0.4-63.4-57-69.4-65C215.3,192.7,185.5,216.3,189.8,220.4z"/>
		<path class="st16" d="M453.3,415.3c7.3,25.1,58.5,55.3,58.5,55.3s7.9-44.4,6.8-51.5C517.6,412,453.3,415.3,453.3,415.3z"/>
		<g>
			<path class="st0" d="M438.3,111c0,0-0.3,4.7-0.8,10.5c-0.7,7.2-1.8,16.2-3.5,20.6c-0.1,0.3-0.3,0.7-0.5,1
				c-4.2,7.8-23.1,16.1-38.6,14.2c-6.7-0.8,3.5-20.8-2.8-21.3c-3.6-0.3-1.2-6.3,1.9-13.2c2.2-4.9,4.6-10.1,5.6-14.2
				c0.1-0.2,0.1-0.4,0.1-0.7L438.3,111z"/>
			<path class="st17" d="M451.2,116.7c0.8,1.1,1.3,2.2,1.6,3.4c2.1,10.6-17.2,25.3-19.2,22.9l0,0c-2.6-3.1,2.8-12.7,0.1-15.3
				c-4.1-3.9-5,0-9.1,3.3c-4.4,3.6-11.7,3.2-6.2-4c1.5-1.9,2.3-3.4,2.6-4.6c0.9-3.2-1.9-3.9-5.4-3.8c-5.2,0.2-5.5,1.4-8.9-0.7
				c-3.4-2.1,3.4-6.8-3.2-8.5c-1.3-0.3-2.5-0.6-3.8-1c-5-1.3-9.5-3.1-9.9-8.7c0-0.4,0-0.8,0-1.2c0.1-2.6,0.6-4.5,1.4-5.9
				c0.3-0.5,0.7-1,1.1-1.3l0,0c3.1-2.7,8.3-1.4,12.3-0.2c0.3,0.1,0.6,0.2,0.9,0.3c0.8,0.2,1.5,0.1,2.1-0.3c2.7-1.6,5.2-7.1,11.4-6.2
				c6.1,0.8,5,4.5,10.4,5.5c3.3,0.6,10.3-4.5,15,0.1c1.6,1.5,2.5,3.1,3.2,4.6C450.4,102.2,445.4,109.4,451.2,116.7z"/>
		</g>
		<path class="st0" d="M211.8,272"/>
		<g>
			<g>
				<path class="st18" d="M592.6,429.5c-1.6,6.5-3.1,4.5-6.4,12.8c-3.2,8.2-12,15-7.4,14.8c5.6-0.2,6.7-0.5,9-1.3
					c2.2-0.8-1.7,7.5,0.4,11.8c2.2,4.4,12.9,7.9,18.2,5.2c5.3-2.7,9.5-8.8,10.7-17.3c1.1-8.4-1.7-20.4-2.2-24.2
					S592.6,429.5,592.6,429.5z"/>
			</g>
			<path class="st19" d="M442.3,165.2c-1.8,13,11.1,71.3-2.3,115.9c-10.7,35.6,9.5,70.5,9.5,88.7c-0.1,18-4.1,44.6,11.9,55.2
				c16,10.5,42.6,20.9,54.3,21.4c9.4,0.4,22.8-12,17.1-29.2c-4.6-14-27.3-59.9-29.2-86.2c-0.4-5.7-0.5-10.6-0.1-14
				c0-0.2,0.1-0.5,0.1-0.7c0.4-2.9,0.9-5.9,1.5-8.8c2.5-13.3,6.1-26.5,6.5-32.3l0,0c0-0.5,0-1,0-1.4c0,0,0,0,0,0c0-0.1,0-0.2,0-0.3
				c0,0,0,0,0,0c0,0,0-0.1,0-0.1c0,0,0,0,0,0c5.1,3.1,51.1,27,66.8,58.5c3.9,11.9,5.6,26.1,6.3,39.9l0,0.1c0.2,3.3,0.3,6.7,0.4,9.9
				l0,0.3c0.5,21.4-0.5,40,2.3,44.5c1.8,1.1,3.7,2.2,5.6,3.1c8,4,16.3,6.3,23,6.3c2.4,0,4.7-0.3,6.6-0.9c0-0.1,1.9-22,2.7-47.6
				c0.1-2.4,0.1-4.8,0.2-7.2l0,0c0.5-23-0.1-47.6-3.9-61.4c-11.3-41.1-72.7-83.6-106.4-113.5C492.4,185.3,442.3,165.2,442.3,165.2z"/>
		</g>
		<path class="st20" d="M490.8,262.1c0.8,4.3,3.3,42.1,12.5,54.8c0-0.2,0.1-0.5,0.1-0.7c0.4-2.9,0.9-5.9,1.5-8.8
			c2.5-13.3,6.1-26.5,6.5-32.3l0,0c0-0.5,0-1,0-1.4c0,0,0,0,0,0c0-0.1,0-0.3,0-0.3c0-0.1,0-0.2,0-0.2c0,0,0,0,0,0
			S489.9,257.4,490.8,262.1z"/>
	</g>
	<circle class="st19" cx="427.2" cy="127.5" r="12.1"/>
	<path class="st3" d="M406.7,92.2c-1.9-0.5-0.5-2.6,2.3-2.3c8.8,0.7,24.3,8.8,22.7,32.6c-0.3,4-6.7,5.4-6-0.2
		C426.4,116.6,428,97.5,406.7,92.2z"/>
	<g>
		<path class="st19" d="M406.7,91.3c11.2,1.5,20.8,9.8,22,21.4c0.2,1.6,0.2,3.2,0.2,4.8c0,0.6-0.5,1-1.1,1c-0.6,0-1.1-0.5-1-1.1
			c0.1-1.5,0.1-3,0-4.5c-0.6-11.1-9.6-19.2-20.2-21C406.3,91.7,406.4,91.2,406.7,91.3L406.7,91.3z"/>
	</g>
	<path class="st21" d="M426.7,131.6c-3,2.8-12.3,17.8-41.1,15.8"/>
	<g>
		<path class="st3" d="M435.8,127.5c0,4.8-3.9,8.6-8.6,8.6c-1.3,0-2.6-0.3-3.7-0.8c-2.9-1.4-5-4.4-5-7.8c0-4.8,3.9-8.6,8.6-8.6
			c2.1,0,4.1,0.8,5.6,2.1C434.6,122.4,435.8,124.8,435.8,127.5z"/>
		<path class="st14" d="M435.8,127.5c0,4.8-3.9,8.6-8.6,8.6c-1.3,0-2.6-0.3-3.7-0.8c7.9,1.4,11.7-9,9.2-14.4
			C434.6,122.4,435.8,124.8,435.8,127.5z"/>
		<g>
			<path class="st22" d="M424,121.6c0.6-0.3,1.2-0.5,2-0.6"/>
			<path class="st22" d="M421.7,130.8c-1.4-1.5-1.7-5.4,0.4-7.8"/>
		</g>
	</g>
	<g>
		<path class="st19" d="M391.5,148.4c-0.1,0.2-0.3,0.4-0.7,0.5c-2.6,0.7-13.2,3.7-13.1-1.9c0,0,0,0,0-0.1c0.1-6.5,12-1.5,13.3-0.6
			C391.3,146.5,391.9,147.7,391.5,148.4z"/>
		<path class="st14" d="M391.5,148.4c-0.1,0.2-0.3,0.4-0.7,0.5c-2.6,0.7-13.2,3.7-13.1-1.9c0,0,0,0,0-0.1
			C380.4,149.9,384.9,149.6,391.5,148.4z"/>
	</g>
</g>
<g>
	<path class="st23" d="M181.4,111c-0.7-0.1-1.2-0.6-1.3-1.3c-0.5-2.5-1.2-4.9-2.1-7.3c-0.3-0.6-0.1-1.4,0.5-1.8l5.5-4.6
		c0.6-0.5,0.7-1.3,0.4-2c-0.7-1.2-1.4-2.4-2.1-3.6c-0.4-0.6-1.2-0.9-1.9-0.7l-6.9,2.3c-0.6,0.2-1.3,0-1.7-0.5
		c-1.5-1.9-3.2-3.6-5.1-5.2c-0.5-0.4-0.7-1.2-0.4-1.8l2.7-6.6c0.3-0.7,0-1.5-0.6-1.9c-1.2-0.8-2.4-1.6-3.6-2.3
		c-0.6-0.4-1.4-0.3-2,0.3l-5.1,5.3c-0.5,0.5-1.2,0.6-1.8,0.4c-2.1-0.9-4.4-1.7-6.6-2.2c-0.7-0.2-1.1-0.7-1.2-1.4l-0.7-7.1
		c-0.1-0.7-0.6-1.3-1.4-1.4c-1.5-0.2-2.9-0.3-4.4-0.4c-0.7,0-1.4,0.4-1.6,1.2l-2,7.1c-0.2,0.6-0.7,1.1-1.3,1.1
		c-1.7,0.2-4.8,0.6-6.8,1.1c-0.6,0.1-1.3-0.1-1.7-0.7l-4-6.1c-0.4-0.6-1.2-0.9-1.9-0.6c-1.4,0.5-2.8,1.1-4.1,1.7
		c-0.7,0.3-1,1-0.9,1.8l1.5,7.1c0.1,0.7-0.2,1.3-0.7,1.7c-1.9,1.2-3.7,2.5-5.4,4c-0.5,0.4-1.2,0.5-1.8,0.2l-6.3-3.5
		c-0.6-0.4-1.5-0.2-2,0.3c-1,1.1-2,2.2-2.9,3.4c-0.5,0.6-0.4,1.4,0,2l4.6,5.6c0.4,0.5,0.5,1.3,0.1,1.8c-1.2,1.9-2.2,4-3,6.1
		c-0.2,0.6-0.9,1-1.5,1l-7.3-0.2c-0.7,0-1.4,0.5-1.6,1.2c-0.4,1.4-0.7,2.9-1,4.3c-0.1,0.7,0.3,1.5,0.9,1.8l6.6,2.8
		c0.6,0.3,1,0.9,1,1.5c-0.1,2.2,0,5.4,0.1,7c0,0.6-0.3,1.2-0.9,1.5l-6.6,3.2c-0.7,0.3-1,1.1-0.9,1.8c0.3,1.4,0.7,2.8,1.1,4.2
		c0.2,0.7,0.9,1.2,1.7,1.1l7.1-0.6c0.7-0.1,1.3,0.3,1.6,1c1,2.2,2.1,4.4,3.4,6.4c0.4,0.6,0.3,1.3,0,1.8l-4.3,5.9
		c-0.4,0.6-0.4,1.4,0.1,2c0.9,1.1,1.8,2.1,2.8,3.1c0.5,0.5,1.4,0.6,2,0.2l6-3.8c0.6-0.4,1.3-0.3,1.9,0.1c1.9,1.6,4,3,6.2,4.2
		c0.6,0.3,0.9,1,0.8,1.6l-1.1,7.2c-0.1,0.7,0.3,1.4,1,1.7c1.3,0.5,2.5,1,3.8,1.4c0.7,0.2,1.5-0.1,1.9-0.7l3.6-6.2
		c0.3-0.6,1-0.9,1.7-0.8c2.5,0.5,5.1,0.8,7.7,0.8c0.7,0,1.3,0.4,1.5,1.1l2.4,6.9c0.2,0.7,0.9,1.1,1.6,1.1l0,0
		c1.3-0.1,2.7-0.3,3.9-0.6c0.7-0.1,1.3-0.8,1.3-1.5l0.3-7.2c0-0.7,0.5-1.3,1.1-1.5c2.6-0.8,5-1.8,7.3-3c0.6-0.3,1.3-0.2,1.8,0.2
		l5.3,4.9c0.5,0.5,1.4,0.6,2,0.2c1.1-0.7,2.2-1.5,3.2-2.3c0.6-0.5,0.8-1.3,0.5-1.9l-3.1-6.5c-0.3-0.6-0.2-1.3,0.3-1.8
		c1.9-1.9,3.6-3.9,5.1-6.1c0.4-0.6,1.1-0.8,1.7-0.6l6.9,1.9c0.7,0.2,1.5-0.1,1.8-0.8c0.6-1.2,1.2-2.4,1.7-3.6
		c0.3-0.7,0.1-1.5-0.5-1.9l-5.8-4.3c-0.5-0.4-0.8-1.1-0.6-1.7c0.8-2.5,1.3-5,1.6-7.6c0.1-0.7,0.6-1.2,1.2-1.4l7-1.5
		c0.7-0.2,1.3-0.8,1.3-1.6c0-1.7-0.1-3.4-0.3-5.1l0-0.2L181.4,111z M147.1,117.1c0,0.3,0,0.6,0,0.9c0,0.9-0.2,1.8-0.5,2.6
		c-0.1,0.3-0.3,0.6-0.4,0.9c-0.4,0.8-1,1.5-1.7,2c-0.2,0.2-0.5,0.4-0.8,0.6c-0.7,0.5-1.6,0.8-2.4,1c-0.2,0-0.5,0.1-0.8,0.1
		c-0.1,0-0.1,0-0.2,0c-0.9,0.1-1.8,0-2.6-0.3c-0.3-0.1-0.6-0.2-0.9-0.3c-0.8-0.4-1.5-0.8-2.1-1.4c-0.2-0.2-0.5-0.5-0.7-0.7
		c-0.5-0.7-0.9-1.4-1.2-2.2c-0.1-0.3-0.2-0.6-0.3-1c0-0.2-0.1-0.4-0.1-0.6c-0.1-0.6,0-1.3,0-1.9c0.1-0.3,0.1-0.7,0.2-1
		c0.2-0.8,0.6-1.6,1.1-2.2c0.2-0.3,0.4-0.5,0.7-0.8c0.6-0.6,1.2-1.1,2-1.5c0.3-0.2,0.6-0.3,0.9-0.4c0.5-0.2,1-0.3,1.6-0.3
		c0.3,0,0.6,0,0.8,0c0.3,0,0.7,0,1,0.1c0.8,0.1,1.6,0.4,2.4,0.8c0.3,0.2,0.6,0.3,0.8,0.5c0.7,0.5,1.3,1.1,1.8,1.8
		c0.2,0.3,0.3,0.6,0.5,0.8C146.8,115.3,147,116.2,147.1,117.1L147.1,117.1z"/>
	<path class="st24" d="M167.4,114.9L167.4,114.9c0.1,1.3,0.2,2.5,0.1,3.6c-0.1,3.4-0.8,6.7-2,9.7c-0.4,1.1-1,2.2-1.6,3.2
		c-1.6,2.9-3.8,5.5-6.4,7.6c-0.9,0.8-1.9,1.5-2.9,2.1c-2.8,1.8-5.9,3.1-9.2,3.7c-0.9,0.2-1.9,0.3-2.9,0.4c-0.2,0-0.5,0-0.7,0.1
		c-3.4,0.3-6.7-0.1-9.8-1c-1.2-0.3-2.3-0.8-3.4-1.2c-3-1.3-5.7-3.2-8.1-5.4c-0.9-0.9-1.7-1.8-2.5-2.7c-2-2.5-3.5-5.3-4.6-8.4
		c-0.4-1.2-0.7-2.4-0.9-3.7c-0.1-0.8-0.3-1.6-0.3-2.4c-0.2-2.4-0.2-4.8,0.2-7.1c0.2-1.3,0.5-2.5,0.8-3.7c0.9-3,2.3-5.8,4.2-8.3
		c0.8-1,1.6-2,2.5-3c2.2-2.2,4.7-4.1,7.5-5.5c1.1-0.6,2.3-1.1,3.6-1.5c1.9-0.6,3.9-1.1,6-1.3c1.1-0.1,2.1-0.2,3.2-0.1
		c1.3,0,2.6,0.1,3.8,0.3c3.2,0.5,6.2,1.5,9,3c1.1,0.6,2.2,1.3,3.2,2c2.6,1.9,4.9,4.2,6.7,6.9c0.7,1,1.3,2.1,1.9,3.2
		C166.1,108.4,167,111.6,167.4,114.9z"/>
	<path class="st25" d="M154.1,116.3L154.1,116.3c0.1,0.7,0.1,1.3,0.1,1.9c0,1.8-0.4,3.5-1,5c-0.2,0.6-0.5,1.1-0.8,1.7
		c-0.9,1.5-2,2.9-3.3,4c-0.5,0.4-1,0.8-1.5,1.1c-1.4,0.9-3.1,1.6-4.8,2c-0.5,0.1-1,0.2-1.5,0.2c-0.1,0-0.2,0-0.4,0
		c-1.8,0.1-3.5-0.1-5.1-0.5c-0.6-0.2-1.2-0.4-1.8-0.6c-1.6-0.7-3-1.6-4.2-2.8c-0.5-0.4-0.9-0.9-1.3-1.4c-1-1.3-1.8-2.8-2.4-4.4
		c-0.2-0.6-0.4-1.2-0.5-1.9c-0.1-0.4-0.1-0.8-0.2-1.2c-0.1-1.3-0.1-2.5,0.1-3.7c0.1-0.7,0.2-1.3,0.4-1.9c0.5-1.6,1.2-3,2.2-4.3
		c0.4-0.5,0.8-1.1,1.3-1.5c1.1-1.2,2.4-2.1,3.9-2.9c0.6-0.3,1.2-0.6,1.9-0.8c1-0.3,2-0.6,3.1-0.7c0.6-0.1,1.1-0.1,1.7-0.1
		c0.7,0,1.3,0.1,2,0.2c1.7,0.3,3.2,0.8,4.7,1.6c0.6,0.3,1.1,0.7,1.7,1c1.3,1,2.5,2.2,3.5,3.6c0.4,0.5,0.7,1.1,1,1.7
		C153.5,112.9,154,114.6,154.1,116.3z"/>
	<path class="st24" d="M162.6,102.1c-1.3-1.4-2.7-2.7-4.3-3.9c-1-0.7-2.1-1.4-3.2-2c-2.8-1.5-5.8-2.5-9-3c-1.2-0.2-2.5-0.3-3.8-0.3
		c-1.1,0-2.1,0-3.2,0.1c-2.1,0.2-4.1,0.7-6,1.3c-1.2,0.4-2.4,0.9-3.6,1.5c-2.8,1.4-5.3,3.3-7.5,5.5c-0.9,0.9-1.7,1.9-2.5,3
		c-1.8,2.5-3.2,5.3-4.2,8.3c-0.4,1.2-0.6,2.5-0.8,3.7c-0.4,2.3-0.4,4.7-0.2,7.1c0.1,0.8,0.2,1.6,0.3,2.4c0.2,1.3,0.6,2.5,0.9,3.7
		c0.8,2.5,2,4.8,3.4,6.9c-0.4-0.4-0.7-0.8-1.1-1.3c-2-2.5-3.5-5.3-4.6-8.4c-0.4-1.2-0.7-2.4-0.9-3.6c-0.1-0.8-0.3-1.6-0.3-2.4
		c-0.2-2.4-0.2-4.8,0.2-7.1c0.2-1.3,0.5-2.5,0.8-3.7c0.9-3,2.3-5.8,4.2-8.3c0.8-1,1.6-2,2.5-3c2.2-2.2,4.7-4.1,7.5-5.5
		c1.1-0.6,2.3-1.1,3.6-1.5c1.9-0.6,3.9-1.1,6-1.3c1.1-0.1,2.1-0.2,3.2-0.1c1.3,0,2.6,0.1,3.8,0.3c3.2,0.5,6.2,1.5,9,3
		c1.1,0.6,2.2,1.3,3.2,2C158.6,97.3,160.8,99.5,162.6,102.1z"/>
</g>
<g>
	<path class="st23" d="M252.2,111c-0.5-0.1-0.9-0.4-1-0.9c-0.4-1.8-0.9-3.6-1.5-5.3c-0.2-0.5,0-1,0.3-1.3l4-3.3
		c0.4-0.4,0.5-1,0.3-1.4c-0.5-0.9-1-1.8-1.5-2.6c-0.3-0.5-0.8-0.7-1.4-0.5l-5.1,1.7c-0.5,0.2-1,0-1.3-0.4c-1.1-1.4-2.4-2.7-3.7-3.8
		c-0.4-0.3-0.5-0.9-0.3-1.3l2-4.8c0.2-0.5,0-1.1-0.4-1.4c-0.9-0.6-1.7-1.2-2.7-1.7c-0.5-0.3-1.1-0.2-1.4,0.2l-3.7,3.8
		c-0.3,0.3-0.9,0.5-1.3,0.3c-1.6-0.7-3.2-1.2-4.8-1.6c-0.5-0.1-0.8-0.5-0.9-1l-0.5-5.2c0-0.5-0.5-1-1-1c-1.1-0.1-2.1-0.2-3.2-0.3
		c-0.5,0-1,0.3-1.2,0.8l-1.5,5.1c-0.1,0.5-0.5,0.8-1,0.8c-1.2,0.1-3.5,0.5-5,0.8c-0.5,0.1-0.9-0.1-1.2-0.5l-2.9-4.4
		c-0.3-0.5-0.9-0.6-1.4-0.5c-1,0.4-2,0.8-3,1.3c-0.5,0.2-0.8,0.8-0.7,1.3l1.1,5.2c0.1,0.5-0.1,1-0.5,1.2c-1.4,0.9-2.7,1.8-4,2.9
		c-0.4,0.3-0.9,0.4-1.3,0.1l-4.6-2.6c-0.5-0.3-1.1-0.2-1.4,0.2c-0.7,0.8-1.4,1.6-2.1,2.5c-0.3,0.4-0.3,1,0,1.5l3.3,4.1
		c0.3,0.4,0.4,0.9,0.1,1.3c-0.9,1.4-1.6,2.9-2.2,4.4c-0.2,0.4-0.6,0.7-1.1,0.7l-5.3-0.1c-0.5,0-1,0.3-1.2,0.9
		c-0.3,1-0.5,2.1-0.7,3.2c-0.1,0.5,0.2,1.1,0.7,1.3l4.8,2.1c0.4,0.2,0.7,0.6,0.7,1.1c-0.1,1.6,0,3.9,0.1,5.1c0,0.5-0.2,0.9-0.6,1.1
		l-4.8,2.4c-0.5,0.2-0.7,0.8-0.6,1.3c0.2,1,0.5,2.1,0.8,3.1c0.2,0.5,0.7,0.9,1.2,0.8l5.2-0.4c0.5,0,1,0.2,1.2,0.7
		c0.7,1.6,1.5,3.2,2.5,4.6c0.3,0.4,0.3,0.9,0,1.3l-3.1,4.3c-0.3,0.4-0.3,1,0,1.4c0.7,0.8,1.3,1.5,2.1,2.3c0.4,0.4,1,0.5,1.5,0.2
		l4.4-2.8c0.4-0.3,1-0.2,1.4,0.1c1.4,1.2,2.9,2.2,4.5,3.1c0.4,0.2,0.7,0.7,0.6,1.2l-0.8,5.3c-0.1,0.5,0.2,1,0.7,1.3
		c0.9,0.4,1.8,0.7,2.8,1c0.5,0.2,1.1-0.1,1.4-0.5l2.6-4.5c0.2-0.4,0.7-0.7,1.2-0.6c1.8,0.4,3.7,0.6,5.6,0.6c0.5,0,0.9,0.3,1.1,0.8
		l1.7,5c0.2,0.5,0.7,0.8,1.2,0.8l0,0c1-0.1,1.9-0.2,2.9-0.4c0.5-0.1,0.9-0.6,1-1.1l0.2-5.2c0-0.5,0.4-0.9,0.8-1.1
		c1.9-0.6,3.7-1.3,5.4-2.2c0.4-0.2,1-0.2,1.3,0.2l3.8,3.6c0.4,0.4,1,0.4,1.4,0.1c0.8-0.5,1.6-1.1,2.3-1.7c0.4-0.3,0.6-0.9,0.3-1.4
		l-2.3-4.7c-0.2-0.4-0.1-1,0.2-1.3c1.4-1.4,2.6-2.8,3.7-4.4c0.3-0.4,0.8-0.6,1.3-0.5l5,1.4c0.5,0.1,1.1-0.1,1.3-0.6
		c0.5-0.9,0.9-1.7,1.3-2.6c0.2-0.5,0.1-1.1-0.4-1.4l-4.2-3.2c-0.4-0.3-0.6-0.8-0.4-1.3c0.6-1.8,0.9-3.7,1.2-5.6
		c0.1-0.5,0.4-0.9,0.9-1l5.1-1.1c0.5-0.1,0.9-0.6,0.9-1.1c0-1.2-0.1-2.5-0.2-3.8l0-0.1L252.2,111z M227.2,115.5c0,0.2,0,0.5,0,0.7
		c0,0.7-0.2,1.3-0.4,1.9c-0.1,0.2-0.2,0.4-0.3,0.6c-0.3,0.6-0.7,1.1-1.2,1.5c-0.2,0.1-0.4,0.3-0.6,0.4c-0.5,0.3-1.1,0.6-1.8,0.7
		c-0.2,0-0.4,0.1-0.6,0.1c0,0-0.1,0-0.1,0c-0.7,0.1-1.3,0-1.9-0.2c-0.2-0.1-0.4-0.1-0.7-0.2c-0.6-0.3-1.1-0.6-1.6-1.1
		c-0.2-0.2-0.3-0.3-0.5-0.5c-0.4-0.5-0.7-1-0.9-1.6c-0.1-0.2-0.1-0.5-0.2-0.7c0-0.1-0.1-0.3-0.1-0.5c0-0.5,0-0.9,0-1.4
		c0-0.2,0.1-0.5,0.2-0.7c0.2-0.6,0.5-1.1,0.8-1.6c0.1-0.2,0.3-0.4,0.5-0.6c0.4-0.4,0.9-0.8,1.5-1.1c0.2-0.1,0.5-0.2,0.7-0.3
		c0.4-0.1,0.8-0.2,1.2-0.3c0.2,0,0.4,0,0.6,0c0.2,0,0.5,0,0.7,0.1c0.6,0.1,1.2,0.3,1.7,0.6c0.2,0.1,0.4,0.2,0.6,0.4
		c0.5,0.4,0.9,0.8,1.3,1.3c0.1,0.2,0.3,0.4,0.4,0.6C226.9,114.2,227.1,114.8,227.2,115.5L227.2,115.5z"/>
	<path class="st24" d="M241.9,113.9L241.9,113.9c0.1,0.9,0.1,1.8,0.1,2.6c-0.1,2.5-0.6,4.9-1.5,7.1c-0.3,0.8-0.7,1.6-1.1,2.3
		c-1.2,2.1-2.8,4-4.7,5.6c-0.7,0.6-1.4,1.1-2.1,1.5c-2,1.3-4.3,2.2-6.7,2.7c-0.7,0.1-1.4,0.2-2.1,0.3c-0.2,0-0.3,0-0.5,0
		c-2.5,0.2-4.9-0.1-7.2-0.7c-0.9-0.2-1.7-0.5-2.5-0.9c-2.2-1-4.2-2.3-5.9-4c-0.6-0.6-1.3-1.3-1.8-2c-1.4-1.8-2.6-3.9-3.3-6.1
		c-0.3-0.9-0.5-1.8-0.7-2.7c-0.1-0.6-0.2-1.1-0.3-1.7c-0.2-1.8-0.1-3.5,0.1-5.2c0.1-0.9,0.4-1.8,0.6-2.7c0.7-2.2,1.7-4.3,3-6.1
		c0.6-0.8,1.2-1.5,1.8-2.2c1.6-1.6,3.4-3,5.5-4c0.8-0.4,1.7-0.8,2.6-1.1c1.4-0.5,2.9-0.8,4.4-0.9c0.8-0.1,1.6-0.1,2.3-0.1
		c0.9,0,1.9,0.1,2.8,0.2c2.3,0.4,4.5,1.1,6.5,2.2c0.8,0.4,1.6,0.9,2.3,1.5c1.9,1.4,3.5,3.1,4.9,5c0.5,0.7,1,1.5,1.4,2.3
		C241,109.2,241.7,111.5,241.9,113.9z"/>
	<path class="st26" d="M232.3,114.9L232.3,114.9c0,0.5,0.1,0.9,0.1,1.4c0,1.3-0.3,2.5-0.8,3.7c-0.2,0.4-0.4,0.8-0.6,1.2
		c-0.6,1.1-1.4,2.1-2.4,2.9c-0.3,0.3-0.7,0.6-1.1,0.8c-1,0.7-2.2,1.2-3.5,1.4c-0.4,0.1-0.7,0.1-1.1,0.2c-0.1,0-0.2,0-0.3,0
		c-1.3,0.1-2.6,0-3.7-0.4c-0.4-0.1-0.9-0.3-1.3-0.5c-1.1-0.5-2.2-1.2-3.1-2.1c-0.3-0.3-0.7-0.7-0.9-1c-0.7-0.9-1.3-2-1.7-3.2
		c-0.1-0.4-0.3-0.9-0.4-1.4c-0.1-0.3-0.1-0.6-0.1-0.9c-0.1-0.9-0.1-1.8,0.1-2.7c0.1-0.5,0.2-1,0.3-1.4c0.3-1.1,0.9-2.2,1.6-3.2
		c0.3-0.4,0.6-0.8,0.9-1.1c0.8-0.8,1.8-1.6,2.8-2.1c0.4-0.2,0.9-0.4,1.4-0.6c0.7-0.2,1.5-0.4,2.3-0.5c0.4,0,0.8-0.1,1.2-0.1
		c0.5,0,1,0,1.4,0.1c1.2,0.2,2.4,0.6,3.4,1.1c0.4,0.2,0.8,0.5,1.2,0.8c1,0.7,1.8,1.6,2.5,2.6c0.3,0.4,0.5,0.8,0.7,1.2
		C231.8,112.5,232.2,113.7,232.3,114.9z"/>
	<path class="st24" d="M238.5,104.6c-0.9-1-2-2-3.1-2.8c-0.7-0.5-1.5-1-2.3-1.5c-2-1.1-4.2-1.8-6.5-2.2c-0.9-0.1-1.8-0.2-2.8-0.2
		c-0.8,0-1.5,0-2.3,0.1c-1.5,0.2-3,0.5-4.4,0.9c-0.9,0.3-1.8,0.7-2.6,1.1c-2.1,1-3.9,2.4-5.5,4c-0.7,0.7-1.3,1.4-1.8,2.2
		c-1.3,1.8-2.4,3.9-3,6.1c-0.3,0.9-0.5,1.8-0.6,2.7c-0.3,1.7-0.3,3.4-0.1,5.2c0.1,0.6,0.1,1.2,0.3,1.7c0.2,0.9,0.4,1.8,0.7,2.7
		c0.6,1.8,1.5,3.5,2.5,5c-0.3-0.3-0.5-0.6-0.8-0.9c-1.4-1.8-2.6-3.9-3.3-6.1c-0.3-0.9-0.5-1.8-0.7-2.7c-0.1-0.6-0.2-1.1-0.3-1.7
		c-0.2-1.8-0.1-3.5,0.1-5.2c0.1-0.9,0.4-1.8,0.6-2.7c0.7-2.2,1.7-4.3,3-6.1c0.6-0.8,1.2-1.5,1.8-2.2c1.6-1.6,3.4-3,5.5-4
		c0.8-0.4,1.7-0.8,2.6-1.1c1.4-0.5,2.9-0.8,4.4-0.9c0.8-0.1,1.6-0.1,2.3-0.1c0.9,0,1.9,0.1,2.8,0.2c2.3,0.4,4.5,1.1,6.5,2.2
		c0.8,0.4,1.6,0.9,2.3,1.5C235.6,101,237.2,102.7,238.5,104.6z"/>
</g>
<g>
	<path class="st23" d="M222.6,37.3c-0.6-0.1-1-0.5-1.1-1.1c-0.4-2.1-1-4.2-1.8-6.2c-0.2-0.5-0.1-1.2,0.4-1.5l4.7-3.9
		c0.5-0.4,0.6-1.1,0.3-1.7c-0.6-1.1-1.2-2.1-1.8-3.1c-0.3-0.5-1-0.8-1.6-0.6l-5.9,2c-0.5,0.2-1.1,0-1.5-0.4
		c-1.3-1.6-2.8-3.1-4.3-4.4c-0.4-0.4-0.6-1-0.4-1.5l2.3-5.6c0.2-0.6,0-1.3-0.5-1.6c-1-0.7-2-1.4-3.1-2c-0.5-0.3-1.2-0.2-1.7,0.2
		l-4.3,4.5c-0.4,0.4-1,0.5-1.5,0.3c-1.8-0.8-3.7-1.4-5.7-1.9c-0.6-0.1-1-0.6-1-1.2l-0.6-6.1c-0.1-0.6-0.6-1.1-1.2-1.2
		c-1.2-0.2-2.5-0.3-3.8-0.3c-0.6,0-1.2,0.4-1.4,1l-1.7,6c-0.1,0.5-0.6,0.9-1.1,1c-1.4,0.2-4.1,0.6-5.8,0.9c-0.5,0.1-1.1-0.1-1.4-0.6
		l-3.4-5.2c-0.3-0.5-1-0.8-1.6-0.5c-1.2,0.4-2.4,0.9-3.5,1.5c-0.6,0.3-0.9,0.9-0.8,1.5l1.3,6.1c0.1,0.6-0.1,1.1-0.6,1.4
		c-1.6,1-3.2,2.1-4.6,3.4c-0.4,0.4-1,0.4-1.6,0.2l-5.4-3c-0.5-0.3-1.2-0.2-1.7,0.3c-0.9,0.9-1.7,1.9-2.5,2.9c-0.4,0.5-0.4,1.2,0,1.7
		l3.9,4.8c0.4,0.4,0.4,1.1,0.1,1.6c-1,1.6-1.9,3.4-2.6,5.2c-0.2,0.5-0.7,0.9-1.3,0.8l-6.2-0.2c-0.6,0-1.2,0.4-1.3,1
		c-0.3,1.2-0.6,2.4-0.8,3.7c-0.1,0.6,0.2,1.3,0.8,1.5l5.7,2.4c0.5,0.2,0.9,0.7,0.8,1.3c-0.1,1.9,0,4.6,0.1,6c0,0.5-0.3,1.1-0.8,1.3
		l-5.6,2.8c-0.6,0.3-0.9,0.9-0.7,1.5c0.3,1.2,0.6,2.4,0.9,3.6c0.2,0.6,0.8,1,1.4,1l6.1-0.5c0.6,0,1.1,0.3,1.4,0.8
		c0.8,1.9,1.8,3.7,2.9,5.4c0.3,0.5,0.3,1.1,0,1.5l-3.7,5c-0.4,0.5-0.3,1.2,0.1,1.7c0.8,0.9,1.6,1.8,2.4,2.6c0.5,0.5,1.2,0.5,1.7,0.2
		l5.1-3.3c0.5-0.3,1.1-0.3,1.6,0.1c1.7,1.3,3.4,2.5,5.3,3.6c0.5,0.3,0.8,0.8,0.7,1.4l-0.9,6.1c-0.1,0.6,0.3,1.2,0.8,1.5
		c1.1,0.4,2.2,0.8,3.3,1.2c0.6,0.2,1.3-0.1,1.6-0.6l3-5.3c0.3-0.5,0.9-0.8,1.4-0.7c2.1,0.4,4.3,0.7,6.6,0.7c0.6,0,1.1,0.4,1.3,0.9
		l2,5.8c0.2,0.6,0.8,1,1.4,0.9l0,0c1.1-0.1,2.3-0.3,3.4-0.5c0.6-0.1,1.1-0.6,1.1-1.3l0.2-6.1c0-0.6,0.4-1.1,1-1.2
		c2.2-0.7,4.3-1.5,6.2-2.5c0.5-0.3,1.1-0.2,1.6,0.2l4.5,4.2c0.5,0.4,1.2,0.5,1.7,0.1c0.9-0.6,1.8-1.3,2.7-2c0.5-0.4,0.7-1.1,0.4-1.7
		l-2.7-5.5c-0.2-0.5-0.1-1.1,0.3-1.5c1.6-1.6,3-3.3,4.3-5.2c0.3-0.5,0.9-0.7,1.5-0.5l5.9,1.6c0.6,0.2,1.3-0.1,1.6-0.7
		c0.5-1,1-2,1.5-3c0.3-0.6,0.1-1.3-0.4-1.6l-4.9-3.7c-0.5-0.3-0.7-0.9-0.5-1.5c0.6-2.1,1.1-4.3,1.3-6.5c0.1-0.6,0.5-1.1,1.1-1.2
		l5.9-1.3c0.6-0.1,1.1-0.7,1.1-1.3c0-1.4-0.1-2.9-0.2-4.4l0-0.1L222.6,37.3z M193.3,42.6c0,0.3,0,0.5,0,0.8c0,0.8-0.2,1.5-0.5,2.2
		c-0.1,0.2-0.2,0.5-0.4,0.7c-0.4,0.7-0.9,1.2-1.4,1.7c-0.2,0.2-0.4,0.3-0.6,0.5c-0.6,0.4-1.3,0.7-2.1,0.9c-0.2,0-0.4,0.1-0.6,0.1
		c-0.1,0-0.1,0-0.2,0c-0.8,0.1-1.5,0-2.2-0.2c-0.3-0.1-0.5-0.2-0.8-0.3c-0.7-0.3-1.3-0.7-1.8-1.2c-0.2-0.2-0.4-0.4-0.6-0.6
		c-0.4-0.6-0.8-1.2-1-1.9c-0.1-0.3-0.2-0.5-0.2-0.8c0-0.2-0.1-0.4-0.1-0.5c-0.1-0.5,0-1.1,0-1.6c0-0.3,0.1-0.6,0.2-0.8
		c0.2-0.7,0.5-1.3,0.9-1.9c0.2-0.2,0.4-0.5,0.6-0.7c0.5-0.5,1.1-0.9,1.7-1.2c0.3-0.1,0.5-0.2,0.8-0.3c0.4-0.1,0.9-0.2,1.4-0.3
		c0.2,0,0.5,0,0.7,0c0.3,0,0.6,0,0.9,0.1c0.7,0.1,1.4,0.3,2,0.7c0.3,0.1,0.5,0.3,0.7,0.5c0.6,0.4,1.1,1,1.5,1.6
		c0.2,0.2,0.3,0.5,0.4,0.7C193,41.1,193.3,41.8,193.3,42.6L193.3,42.6z"/>
	<path class="st24" d="M210.6,40.7L210.6,40.7c0.1,1.1,0.2,2.1,0.1,3.1c-0.1,2.9-0.7,5.7-1.7,8.3c-0.4,0.9-0.8,1.9-1.3,2.7
		c-1.4,2.5-3.2,4.7-5.4,6.5c-0.8,0.6-1.6,1.2-2.4,1.8c-2.4,1.5-5,2.6-7.9,3.2c-0.8,0.2-1.6,0.3-2.4,0.4c-0.2,0-0.4,0-0.6,0.1
		c-2.9,0.2-5.7-0.1-8.4-0.8c-1-0.3-2-0.6-2.9-1.1c-2.6-1.1-4.9-2.7-6.9-4.6c-0.8-0.7-1.5-1.5-2.1-2.3c-1.7-2.1-3-4.5-3.9-7.2
		c-0.3-1-0.6-2-0.8-3.1c-0.1-0.7-0.2-1.3-0.3-2c-0.2-2.1-0.2-4.1,0.1-6c0.2-1.1,0.4-2.1,0.7-3.2c0.8-2.6,2-5,3.5-7.1
		c0.6-0.9,1.4-1.7,2.1-2.5c1.8-1.9,4-3.5,6.4-4.7c1-0.5,2-0.9,3-1.3c1.6-0.6,3.4-0.9,5.1-1.1c0.9-0.1,1.8-0.1,2.7-0.1
		c1.1,0,2.2,0.1,3.2,0.3c2.7,0.4,5.3,1.3,7.6,2.6c0.9,0.5,1.9,1.1,2.7,1.7c2.2,1.6,4.1,3.6,5.7,5.9c0.6,0.9,1.1,1.8,1.6,2.7
		C209.5,35.2,210.3,37.8,210.6,40.7z"/>
	<path class="st27" d="M199.3,41.9L199.3,41.9c0.1,0.6,0.1,1.1,0.1,1.6c0,1.5-0.3,3-0.9,4.3c-0.2,0.5-0.4,1-0.7,1.4
		c-0.7,1.3-1.7,2.4-2.8,3.4c-0.4,0.3-0.8,0.7-1.3,0.9c-1.2,0.8-2.6,1.4-4.1,1.7c-0.4,0.1-0.8,0.2-1.3,0.2c-0.1,0-0.2,0-0.3,0
		c-1.5,0.1-3,0-4.4-0.4c-0.5-0.1-1-0.3-1.5-0.5c-1.3-0.6-2.6-1.4-3.6-2.4c-0.4-0.4-0.8-0.8-1.1-1.2c-0.9-1.1-1.6-2.4-2-3.7
		c-0.2-0.5-0.3-1.1-0.4-1.6c-0.1-0.3-0.1-0.7-0.2-1.1c-0.1-1.1-0.1-2.1,0.1-3.1c0.1-0.6,0.2-1.1,0.4-1.7c0.4-1.3,1-2.6,1.8-3.7
		c0.3-0.5,0.7-0.9,1.1-1.3c1-1,2.1-1.8,3.3-2.4c0.5-0.3,1-0.5,1.6-0.7c0.9-0.3,1.7-0.5,2.7-0.6c0.5,0,1-0.1,1.4-0.1
		c0.6,0,1.1,0.1,1.7,0.1c1.4,0.2,2.8,0.7,4,1.3c0.5,0.3,1,0.6,1.4,0.9c1.2,0.8,2.2,1.9,3,3.1c0.3,0.5,0.6,0.9,0.8,1.4
		C198.8,39,199.2,40.4,199.3,41.9z"/>
	<path class="st24" d="M206.5,29.8c-1.1-1.2-2.3-2.3-3.6-3.3c-0.9-0.6-1.8-1.2-2.7-1.7c-2.4-1.3-4.9-2.1-7.6-2.6
		c-1.1-0.2-2.2-0.3-3.2-0.3c-0.9,0-1.8,0-2.7,0.1c-1.8,0.2-3.5,0.6-5.1,1.1c-1,0.4-2.1,0.8-3,1.3c-2.4,1.2-4.6,2.8-6.4,4.7
		c-0.8,0.8-1.5,1.6-2.1,2.5c-1.6,2.1-2.8,4.5-3.5,7.1c-0.3,1-0.5,2.1-0.7,3.2c-0.3,1.9-0.4,4-0.1,6c0.1,0.7,0.2,1.4,0.3,2
		c0.2,1.1,0.5,2.1,0.8,3.1c0.7,2.1,1.7,4.1,2.9,5.9c-0.3-0.3-0.6-0.7-0.9-1.1c-1.7-2.1-3-4.5-3.9-7.2c-0.3-1-0.6-2-0.8-3.1
		c-0.1-0.7-0.2-1.3-0.3-2c-0.2-2.1-0.2-4.1,0.1-6c0.2-1.1,0.4-2.1,0.7-3.2c0.8-2.6,2-5,3.5-7.1c0.6-0.9,1.4-1.7,2.1-2.5
		c1.8-1.9,4-3.5,6.4-4.7c1-0.5,2-0.9,3-1.3c1.6-0.6,3.4-0.9,5.1-1.1c0.9-0.1,1.8-0.1,2.7-0.1c1.1,0,2.2,0.1,3.2,0.3
		c2.7,0.4,5.3,1.3,7.6,2.6c0.9,0.5,1.9,1.1,2.7,1.7C203.1,25.7,205,27.6,206.5,29.8z"/>
</g>
<path class="st28" d="M728.9,154.2c-26,1.8-50.9-0.6-76.4-6.6c-3.9-0.9-8.1-2.2-10.7-5.6c-4-5.2-2.8-13.9,1.5-18.8
	c4.3-4.8,10.9-6.3,16.9-5.6c3.9,0.4,7.8,1.6,11.5,0.4c4.7-1.5,7.7-6.4,10.9-10.7c3.1-4.2,7.3-8.4,12.2-7.8c3.6,0.5,6.4,3.6,9.6,5.5
	c3.2,1.9,7.9,2.2,9.7-1.4c3.9-7.7-1.6-28.7,18.7-28.7c29.3,0,24.5,21.2,28,25.6c5.3,6.8,14.8,5.3,22.6,3c7.7-2.3,16.9-4.5,22.9,1.6
	c5.2,5.3,5.7,14.9,11.2,19.8c5.9,5.1,14.2,2.4,21.3,0.1c7.1-2.3,16.2-3.2,20.4,3.9c3.5,5.9,0.9,14.4-4,18.7
	c-4.9,4.3-11.4,5.4-17.6,5.8C797.4,156.3,761,152,728.9,154.2z"/>
<path class="st5" d="M135.5,400.7c10,0,30.5,22.7,1.2,26.3c-29.3,3.6-73.3,2-91,2c-29,0.1-36.2-1.4-36-16.6
	c0.1-8.8,3.8-14.5,19.1-16.8c15.9-2.4,7.8-25.1,27.2-24.4c16.5,0.6,18.2,30.2,33.4,23c15.1-7.3,12,12.5,23,16.2
	C124.6,414.4,125.5,400.7,135.5,400.7z"/>
<path class="st5" d="M239,63c11.6-1.9,13.2-7.1,15.3-23.4c1.6,15.4,3.5,21.3,15.3,23c-10.3,4.5-13.9,6.1-15.6,23.9
	C251.4,68.4,249.1,66.8,239,63z"/>
<path class="st5" d="M88.5,171.9c6.9-1.1,7.9-4.3,9.1-13.9c0.9,9.2,2.1,12.7,9.1,13.7c-6.1,2.7-8.3,3.6-9.3,14.2
	C95.9,175.1,94.5,174.1,88.5,171.9z"/>
</svg>
