<?xml version="1.0" encoding="utf-8"?>
<!-- Generator: Adobe Illustrator 27.7.0, SVG Export Plug-In . SVG Version: 6.00 Build 0)  -->
<svg version="1.1" id="Layer_1" xmlns="http://www.w3.org/2000/svg" xmlns:xlink="http://www.w3.org/1999/xlink" x="0px" y="0px" viewBox="0 0 900 600.2" style="enable-background:new 0 0 900 600.2;" xml:space="preserve">
<style type="text/css">
	.st0{fill:#FFFFFF;}
	.st1{fill:#F8AEA6;}
	.st2{opacity:5.000000e-02;fill:#191937;}
	.st3{fill:#0268A4;}
	.st4{opacity:0.16;fill:#191937;}
	.st5{opacity:0.46;fill:#201F39;}
	.st6{fill:#EFAEA7;}
	.st7{fill:#201F39;}
	.st8{fill:#4C4C5C;}
	.st9{fill-rule:evenodd;clip-rule:evenodd;fill:#FFFFFF;}
	.st10{opacity:0.14;fill:#191937;}
	.st11{opacity:0.11;fill:#191937;}
	.st12{fill:none;stroke:#58586A;stroke-width:3.2054;stroke-linecap:round;stroke-linejoin:round;stroke-miterlimit:10;}
	.st13{opacity:0.18;fill:#201F39;}
	.st14{fill:#F2AD1D;}
	.st15{fill:#FFFFFD;}
	.st16{opacity:0.31;fill:#191937;}
</style>
<path class="st0" d="M896.6,463.6H44.6c-1.9,0-3.4-1.5-3.4-3.4v-5.7c0-1.9,1.5-3.4,3.4-3.4h852.1c1.9,0,3.4,1.5,3.4,3.4v5.7
	C900,462.1,898.5,463.6,896.6,463.6z"/>
<path class="st0" d="M717.5,427.1c24.2,0.8,36.8-1.6,30,6.1c-6.8,7.7-119.2,165.6-136.4,166.3c-17.1,0.8-38.6,2.4-30.4-6.7
	C588.9,583.7,717.5,427.1,717.5,427.1z"/>
<path class="st1" d="M593.7,457.1c4.6,9.5,14.4,20.1,12.2,26.6c-2.1,6.4-3.8,12.1-0.2,12.2c4.8,0.2,6.7-9.1,13.5-8.6
	c4.4,0.3,14.3,11.2,24.8,12.4c20,2.2-6.3-9.9-17.8-26.3c-3.4-4.9-11.1-20.8-14.9-33.5C607.6,427,593.7,457.1,593.7,457.1z"/>
<path class="st2" d="M593.7,457.1c4.6,9.5,14.4,20.1,12.2,26.6c-2.1,6.4-3.8,12.1-0.2,12.2c4.8,0.2,6.7-9.1,13.5-8.6
	c4.4,0.3,14.3,11.2,24.8,12.4c20,2.2-6.3-9.9-17.8-26.3c-3.4-4.9-11.1-20.8-14.9-33.5C607.6,427,593.7,457.1,593.7,457.1z"/>
<path class="st3" d="M582,273.4c-6,0.6-25.4,1.2-43.6,1.5s-60-8.7-93.3-7.4c-33.3,1.3-55.5-23.8-77.3-11.8
	c-24.3,13.4-11.5,55.3-2,51c43.8-19.7,70.2-6,83.1-8.6c13-2.6,64.5-10.5,81.3,3.1c6,4.9,16.6,75.5,28.3,96.5
	c12.9,23.2,29.3,68.2,39.2,69.6c9.9,1.5,28.3,0.6,29-3.6c0.6-4.3-32.9-67.9-38-80.4c-7-17.1-13.4-62.7-8.1-107.3"/>
<path class="st4" d="M582,273.4c-6,0.6-25.4,1.2-43.6,1.5s-60-8.7-93.3-7.4c-33.3,1.3-55.5-23.8-77.3-11.8
	c-24.3,13.4-11.5,55.3-2,51c43.8-19.7,70.2-6,83.1-8.6c13-2.6,64.5-10.5,81.3,3.1c6,4.9,16.6,75.5,28.3,96.5
	c12.9,23.2,29.3,68.2,39.2,69.6c9.9,1.5,28.3,0.6,29-3.6c0.6-4.3-32.9-67.9-38-80.4c-7-17.1-13.4-62.7-8.1-107.3"/>
<path class="st5" d="M332.8,274.7C332.8,274.7,332.8,274.7,332.8,274.7c0.2,0.1,0.3,0.1,0.3,0.1
	C333.1,274.8,332.8,274.7,332.8,274.7z"/>
<path class="st6" d="M334.5,461.6c8.3-4.3,27.8-17.7,27.8-17.7l-12.7-21.3L320.5,443l-0.6,19.9L334.5,461.6z"/>
<path class="st7" d="M341,458.5c2.3,1.4-0.3,2.4-2.4,5.8c-4.9,7.8,24.8,21.6,27.7,25.7c1.5,2.1-3.3,11.4-15.6,8.5
	c-14.2-3.4-37.4-26.6-45.6-35.2c-1.7-1.8-2-4.6-0.7-6.7c4.7-7.6,14.8-16.5,17.3-14.3C326.2,444.8,331.6,452.6,341,458.5z"/>
<g>
	<path class="st6" d="M171,450.3c0,0-10.5,1.8-19.9,3.1c0,0,0,0,0,0c-2.8,0.4-5.5,0.7-7.8,0.9c-1.1,0.1-2.1,0.2-3,0.2l-13-4.6
		l8.3-16.8l1.8-0.3l4.7-0.9l26.4-4.8l2.4,22.8L171,450.3z"/>
	<path class="st7" d="M138.5,458.2c-1,0.4-4.6,2.6-6.1,4.8c-3.4,5,7.5,27.9,7.5,32c0,2.4-6,9.8-14.1,1c-4.2-4.6-17.8-32.7-17.8-55.9
		c0-2.7,28.2-11.1,29-8.1c0.1,0.3,0.3,0.5,0.4,0.8c1.9,4.5,2.2,12.7,5.8,21.5c0.1,0.2,0.2,0.4,0.3,0.6v0
		C144.4,457.3,142,456.7,138.5,458.2z"/>
</g>
<path class="st8" d="M510.8,366.1c-0.9,34.8-149.7,86.7-156,88.4c-10-2.8-31.3-21.9-27.7-29c3.7-7.1,125.3-50.7,122.3-66.2
	c-0.5-2.7-15.9-12-36.2-22.3c-16.5-8.4-36.2-17.5-53.8-24.3c-0.2,0.6-0.5,1.2-0.8,1.9c-7.9,19.9-35.5,97.2-53.5,112.5
	c-17,14.5-139.5,30.2-149.3,30.3c-4.8,0-13.9-23.4-12.2-33.2c15.6-3.9,113.3-27.7,127.6-34.7c13.2-6.4,19.9-74.8,30.7-126.4
	c5.9-28,21.4-45.2,46.7-52.1c13.1-3.6,30.4-9.2,36-5.6c21.2,13.6-19.2,45.6-5.9,50.3C395.8,261.7,511.9,323.4,510.8,366.1z"/>
<g transform="matrix(-1.8846,0,0,1.46036,1581.91,605.299)">
	<path class="st9" d="M511-381.1c0,10.8,7,16.6,15.6,12.1c8.2-4.3,10.6,2.9,17.7,2.9c7.6,0.1,8.7-10.9,14.3-7
		c10.8,7.5,20.1-0.1,15.7-11.4c-3.6-9.1-8.9-10.8-13.4-10.5c-8,0.6-6.8-7.2-16.1-6.7c-11.9,0.6-7.6,12.1-18.4,10.5
		C519.8-392.1,511-386.8,511-381.1z"/>
</g>
<g>
	<path class="st1" d="M561,273.9l-1.4-24.6c10.2-3.7,32.1-17.9,41.9-19.4c10.7-1.6,10.5-0.6,10.5-0.6l-3.9,18.7l-1.9,8.8
		c0,0-4.4,0.5-10.7,4.6c-4.4,2.8-10.6,4.6-15.9,11.2C575.4,277.9,561,273.9,561,273.9z"/>
	<path class="st10" d="M606.2,256.8c0,0-5.3,1.1-11.6,5.2c-11.1-11.8-3.4-23.6,1.8-21.4c3.2,1.4,11.7,7.4,11.7,7.4L606.2,256.8z"/>
</g>
<path class="st0" d="M584.4,239.3c3.1,9.6-8.6,14.6-8.6,22.5c0,4.8,4.3,4.4,6.8,6.4c1.5,1.3,0.2,3.4-1.6,7.1
	c-4.5,9-99.7-2.1-118.7,2.1c-34.7,7.7-81.8-7.7-82.6-27.9c-0.8-20.2,6.4-31.5,13.5-31.1c7.1,0.3,179.8,2.7,179.8,2.7
	S581.3,229.7,584.4,239.3z"/>
<path class="st2" d="M584.4,239.3c3.1,9.6-8.6,14.6-8.6,22.5c0,4.8,4.3,4.4,6.8,6.4c1.5,1.3,0.2,3.4-1.6,7.1
	c-4.5,9-99.7-2.1-118.7,2.1c-34.7,7.7-81.8-7.7-82.6-27.9c-0.8-20.2,6.4-31.5,13.5-31.1c7.1,0.3,179.8,2.7,179.8,2.7
	S581.3,229.7,584.4,239.3z"/>
<path class="st3" d="M584.1,237.6c-8,7.1-14.6,11.8-20.1,14.9c-14.4,8.1-21.2,5.5-26,6.1c-18.7,2.6-32.3,2-60.1,3
	c-7.1,0.2-17.6-3-31.6,0c-30.1,6.4-49.1-2.2-81,16.4c-15.1,8.8-4.5-31.1-4.2-42c0.2-7.9,0.3-32.8,15.5-34c21.3-1.6,34.8,5,56.9,3.6
	c28.2-1.8,89.4-11.7,119.8,1C580.2,218,584.1,237.6,584.1,237.6z"/>
<path class="st11" d="M563.9,252.5c-14.4,8.1-21.2,5.5-26,6.1c-18.7,2.6-32.3,2-60.1,3c22.6-14.4,55.8-37,63.1-38.4
	c13.7-2.7,16.9,22.2,21.8,27.2C563.3,251,563.7,251.7,563.9,252.5z"/>
<path class="st12" d="M548.6,177.3"/>
<g>
	<path class="st1" d="M635.1,224.5c-0.1,8.5,7.6,25.5,1.9,24.9c-5.7-0.5-0.1,18-6.2,17.6c-14.8-0.8-31-11.6-32.3-18.9
		c-1.3-7.3,1.6-27,1.6-27L635.1,224.5z"/>
	<path class="st7" d="M619.1,231.3c4.6,1,4.7,2.1,8.1,0.8c3.4-1.3-1.8-6.3,4.4-6.7c6.2-0.5,12.9-0.2,14.2-7.1
		c1.8-10-7.3-9.2-12.9-8.5c-3.6,0.4-3.8-7.3-10.9-7.6c-5.6-0.2-5.2,3.1-10.3,3.1c-3,0-8.4-5.4-13.4-2.3c-9.3,5.9-2.8,14.7-10.7,21.2
		c-9.2,7.5,8.7,27,11.2,25c2.9-2.3-0.2-11.2,2.6-13c4.3-2.7,4.5,0.8,7.6,4.2c3.3,3.7,9.9,4.5,6.3-2.4
		C611.5,231,615,230.4,619.1,231.3z"/>
</g>
<g>
	<path class="st13" d="M537.9,320.8c-6.1,0,2.9-3.9-7.7-1.2C532.8,312.4,535.3,316.5,537.9,320.8z"/>
	<path class="st13" d="M539.9,320.7c1.6-9.6,0.1-25.5,1.9-32.9c1.7,12.5,4.3,27.9,4.5,34.1c-1.1-0.8-2-1.2-2.7-1.2
		c-1.6,0.1-3.4,0.3-5.4,0.5c-0.1-0.1-0.2-0.3-0.3-0.4C538.5,320.8,539.1,320.8,539.9,320.7z"/>
	<path class="st13" d="M578.6,261.3c-1.4,2.6-4.5,1.4-7.5,2.7c-5.9,2.4-13.1,5.9-19.3,11.1c-3.3,2.8-6.4,6-8.9,9.9
		c-0.1,0.2-0.2,0.4-0.3,0.6c-0.3,0.6-0.6,1.4-0.8,2.3c-0.1-0.7-0.2-1.3-0.3-2c-1.1-8.5-1.7-15.3-0.6-16.1
		c11.4-8.8,32.4-8.8,32.3-9.9C573.1,258.2,580.6,257.9,578.6,261.3z"/>
	<path class="st14" d="M581.5,257.4c1.6,1,3.8,3.6,1.8,7.1c-1.5,2.7-2.7,2.3-5.8,3.6c-9.4,3.8-21.8,10.3-29.2,21.7
		c-7.5,11.4-5.8,47-18.7,62.9c-12.9,15.9-31.6,13.2-48.8,36.9c-17.2,23.7-20.5,57-25.7,63.9c-5.2,6.9-9.2,10.7-12.1,9
		s-5.9-8-5.3-14.5c0.6-6.4,21.4-55.1,29.4-66.7c13-18.9,40.1-27.1,47.9-39.5c7.8-12.5,14.4-43.8,23-58.7
		c9.7-16.6,36.5-20.4,36.3-21.9c-0.2-1.5-0.4-2.9,1.3-4.8C576.8,255,579.8,256.4,581.5,257.4z"/>
</g>
<path class="st15" d="M91.2,51c-17.6,0-53.6,39.3-2.1,45.7c51.6,6.3,128.8,3.4,160,3.5c51,0.2,63.7-2.4,63.3-28.8
	c-0.2-15.2-6.7-25.1-33.6-29.1c-28-4.2-13.7-43.5-47.8-42.3c-29.1,1-32,52.5-58.7,39.9c-26.6-12.6-21,21.8-40.5,28.1
	C110.4,74.9,108.7,51,91.2,51z"/>
<path class="st0" d="M768.8,369.9c-14.3-0.3-29.3,2.9-43.3-0.5c-5.1-1.7-9.8-5.8-10.7-11.1c-0.9-5.3,3.3-11.4,8.7-11.1
	c2.9,0.1,6.1,2,8.6,0.5c3.6-2,1.9-7.7,4-11.3c4.7-7.5,16.9-0.1,22.5-6c1.7-1.8,2.2-4.4,3.5-6.4c6.5-12.6,24.8-9.8,30.4-3.4
	c4.1,4.4,3.7,12.4,9,15.1c5.6,2.9,13.7-2.7,18.7,2.3c3.6,3.6,1.5,7.2,3.6,10.2c2.3,3.2,7,3.2,10.9,3c3.9-0.2,8.7,0,10.7,3.4
	C852.4,379.3,778.2,368.6,768.8,369.9z"/>
<g>
	<path class="st1" d="M560,464.7c5.8,8.8,16.8,18.1,15.4,24.8c-1.3,6.6-2.2,12.5,1.3,12.2c4.7-0.4,5.5-9.9,12.4-10.2
		c4.4-0.2,15.6,9.4,26.1,9.2c20.1-0.3-6.1-9.3-19.6-24.2c-4-4.4-12.1-21.6-17.4-33.8C573,430.5,560,464.7,560,464.7z"/>
	<g>
		<path class="st3" d="M572.8,233.7c-5.9,81.1-11.9,108.4-9.8,120.8c2.6,15.1,26,100.8,29.5,110.6c2.6,7.2-29.8,10-31.7,4.7
			c-2-5.3-28.6-70.2-33.4-108.1c-3.5-27.4-6.7-128.1,0.4-141.9C530.7,214.4,574.9,204.4,572.8,233.7z"/>
	</g>
</g>
<path class="st16" d="M413.3,337c-16.5-8.4-36.2-17.5-53.8-24.3c-0.2,0.6-0.5,1.2-0.8,1.9c3.9-10.5,6.7-18.4,6.7-18.4
	S401.2,322.8,413.3,337z"/>
<path class="st0" d="M855.6,553H3.1c-1.7,0-3.1-1.4-3.1-3.1v-6.1c0-1.7,1.4-3.1,3.1-3.1h852.5c1.7,0,3.1,1.4,3.1,3.1v6.1
	C858.8,551.6,857.4,553,855.6,553z"/>
<path class="st0" d="M643.5,202.7c11-1.5,12.6-5.7,14.6-18.7c1.4,12.4,3.2,17,14.4,18.5c-9.8,3.5-13.2,4.8-14.9,19.1
	C655.2,207.1,653.1,205.8,643.5,202.7z"/>
</svg>
