<?xml version="1.0" encoding="utf-8"?>
<!-- Generator: Adobe Illustrator 27.7.0, SVG Export Plug-In . SVG Version: 6.00 Build 0)  -->
<svg version="1.1" id="Layer_1" xmlns="http://www.w3.org/2000/svg" xmlns:xlink="http://www.w3.org/1999/xlink" x="0px" y="0px" viewBox="0 0 900 623.6" style="enable-background:new 0 0 900 623.6;" xml:space="preserve">
<style type="text/css">
	.st0{fill:#FFFFFF;}
	.st1{fill:#EFAEA7;}
	.st2{fill:#0889BF;}
	.st3{fill:#F2AD1D;}
	.st4{fill:#3C3C4C;}
	.st5{opacity:9.000000e-02;fill:#201F39;}
	.st6{fill:#D2D2D2;}
	.st7{fill:#F7F8F8;}
	.st8{opacity:0.58;fill:#E9E8E8;}
	.st9{opacity:0.32;fill:#323340;}
	.st10{opacity:0.65;fill:#201F39;}
	.st11{fill:#3C3C4E;}
	.st12{opacity:0.18;fill:#201F39;}
	.st13{opacity:0.18;fill:#3E3E59;}
	.st14{opacity:0.14;fill:#201F39;}
	.st15{fill:#0268A4;}
	.st16{fill:#201F39;}
	.st17{fill:#6E3622;}
	.st18{opacity:0.16;fill:#201F39;}
	.st19{opacity:0.46;fill:#201F39;}
	.st20{opacity:0.55;fill:#201F39;}
	.st21{fill:#F5B2B4;}
	.st22{opacity:0.28;fill:#201F39;}
	.st23{fill:#603B3E;}
	.st24{opacity:0.24;fill:#201F39;}
	.st25{fill:#A8DDE4;}
</style>
<path class="st0" d="M755.7,256.5c0.5-5,0.1-17.8,0.1-17.8l-13.5-0.5l0.7,19.2l8.9,6.1L755.7,256.5z"/>
<path class="st1" d="M347.8,257.6c0.4-5.9,12.3-14.2,16.3-14.8c4.6-0.8,7.5,10.7,3.2,12.3c-4.3,1.6-7.3,1.1-14,8.6
	C352.7,264.4,347.8,257.6,347.8,257.6z"/>
<path class="st2" d="M787.2,395.6c-13.4,2-22.3,5.8-30.7-1.7s-14.5,16.1-21.3,5.7c-2.4-3.6-35.6-0.8-25.9,12.1
	c5.9,7.9,14.9-3.8,21.5,6.7c6.6,10.5,18.1,11.2,23.9,1c5.8-10.2,11.7,0.7,20.9,0c8-0.6,15.2,10.2,20.7,1.8
	c5.5-8.4,4.8-15.8,17.1-12.8c12.3,2.9,23.9-0.2,17.9-6c-5.9-5.8-18-2.1-23.8-2.2C801.7,400.3,795.9,394.3,787.2,395.6z"/>
<g>
	<path class="st2" d="M676.8,327.7c11.9,1.4,19.7,4,27.1-0.9c7.4-4.9,11.4,3.7,22.4,3.3c2.6-0.1,39.9,2.1,27.1,15
		c-9.5,9.6-24.4-6.6-30.3,0.4s-12.4-1.3-22.4-1.9c-10.3-0.6-6.3,2.9-14.2,3.4c-7,0.5-10.7-1-15.5-6.6c-3.6-4.2-6.1-1.5-10.5-1.6
		c-11.2-0.3-13.1-3.4-7.8-7.2c5.3-3.8,8.5-3.8,13.6-3.8S669.2,326.8,676.8,327.7z"/>
	<path class="st2" d="M673,327.6c15.2,0,39.5,6.7,49.8,3.1c10.3-3.6,9.1,8.2,9.1,8.2s-10,9.3-19.1,3.7c-2.9-1.7-10.6,1-16.7,0.5
		c-4.1-0.3-13.3,2.3-13.3,2.3s-5.2-0.9-5.2-2.3c0-1.4-12.6-12.7-11.8-12.6C666.4,330.5,673,327.6,673,327.6z"/>
</g>
<g>
	<path class="st2" d="M158.7,381.1c15.4,1.9,25.5,5.2,35.1-1.2c9.6-6.4,16.4,14,24.4,5.1c2.8-3.1,53.8-6,37.3,10.7
		c-12.3,12.4-54.2,21.7-80.8,9.2c-7.8-3.7-21,13-27.2,5.7c-6.3-7.3-5.3-13.7-19.5-11.2c-14.2,2.5-17-4.4-10.2-9.3s11-4.9,17.6-5
		C142.1,385.1,148.8,379.9,158.7,381.1z"/>
</g>
<g>
	<g>
		<path class="st3" d="M459.5,97.7c0,0-4.7,2.6-11,5.7c-3.5,1.7-7.5,3.6-11.5,5.2c-11.1,4.5-22,0.8-33.2-5.1
			c-11.2-5.9-15.6,10.5-30.9,9.6c-15.3-1-28-18.5-25.2-21c3.3-3,15.9,2,27.1-0.4c8.8-1.8,9.9-21.4,18.9-25.1
			c10.2-4.3,17.3,1.8,28.7-1.6c8.6-2.6,13.5-8.7,20.9-16.8c1.4-1.6,2.9-3.2,4.6-4.9L459.5,97.7z"/>
		<path class="st4" d="M490.7,286.4L490.7,286.4c1.8-0.3,2.9-2,2.6-3.7L452.2,42.4c-0.3-1.8-2-2.9-3.7-2.6l0,0
			c-1.8,0.3-2.9,2-2.6,3.7l41.1,240.2C487.2,285.5,488.9,286.7,490.7,286.4z"/>
		<path class="st5" d="M448.5,103.4c2.4-14.4-2.7-42.6-5.1-55.4c1.4-1.6,2.9-3.2,4.6-4.9l11.5,54.6
			C459.5,97.7,454.8,100.3,448.5,103.4z"/>
	</g>
	<g>
		<path class="st6" d="M789.7,256.5c-298.3,71.9-596.2,41-596.2,41l280,150.7l211.1-68.8L789.7,256.5z"/>
		<g>
			<path class="st7" d="M685.5,418.4c-23.8,10.6-312.6,55.7-352.2,14c0,0,4-10.7,10.8-28.1c27.2-70,98.3-247.8,123.9-257.7
				c0.5-0.2,1-0.3,1.5-0.4C499.5,142.4,709.2,407.8,685.5,418.4z"/>
			<path class="st8" d="M500.4,446c-31.7,3.7-107.3-22.7-156.4-41.7c27.2-70,98.3-247.8,123.9-257.7
				C489.9,235.2,543.8,440.9,500.4,446z"/>
			<path class="st9" d="M354,349.1c40.6-9.3,136.6,30.5,148.7,26.9c12.2-3.6,117.9-53.9,135.5-51.1c17.6,2.8,23.4,4.1,23.4,4.1
				L473.5,448.2l-106.3-64.1L354,349.1z"/>
		</g>
	</g>
</g>
<path class="st4" d="M606,153.8c0.3,2.6,0.8,4.9,1.3,7.1c0.2,1,0.4,2,0.6,3.1c0.4,1.8,0.6,3.7,1,5.6c0.1,0.5,1.5,8.3,3.4,18.8
	c3.6,20.1,9.2,62.1,9.3,68.8c0.1,8.3-8.4,86.2-10.4,93.6c-2,7.4,19.8,2.5,19.8,2.5c8.9-23.3,18.2-89.3,18.8-99.5
	c1-17.3,2.3-54.4,2.7-62.7c0-0.2,72.7-14.3,74.7-10.9c6,10.1,10.2,69.9,12.6,71.5c6.8,2.3,18.3,2.5,18.8-0.2c0,0-1.4-74.7-8.1-88.9
	c-10.4-22.1-65.6-6.5-90.9-13.1C659.6,149.3,603.5,134.6,606,153.8z"/>
<path class="st10" d="M629.7,160.1c0.2,4.6-13,22.3-17.5,28.1c-1.8-10.4-3.3-18.2-3.4-18.8c-0.3-1.9-0.6-3.8-1-5.6L629.7,160.1z"/>
<path class="st1" d="M712.9,26.3c-4.6-13.6,4.5-10,3.9-18.6c-0.1-1.4-9.7-6.9-13.4-2.1c-3.7,4.8-4,13.9-2.9,18
	c1.1,4.1,6.5,4,7.8,3.4C709.6,26.3,712.9,26.3,712.9,26.3z"/>
<g>
	<path class="st11" d="M664.5,30.5c0.1,0.6,0.2,1.4,0.7,2c0.4,0.5,1.1,0.9,2.2,0.8c2.2-0.3,2.3-1.4,5.1-1.5
		c2.9-0.1,8.6,2.5,10.5,2.2c1.7-0.3,43.5,0.1,51-2.5c0.3-0.1,0.5-0.2,0.6-0.3c0.3-0.2,0.5-0.4,0.5-0.6c0-0.3,0-0.7-0.1-1.2
		c-0.5-5.2-3.1-22.2-5.1-27.5c-0.4-1.1-0.8-1.6-1.1-1.6c-0.3,0.1-0.8,0.2-1.6,0.5c-7.9,3-39.5,17.7-45.2,19.5
		c-6.1,1.9-8,6.3-9.8,6.8c-2.4,0.6-2.4-0.3-6,0.4C664.4,27.8,664.4,29.7,664.5,30.5z"/>
	<path class="st12" d="M665.2,32.4c0.4,0.5,1.1,0.9,2.2,0.8c2.2-0.3,2.3-1.4,5.1-1.5c2.9-0.1,8.6,2.5,10.5,2.2
		c1.7-0.3,43.5,0.1,51-2.5c0,0-0.1-0.1-0.1-0.1c-0.4-0.6-0.9-1.1-1.3-1.7c-2.6-3.2-5-6.3-6.7-8.4c-1.5-1.9-2.4-3.1-2.4-3.1
		c-0.2,0.5-0.9,1-1.8,1.6c-8.3,4.8-41.3,10.2-47.3,10.3C669.3,30,666.3,31.7,665.2,32.4z"/>
	<g>
		<path class="st11" d="M721.5,18.4c1.2,6.2,4.7,10.7,8.6,12.3c1.5,0.6,3,0.8,4.5,0.4c4.5-1,6.9-8.5,5.2-16.9
			c-1.7-8.5-6-15-10.6-14.1c-0.7,0.1-1.3,0.4-1.9,0.7l0,0c0,0,0,0,0,0c-1,0.5-1.9,1.3-2.7,2.4C721.9,6.7,720.4,12.6,721.5,18.4z"/>
		<path class="st0" d="M724.9,17.1c1.3,6.9,5.7,13.3,9.4,12.6s5.3-8.3,4-15.2s-5.1-13.3-8.8-12.6C725.8,2.6,723.5,10.2,724.9,17.1z"/>
	</g>
	<path class="st13" d="M721.5,18.4c1.2,6.2,4.7,10.7,8.6,12.3c3.6-0.2,7.5-0.5,4.1-1c-5.5-0.8-6.7-9.8-7.4-13.4
		c-0.6-3.5,0.4-9,3.1-14.5l-2.7-1.1l0,0c0,0,0,0,0,0c-0.1,0.1-1.3,1.1-2.7,2.4C721.9,6.7,720.4,12.6,721.5,18.4z"/>
</g>
<path class="st1" d="M631.2,70.1l11.1,0.6c0,0,10.8,0.5,8.5-1.6c-3-2.8-3.2-6.1-4.5-8c-0.8-1.2-1.5-3.1-2-5.1
	c-0.9-3.4-1.3-6.8-1.3-6.8l0-0.9l-1.4-2.3l-4.2-6.8c0,0-6.7,4.6-6.5,9.4C631.1,53.2,630,65.3,631.2,70.1z"/>
<path class="st14" d="M644.3,56c-0.9-3.4-1.3-6.8-1.3-6.8l0-0.9l-1.4-2.3l-1.3-0.3c0,0-3.2,3.5-3.9,4.9
	C635.3,52.5,639.3,58.1,644.3,56z"/>
<path class="st0" d="M630.7,57.2c4.5-1.6,5.5,6.2,10.1,6.2c2.5,0,1.8-1,2.9-2.3c0.7-0.8,1.3-1.6,2.5-0.5
	c24.5,22.5,5.2,85.1,8.4,89.1c2.6,3.3-16.1,12.3-28.5,10.1c-16.9-3-17.3-21.7-17-25.3c0.2-3.6,6.6-64.8,6.6-64.8
	S623.8,64.5,630.7,57.2z"/>
<path class="st15" d="M714.1,23c0.1,1.7,7.4,49.5-9.8,56.2c-7.6,3-34.3,10.1-38.5,13.9c-3.2,2.9-5.7,11.4-4.8,15.9
	c0.8,3.6,1.7,7,2.1,9.6c1.2,6.6,8.5,34.3,1.1,43.4c-4.7,5.8-8.9,5.6-12.2,2.9c-5.6-4.5-2-27.2-5.5-48.8c-2.8-16.7,4.1-27.2,1.4-41
	c-2.1-10.4-1.8-14.5-1.8-14.5c26.4,8.3,42.8,3.7,48.4,1.2c7.1-3.1,0.6-35.2,3.1-37.4C698.7,23.5,713.8,19,714.1,23z"/>
<path class="st14" d="M714.1,23c0.1,1.7,7.4,49.5-9.8,56.2c-7.6,3-34.3,10.1-38.5,13.9c-3.2,2.9-5.7,11.4-4.8,15.9
	c0.8,3.6,1.7,7,2.1,9.6c1.2,6.6,8.5,34.3,1.1,43.4c-4.7,5.8-8.9,5.6-12.2,2.9c-5.6-4.5-2-27.2-5.5-48.8c-2.8-16.7,4.1-27.2,1.4-41
	c-2.1-10.4-1.8-14.5-1.8-14.5c26.4,8.3,42.8,3.7,48.4,1.2c7.1-3.1,0.6-35.2,3.1-37.4C698.7,23.5,713.8,19,714.1,23z"/>
<path class="st15" d="M599,174c2.9,8.4,23.5-2.4,29.4-9.8c4.9-6.1-1-13.2,1.9-26.9c1.5-6.9,3.6-18.8,4-28c0-0.9,0.1-1.8,0.1-2.6
	c0-7-0.3-14.6-0.8-21.7c-0.2-3.2-0.5-6.3-0.7-9.3c-0.2-1.9-0.3-3.7-0.5-5.4c-0.6-6.3-1.3-11.1-1.6-13.2c0,0-11.5,1.1-20.3,12
	c-1,1.2-1.8,3.1-2.5,5.2c-0.6,1.8-4.5,10.2-4.3,18.9c0.2,10.5,0.9,18.2,1.3,24.5c0.4,7-1.2,13.7-0.7,24.8
	C604.7,152.7,597.5,169.6,599,174z"/>
<path class="st12" d="M619.5,80.1c0.2,2.8,12.6,31.3,14.2,36.7c0-0.9,0.7-9.2,0.7-10.1c0-7-0.3-14.6-0.8-21.7L619.5,80.1z"/>
<g>
	<path class="st1" d="M643.4,29.7c1.8,3.9,9,9.8,6.3,10.8c-2.7,1,3.9,8.1,1.1,9.3c-6.8,2.9-16.5,1.6-18.6-1.4
		c-2.2-3-5.2-12.5-5.2-12.5L643.4,29.7z"/>
	<path class="st16" d="M637.7,36.3c2.3-0.6,2.5-0.1,3.8-1.4c1.3-1.3-2.2-2.4,0.5-4c2.7-1.6,5.7-3,4.8-6.3c-1.4-4.9-5.3-2.5-7.6-1
		c-1.5,1-3.3-2.5-6.6-1c-2.6,1.1-1.7,2.5-3.9,3.6c-1.4,0.7-5-0.6-6.5,1.9c-2.9,4.7,2,7.3-0.2,11.9c-2.5,5.4,9.8,10.3,10.5,8.8
		c0.8-1.7-2.6-5-1.7-6.4c1.3-2.2,2.2-0.6,4.3,0.2c2.3,0.9,5.4-0.2,2.3-2.5C634.2,37.9,635.6,36.8,637.7,36.3z"/>
</g>
<path class="st11" d="M644.1,33.9c0.1,0.6,0.2,1.4,0.7,2c0.4,0.5,1.1,0.9,2.2,0.8c2.2-0.3,2.3-1.4,5.1-1.5c2.9-0.1,8.6,2.5,10.5,2.2
	c1.7-0.3,43.5,0.1,51-2.5c0.3-0.1,0.5-0.2,0.6-0.3c0.3-0.2,0.5-0.4,0.5-0.6c0-0.3,0-0.7-0.1-1.2c-0.5-5.2-3.1-22.2-5.1-27.5
	c-0.4-1.1-0.8-1.6-1.1-1.6c-0.3,0.1-0.8,0.2-1.6,0.5c-7.9,3-39.5,17.7-45.2,19.5c-6.1,1.9-8,6.3-9.8,6.8c-2.4,0.6-2.4-0.3-6,0.4
	C643.9,31.2,643.9,33.1,644.1,33.9z"/>
<path class="st12" d="M644.7,35.8c0.4,0.5,1.1,0.9,2.2,0.8c2.2-0.3,2.3-1.4,5.1-1.5c2.9-0.1,8.6,2.5,10.5,2.2
	c1.7-0.3,43.5,0.1,51-2.5c0,0-0.1-0.1-0.1-0.1c-0.4-0.6-0.9-1.1-1.3-1.7c-2.6-3.2-5-6.3-6.7-8.4c-1.5-1.9-2.4-3.1-2.4-3.1
	c-0.2,0.5-0.9,1-1.8,1.6C693,27.9,660,33.3,654,33.4C648.9,33.4,645.8,35.1,644.7,35.8z"/>
<g>
	<path class="st11" d="M701,21.8c1.2,6.2,4.7,10.7,8.6,12.3c1.5,0.6,3,0.8,4.5,0.4c4.5-1,6.9-8.5,5.2-16.9c-1.7-8.5-6-15-10.6-14.1
		c-0.7,0.1-1.3,0.4-1.9,0.7l0,0c0,0,0,0,0,0c-1,0.5-1.9,1.3-2.7,2.4C701.4,10,699.9,16,701,21.8z"/>
	<path class="st0" d="M704.4,20.5c1.3,6.9,5.7,13.3,9.4,12.6s5.3-8.3,4-15.2c-1.3-6.9-5.1-13.3-8.8-12.6
		C705.3,6,703,13.6,704.4,20.5z"/>
</g>
<path class="st13" d="M701,21.8c1.2,6.2,4.7,10.7,8.6,12.3c3.6-0.2,7.5-0.5,4.1-1c-5.5-0.8-6.7-9.8-7.4-13.4
	c-0.6-3.5,0.4-9,3.1-14.5l-2.7-1.1l0,0c0,0,0,0,0,0c-0.1,0.1-1.3,1.1-2.7,2.4C701.4,10,699.9,16,701,21.8z"/>
<g>
	<path class="st1" d="M677.7,35.3c-0.3-1.7,4.8-7.1,3.9-8.2c-1.6-1.9-3.9,1.5-6.2-2c-1.8-2.8,3.6-8.2-0.5-8.1
		c-9.5,0.2-12.4,7-8.2,13.8c3.3,5.3,1.2,10.3,2.9,15.4s10.4-3.4,10.4-3.4S678.2,38.6,677.7,35.3z"/>
	<path class="st15" d="M625.8,61.5c24.8,10.7,61.8,54,41.2-20.1c-0.5-1.8,13.3-8.9,14.2-6.2c38.4,116.6-52.8,54.4-63.7,49.7
		c-4.6-2-7.5-18-0.8-19.9C623.2,63.1,625.8,61.5,625.8,61.5z"/>
	<g>
		<path class="st12" d="M640.4,64.9c-0.5-0.2-3.6,9.7-9.4,13.8c-1.6,1.1-3.4,2-5.3,2.5c-5.6,1.3-13.7,2.5-21,2.8
			c1.1-3.4,1.1-5,3.2-8.3c5.5,0.8,13.3,0.7,16.2-0.1c2.2-0.6,4.1-1.6,5.9-2.8c3.4-2.2,6-5.1,8-7.5c1-1.2,0.9-2.8,2.3-3.1
			C642.4,61.7,641.1,65.2,640.4,64.9z"/>
		<path class="st3" d="M643,62.5c-0.2-0.9-1.1-2.2-3-1.8c-1.4,0.3-1.4,0.9-2.4,2.1c-3,3.7-7.7,8.5-13.9,10.2
			c-6.2,1.8-22.1-4.1-31.1-0.4c-9,3.6-10.4,12.5-23.6,17c-13.2,4.5-28.7,1.3-32.6,2.6c-3.9,1.4-6.1,2.7-5.8,4.2
			c0.4,1.6,2.8,3.8,5.8,4.5c3,0.6,28-1.9,34.4-3.9c10.4-3.3,17.9-14.4,24.7-16.2c2.8-0.8,7.2-0.9,11.8-1c6.4-0.1,13.4-0.1,18-1.1
			c8.9-2,14.4-13.7,15-13.4s1.3,0.6,2.4,0.1C643.4,65,643.2,63.4,643,62.5z"/>
	</g>
</g>
<path class="st10" d="M682.8,185c-20.6-3.7-29.7-2.1-29.7-2.1l-0.7,8L682.8,185z"/>
<g>
	<path class="st1" d="M527.6,257.6c0.2,0.7,0.4,1.6,0.6,2.7c0.5,2.5,1,5.6,0.7,7.2c-0.4,2.3-16.7,0-16.7,0c1.5-3.9,1.3-7.8,0.3-11.5
		c-2.5-9.3-10.2-17.5-8.5-22.3c2.4-6.8,15.1-7.4,16.6-5.2c0.3,0.5,1.2-0.3,1.5,0.2c3.7,7.6,7.5,8.9,8.1,10.5
		c0.5,1.5-3.2,0.6-0.7,4.4c3.8,5.7,2.9,8.6-4.2,7.6C523,251.8,527,255.2,527.6,257.6z"/>
	<path class="st17" d="M517.8,245.4c-4-0.8-2.8-9.1,0.3-5.2c1.4,1.7,2.3-1.8,0.9-4.2c-1.4-2.4,2.8-2.7,3.9-5.4
		c1.1-2.7,1-4.8-2.2-6.6c0,0,0.3-2.3-1.2-3.3c-1.4-1-5.5-2.2-6.9,0.6c-1.4,2.8,0,4.5-4.4,3.1c-4.3-1.4-7.7,0.4-6.9,5.1
		c1,5.5-2.6,2.3-2.1,7.7c0.9,9.8,5.9,6.9,7.8,11.8c1.9,4.9,5.9,8.9,9.2,6.9C519.6,254,519.1,247.8,517.8,245.4z"/>
	<path class="st18" d="M528.2,260.3c-0.2-0.1-0.4-0.2-0.6-0.4c-3.3-2.4-9.2-1.3-6.6-8.6c0.3-0.8,1.2-1.6,4.3-0.2
		c-2.2,0.7,1.8,4.1,2.4,6.5C527.7,258.3,528,259.2,528.2,260.3z"/>
</g>
<path class="st0" d="M820.1,371.6c-7.4-0.5-18.3-12.8-23.2-7.7c-4.8,5.1-0.6,7.9-10.8,5.1c-10.2-2.8-13.8-9.6-21.8-6.6
	c-8,3.1-15.8-0.4-8.3-2.9s15.9-5.8,24.7-2.3c8.8,3.5,12.9,5.1,19.9,0.9c6.9-4.2,10.1-6.6,17.3-2.5c7.1,4.1,15.7,8.2,20,5.4
	c4.2-2.8,8.7,1.9,3.3,3.8C835.8,366.8,826.3,372,820.1,371.6z"/>
<g>
	<path class="st4" d="M586.2,360.4c-0.9,6.9-11.9,15.1-22.2,21.5c-1.6,1-3.2,2-4.8,2.9c-1.4,0.8-2.8,1.6-4.1,2.3
		c-0.9,0.5-1.7,1-2.6,1.4c-2.1,1.2-4.3,2.3-6.5,3.4c-4.2,2.2-11.2,5.4-13.5,6.2c-3.6,1.3-11.2-1.5-15-3.4
		c-6.4-3.3-12.5-13.8-14.1-16.6c-0.5-0.9,1.1-2.4,0.8-3c-0.2-0.4,4.1-3.6-0.4-2.9c-1.2,0.2,2.4-2.7,11.3-7.6c3.4-1.9,7.2-4,10.9-5.9
		c7.4-3.9,14.7-7.7,19.4-10.1c3.2-1.6,5.1-2.6,5.1-2.6c0.2,0.2,0.5,0.4,0.7,0.6c3.7,3.1,8.5,6.7,13.9,10.6c0.8,0.6,5.5,0.7,6.5,0.9
		C579.2,359.8,581.5,357.2,586.2,360.4z"/>
	<path class="st19" d="M544.4,385.1C544.4,385.1,544.4,385.1,544.4,385.1c0.1-0.1,0.1-0.1,0.1-0.2
		C544.5,384.9,544.4,385.1,544.4,385.1z"/>
	<path class="st20" d="M519.8,395.9c-9.7-4.2-14.7-15.3-17.2-19.9c7.2-3.2,24.5-10.3,24.5-10.3C534.1,384.2,525.6,393.3,519.8,395.9
		z"/>
</g>
<path class="st0" d="M510.4,259c4.9-2.7,9,7.6,13.3,7c2.6-0.4,1.8-1.4,2.7-3c0.6-0.9,1.1-2,2.6-1c30.3,20.2,19,84.3,23.1,88.1
	c3.4,3.1-15.2,16.1-28.9,15.8c-18.7-0.3-20.9-13.4-21.3-17.3c-0.4-3.9-4.2-71.5-4.2-71.5S504.2,268.1,510.4,259z"/>
<path class="st15" d="M626.2,230.3c-2.2,0.6-22.9,15.4-39.4,22.9c-9.7,4.4-37.5,12.6-57.8,8.8c0,0,0.4,4.5,4.5,15.4
	c5.4,14.5-0.2,27,5.7,44.7c7.6,22.9-0.5,39.8,6.3,43.8c3.9,2.3,15.3,3,19.3-4.1c3-5.3-1.7-3.9-4.1-13c-2.7-9.9-3.9-21.9-5.2-25.6
	c-1-2.7-2.5-33.9,0.8-37.5c6.8-7.2,28.8-14.2,35.4-17.4c15-7.1,38.4-21.2,39-26C631.1,237.8,628.4,229.6,626.2,230.3z"/>
<path class="st5" d="M626.2,230.3c-2.2,0.6-22.9,15.4-39.4,22.9c-9.7,4.4-37.5,12.6-57.8,8.8c0,0,0.4,4.5,4.5,15.4
	c5.4,14.5-0.2,27,5.7,44.7c7.6,22.9-0.5,39.8,6.3,43.8c3.9,2.3,15.3,3,19.3-4.1c3-5.3-1.7-3.9-4.1-13c-2.7-9.9-3.9-21.9-5.2-25.6
	c-1-2.7-2.5-33.9,0.8-37.5c6.8-7.2,28.8-14.2,35.4-17.4c15-7.1,38.4-21.2,39-26C631.1,237.8,628.4,229.6,626.2,230.3z"/>
<path class="st15" d="M529,370.2c-5,9-13.6,20.4-22.5,17.2c-3.8-1.4-6.5-17.2-6.6-29.5c-0.1-10.2-0.8-18.6-2.1-23.7
	c-1-4.1-1.8-6.8-2.5-9.3c-0.8-3-1.6-5.7-2.5-10.2c-0.5-2.2-1-4.8-1.6-8c-1.8-9.8-2.3-23.7,0.9-29.3c7.5-13.3,19.4-18.8,19.4-18.8
	c1.2,3.9,5.1,17.9,8.5,33.2c0.7,2.9,1.3,5.9,1.9,8.9c0.5,2.6,1,5.1,1.5,7.6c0.4,2,0.7,3.9,1,5.8c0.1,0.8,0.2,1.7,0.3,2.5
	c0,0,0,0,0,0c0.2,1.9,0.4,4,0.5,6.1c0.3,5.4,0.4,11.1,0.3,16.3c0,0,0,0,0,0c-0.1,3.3-0.1,6.4-0.3,8.9
	C523.6,363.8,533.2,362.7,529,370.2z"/>
<path class="st12" d="M525.4,339c-8.7-13.4-23.1-47-25.1-50.7l18.8,5.2l0.8-1.7l0.1-0.1c0.3,2,1.5,7.1,1.8,9c0,0,0,0,0,0
	c0.2,1.2,1.4,8,2.8,15.9c0,0,0,0,0,0c0.2,1.9,0.4,4,0.5,6.1C525.4,328.1,525.5,333.9,525.4,339z"/>
<path class="st0" d="M125.6,366.5c-7.4-0.5-18.3-12.8-23.2-7.7s-0.6,7.9-10.8,5.1c-10.2-2.8-13.8-9.6-21.8-6.6
	c-8,3.1-15.8-0.4-8.3-2.9c7.6-2.5,15.9-5.8,24.7-2.3c8.8,3.5,12.9,5.1,19.9,0.9s10.1-6.6,17.3-2.5s15.7,8.2,20,5.4
	c4.2-2.8,8.7,1.9,3.3,3.8C141.3,361.7,131.8,366.9,125.6,366.5z"/>
<path class="st1" d="M645.6,233.9c-0.2,1.1-2.6,6.1-5.7,6.4c-3.5,0.3-5.7-0.6-9.2,1.6c0,0-0.1,0-0.1,0c0.3-3.4-1-8.3-2.6-10.5
	c4.2-2.4,5.4-6.6,8.4-7.4c2.6-0.7-3,8.4,4.7,2.4C642.9,224.9,646.5,230,645.6,233.9z"/>
<g>
	<path class="st4" d="M476.3,373.5c5.8,7.1,14,25.5,3.8,31.8c-1.6,1-40.7-27.6-42.3-26.7c-1.4,0.8-2.8,1.6-4.1,2.3
		c-0.8,0.5-1.7,1-2.6,1.4c-2.1,1.1-4.3,2.3-6.5,3.4c-4.2,2.1-11.1,5.3-13.3,6.2c-3.6,1.3-11.1-1.5-14.9-3.4
		c-6.3-3.2-12.4-13.7-14-16.5c-0.5-0.9,1.1-2.3,0.7-3c-0.2-0.4,4.1-3.5-0.4-2.8c-1.2,0.2,2.4-2.7,11.2-7.6c3.4-1.9,7.1-3.9,10.8-5.9
		c7.3-3.9,14.6-7.6,19.2-10c3.1-1.6,5.1-2.6,5.1-2.6c0.2,0.2,0.5,0.4,0.7,0.6c3.7,3.1,8.4,6.6,13.8,10.5c0.8,0.6,5.4,5.9,6.4,6.3
		C459.1,361.6,471.6,370.3,476.3,373.5z"/>
	<path class="st19" d="M423,378.8C423,378.8,423,378.8,423,378.8c0.1-0.1,0.1-0.1,0.1-0.2C423.1,378.6,423,378.8,423,378.8z"/>
	<path class="st20" d="M398.6,389.5c-9.7-4.1-14.6-15.2-17.1-19.7c7.1-3.2,24.2-10.2,24.2-10.2C412.8,378,404.4,387,398.6,389.5z"/>
</g>
<path class="st1" d="M481.5,253.7c1.9-2.6,3.3-4.1,5.3-7.9c1.9-3.7,4.3-4,7.1-6c2.5-1.8,2.1-7.2,1.7-8.3c-1.2-3.8-6.8-6.4-7.7-4.2
	c-3.5,9-3.4-1.6-5.2,0.3c-2.1,2.2-1.2,7.1-3.7,11.3c-2.2,3.7-5.7,6.8-6.1,8.5C472.4,249.3,481.5,253.7,481.5,253.7z"/>
<path class="st1" d="M394.1,241.2c-0.1,4.8-4,16.7-3.1,22l11.9,1.5c0,0,9.5,1.4,7.2-1.1c-3.1-3.2-3.8-6.6-3.8-9.5c0-0.3,0-0.7,0-1.1
	c-0.1-3.2-0.6-7.6-0.9-9.9c-0.1-1.1-0.2-1.7-0.2-1.7l0.1-0.9l-3.8-6.6C401.5,233.9,394.3,235.9,394.1,241.2z"/>
<path class="st14" d="M406.4,253.1c-0.1-3.2-0.6-7.6-0.9-9.9l-3.9-1c0,0-3.6,3.6-4.6,5C395.6,249.3,400.2,256.3,406.4,253.1z"/>
<path class="st0" d="M389.3,253.8c4.9-2.7,8.9,7.6,13.2,6.9c2.6-0.4,1.8-1.4,2.7-2.9c0.6-0.9,1.1-2,2.5-1
	c30.1,20,18.8,83.6,22.9,87.4c3.4,3.1-15.1,15.9-28.6,15.7c-18.6-0.3-20.7-13.3-21.1-17.2c-0.4-3.9-4.2-70.9-4.2-70.9
	S383.1,262.8,389.3,253.8z"/>
<path class="st15" d="M476.2,239.5c-1,2.1-17.6,31.3-27.3,32.5c-5.5,0.7-21.1-11.6-41.2-15.3c0,0,0.4,4.4,4.4,15.3
	c5.3,14.4-0.2,26.8,5.6,44.3c7.5,22.7-0.5,39.5,6.2,43.4c3.9,2.3,15.1,2.9,19.1-4.1c3-5.3-1.7-3.9-4.1-12.9
	c-2.7-9.9-3.9-21.8-5.1-25.4c-0.9-2.7-9.5-26.9-4.8-28c8.2-2,21.8,3.4,28.3,0.3c14.8-7.1,25.9-35.6,28.8-39.3
	C488.9,247,477.7,236.3,476.2,239.5z"/>
<path class="st5" d="M476.2,239.5c-1,2.1-17.6,31.3-27.3,32.5c-5.5,0.7-21.1-11.6-41.2-15.3c0,0,0.4,4.4,4.4,15.3
	c5.3,14.4-0.2,26.8,5.6,44.3c7.5,22.7-0.5,39.5,6.2,43.4c3.9,2.3,15.1,2.9,19.1-4.1c3-5.3-1.7-3.9-4.1-12.9
	c-2.7-9.9-3.9-21.8-5.1-25.4c-0.9-2.7-9.5-26.9-4.8-28c8.2-2,21.8,3.4,28.3,0.3c14.8-7.1,25.9-35.6,28.8-39.3
	C488.9,247,477.7,236.3,476.2,239.5z"/>
<path class="st15" d="M330,328.6c0.6,0.5,5.2-10.6,4.1-11.8c-1.2-1.2-12.3-4-13.9-4.5c-5.3-1.7-22.5-5.7-30.1-10.1
	c-5.6-3.2-9.5-4.3-25.9-13.8c7.9,8,6.4,22.5,5.8,29.6c-0.7,8-3,15.1-6.6,20.3c0,0.1-0.1,0.1-0.1,0.2c-1.2,2.3,6.1,3.2,15.5,3.3
	c13.8,0,22.1,6.2,28.6,10.7c12.8,8.8,5.5-15.3,5.6-15.8c0.8-6.3-9.7-29.9-9.6-34.1c0.1-4.5,8.3-6.6,9-10.1c0.6-3.4-7.1-10.9-5.3-9.9
	c5.7,3.1,17,19.5,22.6,17.8c5.8-1.8,26.5-38.5,26.5-38.5s-8-11.6-9.8-8c-2.9,6-10.8,23.3-19,26.4c-5.1,1.9-19.1-19.6-36.1-22.3
	c0,0-8.5-1.1-12.7-0.7c-4.1,0.4-15,8.9-17.8,12.6c-3.2,4.2,0.6,20.4,4.8,33.6C267.9,311.2,328.2,327.2,330,328.6z"/>
<path class="st21" d="M287.8,248.9c-1.5,7.2-1,10.9,0.2,12.9c1.2,2,2.6,6.8,0.3,6.8c-1.1,0-7.9-2.9-10.4-4.7c-2.5-1.7-4-5.1-4-5.1
	s5.1-9.2,8.6-16.8C286.1,234.3,287.8,248.9,287.8,248.9z"/>
<path class="st14" d="M287,255.7c0-0.9,0.1-2,0.3-3.2c0.1-0.4,0.5-3.1,0.6-3.6c-0.4-0.4-1.1-0.9-1.5-1c-0.6-0.1-1.7,0-2.2-0.6
	c-0.9-1-2.5,2-1.8,3.8C282.6,251.8,284.7,254.5,287,255.7z"/>
<path class="st22" d="M298,305.8c-16-9.8-18.2-11.7-19.1-21.3c-1.8,8-0.2,10.2,0.7,11.6C280.5,297.5,292.1,303.2,298,305.8z"/>
<path class="st22" d="M306.1,320.9c0.2-0.1-35.6-12.8-35.7-13.4c0,1.5,0,2.7,0,3.7C271.4,310.9,305.4,321.2,306.1,320.9z"/>
<path class="st22" d="M297,271.3c7,6.2,6.6,6.3,9.7,11.3c-2.5-5.7-3.7-8.6-3.7-8.6S298.5,271.4,297,271.3z"/>
<path class="st15" d="M407.7,364.1c-5,9-13.5,20.2-22.3,17.1c-3.8-1.4-6.4-17-6.6-29.2c-0.1-10.1-0.8-18.4-2.1-23.5
	c-1-4.1-1.8-6.8-2.5-9.3c-0.8-3-1.6-5.7-2.5-10.1c-0.5-2.2-1-4.7-1.6-7.9c-1.8-9.7-2.3-23.5,0.9-29.1c7.5-13.2,19.3-18.7,19.3-18.7
	c1.2,3.9,5,17.7,8.4,32.9c0.7,2.9,1.3,5.9,1.9,8.9c0.5,2.5,1,5.1,1.4,7.5c0.3,2,0.7,3.9,1,5.7c0.1,0.8,0.2,1.7,0.3,2.5c0,0,0,0,0,0
	c0.2,1.9,0.4,4,0.5,6.1c0.3,5.3,0.4,11,0.3,16.1c0,0,0,0,0,0c-0.1,3.3-0.1,6.4-0.3,8.8C402.4,357.7,411.9,356.7,407.7,364.1z"/>
<g>
	<g>
		<path class="st21" d="M287.9,231c3.7,5.3,7.6,6.9,5.7,8.1c-1.5,0.9,5.9,11.8-0.6,12.2c-6.5,0.3-12.5-1.2-14.9-7.4
			c-2.5-6.3-4.1-9.9-4.1-9.9L287.9,231z"/>
		<path class="st16" d="M289.2,231.9c-1.2,3.5-3.8,5.7-4.7,7.1c-0.5,0.8-2.3,1-3,0.3c-0.7-0.8-2.2-0.6-3.4,0.5
			c-1.5,1.3,0.6,2.9,1.8,4.1c0.8,0.9,1,2.5,0.5,3.6c-1.7,4.2,5.4,12.6-17.1,22.1c-5.7,2.4-11.8,3.7-17.5,4.3
			c-11.6,1.2-21.5-0.8-22.5-4.1c-0.8-2.4,3.6-7.2,7.1-9.1c3.5-2,5.3,0.2,7.9-1.4c3-1.9-2.8-8.7,6.7-11.2c9.5-2.5,10.6-0.4,13.3-2.5
			c2.7-2.1,3.6-19.8,15.2-21.5c8-1.2,12.2,1.7,14.1,3.6C288.4,228.6,289.6,230.9,289.2,231.9z"/>
	</g>
</g>
<g>
	<path class="st0" d="M789.4,257.8l-71.2,187.6c-2.4,6.2-6.2,11.6-11.2,15.6c-6.1,5.1-13.9,8.3-22.2,8.7l-373.3,20.9
		c-3,0.2-5.8-0.8-8.1-2.6c-1.1-0.9-2-2-2.7-3.2L193.2,298.9l307,89.6L789.4,257.8z"/>
	<path class="st8" d="M707,461.1c-6.1,5.1-13.9,8.3-22.2,8.7l-373.3,20.9c-3,0.2-5.8-0.8-8.1-2.6c56-45.2,158.7-98.5,196.7-99.7
		C539.9,387.1,641.5,430.8,707,461.1z"/>
</g>
<path class="st12" d="M404.2,333.1c-8.6-13.3-22.9-46.6-24.9-50.3l18.6,5.1l0.8-1.7l0.1-0.1c0.3,1.9,1.5,7.1,1.8,8.9c0,0,0,0,0,0
	c0.2,1.2,1.4,8,2.7,15.8c0,0,0,0,0,0c0.2,1.9,0.4,4,0.5,6.1C404.2,322.3,404.3,328,404.2,333.1z"/>
<g>
	<path class="st23" d="M650.2,202.3c-45,151.8-68.4,248-72.9,251.7s-9.5,5.5-0.5-21.8c1.1-3.4,3.1-9.9,5.8-18.8
		c18.9-63.1,61.7-212.6,61.9-214.2C644.9,195.3,653.2,192.2,650.2,202.3z"/>
	<path class="st23" d="M585.6,403.4c-7.8,25.7-15.5,31.4-17.2,37.9s10.2,9.8,15.4,8.7c5.3-1.1,7.2-37.6,7.7-40.4
		C592,406.7,585.6,403.4,585.6,403.4z"/>
</g>
<g>
	<path class="st1" d="M586.7,334.7c3.2,0,6.9,0.5,11.2-0.1c4.1-0.6,7.8,1.3,11.1,2.4c2.9,1,7.6,1,9.2-5c2-7.2-2.5-8.8-4.8-8.7
		c-7,0.3-2-2.3-2.9-5.1c-0.9-3-5.5,4.6-10.4,5c-4.3,0.4-10.5-2.4-12.2-1.7C586.1,322.2,586.7,334.7,586.7,334.7z"/>
	<path class="st15" d="M512.9,268.1c13.1,19.9,27.4,43.4,34.6,46.3c7.3,2.9,52.5,6.3,52.5,6.3s1.2,15-1.1,15.7
		c-2.3,0.6-52.5-2.2-56.9-3.5c-10.6-3.1-42.4-40.2-45.5-44.8c-3.1-4.6,1.6-18.2,8.9-20.4C511.5,265.7,512.9,268.1,512.9,268.1z"/>
</g>
<path class="st1" d="M644.2,228c-3.1-1.6-5.7-0.4-6.7,4.7c-1,5.1-1.8,9.3,2.4,7.6C644.2,238.5,644.2,228,644.2,228z"/>
<g>
	<path class="st1" d="M405.1,225.1c2.2,3.8,10,9.3,7.3,10.5c-2.7,1.2,4.6,8,1.8,9.4c-6.7,3.4-16.6,2.8-19.1-0.1
		c-2.4-2.9-6.3-12.3-6.3-12.3L405.1,225.1z"/>
	<path class="st16" d="M400.5,232.7c1.4-1.9,1.9-0.8,3.1-2.2c1.2-1.4-2.4-2.3,0.2-4.1c2.6-1.8,3.9-3.2,2.4-6.4
		c-1-2.1-3.6-3.4-5.9-1.7c-1.5,1.1-2.6-2-5.9-0.6c-2.6,1.1-2.5,3.2-4.5,5.2c-1.1,1.1-5,1.2-6.4,3.9c-2.6,5,2.6,5.5,0.8,10.4
		c-2.1,5.7,10.7,9,12.2,8.8c0.6-0.1,1.4-1.9-0.8-3.3c-1.1-0.8-2.7-2.9-2.3-3.7c0.7-1.3,1.6-4.5,3.6-1.7c1.4,1.9,4,9.8,4.9,10.1
		c2.4,0.8,14.1-0.9,13-3.7c-1.3-3.4-8.7,3.5-9.8-0.1c-0.9-2.8,7.7-3.6,7.4-6c-0.3-2.8-8.7,4.8-10.3,2.9
		C400.1,238.1,399.7,233.8,400.5,232.7z"/>
</g>
<g>
	<path class="st23" d="M440.6,401.5c-7.3,26.1-23.5,37.3-26.6,55.6c-1.1,6.7,22.5,4.1,27.7,2.8c5.3-1.3,3.3-50.6,3.8-53.4
		C447.4,397.4,440.9,400.3,440.6,401.5z"/>
	<path class="st24" d="M442,402.2c-3.9,12.6-15.1,33.1-15.9,42.9c-0.8,9.8,9.2,10.5,10.5,8.6c1.4-1.9,10-51.4,9.2-51.7
		C444.9,401.7,442,402.2,442,402.2z"/>
</g>
<path class="st16" d="M755.4,256.2c1.1-0.9,3.7,2.2,4.2,4.4c1.2,4.8,16.2,5.4,18.9,5.9c1.4,0.2,3.6,7.3-3.3,7.3c-6,0-25,0-31.5-0.1
	c-1.4,0-2.6-0.9-2.9-2.2c-1.2-4.7-1.3-15.6,0.5-15.8C743.8,256.2,751.1,259.6,755.4,256.2z"/>
<path class="st23" d="M502,197.3c-46.7,152.9-64.2,251.7-68.5,255.5c-4.4,3.8-9.5,5.8-1-22.1c1-3.4,2.9-10.1,5.4-19.1
	c17.6-64.2,57.9-216.6,57.9-216.6S505.9,184.6,502,197.3z"/>
<g>
	<path class="st1" d="M451.6,317.6c3-1.1,6.6-1.9,10.4-3.9c3.6-1.9,7.7-1.4,11.2-1.4c3.1,0,7.4-1.6,7-7.7c-0.5-7.4-5.2-7.4-7.4-6.5
		c-6.4,2.6-2.6-1.5-4.4-3.8c-1.8-2.5-3.6,6.1-8,8.2c-3.9,1.8-10.6,1.3-12,2.5C446.9,306.1,451.6,317.6,451.6,317.6z"/>
	<path class="st15" d="M391.8,262.8c13,19.8,17.3,40.8,24.5,43.6c7.2,2.9,38.1-4.5,41.3-5.3c1.8-0.5,3.9,13.9,2.2,14.6
		c-6.3,2.8-45,13.1-48.4,11.5c-9.8-4.8-32.8-40.1-35.8-44.7c-3-4.5,1.6-18,8.8-20.2C390.4,260.5,391.8,262.8,391.8,262.8z"/>
</g>
<path class="st1" d="M493.9,229c-4.4-1.7-8,1-6.2,5.9c1.7,4.9,3.1,8.9,5.9,5.3C496.3,236.6,493.9,229,493.9,229z"/>
<g>
	<path class="st23" d="M381,198.8c-44.8,153.5-61,252.5-65.3,256.4c-4.3,3.9-9.4,5.9-1.3-22c1-3.4,2.8-10.1,5.1-19.1
		c16.8-64.4,55.1-217.4,55.1-217.4S384.8,186.1,381,198.8z"/>
	<path class="st23" d="M322.2,403.8c-7,26.2-23,37.6-25.8,55.9c-1,6.7,22.5,3.8,27.8,2.4c5.3-1.3,2.6-50.6,3.1-53.5
		C328.9,399.5,322.5,402.5,322.2,403.8z"/>
</g>
<path class="st1" d="M365.5,243.5c-2.3,0-5,11.1-3.3,12.3c1.7,1.2,4.9,0.5,6.6-1.6c1.7-2.1,0.5-7.9-0.8-9.4
	C366.5,243.3,366.4,243.5,365.5,243.5z"/>
<path class="st1" d="M330.9,326.8c4.3,4,13.2,2.6,16.7,0.3c3.9-2.6,5-9.2,0.8-7.3c-6.6,3-3.5-1.8-5.1-1.9c-2.6-0.2-7.8,2.3-9.2,1.5
	C333.3,319,330.9,326.8,330.9,326.8z"/>
<g>
	<g>
		<path class="st25" d="M265.4,410.5c27.5,3.8,42.1,19.7,62.3,21.1c27.3,1.9,44.1-4.8,56.9,2.6c12.8,7.4,21.7,19.2,44.7,13.7
			c23.1-5.4,30.1-15.1,58.2-12.7c7.6,0.7,21.3,2.2,37.2,4.5c9.2,1.4,52.6-8.6,62.7-9.8c44.8-5.6,222-8,212.3,39.4
			c-5,24.2-204.1,144.3-316.9,152.7C173.5,645.2,137.2,393,265.4,410.5z"/>
		<path class="st2" d="M278.8,439.9c27.1-0.6,29.1-14.8,46.8,2.5c17.8,17.4,23-5.6,47.7,3.1c24.7,8.7-23.2,26.1,56.8,22.3
			c80-3.7,78.3-30.7,109.6-7.8c34.5,25.2,100.1-0.2,64.8,32.4c-24,22.2-122.8,23.8-145.9,10.8c-23.1-13-44.1-17.2-75.4-10.8
			s-35.2-4.7-52.7-5.3c-34.9-1.2-39.1-27.4-63.8-27.1c-24.8,0.4-38.9-12.4-30.7-18.9C245.9,433.1,278.8,439.9,278.8,439.9z"/>
	</g>
	<g>
		<path class="st2" d="M635.8,528.4c15.4,1.9,25.5,5.2,35.1-1.2s14.8,4.9,29,4.2c3.4-0.1,51.7,2.7,35.1,19.4
			c-12.3,12.4-31.7-8.5-39.3,0.6c-7.6,9.1-16.1-1.7-29-2.5c-13.4-0.8-8.2,3.8-18.4,4.4c-9.1,0.6-13.8-1.3-20.1-8.6
			c-4.7-5.5-7.9-1.9-13.6-2.1c-14.5-0.3-17-4.4-10.2-9.3c6.8-5,11-4.9,17.6-5C628.7,528.3,625.9,527.1,635.8,528.4z"/>
		<path class="st2" d="M630.8,528.2c19.7,0,51.1,8.7,64.5,4c13.4-4.7,11.7,10.7,11.7,10.7s-13,12-24.8,4.8
			c-3.7-2.3-13.7,1.3-21.7,0.7c-5.4-0.4-17.2,3-17.2,3s-6.8-1.2-6.7-3c0-1.8-16.3-16.4-15.3-16.4S630.8,528.2,630.8,528.2z"/>
	</g>
	<path class="st0" d="M727.1,487.3c-8.9-0.9-13.5,0.7-19.3-7.4c-5.8-8.1-8.5-15-21.1-12.5c-12.6,2.5-17.6,1.8-28.1-2.7
		c-10.5-4.5,5.5-14.2,5.6-15.8s5.7-8.2-4.5-3.9c-10.1,4.3-3.4,7.3-10.9,14.3c-7.5,7.1-14.4,16.1,2.1,16c16.5-0.1,17.3-4.8,26.8,0.8
		c9.5,5.5,9.4,15.5,22.8,18.8s22.6,12.3,30.2,6C738.3,494.6,737.5,488.4,727.1,487.3z"/>
	<path class="st0" d="M318.8,521.6c-11.5,0.8-16.7,3.8-27.1-5.2c-10.3-9-16.3-17.1-31.2-11.2c-14.9,5.9-21.5,6-36.3,2.6
		c-14.8-3.4,1.5-19.1,1.2-21.1c-0.3-2,4.1-11.5-7.1-3.9c-11.1,7.6-1.6,9.9-8.4,20.4c-6.8,10.5-12.1,23.3,8.6,19.6
		c20.7-3.7,19.9-9.7,34-4.8c14.1,4.9,17.6,17.5,35.7,18.8c18.1,1.3,33.1,10.6,40.2,1C335.6,528.3,332.2,520.7,318.8,521.6z"/>
	<g>
		<path class="st2" d="M421.8,525.4c15.4,1.9,25.5,5.2,35.1-1.2c9.6-6.4,16.4,14,24.4,5.1c2.8-3.1,53.8-6,37.3,10.7
			c-12.3,12.4-54.2,21.7-80.8,9.2c-7.8-3.7-21,13-27.2,5.7c-6.3-7.3-5.3-13.7-19.5-11.2c-14.2,2.5-17-4.4-10.2-9.3
			c6.8-5,11-4.9,17.6-5C405.1,529.3,411.8,524.2,421.8,525.4z"/>
		<path class="st2" d="M421.9,525.4c15.4,3.6,46,8.6,59.4,3.9c13.4-4.7,10.3,19.1,10.3,19.1s-20.3,6.8-24.9,6s-20.5-8-25.8-7.7
			c-5.4,0.2-20.9,2.7-20.9,2.7s-7.3-3.6-7.2-5.4c0-1.8-9-10-8-10S421.9,525.4,421.9,525.4z"/>
	</g>
	<g>
		<path class="st2" d="M786.6,457.6c19.1,2.9,31.7,8.2,43.6-2.4c11.9-10.6,20.6,22.9,30.4,8.1c3.4-5.1,50.6-1.1,36.9,17.2
			c-8.4,11.2-21.2-5.4-30.5,9.6c-9.4,15-25.7,16-34,1.4c-8.3-14.5-16.7,1.1-29.8,0c-11.4-0.9-21.6,14.5-29.5,2.6
			c-7.9-11.9-6.8-22.4-24.4-18.2c-17.6,4.2-34-0.3-25.5-8.6c8.4-8.3,25.7-3,33.9-3.1C766,464.2,774.3,455.7,786.6,457.6z"/>
		<path class="st2" d="M786.8,457.6c19.2,5.7,57.3,13.6,73.9,5.8c16.6-7.8,13.7,19.4,13.7,19.4s-25.1,11.4-30.9,10.1
			s-25.5-12.9-32.1-12.4c-6.7,0.4-25.9,4.6-25.9,4.6s-9.1-5.8-9.1-8.8c0-3-12.1-4.4-10.8-4.4C766.8,471.9,786.8,457.6,786.8,457.6z"/>
	</g>
	<path class="st0" d="M56.9,464.4c17.8-1.2,44.2-30.9,55.8-18.6c11.6,12.3,1.5,19,26,12.2c24.5-6.8,33.3-23.3,52.6-15.8
		c19.3,7.5,38.2-0.9,20-7c-18.2-6.1-38.3-14-59.6-5.4c-21.3,8.6-31.2,12.4-47.9,2.2c-16.7-10.2-24.5-15.9-41.6-5.9
		c-17.1,10-37.9,19.9-48.1,13c-10.2-6.9-21.1,4.7-8,9.2C19.1,452.7,42.1,465.4,56.9,464.4z"/>
	<g>
		<path class="st2" d="M75.5,488.1c15.4,1.9,25.5,5.2,35.1-1.2c9.6-6.4,14.8,4.9,29,4.2c3.4-0.1,51.7,2.7,35.1,19.4
			c-12.3,12.4-31.7-8.5-39.3,0.6c-7.6,9.1-16.1-1.7-29-2.5c-13.4-0.8-8.2,3.8-18.4,4.4c-9.1,0.6-13.8-1.3-20.1-8.6
			c-4.7-5.5-7.9-1.9-13.6-2.1c-14.5-0.3-17-4.4-10.2-9.3s11-4.9,17.6-5S65.6,486.9,75.5,488.1z"/>
		<path class="st2" d="M70.5,488c19.7,0,51.1,8.7,64.5,4c13.4-4.7,11.7,10.7,11.7,10.7s-13,12-24.8,4.8c-3.7-2.3-13.7,1.3-21.7,0.7
			c-5.4-0.4-17.2,3-17.2,3s-6.8-1.2-6.7-3c0-1.8-16.3-16.4-15.3-16.4C62,491.8,70.5,488,70.5,488z"/>
	</g>
</g>
<g>
	<path class="st12" d="M401.7,263.8c-0.5-0.4-6.6,9.8-14.1,12.8c-2.1,0.8-10.3,4.9-18.5,3.3c1.5-9.9,2-6.1,4.7-11.6
		c5.9,2.3,3.5,3.1,7,2.9c2.6-0.1,5-0.7,7.3-1.5c4.3-1.5,8.1-4,11-6.2c1.5-1.1,1.8-2.9,3.5-2.9C404.7,260.7,402.3,264.3,401.7,263.8z
		"/>
	<path class="st3" d="M406,259.7c-0.1-0.9-0.8-2.3-2.7-2.1c-1.4,0.1-1.5,0.7-2.6,1.8c-3.3,3.3-8.3,7.3-14.5,8.4
		c-6.2,1.1-20.8-6.2-29.9-3.6c-9.1,2.6-11.3,11-24.5,13.9c-13.1,2.9-27.7-1.8-31.6-0.8c-3.9,0.9-6.2,1.9-6,3.5
		c0.2,1.5,2.3,4,5.1,4.9c2.8,0.9,27.1,1,33.5-0.2c10.3-2.1,18.7-12,25.4-13.1c6.7-1,21.1,1.9,28.9,1c8.8-1,15.3-11.7,15.9-11.4
		c0.6,0.4,1.2,0.7,2.3,0.3C406.2,262.2,406.1,260.6,406,259.7z"/>
</g>
<g>
	<path class="st12" d="M522.9,269.1c-0.5-0.4-6.7,9.9-14.2,12.9c-2.1,0.8-10.4,4.9-18.7,3.3c1.5-9.9,2-6.1,4.7-11.7
		c5.9,2.3,3.6,3.1,7.1,3c2.6-0.1,5.1-0.7,7.4-1.5c4.4-1.5,8.2-4,11.1-6.2c1.5-1.1,1.8-2.9,3.5-2.9
		C525.9,266,523.5,269.6,522.9,269.1z"/>
	<path class="st3" d="M525.1,265.3c-0.1-0.8-0.7-2-2.4-1.8c-1.2,0.1-1.3,0.6-2.3,1.6c-2.9,2.9-7.4,6.6-12.9,7.6
		c-5.5,1-18.6-5.4-26.7-3.1c-8.1,2.3-10.1,9.9-21.8,12.5c-11.7,2.7-24.8-1.5-28.2-0.6c-3.5,0.8-5.5,1.7-5.3,3.1
		c0.2,1.4,2.1,3.5,4.6,4.4c2.5,0.8,24.2,0.8,29.9-0.3c9.2-1.9,16.7-10.8,22.6-11.8c6-0.9,18.8,1.6,25.8,0.8
		c7.8-1,13.6-10.5,14.1-10.2c0.5,0.3,1,0.6,2,0.3C525.2,267.5,525.2,266.1,525.1,265.3z"/>
</g>
</svg>
