<?xml version="1.0" encoding="utf-8"?>
<!-- Generator: Adobe Illustrator 27.7.0, SVG Export Plug-In . SVG Version: 6.00 Build 0)  -->
<svg version="1.1" id="Layer_1" xmlns="http://www.w3.org/2000/svg" xmlns:xlink="http://www.w3.org/1999/xlink" x="0px" y="0px" viewBox="0 0 900.6 673.4" style="enable-background:new 0 0 900.6 673.4;" xml:space="preserve">
<style type="text/css">
	.st0{opacity:8.000000e-02;}
	.st1{fill:none;stroke:#231F20;stroke-width:1.5928;stroke-miterlimit:10;}
	.st2{fill:#409980;}
	.st3{opacity:8.000000e-02;fill:#201F3B;}
	.st4{fill:#EFAEA7;}
	.st5{fill:#F8AEA6;}
	.st6{fill:#046AA9;}
	.st7{opacity:0.14;fill:#201F3B;}
	.st8{fill:#FFFFFF;}
	.st9{fill:#201F3B;}
	.st10{fill:#3C3C4E;}
	.st11{opacity:0.46;fill:#201F3B;}
	.st12{opacity:0.35;fill:#201F3B;}
	.st13{opacity:0.24;fill:#201F3B;}
	.st14{opacity:0.27;fill:#201F3B;}
	.st15{fill:#FAA819;}
	.st16{opacity:0.62;fill:#201F3B;}
	.st17{opacity:0.9;fill:#FFFFFD;}
	.st18{fill:#F5B2B4;}
	.st19{fill:#1E1E35;}
	.st20{opacity:0.89;fill:#0F1019;}
	.st21{opacity:0.14;fill:#201F39;}
	.st22{fill:#201F39;}
	.st23{opacity:0.28;fill:#201F39;}
	.st24{fill:#1F1E39;}
	.st25{opacity:0;fill:#201F39;}
	.st26{fill:#0168A6;}
	.st27{fill:#F8B231;}
	.st28{opacity:0.1;fill:#201F39;}
	.st29{opacity:0.16;fill:#201F39;}
	.st30{fill-rule:evenodd;clip-rule:evenodd;fill:#FFFFFF;}
	.st31{fill:#4C4C5C;}
	.st32{opacity:0.62;fill:#201F39;}
	.st33{fill:#6E3622;}
</style>
<g class="st0">
	<g>
		<polyline class="st1" points="54.8,0 54.8,24.8 54.8,113.3 54.8,201.8 54.8,290.3 54.8,378.9 54.8,467.4 54.8,555.9 54.8,644.4 
			54.8,672.3 		"/>
		<polyline class="st1" points="143.3,673.4 143.3,672.3 143.3,644.4 143.3,555.9 143.3,467.4 143.3,378.9 143.3,290.3 143.3,201.8 
			143.3,113.3 143.3,24.8 143.3,0 		"/>
		<polyline class="st1" points="231.9,673.4 231.9,672.3 231.9,644.4 231.9,555.9 231.9,467.4 231.9,378.9 231.9,290.3 231.9,201.8 
			231.9,113.3 231.9,24.8 231.9,0 		"/>
		<polyline class="st1" points="320.4,673.4 320.4,672.3 320.4,644.4 320.4,555.9 320.4,467.4 320.4,378.9 320.4,290.3 320.4,201.8 
			320.4,113.3 320.4,24.8 320.4,0 		"/>
		<polyline class="st1" points="408.9,673.4 408.9,672.3 408.9,644.4 408.9,555.9 408.9,467.4 408.9,378.9 408.9,290.3 408.9,201.8 
			408.9,113.3 408.9,24.8 408.9,0 		"/>
		<polyline class="st1" points="497.4,673.4 497.4,672.3 497.4,644.4 497.4,555.9 497.4,467.4 497.4,378.9 497.4,290.3 497.4,201.8 
			497.4,113.3 497.4,24.8 497.4,0 		"/>
		<polyline class="st1" points="585.9,673.4 585.9,672.3 585.9,644.4 585.9,555.9 585.9,467.4 585.9,378.9 585.9,290.3 585.9,201.8 
			585.9,113.3 585.9,24.8 585.9,0 		"/>
		<polyline class="st1" points="674.5,673.4 674.5,672.3 674.5,644.4 674.5,555.9 674.5,467.4 674.5,378.9 674.5,290.3 674.5,201.8 
			674.5,113.3 674.5,24.8 674.5,0 		"/>
		<polyline class="st1" points="763,673.4 763,672.3 763,644.4 763,555.9 763,467.4 763,378.9 763,290.3 763,201.8 763,113.3 
			763,24.8 763,0 		"/>
		<polyline class="st1" points="851.5,673.4 851.5,672.3 851.5,644.4 851.5,555.9 851.5,467.4 851.5,378.9 851.5,290.3 851.5,201.8 
			851.5,113.3 851.5,24.8 851.5,0 		"/>
	</g>
	<g>
		<polyline class="st1" points="900,644.4 899.8,644.4 851.5,644.4 763,644.4 674.5,644.4 585.9,644.4 497.4,644.4 408.9,644.4 
			320.4,644.4 231.9,644.4 143.3,644.4 54.8,644.4 3.4,644.4 		"/>
		<polyline class="st1" points="900,555.9 899.8,555.9 851.5,555.9 763,555.9 674.5,555.9 585.9,555.9 497.4,555.9 408.9,555.9 
			320.4,555.9 231.9,555.9 143.3,555.9 0,555.9 		"/>
		<polyline class="st1" points="900,467.4 899.8,467.4 851.5,467.4 763,467.4 674.5,467.4 585.9,467.4 497.4,467.4 408.9,467.4 
			320.4,467.4 231.9,467.4 143.3,467.4 54.8,467.4 3.4,467.4 		"/>
		<polyline class="st1" points="900,378.9 899.8,378.9 851.5,378.9 763,378.9 674.5,378.9 585.9,378.9 497.4,378.9 408.9,378.9 
			320.4,378.9 231.9,378.9 143.3,378.9 54.8,378.9 3.4,378.9 		"/>
		<polyline class="st1" points="900,290.3 899.8,290.3 851.5,290.3 763,290.3 674.5,290.3 585.9,290.3 497.4,290.3 408.9,290.3 
			320.4,290.3 231.9,290.3 143.3,290.3 54.8,290.3 3.4,290.3 		"/>
		<polyline class="st1" points="900,201.8 899.8,201.8 851.5,201.8 763,201.8 674.5,201.8 585.9,201.8 497.4,201.8 408.9,201.8 
			320.4,201.8 231.9,201.8 143.3,201.8 54.8,201.8 3.4,201.8 		"/>
		<polyline class="st1" points="900,113.3 899.8,113.3 851.5,113.3 763,113.3 674.5,113.3 585.9,113.3 497.4,113.3 408.9,113.3 
			320.4,113.3 231.9,113.3 143.3,113.3 54.8,113.3 3.4,113.3 		"/>
		<polyline class="st1" points="900,24.8 899.8,24.8 851.5,24.8 763,24.8 674.5,24.8 585.9,24.8 497.4,24.8 408.9,24.8 320.4,24.8 
			231.9,24.8 143.3,24.8 54.8,24.8 3.4,24.8 		"/>
	</g>
</g>
<path class="st2" d="M826.6,400.8c-8.2-1.5-11.7-65.4-19.2-59c-7.5,6.4-163,121.9-343.1,192.4C371.5,570.6,58.1,653.9,43.1,628
	c-11.8-20.4-21.3-86.8,0.1-87.9c10.3-0.5,26.4-1.9,46.9-4.2c81.7-9.4,233.6-34.6,371-85.2c1.6-0.6,3.3-1.2,4.9-1.8
	c103.1-38.4,189.3-82.9,243.4-113.9c8-4.6,15.3-8.8,21.8-12.8c24.1-14.4,38.1-23.9,39.6-25.5c6.3-6.4-47.1-21.1-47-32.1
	c0-11.3,122.1-17.4,134.9,0.8C868.4,279.1,840.5,403.4,826.6,400.8z"/>
<path class="st3" d="M466.7,465.1c-28.9,11.6-200.3,62.4-283.3,71.9c-46.6,5.3-82.5,0.7-93.3-1c81.7-9.4,233.6-34.6,371-85.2
	c1.6-0.6,3.3-1.2,4.9-1.8c103.1-38.4,189.3-82.9,243.4-113.9c8-4.6,15.3-8.8,21.8-12.8c0.3-0.2,0.7-0.4,1-0.6
	C738.2,332.2,700.3,371.5,466.7,465.1z"/>
<path class="st4" d="M245.6,330.3c-3.7,3.6-10.9,3.5-13.9,1.5c-3.4-2.2-4.5-8-0.8-6.4c5.8,2.6,3.1-1.6,4.4-1.7
	c2.3-0.2,6.1,3.1,7.3,2.4C243.4,325.7,245.6,330.3,245.6,330.3z"/>
<path class="st4" d="M214,328.8c7.9-1,4.2-6.4,7-6.8c1.8-0.3,0.5,2.1,1.7,3.1c1.2,1,6-2.8,7.6-1.5c1.6,1.3,4,6.2,0.8,8.2
	c-3.2,2-7.7,0-13.8,3.2C211.1,338.4,214,328.8,214,328.8z"/>
<path class="st4" d="M360.2,303.9c1.9-1.1,3.4-0.7,5.6-2.2c1-0.7,5.2-4.1,6.2-3.5c1,0.6,0.8,1.6-0.3,2.3c-0.5,0.3,6.9,4.6,5.7,6.1
	c-1.1,1.5-3.6,1.1-5,0.6c-1.3-0.5-9.1,1.5-9.1,1.5L360.2,303.9z"/>
<path class="st5" d="M517.6,227.9c0.3,0.4,0.4,1.3,0.6,2.3c0.4,1.4,1.1,3,3,3.8c1.1,0.4,2.6,0.6,4.6,0.3c8.2-1.2,17.1-3.1,17.1-3.1
	l-6.1-5.8c0,0-3.3,0.6-5.7,0.6c-1.1,0-2-0.1-2.4-0.4c-0.3-0.2-0.7-0.5-1.1-0.8c-1.4-0.8-3.3-1.6-3.7-0.9c-0.2,0.3-0.2,0.6-0.2,0.9
	c0,0.7,0.2,1.3-0.1,1.2c-0.1,0-0.5,0-1,0C520.6,226.2,516.9,226.9,517.6,227.9z"/>
<g>
	<g>
		<path class="st6" d="M613.5,88.2c0.6,2,19.7-4.9,29-4.1c11.9,1,11.3,8.6,29.9,8.5c7.1,0,16.7-3.7,22.6-6c3.2-1.2,5.4-2.2,5.4-2.2
			L698,48c-1.3,0.9-2.7,2-4.3,3.1c-6.3,4.4-14.8,6.8-23.6,6.9c-14.4,0.2-17.7-10-32.1-10c-8.6,0-23.4,2.6-24.1,4.4
			c-0.7,1.9,8.4,10.5,8.4,14.9C622.2,74.4,612.8,86.1,613.5,88.2z"/>
		<path class="st7" d="M693.6,51.1c0.6,9.8,1.2,27.8,1.4,35.5c3.2-1.2,5.4-2.2,5.4-2.2L698,48C696.7,48.9,695.3,50,693.6,51.1z"/>
	</g>
	<g>
		<path class="st8" d="M716.4,340.9C716.4,340.9,716.4,340.9,716.4,340.9c1.2,0,2.2-0.9,2.2-2c-3.2-137.6-19-290.6-19.1-292.1
			c-0.1-1.1-1.2-1.9-2.4-1.8c-1.2,0.1-2.1,1.1-1.9,2.2c0.2,1.5,15.9,154.4,19.1,291.8C714.2,340,715.2,340.9,716.4,340.9z"/>
	</g>
</g>
<path class="st5" d="M712.5,189.1c-1-0.3-1.8-0.4-2.5-0.4c0.2,2.8,0.4,5.7,0.6,8.6c0.6-0.3,1.1-0.7,1.5-1.3
	C713.5,193.9,714,189.6,712.5,189.1z"/>
<path class="st5" d="M692.3,201.4c2-0.7,0.2,1.2,2.7,0c1.2-0.6,3-1.5,4.8-2.2c1.8-0.8,3.7-1.4,4.8-1.4c0.6,0,1.4,0.1,2.2,0.1
	c-0.2-3.2-0.4-6.3-0.6-9.4c-0.3-0.1-0.5-0.4-0.8-0.8c-1-1.7-3.2,1.6-5.7,3.6c-0.9,0.7-1.9,1.3-2.9,1.3c-2.8,0.2-5.6,1.3-6.5,2.1
	C689.3,195.5,692.3,201.4,692.3,201.4z"/>
<path class="st5" d="M619.7,193.5l7.6-2.1c0.1-3.5-3.6-10.8-4.2-13.9c-0.6-3.4-4.8-6.6-4.8-6.6l-2.6,7.2l0.2,0.6c0,0,0.6,6-0.5,8.7
	c-0.6,1.6-0.2,3.9-1.9,6.3C612.2,195.5,619.7,193.5,619.7,193.5z"/>
<path class="st7" d="M615.9,180c0,0,0.3,3.9-0.2,6.1c4.7,2.2,7.2-3.2,6.1-4.5c-0.7-0.8-3.5-2.8-3.5-2.8L615.9,180z"/>
<g>
	<path class="st5" d="M609.2,171c0.6,2.9-1,9.1,0.9,8.5c1.9-0.5,1.2,6.1,3.2,5.6c4.9-1.2,9.7-5.8,9.7-8.3c0-2.5-2.2-9-2.2-9
		L609.2,171z"/>
	<path class="st9" d="M615,172.4c-1.5,0.6-1.4,1-2.7,0.8c-1.2-0.2,0.2-2.2-1.9-2c-2.1,0.2-4.4,0.7-5.2-1.5c-1.2-3.2,1.9-3.5,3.8-3.6
		c1.2-0.1,0.8-2.7,3.2-3.2c1.9-0.4,2,0.7,3.6,0.4c1-0.2,2.5-2.3,4.4-1.6c3.5,1.4,1.9,4.8,4.9,6.5c3.6,2-1.3,9.6-2.2,9.1
		c-1.1-0.6-0.6-3.8-1.7-4.2c-1.6-0.6-1.5,0.5-2.3,1.9c-0.9,1.4-3.1,2.1-2.3-0.4S616.4,171.8,615,172.4z"/>
</g>
<path class="st8" d="M656,360.3c0.3-3.4,0.1-12,0.1-12l-9.4-0.3l0.5,12.9l6.2,4.1L656,360.3z"/>
<path class="st9" d="M656.8,357.6c0.8-0.6,2.6,1.5,2.9,2.9c0.8,3.3,11.3,3.7,13.2,4c1,0.2,2.5,4.9-2.3,4.9c-4.1,0-17.4,0-22-0.1
	c-0.9,0-1.8-0.6-2-1.5c-0.8-3.1-0.9-10.5,0.3-10.6C648.7,357.5,653.8,359.8,656.8,357.6z"/>
<path class="st8" d="M606,386c0.4-3.4,0.2-12,0.2-12l-9.4-0.4l0.4,12.9l6.2,4.1L606,386z"/>
<path class="st9" d="M607,382.2c1,0.1,0.8,1,1.2,2.4c0.8,3.3,12.7,5.4,14.6,5.7c1,0.2,2.5,5-2.3,4.9c-4.1-0.1-17.4-0.2-22-0.3
	c-0.9,0-1.8-0.6-2-1.5c-0.8-3.1-1.1-11.8,0.2-11.9C598.4,381.9,602.4,381.9,607,382.2z"/>
<path class="st10" d="M592.5,274.1c0.1,1.5,0.3,3.2,0.5,5c0.8,6.8,2.5,29.9,2.1,44.5c-0.4,14.6,0.9,48.7,0.9,53.9
	c4.4,1.9,7.2,1.3,13.6,0c0,0,2.4-28.4,3.9-53c0.6-9.1,1.9-17.9,5.6-43.4c0,0,0,0,0,0c0.2,0.1,7.5,2.6,14.7,5.9
	c7,3.3,13.8,9.6,14.1,12c1.2,9-3.3,54-1.9,55.5c4.4,2.6,11.4,2,13.4-1.6c0,0,7.2-50.8,5.7-59c-2-11.2-25.2-28.6-33.5-43.7
	c0,0-37.6-13.8-38.8-0.5c-0.2,1.8-0.2,3.4-0.2,5c0,2.1-0.1,4-0.2,6.1C592.3,264.4,592.1,268.3,592.5,274.1z"/>
<path class="st11" d="M613.5,274.1C613.5,274.1,613.5,274.1,613.5,274.1c0.1,0,0.1,0,0.1-0.1C613.6,274,613.5,274.1,613.5,274.1z"/>
<path class="st12" d="M592.3,270.1c0.3-0.1,15.4-3.3,17.4-10.8c0,0-13.1,1.1-17.3,1.6C592.3,264.4,592.2,268.2,592.3,270.1z"/>
<path class="st8" d="M615.8,185.8c3.4-0.9,3.7,4.7,7.1,4.9c1.8,0.1,1.4-0.6,2.3-1.5c0.5-0.5,1-1.1,1.8-0.2
	c16.9,17.2-0.7,60.6,1.4,63.7c1.8,2.5-12.5,7.9-21.5,5.7c-12.3-3-11.5-16.3-11.2-18.8c0.4-2.5,8.3-45.7,8.3-45.7
	S610.3,190.6,615.8,185.8z"/>
<path class="st6" d="M624.1,256.4c0.1,3.3,0.5,5.8,1.8,6.9c2.2,2,5.3,2.4,9.1-1.4c0.9-0.9,1.6-2.2,2.1-3.6
	c2.7-8.2-0.1-23.2-0.6-27.2c-0.2-1.8-0.7-4.3-1.1-6.9c-0.4-2.8-0.7-8.9,0.3-11.1c0,0,0,0,0,0c0.1-0.2,0.2-0.4,0.3-0.5
	c0.1-0.1,0.1-0.2,0.2-0.2c0.3-0.2,7.9,0.4,15.5,0.9c4.8,0.3,9.5,0.6,12.4,0.5c5.7-0.1,32.2-11.9,33.8-12.7c0.7-0.4,1.1-1,1.4-1.8
	c0.9-2.7,0-7-0.2-7.8c0-0.1,0-0.1,0-0.1c-0.4-2.4-31.4,10-36.1,10c-8.7,0.1-14.6-1.8-36.1-12.2c0,0,0,0.2,0,0.5v0c0,0,0,0,0,0
	c-0.1,0.8-0.1,2.6,0.2,5.7c0.1,1.2,0.2,2.6,0.4,4.1c1.3,9.9-4.3,17-3.2,29c0.6,6.8,0.3,13.7,0,19.6
	C624.2,251.2,624.1,254,624.1,256.4z"/>
<path class="st6" d="M588.4,265.1c5.4,3.3,15.2,1.5,20-3.5c0.8-0.9,1.3-1.8,1.6-2.8v0c1-3.8-1-8.7,1.3-16.2
	c1.6-5.3,4.1-14.9,4.6-21.5c1.1-14.1,0.3-31.4-0.1-35.3v0c0,0-12.5,1.5-19.5,8.7c0,0-0.1,0.1-0.1,0.1c-2.8,3.1-0.7,10.6-1.1,17
	c0,0.3,0,0.7,0,1c0,0,0,0.1,0,0.1c-0.1,1.6-0.1,3-0.1,4.1c-0.1,2.9,0,4.8,0.1,6.8c0,0.4,0,0.8,0.1,1.1c0,0.5,0,0.9,0.1,1.4
	c0,0,0,0,0,0c0,0.6,0.1,1.3,0.1,2c0,0.5,0,1.1,0,1.7c0,1.7-0.4,4.1-0.9,6.8c-0.2,1.2-0.5,2.4-0.8,3.7l0,0
	C591.3,249.9,585.5,263.3,588.4,265.1z"/>
<path class="st6" d="M534.3,223c-1.8,0.6-1.6,11.7,0.5,11.4c17-2.6,38.2-11.3,39.8-12c9.8-4.2,15.6-7.6,20-10.6
	c0.1-0.1,0.3-0.2,0.4-0.3c1.1-0.7,2-1.5,3-2.2c1.2-0.9,2.3-1.8,3.5-2.6c2-1.5,4-2.9,6.5-4.4c0,0,0.1-0.1,0.3-0.2
	c0.3-0.2,0.9-0.5,1.6-1c0.6-0.4,1.2-1,1.9-1.6c0.4-0.4,0.8-0.9,1.2-1.4c0.4-0.6,0.9-1.2,1.3-1.8c1.6-2.7-1.8-5.3-5.3-6.5
	c-1.1-0.4-2.2-0.6-3.2-0.6c-0.8,0-1.4,0-2,0.2c0,0-0.1,0-0.2,0.1c-0.2,0.1-0.5,0.2-0.8,0.4c-0.7,0.3-1.7,0.9-2.9,1.5
	c-0.4,0.2-0.9,0.5-1.4,0.8c-0.3,0.2-0.7,0.4-1,0.6c-0.4,0.2-0.9,0.5-1.4,0.8c-0.2,0.1-0.4,0.2-0.6,0.4c-11,6.3-24.3,15.7-28.4,18.2
	C562.1,214.9,540.9,220.9,534.3,223z"/>
<path class="st13" d="M594.7,212.9C594.7,212.9,594.7,212.9,594.7,212.9c0,0,0,0.1,0,0.1c0.1-0.1,0.3-0.2,0.4-0.3
	c-0.1,1.6-0.1,3-0.1,4.1c-0.1,2.9,0,4.8,0.1,6.8c0,0.4,0,0.8,0.1,1.1c0.5-0.7,1-1.5,1.4-2.3c1.6-3.2,3-6.5,4.1-9.2
	c1.4-3.6,2.1-6.1,2.1-6.1l-1.2,0.9l-1.9,1.5l-1.5,1l-3,2.1L594.7,212.9z"/>
<path class="st14" d="M593.1,196.5c-1.2,0.7-0.9,0.4-2.7,1.5c0.5,0.1,2.5,0.5,3,0.6c4.6,0.7,10.1,1.6,13.5,1.9
	c0.8,0.1,1.5,0.1,2.1,0.1c1.4,0,2.7-0.4,4-0.9c0.7-0.3,1.5-0.7,2.1-1.2c2.8-2.1,5-5.4,5.8-6.3c0.2-0.2,0.3-0.3,0.3-0.3
	c0.4,0.3,1.8-1.9,0.4-1.9c-1,0-1.2,1.1-2,1.8c-1.2,1-2.7,2-4.4,2.9c-0.7,0.4-1.4,0.7-2.2,1c-1.3,0.5-2.7,0.8-4.1,1
	c-0.1,0-0.2,0-0.3,0c-1.7,0.1-9.1-1.2-13.9-2.4c-0.2,0-0.3-0.1-0.5-0.1c-1-0.2-1.8-0.5-2.4-0.7c-0.8,1.4-1.6,2.2-2.3,2.7
	C590.6,196.2,591.8,196.3,593.1,196.5z"/>
<path class="st15" d="M541.2,197.3c0.1,1.1,1.4,3,3.4,3.8c2,0.9,19.6,2.7,24.3,2.3c7.6-0.7,14.3-7.1,19.2-7.3c0.5,0,1,0,1.5,0
	c1,0.1,2.2,0.2,3.5,0.4c0.2,0,0.3,0.1,0.5,0.1c4.7,0.8,10.3,2.1,14.4,2.3c0.3,0,0.7,0,1,0c2.3,0,4.4-0.9,6.3-2.1
	c2.9-1.8,5.1-4.3,5.7-4.7c0.1-0.1,0.1-0.1,0.2-0.1c0.4,0.3,0.8,0.6,1.6,0.4c0.6-0.1,0.6-1.2,0.6-1.8c0-0.6-0.5-1.6-1.8-1.6
	c-1,0-1.1,0.4-2,1.1c-1.2,0.9-2.6,1.9-4.2,2.8c-1.7,0.9-3.7,1.7-5.8,1.9c-0.3,0-0.6,0.1-0.9,0.1c-2.6,0.2-7.2-1.8-11.9-3.3
	c-0.1,0-0.1,0-0.2-0.1c-3.3-1-6.6-1.8-9.4-1.3c-6.7,1.1-8.9,6.9-18.6,8c-9.7,1.1-20-3.2-22.8-2.9
	C542.9,195.7,541.1,196.2,541.2,197.3z"/>
<path class="st16" d="M619.1,281.2C619.1,281.2,619.1,281.2,619.1,281.2c0.2,0.1,7.5,2.6,14.7,5.9c-4.3-4.8-13.6-11.7-13.6-11.7
	S619.7,276.3,619.1,281.2z"/>
<path class="st5" d="M707.7,190.1c1-0.5,1.2-1.5,2.3-1.4c1,0.1,2.3,8.7,0.6,8.7c-1.7,0-3.4,0.9-3.3-1.9
	C707.3,194.1,706.7,190.6,707.7,190.1z"/>
<path class="st5" d="M704.1,187.4c2.4-0.8,1.4-0.9,2.7-1c1.3-0.2,3.5-1.2,3.7,0.5c0.1,0.8-2.9,2.2-3.3,2.3c-1,0.3-1.8,0.3-2.4,1.1
	C704.6,190.6,703.6,187.6,704.1,187.4z"/>
<path class="st13" d="M636,212.4c0.1-0.1,0.1-0.2,0.2-0.2c0.3-0.2,7.9,0.4,15.5,0.9C642.8,208.4,638.5,208.7,636,212.4z"/>
<path class="st13" d="M519.6,235.3c0,0,0.6-0.6,1.7-1.3c1.1-0.8,2.7-1.9,4.5-2.7c3-1.4,4.7-3.4,5.3-5.3c-1.1,0-2-0.1-2.4-0.4
	c-0.3-0.2-0.7-0.5-1.1-0.8h-3.9c0,0,0,0,0,0c0,0-0.5,0.5-1.2,1.2c-1.1,1.1-2.9,2.9-4.2,4.2c-1.1,1.1-2,2-2.2,2.1
	C515.4,232.8,519.6,235.3,519.6,235.3z"/>
<path class="st17" d="M309.7,163.1c10.6,0,32.3,18.7,1.2,21.7c-31,3-77.5,1.6-96.3,1.7c-30.7,0.1-38.3-1.2-38.1-13.7
	c0.1-7.3,4.1-12,20.2-13.9c16.8-2,8.2-20.7,28.8-20.1c17.5,0.5,19.3,25,35.3,19s12.7,10.4,24.4,13.4
	C298.2,174.5,299.2,163.1,309.7,163.1z"/>
<g>
	<path class="st18" d="M512.3,235.5c1.2-4.4,2.3-7.8,4.7-9.6c3.5-2.6,10.7-3.3,12.3,1.4c0.9,2.7-10,5.9-12.3,10.8
		C515.7,240.7,512.3,235.5,512.3,235.5z"/>
	<g>
		<path class="st4" d="M468.4,333.6c0,0,2.6,39,2.4,49.8c-0.1,10.4-6.8,55.1-6.9,57.9c-0.1,2.9,1,5.2,4.4,8.6c0,0,0.1,0.1,0.1,0.1
			l0,0c1.5,1.3,0.1,3.6-1.7,2.9l-7.6-2.7c-0.2-0.1-0.3-0.2-0.5-0.3l-3.9-3c-0.5-0.4-1.3,2.8-0.6-1.6c6.9-43.7-0.4-24.4,2.9-60.9
			c0.4-4.5-6.6-40.1-6.6-40.1C449.9,338.1,466.1,328.8,468.4,333.6z"/>
		<path class="st6" d="M456.8,452.8c1.6,0.6,6.1,3.3,9.6,5.1c1.6,0.8,2.9,1.4,3.7,1.6c0.1,0,0.1,0,0.2,0c2.2,0.3,7.1,0.3,8.1-0.6
			c1-0.9,0.3-3.4-1.7-4.9c-0.9-0.6-2.4-1.4-3.8-2.1c-1.5-0.7-2.9-1.3-3.6-1.5c-0.2-0.1-0.4-0.1-0.4-0.1s-0.3,0-0.3,0.3
			c0,0.6,0,1.7-2.7,1.5c-3.6-0.3-9.2-5.9-11.1-8.7c-0.2-0.3-0.7-0.4-0.9-0.1c-1.1,1.3-3.4,4.8-1.3,8.8c2.3,3.9,2.5,8.6,2.5,8.6
			l1.4-0.2C456.5,460.6,455.6,454.2,456.8,452.8z"/>
	</g>
	<g>
		<path class="st4" d="M453.5,339.1c0,0-3.8,36.7-4.3,46.4c-0.6,10.4-39.5,42.5-41.2,44.8c-1.7,2.3-2.2,4.8-1.4,9.6c0,0,0,0.1,0,0.1
			l0,0c0.5,1.9-2,3-3.1,1.4l-4.6-6.7c-0.1-0.2-0.2-0.3-0.2-0.5l-1.4-4.7c-0.2-0.6-1.4-1.1,1.4-3.5c27.4-24,24.5-28.3,36.6-43.8
			c2.8-3.6-0.4-39.9-0.4-39.9C435.4,336.1,452.1,333.9,453.5,339.1z"/>
		<path class="st6" d="M395.7,434.9c0.9,1.3,3.2,5.9,5,9.2c0.8,1.5,1.6,2.7,2.1,3.3c0.1,0.1,0.1,0.1,0.2,0.1
			c1.6,1.4,5.6,4.1,6.9,3.9c1.3-0.2,2.1-2.6,1.2-4.9c-0.4-1-1.2-2.4-2-3.7c-0.8-1.4-1.7-2.6-2.1-3.2c-0.1-0.2-0.2-0.3-0.2-0.3
			s-0.2-0.2-0.4,0.1c-0.3,0.5-0.9,1.4-3-0.2c-2.7-2.2-5-9.4-5.1-12.7c0-0.4-0.4-1-0.7-0.9c-1.6,0.5-4.6,2.1-5,6.5
			c-0.2,4.4-2.6,8.3-2.6,8.3l1.3,0.6C391.3,441,394,435.3,395.7,434.9z"/>
	</g>
	<path class="st19" d="M473.3,372.8c0.7,5.4-20,0.3-29.7,1.1c-6,0.5-13.8,0.6-12.4-2.5c3.9-8.3-5.5-8.7,0.7-20.4
		c3.5-6.7-1.8-14.4-1.9-28.2c0-3.5,0.5-7.4,2-11.7c0.9-2.5,1.2-4.5,3-6c0.1-0.1,0.3-0.2,0.4-0.3c0.2-0.1,0.3-0.3,0.5-0.4l0,0
		c0.1-0.2,0.2-0.3,0.2-0.3s0,0,0.1,0.1c2.8-2.2,1.8-1,0.5,0.3c0.3,0.2-1.1,0.2-0.5,0.6l0,0c0.4,0.3,0.9,0.5,1.4,0.8
		c0.8,0.5,1.7,1,2.8,1.5c4.7,2.5,11.4,5.3,17.7,5.8c0.1,0,0.1,0,0.2,0c0.9,0.1,1.7,0.1,2.6,0c1.1-0.1,1.9,1,2.9,0.8
		C471.6,325.7,471.5,358,473.3,372.8z"/>
	<path class="st20" d="M462.2,315.9c0,0-13.1,14.5-31.8,11.6c-0.6-3.5-0.8-7.4-0.1-11.8c0.4-2.6,2.2-4.6,3.7-6.3l0.2,0l0,0l0.1,0
		l0.6,0l0-0.1l1.8,0.1l16.3,1.2l2.1,1.4l1,0.7l0.4,0.2L462.2,315.9z"/>
	<path class="st8" d="M448.7,254.8l5.2,2.1l8.8,29c0,0-1.6,17.8-5.2,24.2c-4.8,8.3-22,0.3-21.4-1.5c5.7-17.3,6.3-53.4,6.3-53.4
		L448.7,254.8z"/>
	<path class="st6" d="M466.2,255.6c7,0,18.2-4.5,22-6.5c6.5-3.4,23.8-17.4,23.8-17.4c1.9-1.6,8.4,3.7,8.4,3.7
		c0.1,2-18.5,18.7-26.3,23c-6.6,3.6-24,10.4-28.2,13.4c-0.5,0.4,3.9,8,2,13.1c-3.8,10-7.4,25.6-1.7,31c2.7,2.6-10.5,3.2-12.5,0
		c-6.9-11.3,8.1-27.4,5.6-34.3c-2.5-6.9-3.5-8.9-4.4-15.3c-0.8-6-2.3-10.6-2.3-10.6S459.9,255.7,466.2,255.6z"/>
	<path class="st18" d="M442.3,255.7c0,0,2.7,5.5,4.7,6.7c2,1.2,4.6,5.7,5.5,5.6c1.8-0.1,1.2-10.5,0.2-12.4c-0.5-0.9-1.7-0.8-2.2-2.8
		c0-0.2-0.1-0.3-0.1-0.5c-0.3-1.3-0.3-2.8,0.7-3.6c0.3-0.2,0.7-0.4,1.2-0.5c0.5-0.1,0-0.7,0.2-1.3c0,0-2.4-11.5-4.6-5.2
		c-0.5,1.5-1.1,3.1-1.7,4.7c-0.2,0.6-0.4,1.1-0.6,1.6C443.9,252.2,442.3,255.7,442.3,255.7z"/>
	<path class="st6" d="M433.9,257.8c-5,3.6-4.4,16.2-2.1,27.5s2.5,15.1,0.2,20.2c-3.9,8.4-3.8,11.3-1,13c4.4,2.7,12.5,2.1,14.1-1.4
		c1.6-3.6-1.4-16,1.3-21.9c2.7-5.9,4.8-8.3,4.4-14.4c-0.2-3.4-4.1-25.8-8.4-25.2C438,256.3,433.9,257.8,433.9,257.8z"/>
	<path class="st21" d="M448.5,249.8c0.5,0.9,1.2,1.8,1.9,2.4c-0.3-1.3-0.3-2.8,0.7-3.6C449.3,248.2,447.5,247.7,448.5,249.8z"/>
	<g>
		<path class="st18" d="M380.7,299.4c-2.6,0.4-4,2.5-5.1,1.1c-2.4-2.7-5.1-2.3-4.3-1.3c1.5,2-0.6,3.2-2,3.6c-12.8,3.3,2.8,7,6.8,4.6
			c1.3-0.8,3.4-2.8,6.8-2.8C386.3,304.6,380.7,299.4,380.7,299.4z"/>
		<g>
			<path class="st6" d="M431.4,260.5c-12.6,20.6-19.9,23.6-24.8,25.8c-3.8,1.7-26,11.9-28.9,11.8c-1.7-0.1,1.4,9,2.9,8.5
				c1.4-0.5,22.2-6.3,29.3-9.8c6.8-3.3,30.8-24.2,32.4-28.1C442.9,267,434,256.3,431.4,260.5z"/>
		</g>
	</g>
	<g>
		<path class="st18" d="M450.4,235.4c2.4,3.3,4.9,4.4,3.7,5.1c-0.9,0.6,3.8,7.5-0.3,7.8c-4.1,0.3-7.9-0.7-9.5-4.7
			c-1.6-4-2.6-6.3-2.6-6.3L450.4,235.4z"/>
		<path class="st22" d="M450.4,235.4c-1,1.8-2.4,1.6-2.1,5.1c0.2,1.8-1.5,0.7-1.9,0.2c-0.5-0.5-1.4-0.4-2.2,0.3
			c-0.9,0.9,0.4,1.9,1.1,2.6c0.5,0.5-0.2,1.8,0.3,2.3c1.1,1,3.6,4.8-0.3,9.9c-1.3,1.7,3,3.2,4.3,6.3c1.3,3.1-0.4,7.8-4.3,9.5
			c-3.6,1.5,0-6.6-3.6-6.2c-7.3,0.8-2.6-4-3.3-6.1c-0.5-1.5-2.5-1.4-4.3-3.2c-1.7-1.7-3-4.2-2.9-7.5c0.1-4.5,2.7-3.9,3.9-5.9
			c1.1-1.9-2-9.9,6.3-12.1c4.4-1.2,6.6,0.3,8.3,1.7C451.5,233.5,450.7,234.8,450.4,235.4z"/>
	</g>
</g>
<path class="st23" d="M377.4,305.6c-1.8-2.9-4.4-3.4-5.6-3.1c-1.1,0.3-2.2,4-2.9,4.1C368.2,306.7,377.4,305.6,377.4,305.6z"/>
<path class="st18" d="M303.5,413.7c1.9,9.6,2.7,17.9,1,25.5s-13.1,53.5-12.3,54.9c0.8,1.3,3.9,7,4.6,8.4s-15.1-4.4-15-7.3
	c0.1-2.9,0.9-1.4,2.7-5.7c1.7-4.3,3.8-19.7,4.1-23c0.3-3.2-0.3-35.3,0.8-38.8C290.5,424.2,303.5,413.7,303.5,413.7z"/>
<path class="st24" d="M283.3,489.5c0.4-0.2,0.9-0.2,1.2,0.1c1.6,1.4,2.3,3,2.5,3.6c0.3,1.2,0.3,3.3,3.2,5.5c2.9,2.2,6,2.2,6.9,3.2
	c0.9,1,6.3,5,4.4,6.8c-2,1.5-8.6-0.4-10.7-2.4c-2.1-2-7.5-7.3-7.6-7c-0.7,0.8-1,0.5-1,0.5c-1.7-1.6-4.1-3.5-4.2-4.2
	c-0.2-0.7,1-2.9,2.2-3.8C280.9,491.1,282.5,490,283.3,489.5z"/>
<path class="st18" d="M308.2,418.6c0.1,1.4,1.2,8.8,2.6,17.7c0.4,2.7,0.9,5.5,1.4,8.3c2.1,13,4.4,26.3,4.9,27.9
	c0.9,3.2,4.3,18.8,4.1,23.5c-0.2,4.7-1.6,3.6-0.6,6.4c1,2.8,21.3-0.1,20.1-1.3c-1.2-1.1-9-2.6-10.3-3.6c-0.9-0.7-3-31.7-4.7-53.9
	c-0.2-3-0.4-5.8-0.6-8.4c-0.5-6.5-0.9-11.4-1.1-13.2c-1-7.9-4.4-5.8-11-5.7C313,416.4,308,414.8,308.2,418.6z"/>
<path class="st24" d="M319.8,499.5c0.1-0.4,0.5-0.8,1-0.8c2.2,0,3.9,0.7,4.4,1.1c1.1,0.7,2.5,2.3,6.3,2.1c3.8-0.2,6.3-1.7,7.8-1.5
	c1.5,0.2,7.7,1.3,7.5,4c-0.5,2.5-6.3,4-9.3,3.9c-3.1-0.1-11.1-1.4-11-1.1c0,1-0.5,1.1-0.5,1.1c-2.4-0.1-5.6,0.1-6.2-0.3
	c-0.6-0.4-1.2-2.9-0.9-4.4C319,502.5,319.5,500.6,319.8,499.5z"/>
<path class="st25" d="M288.7,442.7c4.5,1.8,11.2,1.5,14.5,2c0.8-3.5,1-4.2,1.3-5.6c0.1-0.3,0.1-0.5,0.2-0.8l-11.9-3.2l-4.1,4.5
	C288.8,440.7,288.7,441.7,288.7,442.7z"/>
<path class="st25" d="M310.8,436.3c0.4,2.7,0.8,4.9,1.2,7.7c4-1.6,9.6-0.9,13.7-0.3c-0.2-3-0.4-5.8-0.6-8.4l-0.7-2.3L310.8,436.3z"/>
<path class="st26" d="M261.6,434.7c4.2,5.1,17.2,1.3,22.1,3.9c0.8,0.4,2.1,0.9,3.8,1.4c6,1.6,16.6,4.3,20.3,2.1
	c10.7-6.3,17.3,1.8,23.6,0.2c6.3-1.6-4.9-63.9-10.7-77.6v0c-0.3-0.7-0.6-1.3-0.9-1.8c0,0-14.4-8.5-26.9-2.1c-2.1,1.1-4.1,2.6-6,4.6
	c0,0-0.1,0.1-0.1,0.1C274,385.9,284.2,407.5,261.6,434.7z"/>
<path class="st27" d="M316.3,325.3c1,4.5,4.5,6.8,4.4,9.2c-0.1,5.1-4.3,5.5-4.5,8.6c-0.1,2.8,5.2,17.3,4.5,21.6
	c-0.1,0.3-0.2,0.6-0.3,0.8c-1.2,1.4-13.7,2.5-23.1,2.4c-6.4-0.1-11.4-0.8-10.6-2.4c0,0,0.1-0.1,0.1-0.1c2.5-3.5,4.2-8.3,4.7-13.8
	c0.2-1.8,0.1-4.1-0.1-6.5c-0.5-4-1.6-8.2-3.6-10.3c-0.4-0.4-1-0.7-1.6-0.9c0,0,0,0,0,0c-0.3-0.1-0.7-0.1-1.1-0.2c-0.2,0-0.4,0-0.6,0
	c-5.1-0.2-13.8,3-17,3.2c-4.1,0.2-20.3-2.9-24.4-3.8c-2.9-0.6-2.4-7.3-1.4-7.8c3-1.5,20.9,3.5,25.1,2.7c11.2-2.1,15.7-7.5,18.9-9.4
	c2.8-1.6,9.5-8.2,12.3-8.5c2.8-0.2,8.6,0.6,8.6,0.6c6.1,3.1,25.6,2.5,29.5,1.6c3.9-0.9,23.6-9.9,25.5-10.3c1.9-0.3,3.5,7.1,3.5,7.1
	s-17.2,10.2-26.8,12.3C334.4,322.2,315.3,321,316.3,325.3z"/>
<path class="st18" d="M304.5,304.5c-1.1,4.9-0.8,7.4,0,8.8c0.8,1.4,1.7,4.7,0.1,4.6c-0.8,0-5.4-2.1-7-3.3c-1.7-1.2-2.7-3.5-2.7-3.5
	s3.6-6.2,6.1-11.4C303.4,294.5,304.5,304.5,304.5,304.5z"/>
<path class="st23" d="M303.8,309.1c0-0.6,0.1-1.4,0.2-2.2c0-0.3,0.4-2.1,0.4-2.4c-0.3-0.3-0.7-0.6-1-0.7c-0.4-0.1-1.2,0-1.5-0.4
	c-0.6-0.7-1.8,1.4-1.2,2.6C300.9,306.5,302.2,308.3,303.8,309.1z"/>
<path class="st28" d="M310.5,319.9c4.8,4.3,4.4,4.4,6.5,7.8c-1.6-3.9-2.4-5.9-2.4-5.9S311.6,319.9,310.5,319.9z"/>
<path class="st29" d="M261.6,434.7c4.2,5.1,17.2,1.3,22.1,3.9c0.8,0.4,2.1,0.9,3.8,1.4c9-19.9,8.5-50.4,6.2-72.3
	c-0.2-2.4-0.5-4.8-0.8-6.9c-0.4-3.4-0.9-6.5-1.4-9.2c-0.5,5.4-2.2,10.3-4.7,13.8c0,0-0.1,0.1-0.1,0.1
	C274,385.9,284.2,407.5,261.6,434.7z"/>
<g>
	<g>
		<path class="st18" d="M303.9,291.6c2.7,3.4,5.5,4.4,4.2,5.3c-1,0.7,4.5,7.8,0.1,8.3c-4.4,0.5-8.5-0.3-10.5-4.5
			c-1.9-4.2-3.2-6.6-3.2-6.6L303.9,291.6z"/>
		<path class="st22" d="M304.9,292.1c-0.6,2.5-2.4,4-2.9,5.1c-0.3,0.6-1.5,0.8-2,0.3c-0.5-0.5-1.5-0.3-2.3,0.5c-0.9,1,0.6,2,1.4,2.7
			c0.6,0.6,0.8,1.6,0.5,2.4c-1,3,4.2,8.4-10.7,15.8c-3.8,1.8-7.9,3-11.8,3.7c-7.8,1.3-14.7,0.3-15.5-1.8c-0.6-1.6,2.1-5,4.4-6.5
			c2.3-1.5,3.6-0.1,5.4-1.3c2-1.4-2.3-5.8,4.1-7.9c6.4-2.1,7.2-0.7,9-2.2c1.8-1.5,1.6-13.7,9.5-15.3c5.4-1.1,8.4,0.7,9.7,1.9
			C304.1,289.9,305.1,291.4,304.9,292.1z"/>
	</g>
</g>
<path class="st4" d="M377.4,305.6c-1.2-1.8-4.6-3.2-5.8-1.5s-3.1,3.3-1.8,3.1c1.3-0.1,2.4-0.1,2.4-0.1s4.1,0.7,4.6-0.2
	C377.2,306.1,377.4,305.6,377.4,305.6z"/>
<g transform="matrix(1,0,0,1,237.247,166.78)">
	<path class="st30" d="M189-74.9c-1,3.5-1.5,6.8,4,11.5c4.3,3.7,8.8,1.2,13.5,3.6c6.3,3.3,5.5,8.6,13.7,9.2c7.1,0.6,8.7-10.2,19-6
		c7.8,3.2,16.6,0.4,16.3-7.1c-0.3-7.5,7.6-8.9,2.8-16.2c-4.8-7.5-12.7-1.4-16.5-3.1c-5.8-2.7-6.5-8.2-15.2-7.8
		c-11,0.5-9.8,7.1-19.9,6.7C197.7-84.4,190.7-80.9,189-74.9z"/>
</g>
<path class="st4" d="M186.5,520.6c0.2-3.6-0.7-12.7-0.7-12.7l-10.1,0.2l1.4,13.7l6.9,4L186.5,520.6z"/>
<path class="st22" d="M187.2,519.1c1.1-0.3,0.6,0.7,1,2.2c1,3.5,14.3,3.4,16.3,3.7c1,0.1,2.8,5.2-2.4,5.3c-4.5,0-18.8,0.2-23.6,0.3
	c-1,0-1.9-0.6-2.2-1.6c-0.9-3.3-0.8-8.5,0.6-8.7C179,519.6,182.8,520.1,187.2,519.1z"/>
<g>
	<path class="st4" d="M127.8,516.4c1.5-3.4,4-12.2,4-12.2l-9.6-3.1l-3.7,13.3l5.1,6L127.8,516.4z"/>
	<path class="st22" d="M129,515.2c1.1,0.1,0.3,0.9,0.2,2.4c-0.4,3.6,12.2,7.8,14,8.7c0.9,0.5,0.7,5.8-4.1,4.2
		c-4.2-1.4-17.7-5.9-22.3-7.5c-1-0.3-1.6-1.2-1.5-2.2c0.3-3.4,2.4-8.3,3.7-8C121.1,513,124.5,514.8,129,515.2z"/>
</g>
<path class="st31" d="M162.1,390.3c5.9,15.2,15.6,59.1,16.8,67.1c1.2,7.9,10.1,59.8,9.7,62.5c-9.9,2.1-15.6-0.8-15.6-0.8
	c-1.2-6.6-5-43.9-10-55.1c-5-11.2-19.5-45.6-19.5-45.6c1.9,17.3,6.3,44.9,3.7,50.5c-4.8,12.6-14.1,46.9-14.1,46.9
	c-6.3-0.5-16.2-3.1-15.1-3.4c3.2-8.9,11-37.8,12.1-46.4c1-8.6-10.9-78-10.9-78l34.5-2.1L162.1,390.3z"/>
<path class="st32" d="M143.6,418.3c0.4,5,1.3,10.2,1.9,15.9l-6.5-26.1C139,408.1,140.3,412.6,143.6,418.3z"/>
<g>
	<path class="st4" d="M143,310.4c3.2,5.1,4.7,5.8,5,6.5c-0.8,1-1.2-0.4,0.1,2.4c1.9,4,3,7.3-3.1,5.9c1.4,3,1.9,4,1.9,4l0.9,6.3
		l-8.2,2c-0.1-5.7-9.8-19.9-7.9-24.2C133.5,309,142,308.9,143,310.4z"/>
	<path class="st33" d="M140.4,321.3c-2.6-0.6-2.4-4.5,0.4-3.3c1.8-0.9,1.6-1.1,0.8-2.7c-0.8-1.6,0.8-1.6,1.6-3.3
		c0.8-1.7,2.1-3.1,0.1-4.4c0,0,0.3-1.5-0.6-2.2c-0.9-0.7-3.6-1.6-4.6,0.2c-1,1.8-0.2,2.9-3,1.9c-2.8-1-5.1,0-4.8,3.1
		c0.4,3.6-1.8,1.4-1.7,4.9c0.1,6.3,3.6,4.6,4.6,7.8c1,3.2,3.5,5.9,5.8,4.8C141.2,326.9,141.2,322.9,140.4,321.3z"/>
	<path class="st29" d="M145,325.2c-2-1-2.6-0.5-2.8,0c-2,4.6,1.7,3.8,3.7,5.4c2.1,1.6,0.6-2.3,0.6-2.3L145,325.2z"/>
</g>
<path class="st6" d="M135.5,330.6c2.2-0.8,12.7,0.2,18.8,0.6c8.3,0.6,24.9,3.6,31.3,2.9c6.4-0.7,30.9-7.6,30.9-7.6
	c1.8,0,2.4,7.5,2.1,9c-0.3,1.5-25.1,9.1-31.8,10.7c-10.1,2.3-25.6,4-26.5,8c-0.1,9.9-2.8,15.5,1.7,36.1c-11.7,10.3-43.3,7-44.1,0.7
	s3.3-42.9,4.9-47.3C125.1,337.9,133.4,331.4,135.5,330.6z"/>
<path class="st23" d="M160.4,354.2c-0.1,8.7-2.7,16.1,0.9,32c-0.5,0-1.4-2.4-2-3.4c-2.6-4.1-5.7-23.7-4.8-25.3
	c0.8-1.6,1.8-2.4,6.4-4.1C160.6,353.5,160.4,354,160.4,354.2z"/>
<path class="st29" d="M284.6,333.5c0.2,0,0.4,0.1,0.6,0.1C285,333.5,284.8,333.5,284.6,333.5L284.6,333.5z"/>
<path class="st28" d="M293.6,338.6c-0.4,1.8-1.6,4.8-2.2,6.3c-0.5-4-1.6-8.2-3.6-10.3c-0.4-0.4-1-0.7-1.6-0.9
	C291.8,334.8,294.2,336.4,293.6,338.6z"/>
</svg>
