<?xml version="1.0" encoding="utf-8"?>
<!-- Generator: Adobe Illustrator 27.7.0, SVG Export Plug-In . SVG Version: 6.00 Build 0)  -->
<svg version="1.1" id="Layer_1" xmlns="http://www.w3.org/2000/svg" xmlns:xlink="http://www.w3.org/1999/xlink" x="0px" y="0px" viewBox="0 0 1634.8 1345.9" style="enable-background:new 0 0 1634.8 1345.9;" xml:space="preserve">
<style type="text/css">
	.st0{fill:#FFFFFF;}
	.st1{fill:#5E5E6B;}
	.st2{opacity:0.75;fill:#3B3B4C;}
	.st3{opacity:0.54;fill:#3B3B4C;}
	.st4{fill:#B5E1E8;}
	.st5{fill:#3B3B4C;}
	.st6{fill:#F4AD00;}
	.st7{fill:none;stroke:#3B3B4C;stroke-width:9.6615;stroke-miterlimit:10;}
	.st8{fill:#2C2C3F;}
	.st9{fill:#EFAEA6;}
	.st10{fill:#1F1E39;}
	.st11{opacity:9.000000e-02;fill:#1F1F3B;}
	.st12{fill:#0069A8;}
	.st13{fill:#1F1F39;}
	.st14{fill:#4B4B5B;}
	.st15{opacity:0.62;fill:#1F1F39;}
	.st16{fill:#6D3522;}
	.st17{opacity:0.16;fill:#1F1F39;}
	.st18{opacity:0.28;fill:#1F1F39;}
	.st19{opacity:0.9;}
</style>
<path class="st0" d="M1389.5,1086.8c-2.3,30.9,75.6,73.3-10.1,106.5c-66,25.6-648.5-37.3-816.3,22.5c-4.7,1.7-38.9-2.9-39.2-3
	c0,0-26.6-9.4-38.1-23c-68.2-80.7-90-852.6-138.1-975.4c-29.6-75.5-122.1-108.1-152.4-109.6c-82-4.2,77.2-95.4,190.9-95.7
	c113.7-0.3,694.5-64.3,781.2,152.3c49.2,122.7,63.8,675.9,116.2,831.5c7.5,22.3,15.9,36.5,25.3,39.9c52.4,19.1,26.7,57.7,67.5,41.2
	C1394,1066.8,1390.2,1077.5,1389.5,1086.8z"/>
<path class="st1" d="M1386.3,1024.4c141,52.5,44,198.6-18.2,197.9c-70.8-0.9-662.6,31.5-844.1-9.5c8.6,1.9,52.5-0.5,106.6-47.4
	c55.9-48.5,21.5-125.3-27.9-142.3C580.7,1015.5,1377.2,1024.5,1386.3,1024.4z"/>
<rect x="928.2" y="253.8" class="st0" width="69.8" height="51.4"/>
<rect x="662.6" y="247.6" class="st0" width="78.3" height="69.9"/>
<rect x="811.3" y="349.3" class="st0" width="82.6" height="42.9"/>
<rect x="621" y="417.8" class="st0" width="89.3" height="59"/>
<rect x="786.8" y="514.5" class="st0" width="36.2" height="49.5"/>
<rect x="983.3" y="514.5" class="st0" width="40" height="49.5"/>
<rect x="1003.3" y="586.7" class="st0" width="157.5" height="75.9"/>
<rect x="621" y="695.6" class="st0" width="67.3" height="67.3"/>
<g>
	<path class="st2" d="M698.4,494.7l76.6-0.6c2.7,0,5.1,1.6,5.4,3.6l1.6,10.7c0.3,2-1.6,3.7-4.3,3.7l-76.6,0.6
		c-2.7,0-5.1-1.6-5.4-3.6l-1.6-10.7C693.7,496.3,695.7,494.7,698.4,494.7z"/>
	<path class="st2" d="M567.4,495.7l46.8-0.4c1.6,0,3.1,1.4,3.4,3.3l1.7,11.4c0.3,1.8-0.8,3.3-2.4,3.3l-46.8,0.4
		c-1.6,0-3.1-1.4-3.4-3.3L565,499C564.7,497.2,565.8,495.8,567.4,495.7z"/>
	<path class="st2" d="M677.9,498.1l1.7,11.4c0.3,1.8-1.5,3.3-3.9,3.3l-40.7,0.3c-2.4,0-4.6-1.4-4.8-3.2l-1.7-11.4
		c-0.3-1.8,1.5-3.3,3.9-3.3l40.7-0.3C675.5,494.9,677.6,496.3,677.9,498.1z"/>
	<path class="st2" d="M658.6,594.4l76.6-0.6c2.7,0,5.1,1.6,5.4,3.6l1.6,10.7c0.3,2-1.6,3.7-4.3,3.7l-76.6,0.6
		c-2.7,0-5.1-1.6-5.4-3.6l-1.6-10.7C654,596.1,656,594.4,658.6,594.4z"/>
	<path class="st2" d="M638.2,597.8l1.7,11.4c0.3,1.8-1.5,3.3-3.9,3.3l-40.7,0.3c-2.4,0-4.6-1.4-4.8-3.2l-1.7-11.4
		c-0.3-1.8,1.5-3.3,3.9-3.3l40.7-0.3C635.8,594.6,637.9,596,638.2,597.8z"/>
	<path class="st2" d="M606,688.7l63.9-0.5c2.2,0,4.3,1.6,4.6,3.6l1.6,10.7c0.3,2-1.3,3.7-3.5,3.7l-63.9,0.5c-2.2,0-4.3-1.6-4.6-3.6
		l-1.6-10.7C602.2,690.4,603.8,688.7,606,688.7z"/>
	<path class="st2" d="M705.4,687.9l59.1-0.5c2,0,3.9,1.4,4.1,3.3l1.7,11.4c0.3,1.8-1.1,3.3-3.2,3.3l-59.1,0.5c-2,0-3.9-1.4-4.1-3.3
		l-1.7-11.4C702,689.4,703.4,687.9,705.4,687.9z"/>
	<path class="st2" d="M823.5,690.8l1.7,11.4c0.3,1.8-1.2,3.3-3.2,3.3l-33.9,0.3c-2,0-3.9-1.4-4.1-3.3l-1.7-11.4
		c-0.3-1.8,1.2-3.3,3.2-3.3l33.9-0.3C821.3,687.5,823.2,689,823.5,690.8z"/>
	<path class="st2" d="M620.4,782.7l63.9-0.5c2.2,0,4.3,1.6,4.6,3.6l1.6,10.7c0.3,2-1.3,3.7-3.5,3.7l-63.9,0.5
		c-2.2,0-4.3-1.6-4.6-3.6l-1.6-10.7C616.6,784.4,618.2,782.7,620.4,782.7z"/>
	<path class="st2" d="M699.4,782.1l59.1-0.5c2,0,3.9,1.4,4.1,3.3l1.7,11.4c0.3,1.8-1.1,3.3-3.2,3.3L702,800c-2,0-3.9-1.4-4.1-3.3
		l-1.7-11.4C695.9,783.6,697.4,782.1,699.4,782.1z"/>
	<path class="st2" d="M818.2,784.4l1.7,11.4c0.3,1.8-1.1,3.3-3.2,3.3l-33.9,0.3c-2,0-3.9-1.4-4.1-3.3l-1.7-11.4
		c-0.3-1.8,1.1-3.3,3.2-3.3l33.9-0.3C816.1,781.1,818,782.6,818.2,784.4z"/>
	<path class="st2" d="M758.1,884.5L822,884c2.2,0,4.3,1.6,4.6,3.6l1.6,10.7c0.3,2-1.3,3.7-3.5,3.7l-63.9,0.5c-2.2,0-4.3-1.6-4.6-3.6
		l-1.6-10.7C754.3,886.2,755.8,884.5,758.1,884.5z"/>
	<path class="st2" d="M633,885.6l59.1-0.5c2,0,3.9,1.4,4.1,3.3l1.7,11.4c0.3,1.8-1.1,3.3-3.2,3.3l-59.1,0.5c-2,0-3.9-1.4-4.1-3.3
		l-1.7-11.4C629.6,887.1,631,885.6,633,885.6z"/>
	<path class="st2" d="M744.6,887.9l1.7,11.4c0.3,1.8-1.1,3.3-3.2,3.3l-33.9,0.3c-2,0-3.9-1.4-4.1-3.3l-1.7-11.4
		c-0.3-1.8,1.2-3.3,3.2-3.3l33.9-0.3C742.5,884.7,744.4,886.1,744.6,887.9z"/>
	<path class="st2" d="M805.7,495.1l59.1-0.5c2,0,3.9,1.4,4.1,3.3l1.7,11.4c0.3,1.8-1.1,3.3-3.2,3.3l-59.1,0.5c-2,0-3.9-1.4-4.1-3.3
		l-1.7-11.4C802.2,496.6,803.6,495.1,805.7,495.1z"/>
	<path class="st2" d="M917.3,497.5l1.7,11.4c0.3,1.8-1.1,3.3-3.2,3.3l-33.9,0.3c-2,0-3.9-1.4-4.1-3.3l-1.7-11.4
		c-0.3-1.8,1.1-3.3,3.2-3.3l33.9-0.3C915.2,494.2,917,495.6,917.3,497.5z"/>
	<path class="st2" d="M763.1,594.1l39-0.3c1.3,0,2.6,1.4,2.9,3.3l1.7,11.4c0.3,1.8-0.6,3.3-1.9,3.3l-39,0.3c-1.3,0-2.6-1.4-2.9-3.3
		l-1.7-11.4C760.9,595.6,761.8,594.1,763.1,594.1z"/>
	<path class="st2" d="M855.4,596.7l1.7,11.4c0.3,1.8-1.1,3.3-3.2,3.3l-33.9,0.3c-2,0-3.9-1.4-4.1-3.3l-1.7-11.4
		c-0.3-1.8,1.1-3.3,3.2-3.3l33.9-0.3C853.3,593.4,855.1,594.8,855.4,596.7z"/>
	<path class="st2" d="M840.5,686.8l63.9-0.5c2.2,0,4.3,1.6,4.6,3.6l1.6,10.7c0.3,2-1.3,3.7-3.5,3.7l-63.9,0.5
		c-2.2,0-4.3-1.6-4.6-3.6l-1.6-10.7C836.7,688.4,838.3,686.8,840.5,686.8z"/>
	<path class="st2" d="M939.9,685.9l59.1-0.5c2,0,3.9,1.4,4.1,3.3l1.7,11.4c0.3,1.8-1.1,3.3-3.2,3.3l-59.1,0.5c-2,0-3.9-1.4-4.1-3.3
		l-1.7-11.4C936.4,687.4,937.9,685.9,939.9,685.9z"/>
	<path class="st2" d="M844.5,780.9l63.9-0.5c2.2,0,4.3,1.6,4.6,3.6l1.6,10.7c0.3,2-1.3,3.7-3.5,3.7l-63.9,0.5
		c-2.2,0-4.3-1.6-4.6-3.6l-1.6-10.7C840.7,782.5,842.3,780.9,844.5,780.9z"/>
	<path class="st2" d="M923.5,780.2l59.1-0.5c2,0,3.9,1.4,4.1,3.3l1.7,11.4c0.3,1.8-1.1,3.3-3.2,3.3l-59.1,0.5c-2,0-3.9-1.4-4.1-3.3
		l-1.7-11.4C920,781.7,921.5,780.2,923.5,780.2z"/>
	<path class="st2" d="M855.3,883.7l59.1-0.5c2,0,3.9,1.4,4.1,3.3l1.7,11.4c0.3,1.8-1.1,3.3-3.2,3.3l-59.1,0.5c-2,0-3.9-1.4-4.1-3.3
		l-1.7-11.4C851.8,885.2,853.3,883.7,855.3,883.7z"/>
	<path class="st2" d="M966.9,886.1l1.7,11.4c0.3,1.8-1.2,3.3-3.2,3.3l-33.9,0.3c-2,0-3.9-1.4-4.1-3.3l-1.7-11.4
		c-0.3-1.8,1.2-3.3,3.2-3.3l33.9-0.3C964.8,882.8,966.6,884.3,966.9,886.1z"/>
	<path class="st3" d="M1011.4,492.3l76.6-0.6c2.7,0,5.1,1.6,5.4,3.6l1.6,10.7c0.3,2-1.6,3.7-4.3,3.7l-76.6,0.6
		c-2.7,0-5.1-1.6-5.4-3.6l-1.6-10.7C1006.8,493.9,1008.7,492.3,1011.4,492.3z"/>
	<path class="st3" d="M990.9,495.7l1.7,11.4c0.3,1.8-1.5,3.3-3.9,3.3l-40.7,0.3c-2.4,0-4.6-1.4-4.8-3.2l-1.7-11.4
		c-0.3-1.8,1.5-3.3,3.9-3.3l40.7-0.3C988.5,492.5,990.7,493.9,990.9,495.7z"/>
	<path class="st3" d="M880.9,594.4l76.6-0.6c2.7,0,5.1,1.6,5.4,3.6l1.6,10.7c0.3,2-1.6,3.7-4.3,3.7l-76.6,0.6
		c-2.7,0-5.1-1.6-5.4-3.6l-1.6-10.7C876.3,596.1,878.2,594.4,880.9,594.4z"/>
	<path class="st3" d="M1018.4,685.5l59.1-0.5c2,0,3.9,1.4,4.1,3.3l1.7,11.4c0.3,1.8-1.1,3.3-3.2,3.3l-59.1,0.5c-2,0-3.9-1.4-4.1-3.3
		l-1.7-11.4C1015,687,1016.4,685.5,1018.4,685.5z"/>
	<path class="st3" d="M1136.5,688.4l1.7,11.4c0.3,1.8-1.2,3.3-3.2,3.3l-33.9,0.3c-2,0-3.9-1.4-4.1-3.3l-1.7-11.4
		c-0.3-1.8,1.1-3.3,3.2-3.3l33.9-0.3C1134.4,685.1,1136.2,686.6,1136.5,688.4z"/>
	<path class="st3" d="M1012.4,779.7l59.1-0.5c2,0,3.9,1.4,4.1,3.3l1.7,11.4c0.3,1.8-1.1,3.3-3.2,3.3l-59.1,0.5c-2,0-3.9-1.4-4.1-3.3
		l-1.7-11.4C1009,781.2,1010.4,779.7,1012.4,779.7z"/>
	<path class="st3" d="M1131.3,782l1.7,11.4c0.3,1.8-1.2,3.3-3.2,3.3l-33.9,0.3c-2,0-3.9-1.4-4.1-3.3l-1.7-11.4
		c-0.3-1.8,1.1-3.3,3.2-3.3l33.9-0.3C1129.1,778.7,1131,780.2,1131.3,782z"/>
	<path class="st3" d="M1071.1,882.1l63.9-0.5c2.2,0,4.3,1.6,4.6,3.6l1.6,10.7c0.3,2-1.3,3.7-3.5,3.7l-63.9,0.5
		c-2.2,0-4.3-1.6-4.6-3.6l-1.6-10.7C1067.3,883.8,1068.9,882.2,1071.1,882.1z"/>
	<path class="st3" d="M1057.7,885.5l1.7,11.4c0.3,1.8-1.2,3.3-3.2,3.3l-33.9,0.3c-2,0-3.9-1.4-4.1-3.3l-1.7-11.4
		c-0.3-1.8,1.1-3.3,3.2-3.3l33.9-0.3C1055.6,882.3,1057.4,883.7,1057.7,885.5z"/>
	<path class="st3" d="M985.3,594.1l39-0.3c1.3,0,2.6,1.4,2.9,3.3l1.7,11.4c0.3,1.8-0.6,3.3-1.9,3.3l-39,0.3c-1.3,0-2.6-1.4-2.9-3.3
		l-1.7-11.4C983.1,595.6,984,594.1,985.3,594.1z"/>
	<path class="st3" d="M1077.6,596.7l1.7,11.4c0.3,1.8-1.1,3.3-3.2,3.3l-33.9,0.3c-2,0-3.9-1.4-4.1-3.3l-1.7-11.4
		c-0.3-1.8,1.1-3.3,3.2-3.3l33.9-0.3C1075.5,593.4,1077.3,594.8,1077.6,596.7z"/>
	<path class="st3" d="M1148,778.5l63.9-0.5c2.2,0,4.3,1.6,4.6,3.6l1.6,10.7c0.3,2-1.3,3.7-3.5,3.7l-63.9,0.5c-2.2,0-4.3-1.6-4.6-3.6
		l-1.6-10.7C1144.2,780.2,1145.7,778.5,1148,778.5z"/>
	<path class="st3" d="M1156.3,881.3l59.1-0.5c2,0,3.9,1.4,4.1,3.3l1.7,11.4c0.3,1.8-1.1,3.3-3.2,3.3l-59.1,0.5c-2,0-3.9-1.4-4.1-3.3
		l-1.7-11.4C1152.9,882.8,1154.3,881.4,1156.3,881.3z"/>
	<path class="st3" d="M1132.8,595.3l1.7,11.4c0.3,1.8-1.2,3.3-3.2,3.3l-33.9,0.3c-2,0-3.9-1.4-4.1-3.3l-1.7-11.4
		c-0.3-1.8,1.2-3.3,3.2-3.3l33.9-0.3C1130.7,592,1132.5,593.5,1132.8,595.3z"/>
	<g>
		<path class="st4" d="M484.4,477.9c-2.4,16.6,0,53.3,9.5,53.3c9.5,0,55.7,3.6,54.5-3.6c-1.2-7.1-3.6-49.7-10.7-50.9
			C530.6,475.6,484.4,477.9,484.4,477.9z"/>
		<g>
			<path class="st5" d="M505.3,500.7c1.2,2.7,3,5.6,4.7,7.4c0.4,0.4,0.8,0.7,0.9,0.8c0,0,0,0-0.3,0c-0.3,0-0.8-0.1-1.4,0.1
				c-0.5,0.2-0.9,0.5-1,0.6c0,0,0,0,0,0.1l0.1-0.1l0.2-0.2l0.4-0.5l1.7-2c4.7-5.4,9.4-10.8,14.1-16.1c4.8-5.4,9.6-10.7,14.5-15.9
				c2.5-2.6,5-5.2,7.7-7.7c1.3-1.3,2.7-2.5,4.1-3.7c0.7-0.6,1.5-1.2,2.3-1.8c0.4-0.3,0.8-0.6,1.4-0.9l0.4-0.2
				c0.1-0.1,0.2-0.1,0.5-0.2c0.4-0.2,0.8-0.3,1.2-0.4c1-0.3,2.1,0.3,2.4,1.3c0.1,0.3,0.1,0.7,0,1l-0.9,4c0,0,0,0.1,0,0.1
				c0,0-0.1,0-0.1,0.1l-0.2,0.1c-0.2,0.1-0.5,0.4-0.8,0.6c-0.6,0.5-1.2,1-1.8,1.6c-1.2,1.1-2.4,2.4-3.6,3.7
				c-2.4,2.5-4.7,5.2-6.9,7.9c-4.5,5.4-9,10.9-13.4,16.5c-4.4,5.6-8.7,11.2-13.1,16.9l-1.7,2.2l-0.5,0.6l-0.3,0.3l-0.1,0.2l-0.3,0.3
				c-0.7,0.8-1.8,1.6-3.2,2.1c-1.4,0.5-2.8,0.5-4,0.3c-1.1-0.2-2-0.6-2.8-1c-1.5-0.8-2.5-1.6-3.4-2.4c-1.8-1.6-3.1-3.2-4.3-4.9
				c-1.2-1.7-2.3-3.3-3.2-5.2l0,0c-1.5-2.8-0.5-6.4,2.4-7.9c2.8-1.5,6.4-0.5,7.9,2.4C505.2,500.5,505.3,500.6,505.3,500.7z"/>
		</g>
	</g>
	<g>
		<path class="st4" d="M503,577.2c-2.4,16.6,0,53.3,9.5,53.3c9.5,0,55.7,3.6,54.5-3.6c-1.2-7.1-3.6-49.7-10.7-50.9
			C549.2,574.8,503,577.2,503,577.2z"/>
		<g>
			<path class="st5" d="M523.9,600c1.2,2.7,3,5.6,4.7,7.4c0.4,0.4,0.8,0.7,0.9,0.8c0,0,0,0-0.3,0c-0.3,0-0.8-0.1-1.4,0.1
				c-0.5,0.2-0.9,0.5-1,0.6c0,0,0,0,0,0.1l0.1-0.1l0.2-0.2l0.4-0.5l1.7-2c4.7-5.4,9.4-10.8,14.1-16.1c4.8-5.4,9.6-10.7,14.5-15.9
				c2.5-2.6,5-5.2,7.7-7.7c1.3-1.3,2.7-2.5,4.1-3.7c0.7-0.6,1.5-1.2,2.3-1.8c0.4-0.3,0.8-0.6,1.4-0.9l0.4-0.2
				c0.1-0.1,0.2-0.1,0.5-0.2c0.4-0.2,0.8-0.3,1.2-0.4c1-0.3,2.1,0.3,2.4,1.3c0.1,0.3,0.1,0.7,0,1l-0.9,4c0,0,0,0.1,0,0.1
				c0,0-0.1,0-0.1,0.1l-0.2,0.1c-0.2,0.1-0.5,0.4-0.8,0.6c-0.6,0.5-1.2,1-1.8,1.6c-1.2,1.1-2.4,2.4-3.6,3.7
				c-2.4,2.5-4.7,5.2-6.9,7.9c-4.5,5.4-9,10.9-13.4,16.5c-4.4,5.6-8.7,11.2-13.1,16.9l-1.7,2.2l-0.5,0.6l-0.3,0.3l-0.1,0.2l-0.3,0.3
				c-0.7,0.8-1.8,1.6-3.2,2.1c-1.4,0.5-2.8,0.5-4,0.3c-1.1-0.2-2-0.6-2.8-1c-1.5-0.8-2.5-1.6-3.4-2.4c-1.8-1.6-3.1-3.2-4.3-4.9
				c-1.2-1.7-2.3-3.3-3.2-5.2l0,0c-1.5-2.8-0.5-6.4,2.4-7.9c2.8-1.5,6.4-0.5,7.9,2.4C523.8,599.7,523.9,599.8,523.9,600z"/>
		</g>
	</g>
	<g>
		<path class="st4" d="M519.6,669c-2.4,16.6,0,53.3,9.5,53.3c9.5,0,55.7,3.6,54.5-3.6c-1.2-7.1-3.6-49.7-10.7-50.9
			C565.7,666.7,519.6,669,519.6,669z"/>
		<g>
			<path class="st5" d="M540.5,691.8c1.2,2.7,3,5.6,4.7,7.4c0.4,0.4,0.8,0.7,0.9,0.8c0,0,0,0-0.3,0c-0.3,0-0.8-0.1-1.4,0.1
				c-0.5,0.2-0.9,0.5-1,0.6c0,0,0,0,0,0.1l0.1-0.1l0.2-0.2l0.4-0.5l1.7-2c4.7-5.4,9.4-10.8,14.1-16.1c4.8-5.4,9.6-10.7,14.5-15.9
				c2.5-2.6,5-5.2,7.7-7.7c1.3-1.3,2.7-2.5,4.1-3.7c0.7-0.6,1.5-1.2,2.3-1.8c0.4-0.3,0.8-0.6,1.4-0.9l0.4-0.2
				c0.1-0.1,0.2-0.1,0.5-0.2c0.4-0.2,0.8-0.3,1.2-0.4c1-0.3,2.1,0.3,2.4,1.3c0.1,0.3,0.1,0.7,0,1l-0.9,4c0,0,0,0.1,0,0.1
				c0,0-0.1,0-0.1,0.1l-0.2,0.1c-0.2,0.1-0.5,0.4-0.8,0.6c-0.6,0.5-1.2,1-1.8,1.6c-1.2,1.1-2.4,2.4-3.6,3.7
				c-2.4,2.5-4.7,5.2-6.9,7.9c-4.5,5.4-9,10.9-13.4,16.5c-4.4,5.6-8.7,11.2-13.1,16.9l-1.7,2.2l-0.5,0.6l-0.3,0.3l-0.1,0.2l-0.3,0.3
				c-0.7,0.8-1.8,1.6-3.2,2.1c-1.4,0.5-2.8,0.5-4,0.3c-1.1-0.2-2-0.6-2.8-1c-1.5-0.8-2.5-1.6-3.4-2.4c-1.8-1.6-3.1-3.2-4.3-4.9
				c-1.2-1.7-2.3-3.3-3.2-5.2l0,0c-1.5-2.8-0.5-6.4,2.4-7.9c2.8-1.5,6.4-0.5,7.9,2.4C540.4,691.6,540.4,691.7,540.5,691.8z"/>
		</g>
	</g>
	<g>
		<path class="st4" d="M535.1,766.8c-2.4,16.6,0,53.3,9.5,53.3c9.5,0,55.7,3.6,54.5-3.6c-1.2-7.1-3.6-49.7-10.7-50.9
			C581.3,764.5,535.1,766.8,535.1,766.8z"/>
		<g>
			<path class="st5" d="M556.1,789.6c1.2,2.7,3,5.6,4.7,7.4c0.4,0.4,0.8,0.7,0.9,0.8c0,0,0,0-0.3,0c-0.3,0-0.8-0.1-1.4,0.1
				c-0.5,0.2-0.9,0.5-1,0.6c0,0,0,0,0,0.1l0.1-0.1l0.2-0.2l0.4-0.5l1.7-2c4.7-5.4,9.4-10.8,14.1-16.1c4.8-5.4,9.6-10.7,14.5-15.9
				c2.5-2.6,5-5.2,7.7-7.7c1.3-1.3,2.7-2.5,4.1-3.7c0.7-0.6,1.5-1.2,2.3-1.8c0.4-0.3,0.8-0.6,1.4-0.9l0.4-0.2
				c0.1-0.1,0.2-0.1,0.5-0.2c0.4-0.2,0.8-0.3,1.2-0.4c1-0.3,2.1,0.3,2.4,1.3c0.1,0.3,0.1,0.7,0,1l-0.9,4c0,0,0,0.1,0,0.1
				c0,0-0.1,0-0.1,0.1l-0.2,0.1c-0.2,0.1-0.5,0.4-0.8,0.6c-0.6,0.5-1.2,1-1.8,1.6c-1.2,1.1-2.4,2.4-3.6,3.7
				c-2.4,2.5-4.7,5.2-6.9,7.9c-4.5,5.4-9,10.9-13.4,16.5c-4.4,5.6-8.7,11.2-13.1,16.9l-1.7,2.2l-0.5,0.6l-0.3,0.3l-0.1,0.2l-0.3,0.3
				c-0.7,0.8-1.8,1.6-3.2,2.1c-1.4,0.5-2.8,0.5-4,0.3c-1.1-0.2-2-0.6-2.8-1c-1.5-0.8-2.5-1.6-3.4-2.4c-1.8-1.6-3.1-3.2-4.3-4.9
				c-1.2-1.7-2.3-3.3-3.2-5.2l0,0c-1.5-2.8-0.5-6.4,2.4-7.9c2.8-1.5,6.4-0.5,7.9,2.4C555.9,789.4,556,789.5,556.1,789.6z"/>
		</g>
	</g>
	<g>
		<path class="st4" d="M550.3,870c-2.4,16.6,0,53.3,9.5,53.3c9.5,0,55.7,3.6,54.5-3.6c-1.2-7.1-3.6-49.7-10.7-50.9
			C596.5,867.6,550.3,870,550.3,870z"/>
		<g>
			<path class="st5" d="M571.2,892.7c1.2,2.7,3,5.6,4.7,7.4c0.4,0.4,0.8,0.7,0.9,0.8c0,0,0,0-0.3,0c-0.3,0-0.8-0.1-1.4,0.1
				c-0.5,0.2-0.9,0.5-1,0.6c0,0,0,0,0,0.1l0.1-0.1l0.2-0.2l0.4-0.5l1.7-2c4.7-5.4,9.4-10.8,14.1-16.1c4.8-5.4,9.6-10.7,14.5-15.9
				c2.5-2.6,5-5.2,7.7-7.7c1.3-1.3,2.7-2.5,4.1-3.7c0.7-0.6,1.5-1.2,2.3-1.8c0.4-0.3,0.8-0.6,1.4-0.9l0.4-0.2
				c0.1-0.1,0.2-0.1,0.5-0.2c0.4-0.2,0.8-0.3,1.2-0.4c1-0.3,2.1,0.3,2.4,1.3c0.1,0.3,0.1,0.7,0,1l-0.9,4c0,0,0,0.1,0,0.1
				c0,0-0.1,0-0.1,0.1l-0.2,0.1c-0.2,0.1-0.5,0.4-0.8,0.6c-0.6,0.5-1.2,1-1.8,1.6c-1.2,1.1-2.4,2.4-3.6,3.7
				c-2.4,2.5-4.7,5.2-6.9,7.9c-4.5,5.4-9,10.9-13.4,16.5c-4.4,5.6-8.7,11.2-13.1,16.9l-1.7,2.2l-0.5,0.6l-0.3,0.3l-0.1,0.2l-0.3,0.3
				c-0.7,0.8-1.8,1.6-3.2,2.1c-1.4,0.5-2.8,0.5-4,0.3c-1.1-0.2-2-0.6-2.8-1c-1.5-0.8-2.5-1.6-3.4-2.4c-1.8-1.6-3.1-3.2-4.3-4.9
				c-1.2-1.7-2.3-3.3-3.2-5.2l0,0c-1.5-2.8-0.5-6.4,2.4-7.9c2.8-1.5,6.4-0.5,7.9,2.4C571.1,892.5,571.1,892.6,571.2,892.7z"/>
		</g>
	</g>
</g>
<g>
	<path class="st1" d="M1615.4,1244.9c-9.5,8.3-22.1,13.4-36.4,13.4h-477.6c-14,0-26.3-4.9-35.7-12.9c-20.3-17.1-27.5-48-11-73.3
		l238.1-381.9c3.4-5.2,7.4-9.6,11.9-13.2c25.4-20.4,65.1-15,82.9,15.4l16.9,27l222.5,354.9
		C1641.6,1199.2,1634.5,1228.3,1615.4,1244.9z"/>
	<path class="st6" d="M1604.3,1240.5c-9.5,8.3-22.1,13.4-36.4,13.4h-477.6c-14,0-26.3-4.9-35.7-12.9c-20.3-17.1-27.5-48-11-73.3
		l238.1-381.9c3.4-5.2,7.4-9.6,11.9-13.2c25.4-20.4,65.1-15,82.9,15.4l16.9,27L1616,1170C1630.6,1194.8,1623.4,1223.9,1604.3,1240.5
		z"/>
	<path class="st7" d="M1365.9,858.8l185.7,296.2c16.9,28.8-3.9,65.1-37.3,65.1h-370.4c-34.3,0-55-38.1-36.2-66.8l184.7-296.2
		C1309.9,830.1,1349.6,831.1,1365.9,858.8z"/>
	<g>
		<path class="st8" d="M1299.8,954.8c0,32.1,1.7,73.5,3.9,106c-1.9,37.2,17.3,48.6,45.1,34.6c5.9-37,7.6-85.2,7.8-122.1
			C1357.6,939.2,1318.6,943,1299.8,954.8z M1299.1,1149.7c-2.2,43.4,62.2,43.4,60,0C1361.3,1106.3,1296.9,1106.3,1299.1,1149.7z"/>
	</g>
</g>
<g>
	<path class="st0" d="M123.3,1245.8l-50.3,5.1l7.2,71.5c1.3,12.7,12.6,21.9,25.2,20.6l4.4-0.4c12.7-1.3,21.9-12.6,20.6-25.2
		L123.3,1245.8z"/>
	<path class="st6" d="M76.6,1285.7l5-0.5l12.3-1.3l21.6-2.2l1-0.1l10.3-1L50.3,522.1l-0.6-1.3l-20.9-49.4c-3.6-8.5-16-7.2-17.8,1.8
		L0,527.2l0.2,2.3L76.6,1285.7z"/>
	<path class="st9" d="M50.3,522.1l-26-68.1c-2.4-6.2-11.4-5.3-12.5,1.3L0,527.2l0.1,0.9c8.5,1.7,8.8,6.6,12.9,5.8
		c5.1-1,6.1-12.7,11.8-13.2c5.7-0.6,3.7,5.7,9.3,5.1c5.6-0.6,5.3-4.1,8.7-4.4C46.2,520.9,42.4,522.9,50.3,522.1z"/>
	<path class="st10" d="M29.9,468.8l-9.3-24.3c-1.4-3.6-6.5-3-7.2,0.7l-4.2,25.6c-0.1,0.4,0.2,0.7,0.5,0.8c6,2,6.9-3.2,10.9-3.2
		c1.9,0,5.2,0.6,8.4,1.3C29.6,469.9,30.1,469.3,29.9,468.8z"/>
	<path class="st11" d="M115.6,1281.8l1-0.1l10.3-1L50.3,522.1l-7.5-0.8c0.8,83.6,36.3,390.5,46.1,487.3
		C96.7,1085.2,105.3,1196.8,115.6,1281.8z"/>
</g>
<path class="st9" d="M62.2,733.4c-16.8-9.6-19.5-28.4-26.8-28.7c-7.2-0.3,0.6,11-2.6,9.8c-3.1-1.2-9.8-8-16.7-12.5
	c-4.7-3.1-14.4,22.6,2.4,32.7c5.5,3.3,28.8,13.8,35.4,16.6C60.7,754.1,62.2,733.4,62.2,733.4z"/>
<path class="st12" d="M209,724.6c-26.2,27-64.8,41.3-72.7,41.5c-14.3,0.3-57.9-32.3-72.3-44.2c-6.3-5.2-23.2,29.3-16.4,35.1
	c6.9,5.8,75.2,53.8,94.5,53.8c43.8,0,97.6-60.7,99.9-72.4C244.3,726.7,209,724.6,209,724.6z"/>
<g>
	<path class="st9" d="M443.7,717.9c1-6,3.5-15.9,6.2-23.4c2.5-7.3,4.9-14.7,4.1-21.9c-1-9.6,3.5-36.1,5.6-36.8
		c7.6-2.6,1.1,22.7,3.7,26.9c3.3,5.4,16.7-1.4,16.2,10.9c-0.2,5.5-6.3,7.8-9.1,20.9c-1.6,7.9-2.4,26.4-4.3,29.2
		C464.2,726.6,443.7,717.9,443.7,717.9z"/>
	<path class="st9" d="M397,1313.2c0.5-11.6-2.1-40.8-2.1-40.8l-32.4,0.6l4.4,43.8l22.2,12.8L397,1313.2z"/>
	<path class="st13" d="M399.3,1308.2c3.4-0.8,2,2.3,3.3,7.1c3,11.1,45.7,10.8,52.1,11.7c3.3,0.5,8.9,16.7-7.6,16.9
		c-14.3,0.1-60,0.8-75.7,0.8c-3.3,0-6.2-2.1-7-5c-3-10.7-2.5-27.4,1.9-27.8C372.9,1309.8,385.2,1311.6,399.3,1308.2z"/>
	<g>
		<path class="st9" d="M209.2,1299.8c4.7-10.7,12.8-39,12.8-39l-30.6-10l-11.8,42.6l16.2,19.3L209.2,1299.8z"/>
		<path class="st13" d="M213.1,1295.8c3.5,0.3,1.1,2.8,0.6,7.8c-1.2,11.4,39,25,44.7,28c3,1.5,2.3,18.6-13.3,13.4
			c-13.5-4.5-56.7-18.8-71.4-23.9c-3.1-1.1-5-3.9-4.7-7c1.1-11,7.6-26.5,11.8-25.5C187.8,1288.7,198.6,1294.4,213.1,1295.8z"/>
	</g>
	<path class="st14" d="M318.8,896c18.8,48.6,49.9,189.2,53.8,214.6c3.9,25.4,28.6,177.9,28.6,182.5c0,4.6-43.1,15.3-48.5,7.9
		c-5.4-7.5-15-133.5-30.9-169.4c-15.9-35.9-62.3-146.1-62.3-146.1c6.2,55.3,20,143.6,11.7,161.7c-15.5,40.4-49.4,139.3-49.4,139.3
		c-13,6.8-48-9-44.3-10.1c10.3-28.6,35.6-110.8,38.9-138.4c3.3-27.6-34.7-249.7-34.7-249.7l110.3-6.8L318.8,896z"/>
	<path class="st15" d="M259.6,985.6c1.2,15.9,4.3,32.6,6.2,51L245.1,953C245.1,953,249.1,967.6,259.6,985.6z"/>
	<g>
		<path class="st9" d="M263,638c9.1,16.9,13.7,19.7,14.5,21.8c-2.8,3.1-3.9-1.4-0.2,7.7c5.3,13.2,8.1,24-11.1,18.2
			c3.8,9.7,5.2,13.2,5.2,13.2l1.4,20.2l-26.8,4.6c1-18.2-26.6-65.8-19.6-79.1C233.3,631.2,260.3,633,263,638z"/>
		<path class="st16" d="M252.3,672.1c-8.2-2.5-6.6-15,2.1-10.5c6-2.5,5.4-3,3.1-8.3c-2.3-5.3,2.8-4.8,5.9-10.2
			c3.1-5.4,7.5-9.5,1.2-14.1c0,0,1.2-4.6-1.5-7.1s-11-5.9-14.7-0.5c-3.7,5.4-1.4,9.1-10.1,5.2c-8.7-3.9-16.4-1.1-16,8.9
			c0.5,11.5-6.1,4.1-6.7,15.4c-1,20.3,10.5,15.6,13,26.1c2.5,10.5,9.9,19.7,17.4,16.5C253.6,690.3,254.4,677.4,252.3,672.1z"/>
		<path class="st17" d="M266.1,685.6c-6.1-3.5-8.2-2.1-9-0.5c-7.6,14.2,4.4,12.5,10.7,18.2c6.3,5.7,2.3-7.2,2.3-7.2L266.1,685.6z"/>
	</g>
	<path class="st12" d="M233.9,705c6.9-2.7,43.2-7.3,60,2.1c16.9,9.4,28.7,11.5,45.8,28.4c14.7,14.4,39.1,41,60,46.1
		c18.5,4.5,43.8-92.1,43.8-92.1c5.7-0.4,31.1,12.2,33,16.2c-2.5,10.1-29.5,134.3-75.8,119.5c-31.7-10.1-84.6-57.4-87.5-44.6
		c-0.3,31.8-9.1,49.6,5.5,115.5c-37.6,32.8-138.4,22.4-141.1,2.3c-2.7-20.1,10.5-137.2,15.8-151.5
		C200.4,728.2,226.9,707.7,233.9,705z"/>
	<path class="st18" d="M313.3,780.5c-0.2,27.9-8.5,51.6,2.8,102.4c-1.4,0-4.3-7.7-6.4-11c-8.3-13.3-18.1-75.7-15.4-80.9
		c2.6-5.1,5.8-7.6,20.4-13.1C313.9,778.3,313.5,779.8,313.3,780.5z"/>
</g>
<g class="st19">
	<path class="st2" d="M635.7,273.6l103.6-0.9c3.6,0,6.9,2.2,7.3,4.9l2.1,14.4c0.4,2.7-2.2,5-5.9,5l-103.6,0.9
		c-3.6,0-6.9-2.2-7.3-4.9l-2.1-14.4C629.4,275.8,632.1,273.6,635.7,273.6z"/>
	<path class="st2" d="M458.5,275l63.3-0.5c2.2,0,4.2,2,4.6,4.4l2.3,15.4c0.4,2.5-1.1,4.5-3.3,4.5l-63.3,0.5c-2.2,0-4.2-2-4.6-4.4
		l-2.3-15.4C454.9,277.1,456.3,275.1,458.5,275z"/>
	<path class="st2" d="M608,278.2l2.3,15.4c0.4,2.5-2,4.5-5.3,4.5l-55,0.5c-3.3,0-6.2-1.9-6.6-4.4l-2.3-15.4c-0.4-2.5,2-4.5,5.3-4.5
		l55-0.5C604.7,273.8,607.6,275.8,608,278.2z"/>
	<path class="st2" d="M563.9,340.1l103.6-0.9c3.6,0,6.9,2.2,7.3,4.9l2.1,14.4c0.4,2.7-2.2,5-5.9,5l-103.6,0.9
		c-3.6,0-6.9-2.2-7.3-4.9l-2.1-14.4C557.7,342.4,560.3,340.1,563.9,340.1z"/>
	<path class="st2" d="M536.2,344.8l2.3,15.4c0.4,2.5-2,4.5-5.3,4.5l-55,0.5c-3.3,0-6.2-1.9-6.6-4.4l-2.3-15.4
		c-0.4-2.5,2-4.5,5.3-4.5l55-0.5C533,340.4,535.9,342.3,536.2,344.8z"/>
	<path class="st2" d="M484.8,398.1l86.5-0.7c3,0,5.8,2.2,6.2,4.9l2.1,14.4c0.4,2.7-1.7,5-4.8,5l-86.5,0.7c-3,0-5.8-2.2-6.2-4.9
		l-2.1-14.4C479.7,400.4,481.8,398.2,484.8,398.1z"/>
	<path class="st2" d="M619.3,397l80-0.7c2.7,0,5.2,1.9,5.6,4.4l2.3,15.4c0.4,2.5-1.6,4.5-4.3,4.5l-80,0.7c-2.7,0-5.2-1.9-5.6-4.4
		l-2.3-15.4C614.6,399,616.6,397,619.3,397z"/>
	<path class="st2" d="M779.1,400.9l2.3,15.4c0.4,2.5-1.6,4.5-4.3,4.5l-45.9,0.4c-2.7,0-5.2-1.9-5.6-4.4l-2.3-15.4
		c-0.4-2.5,1.6-4.5,4.3-4.5l45.9-0.4C776.2,396.5,778.7,398.5,779.1,400.9z"/>
	<path class="st2" d="M780.9,274.2l80-0.7c2.7,0,5.2,1.9,5.6,4.4l2.3,15.4c0.4,2.5-1.6,4.5-4.3,4.5l-80,0.7c-2.7,0-5.2-1.9-5.6-4.4
		l-2.3-15.4C776.3,276.2,778.2,274.2,780.9,274.2z"/>
	<path class="st2" d="M932,277.4l2.3,15.4c0.4,2.5-1.6,4.5-4.3,4.5l-45.9,0.4c-2.7,0-5.2-1.9-5.6-4.4l-2.3-15.4
		c-0.4-2.5,1.6-4.5,4.3-4.5l45.9-0.4C929.1,272.9,931.6,274.9,932,277.4z"/>
	<path class="st2" d="M705.3,339.8l52.8-0.4c1.8,0,3.5,2,3.9,4.4l2.3,15.4c0.4,2.5-0.8,4.5-2.6,4.5l-52.8,0.4c-1.8,0-3.5-2-3.9-4.4
		l-2.3-15.4C702.4,341.8,703.5,339.8,705.3,339.8z"/>
	<path class="st2" d="M830.2,343.2l2.3,15.4c0.4,2.5-1.6,4.5-4.3,4.5l-45.9,0.4c-2.7,0-5.2-1.9-5.6-4.4l-2.3-15.4
		c-0.4-2.5,1.6-4.5,4.3-4.5l45.9-0.4C827.3,338.8,829.8,340.8,830.2,343.2z"/>
	<path class="st2" d="M802.2,395.5l86.5-0.7c3,0,5.8,2.2,6.2,4.9l2.1,14.4c0.4,2.7-1.7,5-4.8,5l-86.5,0.7c-3,0-5.8-2.2-6.2-4.9
		l-2.1-14.4C797,397.8,799.2,395.5,802.2,395.5z"/>
	<path class="st2" d="M936.6,394.4l80-0.7c2.7,0,5.2,1.9,5.6,4.4l2.3,15.4c0.4,2.5-1.6,4.5-4.3,4.5l-80,0.7c-2.7,0-5.2-1.9-5.6-4.4
		l-2.3-15.4C932,396.4,933.9,394.4,936.6,394.4z"/>
</g>
</svg>
