<?xml version="1.0" encoding="utf-8"?>
<!-- Generator: Adobe Illustrator 27.7.0, SVG Export Plug-In . SVG Version: 6.00 Build 0)  -->
<svg version="1.1" id="Layer_1" xmlns="http://www.w3.org/2000/svg" xmlns:xlink="http://www.w3.org/1999/xlink" x="0px" y="0px" viewBox="0 0 1821.8 1386.9" style="enable-background:new 0 0 1821.8 1386.9;" xml:space="preserve">
<style type="text/css">
	.st0{fill:url(#SVGID_1_);}
	.st1{fill:#234882;}
	.st2{opacity:0.18;fill:#1F1F3B;}
	.st3{fill:#EFAEA6;}
	.st4{opacity:0.14;fill:#1F1F3B;}
	.st5{fill:#FFFFFF;}
	.st6{fill:#1F1F3B;}
	.st7{fill:#545460;}
	.st8{opacity:0.46;fill:#1F1F3B;}
	.st9{opacity:0.54;fill:#1F1F3B;}
	.st10{opacity:0.35;fill:#1F1F3B;}
	.st11{fill:#0069A8;}
	.st12{opacity:0.48;fill:#1F1F39;}
	.st13{opacity:0.18;fill:#1F1F39;}
	.st14{fill:#3B3B4C;}
	.st15{opacity:0.32;fill:#0D0D1E;}
	.st16{opacity:0.35;fill:#0D0D1E;}
	.st17{opacity:2.000000e-02;fill:#F4C83D;}
	.st18{opacity:0.19;fill:#D39333;}
	.st19{fill:#1991BF;}
	.st20{opacity:5.000000e-02;fill:#FFFFFF;}
	.st21{opacity:0.24;fill:#FFFFFF;}
	.st22{fill:#F4AD00;}
	.st23{fill:#1F1F39;}
	.st24{fill:none;stroke:#FFFFFF;stroke-width:8;stroke-linecap:round;stroke-linejoin:round;stroke-miterlimit:10;}
	.st25{fill:#F5B1B4;}
	.st26{fill:#1F1E39;}
	.st27{opacity:0;fill:#1F1F39;}
	.st28{fill:#0267A5;}
	.st29{opacity:0.28;fill:#1F1F39;}
	.st30{opacity:0.16;fill:#1F1F39;}
	.st31{opacity:0.23;fill:#32323F;}
	.st32{fill:#A1DFE2;}
	.st33{opacity:0.11;fill:#F4F3F2;}
</style>
<g>
	<linearGradient id="SVGID_1_" gradientUnits="userSpaceOnUse" x1="591.832" y1="352.2364" x2="1647.051" y2="871.2238">
		<stop offset="0.1554" style="stop-color:#76B9DC"/>
		<stop offset="0.4529" style="stop-color:#018DC8"/>
		<stop offset="1" style="stop-color:#234882"/>
	</linearGradient>
	<path class="st0" d="M1594.3,580.9c0,98.8-26.7,191.4-73.2,270.9c-79,135.1-215.2,232.6-375.3,259.2c-5.3,0.9-10.7,1.7-16.1,2.4
		c-1.7,0.2-3.5,0.5-5.2,0.7c-2.5,0.3-4.9,0.6-7.4,0.9c-3,0.3-5.9,0.6-8.9,0.9c-9.8,0.9-19.7,1.6-29.7,2c-7.2,0.3-14.5,0.4-21.8,0.4
		c-296.8,0-537.5-240.6-537.5-537.5c0-11.1,0.3-22.1,1-33v0c1.9-31.7,6.6-62.6,13.8-92.6v0c1.8-7.5,3.7-14.9,5.8-22.2
		c4.9-17.3,10.7-34.2,17.3-50.7c1.2-3,2.4-6,3.7-9c2.5-6,5.1-11.8,7.8-17.7c4-8.8,8.3-17.4,12.8-25.9c9-17,18.9-33.4,29.5-49.3
		c0,0,0,0,0,0c1.8-2.6,3.6-5.3,5.4-7.9c0-0.1,0.1-0.1,0.1-0.2c4.9-7,10-13.9,15.3-20.7c1.1-1.4,2.2-2.8,3.3-4.2
		c13.2-16.8,27.5-32.7,42.6-47.8c7.9-7.8,16-15.4,24.4-22.8c0,0,0,0,0.1,0c22.4-19.7,46.4-37.5,71.8-53.3c1.4-0.9,2.7-1.7,4.1-2.5
		c6.4-3.9,12.8-7.6,19.4-11.2c6.6-3.6,13.3-7.2,20-10.5c72.1-35.9,153.4-56.1,239.3-56.1c29.5,0,58.5,2.4,86.8,7
		c24.6,4,48.7,9.7,72.1,16.9c13.8,4.3,27.4,9.1,40.7,14.4c9.6,3.8,19,7.9,28.2,12.3c0.8,0.4,1.6,0.7,2.4,1.1c3.2,1.5,6.3,3,9.4,4.6
		c2,1,3.9,2,5.8,3c15.4,7.9,30.4,16.5,44.8,25.9c10.7,6.9,21.2,14.1,31.3,21.7c0.4,0.3,0.7,0.5,1.1,0.8c21.2,16,41.2,33.5,59.8,52.3
		c25.9,26.3,49.2,55.2,69.3,86.3c5.6,8.7,11,17.5,16.1,26.5c40.9,72.2,65.7,154.8,69.2,242.8
		C1594.2,566.3,1594.3,573.6,1594.3,580.9z"/>
	<g>
		<path class="st1" d="M1195.3,935c6.9,32,8,53.7-1.1,62.9c-9.2,9.2-48,42.3-42.3,59.4c5.7,17.2,3.4,41.2-3.4,50.3
			c-0.8,1-1.7,2.2-2.6,3.5c-5.3,0.9-10.7,1.7-16.1,2.4c-1.7,0.2-3.5,0.5-5.2,0.7c-2.5,0.3-4.9,0.6-7.4,0.9c-2.9,0.3-5.9,0.6-8.9,0.9
			c-9.8,0.9-19.7,1.6-29.7,2c0.1-5.3,0.5-11,0.7-16.7c0.5-17.9-41.7-60-45.2-88.6c-3.4-28.6-1.1-93.7-33.1-104
			c-32-10.3-56.9-20.1-64-33.2c-9.7-17.7-51.4-11.4-63.4-54.9c-16.5-59.6,18.9-66.3,7.4-77.7c-11.4-11.4,1.2-30.9-20.6-30.9
			c-21.7,0-51.4,3.4-64-13.7c-12.6-17.2-46.9-30.9-65.2-28.6c-18.3,2.3-56,11.4-88-19.4c-32-30.9-74.3-89.2-74.3-74.3
			c0,14.9,53.7,76.6,32,68.6c-21.7-8-48-89.2-76.6-93.8c-1.6-0.3-2.9-1.3-3.9-3v0c1.9-31.7,6.6-62.6,13.8-92.5v0
			c1.8-7.5,3.7-14.9,5.8-22.2c4.9-17.3,10.7-34.2,17.3-50.7c1.2-3,2.4-6,3.7-9c2.5-6,5.1-11.8,7.8-17.7c4.1-8.8,8.3-17.4,12.8-25.9
			c9-17,18.9-33.4,29.6-49.3c0,0,0,0,0,0c1.8-2.6,3.6-5.3,5.4-7.9c0-0.1,0.1-0.1,0.1-0.2c4.9-7,10-13.9,15.3-20.7
			c1.1-1.4,2.2-2.8,3.3-4.2c13.2-16.8,27.5-32.7,42.6-47.8c7.9-7.9,16-15.4,24.4-22.8l0.1,0l8.4-5.7c26.3,1.1,56-13.7,72-13.7
			c16,0,0,5.7,13.7,19.4c13.7,13.7,21.7,12.6,26.3,0c4.6-12.6,16-62.9,28.6-41.2c12.6,21.7,3.4,51.5,18.3,32
			c14.8-19.4,60.6-70.9,91.4-54.9c30.9,16,48,27.4,41.2,45.7c-6.9,18.3-6.9,38.8-32,35.4c-25.2-3.4-38.9,9.2-43.4-5.7
			c-4.6-14.9-32,2.3-57.1,22.9c-25.2,20.6-73.2,65.2-42.3,70.9c30.9,5.7,50.3,16,62.9-14.9c12.6-30.9,18.3-57.2,40-51.4
			c21.7,5.7,5.7,14.9,32,9.1c26.3-5.7,20.6-20.6,36.6,4.6c16,25.1,63.7,48.6,22.1,86.5c-51.8,47.2-123.4,66.3-133.1,106.7
			c-5.3,21.9,5.9,29.7-26.1,54.9c-32,25.1-16,72-30.9,72c-14.8,0-13.7-24-33.1-19.4c-19.4,4.6-76.6-5.7-86.9,33.1
			c-10.3,38.9-5.7,81.2,10.3,78.9c16-2.3,32-36.6,42.3-19.4c10.3,17.1-5.7,27.4,19.4,25.2c25.1-2.3,34.3,11.4,44.6,32
			c10.3,20.6,16,13.7,36.6,11.4c20.6-2.3,60.6-45.7,113.2-37.7c52.6,8,85.7-4.6,102.9,16c17.1,20.6,41.2,35.4,66.3,35.4
			c25.1,0,90.3-5.7,106.3,30.8c21.4,49-11.4,92.6-5.7,113.2C1252.4,869.8,1188.4,903,1195.3,935z"/>
		<path class="st1" d="M1594.3,580.9c0,98.8-26.7,191.4-73.2,270.9c-8.2-18.6-21.7-41.1-40.1-50.6c-30.8-16,5.7-85.7-24-118.9
			c-29.7-33.2-49.9-19.5-46.9-73.2c1.1-19.1-32,1.1-44.6-13.7c-12.6-14.8-69.6,46.1-147.5,16c-60.2-23.2-64.4-69.7-67.8-101.7
			c-3.4-32,15.3-49.2,30.5-72c15.3-22.9,30.4-74.3,24.7-84.6c-5.7-10.3-17.1-11.4-24-35.4c-6.8-24,38.9-26.3,50.3-29.7
			c11.4-3.4-17.4-23.7-13.7-38.9c3.4-14.2,13.3-18.2,30.5-23.9c17.1-5.7,38.1-38.9,38.1-46.9c0-8,20.1-24.7,13.7-32
			c-11.4-13.1-34.2,21.2-45.7-4c-7-15.3,12.8-32.8,30-48.3c0.8,0.4,1.6,0.8,2.4,1.1c3.2,1.5,6.3,3,9.4,4.6
			c17.4,8.7,34.3,18.3,50.6,28.8c-1,1.2-2.1,2.1-3.2,2.9c-11.4,7.5,0,12-8.6,24c-8.6,12-18.3,11.4-20.6,18.3
			c-2.3,6.9,38.3-11.4,48.6-14.9c3.1-1,9.2-4.1,16.2-7.8c21.2,15.9,41.2,33.4,59.8,52.3c25.9,26.3,49.2,55.2,69.3,86.3
			c-13.8-1.6-32.5-8.8-43-12.5c-16-5.7-21.2-20-26.3-13.7c-5.1,6.3-5.7,13.1,2.3,18.9c8,5.7-0.6,16-5.1,20
			c-4.6,4-26.3-27.4-34.8-36.6c-8.6-9.2-34.3-12.6-46.9-16c-12.6-3.4-11.4,0.6-7.4,6.8c4,6.3,42.9,14.9,45.7,20
			c2.9,5.2-9.2-0.6-9.2,6.3c3.4,3.4,0,23.4-6.9,12c-6.8-11.4-40-24-50.3-26.3c-10.3-2.3-26.3,3.4-45.7,17.1
			c-19.4,13.7-24,48-36.6,56c-12.6,8-11.5,13.7,3.4,14.9c14.9,1.1,54.9-27.4,62.9-36.6c8-9.2,34.3-1.2,40,11.4
			c5.7,12.6,33.1,12.6,66.3,17.1c33.2,4.6,13.8-13.8,22-22.1c14.5-14.8,60.3,11.8,80.9-6.4c1.7-1.5,3.3-2.8,4.8-3.8
			c7.1,12.6,13.8,25.5,19.9,38.7c29,62.5,46.4,131.4,49.3,204.1c0.1,2.7,0.2,5.5,0.3,8.2C1594.2,571.8,1594.3,576.3,1594.3,580.9z"/>
	</g>
</g>
<g>
	<g>
		<path class="st2" d="M241.3,856.3c2.8-3.4,4.3-11.2,5-20.8c1.9-26.1-2.1-65.3-2.1-65.3l-1.7,3.1l0,0l-0.5,0.9l-5.4,9.9l-1.1,2
			l-5.1,9.5l-0.9,1.6l0,0c1.3,5.1,2.4,9.2,3.7,13.5c0.7,2.5,1.5,5.1,2.4,8c0,0,0,0,0,0c0.9,3.3,2,7.1,3.2,11.6
			C240.4,836.2,241,845.5,241.3,856.3z"/>
		<path class="st3" d="M179.6,720.2l25.7-1.1c0,0,24.9-1.4,19.3-5.7c-7.6-5.7-8.8-13.2-12.2-17.5c-0.9-1.1-1.8-2.5-2.6-4
			c-3.1-5.8-5.4-13.8-6.7-18.5c-0.6-2.4-1-4-1-4l-0.1-2l-15.1-19.6c0,0-9.9,14-8.3,25.1C180,683.2,175.9,709.5,179.6,720.2z"/>
		<path class="st4" d="M209.8,692c-3.1-5.8-5.4-13.8-6.7-18.5l-8.5-1.3c0,0-12.3-4.5-13.8-1.1C178.7,675.9,197.1,696.7,209.8,692z"/>
		<path class="st5" d="M319.7,1356.9c1.1-11,0.3-38.9,0.3-38.9l-30.4-1.1l1.6,41.9l20.1,13.3L319.7,1356.9z"/>
		<path class="st6" d="M322.2,1347.9c2.6-2,8.3,4.9,9.5,9.5c2.7,10.6,36.6,11.9,42.7,12.9c3.1,0.5,8.1,16-7.4,16
			c-13.4-0.1-56.4-0.1-71.1-0.2c-3.1,0-5.8-2-6.5-4.9c-2.6-10.2-3-34.2,1.1-34.5C296,1347.9,312.4,1355.4,322.2,1347.9z"/>
		<path class="st5" d="M202.9,1357.1c1.2-11,0.5-38.9,0.5-38.9L173,1317l1.4,41.9l20,13.4L202.9,1357.1z"/>
		<path class="st6" d="M206.3,1344.6c3.3,0.2,2.7,3.3,3.8,7.9c2.6,10.6,41.2,17.5,47.2,18.5c3.1,0.5,8,16.1-7.5,15.9
			c-13.4-0.2-56.4-0.6-71.1-0.8c-3.1-0.1-5.7-2.1-6.4-5c-2.5-10.2-3.5-38.3,0.6-38.6C178.4,1343.7,191.4,1343.7,206.3,1344.6z"/>
		<path class="st7" d="M159.4,993.2c0.4,5,0.9,10.4,1.6,16.3c0.5,4.3,1.1,10.5,1.8,18.1c0.6,6.9,1.2,15,1.8,23.8
			c2.2,31.8,4.1,72.9,3.2,103.1c-1.3,47.4,2.9,158.3,2.9,175.3c14.4,6.3,23.3,4.4,43.9,0c0,0,3.7-91.5,7.7-171.6
			c3.3-65,4.2-58.5,16.2-141.3l0,0c0.1,0.4,3,8.4,7.3,20.9c9.1,26.5,24.2,72.8,31.5,106.3c11.3,52.3,5.4,188.6,10.2,193.3
			c14.1,8.3,38,9.1,44.4-2.4c0,0,2.7-168.6-2.3-195c-2.8-14.9-23.1-138.8-33.6-207.4c-0.3-1.9-0.6-3.8-0.9-5.6
			c-0.7-4.6-1.3-8.9-1.9-12.9c-0.9-6-1.6-11.1-2.2-15.2c0,0-15.8-3.4-36.4-6c-37.7-4.7-91.6-6.3-94.1,21.6
			c-0.5,5.9-0.7,11.1-0.6,16.1c0.1,6.7-0.3,12.9-0.6,19.8C158.5,961.4,157.9,974.2,159.4,993.2z"/>
		<path class="st8" d="M227.3,993C227.3,993,227.3,993,227.3,993c0.2-0.1,0.3-0.1,0.4-0.2C227.6,992.8,227.3,993,227.3,993z"/>
		<path class="st9" d="M238.4,1016.8L238.4,1016.8c0.1,0.4,5.7,16.1,10,28.5l-5-50.1C243.4,995.2,243.6,998.2,238.4,1016.8z"/>
		<path class="st10" d="M158.7,980.2c1-0.2,49.9-10.6,56.5-35.1c0,0-42.4,3.6-56,5.1C158.5,961.4,158.2,973.9,158.7,980.2z"/>
		<path class="st5" d="M178.4,697.2c9.9-5.5,15.3,11.9,26.2,10.1c5.8-0.9,3.9-3.1,6-6.4c1.3-2,2.4-4.2,5.6-2.2
			c66.3,41.4,44.7,192.1,53.7,200c7.4,6.5-33.3,34.5-63.1,34.6c-41,0-48.9-42.5-49.7-50.8c-0.8-8.3-9.3-150.6-9.3-150.6
			S164.9,716.8,178.4,697.2z"/>
		<path class="st11" d="M216.2,698.8c0,0,0.9,9.4,9.8,32.4c11.7,30.4-0.5,57,12.4,94.1c8,23.1,12.2,47.5,16.1,67.4
			c4.1,21.1,7.8,37.2,15.2,41.6c0.1,0.1,0.2,0.1,0.3,0.2c7.8,4.3,16.8,3.7,25-7.7c0.8-1.2,1.7-2.4,2.5-3.8c2.5-4.4,3.7-9.9,3.8-16.2
			c0.7-28.1-18.6-70.5-23-82.5c-2.1-5.7-5.5-13.2-8.7-21.1c-4-9.8-9.9-21.1-5.7-26.1c1.2-1.4,39.5,19.6,64,21.3
			c18.3,1.2,100.8-23,104.6-24c10.9-2.6,6.4-36.6,6.4-36.6c0.3-7.9-90,25.7-104,20.5C310.2,749.3,262.2,701,216.2,698.8z"/>
		<path class="st11" d="M130.3,767.2c0.1,2.6,0.2,5.3,0.4,7.9c0.5,6.9,1.5,13.6,2.6,19.6c1.3,6.8,2.5,12.2,3.5,16.8
			c0.7,2.9,1.3,5.5,1.9,7.9v0c1.3,5.1,2.4,9.2,3.7,13.5c0.7,2.5,1.5,5.1,2.4,8c0,0,0,0,0,0c1,3.3,2,7.1,3.2,11.6
			c0.2,0.8,0.4,1.6,0.6,2.6c1.1,5.9,1.6,14.1,1.9,23.5c0.1,2.8,0.1,5.7,0.2,8.7l0,0c0.2,14.3,0.1,30.1,0.9,43.4
			c1,15.8,3.3,28.1,9,30c1.4,0.5,2.9,0.9,4.3,1.2c0,0,0,0,0,0c2.3,0.5,4.6,0.9,6.9,1.1c16.3,1.6,32.9-4.8,41.9-20.4
			c0.5-0.9,1-1.8,1.3-2.7c0.7-1.8,1.2-3.6,1.4-5.4c0,0,0,0,0,0c0.1-0.6,0.1-1.2,0.1-1.9c0-2.6-0.4-5.3-1-8.1c-1.6-7-4.7-15-6.4-25.3
			c-0.9-5.5-1.4-11.8-1-18.9c0-0.2,0-0.3,0-0.5c1-18.1,1.4-49.8-2-70.9c-3.3-20.7-8.5-43.2-13.5-62.6c-0.7-2.8-1.4-5.5-2.1-8.1
			c-0.6-2.2-1.2-4.4-1.7-6.5c-0.8-2.9-1.5-5.6-2.3-8.3c-0.3-1-0.5-1.9-0.8-2.9c-3.1-10.9-5.7-19.2-7-23.2v0c0,0,0,0-0.1,0
			c-1.8,0.5-20.2,6.2-35.4,24.6c0,0,0,0,0,0c-1.3,1.6-2.5,3.2-3.8,5c-1.3,1.9-2.6,3.9-3.8,6c-0.2,0.3-0.3,0.6-0.5,0.9
			c-1.8,3.5-3,8.4-3.7,13.9c-0.4,2.7-0.6,5.7-0.7,8.7C130.2,759.8,130.1,763.5,130.3,767.2z"/>
		<path class="st12" d="M162.8,1027.6c0.6,6.9,1.2,15,1.8,23.8c11.3-7.9,108.4-97.6,131.3-118.9c-0.3-1.9-0.6-3.8-0.9-5.6
			c0.8-1.2,1.7-2.4,2.5-3.8c2.5-4.4,3.7-9.9,3.8-16.2l-8.2,7.2l-23.4,20.4L162.8,1027.6z"/>
		<path class="st13" d="M150.4,878.5c0.1,2.8,0.1,5.7,0.2,8.7l0,0c0.2,14.3,0.1,30.1,0.9,43.4c1,15.8,3.3,28.1,9,30
			c1.4,0.5,2.9,0.9,4.3,1.2c0,0,0,0,0,0c2.3,0.5,4.6,0.9,6.9,1.1c16.3,1.6,32.9-4.8,41.9-20.4c0.5-0.9,1-1.8,1.3-2.7
			c0.7-1.8,1.2-3.6,1.4-5.4c0,0,0,0,0,0c0.1-0.6,0.1-1.2,0.1-1.9c0-2.6-0.4-5.3-1-8.1c-2.7,1.7-6.6,4.1-9,5.3
			c-4.1,2.1-55.3-48.5-45.3-100.9l-12.4,26.2C149.7,861,150.2,869.2,150.4,878.5z"/>
		<g>
			<path class="st14" d="M99.6,1036.7c3,13.5,14.5,23.5,41.2,15.1c0.6-0.2,1.3-0.5,2.1-0.8c55.4-23.2,304.8-281.3,379.9-339
				c2.7-2.1,5.2-4,7.2-5.5c2.5-1.9,4.4-3.4,5.8-4.4c0.8-0.6,1.4-1.1,1.8-1.3c0.1-0.1,0.2-0.1,0.3-0.2c3.4-2.4,3.5-7.5,1.5-13.4
				c0-0.1,0-0.1-0.1-0.2c-2-6-6.1-12.9-10.9-18.7c-7.8-9.2-17.6-15.5-24.1-10.7c-0.2,0.2-0.5,0.4-1,0.7c-0.1,0.1-0.2,0.1-0.2,0.2
				c-2.7,1.9-9,6.8-18.5,14.1c-94.1,72.7-358.7,315.1-376,329.6C101.6,1008,96.7,1023.9,99.6,1036.7z"/>
			<path class="st15" d="M99.6,1036.7c3,13.5,14.5,23.5,41.2,15.1c0.6-0.2,1.3-0.5,2.1-0.8c55.4-23.2,304.8-281.3,379.9-339
				c6.1-4.7,10.5-8.1,13-10c0.8-0.6,1.4-1.1,1.8-1.3c0.1-0.1,0.2-0.1,0.3-0.2c3.4-2.4,3.5-7.6,1.5-13.6
				C469.4,740,192.9,1011.9,99.6,1036.7z"/>
			<path class="st16" d="M484.6,672.5c10.8,8.1,31.2,27.3,45.3,34c2.5-1.9,4.4-3.4,5.8-4.4c0.8-0.6,1.4-1.1,1.8-1.3
				c0.1-0.1,0.2-0.1,0.3-0.2c3.4-2.4,3.5-7.5,1.5-13.4l-32.1-27.3l-4.1-1.4C500.4,660.4,494,665.2,484.6,672.5z"/>
			<g>
				<path class="st14" d="M714.1,286.8c17,3.4,33.3,8.5,48.5,15.2c5.9,2.6,11.6,5.4,17.1,8.4c73.8,39.8,121,117.4,120.7,201.7
					c-0.1,14.2-1.4,28.5-4.3,43c-2.1,10.5-4.8,20.7-8.2,30.5c-36.7,105.9-147.7,171.2-262,148.6c-18.6-3.7-36.2-9.4-52.7-17
					c-11.7-5.4-22.9-11.8-33.4-18.9c-73.6-50.1-114.2-140.3-96.1-232.3C468.2,342.3,589.2,262.1,714.1,286.8z M631,689.7
					c99.7,19.6,196.4-45.2,216-144.9c19.6-99.7-45.2-196.4-144.9-216c-99.7-19.6-196.4,45.2-216,144.9S531.3,670.1,631,689.7z"/>
				<path class="st17" d="M492.7,468.8c-17.4,88.6,31.2,174.8,111.8,207.6c7.4,3,15.1,5.5,23,7.5l34.3-1l8.1,5.2
					c-0.7,0.5-1.5,1-2.5,1.5c36.2,1.2,71.1-8.4,100.8-26.3c-3.2,2.4-6.5,4.7-9.9,6.9c12.6-6.4,24.4-14.1,35.2-23.2
					c23-19.1,41.4-43.8,53.1-72.6c0-0.1,0.1-0.2,0.1-0.3c4.3-10.7,7.7-22,10-33.7c3.3-16.6,4.2-33.2,3.1-49.3c0-0.6-0.1-1.3-0.1-1.9
					c-0.1-0.8-0.1-1.5-0.2-2.3c0,0,0,0,0,0c-0.1-0.7-0.1-1.3-0.2-2c0-0.3-0.1-0.5-0.1-0.8c-0.1-0.6-0.1-1.2-0.2-1.8
					c-0.1-0.8-0.2-1.5-0.3-2.3c-0.2-1.4-0.4-2.8-0.6-4.2c0-0.3-0.1-0.5-0.1-0.8c-0.1-0.5-0.1-1-0.2-1.5c0-0.2-0.1-0.4-0.1-0.5
					c-0.1-0.6-0.2-1.2-0.3-1.8c-0.1-0.8-0.3-1.6-0.5-2.4c-0.1-0.7-0.3-1.5-0.4-2.2c-0.2-0.9-0.4-1.7-0.6-2.6
					c-0.1-0.6-0.3-1.2-0.4-1.8c0,0,0,0,0,0c-0.2-0.7-0.3-1.5-0.5-2.2c-0.2-0.7-0.4-1.5-0.6-2.2c-0.4-1.4-0.8-2.8-1.2-4.3
					c-0.1-0.2-0.1-0.5-0.2-0.7c-0.4-1.2-0.7-2.5-1.1-3.7c-0.2-0.7-0.5-1.5-0.7-2.2c-0.2-0.7-0.4-1.3-0.7-2c0,0,0-0.1,0-0.1
					c-0.2-0.7-0.5-1.4-0.7-2.1c-0.2-0.7-0.5-1.4-0.8-2.1c-0.3-0.7-0.5-1.4-0.8-2.1c-0.3-0.7-0.5-1.3-0.8-2c-0.7-1.9-1.5-3.8-2.3-5.6
					c-0.2-0.4-0.4-0.8-0.5-1.3c-0.5-1.2-1-2.3-1.6-3.5c-0.3-0.7-0.6-1.3-1-2c-0.2-0.5-0.5-1-0.8-1.5c-0.1-0.1-0.1-0.2-0.2-0.4
					c-0.1-0.3-0.3-0.5-0.4-0.8c-0.3-0.6-0.6-1.1-0.8-1.7c-0.3-0.5-0.5-1.1-0.8-1.6c-0.3-0.7-0.7-1.3-1-2c-0.3-0.5-0.5-1-0.8-1.5
					c-0.1-0.3-0.3-0.5-0.4-0.8c-0.9-1.6-1.8-3.2-2.8-4.9c-0.2-0.3-0.4-0.6-0.6-1c0-0.1-0.1-0.1-0.1-0.2c-0.3-0.5-0.6-0.9-0.8-1.4
					c-0.2-0.4-0.5-0.8-0.7-1.2c-0.2-0.3-0.4-0.6-0.6-0.9c-0.2-0.4-0.5-0.8-0.7-1.1c-0.2-0.3-0.4-0.6-0.6-0.9c-1-1.6-2.1-3.2-3.2-4.7
					c-0.2-0.4-0.5-0.7-0.7-1.1c-0.6-0.8-1.2-1.7-1.8-2.5c-0.2-0.2-0.4-0.5-0.6-0.8c-0.4-0.5-0.8-1-1.2-1.5c-0.4-0.5-0.7-0.9-1.1-1.4
					c-0.4-0.5-0.8-1-1.2-1.5c-0.3-0.3-0.5-0.7-0.8-1c-0.4-0.5-0.7-0.9-1.1-1.4c-0.4-0.5-0.9-1.1-1.3-1.6c-0.3-0.4-0.7-0.8-1.1-1.2
					c-1.2-1.4-2.4-2.7-3.6-4.1c-0.4-0.5-0.8-0.9-1.2-1.3c-0.4-0.5-0.9-1-1.4-1.5c-0.4-0.4-0.8-0.9-1.2-1.3c-0.3-0.3-0.5-0.5-0.7-0.8
					c-1.3-1.3-2.6-2.7-4-4c-0.3-0.3-0.7-0.6-1-0.9c-0.3-0.3-0.7-0.6-1-0.9c-0.2-0.2-0.5-0.4-0.7-0.7c-0.4-0.4-0.9-0.8-1.3-1.2
					c-0.5-0.4-1-0.9-1.5-1.3c-0.5-0.5-1.1-1-1.6-1.4c0,0,0,0-0.1-0.1c-0.5-0.5-1.1-0.9-1.6-1.4c-0.5-0.4-1-0.8-1.4-1.2
					c-0.4-0.3-0.7-0.6-1.1-0.9c-0.7-0.6-1.4-1.2-2.1-1.7c-0.3-0.3-0.7-0.5-1-0.8c-1.1-0.9-2.2-1.7-3.4-2.6c-0.5-0.4-1-0.8-1.6-1.1
					c-1-0.7-2-1.5-3-2.2c-0.3-0.2-0.6-0.4-1-0.7c-0.4-0.3-0.8-0.5-1.1-0.8c-0.4-0.2-0.7-0.5-1.1-0.7c-0.8-0.5-1.6-1.1-2.4-1.6
					c-0.4-0.3-0.8-0.5-1.2-0.8c-0.4-0.2-0.8-0.5-1.2-0.7c-0.4-0.2-0.8-0.5-1.2-0.7c-1.8-1.1-3.6-2.2-5.5-3.2c0.5,0.3,1,0.6,1.6,0.9
					c1,0.6,2.1,1.2,3.1,1.9c0.5,0.3,1,0.6,1.5,1c33,20.7,58.4,51.3,72.9,86.8c0.1,0.3,0.2,0.5,0.3,0.8c12.9,32,16.9,68,9.8,104.4
					c-10,50.7-39.9,92.5-80,118.7c-2,1.3-4,2.6-6,3.8c16.6-12.4,31.1-27.5,42.8-44.9c0.2-0.2,0.3-0.5,0.5-0.7
					c12.3-18.4,21.4-39.3,26.4-62.1c0.3-1.5,0.6-2.9,0.9-4.4c19.7-100-45.4-197-145.3-216.7c-46.7-9.2-92.8,0.1-130.6,22.8
					c24.4-18.2,53.3-30.4,84-34.8c-33.8,4.8-65.3,18.8-91.2,39.9c1.8-1.2,3.7-2.3,5.5-3.5c-25.8,19.2-46.7,45.3-59.7,76
					C498.8,444.6,495.2,456.5,492.7,468.8z"/>
				<path class="st18" d="M604.5,676.5c7.3,3,14.8,5.5,22.5,7.5c3.9,1,7.9,2,11.9,2.7c9.3,1.8,18.6,2.9,27.8,3.4
					c32.5,1.4,64-5.7,91.7-19.8c3.4-2.2,6.7-4.5,9.9-6.9c-29.8,17.9-64.6,27.5-100.8,26.3c-9.8-0.3-19.8-1.4-29.8-3.4
					c-3.4-0.7-6.8-1.4-10.2-2.3C619.6,682,612,679.4,604.5,676.5z"/>
				<path class="st18" d="M564.7,355.7c37.8-22.7,83.9-32,130.6-22.8c100,19.7,165,116.7,145.3,216.7
					c-9.2,46.7-35.3,85.8-70.7,112.2c43.1-25.9,75.6-69.3,86-122.5c15.8-80.3-23.1-158.7-90.8-196.7c-0.7-0.4-1.3-0.7-2-1.1
					c-16.1-8.7-33.7-15.1-52.5-18.9c-18.1-3.6-36-4.4-53.5-2.7c-0.6,0.1-1.2,0.1-1.9,0.2c-0.4,0-0.8,0.1-1.2,0.1
					c-0.8,0.1-1.6,0.2-2.4,0.3C619.8,324.6,589.9,336.9,564.7,355.7z"/>
				<path class="st18" d="M503.4,433.5c13-30.8,33.8-56.8,59.6-76c-1.9,1.1-3.7,2.3-5.5,3.5C534.2,379.9,515.4,404.6,503.4,433.5z"/>
				<path class="st19" d="M564.7,355.7c37.8-22.7,83.9-32,130.6-22.8c100,19.7,165,116.7,145.3,216.7c-9.2,46.7-36.6,87.8-72,114.2
					c45.8-24.7,77.5-69.7,88-123c15.8-80.3-23.7-160.3-91.5-198.2c-0.7-0.4-1.3-0.7-2-1.1c-16-8.7-33.7-15.2-52.5-18.9
					c-18.1-3.6-36.1-4.3-53.5-2.7c-0.6,0.1-1.2,0.1-1.9,0.2c-0.4,0-0.8,0.1-1.2,0.1c-0.8,0.1-1.6,0.2-2.4,0.3
					C619.8,324.6,589.9,336.9,564.7,355.7z"/>
				<path class="st19" d="M480.5,479.9c-17.1,87,30,171.9,108.5,205.3c11.6,5,24,8.8,36.9,11.3c4.3,0.9,8.7,1.6,13,2.1
					c44.5,5.6,87.7-5.4,123.1-28.3c3.4-2.2,6.7-4.5,9.9-6.9c-29.8,17.9-64.6,27.5-100.8,26.3c-9.8-0.3-19.8-1.4-29.8-3.4
					c-3.4-0.7-6.8-1.4-10.2-2.3c-7.9-2-15.6-4.5-23-7.5C527.3,644.1,478.4,558,495.8,469.6c2.5-12.6,6.2-24.7,11-36.2
					c13-30.8,33.8-56.8,59.7-76c-1.9,1.1-3.7,2.3-5.5,3.5C520.6,387.1,490.5,429,480.5,479.9z"/>
				<path class="st20" d="M489.2,474.7c-14.3,72.5,15.7,143.4,71,184.3c16.6,12.3,35.5,21.9,56.2,28c1.1,0.3,2.3,0.7,3.4,1
					c2.2,0.6,4.3,1.1,6.5,1.7c2.2,0.5,4.3,1,6.5,1.4c23,4.5,45.8,4.5,67.6,0.5c72-13.1,132.3-69.4,147.5-146.1l0-0.1
					c1.5-7.5,2.5-15.1,3-22.6c3.1-42.4-8.5-83.2-30.9-116.6c-7.9-11.8-17.2-22.6-27.6-32.3c0,0,0,0,0,0
					c-20.9-19.4-46.6-34-75.6-41.9c-4.1-1.1-8.3-2.1-12.6-2.9c-0.5-0.1-1-0.2-1.5-0.3c-1.9-0.4-3.8-0.7-5.7-1
					c-4-0.6-8.1-1.1-12.1-1.5c-1.9-0.2-3.9-0.3-5.8-0.4l0,0c-6.6-0.4-13.2-0.4-19.8,0c-44,2.4-85,20.7-116.1,50.3
					c-11.5,10.9-21.6,23.3-30,37C501.9,431.6,493.6,452.3,489.2,474.7z"/>
				<path class="st21" d="M762.6,301.9c-0.7,19.1-0.5,40.1,2,61.4c0.4,0.2,0.7,0.4,1.1,0.7c0.4,0.2,0.7,0.5,1.1,0.7
					c0.4,0.2,0.7,0.5,1.1,0.7c0.8,0.5,1.5,1,2.2,1.5c0.3,0.2,0.7,0.4,1,0.7c0.4,0.2,0.7,0.5,1.1,0.7c0.3,0.2,0.6,0.4,0.9,0.6
					c0.9,0.7,1.9,1.3,2.8,2c0.5,0.4,1,0.7,1.4,1.1c1.1,0.8,2.1,1.6,3.1,2.4c0.3,0.2,0.6,0.5,0.9,0.7c0.7,0.5,1.3,1.1,2,1.6
					c0.3,0.3,0.7,0.5,1,0.8c0.4,0.4,0.9,0.7,1.3,1.1c0.5,0.4,1,0.9,1.5,1.3c0,0,0,0,0.1,0.1c0.5,0.4,1,0.9,1.5,1.3
					c0.5,0.4,0.9,0.8,1.4,1.2c0.4,0.4,0.8,0.7,1.2,1.1c0.2,0.2,0.4,0.4,0.6,0.6c0.3,0.3,0.6,0.6,0.9,0.9c0.3,0.3,0.6,0.6,0.9,0.9
					c1.3,1.2,2.5,2.4,3.7,3.6c0.2,0.2,0.5,0.5,0.7,0.7c0.4,0.4,0.8,0.8,1.2,1.2c0.4,0.4,0.8,0.9,1.3,1.3c0.4,0.4,0.8,0.8,1.1,1.2
					c1.1,1.2,2.3,2.5,3.4,3.8c0.3,0.4,0.7,0.8,1,1.1c0.4,0.5,0.8,1,1.2,1.5c0.4,0.4,0.7,0.9,1.1,1.3c0.2,0.3,0.5,0.6,0.7,0.9
					c0.4,0.5,0.7,0.9,1.1,1.4c0.3,0.4,0.7,0.8,1,1.3c0.4,0.5,0.7,0.9,1.1,1.4c0.2,0.2,0.3,0.5,0.5,0.7c0.6,0.8,1.1,1.5,1.7,2.3
					c0.2,0.3,0.5,0.7,0.7,1c1,1.4,2,2.9,3,4.3c0.2,0.3,0.4,0.6,0.6,0.9c0.2,0.3,0.5,0.7,0.7,1.1c0.2,0.3,0.4,0.6,0.6,0.9
					c0.2,0.4,0.5,0.7,0.7,1.1c0.3,0.4,0.5,0.8,0.8,1.3c0,0,0.1,0.1,0.1,0.1c0.2,0.3,0.4,0.6,0.5,0.9c0.9,1.5,1.8,3,2.6,4.5
					c0.1,0.2,0.3,0.5,0.4,0.7c0.3,0.5,0.5,0.9,0.8,1.4c0.3,0.6,0.7,1.2,1,1.8c0.3,0.5,0.5,1,0.8,1.5c0.3,0.5,0.5,1,0.8,1.5
					c0.1,0.2,0.3,0.5,0.4,0.8c0.1,0.1,0.1,0.2,0.2,0.3c0.2,0.5,0.5,0.9,0.7,1.4c0.3,0.6,0.6,1.2,0.9,1.9c0.5,1.1,1,2.1,1.5,3.2
					c0.2,0.4,0.3,0.8,0.5,1.2c0.8,1.7,1.5,3.4,2.2,5.2c0.2,0.6,0.5,1.2,0.7,1.8c0.2,0.6,0.5,1.3,0.7,1.9c0.2,0.6,0.5,1.3,0.7,1.9
					c0.2,0.6,0.5,1.3,0.7,1.9c0,0,0,0.1,0,0.1c0.2,0.6,0.4,1.2,0.6,1.8c0.2,0.7,0.4,1.3,0.7,2c0.4,1.1,0.7,2.3,1,3.4
					c0.1,0.2,0.1,0.4,0.2,0.6c0.4,1.3,0.7,2.6,1.1,3.9c0.2,0.7,0.4,1.3,0.5,2c0.2,0.7,0.3,1.3,0.5,2c0,0,0,0,0,0
					c0.1,0.6,0.3,1.1,0.4,1.7c0.2,0.8,0.4,1.6,0.5,2.4c0.1,0.7,0.3,1.3,0.4,2c0.2,0.7,0.3,1.5,0.4,2.2c0.1,0.5,0.2,1.1,0.3,1.6
					c0,0.2,0.1,0.3,0.1,0.5c0.1,0.4,0.2,0.9,0.2,1.3c0,0.2,0.1,0.5,0.1,0.7c0.2,1.3,0.4,2.5,0.6,3.8c0.1,0.7,0.2,1.4,0.3,2.1
					c0.1,0.5,0.1,1.1,0.2,1.6c0,0.2,0.1,0.5,0.1,0.7c0.1,0.6,0.1,1.2,0.2,1.8c0,0,0,0,0,0c0.1,0.7,0.1,1.4,0.2,2.1
					c0.1,0.6,0.1,1.2,0.1,1.8c15.2,7.4,33.1,12.8,54.1,15.6c0.3-84.4-46.9-161.9-120.7-201.7C774.2,307.3,768.5,304.5,762.6,301.9z"/>
			</g>
		</g>
		<path class="st3" d="M465.4,768.7c5.5,6.7,35.6-24.1,27.8-26.8c-7.8-2.7-11.9-4.4-18.8,2.3C467.6,750.8,459.9,762,465.4,768.7z"/>
		<path class="st13" d="M213.2,998.9c-1.8-0.1-20.4-21.7-22.2-21.3c-1.8,0.4-6.6,2.2-8.8,0.1c-2.2-2.1-20.6-23.6-20.6-23.6l8.2-6.7
			l25.4,20.5l22.1,27.4L213.2,998.9z"/>
		<path class="st3" d="M204.4,947c0,0,13.7,16,19.4,15.9c5.7-0.1,13.2-6.8,15.7,0c2.3,6.4-9.6,7.3-5.7,13.5
			c8.1,12.9-17.8,25.2-20.9,19.4c-5.4-9.8-27.1-29.7-27.7-30.3C184.5,965,204.4,947,204.4,947z"/>
		<path class="st11" d="M174.2,754.3c-13.9,79.2-21,103.2-19.3,119.5s60.3,76.6,60.3,76.6s-26.4,28.4-30,24.7
			c-3.6-3.7-62.6-64.6-70-84.7c-8.3-22.5,13.7-145.8,19.5-156.1c5.8-10.3,39.8-24.2,42.5-8.4C180,741.7,174.2,754.3,174.2,754.3z"/>
		<g>
			<path class="st13" d="M202.8,712.1c-1.1-0.2-2.6,20.8-12,31.5c-2.6,3-5.7,5.6-9.3,7.3c-10.5,5.2-54.8,15.2-54.8,15.2
				s1.6-9.4,4.8-19.2c11.1-1.1,38.8-3.4,44.2-6.4c4-2.2,7.4-5.1,10.4-8.2c5.6-5.9,9.6-12.8,12.3-18.5c1.4-2.9,0.5-6.1,3.1-7.3
				C205.1,704.9,204.3,712.3,202.8,712.1z"/>
			<path class="st22" d="M206.2,705c-0.8-1.7-3.2-3.9-6.7-2.2c-2.7,1.3-2.4,2.5-3.8,5.4c-4.3,8.8-11.3,20.3-22.7,26.8
				c-11.4,6.4-45.5,2.4-61.6,13.8s-14.7,29.6-38.6,44.7s-56,16-63,20.5c-7,4.5-10.9,8.1-9.4,11s7.3,6.3,13.6,6.1
				c6.2-0.1,54.3-16.9,66-23.9c19-11.3,28.6-36.9,41.1-43.6c12.5-6.7,43-10.9,57.9-18.3c16.6-8.2,21.9-33.9,23.4-33.6
				c1.4,0.3,2.8,0.6,4.7-0.9C208.2,709.8,207.1,706.7,206.2,705z"/>
		</g>
		<g>
			<path class="st3" d="M206.7,632.8c4.5,8.2,21.1,20.5,15.3,23c-5.8,2.6,9.6,17.4,3.5,20.3c-14.7,7.1-36,5.4-41.2-1
				c-5.1-6.3-13.1-26.9-13.1-26.9L206.7,632.8z"/>
			<path class="st23" d="M195,647.8c4.9-1.5,5.6-0.5,8.2-3.6c2.6-3.1-5.1-5.1,0.5-8.8c5.7-3.8,12.3-7.1,9.8-14.4
				c-3.6-10.6-11.9-5-17-1.3c-3.2,2.4-7.6-5-14.6-1.5c-5.5,2.8-3.4,5.8-8.2,8.4c-2.9,1.6-11-0.7-14.1,5c-5.7,10.6,5.3,15.7,1.2,26.1
				c-4.7,12.2,22.9,21.3,24.2,18.1c1.5-3.7-6.3-10.7-4.5-13.9c2.7-4.9,4.7-1.7,9.6,0c5.2,1.8,12-1,4.7-5.7
				C187.6,651.7,190.5,649.2,195,647.8z"/>
		</g>
	</g>
	<path class="st5" d="M836.3,618.1c-19-2.9-21.8-11.4-25.5-37.8c-2.3,25.1-5.4,34.7-24.7,37.7c16.9,7.1,22.9,9.6,26,38.6
		C816.1,627.2,819.8,624.6,836.3,618.1z"/>
	<path class="st5" d="M652.2,365.5c-25.3-3.8-29-15.1-33.9-50.3c-3.1,33.5-7.2,46.2-32.9,50.1c22.5,9.4,30.4,12.8,34.7,51.4
		C625.3,377.5,630.2,374,652.2,365.5z"/>
</g>
<g>
	<path class="st24" d="M726.9,375.5c-7.7-3.4-15.8-5.9-24.4-7.4"/>
	<path class="st24" d="M807.7,563.8c17.5-55.9-9.7-141.2-64.7-178.6"/>
</g>
<g>
	<path class="st25" d="M1674.9,1049.4c-6.8,33.7-9.5,62.7-3.6,89.3c5.9,26.5,45.8,187.4,43,192.1c-2.8,4.7-13.8,24.6-16.1,29.6
		c-2.3,5,52.8-15.3,52.6-25.4c-0.2-10.1-3.3-4.9-9.4-19.9c-6.1-15-13.3-69.1-14.2-80.4c-1-11.3,0.9-123.6-2.9-136
		C1720.5,1086.1,1674.9,1049.4,1674.9,1049.4z"/>
	<path class="st26" d="M1745.7,1314.7c-1.3-0.9-3-0.8-4.2,0.2c-5.6,4.8-8,10.5-8.6,12.7c-1.1,4.3-1.1,11.5-11.1,19.3
		s-21,7.6-24.3,11.2c-3.3,3.7-22,17.6-15.5,23.9c6.9,5.3,30-1.4,37.4-8.5s26.2-25.6,26.7-24.4c2.3,2.6,3.6,1.6,3.6,1.6
		c5.8-5.6,14.3-12.3,14.9-14.7c0.5-2.4-3.5-10.1-7.6-13.4C1754.2,1320.5,1748.7,1316.7,1745.7,1314.7z"/>
	<path class="st25" d="M1658.6,1066.7c-0.2,5-4.2,30.9-9.2,62.1c-1.5,9.4-3.1,19.2-4.7,29.1c-7.5,45.5-15.5,92-17.1,97.8
		c-3.1,11.2-15.1,65.8-14.5,82.4c0.6,16.6,5.6,12.7,2.2,22.5c-3.4,9.8-74.5-0.5-70.4-4.5c4-4,31.5-9,35.9-12.5
		c3-2.4,10.7-110.9,16.4-188.9c0.8-10.5,1.5-20.4,2.2-29.4c1.7-22.8,3.1-40,3.9-46.3c3.6-27.6,15.5-20.1,38.5-20
		C1641.6,1058.9,1659.2,1053.3,1658.6,1066.7z"/>
	<path class="st26" d="M1618.1,1350c-0.4-1.6-1.9-2.7-3.5-2.7c-7.7-0.1-13.5,2.5-15.5,3.9c-3.8,2.6-8.7,8.1-22,7.3
		c-13.2-0.8-22.2-6-27.3-5.4s-27.1,4.7-26.2,14c1.8,8.8,22,13.9,32.7,13.5c10.7-0.4,38.9-5,38.5-3.7c0,3.6,1.8,3.7,1.8,3.7
		c8.4-0.3,19.7,0.4,21.8-1.1c2.1-1.5,4.1-10.1,3.2-15.5C1620.9,1360.2,1619.1,1353.6,1618.1,1350z"/>
	<path class="st27" d="M1726.7,1151.2c-15.6,6.2-39.2,5.3-50.8,7.1c-2.9-12.2-3.5-14.7-4.6-19.6c-0.2-0.9-0.4-1.8-0.6-2.7l41.7-11
		l14.2,15.6C1726.7,1144,1726.7,1147.5,1726.7,1151.2z"/>
	<path class="st27" d="M1649.4,1128.8c-1.5,9.4-2.7,17-4.4,26.9c-14.2-5.8-33.6-3.1-47.9-0.9c0.8-10.5,1.5-20.4,2.2-29.4l2.4-8.1
		L1649.4,1128.8z"/>
	<path class="st28" d="M1821.8,1123c-14.6,17.9-60.3,4.5-77.4,13.7c-2.7,1.5-7.5,3.1-13.4,4.7c-20.9,5.7-56.6,11.1-71.3,7.3
		c-18.9-4.9-37.4-24-82.6,0.6c-11.3-41.5,17-223.9,37.4-271.7v0c1.1-2.5,2.2-4.7,3.2-6.5c0,0,50.4-29.7,94.2-7.2
		c7.3,3.8,14.5,9,21.2,16c0.1,0.2,0.2,0.3,0.3,0.5C1778.4,952.3,1742.7,1027.7,1821.8,1123z"/>
	<path class="st5" d="M1559.2,862.3c-1.5,1.2-8.2-27.8-5.5-30.7c2.7-3,38.9-10.6,42.9-12c12.6-4.3,53.6-14.4,71.8-25.1
		c13.2-7.8,22.7-10.5,61.4-33.9c-18.7,19.4-14.6,54.1-13,70.9c1.9,19,7.7,36.1,16.4,48.3c0.1,0.2,0.2,0.3,0.3,0.5
		c2.9,5.5-14.6,7.9-37,8.3c-33,0.5-76.5-3.5-80.9-8.3c-0.5-0.6-0.9-1.5-1.1-2.7c-2.2-14.9,22.4-71.9,22-81.8
		c-0.4-10.7-20.1-15.6-21.7-23.8c-1.6-8.2,16.6-26.2,12.3-23.8c-13.4,7.5-51.8,27.5-76.9,22.1c-13.7-3-61-70.7-64.3-73.8
		c-3.2-2.9,23.3-15.8,26-12.9c5.1,5.5,32.9,48.3,49.2,54.2c12.2,4.4,81.6-37.9,103.1-48.9c0,0,20.4-3,30.2-2.2
		c9.8,0.8,36.1,20.8,43,29.6c7.7,9.9-0.8,48.7-10.4,80.5C1721.2,815.4,1563.3,859,1559.2,862.3z"/>
	<path class="st25" d="M1671.7,667.1c3.7,17.1,2.8,26,0,30.8c-2.8,4.8-5.9,16.4-0.4,16.2c2.7-0.1,18.8-7.2,24.6-11.4
		c5.8-4.2,9.3-12.4,9.3-12.4s-4.9-20.6-13.5-38.7C1683.1,633.3,1671.7,667.1,1671.7,667.1z"/>
	<path class="st29" d="M1674,683.2c-0.1-2.3-0.4-4.8-0.8-7.6c-0.1-1-1.3-7.5-1.5-8.5c1-0.9,2.6-2.2,3.6-2.4c1.3-0.2,4.1,0.1,5.3-1.5
		c2.1-2.5,6.1,4.8,4.4,9.1C1684.3,673.9,1679.4,680.3,1674,683.2z"/>
	<path class="st3" d="M1508,683.7c-1-14.1-15.5-24.3-25.3-25.9c-11-1.7-23.7,7.6-13.3,11.4s17.1,23.7,19.4,23.9
		C1491.1,693.4,1508,683.7,1508,683.7z"/>
	<path class="st3" d="M1569.5,851.8c-10.2,9.8-29.9,9.6-38.1,4.2c-9.3-6.1-12.3-21.9-2.2-17.4c15.8,7,8.4-4.3,12.1-4.7
		c6.2-0.6,16.8,8.5,20,6.7C1563.2,839.4,1569.5,851.8,1569.5,851.8z"/>
	<path class="st5" d="M1733.4,880.3c2.3,4.4-8.4,6.8-24.3,7.8c-4,0.2-8.2,0.4-12.7,0.5c-33,0.5-76.5-3.5-80.9-8.3
		c-0.5-0.6-0.9-1.5-1.1-2.7v0c-1-6.8,3.5-22.3,8.7-38c-30.7,10.3-61.8,21.1-64.1,22.9c-1.5,1.2-8.2-27.8-5.5-30.7
		c2.7-3,38.9-10.6,42.9-12c6.8-2.3,21.8-6.3,37.1-11.2c1.8-6,3-10.5,2.9-12.8c-0.4-10.7-20.1-15.6-21.7-23.8
		c-1.6-8.2,16.6-26.2,12.3-23.8c-13.4,7.5,15.6-48.4,37-59.3c0,0,20.4-3,30.2-2.2c9.8,0.8,35.6,21.2,43,29.6
		c3.3,3.8-0.3,23.6-8.8,45c0.4-0.2,0.7-0.4,1.1-0.6c-0.5,0.5-1,1.1-1.5,1.6c-3,7.5-6.6,15.1-10.7,22.3c-4,17.1-1.9,35.9-0.8,46.9
		c1.9,19,7.7,36.1,16.4,48.3C1733.2,880,1733.3,880.1,1733.4,880.3z"/>
	<path class="st29" d="M1649.1,803.4c38-23.8,43.2-28.6,45.1-51.6c4.5,19,0.8,24.3-1.3,27.8C1690.7,783.1,1663.2,797.1,1649.1,803.4
		z"/>
	<path class="st29" d="M1630.3,839.8c-0.5-0.2,84.8-31.6,84.8-33.2c0.1,3.7,0,6.6,0.2,8.8C1712.8,814.9,1631.9,840.5,1630.3,839.8z"/>
	<path class="st29" d="M1650.5,720.9c-16.7,15.1-15.6,15.4-22.8,27.2c5.7-13.6,8.6-20.8,8.6-20.8S1646.8,721.2,1650.5,720.9z"/>
	<path class="st30" d="M1821.8,1123c-14.6,17.9-60.3,4.5-77.4,13.7c-2.7,1.5-7.5,3.1-13.4,4.7c-31.3-69.8-29.6-176.6-21.8-253.3
		c0.9-8.5,1.8-16.6,2.8-24.3c1.5-12,3.2-22.9,4.7-32.2c1.9,19,7.7,36.1,16.4,48.3c0.1,0.2,0.2,0.3,0.3,0.5
		C1778.4,952.3,1742.7,1027.7,1821.8,1123z"/>
	<g>
		<g>
			<path class="st25" d="M1681.1,621.7c-10.7,11-20.6,13.4-16.5,17c3.1,2.7-18.5,25.8-3.2,29c15.2,3.3,29.9,1.9,38-12
				c8.2-13.9,13.3-21.9,13.3-21.9L1681.1,621.7z"/>
			<path class="st23" d="M1677.6,623.2c1.4,8.8,6.9,14.8,8.4,18.6c0.8,2.1,5.1,3.3,6.9,1.8c2-1.6,5.5-0.7,7.9,2.4
				c2.9,3.7-2.6,6.7-5.7,9c-2.3,1.7-3.2,5.5-2.6,8.3c2.4,10.7-17.5,27.7,32.1,58.7c12.5,7.7,26.5,13.2,39.8,16.7
				c26.9,7.1,51,6.1,54.7-1.2c2.7-5.3-5.8-18.2-13.3-24.2s-12.6-1.5-18.2-6.3c-6.5-5.5,10-19.5-11.6-28.8
				c-21.6-9.4-24.8-4.9-30.5-10.8c-5.7-5.9-1.2-48.2-27.9-56.6c-18.5-5.8-29.5-0.5-34.5,3.3C1680.9,615.7,1677.1,620.6,1677.6,623.2
				z"/>
		</g>
	</g>
</g>
<path class="st5" d="M457,119.2c-40.8,2.7-79.8-0.8-119.8-9.9c-6.1-1.4-12.6-3.2-16.8-8.4c-6.3-7.8-4.4-21,2.4-28.3
	c6.8-7.3,17-9.5,26.5-8.5c6,0.6,12.3,2.4,18.1,0.6c7.3-2.3,12.1-9.7,17-16.1c4.9-6.4,11.5-12.7,19.1-11.7c5.6,0.7,10.1,5.4,15.1,8.4
	c5,2.9,12.3,3.2,15.2-2.2C440,31.7,431.3,0,463.1,0C509,0,501.5,31.9,507,38.6c8.4,10.3,23.3,8,35.4,4.5c12.1-3.5,26.6-6.8,35.9,2.4
	c8.1,7.9,8.9,22.5,17.6,29.8c9.2,7.7,22.2,3.6,33.3,0.1c11.1-3.5,25.5-4.7,31.9,5.8c5.4,8.8,1.4,21.7-6.3,28.2
	c-7.7,6.5-17.8,8.1-27.5,8.7C564.4,122.4,507.4,115.9,457,119.2z"/>
<path class="st5" d="M1495,427.6c-17.4,0-53.1,34.5-2.1,40c51,5.5,127.5,3,158.4,3.1c50.5,0.2,63-2.1,62.6-25.2
	c-0.2-13.3-6.7-22-33.3-25.5c-27.7-3.6-13.5-38.1-47.3-37c-28.8,0.9-31.7,45.9-58.1,34.9c-26.3-11-20.8,19-40.1,24.6
	C1514,448.6,1512.4,427.6,1495,427.6z"/>
<g>
	<g>
		<path class="st31" d="M709.1,534.3c0,1.1,8.6,2.3,18.6,2.1c9.9-0.2,17.9-1.2,17.9-2.3c0-1.1-8.1-1.9-18-1.7
			C717.7,532.6,709.1,533.2,709.1,534.3z"/>
		<path class="st31" d="M669.6,534.9c0,1.1,8.6,2.3,18.6,2.1c9.9-0.2,17.9-1.2,17.9-2.3c0-1.1-8.1-1.9-18-1.7
			C678.2,533.2,669.6,533.8,669.6,534.9z"/>
		<path class="st31" d="M629.6,535.6c0,1.1,8.6,2.3,18.6,2.1c9.9-0.2,17.9-1.2,17.9-2.3c0-1.1-8.1-1.9-18-1.7
			C638.2,533.8,629.6,534.5,629.6,535.6z"/>
		<path class="st31" d="M588.1,536.2c0,1.1,8.6,2.3,18.6,2.1s17.9-1.2,17.9-2.3c0-1.1-8.1-1.9-18-1.7
			C596.6,534.5,588,535.1,588.1,536.2z"/>
		<path class="st31" d="M546.2,536.9c0,1.1,8.6,2.3,18.6,2.1c9.9-0.2,17.9-1.2,17.9-2.3c0-1.1-8.1-1.9-18-1.7
			C554.8,535.2,546.2,535.8,546.2,536.9z"/>
		<g>
			<path class="st32" d="M702.7,439.1l1.5,91.3c0,2.4-1.6,4.4-3.6,4.5l-25.5,0.4c-2,0-3.7-1.9-3.8-4.3l-1.5-91.3
				c0-2.4,1.6-4.4,3.6-4.5l25.5-0.4C701,434.7,702.7,436.7,702.7,439.1z"/>
			<path class="st33" d="M702.7,439.1l1.5,91.3c0,2.4-1.6,4.4-3.6,4.5l-5.5,0.1c-2.6-24.3-3.9-46.6-4.4-100l8.2-0.1
				C701,434.7,702.7,436.7,702.7,439.1z"/>
		</g>
		<g>
			<path class="st32" d="M741.4,411.9l1.9,117.8c0,2.4-1.6,4.4-3.6,4.5l-25.5,0.4c-2,0-3.7-1.9-3.8-4.3l-1.9-117.8
				c0-2.4,1.6-4.4,3.6-4.5l25.5-0.4C739.6,407.5,741.3,409.5,741.4,411.9z"/>
			<path class="st33" d="M741.4,411.9l1.9,117.8c0,2.4-1.6,4.4-3.6,4.5l-5.5,0.1c-2.6-24.3-4.3-73.2-4.8-126.6l8.2-0.1
				C739.6,407.5,741.3,409.5,741.4,411.9z"/>
		</g>
		<g>
			<path class="st32" d="M630.2,462.1l1.2,70.4c0,1.9,1.7,3.4,3.7,3.3l20-0.3l5.5-0.1c2,0,3.7-1.6,3.6-3.5l-1.2-70.4
				c0-1.9-1.7-3.4-3.7-3.3l-8.2,0.1l-4.3,0.1l-13,0.2c-0.7,0-1.3,0.2-1.8,0.5c0,0,0,0,0,0C630.9,459.7,630.2,460.8,630.2,462.1z"/>
			<path class="st33" d="M663.1,461.5l1.2,70.5c0,1.9-1.6,3.4-3.6,3.5l-5.5,0.1c-2.5-18.8-3.7-36-4.1-77.2l8.2-0.1
				C661.4,458.2,663,459.7,663.1,461.5z"/>
		</g>
		<g>
			<path class="st32" d="M621.9,487.7l0.8,44.9c0,1.9-1.6,3.4-3.6,3.5l-25.5,0.4c-2,0-3.7-1.5-3.7-3.3l-0.8-44.9
				c0-1.9,1.6-3.4,3.6-3.5l25.5-0.4C620.2,484.3,621.9,485.8,621.9,487.7z"/>
			<path class="st33" d="M621.9,487.7l0.8,44.9c0,1.9-1.6,3.4-3.6,3.5l-5.5,0.1c-2.5-18.8-3.3-10.4-3.7-51.7l8.2-0.1
				C620.2,484.3,621.9,485.8,621.9,487.7z"/>
		</g>
		<g>
			<path class="st32" d="M580.4,509.6l0.4,23.7c0,1.9-1.6,3.4-3.6,3.5l-25.5,0.4c-2,0-3.7-1.5-3.7-3.3l-0.4-23.7
				c0-1.9,1.6-3.4,3.6-3.5l25.5-0.4C578.7,506.2,580.4,507.7,580.4,509.6z"/>
			<path class="st33" d="M580.4,509.6l0.4,23.7c0,1.9-1.6,3.4-3.6,3.5l-5.5,0.1c-2.5-18.8-3.1-12.3-3.3-30.5l8.2-0.1
				C578.7,506.2,580.4,507.7,580.4,509.6z"/>
		</g>
	</g>
	<path class="st22" d="M750.7,450.5c-2.7-1.7-4.8-16.1-4.8-16.1c-6.8,7.3-70.8,93.5-204,98.6c-9.5,0.4-10.1-15-0.5-15.3
		c71.7-1.5,101.3-18.5,111.2-23.4c45.4-22.1,85.8-66.3,85.8-66.3s-5.2-2.1-13.3-2c-1.7,0,23.4-12.5,30.8-8.1
		C760.2,423,753.4,452.1,750.7,450.5z"/>
</g>
</svg>
