<?xml version="1.0" encoding="utf-8"?>
<!-- Generator: Adobe Illustrator 27.7.0, SVG Export Plug-In . SVG Version: 6.00 Build 0)  -->
<svg version="1.1" id="Layer_1" xmlns="http://www.w3.org/2000/svg" xmlns:xlink="http://www.w3.org/1999/xlink" x="0px" y="0px" viewBox="0 0 859.2 593.6" style="enable-background:new 0 0 859.2 593.6;" xml:space="preserve">
<style type="text/css">
	.st0{fill:#382528;}
	.st1{fill:#FFFFFD;}
	.st2{fill:#EFAEA7;}
	.st3{fill:#0268A4;}
	.st4{opacity:0.18;fill:#201F39;}
	.st5{fill:#FFFFFF;}
	.st6{fill:#201F39;}
	.st7{fill:#3C3C4C;}
	.st8{opacity:0.57;fill:#201F39;}
	.st9{opacity:0.28;fill:#201F39;}
	.st10{opacity:0.14;fill:#191939;}
	.st11{fill:#191939;}
	.st12{opacity:0.25;fill:#201F39;}
	.st13{opacity:0.55;fill:none;stroke:#201F39;stroke-width:8.5435;stroke-miterlimit:10;}
	.st14{fill:#5E5E6D;}
	.st15{opacity:0.55;fill:none;stroke:#201F39;stroke-width:3.8764;stroke-miterlimit:10;}
	.st16{opacity:0.55;fill:none;stroke:#201F39;stroke-width:5.1062;stroke-miterlimit:10;}
	.st17{opacity:0.3;fill:#3C3C4C;}
	.st18{fill:#F2AD1D;}
	
		.st19{fill-rule:evenodd;clip-rule:evenodd;fill:none;stroke:#574C38;stroke-width:1.2336;stroke-linecap:round;stroke-linejoin:round;stroke-miterlimit:10;}
	.st20{fill:#3F372A;}
	
		.st21{fill-rule:evenodd;clip-rule:evenodd;fill:none;stroke:#3F372A;stroke-width:1.2336;stroke-linecap:round;stroke-linejoin:round;stroke-miterlimit:10;}
	.st22{opacity:0.71;}
	.st23{fill-rule:evenodd;clip-rule:evenodd;fill:#FFFFFF;}
</style>
<ellipse transform="matrix(0.2298 -0.9732 0.9732 0.2298 67.2108 736.3215)" class="st0" cx="498.8" cy="325.7" rx="20.9" ry="20.9"/>
<path class="st1" d="M665.4,133c-9.3,0-28.3,20.3-1.1,23.6c27.2,3.3,68.1,1.8,84.6,1.8c27,0.1,33.6-1.3,33.4-14.9
	c-0.1-7.9-3.6-13-17.8-15c-14.8-2.1-7.2-22.4-25.3-21.8c-15.4,0.5-16.9,27.1-31,20.6c-14.1-6.5-11.1,11.2-21.4,14.5
	C675.5,145.4,674.7,133,665.4,133z"/>
<path class="st2" d="M622.5,337.3c-3.5,2.6,3.3,2.7-2.2,4.2c-7.7,2.2-8.9,11.7-12.5,14.8c-3.2,2.7-3.3,4.8-12.4,4
	c-5.5-0.5-5.3-11.8-3.6-14.5c1.4-2.2-4.7,2.5-2.6-1.2c2-3.4,10.9-4,14.2-5.8c5.1-2.8,13.9-10.3,16.3-11
	C622.1,327.2,622.5,337.3,622.5,337.3z"/>
<path class="st3" d="M658.7,304.8c-6.4,6.6-49.4,25.4-51.5,26.7c-1.6,0.9,4.5,13.5,9.7,13.5c4.3,0,35.3-9.6,56.2-25.1
	c10-7.4,28.8-33.2,49.3-29.6c11.3,2-16-44-22.3-31.9C698.6,261.2,661.8,301.6,658.7,304.8z"/>
<path class="st4" d="M658.7,304.8c-6.4,6.6-49.4,25.4-51.5,26.7c-1.6,0.9,4.5,13.5,9.7,13.5c4.3,0,35.3-9.6,56.2-25.1
	c10-7.4,28.8-33.2,49.3-29.6c11.3,2-16-44-22.3-31.9C698.6,261.2,661.8,301.6,658.7,304.8z"/>
<path class="st5" d="M680.8,577.6c-0.3-5.9,0.9-20.9,0.9-20.9l16.6,0.1l-2,22.5l-11.3,6.7L680.8,577.6z"/>
<path class="st6" d="M679.6,575c-1.7-0.4-1,1.2-1.7,3.7c-1.5,5.7-23.3,5.8-26.6,6.3c-1.7,0.3-4.5,8.6,4,8.6c7.3,0,30.7,0.1,38.7,0
	c1.7,0,3.1-1.1,3.5-2.6c1.5-5.5,1.1-14-1.1-14.2C693,575.7,686.8,576.7,679.6,575z"/>
<g>
	<path class="st5" d="M836.9,558c-5-3.6-16.2-14.2-16.2-14.2l10.9-11.9l16.7,16l-1.9,12.5L836.9,558z"/>
	<path class="st6" d="M834.1,557.2c-1.4,1,0.3,1.5,1.9,3.6c3.6,4.8-10.5,20.6-12.2,23.3c-0.9,1.4,4,8.8,9.5,2.7
		c4.7-5.3,20-22.2,25.1-28c1.1-1.2,1.2-3,0.2-4.3c-3.5-4.6-10.5-9.9-12.1-8.4C843.4,547.9,840.1,553.1,834.1,557.2z"/>
</g>
<path class="st7" d="M729.4,346.8c-9.3,25-35.4,113.8-37.3,126.8c-1.9,13-13.1,87.4-12.5,91.8c16.2,3.3,22.8,2.7,22.8,2.7
	c1.9-10.9,7.3-68,15.2-86.5c7.9-18.5,31.5-72.6,31.5-72.6c5.2,23.9,7.9,52.2,17.8,77.3c15.4,32.6,57.8,65.5,57.8,65.5
	c11.8-7.1,19.3-13.6,17.4-14.1c-9.3-11.9-49.8-46.7-51.7-60.8c-1.9-14.1,2.2-83.8-3.2-118.1c-0.6-3.6-52.6-10.6-52.6-10.6
	L729.4,346.8z"/>
<path class="st8" d="M740.6,426.8c4.9-10.3,8.6-17.8,8.6-17.8c-1.4-7.2-2.5-15.6-2.5-15.6S741.5,414.5,740.6,426.8z"/>
<path class="st9" d="M790.2,407.2c-6.4-5.1-23.8-23.6-29.6-42.7l27.5-0.2C789.5,376.4,790,391.7,790.2,407.2z"/>
<path class="st2" d="M727,261.5l-15,9c0,0-11-4.7-8.9-8.4c1.6-2.8,1.7-6.4,1.2-9.6c-0.6-3.6-1.9-6.8-2.8-8.3
	c-0.6-1.1-1.1-1.4-1.4-1.6c-0.2-0.1-0.2-0.1-0.2-0.1l0.2-0.1l6-4.6l0.1-0.8l1.1-6.4c0,0,5.3,2.5,8.8,8.3
	C719.2,244.1,724.7,255.2,727,261.5z"/>
<path class="st10" d="M704.2,252.5c-0.6-3.6-1.9-6.8-2.8-8.3c-0.6-1.1-1.1-1.4-1.4-1.6c0-0.1-0.1-0.1-0.1-0.2
	c-2.1-5.4,4.8-5.8,4.8-5.8s0.6,0.1,1.4,0.4c1.2,0.4,2.9,1,3.8,2C713.8,243.2,713.6,252.4,704.2,252.5z"/>
<g>
	<path class="st2" d="M683.9,232c2.1,4.1,2.4,14.2,5.2,12.6c2.8-1.6,4.5,8.7,7.6,7.1c7.4-3.9,12.9-13,11.8-16.9
		c-1.2-3.8-7.5-12.8-7.5-12.8L683.9,232z"/>
	<path class="st11" d="M693.7,231.5c-2.1,1.6-1.9,2.1-3.9,2.3c-2.1,0.2-0.6-3.5-3.9-2.2s-6.7,2.9-9-0.1c-3.4-4.4,1.4-6.2,4.5-7.2
		c2-0.6,0.1-4.5,3.7-6.3c2.8-1.4,3.4,0.3,6-0.9c1.5-0.7,3-4.6,6.3-4.3c6.2,0.7,5.1,6.5,10.7,7.8c6.6,1.5,2.2,15.2,0.5,14.9
		c-2-0.4-2.7-5.5-4.6-5.7c-2.9-0.3-2.1,1.4-2.8,3.9c-0.8,2.6-4,4.5-3.8,0.3S695.6,230.1,693.7,231.5z"/>
</g>
<path class="st5" d="M721.9,246.1c-6.3,0.1-7.5,10.6-12.1,12.3c-2.8,1.1-2.3-4.2-4.1-5.1c-1.1-0.6-2.3-0.7-3,1.5
	C692,291,730.3,365.4,730.3,365.4s12.9,7.4,42.4-7.3c16.6-8.2,2-17.7,0.3-21.6c-1.8-3.9-34.8-79.6-34.8-79.6
	S732.9,251.3,721.9,246.1z"/>
<path class="st3" d="M794.5,354c-3.4-3-7.1-7.3-9.3-11.7c-6.6-13.4-2.3-13.6-7.5-23.3c-16-34.7-12.4-60.1-55.7-72.8
	c0.5,7.4-0.9,27.4,1,43.8c0.8,6.8,2.1,13,4.3,17.4c0,0.1,0.1,0.1,0.1,0.2c0,0,0,0,0,0c4.5,9.9,15.3,20.4,21,28.1
	c2,2.6,3.8,5.6,5.4,8.5c0.7,1.2,1.3,2.4,1.8,3.6c6,12.4,0,14.8,8.2,19.5c8.6,4.9,27.7,11.8,38.7-3.5
	C804.9,360.5,798.9,356.4,794.5,354z M797.5,356.3c0.4,0.2,0.7,0.4,0.9,0.6C798.1,356.7,797.8,356.5,797.5,356.3z"/>
<path class="st3" d="M696,301.4c2.3,5,9.9,11.9,12.4,18.8c3.1,8.4,3.6,14,4.2,17.4c1.4,7.8,7,30.9,12.2,37.4c5.5,6.9,8.1,4.3,10.7,0
	c4.5-7.3-5.1-34.5-13.5-53.8c-7.9-18.4-16.2-28.2-18.8-44.6c-2-12.4,0.1-23,0.1-23C685.3,266.1,694.7,298.6,696,301.4z"/>
<path class="st4" d="M696,301.4c2.3,5,9.9,11.9,12.4,18.8c3.1,8.4,3.6,14,4.2,17.4c1.4,7.8,7,30.9,12.2,37.4c5.5,6.9,8.1,4.3,10.7,0
	c4.5-7.3-5.1-34.5-13.5-53.8c-7.9-18.4-16.2-28.2-18.8-44.6c-2-12.4,0.1-23,0.1-23C685.3,266.1,694.7,298.6,696,301.4z"/>
<path class="st4" d="M753.9,344.1c-1.6-2.9-3.4-5.9-5.4-8.5c-5.7-7.6-16.6-18.2-21-28.1c0,0,0,0,0,0c0-0.1-0.1-0.1-0.1-0.2
	c-2.2-4.4-3.5-10.6-4.3-17.4l15.7-13C746.8,299,758.6,333,753.9,344.1z"/>
<path class="st5" d="M102.6,59.4c-15.5-0.3-31.8,3.1-47-0.5C50.1,57,45,52.6,44,46.8s3.6-12.4,9.4-12.1c3.2,0.2,6.6,2.1,9.4,0.6
	c3.9-2.2,2.1-8.4,4.3-12.3c5.1-8.1,18.3-0.1,24.4-6.5c1.8-1.9,2.4-4.7,3.8-7c7.1-13.6,26.9-10.6,33-3.7c4.4,4.8,4,13.4,9.7,16.4
	c6.1,3.2,14.8-2.9,20.2,2.5c3.9,3.9,1.6,7.8,3.9,11c2.5,3.5,7.6,3.5,11.8,3.3c4.3-0.2,9.4,0,11.6,3.7
	C193.4,69.5,112.8,58,102.6,59.4z"/>
<path class="st2" d="M619.8,352.5c2.4-2.6,0.9-4-3.4-6.1c-4.3-2.1-7.5-3.4-8.6-2.3c-1.1,1.1-3.7,4.9-0.6,7.2
	C610.3,353.5,618.6,353.8,619.8,352.5z"/>
<g>
	<path class="st3" d="M435.6,240.7c-1.9-0.5-3.2-2.1-3.4-4c-0.7-7.4-2-14.6-4-21.6c-0.5-1.9,0.2-4,1.9-5.1l17.1-11.6
		c1.8-1.2,2.5-3.6,1.7-5.6c-1.5-3.8-3.2-7.5-5-11.1c-1-1.9-3.1-2.9-5.2-2.4l-20.7,4.7c-1.9,0.4-3.8-0.4-4.9-2
		c-3.9-5.9-8.3-11.5-13.1-16.6c-1.4-1.4-1.7-3.6-0.7-5.4l9.8-18.3c1-1.9,0.6-4.3-1.1-5.7c-3.2-2.7-6.5-5.3-9.9-7.7
		c-1.7-1.2-4.1-1.2-5.7,0.2l-16.2,13.8c-1.5,1.2-3.6,1.5-5.2,0.5c-5.9-3.3-12.1-6.1-18.6-8.4c-1.9-0.7-3.1-2.4-3.1-4.4l0.2-20.8
		c0-2.2-1.5-4.1-3.6-4.6c-4.1-1-8.4-1.7-12.6-2.3c-2.1-0.3-4.2,0.9-5,2.9l-7.9,19.8c-0.7,1.7-2.4,2.9-4.2,2.9
		c-4.9,0.1-14.1,0.4-20,1c-1.9,0.2-3.7-0.8-4.6-2.5l-9.6-18.7c-1-1.9-3.2-2.9-5.3-2.4c-4.2,1.1-8.4,2.3-12.5,3.8
		c-2,0.7-3.3,2.7-3.1,4.9l2.1,21c0.2,1.9-0.8,3.8-2.6,4.6c-5.9,2.8-11.5,6.2-16.9,9.9c-1.6,1.1-3.7,1.1-5.3,0l-17.2-12.1
		c-1.8-1.2-4.1-1.1-5.7,0.3c-3.3,2.9-6.4,5.9-9.4,9.1c-1.5,1.6-1.7,4-0.5,5.8l11.6,17.5c1.1,1.6,1,3.8-0.2,5.3
		c-4,5.2-7.5,10.8-10.6,16.7c-0.9,1.7-2.8,2.7-4.7,2.4l-21-2.7c-2.1-0.3-4.2,0.9-4.9,2.9c-1.5,4-2.9,8.1-4.1,12.2
		c-0.6,2.1,0.3,4.3,2.2,5.4l18.3,10.1c1.7,0.9,2.6,2.8,2.4,4.7c-0.9,6.3-1.4,15.6-1.7,20.4c-0.1,1.9-1.3,3.5-3,4.1l-20,7.4
		c-2,0.7-3.2,2.8-3,4.9c0.5,4.2,1.1,8.3,1.9,12.4c0.4,2.1,2.3,3.7,4.5,3.7l20.7,0.4c2,0,3.7,1.3,4.3,3.2c2.1,6.7,4.8,13.2,8.1,19.4
		c0.9,1.7,0.6,3.8-0.7,5.2l-14.2,15.8c-1.4,1.6-1.6,3.9-0.4,5.7c2.3,3.4,4.7,6.6,7.3,9.8c1.4,1.7,3.7,2.2,5.7,1.2l18.5-9.3
		c1.8-0.9,3.9-0.5,5.3,0.9c5.2,5.1,10.8,9.8,16.8,14c1.6,1.1,2.3,3.1,1.9,5l-5.2,20.5c-0.5,2.1,0.4,4.2,2.3,5.2
		c3.5,1.9,7,3.6,10.6,5.1c2,0.9,4.3,0.2,5.6-1.6l12.1-16.8c1.2-1.6,3.2-2.3,5.1-1.7c7.1,2.2,14.5,3.7,22.1,4.6
		c1.9,0.2,3.5,1.6,4,3.5l4.9,20.5c0.5,2.1,2.3,3.5,4.4,3.5h0c3.9,0,7.8-0.2,11.6-0.5c2.2-0.2,3.9-1.8,4.2-4l2.9-20.6
		c0.3-2,1.8-3.5,3.7-3.9c7.6-1.4,15-3.6,22.1-6.4c1.8-0.7,3.9-0.2,5.2,1.3l13.8,15.8c1.4,1.6,3.8,2.1,5.7,1c3.4-1.8,6.7-3.7,9.9-5.8
		c1.8-1.2,2.6-3.4,1.9-5.5l-7-19.7c-0.7-1.9-0.1-3.9,1.4-5.2c6-4.8,11.5-10.2,16.4-16.1c1.3-1.5,3.4-2,5.2-1.3l19.4,7.5
		c2,0.8,4.3,0.1,5.5-1.7c2.1-3.2,4.2-6.5,6-9.8c1.1-1.9,0.7-4.2-0.9-5.7l-15.5-14.2c-1.4-1.3-1.9-3.4-1.1-5.2
		c2.9-6.9,5.2-14.1,6.8-21.6c0.4-1.9,2-3.4,4-3.6l20.6-2.3c2.2-0.2,3.9-2,4.1-4.1c0.5-4.9,0.7-9.9,0.7-14.9v-0.5L435.6,240.7z
		 M334.6,248.3c0,0.9-0.1,1.8-0.2,2.7c-0.3,2.6-1.1,5-2.3,7.3c-0.4,0.8-0.9,1.6-1.4,2.3c-1.5,2.1-3.4,3.9-5.5,5.4
		c-0.8,0.5-1.6,1-2.4,1.4c-2.3,1.1-4.7,1.9-7.4,2.2c-0.7,0.1-1.5,0.1-2.2,0.1c-0.2,0-0.4,0-0.5,0c-2.6-0.1-5.2-0.6-7.5-1.5
		c-0.9-0.3-1.7-0.8-2.5-1.2c-2.2-1.2-4.2-2.9-5.8-4.8c-0.6-0.7-1.2-1.5-1.7-2.3c-1.3-2.1-2.3-4.4-2.9-6.8c-0.2-0.9-0.4-1.9-0.4-2.9
		c-0.1-0.6-0.1-1.2-0.1-1.8c0-1.9,0.2-3.7,0.7-5.4c0.2-1,0.6-1.9,0.9-2.8c0.9-2.2,2.2-4.3,3.8-6.1c0.7-0.7,1.4-1.4,2.1-2.1
		c1.8-1.5,3.9-2.8,6.2-3.6c0.9-0.3,1.9-0.6,2.8-0.9c1.5-0.3,3.1-0.5,4.7-0.5c0.8,0,1.7,0,2.5,0.1c1,0.1,2,0.3,2.9,0.5
		c2.4,0.6,4.6,1.7,6.6,3c0.8,0.5,1.6,1.1,2.3,1.8c1.8,1.7,3.4,3.6,4.6,5.8c0.4,0.8,0.8,1.7,1.2,2.6
		C334.1,243.1,334.6,245.6,334.6,248.3L334.6,248.3z"/>
	<path class="st12" d="M393.7,248v0.3c0,3.5-0.2,6.9-0.6,10.3c-1.2,9.8-4.2,19-8.7,27.4c-1.6,3.1-3.4,6-5.4,8.8
		c-5.6,7.9-12.6,14.8-20.7,20.2c-2.8,1.9-5.8,3.7-8.9,5.2c-8.5,4.3-17.9,7.1-27.8,8.1c-2.8,0.3-5.6,0.4-8.4,0.4c-0.7,0-1.3,0-2,0
		c-9.9-0.2-19.4-2.3-28.1-5.8c-3.3-1.3-6.5-2.9-9.5-4.6c-8.3-4.7-15.7-10.8-21.8-18c-2.3-2.7-4.5-5.6-6.4-8.6
		c-5-7.7-8.7-16.4-10.8-25.7c-0.8-3.5-1.4-7.1-1.7-10.8c-0.2-2.3-0.3-4.6-0.3-7c0-7,0.9-13.9,2.6-20.4c0.9-3.6,2.1-7.1,3.5-10.5
		c3.5-8.5,8.4-16.2,14.5-22.9c2.5-2.8,5.2-5.4,8.1-7.8c6.9-5.8,14.7-10.5,23.3-13.7c3.5-1.3,7.1-2.4,10.7-3.2c5.7-1.3,11.7-2,17.8-2
		c3.1,0,6.2,0.2,9.3,0.5c3.7,0.4,7.4,1.1,10.9,2c9.1,2.3,17.5,6.2,25,11.3c3,2.1,5.9,4.3,8.6,6.8c6.9,6.2,12.8,13.7,17.2,22
		c1.7,3.1,3.2,6.4,4.4,9.8C391.9,228.8,393.7,238.2,393.7,248z"/>
	<path class="st13" d="M355.1,248.1v0.1c0,1.8-0.1,3.6-0.3,5.3c-0.6,5.1-2.2,9.9-4.5,14.3c-0.8,1.6-1.8,3.1-2.8,4.6
		c-2.9,4.1-6.6,7.7-10.8,10.5c-1.5,1-3,1.9-4.6,2.7c-4.4,2.2-9.3,3.7-14.4,4.2c-1.4,0.1-2.9,0.2-4.4,0.2c-0.3,0-0.7,0-1,0
		c-5.2-0.1-10.1-1.2-14.6-3c-1.7-0.7-3.4-1.5-4.9-2.4c-4.3-2.4-8.2-5.6-11.3-9.4c-1.2-1.4-2.3-2.9-3.3-4.5c-2.6-4-4.5-8.5-5.6-13.4
		c-0.4-1.8-0.7-3.7-0.9-5.6c-0.1-1.2-0.2-2.4-0.2-3.6c0-3.7,0.5-7.2,1.4-10.6c0.5-1.9,1.1-3.7,1.8-5.5c1.8-4.4,4.4-8.4,7.5-11.9
		c1.3-1.5,2.7-2.8,4.2-4.1c3.6-3,7.7-5.4,12.1-7.1c1.8-0.7,3.7-1.2,5.6-1.7c3-0.7,6.1-1,9.3-1c1.6,0,3.2,0.1,4.8,0.3
		c1.9,0.2,3.8,0.6,5.7,1.1c4.7,1.2,9.1,3.2,13,5.9c1.6,1.1,3.1,2.2,4.5,3.5c3.6,3.2,6.7,7.1,9,11.4c0.9,1.6,1.6,3.3,2.3,5.1
		C354.2,238.1,355.1,243,355.1,248.1z"/>
	<path class="st12" d="M383.8,209.5c-3.3-4.5-7.1-8.7-11.2-12.4c-2.7-2.4-5.6-4.7-8.6-6.8c-7.5-5.1-16-9-25-11.3
		c-3.6-0.9-7.2-1.6-10.9-2c-3-0.3-6.1-0.5-9.3-0.5c-6.1,0-12.1,0.7-17.8,2c-3.7,0.8-7.3,1.9-10.7,3.2c-8.6,3.3-16.4,7.9-23.3,13.7
		c-2.9,2.4-5.6,5-8.1,7.8c-6,6.7-11,14.5-14.5,22.9c-1.4,3.4-2.6,6.9-3.5,10.5c-1.7,6.5-2.6,13.3-2.6,20.4c0,2.3,0.1,4.7,0.3,6.9
		c0.3,3.7,0.9,7.3,1.7,10.8c1.7,7.4,4.4,14.4,7.9,20.9c-0.9-1.3-1.9-2.6-2.7-4c-5-7.8-8.7-16.4-10.8-25.7c-0.8-3.5-1.4-7.1-1.7-10.8
		c-0.2-2.3-0.3-4.6-0.3-7c0-7,0.9-13.9,2.6-20.4c0.9-3.6,2.1-7.1,3.6-10.5c3.5-8.5,8.4-16.2,14.5-22.9c2.5-2.8,5.2-5.4,8.1-7.8
		c6.9-5.8,14.7-10.4,23.3-13.7c3.5-1.3,7.1-2.4,10.7-3.2c5.7-1.3,11.7-2,17.8-2c3.1,0,6.2,0.2,9.3,0.5c3.7,0.4,7.4,1.1,10.9,2
		c9.1,2.3,17.5,6.2,25,11.3c3,2.1,5.9,4.3,8.6,6.7C373.7,194.4,379.4,201.5,383.8,209.5z"/>
</g>
<g>
	<path class="st14" d="M554.3,322.3c-0.9-0.2-1.5-1-1.6-1.8c-0.3-3.4-0.9-6.6-1.8-9.8c-0.2-0.9,0.1-1.8,0.8-2.3l7.8-5.3
		c0.8-0.6,1.1-1.6,0.8-2.5c-0.7-1.7-1.4-3.4-2.3-5c-0.4-0.9-1.4-1.3-2.3-1.1l-9.4,2.1c-0.9,0.2-1.7-0.2-2.2-0.9
		c-1.8-2.7-3.7-5.2-5.9-7.5c-0.6-0.7-0.8-1.6-0.3-2.4l4.4-8.3c0.5-0.9,0.3-2-0.5-2.6c-1.4-1.2-2.9-2.4-4.5-3.5
		c-0.8-0.6-1.9-0.5-2.6,0.1l-7.3,6.2c-0.7,0.6-1.6,0.7-2.4,0.2c-2.7-1.5-5.5-2.8-8.4-3.8c-0.8-0.3-1.4-1.1-1.4-2l0.1-9.5
		c0-1-0.7-1.8-1.6-2.1c-1.9-0.4-3.8-0.8-5.7-1.1c-1-0.1-1.9,0.4-2.3,1.3l-3.6,9c-0.3,0.8-1.1,1.3-1.9,1.3c-2.2,0-6.4,0.2-9.1,0.5
		c-0.9,0.1-1.7-0.4-2.1-1.1l-4.4-8.5c-0.5-0.9-1.4-1.3-2.4-1.1c-1.9,0.5-3.8,1.1-5.7,1.7c-0.9,0.3-1.5,1.2-1.4,2.2l1,9.5
		c0.1,0.9-0.4,1.7-1.2,2.1c-2.7,1.3-5.2,2.8-7.6,4.5c-0.7,0.5-1.7,0.5-2.4,0l-7.8-5.5c-0.8-0.6-1.9-0.5-2.6,0.2
		c-1.5,1.3-2.9,2.7-4.3,4.1c-0.7,0.7-0.8,1.8-0.2,2.6l5.3,7.9c0.5,0.7,0.5,1.7-0.1,2.4c-1.8,2.4-3.4,4.9-4.8,7.6
		c-0.4,0.8-1.3,1.2-2.1,1.1l-9.5-1.2c-1-0.1-1.9,0.4-2.2,1.3c-0.7,1.8-1.3,3.7-1.9,5.5c-0.3,0.9,0.1,2,1,2.4l8.3,4.6
		c0.8,0.4,1.2,1.3,1.1,2.1c-0.4,2.9-0.7,7.1-0.8,9.2c0,0.8-0.6,1.6-1.4,1.9l-9.1,3.4c-0.9,0.3-1.5,1.2-1.4,2.2
		c0.2,1.9,0.5,3.8,0.9,5.6c0.2,1,1,1.7,2,1.7l9.4,0.2c0.9,0,1.7,0.6,2,1.5c1,3.1,2.2,6,3.7,8.8c0.4,0.8,0.3,1.7-0.3,2.4l-6.4,7.2
		c-0.6,0.7-0.7,1.8-0.2,2.6c1,1.5,2.1,3,3.3,4.4c0.6,0.8,1.7,1,2.6,0.6l8.4-4.2c0.8-0.4,1.8-0.2,2.4,0.4c2.3,2.3,4.9,4.5,7.6,6.3
		c0.7,0.5,1.1,1.4,0.8,2.2l-2.4,9.3c-0.2,0.9,0.2,1.9,1.1,2.4c1.6,0.8,3.2,1.6,4.8,2.3c0.9,0.4,2,0.1,2.6-0.7l5.5-7.6
		c0.5-0.7,1.5-1,2.3-0.8c3.2,1,6.6,1.7,10,2.1c0.9,0.1,1.6,0.7,1.8,1.6l2.2,9.3c0.2,0.9,1.1,1.6,2,1.6h0c1.8,0,3.5-0.1,5.3-0.2
		c1-0.1,1.8-0.8,1.9-1.8l1.3-9.3c0.1-0.9,0.8-1.6,1.7-1.8c3.5-0.7,6.8-1.6,10-2.9c0.8-0.3,1.8-0.1,2.4,0.6l6.2,7.2
		c0.6,0.7,1.7,0.9,2.6,0.5c1.5-0.8,3-1.7,4.5-2.6c0.8-0.5,1.2-1.6,0.9-2.5l-3.2-8.9c-0.3-0.8,0-1.8,0.7-2.3c2.7-2.2,5.2-4.6,7.5-7.3
		c0.6-0.7,1.5-0.9,2.4-0.6l8.8,3.4c0.9,0.4,2,0,2.5-0.8c1-1.4,1.9-2.9,2.7-4.5c0.5-0.9,0.3-1.9-0.4-2.6l-7-6.5
		c-0.7-0.6-0.9-1.5-0.5-2.4c1.3-3.1,2.4-6.4,3.1-9.8c0.2-0.9,0.9-1.5,1.8-1.6l9.3-1.1c1-0.1,1.8-0.9,1.9-1.9
		c0.2-2.2,0.3-4.5,0.3-6.8v-0.2L554.3,322.3z M508.5,325.7c0,0.4,0,0.8-0.1,1.2c-0.2,1.2-0.5,2.3-1,3.3c-0.2,0.4-0.4,0.7-0.7,1.1
		c-0.7,1-1.5,1.8-2.5,2.4c-0.3,0.2-0.7,0.4-1.1,0.6c-1,0.5-2.1,0.9-3.3,1c-0.3,0-0.7,0.1-1,0.1c-0.1,0-0.2,0-0.2,0
		c-1.2,0-2.3-0.3-3.4-0.7c-0.4-0.2-0.8-0.3-1.1-0.6c-1-0.6-1.9-1.3-2.6-2.2c-0.3-0.3-0.5-0.7-0.8-1c-0.6-0.9-1-2-1.3-3.1
		c-0.1-0.4-0.2-0.9-0.2-1.3c0-0.3,0-0.6,0-0.8c0-0.8,0.1-1.7,0.3-2.5c0.1-0.4,0.3-0.9,0.4-1.3c0.4-1,1-2,1.7-2.8
		c0.3-0.3,0.6-0.6,1-0.9c0.8-0.7,1.8-1.3,2.8-1.6c0.4-0.2,0.9-0.3,1.3-0.4c0.7-0.2,1.4-0.2,2.1-0.2c0.4,0,0.8,0,1.1,0.1
		c0.4,0.1,0.9,0.1,1.3,0.2c1.1,0.3,2.1,0.8,3,1.4c0.4,0.2,0.7,0.5,1,0.8c0.8,0.8,1.5,1.6,2.1,2.6c0.2,0.4,0.4,0.8,0.5,1.2
		C508.3,323.4,508.5,324.5,508.5,325.7L508.5,325.7z"/>
	<path class="st12" d="M535.3,325.6v0.1c0,1.6-0.1,3.1-0.3,4.7c-0.6,4.4-1.9,8.6-3.9,12.4c-0.7,1.4-1.6,2.7-2.5,4
		c-2.5,3.6-5.7,6.7-9.4,9.2c-1.3,0.9-2.6,1.7-4,2.4c-3.9,1.9-8.1,3.2-12.6,3.7c-1.3,0.1-2.5,0.2-3.8,0.2c-0.3,0-0.6,0-0.9,0
		c-4.5-0.1-8.8-1-12.8-2.6c-1.5-0.6-2.9-1.3-4.3-2.1c-3.8-2.1-7.1-4.9-9.9-8.2c-1.1-1.2-2-2.6-2.9-3.9c-2.3-3.5-3.9-7.4-4.9-11.6
		c-0.4-1.6-0.6-3.2-0.8-4.9c-0.1-1-0.1-2.1-0.1-3.2c0-3.2,0.4-6.3,1.2-9.2c0.4-1.6,1-3.2,1.6-4.8c1.6-3.8,3.8-7.4,6.6-10.4
		c1.1-1.3,2.4-2.4,3.7-3.5c3.1-2.6,6.7-4.7,10.6-6.2c1.6-0.6,3.2-1.1,4.9-1.5c2.6-0.6,5.3-0.9,8.1-0.9c1.4,0,2.8,0.1,4.2,0.2
		c1.7,0.2,3.3,0.5,5,0.9c4.1,1.1,7.9,2.8,11.4,5.1c1.4,0.9,2.7,2,3.9,3.1c3.1,2.8,5.8,6.2,7.8,10c0.8,1.4,1.4,2.9,2,4.4
		C534.5,316.9,535.3,321.1,535.3,325.6z"/>
	<path class="st15" d="M517.8,325.6L517.8,325.6c0,0.9-0.1,1.7-0.2,2.5c-0.3,2.3-1,4.5-2,6.5c-0.4,0.7-0.8,1.4-1.3,2.1
		c-1.3,1.9-3,3.5-4.9,4.8c-0.7,0.5-1.4,0.9-2.1,1.2c-2,1-4.2,1.7-6.6,1.9c-0.7,0.1-1.3,0.1-2,0.1c-0.2,0-0.3,0-0.5,0
		c-2.3-0.1-4.6-0.5-6.6-1.4c-0.8-0.3-1.5-0.7-2.2-1.1c-2-1.1-3.7-2.6-5.1-4.3c-0.5-0.6-1.1-1.3-1.5-2c-1.2-1.8-2-3.9-2.5-6.1
		c-0.2-0.8-0.3-1.7-0.4-2.6c0-0.5-0.1-1.1-0.1-1.6c0-1.7,0.2-3.3,0.6-4.8c0.2-0.9,0.5-1.7,0.8-2.5c0.8-2,2-3.8,3.4-5.4
		c0.6-0.7,1.2-1.3,1.9-1.8c1.6-1.4,3.5-2.5,5.5-3.2c0.8-0.3,1.7-0.6,2.5-0.8c1.4-0.3,2.8-0.5,4.2-0.5c0.7,0,1.5,0,2.2,0.1
		c0.9,0.1,1.7,0.3,2.6,0.5c2.1,0.6,4.1,1.5,5.9,2.7c0.7,0.5,1.4,1,2,1.6c1.6,1.5,3,3.2,4.1,5.2c0.4,0.7,0.7,1.5,1,2.3
		C517.4,321.1,517.8,323.3,517.8,325.6z"/>
	<path class="st12" d="M530.8,308.1c-1.5-2-3.2-3.9-5.1-5.6c-1.2-1.1-2.5-2.1-3.9-3.1c-3.4-2.3-7.2-4.1-11.4-5.1
		c-1.6-0.4-3.3-0.7-5-0.9c-1.4-0.2-2.8-0.2-4.2-0.2c-2.8,0-5.5,0.3-8.1,0.9c-1.7,0.4-3.3,0.9-4.9,1.5c-3.9,1.5-7.4,3.6-10.6,6.2
		c-1.3,1.1-2.5,2.3-3.7,3.5c-2.7,3-5,6.6-6.6,10.4c-0.6,1.5-1.2,3.1-1.6,4.8c-0.8,3-1.2,6-1.2,9.2c0,1.1,0,2.1,0.1,3.2
		c0.1,1.7,0.4,3.3,0.8,4.9c0.8,3.4,2,6.6,3.6,9.5c-0.4-0.6-0.8-1.2-1.2-1.8c-2.3-3.5-3.9-7.4-4.9-11.7c-0.4-1.6-0.6-3.2-0.8-4.9
		c-0.1-1-0.1-2.1-0.1-3.2c0-3.2,0.4-6.3,1.2-9.2c0.4-1.6,1-3.2,1.6-4.8c1.6-3.8,3.8-7.4,6.6-10.4c1.1-1.3,2.4-2.4,3.7-3.5
		c3.1-2.6,6.7-4.7,10.6-6.2c1.6-0.6,3.2-1.1,4.9-1.5c2.6-0.6,5.3-0.9,8.1-0.9c1.4,0,2.8,0.1,4.2,0.2c1.7,0.2,3.3,0.5,5,0.9
		c4.1,1.1,7.9,2.8,11.4,5.1c1.4,0.9,2.7,2,3.9,3.1C526.3,301.3,528.8,304.5,530.8,308.1z"/>
</g>
<g>
	<path class="st3" d="M559.7,124.7c0.6-0.1,1.1-0.5,1.2-1.1c1.8-7.1,2.8-14.5,2.8-22.2c0,0,0,0,0,0c0-0.6-0.3-1.1-0.8-1.3l-18-8.2
		c-0.4-0.2-0.7-0.6-0.8-1.1c-0.6-3.8-1.4-7.6-2.6-11.2c-0.2-0.5,0-1.1,0.3-1.4L555,65.1c0.4-0.4,0.5-1.1,0.3-1.6
		c-3.4-7.3-7.7-14-12.9-20.1c-0.4-0.4-0.9-0.6-1.5-0.4l-19.1,5.3c-0.5,0.1-0.9,0-1.3-0.3c-2.1-1.8-4.3-3.6-6.6-5.1
		c-0.4-0.3-0.7-0.8-0.6-1.3l1.7-19c0.1-0.6-0.3-1.1-0.8-1.4c-7.3-3.7-15.2-6.4-23.5-8c-0.5-0.1-1.1,0.1-1.4,0.6l-11.1,16.1
		c-0.3,0.4-0.7,0.6-1.2,0.6c-1.1,0-2.2-0.1-3.3-0.1c-1.3,0-2.6,0-3.9,0.1c-0.5,0-1-0.2-1.2-0.6l-11.2-16c-0.3-0.5-0.9-0.7-1.4-0.6
		c-8.3,1.7-16.2,4.5-23.4,8.2c-0.5,0.3-0.8,0.8-0.8,1.4l1.8,19c0,0.5-0.2,1-0.6,1.3c-2.3,1.6-4.4,3.3-6.5,5.1
		c-0.4,0.3-0.8,0.4-1.3,0.3l-19.1-5.1c-0.5-0.1-1.1,0-1.5,0.5c-5.1,6.1-9.4,12.9-12.7,20.3c-0.2,0.5-0.1,1.2,0.3,1.6l13.3,13.1
		c0.4,0.4,0.5,0.9,0.4,1.4c-1.1,3.6-1.9,7.2-2.5,11c-0.1,0.5-0.4,0.9-0.8,1.1l-17.9,8.4c-0.3,0.5-0.5,0.8-0.8,1.3
		c0,7.7,1.1,15.1,2.9,22.3c0.2,0.6,0.7,1,1.3,1l18.4,1.5c0.5,0,1,0.4,1.2,0.9c1.8,4.6,4.1,9,6.9,13.1c0.3,0.4,0.3,0.9,0.1,1.4
		l-8.2,17.6c-0.2,0.5-0.2,1.1,0.2,1.5c4.7,5.3,10,10,15.8,14c0.5,0.3,1.1,0.3,1.6,0l15.1-10.8c0.4-0.3,1-0.3,1.5-0.1
		c5,2.6,10.4,4.7,16,6.1c0.5,0.1,0.9,0.5,1,1l4.9,18.3c0.2,0.6,0.6,1,1.2,1c3.3,0.4,6.6,0.6,10,0.6c3.6,0,7.1-0.2,10.5-0.6
		c0.6-0.1,1.1-0.5,1.2-1.1l4.8-18.3c0.1-0.5,0.5-0.9,1-1c5.6-1.4,11-3.5,16-6.2c0.5-0.3,1-0.2,1.5,0.1L524,175
		c0.5,0.3,1.1,0.3,1.6,0c5.7-4.1,11-8.8,15.6-14c0.4-0.4,0.5-1,0.2-1.5l-8.3-17.5c-0.2-0.4-0.2-1,0.1-1.4c2.7-4.1,5-8.6,6.8-13.3
		c0.2-0.5,0.7-0.9,1.2-0.9L559.7,124.7z"/>
	<g>
		<path class="st12" d="M521.9,102.1v0.2c0,2.1-0.1,4.1-0.4,6.1c-0.7,5.8-2.5,11.4-5.2,16.4c-1,1.8-2.1,3.6-3.3,5.3
			c-3.4,4.7-7.5,8.8-12.4,12.1c-1.7,1.2-3.5,2.2-5.3,3.1c-5.1,2.6-10.7,4.2-16.6,4.9c-1.7,0.2-3.3,0.3-5,0.3c-0.4,0-0.8,0-1.2,0
			c-5.9-0.1-11.6-1.4-16.8-3.5c-2-0.8-3.9-1.7-5.7-2.7c-5-2.8-9.4-6.5-13-10.8c-1.4-1.6-2.7-3.4-3.8-5.2c-3-4.6-5.2-9.8-6.4-15.3
			c-0.5-2.1-0.8-4.3-1-6.5c-0.1-1.4-0.2-2.8-0.2-4.2c0-4.2,0.5-8.3,1.6-12.2c0.6-2.2,1.3-4.3,2.1-6.3c2.1-5.1,5-9.7,8.7-13.7
			c1.5-1.7,3.1-3.2,4.8-4.7c4.1-3.5,8.8-6.2,13.9-8.2c2.1-0.8,4.2-1.4,6.4-1.9c3.4-0.8,7-1.2,10.6-1.2c1.9,0,3.7,0.1,5.6,0.3
			c2.2,0.3,4.4,0.7,6.5,1.2c5.4,1.4,10.5,3.7,15,6.8c1.8,1.2,3.5,2.6,5.1,4c4.1,3.7,7.6,8.2,10.3,13.1c1,1.9,1.9,3.8,2.6,5.8
			C520.8,90.6,521.9,96.2,521.9,102.1z"/>
		<path class="st16" d="M498.8,102.2L498.8,102.2c0,1.2-0.1,2.2-0.2,3.3c-0.4,3-1.3,5.9-2.7,8.5c-0.5,1-1.1,1.9-1.7,2.8
			c-1.7,2.5-3.9,4.6-6.4,6.3c-0.9,0.6-1.8,1.1-2.8,1.6c-2.6,1.3-5.6,2.2-8.6,2.5c-0.9,0.1-1.7,0.1-2.6,0.1c-0.2,0-0.4,0-0.6,0
			c-3.1-0.1-6-0.7-8.7-1.8c-1-0.4-2-0.9-3-1.4c-2.6-1.5-4.9-3.4-6.8-5.6c-0.7-0.8-1.4-1.7-2-2.7c-1.5-2.4-2.7-5.1-3.3-8
			c-0.2-1.1-0.4-2.2-0.5-3.4c-0.1-0.7-0.1-1.4-0.1-2.2c0-2.2,0.3-4.3,0.8-6.3c0.3-1.1,0.7-2.2,1.1-3.3c1.1-2.6,2.6-5,4.5-7.1
			c0.8-0.9,1.6-1.7,2.5-2.4c2.1-1.8,4.6-3.3,7.2-4.3c1.1-0.4,2.2-0.7,3.3-1c1.8-0.4,3.6-0.6,5.5-0.6c1,0,1.9,0.1,2.9,0.2
			c1.2,0.1,2.3,0.3,3.4,0.6c2.8,0.7,5.4,1.9,7.8,3.5c0.9,0.6,1.8,1.3,2.7,2.1c2.2,1.9,4,4.2,5.4,6.8c0.5,1,1,2,1.4,3
			C498.2,96.2,498.8,99.1,498.8,102.2z"/>
		<path class="st12" d="M515.9,79.1c-2-2.7-4.2-5.2-6.7-7.4c-1.6-1.5-3.3-2.8-5.1-4c-4.5-3.1-9.5-5.4-15-6.8c-2.1-0.5-4.3-1-6.5-1.2
			c-1.8-0.2-3.7-0.3-5.6-0.3c-3.7,0-7.2,0.4-10.6,1.2c-2.2,0.5-4.3,1.1-6.4,1.9c-5.1,1.9-9.8,4.7-13.9,8.2c-1.7,1.4-3.3,3-4.8,4.7
			c-3.6,4-6.6,8.6-8.7,13.7c-0.8,2-1.6,4.1-2.1,6.3c-1,3.9-1.5,8-1.5,12.2c0,1.4,0.1,2.8,0.2,4.2c0.2,2.2,0.5,4.4,1,6.5
			c1,4.4,2.6,8.6,4.7,12.5c-0.6-0.8-1.1-1.6-1.6-2.4c-3-4.6-5.2-9.8-6.4-15.3c-0.5-2.1-0.8-4.3-1-6.5c-0.1-1.4-0.2-2.8-0.2-4.2
			c0-4.2,0.5-8.3,1.5-12.2c0.6-2.2,1.3-4.3,2.1-6.3c2.1-5.1,5-9.7,8.7-13.7c1.5-1.7,3.1-3.2,4.8-4.7c4.1-3.5,8.8-6.2,13.9-8.2
			c2.1-0.8,4.2-1.4,6.4-1.9c3.4-0.8,7-1.2,10.7-1.2c1.9,0,3.7,0.1,5.5,0.3c2.2,0.3,4.4,0.7,6.5,1.2c5.4,1.4,10.5,3.7,15,6.8
			c1.8,1.2,3.5,2.6,5.1,4C509.9,70.1,513.3,74.3,515.9,79.1z"/>
	</g>
</g>
<g>
	<path class="st14" d="M175.9,309.5c0.6-0.1,1.1-0.5,1.2-1.1c1.8-7.1,2.8-14.5,2.8-22.2c0,0,0,0,0,0c0-0.6-0.3-1.1-0.8-1.3l-18-8.2
		c-0.4-0.2-0.7-0.6-0.8-1.1c-0.6-3.8-1.4-7.6-2.6-11.2c-0.2-0.5,0-1.1,0.3-1.4l13.2-13.2c0.4-0.4,0.5-1.1,0.3-1.6
		c-3.4-7.3-7.7-14-12.9-20.1c-0.4-0.4-0.9-0.6-1.5-0.4l-19.1,5.3c-0.5,0.1-0.9,0-1.3-0.3c-2.1-1.8-4.3-3.6-6.6-5.1
		c-0.4-0.3-0.7-0.8-0.6-1.3l1.7-19c0.1-0.6-0.3-1.1-0.8-1.4c-7.3-3.7-15.2-6.4-23.5-8c-0.5-0.1-1.1,0.1-1.4,0.6l-11.1,16.1
		c-0.3,0.4-0.7,0.6-1.2,0.6c-1.1,0-2.2-0.1-3.3-0.1c-1.3,0-2.6,0-3.9,0.1c-0.5,0-1-0.2-1.2-0.6l-11.2-16c-0.3-0.5-0.9-0.7-1.4-0.6
		c-8.3,1.7-16.2,4.5-23.4,8.2c-0.5,0.3-0.8,0.8-0.8,1.4l1.8,19c0,0.5-0.2,1-0.6,1.3c-2.3,1.6-4.4,3.3-6.5,5.1
		c-0.4,0.3-0.8,0.4-1.3,0.3l-19.1-5.1c-0.5-0.1-1.1,0-1.5,0.5c-5.1,6.1-9.4,12.9-12.7,20.3c-0.2,0.5-0.1,1.2,0.3,1.6l13.3,13.1
		c0.4,0.4,0.5,0.9,0.4,1.4c-1.1,3.6-1.9,7.2-2.5,11c-0.1,0.5-0.4,0.9-0.8,1.1l-17.9,8.4c-0.3,0.5-0.5,0.8-0.8,1.3
		c0,7.7,1.1,15.1,2.9,22.3c0.2,0.6,0.7,1,1.3,1l18.4,1.5c0.5,0,1,0.4,1.2,0.9c1.8,4.6,4.1,9,6.9,13.1c0.3,0.4,0.3,0.9,0.1,1.4
		l-8.2,17.6c-0.2,0.5-0.2,1.1,0.2,1.5c4.7,5.3,10,10,15.8,14c0.5,0.3,1.1,0.3,1.6,0l15.1-10.8c0.4-0.3,1-0.3,1.5-0.1
		c5,2.6,10.4,4.7,16,6.1c0.5,0.1,0.9,0.5,1,1l4.9,18.3c0.2,0.6,0.6,1,1.2,1c3.3,0.4,6.6,0.6,10,0.6c3.6,0,7.1-0.2,10.5-0.6
		c0.6-0.1,1.1-0.5,1.2-1.1l4.8-18.3c0.1-0.5,0.5-0.9,1-1c5.6-1.4,11-3.5,16-6.2c0.5-0.3,1-0.2,1.5,0.1l15.2,10.7
		c0.5,0.3,1.1,0.3,1.6,0c5.7-4.1,11-8.8,15.6-14c0.4-0.4,0.5-1,0.2-1.5l-8.3-17.5c-0.2-0.4-0.2-1,0.1-1.4c2.7-4.1,5-8.6,6.8-13.3
		c0.2-0.5,0.7-0.9,1.2-0.9L175.9,309.5z"/>
	<g>
		<path class="st12" d="M138.1,286.9v0.2c0,2.1-0.1,4.1-0.4,6.1c-0.7,5.8-2.5,11.4-5.2,16.4c-1,1.8-2.1,3.6-3.3,5.3
			c-3.4,4.7-7.5,8.8-12.4,12.1c-1.7,1.2-3.5,2.2-5.3,3.1c-5.1,2.6-10.7,4.2-16.6,4.9c-1.7,0.2-3.3,0.3-5,0.3c-0.4,0-0.8,0-1.2,0
			c-5.9-0.1-11.6-1.4-16.8-3.5c-2-0.8-3.9-1.7-5.7-2.7c-5-2.8-9.4-6.5-13-10.8c-1.4-1.6-2.7-3.4-3.8-5.2c-3-4.6-5.2-9.8-6.4-15.3
			c-0.5-2.1-0.8-4.3-1-6.5c-0.1-1.4-0.2-2.8-0.2-4.2c0-4.2,0.5-8.3,1.6-12.2c0.6-2.2,1.3-4.3,2.1-6.3c2.1-5.1,5-9.7,8.7-13.7
			c1.5-1.7,3.1-3.2,4.8-4.7c4.1-3.5,8.8-6.2,13.9-8.2c2.1-0.8,4.2-1.4,6.4-1.9c3.4-0.8,7-1.2,10.6-1.2c1.9,0,3.7,0.1,5.6,0.3
			c2.2,0.3,4.4,0.7,6.5,1.2c5.4,1.4,10.5,3.7,15,6.8c1.8,1.2,3.5,2.6,5.1,4c4.1,3.7,7.6,8.2,10.3,13.1c1,1.9,1.9,3.8,2.6,5.8
			C137,275.4,138.1,281,138.1,286.9z"/>
		<path class="st16" d="M115,287L115,287c0,1.2-0.1,2.2-0.2,3.3c-0.4,3-1.3,5.9-2.7,8.5c-0.5,1-1.1,1.9-1.7,2.8
			c-1.7,2.5-3.9,4.6-6.4,6.3c-0.9,0.6-1.8,1.1-2.8,1.6c-2.6,1.3-5.6,2.2-8.6,2.5c-0.9,0.1-1.7,0.1-2.6,0.1c-0.2,0-0.4,0-0.6,0
			c-3.1-0.1-6-0.7-8.7-1.8c-1-0.4-2-0.9-3-1.4c-2.6-1.5-4.9-3.4-6.8-5.6c-0.7-0.8-1.4-1.7-2-2.7c-1.5-2.4-2.7-5.1-3.3-8
			c-0.2-1.1-0.4-2.2-0.5-3.4c-0.1-0.7-0.1-1.4-0.1-2.2c0-2.2,0.3-4.3,0.8-6.3c0.3-1.1,0.7-2.2,1.1-3.3c1.1-2.6,2.6-5,4.5-7.1
			c0.8-0.9,1.6-1.7,2.5-2.4c2.1-1.8,4.6-3.3,7.2-4.3c1.1-0.4,2.2-0.7,3.3-1c1.8-0.4,3.6-0.6,5.5-0.6c1,0,1.9,0.1,2.9,0.2
			c1.2,0.1,2.3,0.3,3.4,0.6c2.8,0.7,5.4,1.9,7.8,3.5c0.9,0.6,1.8,1.3,2.7,2.1c2.2,1.9,4,4.2,5.4,6.8c0.5,1,1,2,1.4,3
			C114.4,281,115,283.9,115,287z"/>
		<path class="st12" d="M132.1,263.9c-2-2.7-4.2-5.2-6.7-7.4c-1.6-1.5-3.3-2.8-5.1-4c-4.5-3.1-9.5-5.4-15-6.8
			c-2.1-0.5-4.3-1-6.5-1.2c-1.8-0.2-3.7-0.3-5.6-0.3c-3.7,0-7.2,0.4-10.6,1.2c-2.2,0.5-4.3,1.1-6.4,1.9c-5.1,1.9-9.8,4.7-13.9,8.2
			c-1.7,1.4-3.3,3-4.8,4.7c-3.6,4-6.6,8.6-8.7,13.7c-0.8,2-1.6,4.1-2.1,6.3c-1,3.9-1.5,8-1.5,12.2c0,1.4,0.1,2.8,0.2,4.2
			c0.2,2.2,0.5,4.4,1,6.5c1,4.4,2.6,8.6,4.7,12.5c-0.6-0.8-1.1-1.6-1.6-2.4c-3-4.6-5.2-9.8-6.4-15.3c-0.5-2.1-0.8-4.3-1-6.5
			c-0.1-1.4-0.2-2.8-0.2-4.2c0-4.2,0.5-8.3,1.5-12.2c0.6-2.2,1.3-4.3,2.1-6.3c2.1-5.1,5-9.7,8.7-13.7c1.5-1.7,3.1-3.2,4.8-4.7
			c4.1-3.5,8.8-6.2,13.9-8.2c2.1-0.8,4.2-1.4,6.4-1.9c3.4-0.8,7-1.2,10.7-1.2c1.9,0,3.7,0.1,5.5,0.3c2.2,0.3,4.4,0.7,6.5,1.2
			c5.4,1.4,10.5,3.7,15,6.8c1.8,1.2,3.5,2.6,5.1,4C126.1,254.9,129.5,259.1,132.1,263.9z"/>
	</g>
</g>
<g>
	<path class="st5" d="M622.9,357.1c-4.1-0.3-24.8,1.1-37.3,0.4c-0.2,0-0.5,0-0.7,0c-5.2-0.3-8.8-1-8.9-2.3c-0.3-5.8,1.8-19-2.5-22.3
		c0,0,0,0,0,0c-0.7-0.5-1.5-0.8-2.5-0.8c-7.5,0.4-64.4-0.3-69.1-0.3c-3.8,0-6.9,1-8-2.4c-0.3-0.8-0.4-2-0.4-3.5c0-7.1,5.3-6,9.8-6
		c6.3,0.1,64.9-0.5,77.1,0.6c0.4,0,0.7,0.1,1.1,0.3l0,0c5.8,2.5,1.5,20.7,4.6,23.5c0.3,0.3,1.4,0.4,3.1,0.4
		c9.7,0.1,37.9-2.3,38.1,2.5C627.6,352.9,628.9,357.5,622.9,357.1z"/>
	<path class="st7" d="M586.5,343.4c8.5-0.2,51.5-0.8,52.5,0.5c1,1.3,2.7,4.7,2.6,9.3s-2.7,4.9-5.8,5c-3.1,0.1-50.3,1.1-50.4-0.4
		C585.3,356.1,584.2,343.4,586.5,343.4z"/>
	<path class="st17" d="M573.6,332.8c-0.7-0.5-1.5-0.8-2.5-0.8c-7.5,0.4-64.4-0.3-69.1-0.3c-3.8,0-6.9,1-8-2.4
		C512.3,328.9,570.6,328.5,573.6,332.8z"/>
	<path class="st17" d="M589.2,344.7c-1.4,6.3-2.8,11.9-3.6,12.9c-0.1,0.1-0.2,0.2-0.3,0.2c-0.2,0-0.3-0.1-0.5-0.2
		c-1.3-0.9-2-3.8-2.5-6.7c-0.5-3.2-4.1-28.7-2-30.3l1.1,0.3l0,0c5.8,2.5,1.5,20.7,4.6,23.5C586.3,344.5,587.5,344.6,589.2,344.7z"/>
</g>
<path class="st2" d="M654.6,350.8c-4.2,1.4-1.4,3.3-7.1,3.1c-8-0.3-9.3,4.3-13.8,6.1c-3.9,1.6-12.6,3.9-16.9-0.2
	c-4-3.8,3.5-8.6,6-10.6c2-1.6-1.7-4.3-0.2-7.9c1.6-3.6,6.7,3.7,13.1,1.7c5.5-1.7,14.3,0.4,16.8,0.4
	C654.9,343.5,654.6,350.8,654.6,350.8z"/>
<path class="st3" d="M706.9,316.5c-5,7.9-68.1,24-70.3,25.3c-1.7,1,4.2,16.1,9.7,16c4.5-0.1,73.9-11.6,82.6-26
	c7-11.4,19.6-69.1,19.6-69.1s-25.1-17.2-27-4.4C720.8,262.5,709.3,312.6,706.9,316.5z"/>
<g>
	<path class="st4" d="M711.2,262c0.5-0.5,8.2,9.4,16.5,11.6c2.3,0.6,4.7,0.8,7,0.5c6.9-1,13.3-3.1,21.7-5.9c-3.9-4.9-2-2.8-7-8
		c-5.9,3.2-11.7,6.4-15.4,6.7c-2.7,0.2-5.4,0-7.9-0.6c-4.7-1-9-3.1-12.3-5c-1.7-1-2.3-2.8-4-2.6C707.6,259.2,710.6,262.6,711.2,262z
		"/>
	<path class="st18" d="M707.1,259.7c-0.1-1.1,0.3-3,2.6-3.4c1.7-0.3,2,0.4,3.7,1.4c5.1,2.9,12.4,6.3,20.2,5.6
		c7.8-0.7,23.3-14.1,35.1-13.9c11.8,0.3,17.2,9.7,34.1,9.1c16.8-0.6,33.1-10.9,38.1-11s8.1,0.4,8.4,2.3c0.3,1.9-1.5,5.6-4.7,7.6
		c-3.1,2-32.6,9.9-40.6,10.3c-13.2,0.8-26.5-8.7-34.9-7.8c-8.4,0.9-24.9,9-34.8,10.4c-10.9,1.5-22.2-9.4-22.8-8.8
		c-0.6,0.6-1.2,1.2-2.6,1.1C707.8,262.7,707.3,260.8,707.1,259.7z"/>
</g>
<path class="st2" d="M590.7,357.5c-0.8-4.3,7.4-9,11.3-6.1c4,2.9,5.7,6.2,4.8,7.1c-0.9,0.9-3.3,2.8-5.8,2.8S591.5,361.9,590.7,357.5
	z"/>
<g>
	<path class="st19" d="M502.5,400.2c-5.8,0.8-12.4-1.4-17.8-5.2"/>
	<path class="st19" d="M511.6,394.3c-8,4.1-16.4,3.3-22.9-1.1"/>
</g>
<g>
	<path class="st19" d="M546.3,269.9c-3.5-4.7-9.7-7.8-16.2-8.9"/>
	<path class="st19" d="M548.6,280.6c-2.8-8.6-9.3-13.9-16.9-15.4"/>
</g>
<g>
	<path class="st19" d="M382.9,370.1c10.6-3.9,19.9-13.5,25.7-24.8"/>
	<path class="st19" d="M361.9,368.2c17.4-0.3,31-9.2,38-22.5"/>
</g>
<g>
	<path class="st19" d="M565.4,70.1c2.2-8.6,0-18.9-4.8-27.6"/>
	<path class="st19" d="M554.9,82.9c7.5-11.4,7.7-24.1,2.2-34.6"/>
</g>
<g>
	<path class="st19" d="M103.6,379.7c8.9,0,18.3-4.6,25.6-11.4"/>
	<path class="st19" d="M88.7,372.7c12.9,4.4,25.3,1.5,34-6.4"/>
</g>
<g>
	<path class="st19" d="M40.4,197.2c5.3-7.1,14.7-11.9,24.5-13.7"/>
	<path class="st19" d="M37.1,213.3c4.2-13,13.9-21.2,25.5-23.4"/>
</g>
<g>
	<path class="st19" d="M190.2,142.3c4.2-10.5,14.2-19.5,25.7-24.9"/>
	<path class="st19" d="M191.4,163.3c0.9-17.4,10.3-30.7,23.8-37.2"/>
</g>
<g>
	<path class="st20" d="M553.3,311.7c2.1-2.9,4.6-4.4,7.2-4.4c4.9,0,9,5.3,10.9,12.9c-0.4,0-0.8,0-1.3,0c-1.7-6.9-5.4-11.7-9.7-11.7
		c-2.2,0-4.4,1.4-6.2,3.9c-0.2,0.3-0.6,0.3-0.9,0.1C553.1,312.3,553.1,311.9,553.3,311.7z"/>
	<path class="st20" d="M572.3,332c0,0,0,0.1,0,0.1c-0.8,10.4-5.7,18.5-11.8,18.8c-0.1,0-0.2,0-0.3,0c-2,0-4.1-1-5.9-2.8
		c-2.4-2.4-5.2-7-5.8-16.1c-0.1-0.8-0.1-1.7-0.1-2.6c0-1,0-2,0-3.1c0-0.3,0.3-0.6,0.6-0.6c0.3,0,0.6,0.3,0.6,0.6c0,1.1,0,2.1,0,3.1
		c0,0.9,0,1.7,0.1,2.5c0.6,8.6,3.2,12.9,5.4,15.2c2.3,2.3,4.5,2.4,5.3,2.4c5.5-0.3,9.9-7.8,10.6-17.7c0-0.1,0-0.3,0-0.4
		C571.6,331.8,572,331.9,572.3,332z"/>
</g>
<path class="st21" d="M571.8,313.3c-1.8-5.4-6.2-8.2-9.2-8.5c-2.9-0.3-5.8,0.6-6.7,1.6"/>
<g transform="matrix(-1.8846,0,0,1.46036,1581.91,605.299)" class="st22">
	<path class="st23" d="M707.3-98.1c0,10.4,6.8,16.1,15.1,11.7c7.9-4.2,10.3,2.8,17.1,2.8c7.3,0.1,8.4-10.5,13.8-6.7
		c10.5,7.3,19.5-0.1,15.2-11c-3.4-8.8-8.6-10.4-12.9-10.1c-7.7,0.5-6.6-6.9-15.6-6.5c-11.5,0.5-7.3,11.7-17.8,10.1
		C715.8-108.7,707.3-103.6,707.3-98.1z"/>
</g>
<ellipse transform="matrix(0.1602 -0.9871 0.9871 0.1602 18.6997 517.0629)" class="st23" cx="313.2" cy="247.5" rx="23" ry="23"/>
<circle class="st23" cx="89.9" cy="287.1" r="13.7"/>
<circle class="st23" cx="473.7" cy="102.2" r="13.7"/>
</svg>
