<?xml version="1.0" encoding="utf-8"?>
<!-- Generator: Adobe Illustrator 27.7.0, SVG Export Plug-In . SVG Version: 6.00 Build 0)  -->
<svg version="1.1" id="Layer_1" xmlns="http://www.w3.org/2000/svg" xmlns:xlink="http://www.w3.org/1999/xlink" x="0px" y="0px" viewBox="0 0 900 633.2" style="enable-background:new 0 0 900 633.2;" xml:space="preserve">
<style type="text/css">
	.st0{fill:#3C3C4C;}
	.st1{fill:#201B2C;}
	.st2{fill:#8B4D31;}
	.st3{opacity:0.1;fill:#FFFFFF;}
	.st4{fill:#F2AD1D;}
	.st5{opacity:0.5;fill:#201B2C;}
	.st6{opacity:0.3;fill:#E65125;}
	.st7{fill:#FFFFFF;}
	.st8{fill:#5F5F6C;}
	.st9{opacity:0.75;fill:#3C3C4C;}
	.st10{opacity:0.54;fill:#3C3C4C;}
	.st11{fill:#B6E2E9;}
	.st12{opacity:0.9;}
	.st13{fill:#EFAEA7;}
	.st14{opacity:0.14;fill:#201F3B;}
	.st15{fill:#201F3B;}
	.st16{fill:#3C3C4E;}
	.st17{opacity:0.46;fill:#201F3B;}
	.st18{opacity:0.79;fill:#201F3B;}
	.st19{opacity:0.35;fill:#201F3B;}
	.st20{fill:#0268A4;}
	.st21{opacity:0.18;fill:#201F3B;}
	.st22{fill:#191939;}
	.st23{fill:#C4C0C0;}
	.st24{fill:#484854;}
	.st25{opacity:0.85;fill:#323340;}
	.st26{opacity:0.2;fill:#FFFFFF;}
	.st27{fill:#2A2A3F;}
	.st28{fill:#252433;}
	.st29{fill:none;stroke:#3C3C4C;stroke-width:4.9704;stroke-linecap:round;stroke-miterlimit:10;}
	.st30{opacity:0.17;}
	.st31{fill:none;stroke:#046AA9;stroke-width:5.8605;stroke-miterlimit:10;}
	.st32{fill:#046AA9;}
	.st33{opacity:0.77;fill:#FFFFFF;}
</style>
<g>
	<g>
		<path class="st0" d="M582.4,233.5C582.4,233.5,582.4,233.5,582.4,233.5c4.3-6.2,10-10.1,16.4-10.2l16.1-0.2l0.4,0l0,0l2,0l0,0
			l66.8-1c3.2,0,6.3,0.9,9.1,2.6l0,0c8.7,5.3,14.8,18,14.9,33l0.1,21.3l0.2,34.2l-16.8,0.3l-0.2-34.4l0,0l0-4.9
			c-0.1-11-4.5-20.5-10.9-24.5l0,0c-2.1-1.4-4.6-2.1-7.1-2.1l-58.8,0.8c0,0,0,0,0,0l-4.9,0.1c-9.8,0.2-17.7,12.3-17.6,27.1l0,4.2
			l0,0l0.2,34.8l0,0.2l-16.8,0.3l-0.2-35.1l0,0l-0.1-20.6c0-1.2,0-2.3,0.1-3.5c0.1-0.9,0.1-1.9,0.2-2.8
			C576.4,245.6,578.9,238.7,582.4,233.5z"/>
		<path class="st1" d="M582.4,233.4C582.4,233.4,582.4,233.4,582.4,233.4C582.4,233.4,582.4,233.4,582.4,233.4
			c4.3-6.2,10-10.1,16.4-10.2l16.1-0.1l0.4,0l0,0l1.2,0L615,229l-0.1,0.3l0,0.1l-2.3,8.3l0,0.1l-2.9,10.5
			c-9.8,0.2-17.7,12.3-17.7,27.1l0,4.4l0,0l0.2,34.8l-16.8,0.3l-0.2-34.9l0,0l-0.1-20.6c0-1.2,0-2.3,0.1-3.5
			c0.1-0.9,0.1-1.9,0.2-2.8C576.3,245.5,578.8,238.6,582.4,233.4z"/>
		<g>
			<path class="st2" d="M899.8,340.1l0,95.8l0,42.7l0,117.3c0,15.1-11.6,27.3-25.8,27.2h-0.8l-429,2c-29.2-0.3-40.7-13.6-45.2-27.5
				c-2.9-9.1-2.9-18.4-2.9-24.4l-0.2-7.9L392,430.5l-2.7-98.6c0-15.2,17.2-54.9,56-54l122.9,1l16.8,0.1l99.4,0.8l0,0l16.8,0.1
				l125.8,1l14.3,0.1C872.8,281.5,899.8,305.8,899.8,340.1z"/>
			<path class="st3" d="M899.8,340.1l0,95.8l0,42.7l0,117.3c0,15.1-11.6,27.3-25.8,27.2l-0.8,0c-5-15.2-8.1-39.1-5.7-76.9
				c1.2-19.6,1.1-39.7-0.2-59.9c-0.8-14.1-2.2-28.3-4-42.4c-7.6-59.9-22.5-118.2-36.1-162.9l14.3,0.1
				C872.8,281.5,899.8,305.8,899.8,340.1z"/>
		</g>
	</g>
	<g>
		<path class="st4" d="M576.1,463.7c0-20.1-3-39.5,9.1-39.5c12.2,0,92.1,1.5,106.3,2c15.9,0.6,10.2,30.9,9,41.9
			c-0.5,4.6-30.5-1.8-31.9,2.9c-2.3,7.6,3,25.5-10.9,24.9c-12.2-0.5-37.7,1.8-46.2-2.4c-8.5-4.3,0-24.9-7.3-25.5
			C596.8,467.4,576.1,468,576.1,463.7z"/>
		<path class="st4" d="M576.1,463.7c0-20.1-3-39.5,9.1-39.5c12.2,0,92.1,1.5,106.3,2c15.9,0.6,10.2,30.9,9,41.9
			c-0.5,4.6-30.5-1.8-31.9,2.9c-2.3,7.6,3,25.5-10.9,24.9c-12.2-0.5-37.7,1.8-46.2-2.4c-8.5-4.3,0-24.9-7.3-25.5
			C596.8,467.4,576.1,468,576.1,463.7z"/>
	</g>
	<path class="st5" d="M900,345.4l0,95.8c-29.1,23.4-46.1,38.1-230.1,37.1c-128.1-0.7-259.7-23.9-277.4-47.1l-2.9-94
		c0-15.2,17.2-54.9,56-54l122.9,1l16.8,0.1l99.4,0.8l0,0l16.8,0.1l125.8,1l14.3,0.1C873.1,286.8,900,311.1,900,345.4z"/>
	<path class="st2" d="M900,435.9c0.1,4.7-11.2,12.6-42.1,19.6c-35.3,8-96,15-194,15c-164,0-268-26.2-273.6-42.9
		c-4.1-12.6-1.5-108.9-1.5-108.9c0-15.2,17.7-41.7,56.5-40.8l122.9,1l16.8,0.1l99.4,0.8l0,0l16.8,0.1l119.2,0.5l6.3,0l24.8,0.9
		c31.5,0.3,47.9,15.8,47.8,50.1C899.4,331.6,899.7,425.7,900,435.9z"/>
	<path class="st4" d="M587.5,466.8c0-18.2-2.5-35.8,7.5-35.8c10,0,75.6,1.4,87.2,1.8c13.1,0.6,8.3,27.7,7.3,37.7
		c-0.4,4.2-18.6,2.8-26.1,2.8c-8.3,0-48.3-1.1-54.2-1.7C603.2,471.2,587.5,470.6,587.5,466.8z"/>
	<path class="st6" d="M617.3,460.3c0-7.7-1.1-15.2,3.2-15.2c4.2,0,32,0.6,37,0.8c5.5,0.2,3.5,11.8,3.1,16c-0.2,1.8-7.9,1.2-11.1,1.2
		c-3.5,0-20.5-0.5-23-0.7C623.9,462.1,617.3,461.9,617.3,460.3z"/>
	<path class="st3" d="M900,435.9c0.1,4.7-11.2,12.6-42.1,19.6c-0.4-4-0.9-8.1-1.4-12.1c-7.6-59.9-22.5-118.2-36.1-162.9l0.1-0.1
		l6.3,0l24.8,0.9c31.5,0.3,47.9,15.8,47.8,50.1C899.4,331.6,899.7,425.7,900,435.9z"/>
</g>
<rect x="372.3" y="245.2" class="st7" width="27.6" height="20.4"/>
<rect x="394.1" y="348.5" class="st7" width="15.9" height="19.6"/>
<rect x="402" y="377.1" class="st7" width="62.4" height="30.1"/>
<rect x="250.6" y="420.2" class="st7" width="26.7" height="26.7"/>
<path class="st7" d="M593.3,570.5c-1,13.2,32.3,31.3-4.3,45.5c-28.2,11-277.3-16-349,9.6c-2,0.7-16.6-1.3-16.7-1.3
	c0,0-11.4-4-16.3-9.8c-29.2-34.5-38.5-364.5-59-417c-12.6-32.3-52.2-46.2-65.1-46.9c-35.1-1.8,33-40.8,81.6-40.9
	c48.6-0.1,296.9-27.5,334,65.1c21,52.5,27.3,289,49.7,355.5c3.2,9.6,6.8,15.6,10.8,17.1c22.4,8.2,11.4,24.7,28.8,17.6
	C595.2,561.9,593.6,566.5,593.3,570.5z"/>
<path class="st8" d="M591.9,543.8c60.3,22.5,18.8,84.9-7.8,84.6c-30.3-0.4-283.3,13.5-360.8-4c3.7,0.8,22.5-0.2,45.6-20.3
	c23.9-20.7,9.2-53.6-11.9-60.9C247.5,540,588,543.8,591.9,543.8z"/>
<rect x="282.5" y="211.7" class="st7" width="33.5" height="29.9"/>
<rect x="346.1" y="255.2" class="st7" width="35.3" height="18.3"/>
<rect x="264.7" y="284.5" class="st7" width="38.2" height="25.2"/>
<rect x="335.6" y="325.8" class="st7" width="15.5" height="21.2"/>
<g>
	<path class="st9" d="M288,273.2l31.8-0.3c1.1,0,2.1,0.7,2.2,1.5l0.6,4.5c0.1,0.8-0.7,1.5-1.8,1.5l-31.8,0.3c-1.1,0-2.1-0.7-2.2-1.5
		l-0.6-4.5C286.1,273.9,286.9,273.2,288,273.2z"/>
	<path class="st9" d="M233.6,273.7l19.4-0.2c0.7,0,1.3,0.6,1.4,1.4l0.7,4.8c0.1,0.8-0.3,1.4-1,1.4l-19.4,0.2c-0.7,0-1.3-0.6-1.4-1.4
		l-0.7-4.8C232.4,274.3,232.9,273.7,233.6,273.7z"/>
	<path class="st9" d="M279.5,274.6l0.7,4.8c0.1,0.8-0.6,1.4-1.6,1.4l-16.9,0.1c-1,0-1.9-0.6-2-1.4l-0.7-4.8
		c-0.1-0.8,0.6-1.4,1.6-1.4l16.9-0.1C278.5,273.3,279.4,273.9,279.5,274.6z"/>
	<path class="st9" d="M271.5,314.9l31.8-0.3c1.1,0,2.1,0.7,2.2,1.5l0.6,4.5c0.1,0.8-0.7,1.5-1.8,1.5l-31.8,0.3
		c-1.1,0-2.1-0.7-2.2-1.5l-0.6-4.5C269.6,315.6,270.4,314.9,271.5,314.9z"/>
	<path class="st9" d="M263,316.3l0.7,4.8c0.1,0.8-0.6,1.4-1.6,1.4l-16.9,0.1c-1,0-1.9-0.6-2-1.4l-0.7-4.8c-0.1-0.8,0.6-1.4,1.6-1.4
		L261,315C262,315,262.9,315.6,263,316.3z"/>
	<path class="st9" d="M249.6,354.3l26.5-0.2c0.9,0,1.8,0.7,1.9,1.5l0.6,4.5c0.1,0.8-0.5,1.5-1.5,1.5l-26.5,0.2
		c-0.9,0-1.8-0.7-1.9-1.5l-0.6-4.5C248,355,248.7,354.4,249.6,354.3z"/>
	<path class="st9" d="M290.9,354l24.6-0.2c0.8,0,1.6,0.6,1.7,1.4l0.7,4.8c0.1,0.8-0.5,1.4-1.3,1.4l-24.6,0.2c-0.8,0-1.6-0.6-1.7-1.4
		l-0.7-4.8C289.5,354.6,290.1,354,290.9,354z"/>
	<path class="st9" d="M340,355.2l0.7,4.8c0.1,0.8-0.5,1.4-1.3,1.4l-14.1,0.1c-0.8,0-1.6-0.6-1.7-1.4l-0.7-4.8
		c-0.1-0.8,0.5-1.4,1.3-1.4l14.1-0.1C339.1,353.8,339.9,354.5,340,355.2z"/>
	<path class="st9" d="M255.6,393.7l26.5-0.2c0.9,0,1.8,0.7,1.9,1.5l0.6,4.5c0.1,0.8-0.5,1.5-1.5,1.5l-26.5,0.2
		c-0.9,0-1.8-0.7-1.9-1.5l-0.6-4.5C254,394.4,254.7,393.7,255.6,393.7z"/>
	<path class="st9" d="M288.4,393.4l24.6-0.2c0.8,0,1.6,0.6,1.7,1.4l0.7,4.8c0.1,0.8-0.5,1.4-1.3,1.4l-24.6,0.2
		c-0.8,0-1.6-0.6-1.7-1.4l-0.7-4.8C287,394,287.6,393.4,288.4,393.4z"/>
	<path class="st9" d="M337.8,394.4l0.7,4.8c0.1,0.8-0.5,1.4-1.3,1.4l-14.1,0.1c-0.8,0-1.6-0.6-1.7-1.4l-0.7-4.8
		c-0.1-0.8,0.5-1.4,1.3-1.4l14.1-0.1C336.9,393,337.7,393.6,337.8,394.4z"/>
	<path class="st9" d="M312.8,436.2l26.5-0.2c0.9,0,1.8,0.7,1.9,1.5l0.6,4.5c0.1,0.8-0.5,1.5-1.5,1.5l-26.5,0.2
		c-0.9,0-1.8-0.7-1.9-1.5l-0.6-4.5C311.2,436.9,311.9,436.3,312.8,436.2z"/>
	<path class="st9" d="M260.8,436.7l24.6-0.2c0.8,0,1.6,0.6,1.7,1.4l0.7,4.8c0.1,0.8-0.5,1.4-1.3,1.4l-24.6,0.2
		c-0.8,0-1.6-0.6-1.7-1.4l-0.7-4.8C259.4,437.3,260,436.7,260.8,436.7z"/>
	<path class="st9" d="M307.2,437.7l0.7,4.8c0.1,0.8-0.5,1.4-1.3,1.4l-14.1,0.1c-0.8,0-1.6-0.6-1.7-1.4l-0.7-4.8
		c-0.1-0.8,0.5-1.4,1.3-1.4l14.1-0.1C306.3,436.3,307.1,436.9,307.2,437.7z"/>
	<path class="st9" d="M332.6,273.4l24.6-0.2c0.8,0,1.6,0.6,1.7,1.4l0.7,4.8c0.1,0.8-0.5,1.4-1.3,1.4l-24.6,0.2
		c-0.8,0-1.6-0.6-1.7-1.4l-0.7-4.8C331.2,274,331.7,273.4,332.6,273.4z"/>
	<path class="st9" d="M379,274.4l0.7,4.8c0.1,0.8-0.5,1.4-1.3,1.4l-14.1,0.1c-0.8,0-1.6-0.6-1.7-1.4l-0.7-4.8
		c-0.1-0.8,0.5-1.4,1.3-1.4l14.1-0.1C378.1,273,378.9,273.6,379,274.4z"/>
	<path class="st9" d="M314.9,314.8l16.2-0.1c0.6,0,1.1,0.6,1.2,1.4l0.7,4.8c0.1,0.8-0.2,1.4-0.8,1.4l-16.2,0.1
		c-0.6,0-1.1-0.6-1.2-1.4l-0.7-4.8C314,315.4,314.3,314.8,314.9,314.8z"/>
	<path class="st9" d="M353.2,315.9l0.7,4.8c0.1,0.8-0.5,1.4-1.3,1.4l-14.1,0.1c-0.8,0-1.6-0.6-1.7-1.4l-0.7-4.8
		c-0.1-0.8,0.5-1.4,1.3-1.4l14.1-0.1C352.4,314.5,353.1,315.1,353.2,315.9z"/>
	<path class="st9" d="M347.1,353.5l26.5-0.2c0.9,0,1.8,0.7,1.9,1.5l0.6,4.5c0.1,0.8-0.5,1.5-1.5,1.5l-26.5,0.2
		c-0.9,0-1.8-0.7-1.9-1.5l-0.6-4.5C345.5,354.2,346.1,353.5,347.1,353.5z"/>
	<path class="st9" d="M388.4,353.2l24.6-0.2c0.8,0,1.6,0.6,1.7,1.4l0.7,4.8c0.1,0.8-0.5,1.4-1.3,1.4l-24.6,0.2
		c-0.8,0-1.6-0.6-1.7-1.4l-0.7-4.8C386.9,353.8,387.5,353.2,388.4,353.2z"/>
	<path class="st9" d="M348.7,392.9l26.5-0.2c0.9,0,1.8,0.7,1.9,1.5l0.6,4.5c0.1,0.8-0.5,1.5-1.5,1.5l-26.5,0.2
		c-0.9,0-1.8-0.7-1.9-1.5l-0.6-4.5C347.1,393.6,347.8,392.9,348.7,392.9z"/>
	<path class="st9" d="M381.5,392.6l24.6-0.2c0.8,0,1.6,0.6,1.7,1.4l0.7,4.8c0.1,0.8-0.5,1.4-1.3,1.4l-24.6,0.2
		c-0.8,0-1.6-0.6-1.7-1.4l-0.7-4.8C380.1,393.3,380.7,392.6,381.5,392.6z"/>
	<path class="st9" d="M353.2,435.9l24.6-0.2c0.8,0,1.6,0.6,1.7,1.4l0.7,4.8c0.1,0.8-0.5,1.4-1.3,1.4l-24.6,0.2
		c-0.8,0-1.6-0.6-1.7-1.4l-0.7-4.8C351.8,436.5,352.4,435.9,353.2,435.9z"/>
	<path class="st9" d="M399.6,436.9l0.7,4.8c0.1,0.8-0.5,1.4-1.3,1.4l-14.1,0.1c-0.8,0-1.6-0.6-1.7-1.4l-0.7-4.8
		c-0.1-0.8,0.5-1.4,1.3-1.4l14.1-0.1C398.7,435.5,399.5,436.1,399.6,436.9z"/>
	<path class="st10" d="M418.1,272.2l31.8-0.3c1.1,0,2.1,0.7,2.2,1.5l0.6,4.5c0.1,0.8-0.7,1.5-1.8,1.5l-31.8,0.3
		c-1.1,0-2.1-0.7-2.2-1.5l-0.6-4.5C416.2,272.9,417,272.2,418.1,272.2z"/>
	<path class="st10" d="M409.6,273.6l0.7,4.8c0.1,0.8-0.6,1.4-1.6,1.4l-16.9,0.1c-1,0-1.9-0.6-2-1.4l-0.7-4.8
		c-0.1-0.8,0.6-1.4,1.6-1.4l16.9-0.1C408.6,272.3,409.5,272.9,409.6,273.6z"/>
	<path class="st10" d="M363.8,314.9l31.8-0.3c1.1,0,2.1,0.7,2.2,1.5l0.6,4.5c0.1,0.8-0.7,1.5-1.8,1.5l-31.8,0.3
		c-1.1,0-2.1-0.7-2.2-1.5l-0.6-4.5C361.9,315.6,362.7,314.9,363.8,314.9z"/>
	<path class="st10" d="M421,353l24.6-0.2c0.8,0,1.6,0.6,1.7,1.4l0.7,4.8c0.1,0.8-0.5,1.4-1.3,1.4l-24.6,0.2c-0.8,0-1.6-0.6-1.7-1.4
		l-0.7-4.8C419.6,353.6,420.2,353,421,353z"/>
	<path class="st10" d="M470.1,354.2l0.7,4.8c0.1,0.8-0.5,1.4-1.3,1.4l-14.1,0.1c-0.8,0-1.6-0.6-1.7-1.4l-0.7-4.8
		c-0.1-0.8,0.5-1.4,1.3-1.4l14.1-0.1C469.2,352.9,470,353.5,470.1,354.2z"/>
	<path class="st10" d="M418.5,392.4l24.6-0.2c0.8,0,1.6,0.6,1.7,1.4l0.7,4.8c0.1,0.8-0.5,1.4-1.3,1.4l-24.6,0.2
		c-0.8,0-1.6-0.6-1.7-1.4l-0.7-4.8C417.1,393,417.7,392.4,418.5,392.4z"/>
	<path class="st10" d="M467.9,393.4l0.7,4.8c0.1,0.8-0.5,1.4-1.3,1.4l-14.1,0.1c-0.8,0-1.6-0.6-1.7-1.4l-0.7-4.8
		c-0.1-0.8,0.5-1.4,1.3-1.4l14.1-0.1C467,392,467.8,392.6,467.9,393.4z"/>
	<path class="st10" d="M442.9,435.2l26.5-0.2c0.9,0,1.8,0.7,1.9,1.5l0.6,4.5c0.1,0.8-0.5,1.5-1.5,1.5l-26.5,0.2
		c-0.9,0-1.8-0.7-1.9-1.5l-0.6-4.5C441.3,435.9,442,435.3,442.9,435.2z"/>
	<path class="st10" d="M437.3,436.7l0.7,4.8c0.1,0.8-0.5,1.4-1.3,1.4l-14.1,0.1c-0.8,0-1.6-0.6-1.7-1.4l-0.7-4.8
		c-0.1-0.8,0.5-1.4,1.3-1.4l14.1-0.1C436.4,435.3,437.2,435.9,437.3,436.7z"/>
	<path class="st10" d="M407.3,314.8l16.2-0.1c0.6,0,1.1,0.6,1.2,1.4l0.7,4.8c0.1,0.8-0.2,1.4-0.8,1.4l-16.2,0.1
		c-0.6,0-1.1-0.6-1.2-1.4l-0.7-4.8C406.3,315.4,406.7,314.8,407.3,314.8z"/>
	<path class="st10" d="M445.6,315.9l0.7,4.8c0.1,0.8-0.5,1.4-1.3,1.4l-14.1,0.1c-0.8,0-1.6-0.6-1.7-1.4l-0.7-4.8
		c-0.1-0.8,0.5-1.4,1.3-1.4l14.1-0.1C444.7,314.5,445.5,315.1,445.6,315.9z"/>
	<path class="st10" d="M474.8,391.9l26.5-0.2c0.9,0,1.8,0.7,1.9,1.5l0.6,4.5c0.1,0.8-0.5,1.5-1.5,1.5l-26.5,0.2
		c-0.9,0-1.8-0.7-1.9-1.5l-0.6-4.5C473.3,392.6,473.9,391.9,474.8,391.9z"/>
	<path class="st10" d="M478.3,434.9l24.6-0.2c0.8,0,1.6,0.6,1.7,1.4l0.7,4.8c0.1,0.8-0.5,1.4-1.3,1.4l-24.6,0.2
		c-0.8,0-1.6-0.6-1.7-1.4l-0.7-4.8C476.9,435.5,477.5,434.9,478.3,434.9z"/>
	<path class="st10" d="M468.5,315.3l0.7,4.8c0.1,0.8-0.5,1.4-1.3,1.4l-14.1,0.1c-0.8,0-1.6-0.6-1.7-1.4l-0.7-4.8
		c-0.1-0.8,0.5-1.4,1.3-1.4l14.1-0.1C467.7,313.9,468.4,314.5,468.5,315.3z"/>
	<g>
		<path class="st11" d="M199.1,266.2c-1,6.9,0,22.3,3.9,22.3c3.9,0,23.1,1.5,22.6-1.5c-0.5-3-1.5-20.8-4.4-21.3
			C218.3,265.2,199.1,266.2,199.1,266.2z"/>
		<g>
			<path class="st0" d="M207.8,275.7c0.6,1.3,1.4,2.6,2.3,3.4c-0.1,0-0.4-0.1-0.7,0c-0.2,0.1-0.4,0.2-0.4,0.3c0,0,0,0,0,0l0,0
				l0.1-0.1c2.3-2.6,4.5-5.2,6.7-7.8c3-3.4,6-6.7,9.2-9.9c0.8-0.7,5-4.9,5.1-2.2c0,0-0.3,1.7-0.3,1.7c0,0,0,0,0,0
				c-0.1,0.1-0.3,0.2-0.5,0.3c-1.9,1.6-3.5,3.6-5.1,5.5c-3.8,4.5-7.4,9.3-11,14c-0.1,0.1-0.8,1-0.9,1.1c-0.1,0.1-0.2,0.2-0.3,0.3
				c-0.6,0.7-2.1,1.2-3,1c-2.7-0.6-4.4-3.4-5.7-5.6C202,274.9,206.3,272.8,207.8,275.7L207.8,275.7z"/>
		</g>
	</g>
	<g>
		<path class="st11" d="M206.8,307.7c-1,6.9,0,22.3,3.9,22.3c3.9,0,23.1,1.5,22.6-1.5c-0.5-3-1.5-20.8-4.4-21.3
			C226,306.7,206.8,307.7,206.8,307.7z"/>
		<g>
			<path class="st0" d="M215.5,317.2c0.6,1.3,1.4,2.6,2.3,3.4c-0.1,0-0.4-0.1-0.7,0c-0.2,0.1-0.4,0.2-0.4,0.3c0,0,0,0,0,0l0,0
				l0.1-0.1c2.3-2.6,4.5-5.2,6.7-7.8c3-3.4,6-6.7,9.2-9.9c0.8-0.7,5-4.9,5.1-2.2c0,0-0.3,1.7-0.3,1.7c0,0,0,0,0,0
				c-0.1,0.1-0.3,0.2-0.5,0.3c-1.9,1.6-3.5,3.6-5.1,5.5c-3.8,4.5-7.4,9.3-11,14c-0.1,0.1-0.8,1-0.9,1.1c-0.1,0.1-0.2,0.2-0.3,0.3
				c-0.6,0.7-2.1,1.2-3,1c-2.7-0.6-4.4-3.4-5.7-5.6C209.7,316.4,214,314.3,215.5,317.2L215.5,317.2z"/>
		</g>
	</g>
	<g>
		<path class="st11" d="M213.7,346.1c-1,6.9,0,22.3,3.9,22.3c3.9,0,23.1,1.5,22.6-1.5c-0.5-3-1.5-20.8-4.4-21.3
			S213.7,346.1,213.7,346.1z"/>
		<g>
			<path class="st0" d="M222.4,355.6c0.6,1.3,1.4,2.6,2.3,3.4c-0.1,0-0.4-0.1-0.7,0c-0.2,0.1-0.4,0.2-0.4,0.3c0,0,0,0,0,0l0,0
				l0.1-0.1c2.3-2.6,4.5-5.2,6.7-7.8c3-3.4,6-6.7,9.2-9.9c0.8-0.7,5-4.9,5.1-2.2c0,0-0.3,1.7-0.3,1.7c0,0,0,0,0,0
				c-0.1,0.1-0.3,0.2-0.5,0.3c-1.9,1.6-3.5,3.6-5.1,5.5c-3.8,4.5-7.4,9.3-11,14c-0.1,0.1-0.8,1-0.9,1.1c-0.1,0.1-0.2,0.2-0.3,0.3
				c-0.6,0.7-2.1,1.2-3,1c-2.7-0.6-4.4-3.4-5.7-5.6C216.6,354.8,220.9,352.7,222.4,355.6L222.4,355.6z"/>
		</g>
	</g>
	<g>
		<path class="st11" d="M220.1,387c-1,6.9,0,22.3,3.9,22.3c3.9,0,23.1,1.5,22.6-1.5c-0.5-3-1.5-20.8-4.4-21.3
			C239.3,386,220.1,387,220.1,387z"/>
		<g>
			<path class="st0" d="M228.8,396.5c0.6,1.3,1.4,2.6,2.3,3.4c-0.1,0-0.4-0.1-0.7,0c-0.2,0.1-0.4,0.2-0.4,0.3c0,0,0,0,0,0l0,0
				l0.1-0.1c2.3-2.6,4.5-5.2,6.7-7.8c3-3.4,6-6.7,9.2-9.9c0.8-0.7,5-4.9,5.1-2.2c0,0-0.3,1.7-0.3,1.7c0,0,0,0,0,0
				c-0.1,0.1-0.3,0.2-0.5,0.3c-1.9,1.6-3.5,3.6-5.1,5.5c-3.8,4.5-7.4,9.3-11,14c-0.1,0.1-0.8,1-0.9,1.1c-0.1,0.1-0.2,0.2-0.3,0.3
				c-0.6,0.7-2.1,1.2-3,1c-2.7-0.6-4.4-3.4-5.7-5.6C223.1,395.7,227.4,393.6,228.8,396.5L228.8,396.5z"/>
		</g>
	</g>
	<g>
		<path class="st11" d="M226.4,430.2c-1,6.9,0,22.3,3.9,22.3c3.9,0,23.1,1.5,22.6-1.5c-0.5-3-1.5-20.8-4.4-21.3
			S226.4,430.2,226.4,430.2z"/>
		<g>
			<path class="st0" d="M235.1,439.7c0.6,1.3,1.4,2.6,2.3,3.4c-0.1,0-0.4-0.1-0.7,0c-0.2,0.1-0.4,0.2-0.4,0.3c0,0,0,0,0,0l0,0
				l0.1-0.1c2.3-2.6,4.5-5.2,6.7-7.8c3-3.4,6-6.7,9.2-9.9c0.8-0.7,5-4.9,5.1-2.2c0,0-0.3,1.7-0.3,1.7c0,0,0,0,0,0
				c-0.1,0.1-0.3,0.2-0.5,0.3c-1.9,1.6-3.5,3.6-5.1,5.5c-3.8,4.5-7.4,9.3-11,14c-0.1,0.1-0.8,1-0.9,1.1c-0.1,0.1-0.2,0.2-0.3,0.3
				c-0.6,0.7-2.1,1.2-3,1c-2.7-0.6-4.4-3.4-5.7-5.6C229.4,438.9,233.6,436.7,235.1,439.7L235.1,439.7z"/>
		</g>
	</g>
</g>
<g class="st12">
	<path class="st9" d="M271.9,225.3l44.3-0.4c1.6,0,3,0.9,3.1,2.1l0.9,6.2c0.2,1.2-0.9,2.1-2.5,2.1l-44.3,0.4c-1.6,0-3-0.9-3.1-2.1
		l-0.9-6.2C269.2,226.3,270.3,225.3,271.9,225.3z"/>
	<path class="st9" d="M196.1,225.9l27.1-0.2c0.9,0,1.8,0.8,1.9,1.9l1,6.6c0.2,1-0.5,1.9-1.4,1.9l-27.1,0.2c-0.9,0-1.8-0.8-1.9-1.9
		l-1-6.6C194.5,226.8,195.2,226,196.1,225.9z"/>
	<path class="st9" d="M260,227.3l1,6.6c0.2,1-0.9,1.9-2.2,1.9l-23.5,0.2c-1.4,0-2.7-0.8-2.8-1.9l-1-6.6c-0.2-1,0.9-1.9,2.2-1.9
		l23.5-0.2C258.6,225.4,259.9,226.3,260,227.3z"/>
	<path class="st9" d="M333.9,225.6l34.2-0.3c1.2,0,2.2,0.8,2.4,1.9l1,6.6c0.2,1-0.7,1.9-1.8,1.9l-34.2,0.3c-1.2,0-2.2-0.8-2.4-1.9
		l-1-6.6C332,226.4,332.8,225.6,333.9,225.6z"/>
	<path class="st9" d="M398.5,226.9l1,6.6c0.2,1-0.7,1.9-1.8,1.9l-19.6,0.2c-1.2,0-2.2-0.8-2.4-1.9l-1-6.6c-0.2-1,0.7-1.9,1.8-1.9
		l19.6-0.2C397.3,225,398.4,225.9,398.5,226.9z"/>
</g>
<g>
	<path class="st13" d="M40.1,425.9c-3.8-0.1-11.3-2.8-11-1s1.5,2.6,0,2.6c-1.5,0-8.9,1.2-7.2,4.2c1.7,3,3.9,6.5,7.2,5.3
		c3.3-1.2,11.7-2.6,15.1-3C47.6,433.4,43.1,426,40.1,425.9z"/>
	<path class="st13" d="M187.8,416.7c2.7,0,3.5,2.4,6.5,2.4c5.2-0.1,10.5,0.4,13.3,2c5.2,3.1,10.6-1.7,10.4-6.3
		c-0.2-3.6-10.5-3.7-12.3-4.4c-1.5-0.6,1.1-2.2-0.5-4.2c-1.5-1.9-3.5,3.6-7.7,3.6c-3.6,0-8.1,1.5-9.5,2.1S187.8,416.7,187.8,416.7z"/>
	<g>
		<path class="st13" d="M120.7,373.9l-9-4.2c0.6-4.3,6.7-12.7,8-16.4c1.4-4.1,7.3-7.2,7.3-7.2l1.7,9.4l-0.3,0.7c0,0-1.9,7.3-1.2,11
			c0.4,2.1-0.5,4.9,1.1,8.2C129.5,377.9,120.7,373.9,120.7,373.9z"/>
		<path class="st14" d="M128.1,357.8c0,0-1.2,4.7-1,7.7c-6.3,1.7-8.3-5.5-6.6-6.9c1.1-0.9,4.9-2.8,4.9-2.8L128.1,357.8z"/>
	</g>
	<path class="st7" d="M145.5,615.4c0.4-4.3,0.1-15.1,0.1-15.1l-11.4-0.4l0.6,16.2l7.5,5.2L145.5,615.4z"/>
	<path class="st15" d="M146.4,611.9c1-0.8,3.1,1.9,3.5,3.7c1,4.1,13.7,4.6,16,5c1.2,0.2,3.1,6.2-2.8,6.2c-5,0-21.1,0-26.6-0.1
		c-1.2,0-2.2-0.8-2.4-1.9c-1-4-1.1-13.2,0.4-13.4C136.6,611.9,142.7,614.8,146.4,611.9z"/>
	<path class="st7" d="M101.7,615.5c0.4-4.3,0.2-15.1,0.2-15.1L90.5,600l0.5,16.2l7.5,5.2L101.7,615.5z"/>
	<path class="st15" d="M103,610.7c1.2,0.1,1,1.3,1.4,3.1c1,4.1,15.4,6.8,17.7,7.2c1.2,0.2,3,6.2-2.8,6.2c-5-0.1-21.1-0.2-26.6-0.3
		c-1.2,0-2.1-0.8-2.4-1.9c-1-4-1.3-14.9,0.2-15C92.5,610.3,97.4,610.3,103,610.7z"/>
	<path class="st16" d="M85.4,474.5c0.1,1.9,0.3,4,0.6,6.3c1,8.6,3,37.7,2.5,56.2c-0.5,18.4,1.1,61.4,1.1,67.9
		c5.4,2.4,8.7,1.7,16.4,0c0,0,1.4-35.5,2.9-66.5c1.2-25.2,1.6-22.7,6.1-54.8l0,0c0.1,0.1,1.1,3.3,2.7,8.1
		c3.4,10.3,9.1,28.2,11.8,41.2c4.2,20.3,2,73.1,3.8,74.9c5.3,3.2,14.2,3.5,16.6-0.9c0,0,1-65.3-0.9-75.6c-1.3-7-12-75.2-14.4-93.5
		c0,0-47.4-10.7-48.9,6.1c-0.2,2.3-0.3,4.3-0.2,6.2c0,2.6-0.1,5-0.2,7.7C85.1,462.1,84.9,467.1,85.4,474.5z"/>
	<path class="st17" d="M110.8,474.4C110.8,474.4,110.8,474.4,110.8,474.4c0.1,0,0.1-0.1,0.1-0.1C111,474.3,110.8,474.4,110.8,474.4z
		"/>
	<path class="st18" d="M115,483.6L115,483.6c0.1,0.2,2.1,6.2,3.7,11l-1.9-19.4C116.9,475.2,116.9,476.4,115,483.6z"/>
	<path class="st19" d="M85.1,469.4c0.4-0.1,18.7-4.1,21.1-13.6c0,0-15.9,1.4-21,2C85.1,462.1,85,467,85.1,469.4z"/>
	<path class="st7" d="M113.6,363.1c4.1-1.2,4.5,5.9,8.7,6.2c2.2,0.2,1.7-0.8,2.7-1.9c0.6-0.6,1.2-1.4,2.2-0.3
		c20.4,21.7-0.8,76.4,1.8,80.3c2.1,3.1-15.2,9.9-26,7.2c-14.9-3.8-14-20.5-13.6-23.7c0.4-3.2,10-57.6,10-57.6S107,369.2,113.6,363.1
		z"/>
	<path class="st20" d="M197,407c-2.6,0.5-27.3,3.1-33.7,0.2c-3.4-1.6-15.8-30.8-36-40c0,0-0.5,3.6,0.7,13.1
		c1.6,12.5-5.2,21.4-3.9,36.6c1.8,19.6-2.9,39.6,1.8,44c2.7,2.6,6.5,3.1,11-1.8c7.2-7.7,2.5-32.9,1.8-38.9c-0.3-2.3-0.8-5.5-1.3-8.7
		c-0.6-4.1-1.7-8.9,0.2-10.3c0.6-0.4,9.7,17.1,21.3,20.5c7.5,2.2,32.8,0.4,37.9-0.6C198.8,420.5,199.9,406.4,197,407z"/>
	<path class="st20" d="M83.7,460.6c6.5,4.2,15.2,4.3,20.9-1.9c4.8-5.2-0.1-11.9,3.5-24c2-6.7,5-18.7,5.6-27.1
		c1.4-17.8,0.3-39.5-0.1-44.6c0,0-10.4,0.3-18.9,9.4c-3.6,3.9-5.8,15-6.2,23.1c-0.1,2.7-0.2,4.8-0.2,6.6c-0.1,3.7,0,6,0.1,8.6
		c0,1,0.1,2.1,0.1,3.2c0,0,0,0,0,0c0.1,1.3,0.1,2.8,0.1,4.7c0.1,3-0.9,7.9-2.1,13.3l0,0C84,443.9,80.2,458.3,83.7,460.6z"/>
	<path class="st20" d="M106.9,384.3c-22.8,38.8-30.7,42.6-32.6,44c-5.2,3.6-32.5,7-34.8,7c-2.3,0-4.3-10.1-2.9-11
		c1.6-1.1,25.5-5.6,33-10.9C74.3,410,92,376,94.9,372.5c2.9-3.5,15.4-5,15.2,1.2C110,379.9,106.9,384.3,106.9,384.3z"/>
	<path class="st21" d="M86.6,432c8.6-7.9,9.2-28,9.2-28l-7.2,10.1c0,0,0,0,0,0c0.1,1.3,0.1,2.8,0.1,4.7
		C88.8,421.7,87.8,426.6,86.6,432z"/>
	<path class="st21" d="M121.6,371.3c-0.5-0.2-2.2,8.6-6.8,12.6c-1.3,1.1-2.7,2-4.3,2.6c-4.7,1.6-20.4,3.7-26.5,4.6
		c0.9-2.2,3-4.1,4-6.7c4.7,0.2,18.2-1.5,20.6-2.5c1.8-0.7,3.4-1.7,4.8-2.9c2.7-2.2,4.7-4.8,6.2-7.1c0.8-1.1,0.5-2.5,1.7-2.9
		C122.9,368.4,122.2,371.5,121.6,371.3z"/>
	<path class="st4" d="M122.9,368.2c-0.2-0.7-1-1.7-2.5-1.3c-1.1,0.3-1.1,0.8-1.8,1.9c-2.2,3.2-5.7,7.4-10.6,9.3
		c-4.9,1.9-18.2-1.8-25.3,1.8c-7.1,3.6-7.6,10.9-18,15.5c-10.4,4.5-23.2,3-26.2,4.4c-3,1.4-4.8,2.6-4.4,3.8s2.5,2.9,5,3.2
		c2.5,0.3,22.6-3.5,27.6-5.5c8.2-3.4,13.5-13,18.9-14.9c5.4-1.9,17.7-1.8,24-3.8c7.1-2.3,10.7-12.2,11.3-12s1.1,0.4,1.9-0.1
		C123.4,370.2,123.1,368.9,122.9,368.2z"/>
	<g>
		<path class="st13" d="M128.2,343.4c0.8,3.3,5.4,9.2,3.1,9.6c-2.3,0.3,1.6,7-0.8,7.5c-5.8,1.1-13.1-1.7-14.3-4.4
			c-1.2-2.7-1.9-10.7-1.9-10.7L128.2,343.4z"/>
		<path class="st22" d="M122.7,347.5c1.9-0.1,2,0.4,3.2-0.4c1.2-0.8-1.3-2.3,1.1-3c2.4-0.8,5-1.3,4.8-4.1c-0.2-4.1-3.7-2.9-5.8-2.1
			c-1.4,0.5-2.2-2.5-5-2c-2.2,0.4-1.7,1.7-3.7,2.2c-1.2,0.3-3.8-1.3-5.4,0.4c-3.1,3.2,0.3,6-2.1,9.3c-2.9,3.8,5.9,9.7,6.7,8.7
			c0.9-1.2-1.1-4.4-0.2-5.3c1.4-1.5,1.8-0.1,3.3,0.9c1.6,1.1,4.3,0.8,2.2-1.5C119.7,348.2,121,347.6,122.7,347.5z"/>
	</g>
	<g>
		<path class="st23" d="M20.2,370.1c-0.3-1-0.5-2.1-0.6-3.2c-2-12.8,0.5-30-1.4-31.3c-0.8-0.5-1.8-1.6-3-3.2
			c-0.8-1.1-1.8-2.3-2.7-3.7l0,0c-1.8-2.5-3.6-5.4-5.2-7.7l0,0c-1.6-2.4-2.9-4.3-3.6-4.9c-0.1-0.1-0.2-0.2-0.3-0.2
			c-0.2-0.1-0.3,0-0.5,0.1c-1.8,1.6-2,15.8-2.8,20.5c-0.8,4.8,4,18.9,7.3,32.6c0.2,0.9,0.4,1.8,0.6,2.7c0,0,1.1,0.3,2.6,0.6
			c1.2,0.2,2.8,0.5,4.2,0.6c0.9,0.1,1.7,0.1,2.5,0C19.3,372.8,20.7,372,20.2,370.1z"/>
		<path class="st24" d="M66.6,621.7c0.4-1.2,0.5-2.6,0.3-4L32.8,429.1l-0.6-3.1c-0.2-0.9-0.4-1.7-0.8-2.4c-0.4-0.7-0.9-1.4-1.5-2
			c-0.9-0.9-2.1-1.5-3.3-1.9c-1-0.3-2.1-0.4-3.2-0.2c-0.1,0-0.2,0-0.3,0.1c-0.9,0.2-1.8,0.5-2.5,0.9c-1.4,0.8-2.5,2-3.2,3.4
			c-0.4,0.7-0.6,1.5-0.7,2.4c-0.1,0.8-0.1,1.7,0.1,2.5l0.6,3.1l34.1,188.6c0.7,4,4.4,6.8,8.4,6.5c0.3,0,0.5-0.1,0.8-0.1
			c0.9-0.2,1.7-0.4,2.4-0.9c0.7-0.4,1.3-0.8,1.8-1.4C65.6,623.9,66.3,622.8,66.6,621.7z"/>
		<path class="st24" d="M31.6,412.7L31.6,412.7l-7.5-41.6c-0.4-2.3-2.3-4-4.5-4.3c-0.5-0.1-1.1-0.1-1.6,0l-1.7,0.3l-7,1.3
			c-0.7,0.1-1.3,0.4-1.9,0.7c-1.7,1.1-2.7,3.2-2.3,5.4l7.5,41.5l0,0c0.5,2.9,3.3,4.8,6.1,4.2l4.3-0.8l3.4-0.6l0.9-0.2
			C30.2,418.3,32.1,415.6,31.6,412.7z"/>
		<path class="st0" d="M8.8,337.8c0.3-1-0.2-2.1-1.2-2.4c-1-0.3-2.1,0.2-2.4,1.2c-0.3,1,0.2,2.1,1.2,2.4
			C7.4,339.4,8.5,338.8,8.8,337.8z"/>
		<path class="st0" d="M7.5,336.3c-0.8-2.4-3.4-11.7-3.7-19.5c0-0.1,0-0.4-0.1-0.6c-0.1-0.1-0.2-0.2-0.3-0.2c-0.2-0.1-0.3,0-0.5,0.1
			c0,0.1,0,0.2,0,0.2c-0.3,5.4,3.1,19.5,3.5,20.3C6.8,337.4,7.5,336.5,7.5,336.3z"/>
		<path class="st25" d="M66.9,617.7L32.8,429.1c1.9-0.6,3-2.5,2.7-4.4c-0.1-0.8-0.5-1.5-1.1-2.1c1.7-1.2,2.6-3.3,2.2-5.5
			c-0.4-2-1.8-3.6-3.6-4.2c-0.5-0.2-1-0.3-1.5-0.3l-7.5-41.5c-0.4-2.3-2.3-4-4.5-4.3c-2-12.8,0.5-30-1.4-31.3
			c-0.8-0.5-1.8-1.6-3-3.2c-1.3,11.8-0.7,23.7,1.2,34.8c0.3,2,0.7,3.9,1.1,5.8c0.3,1.4,0.6,2.8,0.9,4.1c0.8,3.6,3.5,17.2,7.2,36.5
			c0.3,1.7,0.7,3.5,1,5.4c0,0.3,0.1,0.5,0.1,0.8c0.2,0.8,0.3,1.6,0.5,2.4c0.1,0.7,0.3,1.4,0.4,2.2c0.3,1.8,0.7,3.7,1,5.5
			c11.2,59.4,28.4,152.4,36.2,194.8c0.9-0.9,1.5-1.9,1.9-3.1C67.1,620.5,67.2,619.1,66.9,617.7z"/>
		<path class="st26" d="M62.9,626.1c-4.3-22.6-24.7-127.9-37.5-195.6c-0.4-1.9-0.7-3.7-1.1-5.5c-0.1-0.7-0.3-1.5-0.4-2.2
			c-0.2-1.1-0.4-2.1-0.6-3.2c0,0,0,0,0,0c-0.3-1.8-0.7-3.6-1-5.4c-4.1-21.6-6.9-37.2-7.5-41.1c0,0,0-0.1,0-0.1
			c-0.2-1.7-0.5-3.5-0.7-5.4c-1.6-14.1-2.2-30.4-1.7-38.8l0,0c-1.8-2.5-3.6-5.4-5.2-7.7c-0.2,3.4-0.4,7.9-0.4,13.1l0,0
			c0,0.4,0,0.7,0,1.1c0,0.5,0,1,0,1.6c0,0.7,0,1.5,0,2.2c0.2,9.1,0.9,19.5,2.9,29.3c0.3,1.4,0.6,2.7,0.9,4.1c0,0.1,0,0.2,0.1,0.3
			c1.4,5.6,4.6,21.1,8.7,41.9c0.3,1.7,0.7,3.5,1.1,5.4c0,0.2,0.1,0.3,0.1,0.5c0.2,0.9,0.4,1.8,0.5,2.7c0.1,0.7,0.3,1.4,0.4,2.2
			c0.4,1.8,0.7,3.7,1.1,5.5c13,67,32.2,169.2,37.2,196.1c0.3,0,0.5-0.1,0.8-0.1C61.4,626.8,62.2,626.5,62.9,626.1z"/>
		<path class="st27" d="M35.5,424.7c-0.1-0.8-0.5-1.5-1.1-2.1c-0.4-0.4-1-0.8-1.5-1c-0.6-0.2-1.3-0.3-2-0.1l-1,0.2l-2.9,0.5
			l-9.7,1.8l-1,0.2c-1.3,0.2-2.4,1.1-2.9,2.3c-0.3,0.7-0.4,1.5-0.3,2.3c0.3,1.5,1.3,2.6,2.6,3c0.5,0.2,1,0.2,1.5,0.2
			c0.2,0,0.3,0,0.5-0.1l10.8-2l3.8-0.7c0.2,0,0.3-0.1,0.5-0.1C34.7,428.5,35.9,426.6,35.5,424.7z"/>
		<path class="st28" d="M36.7,417.2c-0.4-2-1.8-3.6-3.6-4.2c-0.5-0.2-1-0.3-1.5-0.3c-0.4,0-0.8,0-1.3,0.1l-4.9,0.9l-11.6,2.1
			c-0.4,0.1-0.8,0.2-1.2,0.4c-2.3,1-3.7,3.4-3.2,6c0.4,2,1.8,3.6,3.6,4.2c0.1,0,0.3,0.1,0.4,0.1c0.7,0.2,1.5,0.2,2.3,0.1l0.8-0.2
			l10.9-2l4-0.7l0.8-0.2c0.8-0.1,1.5-0.5,2.2-0.9C36.1,421.4,37.1,419.3,36.7,417.2z"/>
	</g>
</g>
<g>
	<path class="st29" d="M392,488.1c8.2-6.3,42.4-16.5,33.6-2.2c-8.8,14.3-36.8,34.1-32.4,22.5c4.4-11.5,25.3-16.7,40.7-20.2"/>
	<ellipse class="st0" cx="444.9" cy="488.9" rx="4" ry="5"/>
</g>
<g class="st30">
	<ellipse class="st31" cx="442" cy="494" rx="36.8" ry="33"/>
	<ellipse class="st32" cx="442" cy="494" rx="27.2" ry="24.4"/>
</g>
<path class="st7" d="M622.8,167.5c-18.6,1.3-36.5-0.4-54.8-4.7c-2.8-0.7-5.8-1.5-7.7-4c-2.9-3.7-2-9.9,1.1-13.4
	c3.1-3.4,7.8-4.5,12.1-4c2.8,0.3,5.6,1.2,8.3,0.3c3.3-1.1,5.5-4.6,7.8-7.6s5.3-6,8.7-5.5c2.6,0.4,4.6,2.6,6.9,4c2.3,1.4,5.6,1.5,7-1
	c2.8-5.5-1.1-20.4,13.4-20.4c21,0,17.5,15.1,20.1,18.3c3.8,4.8,10.6,3.8,16.2,2.1s12.1-3.2,16.4,1.1c3.7,3.8,4.1,10.7,8,14.1
	c4.2,3.7,10.2,1.7,15.2,0.1c5.1-1.6,11.6-2.2,14.6,2.7c2.5,4.2,0.6,10.3-2.9,13.3s-8.2,3.8-12.6,4.1
	C671.9,169,645.9,165.9,622.8,167.5z"/>
<path class="st33" d="M265.6,20.9c9.1,0,27.7,16.1,1.1,18.7C240,42.1,200.1,40.9,184,41c-26.4,0.1-32.9-1-32.7-11.8
	c0.1-6.2,3.5-10.3,17.4-11.9c14.5-1.7,7.1-17.8,24.7-17.3c15,0.4,16.6,21.5,30.3,16.3c13.8-5.2,10.9,8.9,20.9,11.5
	C255.7,30.6,256.5,20.9,265.6,20.9z"/>
</svg>
