<?xml version="1.0" encoding="utf-8"?>
<!-- Generator: Adobe Illustrator 27.7.0, SVG Export Plug-In . SVG Version: 6.00 Build 0)  -->
<svg version="1.1" id="Layer_1" xmlns="http://www.w3.org/2000/svg" xmlns:xlink="http://www.w3.org/1999/xlink" x="0px" y="0px" viewBox="0 0 866.7 661.1" style="enable-background:new 0 0 866.7 661.1;" xml:space="preserve">
<style type="text/css">
	.st0{opacity:0.16;fill:#0F1019;}
	.st1{fill:#8EC9DA;}
	.st2{opacity:0.75;fill:#3C3C4C;}
	.st3{fill:#429F81;}
	.st4{fill:#398F70;}
	.st5{opacity:0.34;fill:#0B0A10;}
	.st6{fill:#3C3C4E;}
	.st7{fill:#F2AD1D;}
	.st8{opacity:0.14;fill:#0B0A10;}
	.st9{fill:none;stroke:#FFFFFF;stroke-width:8.5766;stroke-linecap:round;stroke-miterlimit:10;}
	.st10{fill:#464655;}
	.st11{opacity:0.6;fill:#201F3B;}
	.st12{fill:#5F5F6D;}
	.st13{fill:none;stroke:#FFFFFF;stroke-width:6.764;stroke-linecap:round;stroke-linejoin:round;stroke-miterlimit:10;}
	.st14{fill:#F5B2B4;}
	.st15{fill:#1F1E39;}
	.st16{opacity:0;fill:#201F39;}
	.st17{fill:#0168A6;}
	.st18{fill:#FFFFFF;}
	.st19{fill:#785256;}
	.st20{opacity:0.28;fill:#201F39;}
	.st21{fill:#EFAEA7;}
	.st22{opacity:0.16;fill:#201F39;}
	.st23{fill:#201F39;}
	.st24{fill:#4C4C5C;}
	.st25{opacity:0.62;fill:#201F39;}
	.st26{fill:#6E3622;}
	.st27{fill:#046AA9;}
	.st28{fill:#201F3B;}
	.st29{fill:#1E1E35;}
	.st30{opacity:0.89;fill:#0F1019;}
	.st31{opacity:0.21;fill:#201F39;}
	.st32{opacity:0.17;fill:#0F1019;}
	.st33{opacity:0.14;fill:#201F3B;}
	.st34{opacity:0.46;fill:#201F3B;}
	.st35{opacity:0.54;fill:#201F3B;}
	.st36{opacity:0.35;fill:#201F3B;}
	.st37{fill:#E89F9D;}
	.st38{opacity:0.18;fill:#201F3B;}
	.st39{opacity:0.18;fill:#201F39;}
</style>
<g>
	<path class="st0" d="M435.2,190.7c-3.5,1.2-9.7,0.9-20.4,0.7c-8.4-0.1-10.6-16.3-11-29.7c-0.3-9.6,0.4-17.8,0.4-17.8l1.6-0.6
		l26.7-10.3c-1,10.1-2.8,21.8-2.9,23.6C429.2,175.8,432.5,173.8,435.2,190.7z"/>
	<path class="st1" d="M383,119.7c-1.3,19.5-20.2,68.5-13.7,68.6c11.1,0.2,61.3,7.5,66.6-1.5c5.3-9,13.9-58.6,11.3-67.1
		C444.7,111.2,383.4,114.4,383,119.7z"/>
	<rect x="390.5" y="133.5" class="st2" width="45" height="1.8"/>
	<rect x="387.3" y="141.8" class="st2" width="45" height="1.8"/>
	<rect x="384.8" y="149.2" class="st2" width="45" height="1.8"/>
	<rect x="381.2" y="157.3" class="st2" width="45" height="1.8"/>
	<rect x="422.7" y="132.6" class="st1" width="4.8" height="3.5"/>
	<rect x="404.4" y="132.2" class="st1" width="5.4" height="4.8"/>
	<rect x="410.9" y="141.4" class="st1" width="5.7" height="2.9"/>
	<rect x="422.8" y="148.5" class="st1" width="3" height="3.8"/>
	<rect x="394.6" y="148.1" class="st1" width="6.1" height="4"/>
	<rect x="402" y="156.5" class="st1" width="2.5" height="3.4"/>
	<rect x="415.5" y="156.5" class="st1" width="2.7" height="3.4"/>
</g>
<g>
	<path class="st3" d="M530.5,614.9c15.7,0.5,20.8-6.4,28.5-20c7.8,5.6,25,12,32.7,18c-3.9,4.9-6.7,7.1-11.6,11.1
		c-4.9,3.9-10.8,6.8-17.1,7c-6.4,0.1-12.5-2.6-18-5.8C539.8,622.2,534.8,618.8,530.5,614.9z"/>
	<path class="st4" d="M548.7,627.3c-6.2-4.3-5.2-9.2-7.4-16.4c-0.8-2.5-1.3-5.2-2.9-7.3c-1.8-2.4-10.6-5.1-13.3-6.5
		c-5.3-2.6-10.2-5.9-14.5-9.9c2,9.2,7.6,17.2,14.5,23.6C532,617.2,540.1,622.1,548.7,627.3z"/>
</g>
<g>
	<g>
		<path class="st5" d="M510.3,123.8c-0.3,4.3-0.5,8.3-0.9,12c-4.8,21.6-10.3,41.6-13.7,51.3c-3.5,2.2-10.1,3.5-21.9,3.4
			c-4-0.1-6.6-3.7-8.3-8.9c-4.5-14-2.5-39.4-2.5-39.4l10.5-4.1L510.3,123.8z"/>
		<path class="st3" d="M445.4,117.6c-1.3,19.8-28.7,68.2-17.5,69.6c11.1,1.4,59.1,7.4,64.5-1.7c5.3-9.1,20.1-59,17.6-67.7
			C507.3,109.3,445.8,112.3,445.4,117.6z"/>
		<rect x="449.3" y="131.6" class="st2" width="45.5" height="1.9"/>
		<rect x="446.1" y="140" class="st2" width="45.5" height="1.9"/>
		<rect x="443.5" y="147.6" class="st2" width="45.5" height="1.9"/>
		<rect x="439.9" y="155.8" class="st2" width="45.5" height="1.9"/>
		<rect x="481.8" y="130.7" class="st3" width="4.8" height="3.6"/>
		<rect x="463.4" y="130.3" class="st3" width="5.4" height="4.9"/>
		<rect x="469.9" y="139.6" class="st3" width="5.7" height="3"/>
		<rect x="482" y="146.9" class="st3" width="3.1" height="3.8"/>
		<rect x="453.4" y="146.5" class="st3" width="6.2" height="4.1"/>
		<rect x="460.9" y="155" class="st3" width="2.5" height="3.4"/>
		<rect x="474.6" y="155" class="st3" width="2.8" height="3.4"/>
		<rect x="485.1" y="146.9" class="st3" width="6.5" height="3.8"/>
	</g>
	<path class="st6" d="M489,119.9c3.8-8.7,6.2-16.2,5.8-18c-0.4-1.8,9.5,0,8.2,1.8c-1.3,1.8-5.6,18.2-8.2,18.3S489,119.9,489,119.9z"/>
</g>
<g>
	<g>
		<path class="st5" d="M397.1,157c-2.5,43.2-8.7,55-12.2,59.3c-2.5,3.1-8.9,5.1-23,4.9c-14.1-0.2-10.4-46.6-10.4-46.6L397.1,157z"/>
		<path class="st7" d="M334.5,151c-1.2,19.1-27.7,65.8-16.9,67.2c10.7,1.4,57,7.1,62.2-1.7c5.1-8.8,19.4-56.9,16.9-65.3
			C394.2,142.9,334.9,145.9,334.5,151z"/>
		<rect x="338.3" y="164.5" class="st2" width="43.9" height="1.8"/>
		<rect x="335.2" y="172.6" class="st2" width="43.9" height="1.8"/>
		<rect x="332.7" y="179.9" class="st2" width="43.9" height="1.8"/>
		<rect x="329.2" y="187.8" class="st2" width="43.9" height="1.8"/>
		<rect x="369.7" y="163.6" class="st7" width="4.7" height="3.4"/>
		<rect x="351.9" y="163.2" class="st7" width="5.2" height="4.7"/>
		<rect x="358.1" y="172.3" class="st7" width="5.5" height="2.9"/>
		<rect x="369.8" y="179.2" class="st7" width="3" height="3.7"/>
		<rect x="342.3" y="178.8" class="st7" width="6" height="4"/>
		<rect x="349.5" y="187" class="st7" width="2.4" height="3.3"/>
		<rect x="362.7" y="187" class="st7" width="2.7" height="3.3"/>
		<rect x="372.8" y="179.2" class="st7" width="6.3" height="3.7"/>
	</g>
	<path class="st6" d="M356,137.9c0.5,12.8-3.1,17-1.5,17.4c1.6,0.4,6.1,2.3,7.1,0c1-2.3,7.2-17.1,4.7-17.4
		C363.9,137.7,356,137.9,356,137.9z"/>
</g>
<g>
	<g>
		<path class="st5" d="M556.7,158.9c-0.5,8.6,3,11.5-0.2,27.1c-3.2,15.6-9,35.7-9.7,36.6c-2.5,3.1-7.5,5.1-21.6,4.9
			c-7.8-0.1-10.1-14.4-10.7-27.1c-0.4-10.3,0.3-19.5,0.3-19.5l1.6-0.6L556.7,158.9z"/>
		<path class="st1" d="M497.8,157.3c-1.2,19.1-27.7,65.8-16.9,67.2c10.7,1.4,57,7.1,62.2-1.7c5.1-8.8,19.4-56.9,16.9-65.3
			C557.5,149.2,498.1,152.1,497.8,157.3z"/>
		<rect x="501.5" y="170.8" class="st2" width="43.9" height="1.8"/>
		<rect x="498.4" y="178.9" class="st2" width="43.9" height="1.8"/>
		<rect x="495.9" y="186.2" class="st2" width="43.9" height="1.8"/>
		<rect x="492.5" y="194.1" class="st2" width="43.9" height="1.8"/>
		<rect x="532.9" y="169.9" class="st1" width="4.7" height="3.4"/>
		<rect x="515.1" y="169.5" class="st1" width="5.2" height="4.7"/>
		<rect x="521.4" y="178.5" class="st1" width="5.5" height="2.9"/>
		<rect x="533.1" y="185.5" class="st1" width="3" height="3.7"/>
		<rect x="505.5" y="185.1" class="st1" width="6" height="4"/>
		<rect x="512.8" y="193.3" class="st1" width="2.4" height="3.3"/>
		<rect x="525.9" y="193.3" class="st1" width="2.7" height="3.3"/>
		<rect x="536" y="185.5" class="st1" width="6.3" height="3.7"/>
	</g>
	<path class="st6" d="M519.3,144.2c0.5,12.8-3.1,17-1.5,17.4c1.6,0.4,6.1,2.3,7.1,0c1-2.3,7.2-17.1,4.7-17.4
		C527.1,144,519.3,144.2,519.3,144.2z"/>
</g>
<g>
	<g>
		<path class="st5" d="M511.4,207c-0.5,8.6-1.2,16-1.9,22.3c-4.4,12.4-7.8,23.9-7.9,30.3c0,1,0,1.9,0,3c-0.9,1.7-1.7,2.8-2.3,3.7
			c-2.5,3.1-8.9,5.1-23,4.9c-7.8-0.1-10.1-14.4-10.7-27.1c-0.4-10.3,0.3-19.5,0.3-19.5l1.6-0.6L511.4,207z"/>
		<path class="st7" d="M448.8,201c-1.2,19.1-27.7,65.8-16.9,67.2c10.7,1.4,57,7.1,62.2-1.7s19.4-56.9,16.9-65.3
			C508.5,193,449.1,195.9,448.8,201z"/>
		<rect x="452.5" y="214.6" class="st2" width="43.9" height="1.8"/>
		<rect x="449.4" y="222.7" class="st2" width="43.9" height="1.8"/>
		<rect x="446.9" y="229.9" class="st2" width="43.9" height="1.8"/>
		<rect x="443.5" y="237.8" class="st2" width="43.9" height="1.8"/>
		<rect x="483.9" y="213.6" class="st7" width="4.7" height="3.4"/>
		<rect x="466.1" y="213.2" class="st7" width="5.2" height="4.7"/>
		<rect x="472.4" y="222.3" class="st7" width="5.5" height="2.9"/>
		<rect x="484.1" y="229.3" class="st7" width="3" height="3.7"/>
		<rect x="456.5" y="228.8" class="st7" width="6" height="4"/>
		<rect x="463.8" y="237" class="st7" width="2.4" height="3.3"/>
		<rect x="476.9" y="237" class="st7" width="2.7" height="3.3"/>
		<rect x="487" y="229.3" class="st7" width="6.3" height="3.7"/>
	</g>
	<path class="st6" d="M470.3,187.9c0.5,12.8-3.1,17-1.5,17.4c1.6,0.4,6.1,2.3,7.1,0c1-2.3,7.2-17.1,4.7-17.4
		C478.1,187.7,470.3,187.9,470.3,187.9z"/>
</g>
<g>
	<g>
		<path class="st5" d="M578.4,221.9c-0.5,8.6-1.7,20.6-2.5,27c-2.5,13.1-6.9,31.1-8.8,33.7c-2.3,3.2-7.9,4.8-22,4.6
			c-7.8-0.1-10.1-14.4-10.7-27.1c-0.4-10.3,0.3-19.5,0.3-19.5l1.6-0.6L578.4,221.9z"/>
		<path class="st7" d="M517.7,217c-1.2,19.1-27.7,65.8-16.9,67.2c10.7,1.4,57,7.1,62.2-1.7c5.1-8.8,19.4-56.9,16.9-65.3
			C577.4,208.9,518,211.8,517.7,217z"/>
		<rect x="521.4" y="230.5" class="st2" width="43.9" height="1.8"/>
		<rect x="518.3" y="238.6" class="st2" width="43.9" height="1.8"/>
		<rect x="515.8" y="245.9" class="st2" width="43.9" height="1.8"/>
		<rect x="512.4" y="253.8" class="st2" width="43.9" height="1.8"/>
		<rect x="552.8" y="229.6" class="st7" width="4.7" height="3.4"/>
		<rect x="535" y="229.2" class="st7" width="5.2" height="4.7"/>
		<rect x="541.3" y="238.2" class="st7" width="5.5" height="2.9"/>
		<rect x="553" y="245.2" class="st7" width="3" height="3.7"/>
		<rect x="525.4" y="244.8" class="st7" width="6" height="4"/>
		<rect x="532.7" y="253" class="st7" width="2.4" height="3.3"/>
		<rect x="545.8" y="253" class="st7" width="2.7" height="3.3"/>
		<rect x="555.9" y="245.2" class="st7" width="6.3" height="3.7"/>
	</g>
	<path class="st6" d="M539.2,203.9c0.5,12.8-3.1,17-1.5,17.4c1.6,0.4,6.1,2.3,7.1,0c1-2.3,7.2-17.1,4.7-17.4
		C547.1,203.7,539.2,203.9,539.2,203.9z"/>
</g>
<g>
	<g>
		<path class="st5" d="M457.6,200.5c-0.3,4.3-0.5,8.3-0.9,12c-4.8,21.6-10.3,41.6-13.7,51.3c-3.5,2.2-10.1,3.5-21.9,3.4
			c-4-0.1-6.6-3.7-8.3-8.9c-4.5-14-2.5-39.4-2.5-39.4l10.5-4.1L457.6,200.5z"/>
		<path class="st3" d="M392.7,194.3c-1.3,19.8-28.7,68.2-17.5,69.6c11.1,1.4,59.1,7.4,64.5-1.7c5.3-9.1,20.1-59,17.6-67.7
			C454.6,185.9,393.1,189,392.7,194.3z"/>
		<rect x="396.6" y="208.3" class="st2" width="45.5" height="1.9"/>
		<rect x="393.4" y="216.7" class="st2" width="45.5" height="1.9"/>
		<rect x="390.8" y="224.3" class="st2" width="45.5" height="1.9"/>
		<rect x="387.2" y="232.5" class="st2" width="45.5" height="1.9"/>
		<rect x="429.1" y="207.4" class="st3" width="4.8" height="3.6"/>
		<rect x="410.7" y="207" class="st3" width="5.4" height="4.9"/>
		<rect x="417.2" y="216.3" class="st3" width="5.7" height="3"/>
		<rect x="429.3" y="223.6" class="st3" width="3.1" height="3.8"/>
		<rect x="400.8" y="223.2" class="st3" width="6.2" height="4.1"/>
		<rect x="408.3" y="231.6" class="st3" width="2.5" height="3.4"/>
		<rect x="421.9" y="231.6" class="st3" width="2.8" height="3.4"/>
		<rect x="432.4" y="223.6" class="st3" width="6.5" height="3.8"/>
	</g>
	<path class="st6" d="M436.3,196.6c3.8-8.7,6.2-16.2,5.8-18c-0.4-1.8,9.5,0,8.2,1.8c-1.3,1.8-5.6,18.2-8.2,18.3
		S436.3,196.6,436.3,196.6z"/>
</g>
<g>
	<path class="st0" d="M453.4,317.7c-3.5,1.2-9.7,0.9-20.4,0.7c-8.4-0.1-10.6-16.3-11-29.7c-0.3-9.6,0.4-17.8,0.4-17.8l1.6-0.6
		l26.7-10.3c-1,10.1-2.8,21.8-2.9,23.6C447.3,302.8,450.7,300.8,453.4,317.7z"/>
	<path class="st1" d="M401.1,246.7c-1.3,19.5-20.2,68.5-13.7,68.6c11.1,0.2,61.3,7.5,66.6-1.5s13.9-58.6,11.3-67.1
		C462.8,238.2,401.5,241.4,401.1,246.7z"/>
	<rect x="408.6" y="260.5" class="st2" width="45" height="1.8"/>
	<rect x="405.5" y="268.8" class="st2" width="45" height="1.8"/>
	<rect x="402.9" y="276.2" class="st2" width="45" height="1.8"/>
	<rect x="399.4" y="284.3" class="st2" width="45" height="1.8"/>
	<rect x="440.8" y="259.6" class="st1" width="4.8" height="3.5"/>
	<rect x="422.6" y="259.2" class="st1" width="5.4" height="4.8"/>
	<rect x="429" y="268.4" class="st1" width="5.7" height="2.9"/>
	<rect x="441" y="275.5" class="st1" width="3" height="3.8"/>
	<rect x="412.7" y="275.1" class="st1" width="6.1" height="4"/>
	<rect x="420.2" y="283.5" class="st1" width="2.5" height="3.4"/>
	<rect x="433.6" y="283.5" class="st1" width="2.7" height="3.4"/>
</g>
<g>
	<g>
		<path class="st5" d="M542.9,261.9c-2.6,44.8-9,57-12.6,61.5c-2.6,3.2-9.2,5.3-23.8,5.1c-14.6-0.2-10.8-48.3-10.8-48.3L542.9,261.9
			z"/>
		<path class="st3" d="M478,255.8c-1.3,19.8-28.7,68.2-17.5,69.6c11.1,1.4,59.1,7.4,64.5-1.7c5.3-9.1,20.1-59,17.6-67.7
			C539.9,247.4,478.3,250.4,478,255.8z"/>
		<rect x="481.8" y="269.8" class="st2" width="45.5" height="1.9"/>
		<rect x="478.7" y="278.2" class="st2" width="45.5" height="1.9"/>
		<rect x="476" y="285.7" class="st2" width="45.5" height="1.9"/>
		<rect x="472.5" y="293.9" class="st2" width="45.5" height="1.9"/>
		<rect x="514.4" y="268.8" class="st3" width="4.8" height="3.6"/>
		<rect x="496" y="268.4" class="st3" width="5.4" height="4.9"/>
		<rect x="502.4" y="277.8" class="st3" width="5.7" height="3"/>
		<rect x="514.6" y="285" class="st3" width="3.1" height="3.8"/>
		<rect x="486" y="284.6" class="st3" width="6.2" height="4.1"/>
		<rect x="493.5" y="293.1" class="st3" width="2.5" height="3.4"/>
		<rect x="507.1" y="293.1" class="st3" width="2.8" height="3.4"/>
		<rect x="517.6" y="285" class="st3" width="6.5" height="3.8"/>
	</g>
	<path class="st6" d="M483.6,239.9c1,10.9-1.9,18-0.1,19.1c1.9,1.1,4.2,1.9,5.6,0c1.4-1.9,2.4-19.2,1.1-19.9
		S483.6,239.9,483.6,239.9z"/>
	<path class="st6" d="M521.5,258.1c3.8-8.7,6.2-16.2,5.8-18c-0.4-1.8,9.5,0,8.2,1.8c-1.3,1.8-5.6,18.2-8.2,18.3
		S521.5,258.1,521.5,258.1z"/>
</g>
<g>
	<g>
		<path class="st5" d="M466.2,322.9c-0.3,4.3-0.5,8.3-0.9,12c-4.8,21.6-10.3,41.6-13.7,51.3c-3.5,2.2-10.1,3.5-21.9,3.4
			c-4-0.1-6.6-3.7-8.3-8.9c-4.5-14-2.5-39.4-2.5-39.4l10.5-4.1L466.2,322.9z"/>
		<path class="st3" d="M401.2,316.7c-1.3,19.8-28.7,68.2-17.5,69.6c11.1,1.4,59.1,7.4,64.5-1.7c5.3-9.1,20.1-59,17.6-67.7
			S401.6,311.3,401.2,316.7z"/>
		<rect x="405.1" y="330.7" class="st2" width="45.5" height="1.9"/>
		<rect x="401.9" y="339.1" class="st2" width="45.5" height="1.9"/>
		<rect x="399.3" y="346.6" class="st2" width="45.5" height="1.9"/>
		<rect x="395.7" y="354.9" class="st2" width="45.5" height="1.9"/>
		<rect x="437.7" y="329.8" class="st3" width="4.8" height="3.6"/>
		<rect x="419.2" y="329.3" class="st3" width="5.4" height="4.9"/>
		<rect x="425.7" y="338.7" class="st3" width="5.7" height="3"/>
		<rect x="437.8" y="345.9" class="st3" width="3.1" height="3.8"/>
		<rect x="409.3" y="345.5" class="st3" width="6.2" height="4.1"/>
		<rect x="416.8" y="354" class="st3" width="2.5" height="3.4"/>
		<rect x="430.4" y="354" class="st3" width="2.8" height="3.4"/>
		<rect x="440.9" y="345.9" class="st3" width="6.5" height="3.8"/>
	</g>
	<path class="st6" d="M444.8,319c3.8-8.7,6.2-16.2,5.8-18c-0.4-1.8,9.5,0,8.2,1.8c-1.3,1.8-5.6,18.2-8.2,18.3
		C447.9,321.2,444.8,319,444.8,319z"/>
</g>
<g>
	<g>
		<path class="st8" d="M536.6,348.4c-2.6,44.8-9,57-12.6,61.5c-2.6,3.2-9.2,5.3-23.8,5.1c-14.6-0.2-10.8-48.3-10.8-48.3L536.6,348.4
			z"/>
		<path class="st3" d="M471.6,342.2c-1.3,19.8-28.7,68.2-17.5,69.6c11.1,1.4,59.1,7.4,64.5-1.7c5.3-9.1,20.1-59,17.6-67.7
			C533.5,333.8,472,336.8,471.6,342.2z"/>
		<rect x="475.5" y="356.2" class="st2" width="45.5" height="1.9"/>
		<rect x="472.3" y="364.6" class="st2" width="45.5" height="1.9"/>
		<rect x="469.7" y="372.1" class="st2" width="45.5" height="1.9"/>
		<rect x="466.1" y="380.3" class="st2" width="45.5" height="1.9"/>
		<rect x="508.1" y="355.2" class="st3" width="4.8" height="3.6"/>
		<rect x="489.6" y="354.8" class="st3" width="5.4" height="4.9"/>
		<rect x="496.1" y="364.2" class="st3" width="5.7" height="3"/>
		<rect x="508.2" y="371.4" class="st3" width="3.1" height="3.8"/>
		<rect x="479.7" y="371" class="st3" width="6.2" height="4.1"/>
		<rect x="487.2" y="379.5" class="st3" width="2.5" height="3.4"/>
		<rect x="500.8" y="379.5" class="st3" width="2.8" height="3.4"/>
		<rect x="511.3" y="371.4" class="st3" width="6.5" height="3.8"/>
	</g>
	<path class="st6" d="M477.3,326.3c1,10.9-1.9,18-0.1,19.1c1.9,1.1,4.2,1.9,5.6,0c1.4-1.9,2.4-19.2,1.1-19.9
		C482.6,324.9,477.3,326.3,477.3,326.3z"/>
	<path class="st6" d="M515.2,344.5c3.8-8.7,6.2-16.2,5.8-18c-0.4-1.8,9.5,0,8.2,1.8c-1.3,1.8-5.6,18.2-8.2,18.3
		C518.3,346.7,515.2,344.5,515.2,344.5z"/>
</g>
<g>
	<g>
		<path class="st5" d="M503.7,383.9c-0.3,4.3-0.5,8.3-0.9,12c-4.8,21.6-10.3,41.6-13.7,51.3c-3.5,2.2-10.1,3.5-21.9,3.4
			c-4-0.1-6.6-3.7-8.3-8.9c-4.5-14-2.5-39.4-2.5-39.4l10.5-4.1L503.7,383.9z"/>
		<path class="st7" d="M438.8,377.7c-1.3,19.8-28.7,68.2-17.5,69.6c11.1,1.4,59.1,7.4,64.5-1.7c5.3-9.1,20.1-59,17.6-67.7
			C500.7,369.3,439.1,372.4,438.8,377.7z"/>
		<rect x="442.6" y="391.7" class="st2" width="45.5" height="1.9"/>
		<rect x="439.4" y="400.1" class="st2" width="45.5" height="1.9"/>
		<rect x="436.8" y="407.7" class="st2" width="45.5" height="1.9"/>
		<rect x="433.3" y="415.9" class="st2" width="45.5" height="1.9"/>
		<rect x="475.2" y="390.8" class="st7" width="4.8" height="3.6"/>
		<rect x="456.7" y="390.4" class="st7" width="5.4" height="4.9"/>
		<rect x="463.2" y="399.7" class="st7" width="5.7" height="3"/>
		<rect x="475.4" y="407" class="st7" width="3.1" height="3.8"/>
		<rect x="446.8" y="406.6" class="st7" width="6.2" height="4.1"/>
		<rect x="454.3" y="415" class="st7" width="2.5" height="3.4"/>
		<rect x="467.9" y="415" class="st7" width="2.8" height="3.4"/>
		<rect x="478.4" y="407" class="st7" width="6.5" height="3.8"/>
	</g>
	<path class="st6" d="M482.3,380c3.8-8.7,6.2-16.2,5.8-18c-0.4-1.8,9.5,0,8.2,1.8c-1.3,1.8-5.6,18.2-8.2,18.3
		C485.5,382.3,482.3,380,482.3,380z"/>
</g>
<g>
	<g>
		<path class="st8" d="M564.5,332.2c-2.8,16.4-6.3,22.5-8.6,25.4c-2,2.6-6.7,4.4-16,4.8c-2.1,0.1-4.4,0.1-7,0.1
			c-14.1-0.2-10.4-46.6-10.4-46.6l3.7-1.4l40.7-20.4C568.8,303.9,566.2,320.6,564.5,332.2z"/>
		<path class="st7" d="M505.4,292.2c-1.2,19.1-27.7,65.8-16.9,67.2c10.7,1.4,57,7.1,62.2-1.7c5.1-8.8,19.4-56.9,16.9-65.3
			C565.1,284.2,505.8,287.1,505.4,292.2z"/>
		<rect x="509.2" y="305.7" class="st2" width="43.9" height="1.8"/>
		<rect x="506.1" y="313.9" class="st2" width="43.9" height="1.8"/>
		<rect x="503.6" y="321.1" class="st2" width="43.9" height="1.8"/>
		<rect x="500.1" y="329" class="st2" width="43.9" height="1.8"/>
		<rect x="540.6" y="304.8" class="st7" width="4.7" height="3.4"/>
		<rect x="522.8" y="304.4" class="st7" width="5.2" height="4.7"/>
		<rect x="529" y="313.5" class="st7" width="5.5" height="2.9"/>
		<rect x="540.7" y="320.4" class="st7" width="3" height="3.7"/>
		<rect x="513.2" y="320" class="st7" width="6" height="4"/>
		<rect x="520.4" y="328.2" class="st7" width="2.4" height="3.3"/>
		<rect x="533.6" y="328.2" class="st7" width="2.7" height="3.3"/>
		<rect x="543.7" y="320.4" class="st7" width="6.3" height="3.7"/>
	</g>
	<path class="st6" d="M526.9,279.1c0.5,12.8-3.1,17-1.5,17.4s6.1,2.3,7.1,0s7.2-17.1,4.7-17.4C534.8,278.9,526.9,279.1,526.9,279.1z
		"/>
</g>
<g>
	<g>
		<path class="st5" d="M385.3,234.8c-2.6,44.8-9,57-12.6,61.5c-2.6,3.2-9.2,5.3-23.8,5.1c-14.6-0.2-10.8-48.3-10.8-48.3L385.3,234.8
			z"/>
		<path class="st3" d="M320.4,228.6c-1.3,19.8-28.7,68.2-17.5,69.6c11.1,1.4,59.1,7.4,64.5-1.7c5.3-9.1,20.1-59,17.6-67.7
			C382.3,220.2,320.8,223.2,320.4,228.6z"/>
		<rect x="324.3" y="242.6" class="st2" width="45.5" height="1.9"/>
		<rect x="321.1" y="251" class="st2" width="45.5" height="1.9"/>
		<rect x="318.5" y="258.5" class="st2" width="45.5" height="1.9"/>
		<rect x="314.9" y="266.7" class="st2" width="45.5" height="1.9"/>
		<rect x="356.8" y="241.6" class="st3" width="4.8" height="3.6"/>
		<rect x="338.4" y="241.2" class="st3" width="5.4" height="4.9"/>
		<rect x="344.9" y="250.6" class="st3" width="5.7" height="3"/>
		<rect x="357" y="257.8" class="st3" width="3.1" height="3.8"/>
		<rect x="328.4" y="257.4" class="st3" width="6.2" height="4.1"/>
		<rect x="335.9" y="265.9" class="st3" width="2.5" height="3.4"/>
		<rect x="349.6" y="265.9" class="st3" width="2.8" height="3.4"/>
		<rect x="360.1" y="257.8" class="st3" width="6.5" height="3.8"/>
	</g>
	<path class="st6" d="M326,212.7c1,10.9-1.9,18-0.1,19.1c1.9,1.1,4.2,1.9,5.6,0c1.4-1.9,2.4-19.2,1.1-19.9
		C331.4,211.3,326,212.7,326,212.7z"/>
	<path class="st6" d="M364,230.9c3.8-8.7,6.2-16.2,5.8-18c-0.4-1.8,9.5,0,8.2,1.8c-1.3,1.8-5.6,18.2-8.2,18.3
		C367.1,233.1,364,230.9,364,230.9z"/>
</g>
<g>
	<g>
		<path class="st5" d="M392.7,342.3c-2.8,16.4-5.4,23.3-7.7,26.2c-2,2.6-6.7,4.4-16,4.8c-2.1,0.1-4.4,0.1-7,0.1
			c-14.1-0.2-10.4-46.6-10.4-46.6l3.7-1.4l39.5-17.7C396.8,317.6,393.4,328.3,392.7,342.3z"/>
		<path class="st7" d="M334.6,303.3c-1.2,19.1-27.7,65.8-16.9,67.2c10.7,1.4,57,7.1,62.2-1.7c5.1-8.8,19.4-56.9,16.9-65.3
			C394.2,295.2,334.9,298.1,334.6,303.3z"/>
		<rect x="338.3" y="316.8" class="st2" width="43.9" height="1.8"/>
		<rect x="335.2" y="324.9" class="st2" width="43.9" height="1.8"/>
		<rect x="332.7" y="332.1" class="st2" width="43.9" height="1.8"/>
		<rect x="329.3" y="340.1" class="st2" width="43.9" height="1.8"/>
		<rect x="369.7" y="315.9" class="st7" width="4.7" height="3.4"/>
		<rect x="351.9" y="315.5" class="st7" width="5.2" height="4.7"/>
		<rect x="358.2" y="324.5" class="st7" width="5.5" height="2.9"/>
		<rect x="369.9" y="331.5" class="st7" width="3" height="3.7"/>
		<rect x="342.3" y="331.1" class="st7" width="6" height="4"/>
		<rect x="349.5" y="339.3" class="st7" width="2.4" height="3.3"/>
		<rect x="362.7" y="339.3" class="st7" width="2.7" height="3.3"/>
		<rect x="372.8" y="331.5" class="st7" width="6.3" height="3.7"/>
	</g>
	<path class="st6" d="M356.1,290.2c0.5,12.8-3.1,17-1.5,17.4c1.6,0.4,6.1,2.3,7.1,0c1-2.3,7.2-17.1,4.7-17.4
		C363.9,290,356.1,290.2,356.1,290.2z"/>
</g>
<g>
	<path class="st0" d="M422.9,442.6c-3.5,1.2-9.7,0.9-20.4,0.7c-8.4-0.1-10.6-16.3-11-29.7c-0.3-9.6,0.4-17.8,0.4-17.8l1.6-0.6
		l26.7-10.3c-1,10.1-2.8,21.8-2.9,23.6C416.8,427.7,420.2,425.7,422.9,442.6z"/>
	<path class="st1" d="M370.7,371.6c-1.3,19.5-12.1,62.9-6.7,66.4c11.1,7.1,54.3,9.7,59.6,0.7s13.9-58.6,11.3-67.1
		C432.3,363.1,371,366.3,370.7,371.6z"/>
	<rect x="378.1" y="385.5" class="st2" width="45" height="1.8"/>
	<rect x="375" y="393.7" class="st2" width="45" height="1.8"/>
	<rect x="372.4" y="401.1" class="st2" width="45" height="1.8"/>
	<rect x="368.9" y="409.2" class="st2" width="45" height="1.8"/>
	<rect x="410.3" y="384.5" class="st1" width="4.8" height="3.5"/>
	<rect x="392.1" y="384.1" class="st1" width="5.4" height="4.8"/>
	<rect x="398.5" y="393.3" class="st1" width="5.7" height="2.9"/>
	<rect x="410.5" y="400.5" class="st1" width="3" height="3.8"/>
	<rect x="382.3" y="400" class="st1" width="6.1" height="4"/>
	<rect x="389.7" y="408.4" class="st1" width="2.5" height="3.4"/>
	<rect x="403.2" y="408.4" class="st1" width="2.7" height="3.4"/>
</g>
<g>
	<path class="st9" d="M506.1,504.3"/>
	<path class="st10" d="M485.7,478.5c0,1.6-0.1,3.3-0.1,5c-0.2,5.4-0.6,11-0.9,16c-0.1,1.7-0.3,3.4-0.4,5c-0.7,7.8-1.3,13.4-1.3,13.4
		c0,1,0,1.9-0.1,2.8c-0.1,1.7-0.3,3.3-0.6,4.9c-0.4,2.2-0.9,4.4-1.6,6.4c-0.8,2.5-1.8,4.8-3,7.1c-4.8,9-12.6,16.2-22,20.4
		c-0.9,0.4-1.9,0.8-2.9,1.2c-5.1,1.9-10.6,2.9-16.4,2.9l-3.3,0c-5.8,0-11.4-1-16.6-3c-2.8-1-5.5-2.3-8-3.9
		c-10.4-6.4-18-16.6-20.8-28.7c-0.4-1.7-0.7-3.4-0.9-5.2c-0.2-1.6-0.3-3.3-0.3-5c0,0,0-0.6-0.1-1.6c-0.1-1.6-0.2-4.4-0.4-7.8
		c-0.2-3.9-0.4-8.6-0.5-13.6c-0.1-2.7-0.2-5.4-0.2-8.1c-0.1-4.8-0.2-9.6-0.1-13.9c0-2.7,0.1-5.3,0.2-7.5c0.2-4.2,0.6-7.2,1.2-8
		c3.1-4,90.2-4.2,96.4-0.1C485.3,458.9,485.9,467.9,485.7,478.5z"/>
	<path class="st11" d="M485,494.4c-14.5-3.9-85.9-10.8-99.3-12.8c0.1-1.7,0.3-3.4,0.4-5l98.7,9.6C484.9,489,485,491.7,485,494.4z"/>
	<path class="st11" d="M482.7,517.7c-19.1-4-84.5-10.3-96.8-12.2c0.1-1.7,0.3-3.3,0.6-4.9l95.8,9.4
		C482.5,511.6,482.6,514.3,482.7,517.7z"/>
	<path class="st12" d="M380.5,471.8l-0.2,1.3c-0.4,3.6,2.3,6.8,6,7.2l96.9,10.8c3.7,0.4,7.1-2.1,7.5-5.7l0.2-1.3
		c0.4-3.6-2.3-6.8-6-7.2L388,466.1C384.3,465.7,380.9,468.2,380.5,471.8z"/>
	<path class="st12" d="M380.4,495.8l-0.2,1.3c-0.4,3.6,2.2,6.8,5.9,7.2L482,515c3.7,0.4,7-2.1,7.4-5.7l0.2-1.3
		c0.4-3.6-2.2-6.8-5.9-7.2l-95.9-10.7C384.1,489.7,380.8,492.3,380.4,495.8z"/>
	<path class="st11" d="M480.6,532.2c-0.8,2.5-1.8,4.8-3,7.1c-22-3.7-74.6-9-89.9-11c-0.4-1.7-0.7-3.4-0.9-5.2L480.6,532.2z"/>
	<path class="st12" d="M379.7,518.2l-0.2,1.3c-0.4,3.6,2.2,6.8,5.9,7.2l95.9,10.7c3.7,0.4,7-2.1,7.4-5.7l0.2-1.3
		c0.4-3.6-2.2-6.8-5.9-7.2l-95.9-10.7C383.5,512.1,380.1,514.6,379.7,518.2z"/>
</g>
<g>
	<g>
		<line class="st13" x1="619.3" y1="250.1" x2="688.2" y2="256"/>
		<line class="st13" x1="602.3" y1="248.6" x2="606.7" y2="249"/>
	</g>
	<g>
		<line class="st13" x1="607.7" y1="176.9" x2="673.4" y2="155.4"/>
		<line class="st13" x1="591.5" y1="182.2" x2="595.6" y2="180.9"/>
	</g>
	<g>
		<line class="st13" x1="563.1" y1="110.1" x2="615.1" y2="64.5"/>
		<line class="st13" x1="550.3" y1="121.3" x2="553.6" y2="118.4"/>
	</g>
	<g>
		<line class="st13" x1="481.5" y1="70" x2="500.4" y2="3.5"/>
		<line class="st13" x1="476.8" y1="86.4" x2="478" y2="82.1"/>
	</g>
	<g>
		<line class="st13" x1="394.4" y1="69.8" x2="375.2" y2="3.4"/>
		<line class="st13" x1="399.1" y1="86.2" x2="397.9" y2="82"/>
	</g>
	<g>
		<line class="st13" x1="263.2" y1="258.2" x2="206" y2="263.6"/>
		<line class="st13" x1="280.2" y1="256.5" x2="275.8" y2="257"/>
	</g>
	<g>
		<line class="st13" x1="271" y1="174.1" x2="208.2" y2="145.2"/>
		<line class="st13" x1="286.5" y1="181.2" x2="282.5" y2="179.3"/>
	</g>
	<g>
		<line class="st13" x1="312.2" y1="104.3" x2="263" y2="55.7"/>
		<line class="st13" x1="324.4" y1="116.3" x2="321.2" y2="113.2"/>
	</g>
</g>
<g>
	<path class="st14" d="M48.3,549.4c2.2,11,3.1,20.6,1.2,29.2c-1.9,8.7-15,61.4-14.1,62.9c0.9,1.5,4.5,8.1,5.3,9.7s-17.3-5-17.2-8.3
		c0.1-3.3,1.1-1.6,3.1-6.5c2-4.9,4.4-22.6,4.7-26.3s-0.3-40.5,0.9-44.6C33.4,561.4,48.3,549.4,48.3,549.4z"/>
	<path class="st15" d="M25.2,636.3c0.4-0.3,1-0.3,1.4,0.1c1.8,1.6,2.6,3.4,2.8,4.2c0.3,1.4,0.4,3.8,3.6,6.3c3.3,2.6,6.9,2.5,8,3.7
		c1.1,1.2,7.2,5.8,5.1,7.8c-2.3,1.7-9.8-0.5-12.3-2.8c-2.4-2.3-8.6-8.4-8.7-8c-0.8,0.9-1.2,0.5-1.2,0.5c-1.9-1.8-4.7-4-4.9-4.8
		c-0.2-0.8,1.1-3.3,2.5-4.4C22.4,638.2,24.2,637,25.2,636.3z"/>
	<path class="st14" d="M53.7,555c0.1,1.6,1.4,10.1,3,20.4c0.5,3.1,1,6.3,1.6,9.5c2.5,14.9,5.1,30.2,5.6,32.1c1,3.7,5,21.6,4.7,27
		c-0.2,5.4-1.8,4.1-0.7,7.4c1.1,3.2,24.4-0.2,23.1-1.5c-1.3-1.3-10.3-2.9-11.8-4.1c-1-0.8-3.5-36.3-5.4-61.9
		c-0.3-3.4-0.5-6.7-0.7-9.6c-0.6-7.5-1-13.1-1.3-15.2c-1.2-9.1-5.1-6.6-12.6-6.6C59.2,552.5,53.5,550.7,53.7,555z"/>
	<path class="st15" d="M67,647.9c0.1-0.5,0.6-0.9,1.1-0.9c2.5,0,4.4,0.8,5.1,1.3c1.2,0.9,2.9,2.7,7.2,2.4c4.3-0.3,7.3-2,9-1.8
		s8.9,1.5,8.6,4.6c-0.6,2.9-7.2,4.6-10.7,4.4c-3.5-0.1-12.8-1.6-12.6-1.2c0,1.2-0.6,1.2-0.6,1.2c-2.8-0.1-6.4,0.1-7.1-0.4
		c-0.7-0.5-1.4-3.3-1-5.1C66,651.3,66.6,649.1,67,647.9z"/>
	<path class="st16" d="M31.3,582.7c5.1,2,12.9,1.7,16.7,2.3c1-4,1.1-4.8,1.5-6.4c0.1-0.3,0.1-0.6,0.2-0.9L36,574.1l-4.7,5.1
		C31.4,580.4,31.4,581.6,31.3,582.7z"/>
	<path class="st16" d="M56.7,575.4c0.5,3.1,0.9,5.6,1.4,8.8c4.6-1.9,11-1,15.7-0.3c-0.3-3.4-0.5-6.7-0.7-9.6l-0.8-2.7L56.7,575.4z"/>
	<path class="st17" d="M0.2,573.5C5,579.4,20,575,25.6,578c0.9,0.5,2.4,1,4.4,1.6c6.8,1.9,18.5,3.6,23.3,2.4
		c6.2-1.6,12.3-7.9,27.1,0.2c3.7-13.6-5.6-73.4-12.3-89v0c-0.4-0.8-0.7-1.5-1-2.1c0,0-16.5-9.7-30.9-2.4c-2.4,1.2-4.7,2.9-6.9,5.2
		c0,0.1-0.1,0.1-0.1,0.2C14.4,517.6,26.1,542.3,0.2,573.5z"/>
	<path class="st18" d="M86.3,488.1c0.5,0.4,2.7-9.1,1.8-10.1c-0.9-1-12.7-3.5-14-3.9c-4.1-1.4-17.6-4.7-23.5-8.2
		c-4.3-2.6-7.4-3.4-20.1-11.1c6.1,6.4,4.8,17.7,4.3,23.2c-0.6,6.2-2.5,11.8-5.4,15.8c0,0.1-0.1,0.1-0.1,0.2c-1,1.8,4.8,2.6,12.1,2.7
		c10.8,0.2,25.1-1.1,26.5-2.7c0.2-0.2,0.3-0.5,0.4-0.9c0.7-4.9-7.3-23.6-7.2-26.8c0.1-3.5,6.6-5.1,7.1-7.8c0.5-2.7-5.4-8.6-4-7.8
		c4.4,2.4,25.1,10.7,28.6,7.8c3.5-3-7.2-37.8-7.2-37.8s-8.6,0.9-8.9,3.1c-0.3,2.2,8.8,19.8,6.4,23.3c-2.4,3.5-24-12.1-31-15.7
		c0,0-6.7-1-9.9-0.7c-3.2,0.3-11.8,6.8-14.1,9.7c-2.5,3.2,0.3,16,3.4,26.4C33.2,472.7,84.9,487,86.3,488.1z"/>
	<g>
		<path class="st18" d="M61.8,549.7L46.3,542l-10.7,21.4c-2.1,4.3-0.4,9.5,3.9,11.6h0c4.3,2.1,9.5,0.4,11.6-3.9L61.8,549.7z"/>
		<path class="st19" d="M173.2,326.1l3-18.7c0.5-3.1-3.3-5-5.5-2.7l-13.1,13.7L40.9,552.7l15.5,7.7L173.2,326.1z"/>
		<path class="st14" d="M173.2,326.1l4.9-24.5c0.4-2.2-2.3-3.6-3.8-1.9l-16.6,18.7l-0.1,0.3c2.2,2.1,1.4,3.5,2.7,4
			c1.7,0.6,4.1-2.6,5.8-1.7c1.8,0.9,0,2.3,1.8,3.2c1.7,0.9,2.3-0.2,3.3,0.3C172.2,325,170.7,324.9,173.2,326.1z"/>
		<path class="st15" d="M177,306.9l1.8-8.8c0.3-1.3-1.3-2.1-2.2-1.1l-5.9,6.7c-0.1,0.1-0.1,0.2,0,0.3c1.4,1.7,2.6,0.3,3.8,1.1
			c0.6,0.4,1.4,1.1,2.2,1.9C176.7,307.2,177,307.1,177,306.9z"/>
	</g>
	<path class="st14" d="M49.4,424.1c-1.2,5.6-0.9,8.5,0,10.1c0.9,1.6,1.9,5.4,0.1,5.3c-0.9,0-6.1-2.4-8.1-3.7
		c-1.9-1.4-3.1-4.1-3.1-4.1s4.1-7.1,6.9-13.1C48.2,412.7,49.4,424.1,49.4,424.1z"/>
	<path class="st20" d="M48.6,429.4c0-0.7,0.1-1.6,0.3-2.5c0-0.3,0.4-2.5,0.5-2.8c-0.3-0.3-0.9-0.7-1.2-0.8c-0.4-0.1-1.3,0-1.7-0.5
		c-0.7-0.8-2,1.6-1.4,3C45.3,426.4,46.8,428.5,48.6,429.4z"/>
	<path class="st21" d="M83.9,420.8c-1.8-4.3-7.7-6.8-10.9-6.3c-3.6,0.6-6.6,4.8-3,4.9s6.4,3.5,7.2,3.4
		C77.9,422.7,83.9,420.8,83.9,420.8z"/>
	<path class="st21" d="M82.9,484.7c3.3,3.2,9.8,3.1,12.5,1.4c3.1-2,4-7.2,0.7-5.7c-5.2,2.3-2.7-1.4-4-1.5c-2-0.2-5.5,2.8-6.6,2.2
		C84.9,480.6,82.9,484.7,82.9,484.7z"/>
	<path class="st20" d="M56.8,468.8c-12.5-7.8-14.2-9.4-14.8-16.9c-1.5,6.2-0.3,8,0.4,9.1C43.2,462.1,52.2,466.7,56.8,468.8z"/>
	<path class="st20" d="M62.9,480.7c0.2-0.1-27.8-10.4-27.8-10.9c0,1.2,0,2.2-0.1,2.9C35.9,472.5,62.4,480.9,62.9,480.7z"/>
	<path class="st20" d="M56.3,441.8c5.5,5,5.1,5,7.5,8.9c-1.9-4.5-2.8-6.8-2.8-6.8S57.5,441.8,56.3,441.8z"/>
	<path class="st22" d="M0.2,573.5C5,579.4,20,575,25.6,578c0.9,0.5,2.4,1,4.4,1.6c10.3-22.9,9.7-57.9,7.2-83c-0.3-2.8-0.6-5.5-0.9-8
		c-0.5-3.9-1-7.5-1.6-10.6c-0.6,6.2-2.5,11.8-5.4,15.8c0,0.1-0.1,0.1-0.1,0.2C14.4,517.6,26.1,542.3,0.2,573.5z"/>
	<g>
		<g>
			<path class="st14" d="M48.8,409.3c3.2,3.9,6.3,5,4.8,6.1c-1.1,0.8,5.2,9,0.1,9.6c-5.1,0.6-9.8-0.3-12-5.1
				c-2.2-4.8-3.7-7.6-3.7-7.6L48.8,409.3z"/>
			<path class="st23" d="M49.8,409.9c-0.7,2.8-2.7,4.6-3.3,5.8c-0.3,0.7-1.8,0.9-2.3,0.4c-0.6-0.6-1.8-0.4-2.6,0.5
				c-1.1,1.1,0.6,2.3,1.6,3.1c0.7,0.6,0.9,1.9,0.6,2.8c-1.1,3.4,4.8,9.6-12.3,18.1c-4.3,2.1-9.1,3.5-13.5,4.2
				c-9,1.5-16.8,0.4-17.8-2.1c-0.7-1.8,2.5-5.8,5.1-7.5c2.6-1.7,4.2-0.1,6.1-1.5c2.3-1.6-2.6-6.7,4.7-9c7.3-2.4,8.3-0.8,10.3-2.6
				c2-1.8,1.9-15.7,10.9-17.6c6.2-1.3,9.6,0.8,11.2,2.2C49,407.4,50.1,409.1,49.8,409.9z"/>
		</g>
	</g>
</g>
<g>
	<path class="st21" d="M616.3,410.5c0.7-2,1.7-5.6,2.2-8.4c0.5-2.7,1.1-5.5,2.6-7.6c2-2.8,5.3-11.8,4.8-12.5
		c-1.9-2.2-4.4,6.9-5.9,7.7c-2,1.1-5-3.4-7,0.5c-0.9,1.8,0.6,3.6-0.9,8.1c-0.9,2.7-3.9,8.6-3.8,9.9
		C608.4,409.6,616.3,410.5,616.3,410.5z"/>
	<path class="st21" d="M621.7,647.5c-0.2-4.2,0.8-14.6,0.8-14.6l11.6,0.2l-1.6,15.7l-8,4.6L621.7,647.5z"/>
	<path class="st23" d="M620.9,645.7c-1.2-0.3-0.7,0.8-1.2,2.5c-1.1,4-16.4,3.9-18.7,4.2c-1.2,0.2-3.2,6,2.7,6.1
		c5.1,0.1,21.5,0.3,27.1,0.3c1.2,0,2.2-0.7,2.5-1.8c1.1-3.8,0.9-9.8-0.7-10C630.4,646.2,626,646.9,620.9,645.7z"/>
	<g>
		<path class="st21" d="M689.1,642.6c-1.7-3.9-4.6-14-4.6-14l11-3.6l4.2,15.3l-5.8,6.9L689.1,642.6z"/>
		<path class="st23" d="M687.7,641.2c-1.2,0.1-0.4,1-0.2,2.8c0.4,4.1-14,9-16,10c-1.1,0.5-0.8,6.7,4.8,4.8
			c4.8-1.6,20.3-6.8,25.6-8.6c1.1-0.4,1.8-1.4,1.7-2.5c-0.4-3.9-2.7-9.5-4.2-9.1C696.8,638.7,692.9,640.7,687.7,641.2z"/>
	</g>
	<path class="st24" d="M649.8,497.8c-6.7,17.4-17.9,67.9-19.3,77c-1.4,9.1-11.6,68.7-11.2,71.7c11.3,2.4,17.9-0.9,17.9-0.9
		c1.4-7.6,5.7-50.4,11.5-63.3C654.4,569.5,671,530,671,530c-2.2,19.8-7.2,51.5-4.2,58c5.6,14.5,16.2,53.9,16.2,53.9
		c7.2-0.5,18.6-3.5,17.3-3.9c-3.7-10.3-12.7-43.4-13.9-53.3c-1.2-9.9,12.5-89.6,12.5-89.6l-39.6-2.5L649.8,497.8z"/>
	<path class="st25" d="M671,530c-0.4,5.7-1.5,11.7-2.2,18.3l7.4-30C676.2,518.3,674.8,523.5,671,530z"/>
	<g>
		<path class="st21" d="M671.7,406.1c-3.7,5.8-5.4,6.7-5.8,7.4c0.9,1.2,1.4-0.4-0.1,2.7c-2.2,4.6-3.5,8.4,3.5,6.8
			c-1.6,3.4-2.2,4.6-2.2,4.6l-1,7.2l9.5,2.3c0.1-6.5,11.2-22.9,9.1-27.8C682.5,404.5,672.8,404.4,671.7,406.1z"/>
		<path class="st26" d="M674.7,418.6c3-0.7,2.8-5.2-0.5-3.8c-2.1-1.1-1.9-1.2-0.9-3.1c1-1.8-0.9-1.8-1.8-3.8c-1-2-2.4-3.6-0.1-5.1
			c0,0-0.3-1.7,0.7-2.5c1-0.8,4.1-1.8,5.3,0.2c1.2,2,0.3,3.3,3.5,2.1c3.2-1.2,5.9,0,5.5,3.6c-0.5,4.1,2.1,1.6,2,5.7
			c-0.2,7.3-4.1,5.3-5.3,9c-1.2,3.7-4,6.8-6.7,5.5C673.7,425.1,673.8,420.5,674.7,418.6z"/>
		<path class="st22" d="M669.4,423.1c2.3-1.1,3-0.5,3.3,0c2.3,5.3-1.9,4.4-4.3,6.2c-2.4,1.9-0.6-2.6-0.6-2.6L669.4,423.1z"/>
	</g>
	<path class="st27" d="M680.2,429.3c-2.5-1-15.5-2.6-21.5,0.7c-6,3.4-10.1,3.4-17,6.4c-6.8,2.9-15.6,3.8-23,1.7
		c-6.5-1.9,2.7-36.5,2.7-36.5c-1.7-1.1-11.9-1.7-13.2-0.8c-1,3.6-14.7,47.1,2.4,50.7c11.7,2.5,40.1,0.3,41.1,4.9
		c0.1,11.4,3.3,17.8-2,41.4c13.5,11.8,49.6,8,50.6,0.8c1-7.2-3.8-49.2-5.7-54.3C692.2,437.7,682.7,430.3,680.2,429.3z"/>
	<path class="st20" d="M651.8,456.4c0.1,10,3.1,18.5-1,36.7c0.5,0,1.6-2.8,2.3-3.9c3-4.8,6.5-27.1,5.5-29c-0.9-1.8-2.1-2.7-7.3-4.7
		C651.5,455.6,651.7,456.1,651.8,456.4z"/>
</g>
<g>
	<path class="st21" d="M859,503.6c0.2,3.7,0.3,5.5,2.1,7c1.3,1.1,6.3,3.8,5.6,7.2c-0.8,3.8-3.3,3.5-5.9,1c-4.3-4.1-5.4,0.1-6.6-1.3
		c-0.8-1,0.7-2.6-0.2-4.7c-1.1-2.5-3.2-8.8-3.2-8.8L859,503.6z"/>
	<g>
		<path class="st21" d="M781.5,522.8c0,0-4.3,40.3-5.6,51c-1.4,11.6,10.3,61.7,10.3,64.9s-1.1,5.8-4.9,9.6c0,0-0.1,0.1-0.1,0.1v0
			c-1.6,1.4-0.1,4,1.9,3.3l8.5-3.1c0.2-0.1,0.4-0.2,0.5-0.3l4.3-3.4c0.5-0.4,1.7,3.1,0.7-1.7c-6.1-31.4-1.6-33.7-4.7-66.6
			c-0.5-5,8.9-46.3,8.9-46.3C801.9,523.3,784.1,517.3,781.5,522.8z"/>
		<path class="st28" d="M794.3,651.5c-1.7,0.7-6.8,3.7-10.7,5.7c-1.7,0.9-3.2,1.6-4.1,1.8c-0.1,0-0.2,0-0.2,0
			c-2.5,0.3-8,0.4-9.1-0.6c-1.1-1-0.4-3.8,1.9-5.5c1-0.7,2.6-1.6,4.3-2.3c1.7-0.8,3.3-1.4,4-1.7c0.3-0.1,0.4-0.2,0.4-0.2
			s0.3,0,0.3,0.3c0,0.7,0,1.9,3,1.6c4-0.4,10.3-6.6,12.4-9.7c0.2-0.4,0.8-0.4,1-0.1c1.2,1.5,3.8,5.3,1.4,9.8
			c-2.6,4.3-2.8,9.6-2.8,9.6l-1.6-0.2C794.6,660.1,795.6,653,794.3,651.5z"/>
	</g>
	<g>
		<path class="st21" d="M800.2,524.4c0,0,4.1,41.1,4.9,51.9c0.8,11.6,21.2,57.9,21.9,61c0.7,3.1,0,5.9-3,10.4c0,0-0.1,0.1-0.1,0.1
			l0,0c-1.3,1.7,0.7,4,2.5,2.9l7.8-4.6c0.2-0.1,0.3-0.2,0.5-0.4l3.6-4.2c0.4-0.5,2.1-0.5,0.2-4.2c-9.5-18-8.2-35.8-17.1-61.3
			c-1.6-4.8-0.2-48-0.2-48C820.3,521,801.7,518.6,800.2,524.4z"/>
		<path class="st28" d="M837.2,648.3c-1.6,1-6,4.9-9.4,7.7c-1.5,1.2-2.9,2.2-3.7,2.5c-0.1,0-0.2,0.1-0.2,0.1c-2.4,0.8-7.8,1.9-9,1.1
			c-1.3-0.8-1.1-3.6,0.8-5.7c0.8-0.9,2.3-2,3.8-3.1c1.5-1.1,3-2,3.6-2.4c0.2-0.1,0.4-0.2,0.4-0.2s0.3-0.1,0.4,0.2
			c0.1,0.7,0.3,1.9,3.3,1c3.9-1.1,9.5-7.8,10.9-11.3c0.2-0.4,0.8-0.9,1.2-0.7c1.5,1.2,4,4.3,2.5,9.1c-1.7,4.7-0.9,10-0.9,10
			l-1.6,0.1C839.2,656.7,838.8,649.5,837.2,648.3z"/>
	</g>
	<path class="st29" d="M774.9,560.2c1.4,6,25.5,2.1,36.3,3.1c6.7,0.6,15.5,0.6,13.9-2.7c-4.3-9.3,6.1-9.7-0.8-22.8
		c-4-7.5,3.9-16.6,4-31.9c0-3.9-0.6-8.3-2.2-13c-1-2.8-3.3-4.6-5.3-6.2c-0.1-0.1-0.3-0.2-0.4-0.3c-0.2-0.2-0.4-0.3-0.5-0.4l0,0
		c-0.2-0.2-0.2-0.3-0.2-0.3s0,0-0.1,0.1c-3.1-2.5-2-1.1-0.6,0.4c-0.4,0.3,1.3,0.2,0.6,0.6l0,0c-0.5,0.3-1,0.6-1.6,0.9
		c-0.9,0.5-1.9,1.1-3.1,1.7c-5.2,2.7-12.7,6-19.7,6.5c-0.1,0-0.1,0-0.2,0c-1,0.1-1.9,0.1-2.9,0c-1.2-0.1-2.1,1.1-3.2,0.9
		C779.9,509.5,773.5,554.3,774.9,560.2z"/>
	<path class="st30" d="M790.5,498.4c0,0,16.5,15.7,37.5,12.5c0.7-3.9,0.9-8.2,0.1-13.2c-0.5-2.9-2.4-5.1-4.1-7l-0.2,0l0,0l-0.1,0
		l-0.6,0l-2,0.3l-2,0.2l-18.2,1.4l-2.3,1.6l-1.1,0.8l-0.4,0.2L790.5,498.4z"/>
	<path class="st14" d="M742.1,421.5c-4.1-5.6,1.2-5.5-1.1-7.2c-1.7-1.3-4,2.9-5.2,0.3c-1-2.2-5.2-7.6-8.7-4
		c-2.3,2.3,2.4,9.6,3.4,10.9c1.8,2.4,8.4,6.8,8.7,11.4c0.3,4.6,7-6.1,7-6.1L742.1,421.5z"/>
	<path class="st18" d="M805.6,430.2l-5.8,2.3l-9.8,32.4c0,0,1.7,19.9,5.9,27c5.4,9.3,24.6,0.4,23.9-1.7c-6.4-19.3-7-59.7-7-59.7
		L805.6,430.2z"/>
	<path class="st27" d="M851,506.5c-0.3-1-7.9-30.8-9-33.5c-0.8-1.9-13.2-17.9-14.8-16.6c-2.5,2-5.5,12.6-4.8,20.1
		c0.1,1.6,0.5,3,1,4.2c2.9,6.7,5.6,12,5.1,15.5c-0.6,3.5-18.5,8.9-20.1,7c-1.7-1.9,3-25.5,1.4-31c-1.4-4.9-7.8-12.4-4.5-19
		c3.3-6.6,7.1-23,7.1-23c1.6,0.4,4.2,0.9,5.9,1.6c3.7,1.7,7.5,4.4,11.1,7.6c10.6,9.3,19.6,22.6,22,28.2c2.8,6.7,9,38.4,9,38.4
		C860.9,508.3,851.3,507.5,851,506.5z"/>
	<path class="st27" d="M785.4,436.9c-6.7,3.7-12.1,9.4-19.4,9.5c-4.4,0-22.1-24.2-22.1-24.2c-3,0-7.3,8-7.3,8
		c-0.1,2.2,17.9,27.6,27.4,29.4c5.3,1,17.5-8.5,21.3-7.2c0.7,0.2-3.4,5.6-1.2,11.4c4.2,11.2,8.3,28.6,1.9,34.7
		c-3,2.9,11.8,3.5,14-0.1c7.7-12.6-9.1-30.7-6.3-38.3c2.8-7.7,3.9-10,4.9-17.1c0.9-6.7,2.2-11.2,2.2-11.2S791.6,433.5,785.4,436.9z"/>
	<path class="st14" d="M800.2,445.2c1,0.1,4.9-5.2,7.2-6.5c2.3-1.3,5.3-7.5,5.3-7.5s-1.7-3.9-3.6-8.6c-0.2-0.6-0.5-1.2-0.7-1.8
		c-0.7-1.7-1.3-3.5-1.9-5.2c-2.5-7.1-5.1,5.8-5.1,5.8c0.2,0.6,0.4,1.3,0.5,1.9c0.4,1.9,0.5,3.5,0.3,4.9c-0.3,2.2-1.3,3.8-2,4.7
		C799,434.5,798.2,445.1,800.2,445.2z"/>
	<path class="st31" d="M802.1,428.1c3.7-1.4,6.2-4.1,7-5.4c0.2-0.3,0.3-0.5,0.3-0.6c0-0.7-0.4-1.1-1-1.2c-1.3-0.3-3.3,0.7-3.9,1.3
		c-0.5,0.5-1.3,0.8-1.8,0.8c-0.2,0-0.5,0.1-0.8,0.3C802.3,425.1,802.3,426.7,802.1,428.1z"/>
	<path class="st32" d="M822.4,476.5c-1.5-2.8-3.7-7.1-3.8-8.7c-0.1-2.5,3.8-8.6,8.6-11.4C824.7,458.5,821.7,469.1,822.4,476.5z"/>
	<path class="st32" d="M828.6,439.5c-0.8,0-1.7,0.1-2.8,0.1c-4.3,0.1-13.1-3.4-14.2-5.9l6-1.8C821.2,433.6,825,436.3,828.6,439.5z"/>
	<g>
		<path class="st14" d="M802.5,409c-2.4,3.9-5.1,5.2-3.7,6c1.1,0.6-3.7,8.7,0.9,8.6c4.6,0,8.8-1.3,10.3-5.9c1.5-4.6,2.5-7.2,2.5-7.2
			L802.5,409z"/>
		<path class="st23" d="M802.5,409c1.3,1.9,2.8,1.6,2.7,5.5c0,2,1.7,0.6,2.1,0.1c0.5-0.6,1.5-0.5,2.4,0.2c1.1,0.9-0.3,2.1-1.1,3
			c-0.6,0.6,0.4,2-0.2,2.6c-1.2,1.2-3.7,5.6,1.1,11c1.6,1.8-3.1,3.8-4.4,7.3c-1.2,3.6,1,8.7,5.4,10.3c4.1,1.4-0.5-7.4,3.5-7.2
			c8.2,0.3,2.6-4.7,3.2-7c0.5-1.7,2.7-1.7,4.6-3.9c1.8-2,3-4.9,2.7-8.6c-0.4-5-3.3-4.1-4.8-6.3c-1.4-2,1.5-11.1-8-13
			c-5-1-7.3,0.9-9.1,2.5C801.2,406.9,802.1,408.3,802.5,409z"/>
	</g>
	<g>
		<path class="st18" d="M711.4,630.8l-16.7-2.3l-3.2,23.1c-0.6,4.6,2.6,8.9,7.2,9.5l0,0c4.6,0.6,8.9-2.6,9.5-7.2L711.4,630.8z"/>
		<path class="st19" d="M744.8,390.1l-3-18.2c-0.5-3-4.6-3.6-5.9-0.8l-7.8,16.7l-35,252.3l16.7,2.3L744.8,390.1z"/>
		<path class="st14" d="M744.8,390.1l-3.1-24.1c-0.3-2.2-3.3-2.6-4.1-0.6l-9.5,22.4l0,0.3c2.6,1.2,2.4,2.8,3.7,2.9
			c1.8,0.1,3-3.6,4.9-3.4c1.9,0.3,0.7,2.1,2.6,2.4c1.9,0.3,2-0.9,3.2-0.7C743.6,389.4,742.2,389.8,744.8,390.1z"/>
		<path class="st15" d="M742.4,371.2l-1.1-8.6c-0.2-1.3-1.9-1.5-2.4-0.3l-3.4,8c0,0.1,0,0.2,0.1,0.3c1.8,1.1,2.5-0.5,3.8-0.2
			c0.6,0.2,1.6,0.6,2.6,1.1C742.2,371.5,742.4,371.4,742.4,371.2z"/>
	</g>
</g>
<g>
	<path class="st21" d="M232.4,431.6c2-1.4,3.1-2.6,5.9-4.1c2.8-1.5,4.7-1.9,6.2-4.1c1.3-1.9,5.5-6,9-5.6c3.1,0.3,6.8,2.8,5.3,3.8
		c-7.3,4.8-4.2,6.3-3.9,8.1c0.5,3.1-8.2,0.3-10.9,3.7c-2,2.5-5.1,4.4-6.4,4.8C236.1,438.5,232.4,431.6,232.4,431.6z"/>
	<path class="st21" d="M167.4,425.9l-8.8-2.5c-0.1-4,4.2-12.5,4.9-16.1c0.7-4,5.6-7.6,5.6-7.6l3,8.3l-0.2,0.7c0,0-0.7,6.9,0.5,10.1
		c0.7,1.8,0.3,4.5,2.2,7.2C176,428.2,167.4,425.9,167.4,425.9z"/>
	<path class="st33" d="M171.8,410.2c0,0-0.4,4.5,0.2,7.1c-5.5,2.5-8.4-3.7-7-5.3c0.9-1,4-3.2,4-3.2L171.8,410.2z"/>
	<g>
		<path class="st21" d="M172.1,394.1c1.5,3,7.3,7.6,5.2,8.4c-2.1,0.9,3.2,6.4,1,7.4c-5.3,2.4-13,1.6-14.8-0.7
			c-1.8-2.3-4.4-9.8-4.4-9.8L172.1,394.1z"/>
		<path class="st28" d="M167.8,399.4c1.8-0.5,2-0.1,3-1.2c1-1.1-1.8-1.9,0.3-3.2c2.1-1.3,4.5-2.5,3.7-5.1c-1.2-3.8-4.2-1.9-6.1-0.6
			c-1.2,0.8-2.7-1.9-5.2-0.7c-2,1-1.3,2-3,3c-1.1,0.6-3.9-0.4-5.1,1.7c-2.2,3.8,1.7,5.7,0.1,9.4c-1.8,4.4,8,7.9,8.5,6.8
			c0.6-1.3-2.1-3.9-1.5-5.1c1-1.7,1.7-0.6,3.4,0.1c1.8,0.7,4.3-0.3,1.8-2C165,400.8,166.1,399.9,167.8,399.4z"/>
	</g>
	<path class="st18" d="M191,647.1c0.4-3.9,0.1-13.8,0.1-13.8l-10.8-0.4l0.6,14.9l7.1,4.7L191,647.1z"/>
	<path class="st28" d="M191.9,643.9c0.9-0.7,2.9,1.7,3.4,3.4c1,3.8,13,4.2,15.2,4.6c1.1,0.2,2.9,5.7-2.6,5.7c-4.8,0-20.1,0-25.3-0.1
		c-1.1,0-2-0.7-2.3-1.7c-0.9-3.6-1.1-12.2,0.4-12.3C182.5,643.9,188.4,646.6,191.9,643.9z"/>
	<path class="st18" d="M149.4,647.2c0.4-3.9,0.2-13.8,0.2-13.8l-10.8-0.4l0.5,14.9l7.1,4.8L149.4,647.2z"/>
	<path class="st28" d="M150.6,642.8c1.2,0.1,1,1.2,1.4,2.8c0.9,3.8,14.7,6.2,16.8,6.6c1.1,0.2,2.8,5.7-2.7,5.7
		c-4.8-0.1-20.1-0.2-25.3-0.3c-1.1,0-2-0.7-2.3-1.8c-0.9-3.6-1.2-13.6,0.2-13.7C140.7,642.5,145.3,642.4,150.6,642.8z"/>
	<path class="st6" d="M133.9,517.8c0.1,1.8,0.3,3.7,0.6,5.8c0.9,7.9,2.9,34.6,2.4,51.5c-0.5,16.9,1,56.3,1,62.4
		c5.1,2.2,8.3,1.5,15.6,0c0,0,1.3-32.5,2.7-61c1.2-23.1,1.5-20.8,5.8-50.3l0,0c0,0.1,1.1,3,2.6,7.4c3.2,9.4,8.6,25.9,11.2,37.8
		c4,18.6,1.9,67.1,3.6,68.8c5,3,13.5,3.2,15.8-0.9c0,0,1-60-0.8-69.4c-1.2-6.4-11.4-69-13.7-85.8c0,0-45-9.8-46.4,5.6
		c-0.2,2.1-0.2,4-0.2,5.7c0,2.4-0.1,4.6-0.2,7C133.6,506.5,133.4,511,133.9,517.8z"/>
	<path class="st34" d="M158.1,517.7C158.1,517.7,158.1,517.7,158.1,517.7c0.1,0,0.1-0.1,0.1-0.1
		C158.2,517.6,158.1,517.7,158.1,517.7z"/>
	<path class="st35" d="M162.1,526.1L162.1,526.1c0.1,0.1,2,5.7,3.5,10.1l-1.8-17.8C163.8,518.5,163.9,519.5,162.1,526.1z"/>
	<path class="st36" d="M133.7,513.2c0.4-0.1,17.7-3.8,20.1-12.5c0,0-15.1,1.3-19.9,1.8C133.6,506.5,133.5,510.9,133.7,513.2z"/>
	<path class="st18" d="M160.7,415.5c3.9-1.1,4.3,5.4,8.2,5.7c2.1,0.2,1.6-0.7,2.6-1.7c0.6-0.6,1.2-1.3,2.1-0.3
		c19.4,19.9-0.8,70.2,1.7,73.7c2,2.9-14.4,9.1-24.7,6.6c-14.2-3.5-13.3-18.8-12.9-21.8c0.4-2.9,9.5-52.8,9.5-52.8
		S154.4,421.2,160.7,415.5z"/>
	<path class="st27" d="M241.1,423.7c-1.5-2.4-32.3,27.3-36.7,24.3c-7.8-5.2-15.1-24.1-30.8-28.7c0,0-0.5,3.3,0.6,12
		c1.5,11.5-5,19.7-3.7,33.6c1.7,18-2.7,36.4,1.7,40.4c2.6,2.4,6.2,2.8,10.5-1.7c6.8-7.1,2.3-30.2,1.7-35.7c-0.2-2.1-0.8-5-1.2-8
		c-0.6-3.7-1.6-8.1,0.2-9.5c0.5-0.4,11.5,12.9,20.3,12.8c6.5-0.1,36.4-24,37.4-25C243.9,435.1,241.1,423.7,241.1,423.7z"/>
	<path class="st37" d="M144.7,508.8c0.4,0.7,1.5,0.7,1,1.2c-0.6,0.5-7.7,3.6-7.7,3.6s-0.7,0.7-1.5-0.5c-0.8-1.2-0.8-2.5-0.8-2.5
		L144.7,508.8z"/>
	<path class="st27" d="M132.3,505c6.2,3.9,14.4,4,19.9-1.7c4.5-4.8-0.1-10.9,3.3-22c1.9-6.2,4.7-17.2,5.3-24.9
		c1.3-16.3,0.3-36.3-0.1-40.9c0,0-9.8,0.2-17.9,8.7c-3.4,3.5-5.5,13.8-5.9,21.2c-0.1,2.5-0.2,4.4-0.2,6.1c-0.1,3.4,0,5.5,0.1,7.9
		c0,0.9,0.1,1.9,0.1,3c0,0,0,0,0,0c0,1.2,0.1,2.6,0.1,4.3c0.1,2.7-0.9,7.2-2,12.2l0,0C132.6,489.7,129,503,132.3,505z"/>
	<path class="st27" d="M154.4,435c-21.7,35.6-22.9,30.9-23.4,36.7c-0.5,5.8,14.3,37.3,14.3,37.3s-8.9,5-9.9,3.5
		c-1-1.5-20.1-36.8-19.4-44.3c0.8-8.3,24.2-40.8,26.9-43.9c2.7-3.2,14.6-4.6,14.5,1.1C157.3,431,154.4,435,154.4,435z"/>
	<path class="st38" d="M135.1,478.8c8.2-7.3,8.7-25.7,8.7-25.7l-6.8,9.2c0,0,0,0,0,0c0,1.2,0.1,2.6,0.1,4.3
		C137.2,469.4,136.2,473.9,135.1,478.8z"/>
	<path class="st38" d="M133.8,484.4c0.6,2.6,10.7,22.9,10.7,22.9l-9.8-26.5L133.8,484.4z"/>
	<g>
		<path class="st18" d="M238.4,628.1l-17.2-2.4l-3.3,23.7c-0.7,4.7,2.7,9.1,7.4,9.8l0,0c4.7,0.7,9.1-2.7,9.8-7.4L238.4,628.1z"/>
		<path class="st19" d="M272.7,380.7l-3.1-18.7c-0.5-3.1-4.8-3.7-6.1-0.8l-8,17.1l-36,259.3l17.2,2.4L272.7,380.7z"/>
		<path class="st14" d="M272.7,380.7l-3.1-24.8c-0.3-2.3-3.4-2.7-4.3-0.6l-9.8,23l0,0.3c2.7,1.3,2.4,2.9,3.8,3
			c1.8,0.1,3.1-3.7,5-3.5c1.9,0.3,0.8,2.2,2.7,2.5c1.9,0.3,2.1-0.9,3.3-0.8C271.5,380,270,380.4,272.7,380.7z"/>
		<path class="st15" d="M270.3,361.3l-1.1-8.9c-0.2-1.3-1.9-1.5-2.4-0.3l-3.5,8.2c0,0.1,0,0.2,0.1,0.3c1.8,1.2,2.6-0.5,3.9-0.2
			c0.6,0.2,1.7,0.6,2.7,1.1C270.1,361.6,270.3,361.5,270.3,361.3z"/>
	</g>
</g>
<g>
	<path class="st39" d="M168.9,422.9c-0.3-0.3-5.3,5-10.3,5.9c-1.4,0.2-2.8,0.3-4.2-0.1c-4-0.9-11.8-4.1-11.8-4.1s3.4-3.5,5.9-4.3
		c3.3,2.1,4.5,3.9,6.6,4.3c1.6,0.3,3.2,0.3,4.7,0.1c2.9-0.4,5.5-1.4,7.5-2.3c1-0.5,1.5-1.5,2.5-1.3
		C171.1,421.5,169.2,423.3,168.9,422.9z"/>
	<path class="st7" d="M171.2,422.2c0.1-0.6,0-1.8-1.3-2.1c-1-0.2-1.2,0.1-2.3,0.6c-3.1,1.4-7.6,3-12.2,2.2c-4.6-0.8-13-9.3-20-9.8
		c-7-0.5-10.7,4.8-20.6,3.6c-9.9-1.2-18.9-8-21.9-8.3c-2.9-0.3-4.8-0.2-5,0.9c-0.2,1.1,0.6,3.3,2.4,4.6c1.7,1.3,18.7,7.4,23.4,8
		c7.7,1.1,16.1-3.7,21-2.7c4.9,0.9,14.2,6.5,20,7.8c6.4,1.4,13.6-4.3,13.9-3.9c0.3,0.4,0.6,0.8,1.5,0.8
		C170.7,423.9,171.1,422.8,171.2,422.2z"/>
</g>
</svg>
