<?xml version="1.0" encoding="utf-8"?>
<!-- Generator: Adobe Illustrator 27.4.1, SVG Export Plug-In . SVG Version: 6.00 Build 0)  -->
<svg version="1.1" id="Layer_1" xmlns="http://www.w3.org/2000/svg" xmlns:xlink="http://www.w3.org/1999/xlink" x="0px" y="0px" viewBox="0 0 900 600" style="enable-background:new 0 0 900 600;" xml:space="preserve">
<style type="text/css">
	.st0{fill:#EFE5D8;}
	.st1{fill:#EFAEA7;}
	.st2{opacity:0.14;fill:#201F3B;enable-background:new    ;}
	.st3{fill:#201F3B;}
	.st4{fill:#FFFFFF;}
	.st5{fill:#3C3C4E;}
	.st6{opacity:0.46;fill:#201F3B;enable-background:new    ;}
	.st7{opacity:0.54;fill:#201F3B;enable-background:new    ;}
	.st8{opacity:0.35;fill:#201F3B;enable-background:new    ;}
	.st9{fill:#046AA9;}
	.st10{opacity:0.18;fill:#201F3B;enable-background:new    ;}
	.st11{fill:#201B2C;}
	.st12{fill:#EEADA6;}
	.st13{fill:#603B3E;}
	.st14{fill:#785256;}
	.st15{fill:#0268A4;}
	.st16{opacity:0.18;fill:#201F39;enable-background:new    ;}
	.st17{fill:#F2AD1D;}
	.st18{fill:#429F81;}
	.st19{opacity:0.17;fill:#201F39;enable-background:new    ;}
	.st20{fill:none;stroke:#FFFFFF;stroke-width:5.3094;stroke-linecap:round;stroke-linejoin:round;stroke-miterlimit:10;}
	.st21{opacity:0.9;}
	.st22{fill:none;stroke:#FFFFFF;stroke-width:4.5653;stroke-linecap:round;stroke-linejoin:round;stroke-miterlimit:10;}
	.st23{fill:#4D4C60;}
	.st24{fill:#ABABB0;}
	.st25{fill:#5E5E6D;}
	.st26{fill:#EDDCC3;}
	.st27{opacity:0.25;fill:#201F39;enable-background:new    ;}
	.st28{fill:#F5B2B4;}
	.st29{fill:#1F1E39;}
	.st30{fill:#201F39;fill-opacity:0;}
	.st31{fill:#0168A6;}
	.st32{opacity:0.28;fill:#201F39;enable-background:new    ;}
	.st33{opacity:0.16;fill:#201F39;enable-background:new    ;}
	.st34{fill:#201F39;}
</style>
<polyline class="st0" points="900,0 900,600 0,600 0,0 "/>
<g>
	<g>
		<path class="st1" d="M299.9,405.8c0,0-2.2-5.6-1.3-6.3c0.9-0.6,3.5-1.5,6-1.5c0.8,0,1.5-0.3,2.2-0.9c1.1-0.8,4.1-2.1,7.3-2.9
			c2.1-0.5,2.5,4.7,1.9,5.7c-0.7,1.1-4.2,2.6-5.1,2.5c-2-0.2-3.3,0.8-5.5,1.6C303,405.2,301.7,405.3,299.9,405.8z"/>
		<path class="st1" d="M244.4,391.7l-6.5-1.8c-0.1-3,3.1-9.2,3.6-11.8c0.5-2.9,4.1-5.6,4.1-5.6l2.1,6.1l-0.1,0.5
			c0,0-0.5,5.1,0.4,7.5c0.5,1.4,0.2,3.3,1.6,5.3C250.7,393.4,244.4,391.7,244.4,391.7z"/>
		<path class="st2" d="M247.6,380.2c0,0-0.3,3.3,0.2,5.2c-4,1.8-6.1-2.7-5.1-3.9c0.7-0.7,2.9-2.3,2.9-2.3L247.6,380.2z"/>
		<path class="st1" d="M250.7,371.6c0.3,5.7,2.3,6.7,0.4,6.8c-1.5,0.1,0.4,4.8-1.2,4.8c-3.9,0.1-7.7-2.5-8.2-4.5
			c-0.5-1.9-0.1-7.4-0.1-7.4L250.7,371.6z"/>
		<path class="st3" d="M246.2,373.9c1.2,0.2,1.3,0.5,2.1,0c0.9-0.4-0.6-1.6,1-1.9c1.5-0.3,3.3-0.4,3.5-2.2c0.3-2.7-2-2.3-3.5-2
			c-1,0.2-1.2-1.9-3-1.8c-1.5,0.1-1.3,1-2.6,1.1c-0.8,0.1-2.3-1.3-3.5-0.3c-2.3,1.8-0.4,4.1-2.3,6c-2.2,2.2,2.8,7.2,3.4,6.6
			c0.7-0.7-0.3-3,0.4-3.6c1.1-0.8,1.2,0.1,2,1c1,1,2.6,1,1.5-0.8C244.1,374,245,373.8,246.2,373.9z"/>
		<path class="st4" d="M261.6,554.4c0.3-2.9,0.1-10.2,0.1-10.2l-7.9-0.3l0.4,10.9l5.2,3.5L261.6,554.4z"/>
		<path class="st3" d="M262.3,552c0.7-0.5,2.1,1.3,2.4,2.5c0.7,2.8,9.6,3.1,11.1,3.4c0.8,0.1,2.1,4.2-1.9,4.2
			c-3.5,0-14.7,0-18.5-0.1c-0.8,0-1.5-0.5-1.6-1.3c-0.7-2.7-0.8-8.9,0.3-9C255.4,552,259.8,554,262.3,552z"/>
		<path class="st4" d="M231.2,554.5c0.3-2.9,0.1-10.2,0.1-10.2l-7.9-0.3l0.4,10.9l5.2,3.5L231.2,554.5z"/>
		<path class="st3" d="M232.1,551.2c0.9,0.1,0.7,0.9,1,2c0.7,2.8,10.7,4.6,12.3,4.8c0.8,0.1,2.1,4.3-1.9,4.2
			c-3.5,0-14.7-0.2-18.5-0.2c-0.8,0-1.5-0.6-1.6-1.3c-0.7-2.7-0.9-10.1,0.2-10.1C224.8,551,228.2,550.9,232.1,551.2z"/>
		<path class="st5" d="M219.9,459.3c0.1,1.3,0.2,2.7,0.4,4.3c0.7,5.8,2.1,25.5,1.7,37.9c-0.4,12.4,0.8,41.4,0.8,45.8
			c3.8,1.6,6.1,1.2,11.4,0c0,0,1-23.9,2-44.8c0.9-17,1.1-15.3,4.3-37l0,0c0,0.1,0.8,2.2,1.9,5.4c2.3,7,6.3,19.1,8.2,27.8
			c2.9,13.7,1.5,49.3,2.6,50.5c3.7,2.1,9.9,2.4,11.6-0.7c0,0,0.7-44.1-0.6-51c-0.9-4.6-8.4-50.7-10.1-63c0,0-33-7.3-34,4.1
			c-0.1,1.5-0.2,2.9-0.2,4.3c0,1.7-0.1,3.4-0.2,5.1C219.6,450.9,219.5,454.2,219.9,459.3z"/>
		<path class="st6" d="M237.5,459.2L237.5,459.2C237.6,459.2,237.6,459.2,237.5,459.2C237.6,459.2,237.5,459.2,237.5,459.2z"/>
		<path class="st7" d="M240.4,465.5L240.4,465.5c0,0.1,1.5,4.2,2.6,7.5l-1.3-13.1C241.8,459.7,241.8,460.5,240.4,465.5z"/>
		<path class="st8" d="M219.7,455.9c0.3-0.1,13-2.8,14.7-9.2c0,0-11,1-14.6,1.4C219.6,450.9,219.6,454.2,219.7,455.9z"/>
		<path class="st4" d="M239.5,384.1c2.9-0.8,3.1,4,6,4.2c1.5,0.1,1.2-0.6,1.9-1.3c0.5-0.4,0.9-0.9,1.5-0.2
			c14.2,14.6-0.6,51.6,1.3,54.1c1.5,2.1-10.6,6.7-18.1,4.8c-10.4-2.5-9.8-13.8-9.4-16s7-38.8,7-38.8S234.9,388.2,239.5,384.1z"/>
		<path class="st9" d="M304.6,396.5c-1.1-1.7-23.3,10.3-27,8.9c-7.4-2.9-17.1-15.1-28.7-18.5c0,0-0.4,2.4,0.5,8.8
			c1.1,8.4-3.7,14.4-2.7,24.7c1.3,13.3-2,26.7,1.3,29.7c1.9,1.7,4.6,2,7.6-1.3c4.9-5.2,1.7-22.2,1.3-26.2c-0.2-1.5-0.6-3.7-0.9-5.9
			c-0.4-2.7-0.1-8.2,1.5-8.7c4.1-1.2,14.3,8.2,20.7,8.1c4.7-0.1,28.2-8.8,28.9-9.6C309.2,404.4,304.6,396.5,304.6,396.5z"/>
		<path class="st9" d="M239.6,414.1c-0.5,5.6-2.5,13.8-3.9,18.3c-1.9,6.4-0.3,10.7-1.1,13.8l0,0c-0.2,0.9-0.6,1.6-1.4,2.4
			c-4,4.3-10,4.2-14.5,1.3c-2.4-1.5,0.2-11.2,2-19.3l0,0c0.3-1.5,0.7-2.9,0.9-4.2c0.2-1.3,0.4-2.3,0.5-3.3c0.1-0.6,0.1-1.1,0.1-1.5
			c0-1.3-0.1-2.2-0.1-3.1l0,0c0-0.8-0.1-1.5-0.1-2.2c0-0.2,0-0.5,0-0.7c0-0.1,0-0.2,0-0.3c0-0.6,0-1.2-0.1-1.7c0-0.3,0-0.5,0-0.8
			c0-0.7,0-1.5,0-2.3c0-1.3,0.1-2.7,0.2-4.5c0.3-5.5,1.8-13,4.4-15.6c0,0,0,0,0.1-0.1c0.1-0.1,0.2-0.2,0.3-0.3
			c5.8-5.8,12.8-6,12.8-6l0,0C239.8,387.5,240.5,402.1,239.6,414.1z"/>
		<path class="st10" d="M226.4,406.7c0,0,0,0.1,0,0.3c0,0.4-0.1,1-0.1,1.7l0,0c-0.1,0.5-0.1,1.2-0.2,1.8c-0.2,1.4-0.4,2.9-0.8,4.6
			c-0.4,1.7-1,3.6-1.7,5.3c-0.4,1-0.9,1.8-1.4,2.6c0.1-0.6,0.1-1.1,0.1-1.5c0-1.3-0.1-2.2-0.1-3.1l0,0c0-0.8-0.1-1.5-0.1-2.2
			c0-0.2,0-0.5,0-0.7c0-0.1,0-0.2,0-0.3c0-0.6,0-1.2-0.1-1.7c-0.1,0.1-0.2,0.2-0.3,0.4c0-0.2,0-0.3,0-0.5c0,0.1-0.1,0.1-0.1,0.2
			c0-0.1,0-0.2,0-0.3l0.1-0.2l0.3-0.5l4-5.4L226.4,406.7z"/>
		<path class="st11" d="M215.5,455.6L215.5,455.6L215.5,455.6c-0.3-0.4-0.7-0.7-1.1-0.7h-0.1h-0.1l-1.3-0.1l0,0l0,0h-0.1l0,0h-0.1
			l-1.4-0.1l-3.7-0.2c-0.3,0-0.5,0-0.7,0.2c-0.7,0.3-1.2,1.2-1.3,2.1l-0.1,1.5l-0.1,2.2l0,0l1.3,0.1l0,0l0.1-2.2l0,0v-0.3
			c0-0.8,0.4-1.4,0.9-1.6c0.2-0.1,0.4-0.1,0.6-0.1l3.2,0.1l1.4,0.1l0,0h0.4c0.4,0,0.7,0.2,0.9,0.5c0.2,0.3,0.3,0.6,0.4,1.1
			c0,0.1,0,0.2,0,0.3l0,0v0.3l-0.1,2.3l0,0l0,0l1.3,0.1l0,0l0,0l0.1-2.3l0.1-1.4C215.9,456.6,215.7,456.1,215.5,455.6z"/>
		<path class="st12" d="M212.9,448.5L212.9,448.5c0.2,1.4,0.6,1.1,1.2,2.8c0.5,1.7,2.1,4.3,1.2,4.6c-1,0.3-1.7-0.8-2.2-1.1
			c-0.5-0.2,0.6,0.9,0,1.6c-0.6,0.9-3.1,1.4-4.3,0.7c-1.2-0.7-1.9-2-1.9-3.9s1-4.2,1.2-4.9C208.1,447.5,212.6,448.4,212.9,448.5z"/>
		<path class="st11" d="M215.5,455.6L215.5,455.6L215.5,455.6L215.5,455.6c-0.3-0.4-0.7-0.7-1.1-0.7h-0.1h-0.1h-1.3l0,0h-0.1l0,0
			l0,0l0.1,0.4l0,0l0,0l0,0l0.2,0.6l0,0l0,0l0.2,0.7c0.4,0,0.7,0.2,0.9,0.5l0,0c0.2,0.3,0.3,0.7,0.4,1.1c0,0.1,0,0.2,0,0.3l0,0v0.3
			l-0.1,2.3l0,0l0,0l1.3,0.1l0,0l0.1-2.3l0.1-1.4C215.9,456.6,215.7,456.1,215.5,455.6z"/>
		<g>
			<path class="st13" d="M230.9,463.2l-0.8,17c-0.1,1.1-1,1.8-2.1,1.7l0,0l-32.9-1c-3.7-0.2-3.6-2.6-3.5-3.6l0.2-16.1
				c0-1,1.5-3.6,4.5-3.5l29.3,1.2h1.1C229,459.3,231,460.9,230.9,463.2z"/>
			<path class="st14" d="M230.9,463.2l-0.8,17c-0.1,1.1-1,1.8-2.1,1.7l0,0l0,0c-0.3-1.1-0.5-2.6-0.2-5.1c0.7-6.1-0.9-13-2.2-17.7
				l0,0h1.1C229,459.3,231,460.9,230.9,463.2z"/>
		</g>
		<path class="st15" d="M237.2,392.4c-0.7,4-2.8,7.1-2.8,7.1c-3.1,3.7-5.8,6.7-8,9.2c-0.1,0.1-0.1,0.1-0.2,0.2l0,0
			c-1.7,1.9-3.1,3.5-4.4,4.8c-0.1,0.1-0.2,0.2-0.3,0.4c-6.7,7.4-6.9,7.1-7.6,9.9c-1,4.1,0.8,23.8,0.8,24.5c0,0.8-7.9,3.4-9,1.4
			c-1.1-2.1-2.4-25.8-2.1-28.2c1.1-7.7,19.3-27.8,22.9-31.2c0.2-0.1,0.3-0.3,0.4-0.4c1.2-1,3.9-1.4,6.2-1.1
			C235.5,389.3,237.6,390.3,237.2,392.4z"/>
		<path class="st16" d="M245.4,388.5c-0.3-0.2-2.3,4.8-5.5,6.7c-0.9,0.5-1.8,0.9-2.8,1c-3,0.4-15.5-0.6-15.5-0.6s2.5-2.8,4-4
			c2.8,0.7,9.4,1.8,10.9,1.5c1.2-0.2,2.2-0.6,3.2-1.2c1.8-1,3.4-2.3,4.6-3.5c0.6-0.6,0.6-1.5,1.4-1.5
			C246.5,386.9,245.8,388.7,245.4,388.5z"/>
		<path class="st17" d="M246.8,387.4c-0.1-0.5-0.5-1.3-1.5-1.1c-0.8,0.1-0.8,0.4-1.4,1c-1.7,1.7-4.5,4-7.7,4.6
			c-3.3,0.6-11.2-3.3-16.1-1.8s-6,6-13.1,7.6c-7.1,1.6-14.9-0.9-16.9-0.3c-2,0.5-3.3,1.1-3.2,1.9c0.1,0.9,1.3,2.1,2.8,2.6
			c1.5,0.5,14.5,0.5,18-0.3c5.5-1.2,10-6.6,13.6-7.2c3.6-0.6,11.3,1,15.5,0.4c4.7-0.6,8.1-6.4,8.4-6.2c0.3,0.2,0.6,0.4,1.3,0.2
			C246.9,388.7,246.9,387.9,246.8,387.4z"/>
		<path class="st1" d="M314.3,394.4c-1.1-0.4-2.6,1.5-2.6,3.9c0,2.3,0.6,4.2,1.5,3.7c0.7-0.5,2-0.8,2-1.4
			C315.2,400,314.3,394.4,314.3,394.4z"/>
	</g>
	<g>
		<g>
			<path class="st18" d="M459.8,485.4c2.1-13.4-0.3-21.5,1.5-30.1c1.7-8.9,5.4-18.9,13.4-24.4c7.9-5.6,22.4-14.8,16.6-8.3
				c-5.8,6.5-26,26.9-25.7,33.9c0.4,8.9-0.6,35.5-0.6,35.5S458.9,490.9,459.8,485.4z"/>
			<path class="st18" d="M462.7,454.1c-2.7-26.2-15.5-39.2-30.6-45.7c-15.1-6.5-11.5-4.8-11.5-4.8c0.7,12.9,0.2,33.5,41.4,53.5
				L462.7,454.1z"/>
			<path class="st19" d="M454.3,453.1c-33.5-18.7-33.1-37.4-33.7-49.5l-0.4-0.2c0,0,0.2,0.1,1,0.4
				C438.6,414.7,450.2,440,454.3,453.1z"/>
		</g>
		<path class="st18" d="M461.1,451c1.1-9,0.6-16.7,1.1-22.8c0.3-4.6-1.5-10.5-3.5-14.8c-4.9-10.8-7.3-15.4-13.6-18.1
			c-6.3-2.7,17.4-2.8,16.8,10.2c-0.1,1.8,0.5,8.9,1.5,11c1,2.2,1.5,5.5,2,10.5c0.4,4.1-0.1,23,0.1,25c0.2,1.8-2.8,2.1-2.8,2.1
			L461.1,451z"/>
		<path class="st18" d="M509.6,463.9c17.5-21.7,40.1-52.4,40.6-97.1c0.5-42.9-20.8-94.4-74.8-97.1c-0.4,0-0.9,0-1.3,0
			C549.9,356.5,537.4,388.7,509.6,463.9z"/>
		<path class="st20" d="M441,506.8c2.6,1.4,5.8,2.4,9.3,3c0.9,0.2,1.8,0.3,2.8,0.4l0,0c7.7,1,16.6,0.2,23.5-2.3
			c0.1-0.1,0.3-0.1,0.4-0.1c3.7-1.4,6.9-3.2,9-5.6c1.7-1.9,2.8-4.3,3-6.9c0.1-1,0.2-1.9,0.6-3c0.8-2.4,0-7.5,1.9-10.4
			c3.8-5.7,12.2-11.6,18.7-19.6c17.5-21.7,39.5-50.8,40-95.7c0.5-42.9-20.8-94.4-74.8-97.1c-0.4,0-0.9,0-1.3,0
			c-53.4-2.1-95.3,34.8-95.8,93.7c-0.6,56.4,42.3,91.7,54.5,118.1c2.3,5,1.9,11.8,1.6,16.1c0,0.2,0,0.3,0,0.5
			C434.7,501.8,437.1,504.7,441,506.8z"/>
		<g class="st21">
			<g>
				<g>
					<path class="st4" d="M424.8,299.9c0.9-0.5,2-1.2,3.2-1.9c1.3-0.8,2.5-1.6,4.1-2.4c1.5-0.9,3.1-1.7,4.8-2.4
						c1.7-0.8,3.8-1.5,5.9-1.8h0.1c4.6-1,9.2,2.1,10.2,6.8c1,4.6-2.1,9.2-6.8,10.2h-0.1c-1.5,0.3-3.4,1.1-5.5,2.3
						c-1.1,0.6-2.2,1.4-3.5,2.1c-1.3,0.8-2.7,1.6-4.4,2.5c-4.2,2.2-9.3,0.6-11.5-3.7C419.1,307.3,420.6,302.1,424.8,299.9
						L424.8,299.9z"/>
				</g>
			</g>
			<g>
				<g>
					<path class="st4" d="M393.9,371.6c-0.5-4.4-0.8-8.7-0.8-13.2c0.1-4.5,0.5-9,1.4-13.5s2.1-8.8,3.8-13.1c1.6-4.2,3.7-8.2,5.8-12
						l0,0c2.3-4,7.5-5.3,11.4-3c4,2.3,5.3,7.5,3,11.4c-3.7,6.3-6.2,12.9-7.5,19.8c-1.3,6.9-1.2,14-0.3,21.3l0,0
						c0.6,4.6-2.7,9-7.4,9.6C398.8,379.6,394.5,376.3,393.9,371.6L393.9,371.6z"/>
				</g>
			</g>
		</g>
		<g>
			<line class="st22" x1="574.3" y1="360" x2="616.4" y2="362.3"/>
			<line class="st22" x1="563.9" y1="359.5" x2="566.6" y2="359.6"/>
		</g>
		<g>
			<line class="st22" x1="565.7" y1="315.5" x2="605.3" y2="301"/>
			<line class="st22" x1="555.9" y1="319.1" x2="558.4" y2="318.2"/>
		</g>
		<g>
			<line class="st22" x1="544.4" y1="274.3" x2="575.1" y2="245.4"/>
			<line class="st22" x1="536.8" y1="281.5" x2="538.7" y2="279.7"/>
		</g>
		<g>
			<line class="st22" x1="489.9" y1="248.7" x2="501.6" y2="208"/>
			<line class="st22" x1="487" y1="258.7" x2="487.8" y2="256.1"/>
		</g>
		<g>
			<line class="st22" x1="429.7" y1="253.5" x2="416.7" y2="213.2"/>
			<line class="st22" x1="432.9" y1="263.5" x2="432.1" y2="260.9"/>
		</g>
		<g>
			<line class="st22" x1="357.3" y1="372.3" x2="315.5" y2="377.8"/>
			<line class="st22" x1="367.7" y1="371" x2="365" y2="371.4"/>
		</g>
		<g>
			<line class="st22" x1="360.4" y1="320.7" x2="321.5" y2="304.4"/>
			<line class="st22" x1="370" y1="324.7" x2="367.5" y2="323.7"/>
		</g>
		<g>
			<line class="st22" x1="383.2" y1="281" x2="353.8" y2="250.7"/>
			<line class="st22" x1="390.4" y1="288.6" x2="388.6" y2="286.6"/>
		</g>
		<path class="st23" d="M462.7,554.7h-2.1c-16.8-0.2-30.1-13.9-29.9-30.8c0,0-3.6-37.5,0.5-40.2c4.1-2.7,60.7-1.9,62.7,0.8
			c1.9,2.7-0.5,40.2-0.5,40.2C493.2,545.9,479.4,554.9,462.7,554.7z"/>
		<path class="st24" d="M427.3,503.9l-0.1-0.9c-0.2-2.3,1.5-4.5,3.8-4.7l61.4-6.3c2.3-0.2,4.5,1.5,4.6,3.9l0.1,0.9
			c0.2,2.3-1.5,4.5-3.8,4.7l-61.4,6.3C429.7,508,427.5,506.2,427.3,503.9z"/>
		<path class="st24" d="M427.2,518.1l-0.1-0.9c-0.2-2.3,1.5-4.5,3.8-4.7l61.4-6.3c2.3-0.2,4.5,1.5,4.6,3.9l0.1,0.9
			c0.2,2.3-1.5,4.5-3.8,4.7l-61.4,6.3C429.6,522.2,427.4,520.5,427.2,518.1z"/>
		<path class="st24" d="M428,532.1l-0.1-0.9c-0.2-2.3,1.5-4.5,3.8-4.7l61.4-6.3c2.3-0.2,4.5,1.5,4.6,3.9l0.1,0.9
			c0.2,2.3-1.5,4.5-3.8,4.7l-61.4,6.3C430.3,536.2,428.2,534.4,428,532.1z"/>
		<g>
			<path class="st18" d="M463.2,419.3c1.4-8,5.5-11.7,10.4-13.5c4.8-1.7,3.6-1.3,3.6-1.3c-0.5,4-0.8,10.3-13.8,15.6L463.2,419.3z"/>
			<path class="st19" d="M465.7,419.1c10.7-5,10.9-10.8,11.3-14.5c0,0,0.1,0,0.1-0.1c0,0-0.1,0-0.3,0.1
				C471.4,407.7,467.2,415.2,465.7,419.1z"/>
		</g>
		<g>
			<g>
				<path class="st25" d="M517.2,359.7c-0.3-0.1-0.5-0.3-0.5-0.6c-0.1-1.1-0.3-2.1-0.6-3.2c-0.1-0.3,0-0.6,0.3-0.8l2.5-1.7
					c0.3-0.2,0.4-0.5,0.3-0.8c-0.2-0.6-0.5-1.1-0.8-1.6c-0.1-0.3-0.5-0.4-0.8-0.4l-3,0.7c-0.3,0.1-0.6-0.1-0.7-0.3
					c-0.6-0.9-1.2-1.6-1.9-2.4c-0.2-0.2-0.2-0.5-0.1-0.8l1.5-2.7c0.2-0.3,0.1-0.7-0.2-0.9c-0.5-0.4-1-0.8-1.5-1.2
					c-0.3-0.2-0.6-0.2-0.9,0l-2.3,2c-0.2,0.2-0.5,0.2-0.8,0.1c-0.9-0.5-1.7-0.9-2.7-1.3c-0.3-0.1-0.5-0.4-0.5-0.7v-3.1
					c0-0.3-0.2-0.6-0.5-0.7c-0.6-0.1-1.3-0.3-1.8-0.4c-0.3,0-0.6,0.1-0.7,0.4l-1.2,2.9c-0.1,0.3-0.4,0.4-0.6,0.4
					c-0.7,0-2,0.1-2.9,0.2c-0.3,0-0.6-0.1-0.7-0.4l-1.5-2.7c-0.2-0.3-0.5-0.4-0.8-0.4c-0.6,0.2-1.3,0.4-1.8,0.6
					c-0.3,0.1-0.5,0.4-0.5,0.7l0.3,3.1c0,0.3-0.1,0.6-0.4,0.7c-0.9,0.4-1.6,0.9-2.4,1.5c-0.2,0.2-0.6,0.2-0.8,0l-2.5-1.7
					c-0.3-0.2-0.6-0.2-0.9,0.1c-0.5,0.4-1,0.9-1.4,1.4c-0.2,0.2-0.3,0.6-0.1,0.9l1.6,2.5c0.2,0.2,0.2,0.6,0,0.8
					c-0.6,0.8-1.1,1.5-1.5,2.4c-0.1,0.3-0.4,0.4-0.7,0.4l-3.1-0.4c-0.3,0-0.6,0.1-0.7,0.4c-0.2,0.6-0.4,1.2-0.6,1.7
					c-0.1,0.3,0,0.7,0.3,0.8l2.7,1.5c0.3,0.1,0.4,0.4,0.4,0.7c-0.1,1-0.2,2.3-0.3,3c0,0.3-0.2,0.5-0.5,0.6l-2.9,1.1
					c-0.3,0.1-0.5,0.4-0.5,0.7c0.1,0.6,0.2,1.3,0.3,1.8c0.1,0.3,0.3,0.6,0.7,0.6l3,0.1c0.3,0,0.6,0.2,0.7,0.5c0.3,1,0.7,1.9,1.2,2.8
					c0.1,0.3,0.1,0.6-0.1,0.8l-2,2.3c-0.2,0.2-0.2,0.6-0.1,0.9c0.3,0.5,0.7,1,1.1,1.5c0.2,0.3,0.6,0.3,0.9,0.2l2.7-1.4
					c0.3-0.1,0.6-0.1,0.8,0.1c0.8,0.8,1.5,1.5,2.4,2c0.2,0.2,0.4,0.5,0.3,0.8l-0.8,3c-0.1,0.3,0.1,0.6,0.4,0.8
					c0.5,0.3,1.1,0.5,1.5,0.8c0.3,0.1,0.7,0,0.8-0.2l1.7-2.5c0.2-0.2,0.5-0.3,0.8-0.3c1.1,0.3,2.1,0.6,3.2,0.7
					c0.3,0,0.5,0.2,0.6,0.5l0.7,3c0.1,0.3,0.4,0.5,0.7,0.5l0,0c0.6,0,1.2,0,1.6-0.1c0.3,0,0.6-0.3,0.6-0.6l0.4-3
					c0-0.3,0.3-0.5,0.6-0.6c1.2-0.2,2.2-0.5,3.2-1c0.3-0.1,0.6,0,0.8,0.2l2,2.3c0.2,0.2,0.6,0.3,0.9,0.2c0.5-0.3,1-0.6,1.5-0.9
					c0.3-0.2,0.4-0.5,0.3-0.8l-1.1-2.9c-0.1-0.3,0-0.6,0.2-0.8c0.9-0.7,1.6-1.5,2.4-2.3c0.2-0.2,0.5-0.3,0.8-0.2l2.8,1.1
					c0.3,0.1,0.7,0,0.8-0.3c0.3-0.5,0.6-1,0.9-1.5c0.2-0.3,0.1-0.6-0.1-0.9l-2.2-2.1c-0.2-0.2-0.3-0.5-0.2-0.8c0.4-1,0.8-2,1-3.2
					c0.1-0.3,0.3-0.5,0.6-0.6l3-0.4c0.3,0,0.6-0.3,0.6-0.6c0.1-0.7,0.1-1.5,0.1-2.2v-0.1L517.2,359.7z M502.4,360.9
					c0,0.1,0,0.3,0,0.4c-0.1,0.4-0.2,0.8-0.3,1.1c-0.1,0.1-0.1,0.2-0.2,0.4c-0.2,0.3-0.5,0.6-0.8,0.8c-0.1,0.1-0.2,0.1-0.4,0.2
					c-0.3,0.2-0.7,0.3-1.1,0.3c-0.1,0-0.2,0-0.3,0h-0.1c-0.4,0-0.8-0.1-1.1-0.2c-0.1-0.1-0.3-0.1-0.4-0.2c-0.3-0.2-0.6-0.4-0.9-0.7
					c-0.1-0.1-0.2-0.2-0.3-0.3c-0.2-0.3-0.3-0.7-0.4-1c0-0.1-0.1-0.3-0.1-0.4s0-0.2,0-0.3c0-0.3,0-0.6,0.1-0.8
					c0-0.1,0.1-0.3,0.1-0.4c0.1-0.3,0.3-0.7,0.6-0.9c0.1-0.1,0.2-0.2,0.3-0.3c0.3-0.2,0.6-0.4,0.9-0.6c0.1-0.1,0.3-0.1,0.4-0.1
					c0.2-0.1,0.5-0.1,0.7-0.1c0.1,0,0.2,0,0.4,0c0.1,0,0.3,0,0.4,0.1c0.4,0.1,0.7,0.3,1,0.5c0.1,0.1,0.2,0.2,0.3,0.3
					c0.3,0.3,0.5,0.5,0.7,0.9c0.1,0.1,0.1,0.3,0.2,0.4C502.3,360.1,502.4,360.5,502.4,360.9L502.4,360.9z"/>
				<path class="st26" d="M511,360.8L511,360.8c0,0.6,0,1.1-0.1,1.5c-0.2,1.5-0.6,2.8-1.3,4.1c-0.2,0.5-0.5,0.9-0.8,1.3
					c-0.8,1.2-1.8,2.1-3,3c-0.4,0.3-0.9,0.6-1.3,0.8c-1.3,0.6-2.6,1.1-4.1,1.2c-0.4,0-0.8,0.1-1.3,0.1c-0.1,0-0.2,0-0.3,0
					c-1.5,0-2.8-0.3-4.1-0.9c-0.5-0.2-1-0.4-1.4-0.7c-1.3-0.7-2.3-1.5-3.2-2.6c-0.4-0.4-0.7-0.9-1-1.3c-0.8-1.2-1.3-2.4-1.5-3.8
					c-0.1-0.5-0.2-1.1-0.3-1.5c0-0.3,0-0.7,0-1.1c0-1.1,0.1-2,0.4-3c0.1-0.5,0.3-1.1,0.5-1.5c0.5-1.3,1.3-2.4,2.1-3.4
					c0.4-0.4,0.8-0.8,1.2-1.2c1-0.9,2.1-1.5,3.4-2c0.5-0.2,1.1-0.4,1.5-0.5c0.9-0.2,1.7-0.3,2.6-0.3c0.5,0,0.9,0,1.4,0.1
					c0.6,0.1,1.1,0.2,1.5,0.3c1.4,0.4,2.5,0.9,3.7,1.6c0.5,0.3,0.9,0.7,1.3,1c1,0.9,1.8,2,2.5,3.2c0.3,0.5,0.5,1,0.7,1.5
					C510.8,358,511,359.4,511,360.8z"/>
				<path class="st27" d="M509.5,355.2c-0.5-0.7-1.1-1.3-1.6-1.8c-0.4-0.4-0.8-0.7-1.3-1c-1.1-0.8-2.3-1.4-3.7-1.6
					c-0.5-0.1-1.1-0.2-1.5-0.3s-0.9-0.1-1.4-0.1c-0.9,0-1.7,0.1-2.6,0.3c-0.6,0.1-1.1,0.3-1.5,0.5c-1.3,0.5-2.4,1.2-3.4,2
					c-0.4,0.4-0.8,0.8-1.2,1.2c-0.9,1-1.6,2.1-2.1,3.4c-0.2,0.5-0.4,1-0.5,1.5c-0.3,1-0.4,1.9-0.4,3c0,0.4,0,0.7,0,1.1
					c0,0.6,0.1,1.1,0.3,1.5c0.3,1.1,0.7,2.1,1.2,3.1c-0.1-0.2-0.3-0.4-0.4-0.6c-0.8-1.2-1.3-2.4-1.5-3.8c-0.1-0.5-0.2-1.1-0.3-1.5
					c0-0.3,0-0.7,0-1.1c0-1.1,0.1-2,0.4-3c0.1-0.5,0.3-1.1,0.5-1.5c0.5-1.3,1.3-2.4,2.1-3.4c0.4-0.4,0.8-0.8,1.2-1.2
					c1-0.9,2.1-1.5,3.4-2c0.5-0.2,1.1-0.4,1.5-0.5c0.9-0.2,1.7-0.3,2.6-0.3c0.5,0,0.9,0,1.4,0.1c0.6,0.1,1.1,0.2,1.5,0.3
					c1.4,0.4,2.5,0.9,3.7,1.6c0.5,0.3,0.9,0.7,1.3,1C508.1,353,509,354,509.5,355.2z"/>
			</g>
			<g>
				<path class="st23" d="M495.3,321.8c0.1,0,0.3-0.1,0.3-0.3c0.4-1.6,0.7-3.4,0.7-5.1l0,0c0-0.1-0.1-0.3-0.2-0.3l-4.2-1.9
					c-0.1,0-0.2-0.1-0.2-0.3c-0.1-0.9-0.3-1.7-0.6-2.6c0-0.1,0-0.3,0.1-0.3l3.1-3.1c0.1-0.1,0.1-0.3,0.1-0.4c-0.8-1.7-1.8-3.3-3-4.6
					c-0.1-0.1-0.2-0.1-0.3-0.1l-4.5,1.3c-0.1,0-0.2,0-0.3-0.1c-0.5-0.4-1-0.9-1.5-1.2c-0.1-0.1-0.2-0.2-0.1-0.3l0.4-4.5
					c0-0.1-0.1-0.3-0.2-0.3c-1.7-0.9-3.5-1.5-5.4-1.8c-0.1,0-0.3,0-0.3,0.1l-2.6,3.8c-0.1,0.1-0.2,0.2-0.3,0.1c-0.3,0-0.5,0-0.8,0
					c-0.3,0-0.6,0-0.9,0c-0.1,0-0.2,0-0.3-0.1l-2.6-3.7c-0.1-0.1-0.2-0.2-0.3-0.1c-1.9,0.4-3.8,1.1-5.4,1.9
					c-0.1,0.1-0.2,0.2-0.2,0.3l0.4,4.5c0,0.1,0,0.2-0.1,0.3c-0.5,0.4-1.1,0.8-1.5,1.2c-0.1,0.1-0.2,0.1-0.3,0.1l-4.5-1.2
					c-0.1,0-0.3,0-0.3,0.1c-1.2,1.5-2.2,3-3,4.7c-0.1,0.1,0,0.3,0.1,0.4l3.1,3.1c0.1,0.1,0.1,0.2,0.1,0.3c-0.3,0.9-0.5,1.6-0.6,2.5
					c0,0.1-0.1,0.2-0.2,0.3l-4.2,1.9c-0.1,0.1-0.1,0.2-0.2,0.3c0,1.7,0.3,3.5,0.7,5.2c0,0.1,0.2,0.2,0.3,0.3l4.3,0.4
					c0.1,0,0.2,0.1,0.3,0.2c0.4,1.1,1,2.1,1.5,3c0.1,0.1,0.1,0.2,0,0.3l-1.9,4.1c-0.1,0.1,0,0.3,0.1,0.4c1.1,1.3,2.3,2.3,3.7,3.3
					c0.1,0.1,0.3,0.1,0.4,0l3.5-2.5c0.1-0.1,0.2-0.1,0.4,0c1.2,0.6,2.4,1.1,3.7,1.5c0.1,0,0.2,0.1,0.2,0.2l1.2,4.3
					c0,0.1,0.2,0.2,0.3,0.3c0.8,0.1,1.5,0.1,2.3,0.1c0.9,0,1.6,0,2.4-0.1c0.1,0,0.3-0.1,0.3-0.3l1.1-4.3c0-0.1,0.1-0.2,0.2-0.2
					c1.4-0.3,2.5-0.8,3.7-1.5c0.1-0.1,0.2-0.1,0.4,0l3.6,2.5c0.1,0.1,0.3,0.1,0.4,0c1.4-1,2.5-2,3.7-3.3c0.1-0.1,0.1-0.2,0.1-0.4
					l-1.9-4.1c-0.1-0.1,0-0.2,0-0.3c0.7-1,1.2-2,1.5-3.1c0-0.1,0.2-0.2,0.3-0.2L495.3,321.8z"/>
				<g>
					<path class="st26" d="M486.6,316.6L486.6,316.6c0,0.5,0,1-0.1,1.5c-0.2,1.4-0.6,2.6-1.2,3.8c-0.2,0.4-0.5,0.9-0.8,1.3
						c-0.8,1.1-1.7,2-2.9,2.8c-0.4,0.3-0.8,0.5-1.3,0.8c-1.2,0.6-2.5,1-3.9,1.2c-0.4,0-0.8,0.1-1.2,0.1c-0.1,0-0.2,0-0.3,0
						c-1.4,0-2.7-0.3-3.9-0.8c-0.5-0.2-0.9-0.4-1.4-0.7c-1.2-0.7-2.1-1.5-3-2.5c-0.3-0.4-0.6-0.8-0.9-1.2c-0.7-1.1-1.2-2.3-1.5-3.6
						c-0.1-0.5-0.2-1-0.2-1.5c0-0.3,0-0.7,0-1c0-1,0.1-1.9,0.4-2.8c0.1-0.5,0.3-1,0.5-1.5c0.5-1.2,1.2-2.2,2-3.2
						c0.4-0.4,0.7-0.8,1.2-1.1c1-0.8,2-1.5,3.2-1.9c0.5-0.2,1-0.3,1.5-0.5c0.8-0.2,1.6-0.3,2.5-0.3c0.5,0,0.9,0,1.3,0.1
						c0.5,0.1,1.1,0.2,1.5,0.3c1.3,0.3,2.4,0.9,3.5,1.5c0.4,0.3,0.8,0.6,1.2,1c1,0.9,1.7,1.9,2.4,3.1c0.2,0.5,0.5,0.9,0.6,1.4
						C486.3,313.8,486.6,315.2,486.6,316.6z"/>
					<path class="st27" d="M485.1,311.1c-0.5-0.6-1-1.2-1.5-1.7c-0.4-0.4-0.8-0.7-1.2-1c-1.1-0.7-2.2-1.3-3.5-1.5
						c-0.5-0.1-1-0.2-1.5-0.3c-0.4-0.1-0.9-0.1-1.3-0.1c-0.9,0-1.6,0.1-2.5,0.3c-0.5,0.1-1,0.3-1.5,0.5c-1.2,0.5-2.3,1.1-3.2,1.9
						c-0.4,0.3-0.8,0.7-1.2,1.1c-0.9,1-1.5,2-2,3.2c-0.2,0.5-0.4,1-0.5,1.5c-0.2,0.9-0.4,1.8-0.4,2.8c0,0.3,0,0.7,0,1
						c0,0.5,0.1,1.1,0.2,1.5c0.2,1.1,0.6,2,1.1,2.9c-0.1-0.2-0.3-0.4-0.4-0.6c-0.7-1.1-1.2-2.3-1.5-3.6c-0.1-0.5-0.2-1-0.2-1.5
						c0-0.3,0-0.7,0-1c0-1,0.1-1.9,0.4-2.8c0.1-0.5,0.3-1,0.5-1.5c0.5-1.2,1.2-2.2,2-3.2c0.4-0.4,0.7-0.8,1.2-1.1
						c1-0.8,2-1.5,3.2-1.9c0.5-0.2,1-0.3,1.5-0.5c0.8-0.2,1.6-0.3,2.5-0.3c0.5,0,0.9,0,1.3,0.1c0.5,0.1,1.1,0.2,1.5,0.3
						c1.3,0.3,2.4,0.9,3.5,1.5c0.4,0.3,0.8,0.6,1.2,1C483.8,309.1,484.6,310.1,485.1,311.1z"/>
				</g>
			</g>
			<g>
				<path class="st23" d="M475.8,355.8c-0.4-0.1-0.7-0.5-0.7-0.9c-0.1-1.5-0.4-3-0.8-4.5c-0.1-0.4,0-0.8,0.4-1.1l3.6-2.4
					c0.4-0.3,0.5-0.8,0.4-1.2c-0.3-0.8-0.7-1.5-1.1-2.3c-0.2-0.4-0.7-0.6-1.1-0.5l-4.3,1c-0.4,0.1-0.8-0.1-1-0.4
					c-0.8-1.3-1.7-2.4-2.7-3.5c-0.3-0.3-0.4-0.8-0.2-1.2l2-3.8c0.2-0.4,0.1-0.9-0.2-1.2c-0.7-0.6-1.4-1.1-2-1.6
					c-0.4-0.3-0.9-0.2-1.2,0l-3.4,2.9c-0.3,0.3-0.8,0.3-1.1,0.1c-1.3-0.7-2.5-1.3-3.9-1.7c-0.4-0.1-0.7-0.5-0.7-0.9v-4.4
					c0-0.5-0.3-0.9-0.8-1c-0.9-0.2-1.7-0.4-2.6-0.5c-0.5-0.1-0.9,0.2-1.1,0.6l-1.6,4.1c-0.1,0.4-0.5,0.6-0.9,0.6
					c-1,0-2.9,0.1-4.2,0.2c-0.4,0-0.8-0.2-1-0.5l-2-3.9c-0.2-0.4-0.7-0.6-1.1-0.5c-0.9,0.2-1.7,0.5-2.6,0.8c-0.4,0.2-0.7,0.6-0.7,1
					l0.5,4.4c0,0.4-0.2,0.8-0.6,1c-1.3,0.6-2.4,1.3-3.5,2c-0.3,0.2-0.8,0.2-1.1,0l-3.6-2.5c-0.4-0.3-0.9-0.2-1.2,0.1
					c-0.7,0.6-1.4,1.3-1.9,1.9c-0.3,0.3-0.4,0.8-0.1,1.2l2.4,3.7c0.2,0.4,0.2,0.8,0,1.1c-0.8,1.1-1.5,2.2-2.2,3.5
					c-0.2,0.4-0.6,0.6-1,0.5l-4.4-0.6c-0.5-0.1-0.9,0.2-1.1,0.6c-0.3,0.9-0.6,1.6-0.9,2.5c-0.1,0.4,0.1,0.9,0.5,1.2l3.8,2.1
					c0.4,0.2,0.6,0.6,0.5,1c-0.2,1.4-0.3,3.3-0.4,4.3c0,0.4-0.3,0.7-0.6,0.9l-4.2,1.5c-0.4,0.2-0.7,0.6-0.6,1
					c0.1,0.9,0.2,1.7,0.4,2.6c0.1,0.5,0.5,0.8,1,0.8l4.3,0.1c0.4,0,0.8,0.3,0.9,0.7c0.5,1.4,1,2.7,1.6,4.1c0.2,0.4,0.1,0.8-0.1,1.1
					l-2.9,3.3c-0.3,0.3-0.3,0.8-0.1,1.2c0.5,0.7,1,1.4,1.5,2c0.3,0.4,0.8,0.5,1.2,0.3l3.9-1.9c0.4-0.2,0.8-0.1,1.1,0.2
					c1.1,1.1,2.2,2,3.5,2.9c0.3,0.2,0.5,0.7,0.4,1.1l-1.1,4.3c-0.1,0.4,0.1,0.9,0.5,1.1c0.7,0.4,1.5,0.8,2.2,1.1
					c0.4,0.2,0.9,0,1.2-0.3l2.5-3.5c0.2-0.3,0.7-0.5,1.1-0.4c1.5,0.5,3,0.8,4.6,1c0.4,0,0.8,0.3,0.9,0.8l1,4.3
					c0.1,0.4,0.5,0.8,0.9,0.8l0,0c0.8,0,1.6,0,2.4-0.1c0.5,0,0.8-0.4,0.9-0.9l0.6-4.3c0.1-0.4,0.4-0.8,0.8-0.8
					c1.5-0.3,3.1-0.8,4.6-1.4c0.4-0.2,0.8,0,1.1,0.3l2.8,3.3c0.3,0.3,0.8,0.4,1.2,0.2c0.7-0.4,1.4-0.8,2-1.2
					c0.4-0.3,0.6-0.7,0.4-1.2l-1.5-4.1c-0.1-0.4,0-0.8,0.3-1.1c1.3-1,2.4-2.1,3.4-3.4c0.3-0.3,0.7-0.4,1.1-0.3l4.1,1.5
					c0.4,0.2,0.9,0,1.2-0.4c0.5-0.7,0.9-1.4,1.3-2c0.2-0.4,0.1-0.9-0.2-1.2l-3.2-3c-0.3-0.3-0.4-0.7-0.2-1.1
					c0.6-1.5,1.1-2.9,1.5-4.5c0.1-0.4,0.4-0.7,0.9-0.8l4.3-0.5c0.5-0.1,0.8-0.4,0.9-0.9c0.1-1.1,0.2-2,0.2-3.1v-0.1L475.8,355.8z
					 M454.9,357.3c0,0.2,0,0.4,0,0.6c-0.1,0.6-0.2,1.1-0.5,1.5c-0.1,0.2-0.2,0.3-0.3,0.5c-0.3,0.5-0.7,0.8-1.2,1.2
					c-0.2,0.1-0.3,0.2-0.5,0.3c-0.5,0.2-1,0.4-1.5,0.5c-0.2,0-0.3,0-0.5,0h-0.1c-0.6,0-1.1-0.1-1.5-0.3c-0.2-0.1-0.4-0.2-0.5-0.3
					c-0.5-0.3-0.9-0.6-1.2-1c-0.1-0.2-0.3-0.3-0.4-0.5c-0.3-0.4-0.5-0.9-0.6-1.5c0-0.2-0.1-0.4-0.1-0.6c0-0.1,0-0.3,0-0.4
					c0-0.4,0.1-0.8,0.1-1.2c0.1-0.2,0.1-0.4,0.2-0.6c0.2-0.5,0.5-0.9,0.8-1.3c0.1-0.2,0.3-0.3,0.5-0.4c0.4-0.3,0.8-0.6,1.3-0.8
					c0.2-0.1,0.4-0.1,0.6-0.2c0.3-0.1,0.7-0.1,1-0.1c0.2,0,0.4,0,0.5,0c0.2,0,0.4,0.1,0.6,0.1c0.5,0.1,1,0.4,1.4,0.6
					c0.2,0.1,0.3,0.2,0.5,0.4c0.4,0.4,0.7,0.8,1,1.3c0.1,0.2,0.2,0.4,0.2,0.6C454.8,356.3,454.9,356.7,454.9,357.3L454.9,357.3z"/>
				<path class="st26" d="M467.1,357.2L467.1,357.2c0,0.8,0,1.5-0.1,2.2c-0.3,2-0.9,4-1.8,5.7c-0.3,0.7-0.7,1.3-1.2,1.8
					c-1.2,1.6-2.6,3.1-4.3,4.2c-0.6,0.4-1.2,0.8-1.8,1.1c-1.7,0.9-3.7,1.5-5.7,1.6c-0.6,0.1-1.2,0.1-1.7,0.1c-0.1,0-0.3,0-0.4,0
					c-2-0.1-4-0.5-5.8-1.2c-0.7-0.3-1.4-0.6-1.9-1c-1.7-1-3.3-2.2-4.6-3.8c-0.5-0.6-1-1.2-1.4-1.8c-1.1-1.6-1.8-3.4-2.2-5.3
					c-0.2-0.8-0.3-1.5-0.4-2.2c0-0.5-0.1-1-0.1-1.5c0-1.5,0.2-2.9,0.6-4.3c0.2-0.8,0.5-1.5,0.8-2.2c0.8-1.7,1.7-3.4,3-4.7
					c0.5-0.6,1.1-1.2,1.6-1.6c1.5-1.2,3.1-2.1,4.8-2.8c0.7-0.3,1.5-0.5,2.2-0.7c1.2-0.3,2.4-0.4,3.7-0.4c0.7,0,1.3,0,1.9,0.1
					c0.8,0.1,1.5,0.2,2.2,0.4c1.8,0.5,3.6,1.3,5.2,2.3c0.6,0.4,1.3,0.9,1.7,1.4c1.5,1.3,2.6,2.8,3.6,4.6c0.4,0.7,0.7,1.4,0.9,2
					C466.7,353.3,467.1,355.2,467.1,357.2z"/>
				<path class="st27" d="M465.1,349.3c-0.7-1-1.5-1.8-2.3-2.6c-0.6-0.5-1.2-1-1.7-1.5c-1.5-1.1-3.3-1.8-5.2-2.3
					c-0.8-0.2-1.5-0.3-2.2-0.4c-0.7-0.1-1.3-0.1-1.9-0.1c-1.3,0-2.5,0.1-3.7,0.4c-0.8,0.2-1.5,0.4-2.2,0.7c-1.7,0.7-3.4,1.6-4.8,2.8
					c-0.6,0.5-1.2,1.1-1.6,1.6c-1.3,1.4-2.2,3-3,4.7c-0.3,0.7-0.6,1.5-0.8,2.2c-0.4,1.4-0.6,2.8-0.6,4.3c0,0.5,0,1,0.1,1.5
					c0.1,0.8,0.2,1.5,0.4,2.2c0.4,1.5,0.9,3,1.6,4.4c-0.2-0.3-0.4-0.6-0.6-0.8c-1.1-1.6-1.8-3.4-2.2-5.3c-0.2-0.8-0.3-1.5-0.4-2.2
					c0-0.5-0.1-1-0.1-1.5c0-1.5,0.2-2.9,0.6-4.3c0.2-0.8,0.5-1.5,0.8-2.2c0.8-1.7,1.7-3.4,3-4.7c0.5-0.6,1.1-1.2,1.6-1.6
					c1.5-1.2,3.1-2.1,4.8-2.8c0.7-0.3,1.5-0.5,2.2-0.7c1.2-0.3,2.4-0.4,3.7-0.4c0.7,0,1.3,0,1.9,0.1c0.8,0.1,1.5,0.2,2.2,0.4
					c1.8,0.5,3.6,1.3,5.2,2.3c0.6,0.4,1.3,0.9,1.7,1.4C463,346.1,464.1,347.6,465.1,349.3z"/>
			</g>
		</g>
	</g>
	<g>
		<path class="st28" d="M686.3,478.7c-1.6,8.3-2.3,15.6-0.9,22.2s11.3,46.5,10.7,47.6c-0.7,1.2-3.4,6.1-4,7.4
			c-0.6,1.3,13.1-3.8,13-6.3s-0.8-1.3-2.3-4.9c-1.5-3.7-3.3-17.1-3.5-19.9c-0.2-2.8,0.2-30.7-0.7-33.8
			C697.7,487.8,686.3,478.7,686.3,478.7z"/>
		<path class="st1" d="M662,370.1c2.3-2.6,2-7.6,0.7-9.5c-1.6-2.2-5.4-2.9-4.4-0.4c1.2,2.5-1.8,5.5-1,7.9
			C658.5,371.2,662,370.1,662,370.1z"/>
		<path class="st29" d="M703.9,544.6c-0.3-0.2-0.8-0.2-1.1,0.1c-1.4,1.2-2,2.6-2.1,3.2c-0.3,1.1-0.3,2.9-2.7,4.8
			c-2.5,1.9-5.2,1.8-6,2.8c-0.8,0.9-5.4,4.4-3.9,5.9c1.7,1.4,7.5-0.4,9.3-2.1c1.8-1.7,6.5-6.4,6.6-6.1c0.6,0.7,0.9,0.4,0.9,0.4
			c1.5-1.4,3.6-3,3.7-3.7c0.1-0.6-0.9-2.5-1.8-3.3C706,546,704.6,545.1,703.9,544.6z"/>
		<path class="st28" d="M682.4,483c-0.1,1.3-1.1,7.6-2.3,15.4c-0.4,2.3-0.8,4.7-1.2,7.3c-1.8,11.3-3.9,22.9-4.3,24.3
			c-0.8,2.8-3.8,16.4-3.6,20.4c0.2,4.2,1.4,3.1,0.6,5.6c-0.9,2.4-18.4-0.1-17.4-1.2c1-1,7.7-2.2,8.9-3.1c0.8-0.6,2.6-27.5,4.1-46.9
			c0.2-2.6,0.4-5,0.6-7.3c0.4-5.6,0.8-10,1-11.5c0.9-6.9,3.9-5,9.5-4.9C678.1,481.1,682.5,479.7,682.4,483z"/>
		<path class="st29" d="M672.3,553.4c-0.1-0.4-0.5-0.7-0.9-0.7c-1.9,0-3.3,0.7-3.9,1c-1,0.7-2.1,2-5.4,1.8c-3.3-0.2-5.5-1.5-6.8-1.4
			c-1.3,0.1-6.7,1.2-6.5,3.5c0.5,2.2,5.4,3.5,8.1,3.4c2.6-0.1,9.6-1.3,9.5-1c0,0.9,0.5,1,0.5,1c2-0.1,4.8,0.1,5.4-0.3
			c0.5-0.4,1.1-2.5,0.8-3.9C673,555.9,672.6,554.3,672.3,553.4z"/>
		<path class="st30" d="M699.2,504c-3.9,1.5-9.7,1.3-12.6,1.7c-0.7-3-0.9-3.7-1.2-4.8c-0.1-0.2-0.1-0.5-0.1-0.7l10.3-2.7l3.5,3.9
			C699.2,502.2,699.2,503.1,699.2,504z"/>
		<path class="st30" d="M680,498.4c-0.4,2.3-0.7,4.3-1.1,6.7c-3.5-1.5-8.3-0.8-11.8-0.2c0.2-2.6,0.4-5,0.6-7.3l0.6-2L680,498.4z"/>
		<path class="st31" d="M722.7,497c-3.6,4.5-14.9,1.1-19.2,3.4c-0.7,0.4-1.8,0.8-3.3,1.2c-5.1,1.5-13.9,2.7-17.6,1.8
			c-4.6-1.3-9.2-6-20.4,0.1c-2.8-10.3,4.2-55.6,9.3-67.5l0,0c0.3-0.7,0.6-1.2,0.8-1.6c0,0,12.5-7.4,23.3-1.8c1.8,1,3.6,2.2,5.2,4
			l0.1,0.1C712,454.6,703.2,473.3,722.7,497z"/>
		<path class="st4" d="M657.8,432.2c-0.4,0.3-2-6.9-1.4-7.6c0.7-0.8,9.6-2.6,10.6-3c3.1-1.1,13.3-3.6,17.7-6.2
			c3.3-1.9,5.6-2.6,15.2-8.4c-4.6,4.8-3.6,13.5-3.2,17.6c0.5,4.7,1.9,9,4.1,12l0.1,0.1c0.7,1.4-3.6,1.9-9.1,2
			c-8.1,0.1-18.9-0.9-20-2c-0.1-0.2-0.2-0.4-0.3-0.7c-0.6-3.7,5.5-17.8,5.4-20.3c-0.1-2.6-4.9-3.9-5.3-5.9c-0.4-2,4.1-6.5,3-5.9
			c-3.3,1.8-15.9-3.5-18.6-5.7c-2.6-2.2,0.6-30.5,0.6-30.5s7.3-0.1,7.5,1.5c0.2,1.6-2.6,21.3-0.8,24c1.8,2.6,15.1-1.4,20.4-4.1
			c0,0,5-0.8,7.5-0.6c2.4,0.2,8.9,5.1,10.7,7.4c1.9,2.4-0.2,12.1-2.6,19.9C697.9,420.6,658.7,431.5,657.8,432.2z"/>
		<path class="st28" d="M685.6,383.8c1,4.3,0.7,6.5,0,7.6c-0.7,1.2-1.5,4.1-0.1,4.1c0.7,0,4.6-1.8,6.1-2.8c1.5-1,2.3-3.1,2.3-3.1
			s-3.1-5.4-5.2-9.9C686.5,375.1,685.6,383.8,685.6,383.8z"/>
		<path class="st32" d="M686.1,387.8c0-0.6-0.1-1.2-0.2-1.8c0-0.3-0.3-1.8-0.4-2.1c0.2-0.2,0.7-0.6,0.9-0.6c0.3-0.1,1,0,1.4-0.4
			c0.5-0.6,1.5,1.2,1.1,2.2C688.7,385.5,687.5,387.1,686.1,387.8z"/>
		<path class="st1" d="M660.3,429.7c-2.5,2.4-7.4,2.4-9.4,1.1c-2.3-1.5-3.1-5.4-0.6-4.4c3.9,1.7,2-1.1,3-1.2
			c1.5-0.2,4.2,2.1,4.9,1.6C658.7,426.6,660.3,429.7,660.3,429.7z"/>
		<path class="st4" d="M700.9,436.7c0.6,1.1-2.1,1.7-6,1.9c-1,0.1-2,0.1-3.1,0.1c-8.1,0.1-18.9-0.9-20-2c-0.1-0.2-0.2-0.4-0.3-0.7
			l0,0c-0.3-1.6,0.9-5.5,2.1-9.5c-7.6,2.5-15.3,5.2-15.9,5.7c-0.4,0.3-2-6.9-1.4-7.6c0.7-0.8,9.6-2.6,10.6-3
			c1.6-0.6,5.4-1.5,9.2-2.8c0.5-1.5,0.8-2.6,0.7-3.2c-0.1-2.6-4.9-3.9-5.3-5.9c-0.4-2,4.1-6.5,3-5.9c-3.3,1.8,3.9-12,9.2-14.7
			c0,0,5-0.8,7.5-0.6c2.4,0.2,8.8,5.2,10.7,7.4c0.8,1-0.1,5.8-2.1,11.1c0.1-0.1,0.2-0.1,0.3-0.2c-0.1,0.1-0.3,0.3-0.4,0.4
			c-0.8,1.8-1.6,3.8-2.6,5.5c-1,4.3-0.5,8.9-0.2,11.6c0.5,4.7,1.9,9,4.1,12C700.8,436.7,700.9,436.7,700.9,436.7z"/>
		<path class="st32" d="M680,417.6c9.4-5.9,10.7-7.1,11.1-12.8c1.1,4.7,0.2,6-0.3,6.9C690.4,412.6,683.5,416.1,680,417.6z"/>
		<path class="st32" d="M675.4,426.7c-0.1-0.1,20.9-7.8,21-8.2c0,0.9,0,1.6,0.1,2.2C695.7,420.5,675.7,426.8,675.4,426.7z"/>
		<path class="st32" d="M680.3,397.2c-4.2,3.8-3.9,3.8-5.6,6.8c1.5-3.4,2.1-5.1,2.1-5.1S679.5,397.2,680.3,397.2z"/>
		<path class="st33" d="M722.7,497c-3.6,4.5-14.9,1.1-19.2,3.4c-0.7,0.4-1.8,0.8-3.3,1.2c-7.7-17.3-7.4-43.9-5.4-62.8
			c0.2-2.1,0.5-4.2,0.7-6c0.4-3,0.8-5.7,1.2-8c0.5,4.7,1.9,9,4.1,12l0.1,0.1C712,454.6,703.2,473.3,722.7,497z"/>
		<g>
			<g>
				<path class="st28" d="M686,372.6c-2.4,3-4.7,3.8-3.7,4.6c0.9,0.6-4,6.8-0.1,7.3c3.8,0.5,7.4-0.2,9.1-3.9
					c1.6-3.7,2.8-5.7,2.8-5.7L686,372.6z"/>
				<path class="st34" d="M685.3,373.1c0.6,2.1,2,3.5,2.5,4.4c0.3,0.5,1.4,0.7,1.7,0.3c0.5-0.5,1.4-0.3,2,0.4
					c0.8,0.9-0.5,1.7-1.2,2.3c-0.5,0.5-0.7,1.5-0.4,2.1c0.9,2.6-3.7,7.3,9.3,13.8c3.3,1.6,6.9,2.6,10.2,3.2
					c6.8,1.1,12.7,0.3,13.5-1.6c0.6-1.4-1.8-4.4-3.9-5.6c-2-1.3-3.1-0.1-4.6-1.2c-1.7-1.2,2-5-3.6-6.9c-5.5-1.8-6.2-0.6-7.7-1.9
					c-1.5-1.4-1.5-11.9-8.2-13.3c-4.7-1-7.3,0.6-8.4,1.6C685.8,371.1,685.1,372.4,685.3,373.1z"/>
			</g>
		</g>
	</g>
</g>
</svg>
