<?xml version="1.0" encoding="utf-8"?>
<!-- Generator: Adobe Illustrator 27.7.0, SVG Export Plug-In . SVG Version: 6.00 Build 0)  -->
<svg version="1.1" id="Layer_1" xmlns="http://www.w3.org/2000/svg" xmlns:xlink="http://www.w3.org/1999/xlink" x="0px" y="0px" viewBox="0 0 866.9 722.3" style="enable-background:new 0 0 866.9 722.3;" xml:space="preserve">
<style type="text/css">
	.st0{fill:#FFFFFF;}
	.st1{fill:#B8202E;}
	.st2{fill:none;stroke:#596164;stroke-width:1.4672;stroke-linecap:round;stroke-linejoin:round;stroke-miterlimit:10;}
	.st3{opacity:0.27;fill:#3C3C4C;}
	.st4{fill:none;stroke:#046AA9;stroke-width:8.6181;stroke-linecap:round;stroke-linejoin:round;stroke-miterlimit:10;}
	.st5{fill:none;stroke:#3C3C4E;stroke-width:8.8185;stroke-linecap:round;stroke-linejoin:round;stroke-miterlimit:10;}
	.st6{fill:none;stroke:#3C3C4E;stroke-width:8.2354;stroke-linecap:round;stroke-linejoin:round;stroke-miterlimit:10;}
	.st7{fill:none;stroke:#596164;stroke-width:1.3764;stroke-linecap:round;stroke-linejoin:round;stroke-miterlimit:10;}
	.st8{fill:none;stroke:#3C3C4E;stroke-width:7.7253;stroke-linecap:round;stroke-linejoin:round;stroke-miterlimit:10;}
	.st9{fill:#EFAEA7;}
	.st10{opacity:0.14;fill:#201F3B;}
	.st11{fill:#201F3B;}
	.st12{fill:#3C3C4E;}
	.st13{opacity:0.46;fill:#201F3B;}
	.st14{opacity:0.54;fill:#201F3B;}
	.st15{opacity:0.35;fill:#201F3B;}
	.st16{fill:#046AA9;}
	.st17{fill:#E89F9D;}
	.st18{opacity:0.25;fill:#201F3B;}
	.st19{opacity:0.18;fill:#201F39;}
	.st20{fill:#F2AD1D;}
	.st21{fill:#F5B2B4;}
	.st22{fill:#1F1E39;}
	.st23{opacity:0;fill:#201F39;}
	.st24{fill:#0168A6;}
	.st25{opacity:0.28;fill:#201F39;}
	.st26{opacity:0.11;fill:#201F39;}
	.st27{fill:#201F39;}
	.st28{opacity:9.000000e-02;fill:#201F3B;}
	.st29{fill:#4C4C5C;}
	.st30{opacity:0.62;fill:#201F39;}
	.st31{fill:#6E3622;}
	.st32{opacity:0.16;fill:#201F39;}
</style>
<g>
	<path class="st0" d="M104.8,33.9c39.7,227.6-25.8,547.6,20.3,566.2c25.7,10.4,405.4,16,415-2c18.2-34.1,8.9-578.7-20.7-588.6
		C489.8-0.4,96.5-13.5,104.8,33.9z"/>
	<g>
		<g>
			<path class="st1" d="M472.9,132.8c0,3.4-0.4,6.8-1.3,10c-4.4,16.8-19.7,29.3-37.9,29.3c-21.6,0-39.1-17.6-39.1-39.2
				s17.5-39.2,39.1-39.2c14.7,0,27.5,8.1,34.2,20.1c0,0,0,0,0,0C471.1,119.3,472.9,125.9,472.9,132.8z"/>
			<path class="st0" d="M465.9,132.8c0,2.8-0.4,5.6-1,8.2c-3.6,13.8-16.1,24-31.1,24c-17.7,0-32.1-14.4-32.1-32.2
				s14.4-32.2,32.1-32.2c12,0,22.5,6.6,28,16.5c0,0,0,0,0,0C464.4,121.7,465.9,127.1,465.9,132.8z"/>
			<ellipse class="st1" cx="433.8" cy="132.8" rx="24.5" ry="24.6"/>
			<ellipse class="st0" cx="433.8" cy="132.8" rx="16.9" ry="17"/>
			<ellipse class="st1" cx="433.8" cy="132.8" rx="8.8" ry="8.8"/>
		</g>
	</g>
	<g>
		<path class="st2" d="M290.5,287.3c-4.8,3.3-29.4,15.1-29.4,15.1h-15.3"/>
		<path class="st3" d="M216.7,299h22c0.8,0,1.4,0.6,1.4,1.4v4.1c0,0.8-0.6,1.4-1.4,1.4h-22c-0.8,0-1.4-0.6-1.4-1.4v-4.1
			C215.3,299.6,216,299,216.7,299z"/>
		<path class="st3" d="M179.1,299h13.4c0.5,0,0.8,0.6,0.8,1.3v4.4c0,0.7-0.4,1.3-0.8,1.3h-13.4c-0.5,0-0.8-0.6-0.8-1.3v-4.4
			C178.3,299.5,178.7,299,179.1,299z"/>
		<path class="st3" d="M210.7,300.2v4.3c0,0.7-0.6,1.3-1.3,1.3h-11.7c-0.7,0-1.3-0.6-1.3-1.3v-4.3c0-0.7,0.6-1.3,1.3-1.3h11.7
			C210.2,299,210.7,299.5,210.7,300.2z"/>
	</g>
	<g>
		<path class="st2" d="M364.7,217.1c0,0-5-18.4-7.1-24.6l-9-0.6"/>
		<path class="st3" d="M380.9,215.8v3.6c0,0.6-0.5,1-1,1h-9.7c-0.6,0-1-0.5-1-1v-3.6c0-0.6,0.5-1,1-1h9.7
			C380.5,214.7,380.9,215.2,380.9,215.8z"/>
		<path class="st3" d="M386,214.5h18.3c0.6,0,1.2,0.5,1.2,1.2v3.4c0,0.6-0.5,1.2-1.2,1.2H386c-0.6,0-1.2-0.5-1.2-1.2v-3.4
			C384.8,215.1,385.4,214.5,386,214.5z"/>
		<path class="st3" d="M414.5,214.5h16.9c0.6,0,1,0.5,1,1v3.6c0,0.6-0.5,1-1,1h-16.9c-0.6,0-1-0.5-1-1v-3.6
			C413.4,215,413.9,214.5,414.5,214.5z"/>
	</g>
	<g>
		<polyline class="st2" points="264.5,421.9 251.4,402.5 234.2,402.5 		"/>
		<path class="st3" d="M170.2,399.8h17.6c0.6,0,1.1,0.5,1.1,1.1v3.3c0,0.6-0.5,1.1-1.1,1.1h-17.6c-0.6,0-1.1-0.5-1.1-1.1v-3.3
			C169,400.3,169.5,399.8,170.2,399.8z"/>
		<path class="st3" d="M197,399.8h16.3c0.6,0,1,0.4,1,1v3.5c0,0.6-0.4,1-1,1H197c-0.6,0-1-0.4-1-1v-3.5
			C196,400.2,196.4,399.8,197,399.8z"/>
		<path class="st3" d="M227.7,400.8v3.5c0,0.6-0.5,1-1,1h-9.4c-0.6,0-1-0.5-1-1v-3.5c0-0.6,0.5-1,1-1h9.4
			C227.2,399.8,227.7,400.2,227.7,400.8z"/>
	</g>
	<g>
		<path class="st2" d="M353.2,404.9c0.2,11.7,1,33.6,1,33.6h9"/>
		<path class="st3" d="M403.6,435.2h19.1c0.7,0,1.2,0.5,1.2,1.2v3.5c0,0.7-0.5,1.2-1.2,1.2h-19.1c-0.7,0-1.2-0.5-1.2-1.2v-3.5
			C402.4,435.7,402.9,435.2,403.6,435.2z"/>
		<path class="st3" d="M370.9,435.2h11.7c0.4,0,0.7,0.5,0.7,1.1v3.8c0,0.6-0.3,1.1-0.7,1.1h-11.7c-0.4,0-0.7-0.5-0.7-1.1v-3.8
			C370.1,435.7,370.5,435.2,370.9,435.2z"/>
		<path class="st3" d="M398.4,436.3v3.8c0,0.6-0.5,1.1-1.1,1.1h-10.2c-0.6,0-1.1-0.5-1.1-1.1v-3.8c0-0.6,0.5-1.1,1.1-1.1h10.2
			C397.9,435.2,398.4,435.7,398.4,436.3z"/>
	</g>
	<circle class="st4" cx="215.2" cy="496.4" r="24.3"/>
	<path class="st4" d="M377.7,131.6c-62.1-3.3-96,8.9-94.6,60.1c1.4,49,106.8,54.5,96.1,108.8c-7.5,38.1-101.7,23.9-109.1,66.2
		c-6.4,36.8,55.6,49.2,55.6,82.7c0,33.5-45.3,45.1-69.2,42.5"/>
	<g>
		<path class="st5" d="M252.1,425c0,0,26.2,26.2,30.8,28"/>
		<path class="st5" d="M284.8,427.1c-13.2,1.2-25.3,15.1-33.7,25"/>
	</g>
	<g>
		<polyline class="st2" points="238.5,147.7 225.5,128.4 208.3,128.4 		"/>
		<path class="st3" d="M144.2,125.6h17.6c0.6,0,1.1,0.5,1.1,1.1v3.3c0,0.6-0.5,1.1-1.1,1.1h-17.6c-0.6,0-1.1-0.5-1.1-1.1v-3.3
			C143.1,126.1,143.6,125.6,144.2,125.6z"/>
		<path class="st3" d="M171.1,125.6h16.3c0.6,0,1,0.4,1,1v3.5c0,0.6-0.4,1-1,1h-16.3c-0.6,0-1-0.4-1-1v-3.5
			C170.1,126.1,170.5,125.6,171.1,125.6z"/>
		<path class="st3" d="M201.8,126.6v3.5c0,0.6-0.5,1-1,1h-9.4c-0.6,0-1-0.5-1-1v-3.5c0-0.6,0.5-1,1-1h9.4
			C201.3,125.6,201.8,126.1,201.8,126.6z"/>
	</g>
	<g>
		<path class="st5" d="M226.2,150.9c0,0,26.2,26.2,30.8,28"/>
		<path class="st5" d="M258.9,153c-13.2,1.2-25.3,15.1-33.7,25"/>
	</g>
	<g>
		<path class="st5" d="M323,359.6c0,0,33.9,33.9,39.8,36.3"/>
		<path class="st5" d="M365.3,362.3c-17,1.6-32.8,19.5-43.5,32.4"/>
	</g>
	<g>
		<path class="st5" d="M292.7,268.1c0,0,33.9,33.9,39.8,36.3"/>
		<path class="st5" d="M335.1,270.8c-17,1.6-32.8,19.5-43.5,32.4"/>
	</g>
	<g>
		<path class="st6" d="M310.6,173.9c0,0,29.3,29.3,34.4,31.3"/>
		<path class="st6" d="M347.2,176.3c-14.7,1.3-28.3,16.8-37.6,28"/>
	</g>
	<g>
		<path class="st7" d="M458.3,321.3c0,0-4.7-17.3-6.7-23.1l-8.5-0.6"/>
		<path class="st3" d="M473.6,320v3.4c0,0.5-0.4,1-1,1h-9.1c-0.5,0-1-0.4-1-1V320c0-0.5,0.4-1,1-1h9.1
			C473.1,319.1,473.6,319.5,473.6,320z"/>
		<path class="st3" d="M478.3,318.9h17.2c0.6,0,1.1,0.5,1.1,1.1v3.2c0,0.6-0.5,1.1-1.1,1.1h-17.2c-0.6,0-1.1-0.5-1.1-1.1V320
			C477.2,319.4,477.7,318.9,478.3,318.9z"/>
		<path class="st3" d="M505,318.9h15.9c0.5,0,1,0.4,1,1v3.4c0,0.5-0.4,1-1,1H505c-0.5,0-1-0.4-1-1v-3.4
			C504,319.3,504.5,318.9,505,318.9z"/>
	</g>
	<g>
		<path class="st8" d="M407.6,280.7c0,0,27.5,27.5,32.2,29.4"/>
		<path class="st8" d="M442,283c-13.8,1.3-26.5,15.8-35.3,26.2"/>
	</g>
	<path class="st4" d="M370.2,118.9c2.9,2,15,12.7,15,12.7L370.8,144"/>
</g>
<g>
	<path class="st9" d="M617.8,220c0,0,9.1-7.8,8.1-9.7c-1-1.9-2.9-4-6.7-7.2c-2.9-2.5-5.2-5.3-8.1-7.7c-2.8-2.4-11.1-15.1-13.8-12
		c-1.5,1.8,9.6,9.9,7.7,13.5c-0.7,1.3-8.9,8-4.4,11.3c3.5,2.6,6,0.5,9.1,4.3C613,216.3,615,217.5,617.8,220z"/>
	<path class="st9" d="M725.2,258.2l13.2-3.7c0.1-6-6.3-18.7-7.3-24.1c-1-5.9-8.3-11.4-8.3-11.4l-4.4,12.4l0.3,1c0,0,1,10.4-0.8,15.1
		c-1,2.7-0.4,6.7-3.3,10.9C712.4,261.6,725.2,258.2,725.2,258.2z"/>
	<path class="st10" d="M718.8,234.7c0,0,0.5,6.7-0.3,10.6c8.2,3.7,12.6-5.6,10.5-7.9c-1.3-1.4-6-4.8-6-4.8L718.8,234.7z"/>
	<g>
		<path class="st9" d="M715.2,213.9c-4.3,10.8-9,11.2-5.3,12.8c2.8,1.2-4,9.1-0.9,10.2c7.4,2.7,16.6,0.4,18.8-3.1
			c2.2-3.4,5.2-14.1,5.2-14.1L715.2,213.9z"/>
		<path class="st11" d="M722.5,221.2c-2.4-0.5-2.7,0.1-4.1-1.3c-1.4-1.4,2.3-2.8-0.6-4.4c-2.9-1.6-6.2-2.9-5.3-6.7
			c1.3-5.5,5.5-3.1,8.1-1.6c1.7,1,3.4-2.9,7-1.5c2.8,1.1,1.9,2.7,4.3,3.8c1.5,0.6,5.3-1,7,1.7c3.2,5-1.9,8.1,0.5,13.1
			c2.8,5.8-10.1,11.9-10.9,10.4c-0.9-1.8,2.6-5.7,1.6-7.2c-1.5-2.3-2.3-0.6-4.6,0.5c-2.4,1.2-5.8,0.2-2.5-2.6
			C726.2,222.8,724.7,221.7,722.5,221.2z"/>
	</g>
	<path class="st0" d="M690,589.5c-0.6-5.9-0.2-20.7-0.2-20.7l16.2-0.6l-0.9,22.3l-10.7,7.1L690,589.5z"/>
	<path class="st11" d="M688.7,584.6c-1.4-1-4.4,2.6-5,5.1c-1.4,5.6-19.5,6.4-22.7,6.9c-1.7,0.3-4.3,8.5,3.9,8.5
		c7.1,0,30.1,0,37.9-0.1c1.6,0,3.1-1.1,3.5-2.6c1.4-5.4,1.6-18.2-0.6-18.4C702.7,584.6,693.9,588.6,688.7,584.6z"/>
	<path class="st0" d="M752.2,589.6c-0.6-5.9-0.3-20.7-0.3-20.7l16.2-0.7l-0.7,22.3l-10.7,7.1L752.2,589.6z"/>
	<path class="st11" d="M750.4,582.9c-1.7,0.1-1.4,1.7-2,4.2c-1.4,5.6-21.9,9.3-25.2,9.8c-1.7,0.3-4.3,8.6,4,8.5
		c7.1-0.1,30.1-0.3,37.9-0.5c1.6,0,3.1-1.1,3.4-2.6c1.4-5.5,1.9-20.4-0.3-20.6C765.3,582.4,758.4,582.4,750.4,582.9z"/>
	<path class="st12" d="M775.4,395.7c-0.2,2.7-0.5,5.5-0.9,8.7c-1.4,11.8-4.3,51.8-3.6,77.2c0.7,25.2-1.5,84.3-1.5,93.4
		c-7.7,3.4-12.4,2.3-23.4,0c0,0-1.9-48.7-4.1-91.4c-1.8-34.6-2.3-31.2-8.6-75.3l0,0c-0.1,0.2-1.6,4.5-3.9,11.1
		c-4.8,14.1-12.9,38.8-16.8,56.6c-6,27.9-2.9,100.5-5.4,103c-7.5,4.4-20.3,4.9-23.7-1.3c0,0-1.4-89.8,1.2-103.9
		c1.8-9.6,17.1-103.3,20.5-128.4c0,0,67.5-14.7,69.5,8.3c0.3,3.2,0.4,5.9,0.3,8.6c-0.1,3.6,0.1,6.9,0.3,10.5
		C775.9,378.8,776.2,385.6,775.4,395.7z"/>
	<path class="st13" d="M739.3,395.6C739.3,395.6,739.3,395.6,739.3,395.6c-0.1,0-0.2-0.1-0.2-0.1
		C739.1,395.5,739.3,395.6,739.3,395.6z"/>
	<path class="st14" d="M733.3,408.3L733.3,408.3c-0.1,0.2-3,8.6-5.3,15.2l2.6-26.7C730.7,396.8,730.6,398.4,733.3,408.3z"/>
	<path class="st15" d="M775.8,388.8c-0.6-0.1-26.6-5.7-30.1-18.7c0,0,22.6,1.9,29.8,2.7C775.9,378.8,776,385.5,775.8,388.8z"/>
	<path class="st0" d="M735.3,242.6c-5.8-1.6-6.4,8.1-12.3,8.5c-3.1,0.2-2.4-1.1-3.9-2.5c-0.9-0.9-1.8-1.9-3.2-0.4
		c-29.1,29.8,1.2,105-2.5,110.3c-3,4.3,21.6,13.7,37,9.9c21.2-5.2,19.9-28.2,19.3-32.6c-0.6-4.4-14.3-79.1-14.3-79.1
		S744.7,251.1,735.3,242.6z"/>
	<path class="st16" d="M622,203.4c3.4,2.3,32.9,28.8,38.6,32c13,7.4,31.8,19.7,55.3,12.8c0,0,0.7,5-1,18
		c-2.2,17.2,7.5,29.4,5.5,50.3c-2.5,26.9,4.1,54.4-2.5,60.5c-3.9,3.5-9.2,4.2-15.7-2.5c-10.2-10.6-3.5-45.2-2.6-53.5
		c0.4-3.2,1.2-7.5,1.8-12c0.8-5.6-5.1-21.6-7.8-23.8c-3.1-2.4-29.7-24.2-40.8-30.9c-8.4-5.1-39.1-31.6-40.3-33.4
		C610.8,218.1,618.5,201.1,622,203.4z"/>
	<path class="st17" d="M759.3,382.3c-0.6,1.1-2.3,1.1-1.4,1.8c0.9,0.7,11.5,5.4,11.5,5.4s1,1.1,2.3-0.7c1.2-1.8,1.2-3.7,1.2-3.7
		L759.3,382.3z"/>
	<path class="st16" d="M777.9,376.6c-9.3,5.8-21.6,6-29.7-2.6c-6.8-7.1,0.1-16.3-4.9-32.9c-2.8-9.2-7.1-25.7-8-37.2
		c-2-24.4-0.5-54.3,0.1-61.2c0,0,14.7,0.4,26.8,13c5.1,5.3,8.3,20.6,8.8,31.8c0.2,3.7,0.3,6.6,0.3,9.1c0.1,5.1,0,8.3-0.2,11.8
		c-0.1,1.4-0.1,2.8-0.2,4.4c0,0,0,0,0,0c-0.1,1.8-0.1,3.9-0.2,6.4c-0.1,4.1,1.3,10.8,3,18.3l0,0
		C777.5,353.8,782.8,373.5,777.9,376.6z"/>
	<path class="st16" d="M744.8,271.8c32.5,53.3,34.3,46.2,35.1,54.9c0.8,8.7-21.5,55.9-21.5,55.9s13.4,7.5,14.9,5.2
		c1.5-2.3,30.2-55.1,29-66.4c-1.3-12.5-36.2-61-40.3-65.8c-4.1-4.8-21.9-6.8-21.7,1.7C740.5,265.8,744.8,271.8,744.8,271.8z"/>
	<path class="st18" d="M773.7,337.4c-12.2-10.9-13.1-38.5-13.1-38.5l10.2,13.8c0,0,0,0,0,0c-0.1,1.8-0.1,3.9-0.2,6.4
		C770.6,323.2,772,330,773.7,337.4z"/>
	<path class="st18" d="M775.7,345.8c-0.8,3.9-16,34.3-16,34.3l14.7-39.6L775.7,345.8z"/>
	<g>
		<path class="st19" d="M724.9,254.5c0.7-0.3,4.7,12.4,12.2,17.7c2.1,1.4,4.3,2.6,6.8,3.1c7.3,1.6,24.3,1.5,33.7,1.9
			c-1.9-3.6-3.9-4.3-7.3-9.9c-7,1-20.6,1.8-24.3,0.8c-2.8-0.8-5.3-2-7.6-3.5c-4.3-2.8-7.8-6.5-10.4-9.6c-1.3-1.6-1.2-3.7-3-4
			C722.4,250.4,724,254.9,724.9,254.5z"/>
		<path class="st20" d="M721.8,250.7c0.3-1.1,1.4-2.9,3.8-2.4c1.8,0.4,1.9,1.2,3.2,2.7c4,4.8,10,10.8,18.1,13.1s28.4-5.4,40.1-0.8
			c11.7,4.6,13.5,16.1,30.5,21.7s37,1.4,42,3.1c5,1.7,7.9,3.4,7.5,5.4c-0.5,2-3.6,5-7.4,5.8c-3.9,0.8-36.1-2.3-44.3-4.8
			c-13.4-4.1-23.2-18.5-31.9-20.7s-28.2-0.3-38.5-2.5c-11.5-2.6-18.7-17.6-19.5-17.2c-0.8,0.4-1.6,0.8-3.1,0.1
			C721.2,253.9,721.5,251.9,721.8,250.7z"/>
	</g>
</g>
<g>
	<path class="st21" d="M73.8,503.4c3.4,16.9,4.8,31.5,1.8,44.9c-3,13.3-23,94.2-21.6,96.5c1.4,2.4,7,12.4,8.1,14.9
		c1.2,2.5-26.6-7.7-26.5-12.8c0.1-5.1,1.7-2.5,4.7-10c3-7.5,6.7-34.7,7.2-40.4c0.5-5.7-0.5-62.1,1.4-68.4
		C50.9,521.9,73.8,503.4,73.8,503.4z"/>
	<path class="st9" d="M126.8,404.1c5.1,4.9,15,4.8,19.2,2.1c4.7-3.1,6.2-11,1.1-8.8c-7.9,3.5-4.2-2.2-6.1-2.4
		c-3.1-0.3-8.5,4.3-10.1,3.4C130,397.9,126.8,404.1,126.8,404.1z"/>
	<path class="st9" d="M151.2,296.8c-2.8-6.6,0.8-15.7,4.9-18.7c4.5-3.3,12.4-2,8.6,2.1c-3.8,4.1-0.1,11.8-3.3,15.9
		C157.2,301.3,151.2,296.8,151.2,296.8z"/>
	<path class="st22" d="M38.3,636.8c0.7-0.4,1.5-0.4,2.1,0.1c2.8,2.4,4,5.3,4.3,6.4c0.5,2.2,0.5,5.8,5.6,9.7c5,3.9,10.6,3.8,12.2,5.6
		s11.1,8.9,7.8,12c-3.5,2.7-15.1-0.7-18.8-4.3c-3.7-3.6-13.2-12.9-13.4-12.3c-1.2,1.3-1.8,0.8-1.8,0.8c-2.9-2.8-7.2-6.2-7.5-7.4
		c-0.3-1.2,1.7-5.1,3.8-6.7C34,639.7,36.7,637.8,38.3,636.8z"/>
	<path class="st21" d="M82,512.1c0.1,2.5,2.1,15.5,4.6,31.2c0.8,4.7,1.6,9.7,2.4,14.6c3.8,22.9,7.8,46.3,8.6,49.2
		c1.5,5.6,7.6,33.1,7.3,41.4c-0.3,8.3-2.8,6.4-1.1,11.3c1.7,4.9,37.4-0.2,35.4-2.3c-2-2-15.8-4.5-18-6.3c-1.5-1.2-5.4-55.7-8.2-94.9
		c-0.4-5.3-0.8-10.3-1.1-14.8c-0.9-11.5-1.6-20.1-2-23.3c-1.8-13.9-7.8-10.1-19.3-10.1C90.5,508.2,81.7,505.4,82,512.1z"/>
	<path class="st22" d="M102.4,654.5c0.2-0.8,0.9-1.3,1.7-1.3c3.9-0.1,6.8,1.3,7.8,2c1.9,1.3,4.4,4.1,11,3.7c6.6-0.4,11.2-3,13.7-2.7
		c2.6,0.3,13.6,2.3,13.2,7c-0.9,4.4-11.1,7-16.4,6.8c-5.4-0.2-19.6-2.5-19.4-1.9c0,1.8-0.9,1.9-0.9,1.9c-4.2-0.2-9.9,0.2-11-0.6
		c-1.1-0.8-2.1-5.1-1.6-7.8C101,659.7,101.9,656.3,102.4,654.5z"/>
	<path class="st23" d="M47.8,554.6c7.8,3.1,19.7,2.6,25.5,3.6c1.5-6.1,1.8-7.4,2.3-9.8c0.1-0.5,0.2-0.9,0.3-1.4L55,541.3l-7.1,7.9
		C47.8,551,47.8,552.7,47.8,554.6z"/>
	<path class="st23" d="M86.7,543.3c0.8,4.7,1.4,8.5,2.2,13.5c7.1-2.9,16.9-1.6,24.1-0.4c-0.4-5.3-0.8-10.3-1.1-14.8l-1.2-4.1
		L86.7,543.3z"/>
	<path class="st24" d="M0,540.4c7.3,9,30.3,2.2,38.9,6.9c1.4,0.7,3.8,1.6,6.7,2.4c10.5,2.9,28.4,5.6,35.8,3.6
		c9.5-2.5,18.8-12.1,41.5,0.3c5.7-20.8-8.5-112.5-18.8-136.6v0c-0.5-1.3-1.1-2.4-1.6-3.2c0,0-25.3-14.9-47.4-3.6
		c-3.7,1.9-7.3,4.5-10.6,8c-0.1,0.1-0.1,0.2-0.2,0.3C21.8,454.6,39.7,492.5,0,540.4z"/>
	<path class="st20" d="M132,409.4c0.7,0.6,4.1-14,2.8-15.4c-1.4-1.5-19.5-5.3-21.5-6c-6.3-2.1-27-7.2-36.1-12.6
		c-6.6-3.9-11.4-5.3-30.9-17c9.4,9.8,7.3,27.2,6.5,35.6c-0.9,9.6-3.9,18.1-8.3,24.3c-0.1,0.1-0.1,0.2-0.2,0.3
		c-1.5,2.8,7.3,4,18.6,4.1c16.6,0.2,38.5-1.8,40.7-4.2c0.3-0.3,0.5-0.8,0.5-1.4c1.1-7.5-11.2-36.1-11-41.1c0.2-5.4,10.1-7.8,10.9-12
		c0.8-4.1-9.9-16.1-7.8-14.9c6.8,3.8,32.6-4.3,38-8.8c5.4-4.5,24.9-39.3,25.4-40.4c1.1-2.5-9.8-11-11.5-7.6
		c-1.5,3-20.2,35.5-27.4,38.1c-6.1,2.2-30.7-2.7-41.5-8.2c0,0-10.2-1.5-15.2-1.1c-4.9,0.4-18.1,10.4-21.6,14.9
		c-3.9,5,0.4,24.5,5.3,40.5C50.5,385.8,129.9,407.7,132,409.4z"/>
	<path class="st21" d="M75.4,311.2c-1.9,8.6-1.4,13.1,0,15.5c1.4,2.4,3,8.3,0.2,8.1c-1.4-0.1-9.4-3.6-12.4-5.7
		c-2.9-2.1-4.7-6.2-4.7-6.2s6.3-10.9,10.6-20.1C73.6,293.7,75.4,311.2,75.4,311.2z"/>
	<path class="st25" d="M74.3,319.3c0.1-1.1,0.2-2.4,0.4-3.8c0.1-0.5,0.7-3.8,0.8-4.3c-0.5-0.5-1.3-1.1-1.8-1.2
		c-0.7-0.1-2.1,0-2.7-0.7c-1-1.3-3.1,2.4-2.2,4.6C69.1,314.7,71.5,317.9,74.3,319.3z"/>
	<path class="st25" d="M86.8,379.8c-19.1-12-21.7-14.4-22.6-25.9c-2.3,9.6-0.4,12.2,0.7,14C65.9,369.6,79.7,376.6,86.8,379.8z"/>
	<path class="st25" d="M96.2,398c0.2-0.1-42.6-15.9-42.6-16.7c0,1.9,0,3.3-0.1,4.4C54.8,385.5,95.5,398.4,96.2,398z"/>
	<path class="st25" d="M86.1,338.3c4.5,4.2,6.6,5.2,10.2,11.1c-2.9-6.8-3-7.9-3-7.9S88,338.4,86.1,338.3z"/>
	<path class="st26" d="M0,540.4c7.3,9,30.3,2.2,38.9,6.9c1.4,0.7,3.8,1.6,6.7,2.4c15.8-35.1,14.9-88.8,11-127.3
		c-0.4-4.3-0.9-8.4-1.4-12.2c-0.8-6-1.6-11.5-2.4-16.2c-0.9,9.6-3.9,18.1-8.3,24.3c-0.1,0.1-0.1,0.2-0.2,0.3
		C21.8,454.6,39.7,492.5,0,540.4z"/>
	<g>
		<g>
			<path class="st21" d="M69.5,289.1c6,4.9,11.1,5.5,9.2,7.5c-1.4,1.5,10.7,11.8,3.3,14.3c-7.4,2.5-14.8,2.7-19.7-3.8
				s-7.9-10.1-7.9-10.1L69.5,289.1z"/>
			<path class="st27" d="M71.4,289.7c-0.2,4.5-2.6,7.8-3.1,9.8c-0.3,1.1-2.3,1.9-3.3,1.3c-1.1-0.7-2.8,0-3.8,1.7
				c-1.2,2,1.7,3.2,3.4,4.2c1.2,0.7,1.9,2.6,1.8,4c-0.6,5.5,10.4,12.8-12.6,31.2c-5.8,4.6-12.4,8.1-18.9,10.7
				c-13,5.1-25.1,6-27.4,2.6c-1.7-2.5,1.8-9.4,5.2-12.9c3.4-3.4,6.2-1.5,8.7-4.2c2.9-3.1-6.1-9.1,4.1-15.1s12.1-3.9,14.6-7.2
				c2.5-3.3-2.2-24.1,10.6-29.9c8.9-4,14.7-2,17.4-0.4C69.3,286.1,71.4,288.4,71.4,289.7z"/>
		</g>
	</g>
</g>
<g>
	<path class="st0" d="M586.2,673.9l24.6,2.5l-3.4,34c-0.7,6.8-6.7,11.7-13.5,11l-0.1,0c-6.8-0.7-11.7-6.7-11-13.5L586.2,673.9z"/>
	<path class="st20" d="M609.1,693.5l-2.4-0.2l-6-0.6l-10.6-1.1l-0.5-0.1l-5-0.5L622,319.3l0.3-0.6l10.3-24.2
		c1.8-4.2,7.8-3.5,8.7,0.9l5.4,26.4l-0.1,1.1L609.1,693.5z"/>
	<path class="st9" d="M622,319.3l12.7-33.4c1.2-3,5.6-2.6,6.1,0.6l5.8,35.2l0,0.4c-4.2,0.8-4.3,3.2-6.3,2.8c-2.5-0.5-3-6.2-5.8-6.5
		c-2.8-0.3-1.8,2.8-4.6,2.5c-2.8-0.3-2.6-2-4.3-2.2C624,318.7,625.8,319.7,622,319.3z"/>
	<path class="st22" d="M631.9,293.2l4.5-11.9c0.7-1.7,3.2-1.5,3.5,0.4l2.1,12.6c0,0.2-0.1,0.3-0.2,0.4c-2.9,1-3.4-1.6-5.3-1.6
		c-0.9,0-2.6,0.3-4.1,0.6C632.1,293.7,631.8,293.4,631.9,293.2z"/>
	<path class="st28" d="M590,691.6l-0.5-0.1l-5-0.5L622,319.3l3.7-0.4c-0.4,40.9-17.8,191.3-22.6,238.8
		C599.2,595.2,595,649.9,590,691.6z"/>
</g>
<path class="st9" d="M617.5,399.9c8.8-5,10.3-15,14.1-15.1s-0.3,5.8,1.3,5.2c1.6-0.6,5.2-4.2,8.8-6.6c2.5-1.6,7.6,11.9-1.3,17.2
	c-2.9,1.7-15.1,7.3-18.6,8.7C618.3,410.8,617.5,399.9,617.5,399.9z"/>
<path class="st16" d="M540.3,395.2c13.8,14.2,34.1,21.7,38.3,21.8c7.5,0.2,30.5-17,38.1-23.2c3.3-2.7,12.2,15.4,8.6,18.5
	c-3.6,3-39.6,28.3-49.7,28.3c-23.1,0-51.4-32-52.6-38.1C521.6,396.3,540.3,395.2,540.3,395.2z"/>
<g>
	<path class="st9" d="M416.7,391.7c-0.5-3.1-1.9-8.4-3.3-12.3c-1.3-3.8-2.6-7.7-2.2-11.6c0.5-5-1.8-19-3-19.4
		c-4-1.4-0.6,12-1.9,14.2c-1.7,2.8-8.8-0.7-8.6,5.8c0.1,2.9,3.3,4.1,4.8,11c0.9,4.1,1.3,13.9,2.3,15.4
		C405.9,396.3,416.7,391.7,416.7,391.7z"/>
	<path class="st9" d="M441.3,705.1c-0.3-6.1,1.1-21.5,1.1-21.5l17,0.3l-2.3,23.1l-11.7,6.7L441.3,705.1z"/>
	<path class="st27" d="M440.1,702.4c-1.8-0.4-1.1,1.2-1.8,3.7c-1.6,5.8-24.1,5.7-27.5,6.2c-1.8,0.2-4.7,8.8,4,8.9
		c7.5,0.1,31.6,0.4,39.8,0.4c1.7,0,3.2-1.1,3.7-2.7c1.6-5.6,1.3-14.4-1-14.6C453.9,703.3,447.5,704.2,440.1,702.4z"/>
	<g>
		<path class="st9" d="M540.1,698c-2.5-5.7-6.7-20.5-6.7-20.5l16.1-5.2l6.2,22.4l-8.5,10.1L540.1,698z"/>
		<path class="st27" d="M538.1,695.9c-1.8,0.2-0.6,1.5-0.3,4.1c0.6,6-20.5,13.2-23.5,14.7c-1.6,0.8-1.2,9.8,7,7.1
			c7.1-2.4,29.8-9.9,37.6-12.6c1.6-0.6,2.7-2.1,2.5-3.7c-0.6-5.8-4-13.9-6.2-13.4C551.4,692.2,545.7,695.2,538.1,695.9z"/>
	</g>
	<path class="st29" d="M482.4,485.5c-9.9,25.6-26.3,99.6-28.3,113c-2.1,13.4-15.1,93.7-15.1,96.1s22.7,8.1,25.5,4.1
		c2.9-3.9,7.9-70.3,16.3-89.1c8.4-18.9,32.8-76.9,32.8-76.9c-3.2,29.1-10.5,75.6-6.2,85.1c8.2,21.3,26,73.3,26,73.3
		c6.8,3.6,25.3-4.8,23.3-5.3c-5.4-15.1-18.7-58.3-20.5-72.9c-1.8-14.5,18.3-131.5,18.3-131.5l-58.1-3.6L482.4,485.5z"/>
	<path class="st30" d="M513.6,532.6c-0.6,8.4-2.3,17.2-3.3,26.9l10.9-44C521.2,515.5,519.1,523.2,513.6,532.6z"/>
	<g>
		<path class="st9" d="M504.6,351.7c-2.4,9.8-4.3,11.9-4.5,13.1c1.8,1.2,1.8-1.2,1.1,3.9c-0.9,7.4-0.9,13.3,8.1,7.8
			c-0.6,5.5-0.9,7.4-0.9,7.4l2,10.5l14.2-1.2c-3-9.1,4.7-37.1-0.6-42.9C518.9,344.3,505.3,348.8,504.6,351.7z"/>
		<path class="st31" d="M514.6,367.7c3.8-2.4,1.4-8.5-2.5-5.1c-3.4-0.5-3.2-0.8-2.7-3.8c0.5-3-2.1-2.1-4.4-4.4
			c-2.3-2.3-5.1-3.8-2.5-7c0,0-1.2-2.2-0.2-3.8c1.1-1.6,4.8-4.5,7.4-2.2c2.6,2.3,1.9,4.5,5.8,1.3c3.9-3.1,8.2-2.8,9.3,2.4
			c1.3,5.9,3.7,1.3,5.5,6.9c3.2,10.2-3.2,9.3-3.1,15c0.1,5.7-2.4,11.3-6.7,10.7C516.4,377.1,514.3,370.6,514.6,367.7z"/>
		<path class="st32" d="M509.4,376.4c2.6-2.6,3.9-2.2,4.5-1.5c5.8,6.2-0.6,6.9-3,10.7c-2.4,3.8-2.1-3.4-2.1-3.4L509.4,376.4z"/>
	</g>
	<path class="st16" d="M527.1,384.9c-3.6-1.4-22.7-3.9-31.6,1.1c-8.9,4.9-15.1,6.1-24.1,14.9c-7.7,7.6-20.6,21.6-31.6,24.3
		c-9.7,2.4-23.1-48.5-23.1-48.5c-3-0.2-16.4,6.4-17.4,8.6c1.3,5.3,15.5,70.7,39.9,62.9c16.7-5.3,44.5-30.2,46.1-23.5
		c0.1,16.7,4.8,26.1-2.9,60.8c19.8,17.3,72.9,11.8,74.3,1.2s-5.5-72.2-8.3-79.7C544.8,397.2,530.8,386.3,527.1,384.9z"/>
	<path class="st25" d="M485.3,424.7c0.1,14.7,4.5,27.1-1.5,53.9c0.8,0,2.3-4.1,3.4-5.8c4.4-7,9.5-39.8,8.1-42.6
		c-1.4-2.7-3.1-4-10.7-6.9C485,423.5,485.2,424.3,485.3,424.7z"/>
</g>
</svg>
