<?xml version="1.0" encoding="utf-8"?>
<!-- Generator: Adobe Illustrator 24.1.0, SVG Export Plug-In . SVG Version: 6.00 Build 0)  -->
<svg version="1.1" id="Layer_1" xmlns="http://www.w3.org/2000/svg" xmlns:xlink="http://www.w3.org/1999/xlink" x="0px" y="0px"
	 viewBox="0 0 12.98 25.89" enable-background="new 0 0 12.98 25.89" xml:space="preserve">
<g>
	<g>
		<g>
			<path fill="#FFFFFF" d="M9.24,2.42c0,0,1.27,1.63,0.09,3.8c-1.1,2.02-1.78,3.37,0.91,5.36c-0.04-0.27-0.62-2.11,0.44-4.11
				C11.74,5.45,11.54,4.03,9.24,2.42z"/>
		</g>
		<g>
			<path fill="#FFFFFF" d="M11.88,14.64c-2.4-3.6-6.03-3.18-3.47-9.48c0,0-6.93,4.89-3.33,11.45c0,0-2.27-0.23-1.98-4.66
				c0,0-6.33,5.18-0.87,10.12c1.38,1,2.72,1.34,3.91,1.39c0.79-0.36,1.49-0.94,2.01-1.74c1.2-1.84,1.21-4.27,0.04-6.35
				C8,15.06,7.85,14.75,7.72,14.46c0.3,0.36,0.66,0.71,1.08,1.08c1.59,1.34,2.54,3,2.59,4.56c0.02,0.7-0.13,1.35-0.45,1.97
				c0.54-0.39,0.94-0.8,1.25-1.2C12.21,20.87,14.14,18.03,11.88,14.64z"/>
		</g>
	</g>
</g>
</svg>
