<?xml version="1.0" encoding="utf-8"?>
<!-- Generator: Adobe Illustrator 26.0.3, SVG Export Plug-In . SVG Version: 6.00 Build 0)  -->
<svg version="1.1" id="Layer_1" xmlns="http://www.w3.org/2000/svg" xmlns:xlink="http://www.w3.org/1999/xlink" x="0px" y="0px"
	 viewBox="0 0 254.8 90" style="enable-background:new 0 0 254.8 90;" xml:space="preserve">
<style type="text/css">
	.st0{fill:url(#SVGID_1_);}
	.st1{fill:url(#SVGID_00000036932107538932365840000008660645327188473768_);}
	.st2{fill:url(#SVGID_00000091732635174418948210000001243145622103971486_);}
	.st3{fill:url(#SVGID_00000043418964497774819820000005355612242256104111_);}
	.st4{fill:url(#SVGID_00000158010136189982449600000011903008912359182512_);}
	.st5{fill:url(#SVGID_00000070120550754577102340000000615795663739591607_);}
	.st6{fill:url(#SVGID_00000131343966907766584970000003996571322580705204_);}
	.st7{fill:url(#SVGID_00000035523064344345687410000004705974820705765768_);}
	.st8{fill:#FFFFFF;}
</style>
<g>
	<g>
		
			<linearGradient id="SVGID_1_" gradientUnits="userSpaceOnUse" x1="45" y1="1073.0782" x2="45" y2="1101.8632" gradientTransform="matrix(1 0 0 -1 0 1115.7539)">
			<stop  offset="0" style="stop-color:#FFFFFF;stop-opacity:0"/>
			<stop  offset="0.9426" style="stop-color:#FFFFFF;stop-opacity:0.9426"/>
			<stop  offset="1" style="stop-color:#FFFFFF"/>
		</linearGradient>
		<polygon class="st0" points="41.6,5.8 48.4,5.8 45.1,44.9 		"/>
		
			<linearGradient id="SVGID_00000124882416308522634470000003837315644687181711_" gradientUnits="userSpaceOnUse" x1="268.1019" y1="1156.0229" x2="268.1019" y2="1184.8081" gradientTransform="matrix(-1 0 0 1 313.1019 -1108.699)">
			<stop  offset="0" style="stop-color:#FFFFFF;stop-opacity:0"/>
			<stop  offset="0.9426" style="stop-color:#FFFFFF;stop-opacity:0.9426"/>
			<stop  offset="1" style="stop-color:#FFFFFF"/>
		</linearGradient>
		<polygon style="fill:url(#SVGID_00000124882416308522634470000003837315644687181711_);" points="48.4,84.2 41.6,84.2 45.1,45.1 
					"/>
		
			<linearGradient id="SVGID_00000003784941214494148370000017325393772868840616_" gradientUnits="userSpaceOnUse" x1="178.3984" y1="982.5414" x2="178.3984" y2="1011.3264" gradientTransform="matrix(4.489700e-11 1 1 -4.489700e-11 -935.2171 -133.3984)">
			<stop  offset="0" style="stop-color:#FFFFFF;stop-opacity:0"/>
			<stop  offset="0.9426" style="stop-color:#FFFFFF;stop-opacity:0.9426"/>
			<stop  offset="1" style="stop-color:#FFFFFF"/>
		</linearGradient>
		<polygon style="fill:url(#SVGID_00000003784941214494148370000017325393772868840616_);" points="84.2,41.6 84.2,48.4 45.1,45.1 
					"/>
		
			<linearGradient id="SVGID_00000122692904744075658820000009833122190861809827_" gradientUnits="userSpaceOnUse" x1="134.7035" y1="1246.5599" x2="134.7035" y2="1275.3451" gradientTransform="matrix(-4.489700e-11 -1 -1 4.489700e-11 1289.2356 179.7035)">
			<stop  offset="0" style="stop-color:#FFFFFF;stop-opacity:0"/>
			<stop  offset="0.9426" style="stop-color:#FFFFFF;stop-opacity:0.9426"/>
			<stop  offset="1" style="stop-color:#FFFFFF"/>
		</linearGradient>
		<polygon style="fill:url(#SVGID_00000122692904744075658820000009833122190861809827_);" points="5.8,48.4 5.8,41.6 44.9,45.1 		
			"/>
		
			<linearGradient id="SVGID_00000103237942394267162760000005350775539152412560_" gradientUnits="userSpaceOnUse" x1="220.1556" y1="1228.9154" x2="220.1556" y2="1257.7006" gradientTransform="matrix(-0.7071 -0.7071 -0.7071 0.7071 1067.999 -666.6551)">
			<stop  offset="0" style="stop-color:#FFFFFF;stop-opacity:0"/>
			<stop  offset="0.9426" style="stop-color:#FFFFFF;stop-opacity:0.9426"/>
			<stop  offset="1" style="stop-color:#FFFFFF"/>
		</linearGradient>
		<polygon style="fill:url(#SVGID_00000103237942394267162760000005350775539152412560_);" points="19.7,75.1 14.9,70.3 44.9,45.1 
					"/>
		
			<linearGradient id="SVGID_00000041986526012531941700000013832605379960839577_" gradientUnits="userSpaceOnUse" x1="251.2969" y1="1030.4875" x2="251.2969" y2="1059.2727" gradientTransform="matrix(-0.7071 0.7071 0.7071 0.7071 -504.3243 -859.7083)">
			<stop  offset="0" style="stop-color:#FFFFFF;stop-opacity:0"/>
			<stop  offset="0.9426" style="stop-color:#FFFFFF;stop-opacity:0.9426"/>
			<stop  offset="1" style="stop-color:#FFFFFF"/>
		</linearGradient>
		<polygon style="fill:url(#SVGID_00000041986526012531941700000013832605379960839577_);" points="75.1,70.3 70.3,75.1 45.1,45.1 
					"/>
		
			<linearGradient id="SVGID_00000121262266825748276000000016115101984098662319_" gradientUnits="userSpaceOnUse" x1="61.8079" y1="1198.6113" x2="61.8079" y2="1227.3965" gradientTransform="matrix(0.7071 -0.7071 -0.7071 -0.7071 847.192 934.6007)">
			<stop  offset="0" style="stop-color:#FFFFFF;stop-opacity:0"/>
			<stop  offset="0.9426" style="stop-color:#FFFFFF;stop-opacity:0.9426"/>
			<stop  offset="1" style="stop-color:#FFFFFF"/>
		</linearGradient>
		<polygon style="fill:url(#SVGID_00000121262266825748276000000016115101984098662319_);" points="14.9,19.7 19.7,14.9 44.9,44.9 
					"/>
		
			<linearGradient id="SVGID_00000096044722986197260030000000748205043623528890_" gradientUnits="userSpaceOnUse" x1="92.9492" y1="1000.1835" x2="92.9492" y2="1028.9686" gradientTransform="matrix(0.7071 0.7071 0.7071 -0.7071 -726.3099 684.8611)">
			<stop  offset="0" style="stop-color:#FFFFFF;stop-opacity:0"/>
			<stop  offset="0.9426" style="stop-color:#FFFFFF;stop-opacity:0.9426"/>
			<stop  offset="1" style="stop-color:#FFFFFF"/>
		</linearGradient>
		<polygon style="fill:url(#SVGID_00000096044722986197260030000000748205043623528890_);" points="70.3,14.9 75.1,19.7 45.1,44.9 
					"/>
		<g>
			<g>
				<ellipse class="st8" cx="53.3" cy="25.4" rx="3.1" ry="3.1"/>
				<ellipse class="st8" cx="36.6" cy="64.6" rx="3.1" ry="3.1"/>
			</g>
			<g>
				<ellipse class="st8" cx="64.6" cy="53.3" rx="3.1" ry="3.1"/>
				<ellipse class="st8" cx="25.4" cy="36.6" rx="3.1" ry="3.1"/>
			</g>
			<g>
				<ellipse class="st8" cx="64.9" cy="37" rx="3.1" ry="3.1"/>
				<ellipse class="st8" cx="25.1" cy="53" rx="3.1" ry="3.1"/>
			</g>
			<g>
				<ellipse class="st8" cx="53" cy="64.9" rx="3.1" ry="3.1"/>
				<ellipse class="st8" cx="37" cy="25.1" rx="3.1" ry="3.1"/>
			</g>
		</g>
		<g>
			<g>
				<circle class="st8" cx="45.1" cy="5.2" r="5.2"/>
			</g>
			<g>
				<circle class="st8" cx="45.1" cy="84.8" r="5.2"/>
			</g>
		</g>
		<g>
			<g>
				<circle class="st8" cx="84.8" cy="45.1" r="5.2"/>
			</g>
			<g>
				<circle class="st8" cx="5.2" cy="45.1" r="5.2"/>
			</g>
		</g>
		<g>
			<g>
				<ellipse class="st8" cx="73.2" cy="16.8" rx="5.2" ry="5.2"/>
			</g>
			<g>
				<ellipse class="st8" cx="16.8" cy="73.2" rx="5.2" ry="5.2"/>
			</g>
		</g>
		<g>
			<g>
				<ellipse class="st8" cx="73.2" cy="73.2" rx="5.2" ry="5.2"/>
			</g>
			<g>
				<ellipse class="st8" cx="16.8" cy="16.8" rx="5.2" ry="5.2"/>
			</g>
		</g>
	</g>
	<path class="st8" d="M103.5,16.8h2.7v45.4h-2.5l-0.2-1.9c-0.4,0.9-0.8,1.6-1.3,2c-0.5,0.4-1.2,0.7-1.9,0.7c-1.1,0-1.9-0.5-2.4-1.6
		c-0.5-1.1-0.7-3-0.7-5.6V37c0-2.7,0.2-4.6,0.7-5.6c0.5-1.1,1.3-1.6,2.4-1.6c0.7,0,1.3,0.2,1.9,0.7c0.5,0.5,1,1.1,1.3,2V16.8z
		 M103.5,37.8c0-1.8-0.1-3-0.4-3.8c-0.3-0.7-0.7-1.1-1.4-1.1c-0.7,0-1.1,0.4-1.4,1c-0.3,0.7-0.4,2-0.4,3.8v17c0,1.9,0.1,3.1,0.4,3.8
		c0.3,0.7,0.7,1,1.4,1c0.6,0,1.1-0.4,1.4-1.1c0.3-0.7,0.4-2,0.4-3.8V37.8z"/>
	<path class="st8" d="M123.7,16.8h2.9v4.8h-2.9V16.8z M123.7,30.6h2.7v31.6h-2.7V30.6z"/>
	<path class="st8" d="M150.1,16.8h2.7v45.4h-2.5l-0.2-1.9c-0.4,0.9-0.8,1.6-1.4,2c-0.5,0.4-1.2,0.7-1.9,0.7c-1.1,0-1.9-0.5-2.4-1.6
		c-0.5-1.1-0.7-3-0.7-5.6V37c0-2.7,0.2-4.6,0.7-5.6c0.5-1.1,1.3-1.6,2.4-1.6c0.7,0,1.3,0.2,1.9,0.7c0.5,0.5,1,1.1,1.3,2V16.8z
		 M150.1,37.8c0-1.8-0.1-3-0.4-3.8c-0.3-0.7-0.7-1.1-1.4-1.1c-0.7,0-1.1,0.4-1.4,1c-0.3,0.7-0.4,2-0.4,3.8v17c0,1.9,0.1,3.1,0.4,3.8
		c0.3,0.7,0.7,1,1.4,1c0.6,0,1.1-0.4,1.4-1.1c0.3-0.7,0.4-2,0.4-3.8V37.8z"/>
	<path class="st8" d="M179,37.9v24.3h-2.5l-0.2-1.9c-0.4,0.9-0.8,1.5-1.4,2c-0.5,0.5-1.2,0.7-1.9,0.7c-1.1,0-1.9-0.5-2.4-1.6
		c-0.5-1.1-0.7-2.9-0.7-5.6v-6.3c0-2.5,0.5-4.3,1.4-5.3c0.9-1,2.6-1.6,4.9-1.8v-4.5c0-1.9-0.1-3.2-0.4-3.9c-0.2-0.7-0.7-1-1.3-1
		c-0.6,0-1,0.3-1.3,0.9c-0.3,0.6-0.4,1.6-0.4,3.1v1.8h-2.7v-0.9c0-3.2,0.3-5.3,1-6.4c0.7-1.1,1.8-1.7,3.5-1.7c1.6,0,2.8,0.6,3.4,1.7
		C178.7,32.6,179,34.8,179,37.9z M176.3,45.4c-1.4,0.1-2.3,0.4-2.8,1c-0.5,0.6-0.7,1.7-0.7,3.3v5.1c0,1.9,0.1,3.2,0.4,3.8
		c0.3,0.7,0.7,1,1.4,1c0.6,0,1.1-0.4,1.4-1.1c0.3-0.7,0.4-2,0.4-3.8L176.3,45.4z"/>
	<path class="st8" d="M204,37.9v1.8h-2.7v-1.8c0-2-0.1-3.3-0.3-3.9c-0.2-0.6-0.5-1-1-1c-0.5,0-0.8,0.3-1,0.9c-0.2,0.6-0.3,1.6-0.3,3
		v1.3c0,0.7,0.1,1.3,0.3,2c0.2,0.7,0.5,1.3,0.9,2.1l3.2,6.1c0.4,0.7,0.6,1.4,0.8,2.1c0.2,0.7,0.3,1.4,0.3,2.1v3
		c0,2.7-0.3,4.7-0.9,5.8c-0.6,1.1-1.7,1.7-3.2,1.7c-1.6,0-2.6-0.6-3.2-1.7c-0.6-1.1-0.9-3.3-0.9-6.4v-2.7h2.7v2.7c0,2,0.1,3.4,0.3,4
		c0.2,0.6,0.6,0.9,1.1,0.9c0.5,0,0.9-0.3,1.1-0.9c0.2-0.6,0.3-1.7,0.3-3.3v-1.2c0-1.7-0.4-3.4-1.3-5c0-0.1-0.1-0.1-0.1-0.1l-3.1-6
		c-0.3-0.6-0.6-1.3-0.7-1.9c-0.1-0.6-0.2-1.3-0.2-2.1V37c0-2.6,0.3-4.5,0.9-5.6c0.6-1.1,1.6-1.6,3.1-1.6c1.5,0,2.5,0.6,3.1,1.7
		C203.7,32.7,204,34.8,204,37.9z"/>
	<path class="st8" d="M221.1,16.8h2.7V44l3.8-13.4h2.5L226.2,44l4.4,18.2h-2.7l-4.1-17.3v17.3h-2.7V16.8z"/>
	<path class="st8" d="M254.8,38.8V54c0,3.5-0.3,5.9-1,7.1c-0.7,1.3-1.8,1.9-3.5,1.9c-1.7,0-2.8-0.6-3.5-1.9c-0.7-1.3-1-3.7-1-7.1
		V38.8c0-3.5,0.3-5.9,1-7.1c0.6-1.2,1.8-1.9,3.5-1.9c1.7,0,2.8,0.6,3.5,1.9C254.5,33,254.8,35.3,254.8,38.8z M252,37.8
		c0-1.9-0.1-3.1-0.4-3.8c-0.3-0.7-0.7-1-1.3-1c-0.6,0-1.1,0.4-1.4,1.1c-0.3,0.7-0.4,2-0.4,3.8v17c0,1.9,0.1,3.2,0.4,3.9
		c0.3,0.7,0.7,1,1.4,1c0.6,0,1.1-0.4,1.3-1c0.3-0.7,0.4-2,0.4-3.8V37.8z"/>
	<path class="st8" d="M105.3,70.1h0.5h0.5v8.2h-0.5h-0.5V70.1z"/>
	<path class="st8" d="M113.9,78.4c-0.6,0-1-0.2-1.2-0.5c-0.2-0.3-0.4-0.9-0.4-1.7v-1.7c0-0.7,0.1-1.2,0.4-1.6
		c0.3-0.3,0.7-0.5,1.2-0.5c0.6,0,1,0.2,1.2,0.5c0.3,0.3,0.4,0.9,0.4,1.6v1.3h-2.3v0.4c0,0.6,0,0.9,0.1,1.1c0.1,0.2,0.3,0.3,0.6,0.3
		c0.2,0,0.4-0.1,0.5-0.2c0.1-0.1,0.2-0.4,0.2-0.7v-0.2h0.9v0.2c0,0.6-0.1,1-0.4,1.3C114.8,78.3,114.4,78.4,113.9,78.4z M114.5,75
		v-0.5c0-0.5-0.1-0.8-0.2-1c-0.1-0.2-0.3-0.3-0.5-0.3c-0.2,0-0.4,0.1-0.5,0.3c-0.1,0.2-0.2,0.5-0.2,1V75H114.5z"/>
	<path class="st8" d="M121.5,78.4c-0.4,0-0.7-0.1-0.9-0.4c-0.2-0.3-0.3-0.7-0.3-1.2v0c0-0.8,0.2-1.3,0.5-1.6
		c0.3-0.3,0.9-0.4,1.7-0.4h0.1v-0.7c0-0.3-0.1-0.5-0.2-0.6c-0.1-0.1-0.3-0.2-0.5-0.2c-0.2,0-0.4,0.1-0.5,0.2
		c-0.1,0.2-0.2,0.4-0.2,0.7h-0.9c0-0.5,0.1-1,0.4-1.3c0.3-0.3,0.7-0.5,1.1-0.5c0.5,0,0.9,0.1,1.2,0.4c0.2,0.3,0.4,0.7,0.4,1.3v4.1
		h-0.9v-0.6c0,0.1,0,0.1-0.1,0.2C122.4,78.2,122,78.4,121.5,78.4z M122.6,75.6h-0.2c-0.4,0-0.7,0.1-0.9,0.3
		c-0.2,0.2-0.3,0.5-0.3,0.9v0c0,0.3,0,0.5,0.1,0.7c0.1,0.1,0.2,0.2,0.4,0.2c0.3,0,0.5-0.1,0.6-0.4c0.1-0.3,0.2-0.6,0.2-1.1V75.6z"/>
	<path class="st8" d="M129,72.6h0.5h0.5v0.7l0.1-0.2c0.3-0.4,0.6-0.6,1-0.6v1.1c-0.4,0-0.7,0.1-0.9,0.4c-0.2,0.2-0.3,0.7-0.3,1.3
		v3.1h-0.5H129V72.6z"/>
	<path class="st8" d="M136.6,72.6h0.5h0.5v0.5l0,0c0.3-0.4,0.7-0.6,1.1-0.6c0.4,0,0.7,0.1,0.9,0.4c0.2,0.2,0.3,0.6,0.3,1v4.4h-0.4
		h-0.5v-4.1c0-0.3-0.1-0.5-0.2-0.7c-0.1-0.2-0.3-0.2-0.5-0.2c-0.3,0-0.4,0.1-0.6,0.3c-0.1,0.2-0.2,0.5-0.2,0.9v3.8H137h-0.5V72.6z"
		/>
	<path class="st8" d="M145.8,70.1h1v1.1h-1V70.1z M145.8,72.6h0.5h0.5v5.7h-0.5h-0.5V72.6z"/>
	<path class="st8" d="M152.8,72.6h0.5h0.5v0.5l0,0c0.3-0.4,0.7-0.6,1.1-0.6c0.4,0,0.7,0.1,0.9,0.4c0.2,0.2,0.3,0.6,0.3,1v4.4h-0.4
		h-0.4v-4.1c0-0.3-0.1-0.5-0.2-0.7c-0.1-0.2-0.3-0.2-0.5-0.2c-0.3,0-0.4,0.1-0.6,0.3c-0.1,0.2-0.2,0.5-0.2,0.9v3.8h-0.5h-0.5V72.6z"
		/>
	<path class="st8" d="M162.4,79.7c0.3,0,0.5-0.1,0.6-0.2c0.1-0.1,0.2-0.4,0.2-0.7v-1.1l0,0.1c-0.2,0.3-0.5,0.5-1,0.5
		c-0.4,0-0.8-0.2-1-0.5c-0.2-0.3-0.3-0.8-0.3-1.5v-2.1c0-0.6,0.1-1,0.3-1.3c0.2-0.3,0.5-0.4,0.9-0.4c0.4,0,0.8,0.2,1,0.6v-0.4h0.9
		v6.1c0,0.6-0.1,1.1-0.4,1.4c-0.3,0.3-0.7,0.5-1.2,0.5c-0.5,0-0.9-0.1-1.1-0.4c-0.2-0.3-0.4-0.7-0.3-1.3v-0.2h0.8v0.2
		c0,0.3,0,0.5,0.1,0.7C162,79.6,162.2,79.7,162.4,79.7z M162.5,73.3c-0.2,0-0.4,0.1-0.5,0.3c-0.1,0.2-0.2,0.5-0.2,0.8v2
		c0,0.4,0,0.7,0.1,0.9c0.1,0.2,0.3,0.2,0.5,0.2c0.3,0,0.4-0.1,0.5-0.3c0.1-0.2,0.1-0.6,0.1-1.1v-1.3c0-0.6-0.1-0.9-0.1-1.1
		C162.9,73.4,162.8,73.3,162.5,73.3z"/>
	<path class="st8" d="M177.7,72.6h0.5h0.5v0.7l0.1-0.2c0.3-0.4,0.6-0.6,1-0.6v1.1c-0.4,0-0.7,0.1-0.9,0.4c-0.2,0.2-0.3,0.7-0.3,1.3
		v3.1h-0.5h-0.5V72.6z"/>
	<path class="st8" d="M186.9,78.3c-0.6,0-1-0.2-1.2-0.5c-0.2-0.3-0.4-0.9-0.4-1.7v-1.7c0-0.7,0.1-1.2,0.4-1.6
		c0.3-0.3,0.7-0.5,1.2-0.5c0.6,0,1,0.2,1.2,0.5c0.3,0.3,0.4,0.9,0.4,1.6v1.3h-2.3v0.4c0,0.6,0,0.9,0.1,1.1c0.1,0.2,0.3,0.3,0.6,0.3
		c0.2,0,0.4-0.1,0.5-0.2c0.1-0.1,0.2-0.4,0.2-0.7v-0.2h0.9v0.2c0,0.6-0.1,1-0.4,1.3C187.9,78.2,187.5,78.3,186.9,78.3z M187.6,75
		v-0.5c0-0.5-0.1-0.8-0.2-1c-0.1-0.2-0.3-0.3-0.5-0.3c-0.2,0-0.4,0.1-0.5,0.3c-0.1,0.2-0.2,0.5-0.2,1V75H187.6z"/>
	<path class="st8" d="M195.6,74.2V74c0-0.3,0-0.5-0.1-0.6c-0.1-0.1-0.2-0.2-0.4-0.2c-0.2,0-0.3,0-0.4,0.1c-0.1,0.1-0.1,0.2-0.1,0.4
		c0,0.2,0,0.4,0.1,0.5c0.1,0.1,0.3,0.3,0.6,0.6c0.5,0.4,0.9,0.7,1,1c0.2,0.2,0.3,0.5,0.3,0.9c0,0.5-0.1,0.9-0.4,1.2
		c-0.3,0.3-0.6,0.4-1.1,0.4c-0.5,0-0.9-0.1-1.2-0.4c-0.2-0.3-0.4-0.7-0.4-1.2v-0.1v-0.2h0.9v0.2c0,0.3,0,0.5,0.1,0.7
		c0.1,0.1,0.3,0.2,0.5,0.2c0.2,0,0.4-0.1,0.5-0.2c0.1-0.1,0.2-0.3,0.2-0.5c0-0.2-0.1-0.4-0.2-0.5c-0.1-0.2-0.3-0.4-0.7-0.7
		c-0.5-0.4-0.8-0.7-0.9-0.9c-0.2-0.2-0.2-0.5-0.2-0.8c0-0.5,0.1-0.8,0.4-1.1c0.2-0.3,0.6-0.4,1-0.4c0.5,0,0.9,0.1,1.1,0.4
		c0.2,0.2,0.3,0.6,0.3,1.1l0,0.1v0.2H195.6z"/>
	<path class="st8" d="M202.1,77.8c-0.3-0.4-0.4-0.9-0.4-1.7v-1.7c0-0.7,0.1-1.2,0.4-1.5c0.3-0.4,0.7-0.5,1.2-0.5
		c0.6,0,1,0.2,1.2,0.5c0.3,0.3,0.4,0.9,0.4,1.6v1.7c0,0.8-0.1,1.3-0.4,1.7c-0.2,0.3-0.7,0.5-1.2,0.5
		C202.7,78.3,202.3,78.2,202.1,77.8z M203.8,77.2c0.1-0.2,0.2-0.5,0.2-1v-1.7c0-0.5-0.1-0.8-0.2-1.1c-0.1-0.2-0.3-0.3-0.5-0.3
		c-0.2,0-0.4,0.1-0.5,0.3c-0.1,0.2-0.2,0.6-0.2,1v1.7c0,0.5,0,0.9,0.1,1c0.1,0.2,0.3,0.3,0.5,0.3C203.5,77.5,203.7,77.4,203.8,77.2z
		"/>
	<path class="st8" d="M210.8,76.7c0,0.3,0,0.5,0.1,0.6c0.1,0.1,0.2,0.2,0.4,0.2c0.3,0,0.5-0.1,0.6-0.3c0.1-0.2,0.2-0.5,0.2-0.9v-3.8
		h0.5h0.5v5.7h-0.5h-0.5v-0.5l0,0c-0.3,0.4-0.7,0.6-1.1,0.6c-0.4,0-0.7-0.1-0.9-0.4c-0.2-0.2-0.3-0.6-0.3-1v-4.4h0.5h0.5V76.7z"/>
	<path class="st8" d="M218.6,72.5h0.5h0.5v0.7l0.1-0.2c0.3-0.4,0.6-0.6,1-0.6v1.1c-0.4,0-0.7,0.1-0.9,0.4c-0.2,0.2-0.3,0.7-0.3,1.3
		v3.1h-0.5h-0.5V72.5z"/>
	<path class="st8" d="M229.4,76.4v0.2c0,0.6-0.1,1-0.3,1.3c-0.2,0.3-0.6,0.4-1.1,0.4c-0.5,0-0.9-0.2-1.2-0.5
		c-0.3-0.3-0.4-0.8-0.4-1.5v-1.9c0-0.8,0.1-1.3,0.4-1.6c0.2-0.3,0.6-0.5,1.2-0.5c0.5,0,0.9,0.1,1.1,0.4c0.2,0.3,0.3,0.7,0.3,1.2v0.1
		v0.2h-0.9v-0.2c0-0.3,0-0.5-0.1-0.7c-0.1-0.1-0.2-0.2-0.4-0.2c-0.2,0-0.4,0.1-0.5,0.2c-0.1,0.2-0.1,0.4-0.1,0.8v2.1
		c0,0.4,0,0.7,0.1,0.9c0.1,0.2,0.3,0.2,0.5,0.2c0.2,0,0.4-0.1,0.5-0.2c0.1-0.2,0.1-0.4,0.1-0.7v-0.2H229.4z"/>
	<path class="st8" d="M236,78.3c-0.6,0-1-0.2-1.2-0.5c-0.2-0.3-0.4-0.9-0.4-1.7v-1.7c0-0.7,0.1-1.2,0.4-1.6c0.3-0.3,0.7-0.5,1.2-0.5
		c0.6,0,1,0.2,1.2,0.5c0.3,0.3,0.4,0.9,0.4,1.6v1.3h-2.3v0.4c0,0.6,0,0.9,0.1,1.1c0.1,0.2,0.3,0.3,0.6,0.3c0.2,0,0.4-0.1,0.5-0.2
		c0.1-0.1,0.2-0.4,0.2-0.7v-0.2h0.9v0.2c0,0.6-0.1,1-0.4,1.3C237,78.2,236.6,78.3,236,78.3z M236.7,75v-0.5c0-0.5-0.1-0.8-0.1-1
		c-0.1-0.2-0.3-0.3-0.5-0.3c-0.2,0-0.4,0.1-0.5,0.3c-0.1,0.2-0.2,0.5-0.2,1V75H236.7z"/>
	<path class="st8" d="M244.8,74v-0.2c0-0.3,0-0.5-0.1-0.6c-0.1-0.1-0.2-0.2-0.4-0.2c-0.2,0-0.3,0-0.4,0.1c-0.1,0.1-0.1,0.2-0.1,0.4
		c0,0.2,0,0.4,0.1,0.5c0.1,0.1,0.3,0.3,0.6,0.6c0.5,0.4,0.9,0.7,1,1c0.2,0.2,0.3,0.5,0.3,0.9c0,0.5-0.1,0.9-0.4,1.2
		c-0.3,0.3-0.6,0.4-1.1,0.4c-0.5,0-0.9-0.1-1.2-0.4c-0.2-0.3-0.4-0.7-0.4-1.2v-0.1v-0.2h0.9v0.2c0,0.3,0,0.5,0.1,0.7
		c0.1,0.1,0.3,0.2,0.5,0.2c0.2,0,0.4-0.1,0.5-0.2c0.1-0.1,0.2-0.3,0.2-0.5c0-0.2-0.1-0.4-0.2-0.5c-0.1-0.2-0.3-0.4-0.7-0.7
		c-0.5-0.4-0.8-0.7-0.9-0.9c-0.2-0.2-0.2-0.5-0.2-0.8c0-0.5,0.1-0.8,0.4-1.1c0.2-0.3,0.6-0.4,1-0.4c0.5,0,0.9,0.1,1.1,0.4
		c0.2,0.2,0.3,0.6,0.3,1.1l0,0.1V74H244.8z"/>
</g>
</svg>
