<?xml version="1.0" encoding="UTF-8" standalone="no"?><!DOCTYPE svg PUBLIC "-//W3C//DTD SVG 1.1//EN" "http://www.w3.org/Graphics/SVG/1.1/DTD/svg11.dtd"><svg width="100%" height="100%" viewBox="0 0 2500 2481" version="1.1" xmlns="http://www.w3.org/2000/svg" xmlns:xlink="http://www.w3.org/1999/xlink" xml:space="preserve" xmlns:serif="http://www.serif.com/" style="fill-rule:evenodd;clip-rule:evenodd;stroke-linejoin:round;stroke-miterlimit:2;"><rect id="Artboard1" x="0" y="0" width="2500" height="2480.77" style="fill:none;"/><clipPath id="_clip1"><rect id="Artboard11" serif:id="Artboard1" x="0" y="0" width="2500" height="2480.77"/></clipPath><g clip-path="url(#_clip1)"><rect x="-0" y="-9.615" width="2500" height="2500" style="fill:#fff;fill-rule:nonzero;"/><path d="M880.386,1591.76c18.652,-0.321 32.207,14.419 32.207,32.206l1.366,247.566c-0,5.795 3.451,9.513 7.937,9.625c6.073,0.154 8.372,-3.807 8.664,-9.625c0,0 16.645,-266.756 21.281,-355.625c0.894,-17.135 17.329,-31.035 38.518,-30.59c17.957,0.378 32.451,14.693 32.204,32.652l-1.54,315.948c-0.09,6.492 2.611,12.684 8.201,12.773c5.915,0.094 9.646,-4.835 9.954,-11.031c4.456,-89.807 19.671,-352.332 19.671,-352.332c1.716,-27.551 14.311,-42.1 44.99,-42.103c24.62,-0.004 38.182,18.212 37.74,36.303c-0,0 -6.201,273.333 -8.364,364.442c-0.107,4.53 2.959,8.373 7.49,8.433c3.981,0.053 7.014,-3.311 7.246,-7.593c4.323,-80.01 17.418,-315.037 17.418,-315.037c1.886,-26.112 15.402,-41.892 41.43,-41.407c22.846,0.426 35.789,20.655 35.467,38.664c-1.788,100.415 -1.761,397.996 0.718,420.303c2.984,26.86 8.455,56.205 40.289,61.18c31.832,4.974 47.792,-15.607 66.828,-42.701c27.594,-39.277 45.45,-67.151 78.279,-77.1c32.828,-9.947 58.691,-2.984 66.65,6.964c7.958,9.947 0,27.854 -2.985,32.827c-2.984,4.974 -89.025,129.82 -120.859,172.597c-35.58,47.811 -69.915,96.575 -107.086,143.185c-33.815,42.401 -72.919,84.966 -124.79,105.819c-57.375,23.063 -125.035,18.702 -180.61,-7.372c-20.524,-9.628 -39.626,-22.246 -56.507,-37.379c-36.314,-32.55 -57.867,-71.863 -70.173,-118.305c-25.327,-95.572 -10.444,-241.061 -1.05,-358.57c5.474,-68.48 11.299,-136.933 17.336,-205.366c1.468,-16.626 13.632,-29.035 32.08,-29.351Z" style="fill:#a9cf3a;fill-rule:nonzero;"/><path d="M1619.61,889.01c-18.652,0.32 -32.207,-14.419 -32.207,-32.205l-1.367,-247.566c-0,-5.796 -3.45,-9.513 -7.936,-9.626c-6.073,-0.153 -8.372,3.808 -8.664,9.626c-0,-0 -16.645,266.755 -21.281,355.622c-0.894,17.137 -17.329,31.035 -38.518,30.59c-17.957,-0.376 -32.451,-14.691 -32.204,-32.65l1.54,-315.947c0.089,-6.491 -2.611,-12.684 -8.201,-12.773c-5.915,-0.095 -9.646,4.834 -9.954,11.032c-4.457,89.806 -19.671,352.328 -19.671,352.328c-1.716,27.553 -14.312,42.1 -44.99,42.105c-24.62,0.004 -38.184,-18.213 -37.74,-36.303c0,-0 6.201,-273.332 8.364,-364.44c0.107,-4.532 -2.959,-8.375 -7.49,-8.435c-3.981,-0.053 -7.014,3.312 -7.246,7.595c-4.323,80.01 -17.418,315.035 -17.418,315.035c-1.887,26.112 -15.402,41.891 -41.43,41.406c-22.846,-0.425 -35.789,-20.654 -35.467,-38.663c1.788,-100.415 1.761,-397.996 -0.718,-420.303c-2.984,-26.859 -8.455,-56.205 -40.289,-61.179c-31.832,-4.974 -47.792,15.606 -66.828,42.701c-27.594,39.278 -45.45,67.151 -78.279,77.099c-32.828,9.949 -58.691,2.985 -66.65,-6.964c-7.959,-9.947 -0,-27.854 2.984,-32.827c2.985,-4.974 89.026,-129.82 120.86,-172.597c35.58,-47.811 69.915,-96.575 107.086,-143.183c33.815,-42.402 72.917,-84.968 124.79,-105.819c57.375,-23.064 125.035,-18.704 180.61,7.37c20.524,9.629 39.626,22.246 56.507,37.379c36.314,32.551 57.865,71.865 70.173,118.305c25.326,95.573 10.444,241.062 1.05,358.57c-5.474,68.481 -11.299,136.933 -17.336,205.367c-1.468,16.624 -13.632,29.034 -32.08,29.35Z" style="fill:#fcbc26;fill-rule:nonzero;"/><path d="M1139.21,742.586c-9.332,16.152 -28.949,20.178 -44.194,11.015l-212.901,-126.351c-4.967,-2.985 -9.931,-1.942 -12.339,1.845c-3.258,5.126 -1.047,9.138 3.788,12.384c-0,-0 220.071,151.674 293.854,201.425c14.227,9.592 17.675,30.837 6.38,48.77c-9.574,15.197 -29.309,20.247 -44.575,10.784l-270.015,-164.064c-5.518,-3.421 -12.217,-4.296 -15.173,0.45c-3.127,5.021 -0.825,10.757 4.329,14.214c74.68,50.078 291.86,198.345 291.86,198.345c22.731,15.663 28.712,33.953 12.914,60.251c-12.679,21.105 -35.279,23.346 -50.557,13.647c0,0 -231.087,-146.11 -308.065,-194.891c-3.828,-2.426 -8.702,-1.779 -11.087,2.075c-2.096,3.385 -0.775,7.718 2.777,10.123c66.352,44.917 261.054,177.203 261.054,177.203c21.41,15.068 27.973,34.782 14.151,56.839c-12.133,19.364 -36.138,20.038 -51.408,10.486c-85.148,-53.258 -340.228,-206.52 -360.624,-215.886c-24.559,-11.275 -52.531,-21.702 -73.191,3.02c-20.66,24.723 -11.242,49.004 2.176,79.276c19.452,43.884 34.146,73.547 25.762,106.809c-8.382,33.261 -27.673,51.844 -40.3,53.541c-12.626,1.697 -23.873,-14.348 -26.6,-19.468c-2.726,-5.12 -65.415,-143.177 -85.682,-192.497c-22.653,-55.123 -46.764,-109.671 -67.568,-165.54c-18.925,-50.825 -35.266,-106.267 -26.42,-161.468c9.785,-61.059 48.375,-116.805 99.35,-151.01c18.825,-12.632 39.48,-22.505 61.147,-29.18c46.605,-14.359 91.402,-12.58 137.547,0.792c94.964,27.521 212,115.22 307.881,183.8c55.877,39.968 111.549,80.22 167.095,120.645c13.495,9.821 17.865,26.64 8.634,42.616Z" style="fill:#d96fab;fill-rule:nonzero;"/><path d="M1360.78,1738.18c9.332,-16.151 28.949,-20.178 44.194,-11.015l212.901,126.35c4.967,2.985 9.931,1.942 12.339,-1.844c3.258,-5.127 1.047,-9.137 -3.789,-12.385c0.001,0 -220.07,-151.672 -293.854,-201.424c-14.226,-9.592 -17.674,-30.838 -6.379,-48.771c9.573,-15.197 29.309,-20.247 44.575,-10.784l270.015,164.065c5.518,3.42 12.217,4.295 15.173,-0.45c3.127,-5.021 0.824,-10.758 -4.329,-14.213c-74.68,-50.08 -291.86,-198.348 -291.86,-198.348c-22.731,-15.664 -28.712,-33.952 -12.915,-60.25c12.68,-21.105 35.28,-23.346 50.558,-13.647c-0,-0 231.087,146.108 308.065,194.892c3.828,2.426 8.701,1.778 11.087,-2.075c2.096,-3.385 0.774,-7.717 -2.777,-10.122c-66.352,-44.919 -261.054,-177.207 -261.054,-177.207c-21.41,-15.067 -27.974,-34.78 -14.151,-56.838c12.133,-19.363 36.138,-20.037 51.408,-10.485c85.148,53.258 340.228,206.518 360.625,215.885c24.559,11.277 52.53,21.703 73.192,-3.019c20.66,-24.723 11.241,-49.004 -2.178,-79.276c-19.451,-43.884 -34.145,-73.548 -25.762,-106.809c8.383,-33.261 27.675,-51.844 40.301,-53.541c12.625,-1.698 23.874,14.347 26.6,19.467c2.726,5.12 65.415,143.178 85.682,192.496c22.653,55.125 46.764,109.674 67.567,165.543c18.926,50.824 35.267,106.266 26.421,161.467c-9.786,61.059 -48.375,116.805 -99.351,151.01c-18.824,12.632 -39.479,22.507 -61.145,29.18c-46.605,14.359 -91.404,12.582 -137.549,-0.792c-94.964,-27.521 -212,-115.219 -307.881,-183.8c-55.877,-39.966 -111.549,-80.219 -167.095,-120.644c-13.495,-9.822 -17.865,-26.64 -8.634,-42.616Z" style="fill:#49c5f3;fill-rule:nonzero;"/><path d="M757.628,1107.54c9.977,15.762 4.442,35.006 -10.749,44.26l-210.711,129.966c-4.949,3.015 -6.329,7.896 -4.092,11.786c3.029,5.266 7.608,5.168 12.728,2.391c-0,0 236.471,-124.567 314.777,-166.842c15.099,-8.151 35.519,-1.348 46.164,16.979c9.02,15.532 4.336,35.357 -11.13,44.49l-270.622,163.06c-5.59,3.3 -9.474,8.828 -6.642,13.648c2.997,5.102 9.148,5.723 14.6,2.762c79.013,-42.917 311.125,-166.505 311.125,-166.505c24.423,-12.868 43.4,-9.68 59.364,16.517c12.813,21.024 4.311,42.084 -11.369,51.118c0,-0 -236.655,136.908 -315.586,182.462c-3.925,2.265 -5.612,6.883 -3.306,10.784c2.027,3.427 6.477,4.267 10.256,2.236c70.578,-37.934 278.104,-149.025 278.104,-149.025c23.281,-11.974 43.79,-8.641 56.916,13.839c11.523,19.732 0.98,41.31 -14.566,50.405c-86.686,50.714 -340.808,205.557 -358.569,219.28c-21.385,16.522 -43.601,36.462 -31.287,66.236c12.313,29.773 38.193,32.696 71.236,34.856c47.897,3.132 80.992,3.879 106.567,26.739c25.574,22.86 33.084,48.571 28.729,60.543c-4.356,11.972 -23.787,14.491 -29.589,14.531c-5.8,0.039 -157.182,-8.489 -210.275,-13.42c-59.342,-5.513 -118.85,-9.465 -177.993,-16.96c-53.804,-6.819 -110.499,-18.068 -155.293,-51.519c-49.548,-37 -81.024,-97.05 -87.67,-158.076c-2.455,-22.536 -1.618,-45.415 2.523,-67.705c8.906,-47.946 31.267,-86.805 64.526,-121.478c68.442,-71.351 200.435,-134.333 305.675,-187.446c61.331,-30.952 122.82,-61.591 184.404,-92.037c14.961,-7.398 31.887,-3.465 41.755,12.125Z" style="fill:#f58d22;fill-rule:nonzero;"/><path d="M1742.37,1373.23c-9.976,-15.762 -4.441,-35.006 10.749,-44.261l210.714,-129.966c4.948,-3.015 6.328,-7.895 4.09,-11.785c-3.029,-5.266 -7.608,-5.169 -12.728,-2.391c0,-0 -236.471,124.567 -314.777,166.842c-15.099,8.151 -35.519,1.348 -46.164,-16.98c-9.02,-15.531 -4.336,-35.357 11.13,-44.489l270.624,-163.06c5.59,-3.301 9.473,-8.828 6.641,-13.648c-2.998,-5.102 -9.148,-5.723 -14.6,-2.762c-79.014,42.917 -311.126,166.504 -311.126,166.504c-24.424,12.869 -43.4,9.68 -59.364,-16.516c-12.813,-21.025 -4.311,-42.085 11.369,-51.118c-0,0 236.653,-136.908 315.586,-182.462c3.925,-2.265 5.612,-6.883 3.306,-10.784c-2.026,-3.427 -6.477,-4.267 -10.255,-2.237c-70.579,37.933 -278.106,149.026 -278.106,149.026c-23.281,11.974 -43.789,8.64 -56.915,-13.839c-11.523,-19.732 -0.981,-41.31 14.566,-50.405c86.686,-50.715 340.809,-205.557 358.57,-219.28c21.385,-16.521 43.6,-36.461 31.286,-66.235c-12.313,-29.774 -38.192,-32.696 -71.235,-34.856c-47.898,-3.133 -80.993,-3.88 -106.568,-26.739c-25.574,-22.86 -33.084,-48.571 -28.729,-60.544c4.355,-11.971 23.787,-14.491 29.589,-14.53c5.8,-0.038 157.182,8.489 210.276,13.42c59.342,5.512 118.85,9.464 177.994,16.959c53.803,6.819 110.498,18.069 155.292,51.519c49.548,37 81.024,97.05 87.67,158.076c2.455,22.536 1.618,45.415 -2.522,67.705c-8.907,47.946 -31.269,86.805 -64.527,121.476c-68.443,71.353 -200.435,134.335 -305.675,187.448c-61.331,30.952 -122.821,61.591 -184.403,92.037c-14.963,7.398 -31.889,3.465 -41.758,-12.125Z" style="fill:#85cdbd;fill-rule:nonzero;"/><path d="M1848.27,972.465c0.974,-6.241 21.009,-8.645 30.344,-16.617c13.69,-11.692 40.186,-100.155 43.531,-106.938c4.269,-8.689 14.294,-24.167 20.883,-31.06c9.713,-10.147 28.816,-38.441 32.637,-12.551c0.295,6.934 -5.804,10.687 -11.962,18.895c-10.279,13.682 -22.818,30.292 -21.224,35.792c8.794,-9.245 32.819,-39.31 49.695,-41.098c13.757,-1.468 53.021,-16.5 47.386,5.753c-3.542,13.995 -24.986,11.692 -35.674,15.555c-12.733,4.607 -44.325,30.359 -42.157,35.623c9.511,-2.818 31.022,-17.021 37.99,-17.95c10.089,-1.349 24.265,-1.931 41.065,5.61c1.737,0.785 4.285,5.415 7.726,9.936c5.198,6.841 13.898,10.663 8.193,20.481c-4.797,8.259 -15.552,3.012 -24.068,-6.841c-6.331,-7.339 -29.98,-8.132 -25.147,-8.03c3.126,0.066 -11.404,1.594 -24.809,11.388c-8.486,6.192 -13.475,8.005 -14.42,18.381c12.324,-2.995 26.015,-7.069 39.562,-8.334c3.687,-0.346 39.813,15.461 41.715,26.868c0.821,4.875 11.645,45.298 -14.881,27.575c-7.394,-4.943 -4.77,-13.825 -9.747,-19.68c-2.324,-2.733 -17.12,-6.698 -20.887,-7.997c-2.851,-0.987 -20.136,6.993 -37.103,15.968c-2.557,6.251 -4.425,15.725 -5.69,24.439c5.04,7.195 11.472,16.718 20.156,24.723c19.532,-2.158 37.395,-3.356 40.871,-7.582c4.273,-5.189 10.869,-22.043 18.326,-23.089c7.968,-1.114 13.274,5.221 13.067,12.501c-0.345,11.997 -10.645,31.542 -21.654,37.413c-7.234,3.862 -66.823,26.917 -99.663,24.125c-19.342,-1.644 -34.223,1.822 -48.551,16.804c-21.527,-17.748 -37.357,-68.337 -35.51,-80.063Zm383.353,-91.407c-14.332,14.981 -29.213,18.448 -48.56,16.812c-32.832,-2.801 -92.42,20.254 -99.663,24.116c-11.004,5.882 -21.299,25.427 -21.649,37.413c-0.207,7.28 5.103,13.615 13.066,12.51c7.462,-1.046 14.054,-17.9 18.331,-23.096c3.475,-4.227 21.333,-5.417 40.871,-7.575c8.675,8.005 15.112,17.52 20.152,24.716c-1.265,8.714 -3.133,18.187 -5.69,24.437c-16.965,8.984 -34.252,16.965 -37.112,15.978c-3.763,-1.299 -18.55,-5.273 -20.874,-8.005c-4.981,-5.846 -2.354,-14.729 -9.751,-19.673c-26.532,-17.723 -15.704,22.7 -14.881,27.568c1.907,11.405 38.027,27.212 41.706,26.867c13.551,-1.265 27.251,-5.34 39.571,-8.333c-0.941,10.375 -5.935,12.188 -14.429,18.388c-13.403,9.794 -27.931,11.313 -24.81,11.38c4.846,0.109 -18.806,-0.691 -25.137,-8.022c-8.513,-9.861 -19.271,-15.108 -24.071,-6.841c-5.698,9.81 2.998,13.64 8.194,20.481c3.447,4.522 5.994,9.154 7.728,9.937c16.795,7.534 30.975,6.952 41.064,5.61c6.969,-0.936 28.475,-15.133 37.982,-17.951c2.177,5.264 -29.415,31.01 -42.157,35.615c-10.679,3.864 -32.123,1.561 -35.67,15.556c-5.628,22.253 33.629,7.22 47.386,5.762c16.88,-1.798 40.896,-31.854 49.703,-41.107c1.591,5.508 -10.944,22.118 -21.223,35.8c-6.171,8.199 -12.257,11.954 -11.962,18.897c3.808,25.888 22.92,-2.405 32.628,-12.553c6.593,-6.901 16.615,-22.371 20.892,-31.06c3.341,-6.782 29.836,-95.246 43.523,-106.947c9.343,-7.963 29.369,-10.375 30.352,-16.609c1.835,-11.735 -13.987,-62.323 -35.51,-80.071Z" style="fill:#fff;fill-rule:nonzero;"/><path d="M1618.11,483.61l-53.029,-109.586c-0.384,-1.096 -1.889,-3.786 -1.913,-3.763c-2.913,-4.138 -7.692,-6.851 -13.136,-6.851c-0.024,0 -0.049,0.008 -0.076,0.008l0.004,-0.033l-73.317,7.036l-5.398,-32.315c-0,0 61.257,-5.972 61.428,-5.996c10.779,-1.336 14.285,-6.299 14.533,-14.271c0.265,-8.141 -6.043,-14.945 -14.076,-15.218l-66.837,5.812l-7.296,-43.772c-3.046,-18.242 -20.136,-30.545 -38.135,-27.447c-18.022,3.09 -30.159,20.38 -27.109,38.622l18.344,109.939c5.895,19.749 19.111,26.016 48.281,23.91l77.13,-7.396l47.337,97.835c3.215,6.645 9.798,10.511 16.65,10.511c2.733,0 5.507,-0.616 8.132,-1.922c9.188,-4.547 12.973,-15.793 8.483,-25.103Z" style="fill:#fff;fill-rule:nonzero;"/><path d="M1452.66,529.966c-57.39,0 -104.079,-47.292 -104.079,-105.4c0,-36.181 18.075,-68.137 45.555,-87.116l-5.206,-31.291c-41.345,22.926 -69.466,67.385 -69.466,118.407c-0,74.374 59.752,134.89 133.196,134.89c49.643,0 93.016,-27.665 115.918,-68.586l-16.69,-34.669c-13.297,42.69 -52.732,73.765 -99.228,73.765Z" style="fill:#fff;fill-rule:nonzero;"/><path d="M1145.95,2167.43c26.096,26.098 52.128,52.129 78.04,78.041c-5.858,5.858 -11.644,11.646 -17.309,17.312c-107.001,-107.001 -214.194,-214.195 -321.308,-321.308c5.624,-5.625 11.417,-11.416 17.452,-17.452c0.247,0.343 0.505,0.832 0.877,1.205c27.021,27.038 54.056,54.063 81.063,81.116c0.75,0.751 1.311,0.877 2.316,0.514c11.887,-4.314 24.07,-7.545 36.544,-9.628c12.06,-2.014 24.221,-2.974 36.437,-2.46c7.026,0.296 14.066,0.899 21.033,1.858c28.948,3.987 55.728,14.231 81.028,28.6c17.542,9.961 33.828,21.688 49.077,34.89c11.748,10.171 22.686,21.122 32.55,33.137c0.282,0.344 0.555,0.695 0.915,1.148c-29.145,29.443 -62.012,53.776 -98.715,73.027Zm-27.524,-27.775c0.374,-0.4 0.844,-0.861 1.264,-1.364c1.295,-1.548 2.637,-3.063 3.843,-4.68c9.398,-12.593 15.167,-26.642 16.99,-42.296c1.073,-9.206 0.69,-18.336 -1.195,-27.392c-2.011,-9.664 -5.643,-18.709 -10.757,-27.153c-0.236,-0.389 -0.638,-0.779 -1.053,-0.944c-5.493,-2.192 -10.936,-4.543 -16.525,-6.467c-14.832,-5.106 -30.04,-8.474 -45.74,-9.525c-8.745,-0.585 -17.467,-0.464 -26.173,0.382c-9.098,0.884 -18.082,2.47 -26.907,4.89c-2.187,0.599 -4.377,1.185 -6.366,1.724c8.538,8.538 17.029,17.03 25.534,25.535c14.724,-11.83 34.407,-10.247 47.082,0.493c7.227,6.123 11.623,13.915 12.91,23.327c1.459,10.664 -1.391,20.191 -7.911,28.465c11.705,11.706 23.33,23.33 35.004,35.005Zm44.125,-84.622c6.989,28.423 2.927,55.292 -11.09,81.11c21.079,-12.63 40.431,-27.008 58.609,-42.993c-6.42,-7.9 -41.379,-35.986 -47.519,-38.117Zm-113.27,15.253c5.454,5.454 10.901,10.903 16.32,16.32c2.475,-3.88 1.461,-10.456 -2.36,-14.092c-4.065,-3.869 -9.884,-4.656 -13.96,-2.228Z" style="fill:#fff;fill-rule:nonzero;"/><path d="M864.568,2094.34c15.716,-20.64 53.558,-53.351 74.522,-64.313c0.171,0.278 0.346,0.733 0.661,1.05c9.929,9.955 19.867,19.901 29.825,29.826c0.645,0.641 0.879,1.185 0.667,2.131c-1.737,7.708 -2.55,15.494 -2.054,23.414c0.664,10.584 3.056,20.734 7.469,30.369c8.811,19.242 22.781,33.482 41.848,42.666c7.943,3.825 16.32,6.274 25.07,7.441c7.559,1.009 15.125,0.979 22.688,0.183c2.65,-0.279 5.261,-0.921 7.901,-1.327c0.491,-0.075 1.211,0.017 1.529,0.332c6.856,6.788 13.67,13.618 20.489,20.443c0.055,0.055 0.08,0.139 0.205,0.364c-2.05,0.496 -4.049,1.018 -6.064,1.463c-8.406,1.855 -16.905,3.033 -25.485,3.8c-8.681,0.775 -17.278,0.2 -25.894,-0.747c-19.289,-2.117 -37.661,-7.591 -55.499,-15.031c-19.29,-8.045 -37.435,-18.21 -54.748,-29.869c-22.557,-15.187 -43.663,-32.151 -62.652,-51.673c-0.142,-0.147 -0.276,-0.3 -0.478,-0.522Zm93.12,41.744c-14.028,-25.904 -18.094,-52.822 -10.957,-81.477c-17.361,11.282 -33.148,24.025 -47.716,38.45c18.286,16.07 37.649,30.408 58.673,43.027Z" style="fill:#fff;fill-rule:nonzero;"/><path d="M545.178,623.139c5.792,0.596 11.142,1.076 16.471,1.735c1.666,0.206 3.355,0.707 4.895,1.389c24.199,10.69 48.326,21.538 72.576,32.111c10.819,4.716 15.824,12.762 15.786,24.386c-0.068,21.28 0.023,42.56 -0.032,63.84c-0.043,15.728 -10.224,25.944 -25.929,25.969c-32.402,0.052 -64.806,-0.026 -97.21,0.049c-7.062,0.017 -12.876,-2.257 -18.279,-6.958c-23.792,-20.705 -47.815,-41.145 -71.752,-61.684c-1.476,-1.267 -2.934,-2.558 -4.649,-4.055c4.49,-4.616 8.632,-9.276 13.206,-13.465c4.744,-4.346 11.322,-4.803 16.974,-1.771c14.193,7.615 28.378,15.243 42.57,22.858c1.054,0.566 2.139,1.073 3.9,1.952l0,-4.609c0,-49.897 -0.052,-99.796 0.112,-149.693c0.012,-3.499 0.962,-7.358 2.637,-10.412c3.349,-6.108 10.73,-8.557 17.46,-6.647c6.669,1.892 11.24,7.891 11.251,14.994c0.034,21.891 0.013,43.782 0.013,65.675l-0,4.336Z" style="fill:#fff;fill-rule:nonzero;"/><path d="M709.714,662.854c-13.134,0.027 -23.576,-10.255 -23.618,-23.254c-0.042,-13.334 10.259,-23.72 23.519,-23.712c13.075,0.007 23.428,10.356 23.438,23.428c0.01,13.104 -10.309,23.512 -23.339,23.538Z" style="fill:#fff;fill-rule:nonzero;"/><path d="M654.809,561.5c-0.335,13.136 -11.029,23.443 -23.966,23.096c-13.099,-0.351 -23.45,-11.055 -23.183,-23.971c0.268,-12.856 11.269,-23.459 24.063,-23.187c12.948,0.275 23.412,11.182 23.086,24.062Z" style="fill:#fff;fill-rule:nonzero;"/><path d="M686.096,482.908c-0.026,-13.144 10.255,-23.564 23.353,-23.667c13.02,-0.103 23.584,10.38 23.604,23.42c0.02,13.075 -10.398,23.672 -23.357,23.755c-12.907,0.083 -23.575,-10.542 -23.6,-23.508Z" style="fill:#fff;fill-rule:nonzero;"/><path d="M686.096,560.94c0.025,-12.979 10.668,-23.58 23.597,-23.506c12.962,0.074 23.38,10.664 23.36,23.745c-0.02,13.036 -10.589,23.53 -23.6,23.431c-13.079,-0.1 -23.382,-10.54 -23.357,-23.67Z" style="fill:#fff;fill-rule:nonzero;"/><path d="M542.544,1642.13c-5.917,5.733 -11.841,11.475 -17.704,17.155c-26.906,-26.925 -54.17,-54.207 -81.576,-81.632c-10.123,7.267 -18.278,15.152 -22.081,26.715c-3.173,9.647 -6.869,19.096 -12.655,27.522c-9.865,14.365 -22.698,24.335 -40.337,27.518c-28.438,5.133 -57.977,-14.49 -64.126,-42.989c-0.876,-4.058 -1.204,-8.233 -1.83,-12.663l28.676,0c0.345,7.305 2.729,13.778 7.813,19.103c11.854,12.412 31.003,11.57 42.582,-1.879c5.044,-5.857 8.565,-12.641 10.781,-19.939c5.238,-17.242 14.644,-31.462 29.16,-42.23c0.427,-0.315 0.746,-0.773 0.449,-0.46c-30.097,-30.285 -60.081,-60.455 -90.436,-90.998l0,8.753l-29.006,0c0.629,-6.03 1.03,-12.022 1.946,-17.935c0.636,-4.108 1.839,-8.151 3.066,-12.138c0.63,-2.045 0.366,-3.333 -1.209,-4.88c-9.683,-9.515 -19.238,-19.164 -28.85,-28.753c-0.857,-0.855 -1.817,-1.605 -2.332,-2.056c6.128,-6.268 12.014,-12.29 17.76,-18.166c83.015,83.028 166.355,166.383 249.909,249.952Z" style="fill:#fff;fill-rule:nonzero;"/><path d="M479.665,1542.18c-7.467,-7.32 -14.221,-13.942 -20.587,-20.182c3.252,-7.935 6.992,-15.467 9.478,-23.392c12.043,-38.395 -7.633,-77.65 -45.001,-89.373c-22.444,-7.041 -43.759,-3.932 -63.319,9.524c-0.811,0.559 -1.607,1.141 -2.09,1.484c-6.817,-6.716 -13.543,-13.345 -20.421,-20.12c8.119,-6.945 17.389,-12.338 27.564,-16.185c44.873,-16.971 98.304,-1.221 122.936,43.942c15.615,28.629 16.085,58.372 4.22,88.358c-3.504,8.856 -8.406,17.16 -12.78,25.944Z" style="fill:#fff;fill-rule:nonzero;"/><path d="M517.443,1579.81c-6.734,-6.573 -13.355,-13.038 -20.124,-19.645c21.355,-25.385 32.21,-54.605 31.182,-87.885c-1.028,-33.324 -13.623,-61.808 -36.643,-85.43c6.671,-6.715 13.321,-13.407 19.971,-20.1c58.94,58.38 59.799,153.863 5.614,213.06Z" style="fill:#fff;fill-rule:nonzero;"/><path d="M431.853,1494.22c-16.124,-16.109 -32.172,-32.142 -48.194,-48.15c10.885,-8.452 30.732,-6.372 42.297,4.629c12.114,11.524 14.666,30.981 5.897,43.521Z" style="fill:#fff;fill-rule:nonzero;"/><path d="M1837.55,2018.67c0,0 -0.347,-15.165 -0.74,-27.151c-0.264,-8.062 -2.645,-10.055 -10.245,-9.929c-11.189,0.187 -18.474,0.008 -30.352,0.25c-7.303,0.35 -9.949,-2.542 -10.368,-9.642c-0.842,-14.289 -2.569,-28.523 -3.535,-42.806c-0.449,-6.63 -2.996,-9.489 -9.941,-8.95c-6.986,0.541 -14.048,0.126 -21.076,0.096c-6.282,-0.028 -8.037,-2.971 -5.525,-8.654c3.626,-8.204 7.596,-16.277 10.766,-24.655c8.156,-21.56 18.749,-41.657 21.842,-65.684c10.677,-82.922 96.313,-136.617 176.302,-114.541c54.556,15.058 87.076,50.288 98.658,105.499c11.793,56.216 -6.518,103.534 -51.463,139.851c-4.832,3.904 -7.115,7.775 -6.96,14.114c0.421,17.119 0.143,34.254 0.143,52.202l-157.506,0Zm100.295,-288.023c-51.609,-9.992 -102.024,16.102 -122.357,63.33c-14.887,34.575 -2.844,56.88 34.46,63.063c13.818,2.292 28.082,2.387 41.65,5.579c18.155,4.27 33.77,13.115 38.336,33.419c1.149,5.104 0.629,10.605 0.694,15.925c0.156,12.792 6.902,21.157 19.338,23.802c10.462,2.225 23.592,-3.195 25.732,-14.041c4.175,-21.167 16.177,-33.676 35.028,-42.634c11.331,-5.383 13.354,-18.031 14.668,-29.69c0.439,-3.886 0.07,-7.862 0.07,-11.796c0.057,-51.942 -37.121,-97.18 -87.619,-106.957Z" style="fill:#fff;fill-rule:nonzero;"/><path d="M1875.19,1785.84l22.353,0c2.912,0 5.274,-2.361 5.274,-5.274l-0,-22.351c-0,-2.912 2.361,-5.274 5.273,-5.274l20.825,0c2.913,0 5.274,2.362 5.274,5.274l0,22.351c0,2.913 2.361,5.274 5.274,5.274l22.352,0c2.913,0 5.273,2.361 5.273,5.274l-0,20.826c-0,2.913 -2.36,5.273 -5.273,5.273l-22.352,-0c-2.913,-0 -5.274,2.361 -5.274,5.273l0,22.353c0,2.912 -2.361,5.274 -5.274,5.274l-20.825,-0c-2.912,-0 -5.273,-2.362 -5.273,-5.274l-0,-22.353c-0,-2.912 -2.362,-5.273 -5.274,-5.273l-22.353,-0c-2.912,-0 -5.272,-2.36 -5.272,-5.273l-0,-20.826c-0,-2.913 2.36,-5.274 5.272,-5.274Z" style="fill:#fff;fill-rule:nonzero;"/></g></svg>