<?xml version="1.0" encoding="utf-8"?>
<!-- Generator: Adobe Illustrator 24.1.0, SVG Export Plug-In . SVG Version: 6.00 Build 0)  -->
<svg version="1.1" id="Layer_1" xmlns="http://www.w3.org/2000/svg" xmlns:xlink="http://www.w3.org/1999/xlink" x="0px" y="0px"
	 viewBox="0 0 23.3 33.1" style="enable-background:new 0 0 23.3 33.1;" xml:space="preserve">
<style type="text/css">
	.st0{fill:#FFFFFF;}
</style>
<g>
	<g>
		<g>
			<polygon class="st0" points="17.9,26 15.7,27.1 14.4,26.1 10.3,23.1 8.8,24.8 6.6,27.2 4.8,26 1.1,29.2 0,30.1 22.7,30.1 
				21.6,29.2 			"/>
		</g>
		<g>
			<path class="st0" d="M10.3,21.5L15,25c0.2-0.2,0.3-0.4,0.5-0.6c1.3-2,2.8-5.1,2.8-5.1L14,18.2l-3.7-2.5c0,0-1.4,3.2-1.9,5.5
				c-0.2,0.9-0.1,1.6,0.1,2.3L10.3,21.5z"/>
		</g>
		<g>
			<path class="st0" d="M14.4,17.3l0.9,0.1l3.8-8.6c1.2,0.3,2.6,0.3,3.3-1.1l0.9-1.9l-6.2-2.8L16.2,5c-0.6,1.3,0.3,2.4,1.4,3.1
				l-3.8,8.6L14.4,17.3z M17.6,5.1l3.8,1.7C21,7.6,20.5,8,18.9,7.3C17.3,6.6,17.3,5.9,17.6,5.1z"/>
		</g>
	</g>
</g>
</svg>
