<?xml version="1.0" encoding="utf-8"?>
<!-- Generator: Adobe Illustrator 24.1.0, SVG Export Plug-In . SVG Version: 6.00 Build 0)  -->
<svg version="1.1" id="Layer_1" xmlns="http://www.w3.org/2000/svg" xmlns:xlink="http://www.w3.org/1999/xlink" x="0px" y="0px"
	 viewBox="0 0 32.99 32.84" enable-background="new 0 0 32.99 32.84" xml:space="preserve">
<g>
	<g>
		<g>
			<path fill="#FFFFFF" d="M25.73,23.97c0.16,0.08,0.28,0.17,0.36,0.25c0.26-0.88,0.39-1.8,0.39-2.75v-0.01
				c-0.08-0.08-0.19-0.15-0.33-0.21C26.14,22.18,25.98,23.1,25.73,23.97z"/>
		</g>
		<g>
			<path fill="#FFFFFF" d="M26.15,20.77c0.13,0.07,0.24,0.14,0.32,0.21c-0.05-0.97-0.24-1.9-0.54-2.78
				c-0.06-0.04-0.12-0.08-0.2-0.12C25.98,18.93,26.14,19.83,26.15,20.77z"/>
		</g>
		<g>
			<path fill="#FFFFFF" d="M26.01,21.16c-0.33-0.15-0.76-0.28-1.29-0.41c-0.02,0.95-0.15,1.87-0.36,2.76
				c0.51,0.12,0.92,0.26,1.23,0.39C25.84,23.02,25.98,22.11,26.01,21.16z"/>
		</g>
		<g>
			<path fill="#FFFFFF" d="M24.43,26.82c0.15,0.08,0.26,0.16,0.33,0.24c0.51-0.74,0.91-1.55,1.2-2.42c-0.08-0.08-0.2-0.17-0.36-0.25
				C25.31,25.25,24.91,26.07,24.43,26.82z"/>
		</g>
		<g>
			<path fill="#FFFFFF" d="M25.78,17.78c-0.32-0.78-0.73-1.52-1.22-2.19c0.43,0.64,0.78,1.34,1.04,2.08
				C25.67,17.71,25.72,17.75,25.78,17.78z"/>
		</g>
		<g>
			<path fill="#FFFFFF" d="M25.46,24.33c-0.3-0.14-0.72-0.26-1.21-0.38c-0.25,0.87-0.59,1.7-1,2.48c0.44,0.1,0.79,0.21,1.06,0.34
				C24.78,26.01,25.17,25.19,25.46,24.33z"/>
		</g>
		<g>
			<path fill="#FFFFFF" d="M25.59,18.02c-0.31-0.14-0.73-0.27-1.23-0.39c0.21,0.84,0.34,1.73,0.36,2.67
				c0.53,0.12,0.96,0.26,1.29,0.41C25.98,19.76,25.84,18.86,25.59,18.02z"/>
		</g>
		<g>
			<path fill="#FFFFFF" d="M22.39,29.14c0.11,0.06,0.19,0.11,0.24,0.17c0.71-0.55,1.34-1.19,1.87-1.9
				c-0.07-0.08-0.18-0.16-0.33-0.24C23.67,27.9,23.06,28.57,22.39,29.14z"/>
		</g>
		<g>
			<path fill="#FFFFFF" d="M24.25,17.22c0.49,0.12,0.91,0.25,1.21,0.39c-0.29-0.82-0.68-1.59-1.16-2.28
				c-0.27-0.12-0.62-0.24-1.06-0.33C23.66,15.67,24,16.41,24.25,17.22z"/>
		</g>
		<g>
			<path fill="#FFFFFF" d="M23.99,23.88c-0.52-0.11-1.13-0.21-1.81-0.3c-0.18,0.89-0.43,1.74-0.73,2.53
				c0.59,0.08,1.12,0.17,1.58,0.26C23.43,25.6,23.76,24.76,23.99,23.88z"/>
		</g>
		<g>
			<path fill="#FFFFFF" d="M21.45,14.69c0.3,0.64,0.55,1.38,0.73,2.18c0.68,0.08,1.29,0.19,1.81,0.3c-0.24-0.81-0.56-1.55-0.96-2.22
				C22.57,14.85,22.04,14.76,21.45,14.69z"/>
		</g>
		<g>
			<path fill="#FFFFFF" d="M24.46,20.23c-0.02-0.94-0.14-1.83-0.35-2.66c-0.53-0.11-1.15-0.21-1.83-0.3
				c0.16,0.82,0.25,1.71,0.26,2.65C23.25,20.01,23.89,20.11,24.46,20.23z"/>
		</g>
		<g>
			<path fill="#FFFFFF" d="M24.06,27.12c-0.26-0.12-0.6-0.23-1.02-0.33c-0.44,0.75-0.95,1.45-1.52,2.05
				c0.33,0.08,0.59,0.16,0.79,0.25C22.96,28.52,23.56,27.86,24.06,27.12z"/>
		</g>
		<g>
			<path fill="#FFFFFF" d="M22.17,20.33c-0.74-0.08-1.55-0.15-2.41-0.21c-0.01,0.95-0.06,1.88-0.15,2.79
				c0.82,0.04,1.6,0.11,2.31,0.19C22.07,22.21,22.16,21.28,22.17,20.33z"/>
		</g>
		<g>
			<path fill="#FFFFFF" d="M23.04,14.68c0.42,0.1,0.77,0.21,1.02,0.33c-0.1-0.12-0.2-0.25-0.3-0.37c-0.53-0.56-1.13-1.07-1.77-1.49
				c-0.15-0.05-0.3-0.09-0.48-0.13C22.09,13.48,22.6,14.04,23.04,14.68z"/>
		</g>
		<g>
			<path fill="#FFFFFF" d="M21.85,23.54c-0.7-0.08-1.46-0.15-2.27-0.19c-0.1,0.89-0.23,1.75-0.39,2.56c0.71,0.04,1.37,0.1,1.98,0.17
				C21.44,25.28,21.68,24.43,21.85,23.54z"/>
		</g>
		<g>
			<path fill="#FFFFFF" d="M22.83,26.75c-0.44-0.1-0.96-0.18-1.53-0.25c-0.32,0.77-0.69,1.48-1.11,2.12
				c0.44,0.06,0.83,0.12,1.17,0.19C21.91,28.2,22.41,27.5,22.83,26.75z"/>
		</g>
		<g>
			<path fill="#FFFFFF" d="M21.55,12.88c-0.33-0.2-0.66-0.37-1.01-0.53c0.24,0.13,0.46,0.28,0.69,0.44
				C21.35,12.83,21.46,12.85,21.55,12.88z"/>
		</g>
		<g>
			<path fill="#FFFFFF" d="M19.79,30.76c0.04,0.02,0.08,0.05,0.1,0.07c0.86-0.31,1.66-0.73,2.39-1.25
				c-0.06-0.06-0.13-0.11-0.24-0.17C21.36,29.96,20.6,30.42,19.79,30.76z"/>
		</g>
		<g>
			<path fill="#FFFFFF" d="M21.93,17.22c-0.71-0.08-1.49-0.15-2.31-0.19c0.09,0.81,0.14,1.7,0.15,2.64c0.86,0.05,1.67,0.12,2.41,0.2
				C22.16,18.93,22.07,18.05,21.93,17.22z"/>
		</g>
		<g>
			<path fill="#FFFFFF" d="M21.01,26.46c-0.59-0.07-1.23-0.12-1.91-0.17c-0.17,0.79-0.37,1.52-0.6,2.17
				c0.53,0.03,1.02,0.08,1.47,0.12C20.36,27.95,20.72,27.24,21.01,26.46z"/>
		</g>
		<g>
			<path fill="#FFFFFF" d="M21.23,29.14c-0.59,0.58-1.23,1.07-1.92,1.47c0.17,0.04,0.33,0.08,0.43,0.14
				c0.8-0.36,1.55-0.82,2.24-1.37C21.78,29.29,21.53,29.21,21.23,29.14z"/>
		</g>
		<g>
			<path fill="#FFFFFF" d="M18.5,12.63c0.23,0.42,0.43,0.93,0.6,1.54c0.68,0.04,1.32,0.1,1.91,0.17c-0.3-0.62-0.65-1.16-1.05-1.59
				C19.52,12.7,19.03,12.66,18.5,12.63z"/>
		</g>
		<g>
			<path fill="#FFFFFF" d="M19.18,14.48c0.17,0.64,0.3,1.36,0.39,2.15c0.81,0.05,1.57,0.11,2.27,0.19c-0.17-0.8-0.4-1.53-0.69-2.18
				C20.55,14.58,19.89,14.52,19.18,14.48z"/>
		</g>
		<g>
			<path fill="#FFFFFF" d="M18.34,31.25c0.38-0.07,0.76-0.17,1.12-0.28c-0.02-0.02-0.05-0.03-0.08-0.06
				C19.05,31.05,18.7,31.16,18.34,31.25z"/>
		</g>
		<g>
			<path fill="#FFFFFF" d="M21.08,29.1c-0.32-0.07-0.69-0.13-1.1-0.18c-0.43,0.61-0.91,1.13-1.41,1.55
				c0.24,0.03,0.46,0.07,0.65,0.11C19.88,30.19,20.51,29.69,21.08,29.1z"/>
		</g>
		<g>
			<path fill="#FFFFFF" d="M21.08,12.76c-0.28-0.21-0.57-0.39-0.87-0.55c-0.48-0.19-0.99-0.35-1.51-0.46
				c0.46,0.18,0.89,0.46,1.28,0.83C20.39,12.63,20.76,12.7,21.08,12.76z"/>
		</g>
		<g>
			<path fill="#FFFFFF" d="M16.57,12.58c0,0.41,0,0.93,0,1.53c0.76,0,1.5,0.02,2.19,0.06c-0.15-0.61-0.33-1.13-0.52-1.54
				C17.71,12.59,17.15,12.58,16.57,12.58z"/>
		</g>
		<g>
			<path fill="#FFFFFF" d="M19.78,28.89c-0.43-0.05-0.89-0.09-1.38-0.12c-0.23,0.62-0.48,1.17-0.75,1.61
				c0.28,0.01,0.56,0.04,0.81,0.07C18.92,30.04,19.37,29.5,19.78,28.89z"/>
		</g>
		<g>
			<path fill="#FFFFFF" d="M18.97,30.78c-0.53,0.26-1.08,0.47-1.64,0.6c0.26-0.02,0.51-0.05,0.76-0.09c0.43-0.1,0.85-0.24,1.25-0.39
				C19.25,30.86,19.12,30.82,18.97,30.78z"/>
		</g>
		<g>
			<path fill="#FFFFFF" d="M18.29,11.67c-0.21-0.02-0.43-0.04-0.66-0.06c0.27,0.17,0.53,0.44,0.75,0.82
				c0.49,0.03,0.96,0.07,1.38,0.12c-0.39-0.38-0.82-0.66-1.27-0.84C18.43,11.69,18.36,11.68,18.29,11.67z"/>
		</g>
		<g>
			<path fill="#FFFFFF" d="M16.58,14.41c0,0.64,0,1.35,0,2.15c0.9,0,1.77,0.02,2.6,0.06c-0.08-0.8-0.2-1.52-0.34-2.15
				C18.11,14.43,17.36,14.41,16.58,14.41z"/>
		</g>
		<g>
			<path fill="#FFFFFF" d="M17.49,30.38c0.24-0.44,0.46-0.99,0.66-1.62c-0.51-0.02-1.03-0.03-1.58-0.03
				c-0.01,0.63-0.01,1.18-0.01,1.63C16.88,30.36,17.19,30.37,17.49,30.38z"/>
		</g>
		<g>
			<path fill="#FFFFFF" d="M16.58,22.82c0.91,0,1.8,0.02,2.64,0.06c0.07-0.9,0.12-1.83,0.12-2.78c-0.87-0.04-1.8-0.07-2.75-0.07
				C16.58,20.98,16.58,21.92,16.58,22.82z"/>
		</g>
		<g>
			<path fill="#FFFFFF" d="M18.32,30.67c-0.43,0.33-0.89,0.57-1.36,0.74c0.1-0.01,0.2-0.01,0.3-0.02c0.56-0.14,1.11-0.35,1.63-0.63
				C18.72,30.73,18.53,30.7,18.32,30.67z"/>
		</g>
		<g>
			<path fill="#FFFFFF" d="M19.17,23.33c-0.82-0.04-1.7-0.06-2.6-0.06c0,0.89,0,1.76,0,2.57c0.78,0,1.54,0.02,2.26,0.06
				C18.97,25.08,19.09,24.22,19.17,23.33z"/>
		</g>
		<g>
			<path fill="#FFFFFF" d="M16.56,11.58c0,0.15,0,0.42,0.01,0.8c0.55,0,1.07,0.01,1.58,0.04c-0.2-0.39-0.42-0.66-0.66-0.82
				C17.19,11.59,16.88,11.58,16.56,11.58z"/>
		</g>
		<g>
			<path fill="#FFFFFF" d="M17.5,30.6c-0.24,0.36-0.5,0.64-0.76,0.82c0.06-0.01,0.12-0.01,0.19-0.01c0.44-0.17,0.88-0.42,1.29-0.75
				C17.99,30.63,17.75,30.61,17.5,30.6z"/>
		</g>
		<g>
			<path fill="#FFFFFF" d="M16.56,30.57c-0.01,0.37-0.01,0.66-0.01,0.85c0.05,0,0.1,0,0.15,0c0.23-0.19,0.46-0.47,0.66-0.83
				C17.12,30.58,16.84,30.57,16.56,30.57z"/>
		</g>
		<g>
			<path fill="#FFFFFF" d="M15.62,30.6c0.24,0.36,0.49,0.64,0.75,0.82c0.05,0,0.1,0,0.15,0h0.01c-0.03-0.19-0.07-0.48-0.1-0.85
				C16.14,30.58,15.87,30.58,15.62,30.6z"/>
		</g>
		<g>
			<path fill="#FFFFFF" d="M16.4,30.36c-0.03-0.45-0.08-1-0.1-1.63c-0.55,0-1.07,0.02-1.57,0.05c0.23,0.62,0.48,1.17,0.75,1.61
				C15.77,30.37,16.09,30.36,16.4,30.36z"/>
		</g>
		<g>
			<path fill="#FFFFFF" d="M16.19,25.83c-0.02-0.81-0.04-1.68-0.06-2.57c-0.89,0.01-1.76,0.03-2.57,0.08
				c0.1,0.89,0.23,1.75,0.39,2.56C14.66,25.87,15.41,25.84,16.19,25.83z"/>
		</g>
		<g>
			<path fill="#FFFFFF" d="M16.19,14.41c-0.78,0-1.53,0.03-2.24,0.07c-0.16,0.64-0.29,1.36-0.39,2.15c0.82-0.05,1.68-0.08,2.57-0.08
				C16.15,15.76,16.17,15.04,16.19,14.41z"/>
		</g>
		<g>
			<path fill="#FFFFFF" d="M13.51,22.91c0.83-0.04,1.71-0.08,2.62-0.08c-0.01-0.91-0.01-1.84-0.01-2.78
				c-0.96,0.01-1.88,0.03-2.74,0.08C13.38,21.07,13.43,22.01,13.51,22.91z"/>
		</g>
		<g>
			<path fill="#FFFFFF" d="M15.49,30.6c-0.25,0.02-0.48,0.04-0.7,0.07c0.44,0.33,0.89,0.57,1.36,0.74c0.06,0,0.12,0.01,0.19,0.01
				C16.05,31.23,15.76,30.96,15.49,30.6z"/>
		</g>
		<g>
			<path fill="#FFFFFF" d="M15.48,11.61c-0.27,0.16-0.53,0.44-0.75,0.82c0.5-0.03,1.02-0.04,1.57-0.05c0.03-0.37,0.07-0.65,0.1-0.8
				C16.09,11.58,15.77,11.6,15.48,11.61z"/>
		</g>
		<g>
			<path fill="#FFFFFF" d="M13.37,19.66c0.87-0.05,1.79-0.08,2.74-0.08c0-0.94,0.01-1.82,0.01-2.64c-0.91,0.01-1.79,0.04-2.62,0.08
				C13.43,17.84,13.38,18.73,13.37,19.66z"/>
		</g>
		<g>
			<path fill="#FFFFFF" d="M16.29,28.41c-0.03-0.66-0.06-1.39-0.08-2.18c-0.76,0.01-1.49,0.03-2.17,0.07
				c0.17,0.78,0.37,1.52,0.59,2.17C15.15,28.44,15.71,28.42,16.29,28.41z"/>
		</g>
		<g>
			<path fill="#FFFFFF" d="M14.15,30.78c0.53,0.27,1.09,0.48,1.67,0.61c0.1,0.01,0.2,0.01,0.3,0.02c-0.49-0.16-0.97-0.41-1.42-0.73
				C14.49,30.71,14.3,30.75,14.15,30.78z"/>
		</g>
		<g>
			<path fill="#FFFFFF" d="M14.54,30.47c0.24-0.03,0.51-0.06,0.8-0.08c-0.3-0.44-0.59-0.98-0.84-1.61
				c-0.49,0.03-0.94,0.08-1.36,0.13C13.57,29.52,14.04,30.05,14.54,30.47z"/>
		</g>
		<g>
			<path fill="#FFFFFF" d="M15.34,11.62c-0.24,0.02-0.46,0.04-0.67,0.06c-0.06,0.01-0.11,0.02-0.17,0.03
				c-0.49,0.18-0.95,0.48-1.36,0.87c0.42-0.06,0.87-0.1,1.36-0.13C14.75,12.07,15.03,11.78,15.34,11.62z"/>
		</g>
		<g>
			<path fill="#FFFFFF" d="M13.72,30.92c0.39,0.15,0.79,0.27,1.2,0.37c0.27,0.05,0.55,0.08,0.83,0.1c-0.57-0.14-1.14-0.33-1.68-0.6
				C13.93,30.84,13.81,30.88,13.72,30.92z"/>
		</g>
		<g>
			<path fill="#FFFFFF" d="M14.62,12.63c-0.22,0.42-0.42,0.93-0.59,1.54c0.69-0.04,1.41-0.06,2.17-0.07
				c0.02-0.6,0.05-1.12,0.08-1.53C15.71,12.59,15.15,12.6,14.62,12.63z"/>
		</g>
		<g>
			<path fill="#FFFFFF" d="M14.36,28.48c-0.25-0.65-0.47-1.38-0.66-2.16c-0.68,0.04-1.31,0.1-1.88,0.17
				c0.32,0.78,0.69,1.49,1.11,2.13C13.37,28.56,13.85,28.51,14.36,28.48z"/>
		</g>
		<g>
			<path fill="#FFFFFF" d="M13.62,30.99c0.33,0.1,0.67,0.18,1.02,0.25c-0.33-0.08-0.64-0.18-0.96-0.3
				C13.66,30.96,13.64,30.98,13.62,30.99z"/>
		</g>
		<g>
			<path fill="#FFFFFF" d="M10.6,19.91c0.72-0.09,1.51-0.17,2.36-0.22c0.01-0.93,0.06-1.82,0.16-2.64
				c-0.81,0.06-1.57,0.12-2.26,0.21C10.7,18.08,10.6,18.97,10.6,19.91z"/>
		</g>
		<g>
			<path fill="#FFFFFF" d="M12.94,12.61c0.42-0.38,0.89-0.66,1.38-0.85c-0.51,0.12-1.01,0.27-1.49,0.46
				c-0.33,0.17-0.64,0.36-0.95,0.57C12.18,12.72,12.54,12.66,12.94,12.61z"/>
		</g>
		<g>
			<path fill="#FFFFFF" d="M12.5,12.36c-0.38,0.17-0.74,0.36-1.1,0.57c0.1-0.03,0.21-0.07,0.34-0.1
				C11.98,12.65,12.24,12.5,12.5,12.36z"/>
		</g>
		<g>
			<path fill="#FFFFFF" d="M11.82,14.38c0.57-0.08,1.2-0.14,1.88-0.18c0.19-0.61,0.42-1.13,0.66-1.55c-0.51,0.03-1,0.08-1.43,0.13
				C12.51,13.22,12.14,13.76,11.82,14.38z"/>
		</g>
		<g>
			<path fill="#FFFFFF" d="M11.74,29.17c-0.29,0.08-0.52,0.15-0.69,0.24c0.69,0.54,1.45,1,2.27,1.35c0.1-0.05,0.23-0.1,0.39-0.14
				C13.01,30.24,12.34,29.74,11.74,29.17z"/>
		</g>
		<g>
			<path fill="#FFFFFF" d="M12.72,28.64c-0.44-0.63-0.84-1.34-1.18-2.12c-0.55,0.08-1.05,0.17-1.47,0.27
				c0.44,0.75,0.95,1.44,1.52,2.05C11.92,28.77,12.3,28.7,12.72,28.64z"/>
		</g>
		<g>
			<path fill="#FFFFFF" d="M10.8,29.61c0.73,0.51,1.54,0.93,2.39,1.24c0.02-0.02,0.05-0.04,0.08-0.06c-0.82-0.34-1.59-0.79-2.3-1.33
				C10.9,29.5,10.83,29.55,10.8,29.61z"/>
		</g>
		<g>
			<path fill="#FFFFFF" d="M10.6,20.37c0.01,0.94,0.1,1.88,0.26,2.78c0.69-0.09,1.45-0.16,2.26-0.21c-0.1-0.91-0.15-1.84-0.16-2.78
				C12.11,20.21,11.32,20.28,10.6,20.37z"/>
		</g>
		<g>
			<path fill="#FFFFFF" d="M11.39,26.15c-0.32-0.79-0.58-1.63-0.78-2.52c-0.65,0.09-1.24,0.19-1.74,0.31c0.25,0.88,0.58,1.71,1,2.49
				C10.31,26.32,10.81,26.23,11.39,26.15z"/>
		</g>
		<g>
			<path fill="#FFFFFF" d="M9.88,26.84c-0.39,0.1-0.71,0.21-0.94,0.33c0.51,0.73,1.11,1.38,1.79,1.96c0.17-0.09,0.42-0.17,0.72-0.26
				C10.86,28.28,10.33,27.59,9.88,26.84z"/>
		</g>
		<g>
			<path fill="#FFFFFF" d="M11.44,13.05c-0.17,0.05-0.32,0.09-0.46,0.14c-0.62,0.42-1.2,0.91-1.72,1.46
				c-0.12,0.13-0.23,0.27-0.33,0.41c0.23-0.12,0.55-0.23,0.94-0.33C10.33,14.08,10.86,13.51,11.44,13.05z"/>
		</g>
		<g>
			<path fill="#FFFFFF" d="M8.4,20.29c0.53-0.12,1.15-0.24,1.85-0.33c0.01-0.94,0.11-1.83,0.28-2.65c-0.66,0.09-1.26,0.2-1.77,0.32
				C8.54,18.46,8.42,19.35,8.4,20.29z"/>
		</g>
		<g>
			<path fill="#FFFFFF" d="M8.76,23.51c0.51-0.12,1.1-0.23,1.77-0.32c-0.17-0.89-0.26-1.83-0.28-2.77c-0.7,0.09-1.32,0.21-1.85,0.33
				C8.42,21.69,8.54,22.62,8.76,23.51z"/>
		</g>
		<g>
			<path fill="#FFFFFF" d="M8.87,17.22c0.5-0.12,1.09-0.22,1.74-0.31c0.19-0.8,0.46-1.54,0.78-2.19c-0.57,0.08-1.08,0.17-1.52,0.27
				C9.46,15.67,9.12,16.41,8.87,17.22z"/>
		</g>
		<g>
			<path fill="#FFFFFF" d="M8.83,27.23c-0.11,0.07-0.2,0.15-0.25,0.22c0.53,0.71,1.16,1.35,1.87,1.89c0.04-0.06,0.1-0.11,0.19-0.16
				C9.96,28.61,9.35,27.96,8.83,27.23z"/>
		</g>
		<g>
			<path fill="#FFFFFF" d="M9.66,26.47C9.24,25.7,8.89,24.87,8.64,24c-0.47,0.12-0.85,0.25-1.12,0.39c0.29,0.87,0.69,1.68,1.17,2.43
				C8.93,26.69,9.26,26.57,9.66,26.47z"/>
		</g>
		<g>
			<path fill="#FFFFFF" d="M6.96,21.23c0.02,0.94,0.17,1.86,0.42,2.73c0.28-0.14,0.66-0.28,1.14-0.4c-0.22-0.88-0.35-1.81-0.37-2.75
				C7.66,20.94,7.25,21.09,6.96,21.23z"/>
		</g>
		<g>
			<path fill="#FFFFFF" d="M8.64,17.28c0.26-0.81,0.6-1.56,1.02-2.24c-0.4,0.11-0.73,0.22-0.98,0.35c-0.48,0.69-0.88,1.46-1.17,2.28
				C7.79,17.53,8.17,17.4,8.64,17.28z"/>
		</g>
		<g>
			<path fill="#FFFFFF" d="M8.45,15.64c-0.49,0.68-0.9,1.42-1.2,2.21c0.04-0.03,0.09-0.07,0.15-0.1
				C7.66,16.99,8.02,16.28,8.45,15.64z"/>
		</g>
		<g>
			<path fill="#FFFFFF" d="M7.39,24.46c-0.13,0.08-0.22,0.15-0.28,0.24c0.29,0.86,0.71,1.67,1.21,2.4c0.06-0.08,0.14-0.15,0.26-0.23
				C8.09,26.13,7.68,25.31,7.39,24.46z"/>
		</g>
		<g>
			<path fill="#FFFFFF" d="M7.25,18.15c-0.06,0.04-0.12,0.08-0.17,0.12c-0.3,0.88-0.47,1.81-0.51,2.77
				c0.06-0.06,0.15-0.13,0.26-0.19C6.85,19.9,7,19,7.25,18.15z"/>
		</g>
		<g>
			<path fill="#FFFFFF" d="M6.83,21.31c-0.11,0.06-0.2,0.13-0.26,0.2c0,0.96,0.15,1.89,0.4,2.77c0.06-0.08,0.16-0.17,0.28-0.24
				C7,23.16,6.85,22.25,6.83,21.31z"/>
		</g>
		<g>
			<polygon fill="#FFFFFF" points="4.38,9.71 3.91,10.94 2.68,11.41 3.91,11.88 4.38,13.11 4.85,11.88 6.07,11.41 4.85,10.94 			"/>
		</g>
		<g>
			<polygon fill="#FFFFFF" points="2.68,19.27 1.94,21.79 0,22.75 1.94,23.71 2.68,26.23 3.42,23.71 5.36,22.75 3.42,21.79 			"/>
		</g>
		<g>
			<polygon fill="#FFFFFF" points="28.85,17.39 29.32,15.39 30.54,14.62 29.32,13.86 28.85,11.85 28.38,13.86 27.15,14.62 
				28.38,15.39 			"/>
		</g>
		<g>
			<polygon fill="#FFFFFF" points="28.58,25.34 28.04,27.47 26.61,28.29 28.04,29.1 28.58,31.24 29.12,29.1 30.54,28.29 
				29.12,27.47 			"/>
		</g>
		<g>
			<path fill="#FFFFFF" d="M15.43,10.13h2.18v1.29h0.94V9.66c0-0.26-0.21-0.47-0.47-0.47h-1.09V1.42h-0.94v7.77h-1.09
				c-0.26,0-0.47,0.21-0.47,0.47v1.76h0.94V10.13z"/>
		</g>
	</g>
</g>
</svg>
