<?xml version="1.0" encoding="utf-8"?>
<!-- Generator: Adobe Illustrator 21.1.0, SVG Export Plug-In . SVG Version: 6.00 Build 0)  -->
<svg version="1.1" id="Layer_1" xmlns="http://www.w3.org/2000/svg" xmlns:xlink="http://www.w3.org/1999/xlink" x="0px" y="0px"
	 viewBox="0 0 279 279.5" style="enable-background:new 0 0 279 279.5;" xml:space="preserve">
<style type="text/css">
	.st0{fill:url(#SVGID_1_);}
	.st1{fill:#AFBBC9;}
	.st2{fill:#231F20;}
	.st3{fill:url(#SVGID_2_);}
	.st4{fill:url(#SVGID_3_);}
	.st5{fill:#FFFFFF;}
	.st6{fill:url(#SVGID_4_);}
	.st7{fill:url(#SVGID_5_);}
	.st8{fill:url(#SVGID_6_);}
	.st9{fill:url(#SVGID_7_);}
	.st10{fill:url(#SVGID_8_);}
	.st11{fill:url(#SVGID_9_);}
</style>
<g>
	<g>
		<g>
			<g>
				<linearGradient id="SVGID_1_" gradientUnits="userSpaceOnUse" x1="139.5101" y1="141.5586" x2="139.5101" y2="41.053">
					<stop  offset="0" style="stop-color:#FFB500"/>
					<stop  offset="1" style="stop-color:#FF8C00"/>
				</linearGradient>
				<path class="st0" d="M139.5,41.1c-22.6,0-40.9,19.3-40.9,43c0,11.4,6.5,24,19.4,37.5l0.8,0.9v9.5c0,0.1,0,0.2,0,0.4v5.6
					c0,2,1.6,3.6,3.6,3.6h7.9h18.1h7.9c2,0,3.6-1.6,3.6-3.6v-5.6c0-0.1,0-0.2,0-0.3v-9.5l0.8-0.9c13-13.6,19.6-26.3,19.6-37.5
					C180.4,60.3,162.1,41.1,139.5,41.1z"/>
				<path class="st1" d="M139.5,41.1c22.6,0,40.9,19.3,40.9,43c0,11.3-6.6,23.9-19.6,37.5l-0.8,0.9v9.5c0,0.1,0,0.2,0,0.3v5.6
					c0,2-1.6,3.6-3.6,3.6h-7.9h-18.1h-7.9c-2,0-3.6-1.6-3.6-3.6v-5.6c0-0.1,0-0.2,0-0.4v-9.5l-0.8-0.9
					C105.2,108,98.6,95.4,98.6,84.1C98.6,60.3,117,41.1,139.5,41.1 M139.5,36c-25.3,0-46,21.6-46,48.1c0,12.5,6.8,26.1,20.3,40.4
					v7.5c0,0.2,0,0.3,0,0.5v5.4c0,4.8,3.9,8.7,8.7,8.7h7.9h18.1h7.9c4.8,0,8.7-3.9,8.7-8.7v-5.5c0-0.2,0-0.3,0-0.5v-7.5
					c13.5-14.4,20.4-28,20.4-40.4C185.5,57.6,164.8,36,139.5,36L139.5,36z"/>
			</g>
		</g>
	</g>
	<g>
		<g>
			<path class="st2" d="M152.5,147.9v-6.4h-6.3v6.4c0,2.6-1.5,4.9-3.6,6v-1.1c0-1.7-1.4-3.2-3.2-3.2s-3.2,1.4-3.2,3.2v1.1
				c-2.2-1.1-3.6-3.4-3.6-6v-6.4h-6.3v6.4c0,6.1,4.2,11.3,9.9,12.7v4.6c-5.7,1.4-9.9,6.6-9.9,12.7v4.5l6.3,1.9V178
				c0-2.6,1.5-4.9,3.6-6v1.4c0,1.7,1.4,3.2,3.2,3.2s3.2-1.4,3.2-3.2V172c2.2,1.1,3.6,3.4,3.6,6v6.4l6.3-1.9V178
				c0-6.1-4.2-11.3-9.9-12.7v-4.6C148.3,159.2,152.5,154.1,152.5,147.9z"/>
			<path class="st1" d="M142.1,189.9v-9.7c-1.7,0.7-3.7,0.7-5.4,0v9.7l-14.5-4.4V178c0-6.4,3.5-12,8.8-15c-5.4-3-8.8-8.7-8.8-15
				v-10.5h14.5v8.6c1.7-0.7,3.7-0.7,5.4,0v-8.6h14.5v10.5c0,6.4-3.5,12-8.8,15c5.4,3,8.8,8.7,8.8,15v7.5L142.1,189.9z"/>
		</g>
		<g>
			<path class="st2" d="M146.2,254.7c0,2.6-1.5,4.9-3.6,6v-1.1c0-1.7-1.4-3.2-3.2-3.2s-3.2,1.4-3.2,3.2v1.1c-2.2-1.1-3.6-3.4-3.6-6
				v-6.4l-6.3,1.9v4.5c0,6.1,4.2,11.3,9.9,12.7v8h6.3v-8c5.7-1.4,9.9-6.6,9.9-12.7v-4.5l-6.3-1.9V254.7z"/>
			<path class="st1" d="M146.7,279.5h-14.5v-9.2c-6-2.8-9.9-8.8-9.9-15.6v-7.6l14.5-4.4v10.1c1.7-0.7,3.7-0.7,5.4,0v-10.1l14.5,4.4
				v7.6c0,6.8-4,12.8-9.9,15.6V279.5z"/>
		</g>
	</g>
	<g>
		<g>
			<g>
				<linearGradient id="SVGID_2_" gradientUnits="userSpaceOnUse" x1="139.5101" y1="141.5586" x2="139.5101" y2="41.053">
					<stop  offset="0" style="stop-color:#FFB500"/>
					<stop  offset="1" style="stop-color:#FF8C00"/>
				</linearGradient>
				<path class="st3" d="M139.5,41.1c-22.6,0-40.9,19.3-40.9,43c0,11.4,6.5,24,19.4,37.5l0.8,0.9v9.5c0,0.1,0,0.2,0,0.4v5.6
					c0,2,1.6,3.6,3.6,3.6h7.9h18.1h7.9c2,0,3.6-1.6,3.6-3.6v-5.6c0-0.1,0-0.2,0-0.3v-9.5l0.8-0.9c13-13.6,19.6-26.3,19.6-37.5
					C180.4,60.3,162.1,41.1,139.5,41.1z"/>
				<path class="st2" d="M139.5,45.5c20.1,0,36.5,17.3,36.5,38.6c0,10.1-6.2,21.7-18.4,34.5l-0.8,0.9l-1.2,1.3v1.8v9.4
					c0,0.1,0,0.2,0,0.3l0,0.1v0.1v4.9h-7.1h-18.1h-7.1v-4.8v-0.1l0-0.1c0-0.1,0-0.2,0-0.3v-9.4v-1.8l-1.2-1.3l-0.8-0.8
					C109.2,105.8,103,94.2,103,84.1C103,62.8,119.4,45.5,139.5,45.5 M139.5,41.1c-22.6,0-40.9,19.3-40.9,43c0,11.4,6.5,24,19.4,37.5
					l0.8,0.9v9.5c0,0.1,0,0.2,0,0.4v5.6c0,2,1.6,3.6,3.6,3.6h7.9h18.1h7.9c2,0,3.6-1.6,3.6-3.6v-5.6c0-0.1,0-0.2,0-0.3v-9.5l0.8-0.9
					c13-13.6,19.6-26.3,19.6-37.5C180.4,60.3,162.1,41.1,139.5,41.1L139.5,41.1z"/>
			</g>
		</g>
	</g>
	<g>
		<path class="st2" d="M152.5,147.9v-6.4h-6.3v6.4c0,2.6-1.5,4.9-3.6,6v-1.1c0-1.7-1.4-3.2-3.2-3.2s-3.2,1.4-3.2,3.2v1.1
			c-2.2-1.1-3.6-3.4-3.6-6v-6.4h-6.3v6.4c0,6.1,4.2,11.3,9.9,12.7v4.6c-5.7,1.4-9.9,6.6-9.9,12.7v4.5l6.3,1.9V178
			c0-2.6,1.5-4.9,3.6-6v1.4c0,1.7,1.4,3.2,3.2,3.2s3.2-1.4,3.2-3.2V172c2.2,1.1,3.6,3.4,3.6,6v6.4l6.3-1.9V178
			c0-6.1-4.2-11.3-9.9-12.7v-4.6C148.3,159.2,152.5,154.1,152.5,147.9z"/>
		<path class="st2" d="M146.2,254.7c0,2.6-1.5,4.9-3.6,6v-1.1c0-1.7-1.4-3.2-3.2-3.2s-3.2,1.4-3.2,3.2v1.1c-2.2-1.1-3.6-3.4-3.6-6
			v-6.4l-6.3,1.9v4.5c0,6.1,4.2,11.3,9.9,12.7v8h6.3v-8c5.7-1.4,9.9-6.6,9.9-12.7v-4.5l-6.3-1.9V254.7z"/>
	</g>
	<g>
		<g>
			<linearGradient id="SVGID_3_" gradientUnits="userSpaceOnUse" x1="51.8466" y1="195.4827" x2="51.8466" y2="239.6552">
				<stop  offset="0" style="stop-color:#EF3745"/>
				<stop  offset="1" style="stop-color:#8A1129"/>
			</linearGradient>
			<rect y="193.6" class="st4" width="103.7" height="45.7"/>
			<g>
				<path class="st5" d="M12.5,202.2h17v5.6H19.4v5.9h9.5v5.6h-9.5v12.3h-6.9V202.2z"/>
				<path class="st5" d="M32,202.2h11.6c5.9,0,7.9,3.6,7.9,7.7c0,4.3-1.7,6.4-4.9,7.2v0.1c4.4,0.6,4.7,3.4,4.7,7.3
					c0.1,5.8,0.3,6.4,1.3,6.8v0.4h-7.5c-0.5-1-0.7-2.6-0.7-6c0-5.1-0.7-6.2-2.9-6.2h-2.6v12.1H32V202.2z M38.9,214.6H41
					c2.8,0,3.5-2.1,3.5-3.8c0-2.2-0.8-3.7-3.6-3.7h-2.1V214.6z"/>
				<path class="st5" d="M55.1,202.2h17v5.6H62.1v5.9h9.5v5.6h-9.5v6.7h10.5v5.6H55.1V202.2z"/>
				<path class="st5" d="M75.4,202.2h17v5.6H82.3v5.9h9.5v5.6h-9.5v6.7h10.5v5.6H75.4V202.2z"/>
			</g>
		</g>
		<g>
			<linearGradient id="SVGID_4_" gradientUnits="userSpaceOnUse" x1="191.3567" y1="236.9074" x2="191.3567" y2="203.7167">
				<stop  offset="5.405406e-03" style="stop-color:#A6A6A6"/>
				<stop  offset="1" style="stop-color:#D9D9D9"/>
			</linearGradient>
			<rect x="103.7" y="193.6" class="st6" width="175.3" height="45.7"/>
		</g>
		<g>
			<path class="st2" d="M117.9,207.8h-6.2v-5.6H131v5.6h-6.2v23.8h-6.9V207.8z"/>
			<path class="st2" d="M133.3,202.2h6.9v11h5.5v-11h6.9v29.4h-6.9V219h-5.5v12.6h-6.9V202.2z"/>
			<path class="st2" d="M156.5,202.2h6.9v29.4h-6.9V202.2z"/>
			<path class="st2" d="M167.2,202.2h7.9l5.7,19.1h0.1v-19.1h6.4v29.4h-7.8l-6.1-20.3h-0.1v20.3h-6.2V202.2z"/>
			<path class="st2" d="M191.1,202.2h6.9v11.6h0.1l6.5-11.6h7.5l-7.7,12.7l8.6,16.7h-7.8l-5.3-11.1l-1.9,2.8v8.2h-6.9V202.2z"/>
			<path class="st2" d="M215,202.2h6.9v29.4H215V202.2z"/>
			<path class="st2" d="M225.7,202.2h7.9l5.7,19.1h0.1v-19.1h6.4v29.4H238l-6.1-20.3h-0.1v20.3h-6.2V202.2z"/>
			<path class="st2" d="M262.2,211.1c0-1.9-0.2-4.9-2.8-4.9c-2.8,0-3.2,2.9-3.2,10.7c0,8,0.4,10.6,3.2,10.6c2.3,0,3.2-2.1,3.2-6.2
				v-0.9h-3.3v-4.6h9.7v15.8h-4.7l-0.2-2.8H264c-1.1,2.6-3.7,3.4-6.3,3.4c-7.4,0-8.6-5.5-8.6-14.7c0-9.6,0.7-15.9,10.5-15.9
				c8.9,0,9.3,6.2,9.3,9.5H262.2z"/>
		</g>
	</g>
	<g>
		<g>
			<linearGradient id="SVGID_5_" gradientUnits="userSpaceOnUse" x1="139.5537" y1="26.0828" x2="139.5537" y2="0">
				<stop  offset="0" style="stop-color:#FF8C00"/>
				<stop  offset="1" style="stop-color:#FFB500"/>
			</linearGradient>
			<path class="st7" d="M139.6,26.1L139.6,26.1c-1.5,0-2.7-1.2-2.7-2.7V2.7c0-1.5,1.2-2.7,2.7-2.7l0,0c1.5,0,2.7,1.2,2.7,2.7v20.6
				C142.3,24.9,141.1,26.1,139.6,26.1z"/>
		</g>
		<g>
			<linearGradient id="SVGID_6_" gradientUnits="userSpaceOnUse" x1="75.3711" y1="28.7275" x2="93.723" y2="47.0793">
				<stop  offset="0" style="stop-color:#FF8C00"/>
				<stop  offset="1" style="stop-color:#FFB500"/>
			</linearGradient>
			<path class="st8" d="M94.7,46L94.7,46c-0.9,1.2-2.6,1.4-3.8,0.4L74.8,33.6c-1.2-0.9-1.4-2.6-0.4-3.8v0c0.9-1.2,2.6-1.4,3.8-0.4
				l16.1,12.9C95.5,43.2,95.7,44.9,94.7,46z"/>
		</g>
		<g>
			<linearGradient id="SVGID_7_" gradientUnits="userSpaceOnUse" x1="186.5579" y1="47.0803" x2="204.9116" y2="28.7265">
				<stop  offset="0" style="stop-color:#FF8C00"/>
				<stop  offset="1" style="stop-color:#FFB500"/>
			</linearGradient>
			<path class="st9" d="M185.5,46L185.5,46c-0.9-1.2-0.7-2.9,0.4-3.8l16.1-12.9c1.2-0.9,2.9-0.7,3.8,0.4l0,0
				c0.9,1.2,0.7,2.9-0.4,3.8l-16.1,12.9C188.2,47.4,186.5,47.2,185.5,46z"/>
		</g>
		<g>
			<linearGradient id="SVGID_8_" gradientUnits="userSpaceOnUse" x1="195.5244" y1="92.0181" x2="221.607" y2="92.0181">
				<stop  offset="0" style="stop-color:#FF8C00"/>
				<stop  offset="1" style="stop-color:#FFB500"/>
			</linearGradient>
			<path class="st10" d="M195.5,92L195.5,92c0-1.5,1.2-2.7,2.7-2.7h20.6c1.5,0,2.7,1.2,2.7,2.7v0c0,1.5-1.2,2.7-2.7,2.7h-20.6
				C196.7,94.7,195.5,93.5,195.5,92z"/>
		</g>
		<g>
			<linearGradient id="SVGID_9_" gradientUnits="userSpaceOnUse" x1="57.4133" y1="92.0181" x2="83.4959" y2="92.0181">
				<stop  offset="0" style="stop-color:#FF8C00"/>
				<stop  offset="1" style="stop-color:#FFB500"/>
			</linearGradient>
			<path class="st11" d="M57.4,92L57.4,92c0-1.5,1.2-2.7,2.7-2.7h20.6c1.5,0,2.7,1.2,2.7,2.7v0c0,1.5-1.2,2.7-2.7,2.7H60.1
				C58.6,94.7,57.4,93.5,57.4,92z"/>
		</g>
	</g>
</g>
</svg>
