<?xml version="1.0" encoding="utf-8"?>
<!-- Generator: Adobe Illustrator 24.1.0, SVG Export Plug-In . SVG Version: 6.00 Build 0)  -->
<svg version="1.1" id="Layer_1" xmlns="http://www.w3.org/2000/svg" xmlns:xlink="http://www.w3.org/1999/xlink" x="0px" y="0px"
	 viewBox="0 0 30 23" style="enable-background:new 0 0 30 23;" xml:space="preserve">
<style type="text/css">
	.st0{fill:#FFFFFF;}
</style>
<g>
	<g>
		<g>
			<path class="st0" d="M11.2,10.8l1.2-2c0.3-0.5,0.9-0.8,1.5-0.7c0.6,0.1,1.1,0.5,1.3,1.1l0.9,2.8l0-0.1c0.3-0.5,0.8-0.9,1.4-0.9
				H26c0.8-1.4,1.3-2.7,1.3-3.9c0-3.3-2.7-6-6-6s-6,2.2-6,4.7c0-2.5-2.7-4.7-6-4.7s-6.1,2.7-6.1,6c0,1.2,0.5,2.4,1.2,3.7
				C4.3,10.8,11.2,10.8,11.2,10.8z"/>
		</g>
		<g>
			<path class="st0" d="M18.5,14.1l-1.3,2.7c-0.3,0.5-0.8,0.9-1.4,0.9c0,0-0.1,0-0.1,0c-0.6,0-1.2-0.5-1.4-1.1l-1.1-3.3
				c-0.3,0.4-0.8,0.6-1.2,0.6H6.5c3.6,4.3,8.7,8,8.7,8s5-3.6,8.5-7.7H18.5z"/>
		</g>
	</g>
	<g>
		<path class="st0" d="M15.8,16.8C15.8,16.8,15.8,16.8,15.8,16.8c-0.3,0-0.5-0.2-0.6-0.4l-1.7-5.2l-1,1.6C12.4,12.9,12.2,13,12,13
			h-10c-0.3,0-0.6-0.3-0.6-0.6c0-0.3,0.3-0.6,0.6-0.6h9.6l1.5-2.4c0.1-0.2,0.4-0.3,0.6-0.3c0.2,0,0.4,0.2,0.5,0.4l1.6,5l1-2.1
			c0.1-0.2,0.3-0.4,0.6-0.4H28c0.3,0,0.6,0.3,0.6,0.6c0,0.3-0.3,0.6-0.6,0.6H17.9l-1.5,3.2C16.3,16.6,16,16.8,15.8,16.8z"/>
	</g>
</g>
</svg>
