<?xml version="1.0" encoding="utf-8"?>
<!-- Generator: Adobe Illustrator 27.4.1, SVG Export Plug-In . SVG Version: 6.00 Build 0)  -->
<svg version="1.1" id="Layer_1" xmlns="http://www.w3.org/2000/svg" xmlns:xlink="http://www.w3.org/1999/xlink" x="0px" y="0px" viewBox="0 0 157.1 400" style="enable-background:new 0 0 157.1 400;" xml:space="preserve">
<style type="text/css">
	.st0{clip-path:url(#SVGID_00000046303096444078577550000017282259818406721446_);fill:#40263E;}
	.st1{clip-path:url(#SVGID_00000046303096444078577550000017282259818406721446_);}
	.st2{fill:#5C3751;}
	.st3{fill:#40263E;}
	.st4{fill:#24142C;}
	.st5{fill:#978AB1;}
	.st6{fill:#FCCBB5;}
	.st7{fill:#FFEDDB;}
	.st8{fill:#705371;}
	.st9{fill:#E58E7D;}
	.st10{fill:#F05545;}
	.st11{fill:#FBBEA2;}
	.st12{fill:none;stroke:#5C3751;stroke-width:0.75;stroke-miterlimit:10;}
</style>
<g>
	<g>
		<defs>
			<rect id="SVGID_1_" x="-69" y="-77" width="268" height="392"/>
		</defs>
		<clipPath id="SVGID_00000160176410631766641420000016884070218540783775_">
			<use xlink:href="#SVGID_1_" style="overflow:visible;"/>
		</clipPath>
		<path style="clip-path:url(#SVGID_00000160176410631766641420000016884070218540783775_);fill:#40263E;" d="M89.3,256.4
			c2.8,5.2,5.3,10.1,7.1,15.7c1.3,4,2.8,8,4.5,11.8c2,4.4,3.8,8.7,5.1,13.4c0.3,1.5,2,1,3.1,1.5c1.6,0.7,5.5,4.3,7.3,4.4
			c6.7,0.5,3.7-13.9,3.5-16.8c-0.3-8.4-0.6-16.8-0.8-25.3c-0.5-15.2,0.5-32.4-0.8-47.4c-0.4-5.5-3.3-11.2-3.8-16.6
			c-0.3-2.2,1-7.3-1.1-9.1c-1.1-0.9-5-0.2-6.5,0.1c-2.2,0.3-4.6,1.4-6.9,2.1c-2.9,0.9-5.3-4.9-8-3.6c-10.5,4.9-13.7,20.2-13.5,30
			C79,229.8,83,244.4,89.3,256.4z"/>
		<g style="clip-path:url(#SVGID_00000160176410631766641420000016884070218540783775_);">
			<g>
				<g>
					<path class="st2" d="M101.4,345c3,6.2,6.3,12.3,8.8,18.7c2.6,6.5,4,13,5.7,19.7c0.3,1.4,1.6,0.9,2.5,1.3c1.3,0.6,4.5,3.9,6,4
						c5.4,0.3,2.6-13.3,2.4-16.1c-0.5-8-0.9-16-1.3-24c-0.8-14.4-2.3-30.8-3.7-45.1c-0.5-5.2-1-9.3-1.6-14.5
						c-4.6,4.2-7.7-0.3-9.4-1.9c-0.9-0.8-1.4-4.8-3.6-6.7c-3.1-2.6-3.3-3.2-5.4-1.9c-8.3,5-9.5,26.3-9.1,35.6
						C93.4,326.6,96,333.7,101.4,345z"/>
					<path class="st3" d="M114.7,385.8c0.6,1.7,2.4,2.9,4.3,3.7c1.9,0.8,4,1.2,6,0.5c2.5-0.8,4.5-2.9,4.5-5.6c0-6.6-10.6-7.5-14-3
						C114.5,382.6,114.1,384.3,114.7,385.8z"/>
					<path class="st2" d="M146.8,397.6c-0.3-1.1-1.1-2.1-2.2-2.7c-2-1.1-4.3-1.5-6.5-2.1c-2.4-0.7-4.7-1.9-6.6-3.5
						c-1.2-1-2.4-2.2-3.9-2.7c-1.6-0.6-3.1-0.1-4.7,0c-1.7,0.2-3.7,0-5.2,0.8c-3.2,1.6-4.1,6.7-3.9,9.8c0,0.5,0.1,1,0.1,1.4
						s0.3,0.6,0.7,0.7c3.9,0.4,15.7,0.4,23.3,0.4c0.2,0,0.4,0,0.6,0c2.2,0,4.1,0,5.1,0c3.5,0.1,3.5-0.2,3.5-1.1
						C146.9,398.3,146.9,397.9,146.8,397.6z"/>
					<g>
						<path class="st4" d="M110.5,345.6c-6.1,0-12-14.8-12.7-16.6l0,0c-1.5-3.9-4.9-17.4-1.7-23.7c0.8-1.7,2.1-2.7,3.6-3.2
							c1.5-0.4,3,0.5,4.4,2.7c0.9,1.5,1.3,3.2,1.6,4.9c0.2,0.9,0.3,1.8,0.6,2.6c0.6,1.8,1.2,3.7,1.8,5.5c0.4,1.3,0.9,2.7,1.3,4
							c0.2,0.8,0.7,1.9,1.2,3.2c2.1,5.2,5.5,13.8,3.6,18.1c-0.5,1.1-1.3,1.9-2.4,2.3C111.4,345.5,110.9,345.6,110.5,345.6z
							 M98.4,328.8c2.6,6.8,8.3,17.7,13.2,15.9c1-0.4,1.6-1,2-1.9c1.8-4-1.6-12.5-3.6-17.5c-0.5-1.3-1-2.5-1.2-3.3
							c-0.4-1.3-0.9-2.7-1.3-4c-0.6-1.8-1.2-3.6-1.8-5.5c-0.3-0.9-0.4-1.8-0.6-2.7c-0.3-1.6-0.6-3.3-1.5-4.7
							c-1.2-1.9-2.5-2.7-3.7-2.4c-1.4,0.4-2.5,1.3-3.2,2.8C93.6,311.7,96.9,325,98.4,328.8L98.4,328.8z"/>
					</g>
				</g>
				<g>
					<path class="st5" d="M116.6,177c-1.9-17.3-2.4-35.7-6.8-52.6c-2.4-8.9-6.7-9.4-16-8.9c-7.7,0.4-15.4,0.5-21.1,5
						c-4.9,3.8-6.5,9.3-6.1,14.9c1.3,15.3,4,31.6,5.9,47c2.4,18.9,2.3,11,4.7,30c1.5,11.7,12.3,4.5,16.5,15.6
						c1.6,4.1-3.4-8.7-0.3-5.6c3.5,3.5-0.9,6,4,6c7.7-0.1,8,8.8,11,1.3c2.6-6.6,3.6,3.2,2.8-3.8c-0.8-7.1,8.8-13.3,7.8-24.6
						C118.2,193.1,117.5,185,116.6,177z"/>
					<path class="st2" d="M119.2,204.4c-1-0.3-2.3,0.2-4,0.9c-3.2,1.2-6.3,2.2-9.6,2.7c-3.8,0.7-7.8,0.9-11.8,1
						c-4,0.2-7.9,0.3-12,0.4c-1.4,0-2.9-0.1-4.2,0.3c-3.7,1.3,1.2,10.2,2.1,12.6c1.7,4.6,4.4,9,7.8,12.5c3.9,3.8,6.1,4.8,11.6,4.7
						c8.7-0.1,14.7-4,18.1-12.3c1.5-3.7,2.3-7.6,2.7-11.5c0.3-2.7,0.9-5.5,0.7-8.3C120.3,205.6,119.9,204.8,119.2,204.4z"/>
				</g>
			</g>
			<g>
				<g>
					<path class="st6" d="M11.8,389.1c2.3-4.3,2.5-9.3,3.1-14.1c0.4-3,1.7-13.8,2.6-16.7c0.1-0.4,9,1.7,12,2
						c3.1,0.4,13.5,0.7,13.7,1.2s-5.4,21.9-7.9,30.9c-7.9,0-16.4-0.1-24.6-1.4C11,390.5,11.4,389.9,11.8,389.1z"/>
					<path class="st7" d="M2.4,394.6C1,395.3,0,396.7,0,398.3c0,0.9,0,1.2,3.5,1.2c0.9,0,2.5,0,4.5,0.1c-0.3-2.2-1-4.3-2.2-6.1
						C4.7,393.7,3.5,394,2.4,394.6z"/>
					<path class="st2" d="M10.7,391c-0.1,0.1-0.2,0.2-0.2,0.3c-0.8,1-1.8,1.5-3.6,1.9c-0.3,0.1-0.7,0.1-1,0.2
						c1.1,1.8,1.9,3.9,2.2,6.1c7.5,0.2,20.4,0.6,24.5,0.3c0.4,0,0.6-0.3,0.7-0.7c0.6-1.5,1.3-3.9,2-6.6c0-0.1,0-0.1,0.1-0.2
						C27.3,392.4,18.9,392.3,10.7,391z"/>
					<path class="st2" d="M9.7,389.3c-0.1,1.7,0.7,3.6,2.1,4.4c0.2,0.1,0.4,0.2,0.7,0.2c1.2-0.1,0.6-4.4,0.3-5.2
						c-0.3-0.7-1.2-1.3-1.9-1.2C9.9,387.5,9.7,388.3,9.7,389.3C9.7,389.2,9.7,389.3,9.7,389.3z"/>
				</g>
				<path class="st5" d="M26.2,241.8c2.8-21.2,7.5-42.1,12.1-63c3.7-17,3.5-34.9,9.7-51.3c3.3-8.7,10.1-9,19.4-7.5
					c7.6,1.2,15.2,2.1,20.5,7.1c4.4,4.3,5.6,9.9,4.5,15.4c-2.9,15.1-7.2,31-10.7,46.2s-6.5,29.5-10.8,44.7
					C66.5,248.8,45.1,362.7,42,379c0,1-12.7-0.9-22.7-3.1c-4.4-1-8.9-0.5-11.3-2.1C6.3,372.6,23.3,263.5,26.2,241.8z"/>
				<g>
					<path class="st8" d="M77.6,209.7C77.5,209.7,77.5,209.7,77.6,209.7c-0.2,0-0.4-0.2-0.3-0.4l4.9-35c0-0.2,0.2-0.3,0.4-0.3
						c0.2,0,0.3,0.2,0.3,0.4l-4.9,35C77.9,209.5,77.7,209.7,77.6,209.7z"/>
				</g>
			</g>
			<path class="st6" d="M157,130.6c-0.5-5.3-3.2-9.8-5.8-14.3c-5.4-9.5-11.3-18.7-17.6-27.6c-0.8-1.1-1.6-2.2-2.4-3.3
				c-0.2-0.3-0.7-0.5-1-0.1c-1.8,2-3.5,4.1-5.1,6.2c-0.5,0.4-0.9,0.9-1.4,1.3c-1,1-2,1.9-3,2.9c-1.9,1.8-4.1,3.5-5.7,5.6
				c-1.4,1.8-1.8,3.9-1.4,6.1c0.9,4.8,5.2,7.6,8.8,10.4c3.6,2.7,6.8,5.9,9.9,9.2c3,3.2,6,6.4,9.4,9.2c1.6,1.4,3.4,2.6,5.2,3.7
				c1.7,1,3.7,2.2,5.7,2.3c2.5,0.1,3.3-2.1,3.8-4.2C157,135.7,157.2,133.2,157,130.6z"/>
			<g>
				<path class="st7" d="M132,81.3c-2.7-3.1-5.6-6.1-8.4-9.1c-2.5-2.6-5-5.4-8-7.4c-2.6-1.7-5.5-2-8.5-2.2
					c-3.4-0.2-6.9-0.4-10.3-0.7c-13.5-0.8-27-1.3-40.5-0.1c-2.8,0.2-11.6,0.8-14.2,2c-2.4,1.2,0.1,2.8-0.7,5.2
					c-1.1,3.2,0.8,6.8,0.8,10.2c0,6.1-0.1,12.3,0.1,18.4c0.3,8.1,0.4,16.1,0.6,24.2c0,2.2-5,42.2-5,44.4c0,0.7-0.5,4.5,0.4,4.6
					c17.5,1.6,33.7,1,51.6,1.1c5.1,0,22-1.6,27-1.5c1.9,0-3.5-46.9-3.5-48c-0.2-5.1-0.8-10.1-0.4-15.1c0-0.1,0-0.2,0-0.3
					c0.6,0.2,1.1,0.5,1.7,0.7c0.2,0.1,0.5,0,0.6-0.2c5.6-7.4,12.2-14.2,18.1-21.4c0.4-0.5,0.8-1,0.8-1.6
					C134.2,83.4,132.7,82.2,132,81.3z"/>
			</g>
			<g>
				<path class="st6" d="M154,135.7c-0.5-1.2-1.2-2.4-2-3.5c-2.1-2.6-4.8-4.7-7.4-6.7c-2.7-2-5.4-4.1-8-6.3c-5.1-4.4-10-9-15.1-13.4
					c-5-4.4-10.2-8.8-16-12.1c-2.7-1.6-5.7-2.9-8.9-3.2c-2.9-0.3-6.4,0.3-8.3,2.7c-0.4,0.5-1.4,2.2-1.3,3c0.1,0.5,0,1.4,0.7,1.5
					c-0.3,0.6-0.5,1.2-0.6,1.8c-0.1,0.6,0,1.4,0.2,1.9c0.1,0.1,0.1,0.2,0.2,0.3c-0.3,0.5-0.6,1-0.6,1.6c-0.1,1,0,1.9,0.2,2.9
					c-0.6,0.5-1.1,1.1-1.4,1.7c-0.5,0.9-0.8,2.5,0.3,3.2c0.5,0.3,1.1,0.3,1.6,0.1c0.7-0.3,1-0.9,1.5-1.4c0.7-0.6,1.6,0,2.2,0.4
					c0.8,0.5,1.5,1.1,2.2,1.6c1.3,1.1,2.5,2.3,3.8,3.4c5.2,5.1,10.6,9.9,16.2,14.6c2.8,2.3,5.5,4.7,8.3,7c2.7,2.2,5.4,4.4,8.3,6.4
					c5.7,3.8,12.6,6.2,19.4,3.7c3.1-1.1,6-3.9,5.8-7.4C155.2,138.6,154.7,137,154,135.7z"/>
				<g>
					<path class="st9" d="M87.9,106.3c-0.1,0-0.2,0-0.2-0.1c-0.1-0.1-0.1-0.3,0-0.5c2.3-2.2,5.4-1.7,8.1-1c0.2,0,0.3,0.2,0.2,0.4
						c0,0.2-0.2,0.3-0.4,0.2c-2.7-0.7-5.4-1.1-7.5,0.8C88.1,106.3,88,106.3,87.9,106.3z"/>
				</g>
				<g>
					<path class="st9" d="M140.8,124.3c-0.1,0-0.2,0-0.2-0.1l-21.5-19.9c-0.1-0.1-0.1-0.3,0-0.5c0.1-0.1,0.3-0.1,0.5,0l21.5,19.9
						c0.1,0.1,0.1,0.3,0,0.5C141,124.3,140.9,124.3,140.8,124.3z"/>
				</g>
				<g>
					<path class="st9" d="M88,101.9c-0.1,0-0.2,0-0.2-0.1c-0.1-0.1-0.1-0.3,0-0.5c1.7-1.5,5.3-2.6,8.3-1.8c0.2,0,0.3,0.2,0.2,0.4
						c0,0.2-0.2,0.3-0.4,0.2c-2.7-0.8-6.1,0.3-7.7,1.7C88.2,101.9,88.1,101.9,88,101.9z"/>
				</g>
				<g>
					<path class="st9" d="M88,97.8c-0.1,0-0.2,0-0.2-0.1c-0.1-0.1-0.1-0.3,0-0.5c1.9-1.6,5.4-2.9,8.5-1.9c0.2,0.1,0.3,0.2,0.2,0.4
						c-0.1,0.2-0.2,0.3-0.4,0.2c-3.1-1-6.4,0.5-7.9,1.8C88.2,97.7,88.1,97.8,88,97.8z"/>
				</g>
			</g>
			<g>
				<path class="st6" d="M94.4,32.3c-0.1-2.3-0.4-4.5-0.5-6.8c-0.2-3-0.4-6.1-1.2-9.1c-1.4-5.8-5.2-10.7-11.2-12.3
					c-3.2-0.8-6.9-0.3-10.2,0.3c-2.7,0.7-5,1.6-7,3.6c-3.1,3.1-4.7,7.6-4.2,11.9c0.3,2.9,1,5.9,2.2,8.6c1.1,2.5,2.8,4.7,4.3,6.9
					c1.6,2.2,3.4,4.5,4.2,7.2c1.3,4.7,0.9,10.1,0.4,14.9c-0.2,1.7-0.7,3.5-0.6,5.3c0,0.9,1.2,1.4,1.9,1.8c3.1,1.4,6.6,2,10,1.5
					c1.5-0.2,2.9-0.6,4.3-1.2c0.9-0.4,2.9-1,2.8-2.3l0,0c-0.6-3.1-1.5-6.2-2.1-9.3c-0.6-3.2-0.9-6.4-0.9-9.6
					c1.1-0.1,2.2-0.3,3.3-0.7c1.1-0.4,2.2-0.9,3-1.8c1.7-1.8,1.8-4.6,1.8-6.9C94.4,33.6,94.4,33,94.4,32.3z"/>
				<path class="st2" d="M75.8,19.8c-0.1,0.8,0.1,1.5,0.6,1.5s1.2-0.6,1.3-1.4c0.1-0.8-0.6-1.3-1.1-1.3C76,18.6,75.8,19,75.8,19.8z"/>
				<path class="st2" d="M86.4,19.2c-0.1,0.8,0.1,1.5,0.6,1.5s1.2-0.6,1.3-1.4c0.1-0.8-0.6-1.3-1.1-1.3C86.7,18,86.5,18.4,86.4,19.2
					z"/>
				<g>
					<path class="st9" d="M83.7,29.3c-1,0-2-0.3-2.7-0.8c-0.1-0.1-0.2-0.3-0.1-0.5s0.3-0.2,0.5-0.1c0.7,0.5,2.3,1.1,4,0.3
						c0.2-0.1,0.4,0,0.4,0.1c0.1,0.2,0,0.4-0.1,0.4C85,29.1,84.3,29.3,83.7,29.3z"/>
				</g>
				<g>
					<path class="st9" d="M84.6,25.8C84.5,25.8,84.5,25.8,84.6,25.8l-3.4-0.3c-0.2,0-0.3-0.2-0.3-0.4c0-0.2,0.2-0.3,0.4-0.3l2.9,0.2
						l-1.6-7c0-0.2,0.1-0.4,0.2-0.4c0.2,0,0.4,0.1,0.4,0.2l1.7,7.4c0,0.1,0,0.2-0.1,0.3C84.7,25.7,84.6,25.8,84.6,25.8z"/>
				</g>
				<g>
					<path class="st9" d="M85,43.9c-0.8,0-2.1-0.1-3.2-0.6c-0.2-0.1-0.2-0.3-0.2-0.4c0.1-0.2,0.3-0.2,0.4-0.2c1.3,0.6,3,0.6,3.6,0.5
						c0.1,0,0.2,0,0.2,0c0.2,0,0.3,0.1,0.3,0.3s-0.1,0.3-0.3,0.3c0,0-0.1,0-0.2,0C85.5,43.9,85.3,43.9,85,43.9z"/>
				</g>
				<path class="st10" d="M56.4,14c0.4-1.3,1-2.7,2.1-3.5c0.4-0.3,0.8-0.5,1.1-0.5c-0.8-1.2-1-2.8-0.6-4.3c0.7-2.6,2.9-4,5.5-4.4
					c3.2-0.5,6.2,0.9,9.4,1c2.7,0.1,5.4-0.5,7.7-1.7c0.9-0.5,1.5-0.7,2.5-0.4C85,0.5,86,0.9,86.8,1.4C88.5,2.3,90,3.5,91.3,5
					c0.6,0.6,1.7,2.2,1.9,3c0.5,1.8,0.6,4.1-1.1,4.4c-1.9,0.3-5.7-1.9-7.5-2.3C82.8,9.8,80,9.3,78.2,10c0,0.1,0.1,0.1,0.1,0.2v0.1
					l0,0c0.7,0.8,1.7,1.3,2.6,1.8c0.5,0.2,1.1,1.1,0.1,1.2c-1.3,0.1-2.7,0.1-4-0.1c-1.3-0.2-2.5-0.6-3.7-1c-0.2-0.1-0.4-0.2-0.6-0.2
					c0.3,1.4,0.3,2.8,0.2,4.1c-0.1,1.4-0.3,2.8-0.7,4c-0.4,1.1-0.8,2.2-1.1,3.3c-0.3,1.1-0.8,0.7-1.8,0.5c-0.6-0.1-2.6,0-2.6,0.8
					c-0.1,0.6,0.1,1.3,0.3,1.8c0.4,1.3,1.2,2.5,1.7,3.7c0.9,2.1,1.4,4.3,1.6,6.6c0.1,1.1,0.2,2.3,0.2,3.4c0,0.9,0.4,2.6-0.3,3.1
					c0,0,0.1,0,0,0l0,0C69.4,44,69,42.6,68.8,42c-0.4,0.1-0.8-0.2-1-0.5c-0.9-1.4-0.9-3.4-1.7-4.9c-0.8-1.5-1.8-3-2.9-4.4
					c-2-2.7-4.2-5.4-5.5-8.5C56.5,20.9,55.5,17.1,56.4,14z"/>
				<path class="st6" d="M71.3,27.4c-0.3-1.7-1.7-3.6-2.6-4.4c-1.3-1.1-3.2-1.6-4.8-0.7c-3,1.8,1,6.7,2.7,7.8
					c0.6,0.4,2.5,0.7,3.2,0.6C71.4,30.2,71.6,28.6,71.3,27.4z"/>
			</g>
			<g>
				<path class="st11" d="M113.4,97.8c-0.2,0-0.3-0.1-0.3-0.3V82.8c0-0.2,0.1-0.3,0.3-0.3c0.2,0,0.3,0.1,0.3,0.3v14.7
					C113.7,97.6,113.6,97.8,113.4,97.8z"/>
			</g>
			<path class="st6" d="M35.5,88.5c5,7.4,12,14.6,15.4,18.3c2.6,2.8,5.3,5.8,8.1,8.4c2.5,2.2,5.5,3.8,8.9,3.6
				c4.3-0.2,7.7-3.1,9.2-7.1c1.1-2.7-0.3-5.4-1.8-7.6c-4.6-7.3-17.4-21.3-23.2-31C48.2,66.7,29.4,79.4,35.5,88.5z"/>
			<path class="st7" d="M32.1,75.5c0.4-2.2,1.3-4.4,2.7-6.2c1.6-2.1,3.7-3.8,6.1-4.9c1.1-0.5,2.2-0.9,3.4-0.7
				c1.5,0.3,2.8,0.9,4.1,1.5c7.3,3.7,11,7.5,15.3,14.4c0.8,1.3,2.2,3.1,0.2,4c-7.5,3.4-14.1,8.8-19,15.5c-0.5,0.7-1.3,1.5-2.1,1.2
				s-1.3-1.5-1.8-2.2C35.6,90.8,30.2,85.3,32.1,75.5z"/>
			<g>
				<g>
					<g>
						<path class="st2" d="M52.1,37.7C52,36.1,63.3,23.3,64.6,24.1c2.2,1.3,23.5,21.8,23.4,22.8c0,1.6-10.5,12.7-12.2,12.5
							C74.9,59.3,52.3,40.3,52.1,37.7z"/>
					</g>
				</g>
				<g>
					<path class="st6" d="M60,112.4c-0.1-0.3-0.3-0.6-0.4-1c-2.2-6.5,0.5-12.7,1.1-19.2c0.8-9.8,0.1-19.5-0.3-29.3
						c-0.3-6.4-1.6-14.3,0.3-20.5c0.9-3,2.2-6,4.3-8.4c1.9-2.2,4.8-4.2,7.9-3.7c0.7,0.1,2.6,0.6,3,1.3c0.3,0.4,1,1,0.6,1.6
						c0.6,0.2,1.2,0.5,1.7,0.9s1,1,1.2,1.6c0,0.1,0,0.3,0,0.4c0.6,0.1,1.1,0.3,1.5,0.7c0.8,0.6,1.3,1.4,1.8,2.2c0.8,0,1.5,0,2.2,0.3
						c1,0.4,2.3,1.3,2,2.5c-0.1,0.6-0.6,1-1.1,1.1c-0.7,0.2-1.4,0-2.1,0.1c-0.9,0.1-1.2,1.1-1.3,1.8c-0.2,0.9-0.4,1.8-0.5,2.7
						c-0.2,1.7-0.3,3.4-0.4,5.1c-0.5,12,2.3,23.8,2.3,35.8c0,10.4-1.9,24.6-12.8,29.2C65.9,119.7,61.9,116.9,60,112.4z"/>
					<g>
						<path class="st9" d="M86.8,42C86.8,42,86.7,42,86.8,42c-0.3,0-0.4-0.2-0.3-0.4c0.2-1.1-1-1.8-1.8-2.1
							c-0.6-0.2-1.3-0.3-2.1-0.3c-0.1,0-0.2-0.1-0.3-0.2c-0.4-0.7-1-1.5-1.7-2.2c-0.4-0.3-0.9-0.5-1.4-0.6c-0.2,0-0.3-0.2-0.3-0.3
							s0-0.2,0-0.3c-0.1-0.5-0.5-1-1.1-1.4c-0.5-0.4-1-0.7-1.5-0.9c-0.1,0-0.2-0.1-0.2-0.2c0-0.1,0-0.2,0.1-0.3c0,0,0.1-0.1,0.1-0.3
							c-0.1-0.4-0.7-1.1-1.2-1.4c-0.7-0.4-1.5-0.6-2.2-0.7c-1.1-0.2-2.2,0-3.3,0.4c-0.2,0.1-0.4,0-0.4-0.2c-0.1-0.2,0-0.4,0.2-0.4
							c1.2-0.5,2.5-0.7,3.7-0.5c0.8,0.1,1.7,0.3,2.5,0.8c0.4,0.2,1.3,1,1.5,1.8c0,0.1,0,0.3,0,0.4c0.5,0.2,1,0.5,1.4,0.9
							c0.4,0.3,1,1,1.3,1.7c0,0.1,0,0.1,0,0.2c0.5,0.1,1,0.4,1.4,0.7c0.8,0.6,1.4,1.5,1.8,2.2c0.8,0,1.5,0.1,2.1,0.3
							c1.3,0.5,2.5,1.6,2.2,2.9C87.1,41.9,86.9,42,86.8,42z"/>
					</g>
					<g>
						<path class="st9" d="M75.5,44.2c-0.1,0-0.1,0-0.2,0c-0.2-0.1-0.2-0.3-0.1-0.5c1.3-2.2,3.1-4.4,5.8-4.8c0.2,0,0.3,0.1,0.4,0.3
							c0,0.2-0.1,0.3-0.3,0.4c-2.5,0.3-4.1,2.4-5.3,4.5C75.7,44.2,75.6,44.2,75.5,44.2z"/>
					</g>
					<g>
						<path class="st9" d="M71.6,40.6c-0.1,0-0.1,0-0.2,0c-0.2-0.1-0.2-0.3-0.1-0.5c1.5-2.6,4.5-4.1,6.7-4.3c0.2,0,0.3,0.1,0.4,0.3
							c0,0.2-0.1,0.3-0.3,0.4c-2,0.3-4.8,1.7-6.2,4C71.9,40.6,71.8,40.6,71.6,40.6z"/>
					</g>
					<g>
						<path class="st9" d="M68.6,37.7c-0.1,0-0.1,0-0.2,0c-0.2-0.1-0.2-0.3-0.1-0.4c1.5-2.8,4.7-4.1,6.9-4.4c0.2,0,0.3,0.1,0.4,0.3
							c0,0.2-0.1,0.3-0.3,0.4c-2.1,0.3-5,1.5-6.4,4.1C68.8,37.6,68.7,37.7,68.6,37.7z"/>
					</g>
				</g>
			</g>
			<g>
				<path class="st9" d="M60.4,96.2C60.3,96.2,60.3,96.2,60.4,96.2C60.1,96.1,60,96,60,95.8l0.5-9.2c0-0.2,0.2-0.3,0.4-0.3
					s0.3,0.2,0.3,0.4L60.7,95h0.1c0.2,0.1,0.2,0.3,0.1,0.5L60.6,96C60.6,96.1,60.5,96.2,60.4,96.2z"/>
			</g>
			<g>
				<path class="st9" d="M82.1,64.9C82.1,64.9,82,64.9,82.1,64.9c-0.2,0-0.3-0.1-0.3-0.3c-0.4-2.8-0.6-5.6-0.6-8.4
					c0-0.2,0.2-0.3,0.3-0.3c0.2,0,0.3,0.2,0.3,0.3c0,2.5,0.1,5,0.4,7.5l0,0c0.2,0,0.3,0.2,0.2,0.4l-0.1,0.5
					C82.3,64.8,82.2,64.9,82.1,64.9z"/>
			</g>
			<path class="st7" d="M133.9,80.3c-0.3-0.2-0.7-0.4-1-0.6c-0.1,0-0.2-0.1-0.3-0.2c0.2,0.1,0.2,0.1,0.1,0.1l-0.1-0.1l0,0
				c-0.3-0.9-1.3-1.4-2.2-0.9c-0.4,0.2-0.9,0.6-1.3,0.9c-0.4,0.3-0.7,0.6-1,0.9c-0.4,0.4-0.7,0.7-1,1.1c0,0-0.2,0.3,0,0.1
				c-0.1,0.1-0.2,0.2-0.3,0.3c-0.2,0.3-0.3,0.6-0.5,0.9c-0.2,0.5,0.1,1.1,0.5,1.3c0.4,0.3,0.9,0.3,1.4,0.1c0.2-0.1,0.5-0.3,0.7-0.5
				l0.1-0.1l0.2-0.1c0.4-0.3,0.8-0.6,1.1-0.9c0.2-0.2,0.5-0.4,0.7-0.6c0.2,0.2,0.5,0.4,0.7,0.5s0.3,0.2,0.5,0.2
				c0.1,0,0.2,0.1,0.4,0.2l0.1,0.1l0.1,0.1c0,0,0,0,0.1,0.1l0,0l0,0c-0.3,0.3-0.6,0.6-1,0.9c-0.7,0.7-1.4,1.3-2.1,2
				c-0.4,0.4-0.5,1.2,0,1.6c0.5,0.5,1.1,0.4,1.6,0c0.8-0.6,1.6-1.4,2.4-2.1c0.8-0.7,1.9-1.4,1.9-2.7
				C135.8,81.9,134.9,80.9,133.9,80.3z"/>
			<path class="st7" d="M45.7,95c-0.5-0.2-0.9-0.1-1.2,0.2c-0.4,0.3-0.6,0.8-0.9,1.1c-0.2,0.3-0.4,0.7-0.7,1
				c-0.1,0.2-0.3,0.4-0.4,0.6c-0.1-0.1-0.2-0.2-0.3-0.3c-0.2-0.2-0.5-0.5-0.7-0.8c-0.1-0.1-0.2-0.2-0.3-0.4c0,0,0-0.1-0.1-0.1
				L41,96.1c-0.1-0.1-0.1-0.2-0.2-0.3l0,0c0-0.1,0.1-0.1,0.1-0.2c0,0,0,0,0.1-0.1l0.1-0.2c0-0.1,0.1-0.1,0.1-0.2
				c0.1-0.1,0.2-0.2,0.3-0.4c0.1-0.1,0.2-0.3,0.3-0.4c0-0.1,0.1-0.1,0.1-0.2S42,94,42,93.9c0.1-0.1,0.1-0.2,0.1-0.1
				c0.4-0.4,0.4-1,0.1-1.5c-0.3-0.4-1-0.6-1.5-0.3c-0.4,0.2-0.8,0.5-1.1,0.8s-0.6,0.7-0.9,1c-0.3,0.4-0.5,0.7-0.6,1.2
				c-0.2,0.6,0,1.2,0.3,1.8c0.4,0.7,1,1.4,1.5,2.1c0.3,0.3,0.5,0.6,0.8,0.9c0.1,0.1,0.3,0.3,0.4,0.4c0.1,0.1,0.1,0.1,0.2,0.2
				l0.1,0.1c-0.1-0.1-0.1-0.1,0,0c0.5,0.7,1.6,1,2.3,0.3c0.6-0.7,1.1-1.5,1.5-2.4c0.2-0.4,0.4-0.9,0.6-1.4c0.2-0.5,0.4-0.9,0.4-1.4
				C46.4,95.6,46.1,95.2,45.7,95z"/>
			<g>
				<path class="st11" d="M116,94.8c-0.1,0-0.1,0-0.2-0.1c-0.2-0.1-0.2-0.3-0.1-0.5c3.7-5.7,8.4-10.6,13.8-14.7
					c0.1-0.1,0.4-0.1,0.5,0.1c0.1,0.1,0.1,0.4-0.1,0.5c-5.3,4.1-9.9,9-13.6,14.6C116.2,94.8,116.1,94.8,116,94.8z"/>
			</g>
			<g>
				<path class="st11" d="M39.2,93.5c-0.1,0-0.2,0-0.2-0.1c-0.1-0.1-0.1-0.3,0-0.5c2.4-2.6,4.9-5.2,7.3-7.6c1.5-1.5,3.1-3,5-4.2
					c2.4-1.5,5.1-2.4,7.7-3.2c0.2,0,0.4,0,0.4,0.2c0.1,0.2,0,0.4-0.2,0.4c-2.6,0.8-5.3,1.7-7.6,3.2c-1.8,1.1-3.4,2.6-4.9,4.1
					c-2.4,2.4-4.9,4.9-7.3,7.5C39.4,93.4,39.3,93.5,39.2,93.5z"/>
			</g>
		</g>
	</g>
</g>
<path class="st4" d="M119.2,204.4c-1-0.3-2.3,0.2-4,0.9c-3.2,1.2-6.3,2.2-9.6,2.7c-3.8,0.7-7.8,0.9-11.8,1c-4,0.2-7.9,0.3-12,0.4
	c-1.4,0-2.9-0.1-4.2,0.3c-3.7,1.3,1.2,10.2,2.1,12.6c1.7,4.6,4.4,9,7.8,12.5c3.9,3.8,6.1,4.8,11.6,4.7c8.7-0.1,14.7-4,18.1-12.3
	c1.5-3.7,2.3-7.6,2.7-11.5c0.3-2.7,0.9-5.5,0.7-8.3C120.3,205.6,119.9,204.8,119.2,204.4z"/>
<path class="st12" d="M108.7,223.7c-0.6,4.4-3.7,8.1-8.3,8.1c-4.6,0-8.3-2.3-8.3-8.1c0-4.5,3.8-8.7,8.3-8.7S109.7,216.8,108.7,223.7
	z"/>
</svg>
