<?xml version="1.0" encoding="utf-8"?>
<!-- Generator: Adobe Illustrator 27.4.1, SVG Export Plug-In . SVG Version: 6.00 Build 0)  -->
<svg version="1.1" id="Layer_1" xmlns="http://www.w3.org/2000/svg" xmlns:xlink="http://www.w3.org/1999/xlink" x="0px" y="0px" viewBox="0 0 151.7 400" style="enable-background:new 0 0 151.7 400;" xml:space="preserve">
<style type="text/css">
	.st0{clip-path:url(#SVGID_00000138542549455073118680000001310647559748760233_);}
	.st1{fill:#F5825F;}
	.st2{fill:#AD4A3D;}
	.st3{fill:#832424;}
	.st4{fill:#978AB1;}
	.st5{fill:#5C3751;}
	.st6{fill:#24142C;}
	.st7{fill:#407EC0;}
	.st8{fill:#FFEDDB;}
	.st9{fill:#F18444;}
	.st10{fill:#40263E;}
	.st11{fill:#FCCBB5;}
	.st12{fill:#DB5248;}
</style>
<g>
	<defs>
		<rect id="SVGID_1_" x="-69" y="-77" width="268" height="362"/>
	</defs>
	<clipPath id="SVGID_00000106123008386750242100000007941227647762720656_">
		<use xlink:href="#SVGID_1_" style="overflow:visible;"/>
	</clipPath>
	<g style="clip-path:url(#SVGID_00000106123008386750242100000007941227647762720656_);">
		<path class="st1" d="M41.4,128.9c0.5-0.7,1-1.3,1.5-1.8c5.5-6.6,15-27.1,18.5-35c1.6-3.6,3.2-7.4,4.4-11.1c1-3.2,1.2-6.8-0.4-9.9
			c-2-3.9-6.1-5.8-10.5-5.6c-3,0.2-4.9,2.6-6.4,4.9c-5.6,8.5-16.2,30.1-21.4,38.9c-2.6,4.4-5.2,9-7.5,13.6c-2,3.9-3,7.8-0.5,11.9
			c2.6,4.1,7.9,4.7,12.2,3.3C35.1,136.7,38.6,132.3,41.4,128.9z"/>
		<g>
			<path class="st2" d="M2.8,84.1c-0.4-1.5-0.9-3.1-1.3-4.6c-1.2-4.3-3-6.9,1.2-11.3c1-1,4.9-3,6.2-3.7c3-1.7,1.8-4.9,0.6-7.4
				C8.8,55.6,6.2,50,8.8,49s4.9,5,5.7,6.6c3,5.9,5.3,12.2,7.4,18.5c1.9,5.9,3,12,4.9,17.9c2.5,7.6,4,15.6,6.8,23
				c7.4,19.4-13,30.5-17.9,13.9C11.3,114.1,7,99.1,2.8,84.1z"/>
			<g>
				<path class="st3" d="M13.9,74.4c-0.1,0-0.3-0.1-0.3-0.2c-0.1-0.2,0-0.4,0.2-0.4c0.2-0.1,0.4-0.2,0.5-0.5c0.4-1.2-0.5-4-2.5-7.9
					c-0.1-0.2,0-0.4,0.1-0.5c0.2-0.1,0.4,0,0.5,0.1c1.5,2.9,3.2,6.7,2.5,8.5c-0.2,0.4-0.4,0.7-0.8,0.9C14,74.4,13.9,74.4,13.9,74.4z
					"/>
			</g>
			<g>
				<path class="st3" d="M9.8,76.7c-1.1,0-2.2-1.2-2.9-2c-0.1-0.1-0.1-0.4,0-0.5s0.4-0.1,0.5,0c1,1.2,2,1.9,2.6,1.7
					c0.2-0.1,0.3-0.2,0.4-0.4c0.4-1.1-0.6-4-2.6-7.9c-0.1-0.2,0-0.4,0.1-0.5c0.2-0.1,0.4,0,0.5,0.1c1.6,2.9,3.3,6.7,2.7,8.4
					c-0.1,0.4-0.4,0.7-0.8,0.8C10.1,76.7,10,76.7,9.8,76.7z"/>
			</g>
			<g>
				<path class="st3" d="M6.4,79.7c-0.3,0-0.6-0.1-1-0.3c-1.6-0.8-3.4-3.5-3.7-4.7c0-0.2,0.1-0.4,0.3-0.4s0.4,0.1,0.4,0.3
					c0.2,0.9,1.9,3.5,3.3,4.2C6.2,79,6.4,79,6.7,79c0.2-0.1,0.3-0.2,0.4-0.4c0.4-1.1-0.5-4-2.7-7.9c-0.1-0.2,0-0.4,0.1-0.5
					c0.2-0.1,0.4,0,0.5,0.1c1.6,2.9,3.3,6.7,2.7,8.4c-0.1,0.4-0.4,0.7-0.8,0.8C6.8,79.6,6.6,79.7,6.4,79.7z"/>
			</g>
			<g>
				<path class="st2" d="M18.7,71.4C11,71.6,6.4,73.1,7.2,75.6s5.6,1.8,6.5,2c0.9,0.3-0.8,2.3,0.8,4.2c1.6,1.9,3.9,2.7,3.9,2.7
					L18.7,71.4z"/>
				<path class="st3" d="M18.4,84.8h-0.1c-0.1,0-2.4-0.8-4.1-2.8c-1.1-1.3-0.8-2.6-0.7-3.4c0-0.3,0.1-0.6,0.1-0.7
					c-0.2,0-0.6-0.1-1.1-0.1c-1.9,0-5-0.1-5.6-2.2c-0.2-0.6-0.1-1.3,0.3-1.8c1.2-1.7,5.3-2.7,11.5-2.8l0,0c0.2,0,0.3,0.1,0.3,0.3
					c0,0.2-0.1,0.3-0.3,0.3c-5.8,0.1-9.9,1-11,2.5c-0.3,0.4-0.3,0.8-0.2,1.2C8,77,10.8,77,12.5,77c0.6,0,1,0,1.3,0.1
					c0.7,0.2,0.5,0.9,0.4,1.5c-0.2,0.8-0.3,1.8,0.5,2.8c1.6,1.8,3.7,2.5,3.8,2.5c0.2,0.1,0.3,0.3,0.2,0.4
					C18.7,84.7,18.6,84.8,18.4,84.8z"/>
			</g>
		</g>
		<path class="st1" d="M53.5,67c0-0.9,0-1.7,0-2.6c0-0.4-0.2-2.4-1-1c-0.1,0-0.2,0.1-0.3,0.2c-3.9,4.8-6.8,10.4-9.7,15.8
			c-3.6,6.4-6.7,13.1-10,19.6c-0.5,0.9-1,1.9-1.5,2.9c-0.4-1.3-0.8-2.7-1.2-4c-0.6-2.2-1.3-4.3-1.9-6.5c-0.3-1.1-0.7-2.3-1-3.4
			c-0.2-0.7-0.5-1.4-0.7-2.1c-0.1-0.3-0.2-1.4-0.4-1.5c-1.1-0.6-2.9,1.8-3.6,2.4c-3.9,3.7-8.4,6.6-13.3,8.8C8,96,6.7,96.2,6.3,97.2
			c-0.4,1.1,0.4,3.4,0.6,4.6c0.6,3.3,1.4,6.6,2.3,9.9c1.5,5.7,3.1,11.3,5.5,16.7c2.1,4.8,4,11.2,10.2,11.7c6,0.5,11-3.5,14.7-7.8
			c3.9-4.6,7.3-9.8,10-15.2c1.9-3.8,2.1-7.9,2.4-12c0.4-4.5,0.7-8.9,0.9-13.4c0.2-5.1,0.4-10.2,0.5-15.4c0-2.6,0.1-5.2,0.1-7.8
			C53.4,67.9,53.5,67.5,53.5,67z"/>
		<g>
			<g>
				<path class="st2" d="M135.3,353.3c0,0-10.5,6.6-12.8,8.8c-2.2,2.1-8.8,6.9-8.6,7.3c1.2,2,2.8,3.7,4.3,5.4c0,0,5.3,5.6,8.1,9.3
					c6.2-4.2,13-8.8,19.4-13.1C140.8,363.3,135.3,353.3,135.3,353.3z"/>
				<path class="st4" d="M145.7,371c-6.4,4.3-13.2,8.9-19.4,13.1c0.9,1.2,1.6,2.2,1.8,2.7c7-3.8,13.7-7.6,19.9-12.4
					c-0.1-0.1-0.1-0.2-0.2-0.3C147.1,373.1,146.4,372.1,145.7,371z"/>
				<path class="st5" d="M128.1,386.8c0,0.1,0.1,0.2,0.1,0.3c0,0.6-0.2,1.1-0.4,1.6c-0.4,0.8-1,1.4-1.6,2.1c-1,1.2-2.2,2.3-2.9,3.8
					c-0.7,1.4-0.7,3.2,0.2,4.5c0.5,0.8,0.7,1,3.7-1.1c3.8-2.7,20.3-13.6,24.3-17c0.3-0.3,0.4-0.6,0.2-0.9c-0.8-1.4-2.1-3.4-3.6-5.6
					C141.8,379.2,135.2,383,128.1,386.8z"/>
			</g>
			<path class="st5" d="M79.8,258.5c0.2,0.8,0.4,1.5,0.7,2.2c1.1,2.5,6.1,12.9,8.2,15.6c8.3,10.5,14.6,22.1,22.8,32.7
				c7.2,9.3,16.8,23.1,24,32.5c2.6,3.4,7.5,7.8,9,11.9c0.7,1.8-8.6,7.2-10.7,9c-7.8,6.9-18.3,14.9-18.8,14
				c-10.8-13.1-24-31.9-34.7-44.8c-8.4-10.2-27.7-37.8-35.9-48.2c-10-12.6-6.3-30.9-3.9-61.6c1.3-16.1,3.3-30.9,5.2-46.7
				s3.3-32.6,5.8-48.2c0.9-5.7,4-10.7,9.7-13.3c6.8-3,14.5-1.2,22.2,0.3c9.4,1.8,15.9,4.6,16,14c0.2,17.9-6.2,35-8.6,52.7
				c-2.9,21.7-5.7,43.4-10.4,64.8C79.7,249.6,78.9,254.3,79.8,258.5z"/>
			<g>
				<path class="st2" d="M103.2,367.5c0,0-12.4-0.4-15.6,0.1c-3,0.5-11.2,0.8-11.2,1.2c-0.1,2.3,0.3,4.6,0.5,6.9
					c0.1,0,1.2,7.6,1.5,12.3c7.5,0,15.7,0,23.4,0C102.1,378.9,103.2,367.5,103.2,367.5z"/>
				<path class="st4" d="M101.9,388c-7.7,0-15.9,0-23.4,0c0.1,1.5,0.1,2.7,0,3.2c8,0.8,15.6,1.3,23.4,0.8c0-0.1,0-0.3,0-0.4
					C101.8,390.6,101.9,389.3,101.9,388z"/>
				<path class="st5" d="M78.5,391.3c0,0.1-0.1,0.2-0.1,0.3c-0.3,0.5-0.8,0.8-1.2,1.1c-0.8,0.4-1.7,0.6-2.6,0.8
					c-1.5,0.4-3.1,0.7-4.5,1.5s-2.4,2.3-2.4,3.8c0,0.9,0,1.3,3.6,1.2c4.7-0.1,24.4,0.1,29.7-0.5c0.4,0,0.6-0.3,0.7-0.7
					c0.1-1.6,0.2-3.9,0.2-6.7C94,392.6,86.4,392,78.5,391.3z"/>
			</g>
			<path class="st5" d="M95.8,378.3c2.8,0,13.3,1.9,14,0.1c1.5-4.1,0.7-10.6,0.9-14.9c0.7-11.8,1.3-23.6,1.9-35.4
				c1.5-28.5,2.3-57.1,4.4-85.6c1.6-21.8,1.3-43.8,1.1-65.7c-0.1-17.8,3.8-35.7,1.1-53.4c-1.5-9.4-8.3-11.1-17.8-11.6
				c-7.8-0.4-15.7-1.1-22,2.8c-5.3,3.3-7.7,8.8-7.8,14.5c-0.3,15.7,0.7,32.6,1,48.5c0.3,16,0.3,30.9,1.4,47
				c1.2,16.4,1.5,32.8,1.2,49.4c-0.3,16.9-0.7,33.8-1,50.9c-0.3,16.8-1.5,34.7-1.8,51.7C72.3,377.6,85.4,378.4,95.8,378.3z"/>
			<g>
				<path class="st6" d="M75.2,317.6c-0.2,0-0.3-0.1-0.3-0.3l-4.2-161.4c0-0.2,0.1-0.3,0.3-0.3l0,0c0.2,0,0.3,0.1,0.3,0.3l4.2,161.4
					C75.5,317.4,75.4,317.6,75.2,317.6L75.2,317.6z"/>
			</g>
			<g>
				<path class="st7" d="M109.8,367.4L109.8,367.4c-0.2,0-0.3-0.2-0.3-0.4l2.8-52.4c0-0.2,0.2-0.3,0.3-0.3l0,0
					c0.2,0,0.3,0.2,0.3,0.4l-2.8,52.4C110.2,367.2,110,367.4,109.8,367.4z"/>
			</g>
		</g>
		<path class="st8" d="M48.7,96.5c-0.2-6.3-0.1-12.5-0.1-18.8c0-3.4-0.1-6.8,1-10.1c0.9-2.5,2.4-4.9,4.8-6.1
			c2.6-1.3,5.8-1.4,8.7-1.7c15.3-1.3,31.3-1.3,46.6,0c2.9,0.3,10.9,2.1,13.6,3.4c2.4,1.2-1,1.9-0.1,4.4c1.1,3.3,1,6.7,1,10.1
			c0,6.3,0.1,12.5-0.1,18.8c-0.3,8.3-0.5,16.5-0.6,24.8c0,2.3-0.1,4.5-0.1,6.8c0,0.8,0.5,4.6-0.4,4.7c-24.5,2.3-48.6,2.2-73,0
			c-1-0.1-0.4-4-0.4-4.7c0-2.3-0.1-4.5-0.1-6.8C49.1,112.9,49,104.7,48.7,96.5z"/>
		<g>
			<path class="st9" d="M48.5,91.4L48.5,91.4c-0.2,0-0.3-0.2-0.3-0.3V77.7c0-0.2,0.2-0.3,0.3-0.3l0,0c0.2,0,0.3,0.2,0.3,0.3v13.4
				C48.8,91.2,48.7,91.4,48.5,91.4z"/>
		</g>
		<g>
			<g>
				<path class="st2" d="M69.1,30.2c0.1-2.3,0.4-4.6,0.5-7c0.2-3.1,0.4-6.2,1.2-9.3C72.3,8,76.1,3,82.3,1.4
					c3.3-0.9,7.1-0.3,10.4,0.3c2.9,0.6,5.2,1.5,7.3,3.6c3.2,3.2,4.8,7.7,4.3,12.2c-0.3,3-1,6.1-2.2,8.8c-1.2,2.5-2.8,4.8-4.4,7
					c-1.6,2.3-3.5,4.6-4.3,7.4C92,45.5,92.4,51,93,55.9c0.2,1.7,0.8,3.6,0.7,5.4c0,1-1.2,1.5-1.9,1.8c-3.2,1.5-6.7,2.1-10.3,1.6
					c-1.5-0.2-3-0.6-4.4-1.2c-0.9-0.4-3-1.1-2.8-2.4l0,0c0.6-3.2,1.5-6.3,2.1-9.5c0.7-3.3,0.9-6.5,1-9.8c-1.1-0.2-2.3-0.3-3.4-0.7
					s-2.3-0.9-3.1-1.8c-1.7-1.9-1.8-4.7-1.8-7.1C69.1,31.5,69.1,30.9,69.1,30.2z"/>
				<path class="st5" d="M88.2,17.4c0.1,0.8-0.1,1.5-0.7,1.6c-0.6,0-1.3-0.6-1.3-1.4c-0.1-0.8,0.6-1.3,1.2-1.4
					C87.9,16.2,88.1,16.6,88.2,17.4z"/>
				<path class="st5" d="M77.3,16.8c0.1,0.8-0.1,1.5-0.7,1.6s-1.3-0.6-1.3-1.4c-0.1-0.8,0.6-1.3,1.2-1.4
					C77,15.5,77.2,15.9,77.3,16.8z"/>
				<g>
					<path class="st3" d="M80.1,27.1c-0.7,0-1.4-0.1-2.1-0.5c-0.2-0.1-0.2-0.3-0.1-0.5s0.3-0.2,0.5-0.1c1.7,0.9,3.4,0.2,4.1-0.3
						c0.2-0.1,0.4-0.1,0.5,0.1s0.1,0.4-0.1,0.5C82.2,26.7,81.2,27.1,80.1,27.1z"/>
				</g>
				<g>
					<path class="st3" d="M79.2,23.5c-0.1,0-0.2,0-0.3-0.1c-0.1-0.1-0.1-0.2-0.1-0.3l1.7-7.6c0-0.2,0.2-0.3,0.4-0.3
						c0.2,0,0.3,0.2,0.3,0.4l-1.6,7.2l3-0.2c0.2,0,0.4,0.1,0.4,0.3c0,0.2-0.1,0.3-0.3,0.4L79.2,23.5L79.2,23.5z"/>
				</g>
				<g>
					<path class="st3" d="M78.8,42.1c-0.3,0-0.6,0-0.8,0c-0.1,0-0.2,0-0.2,0c-0.2,0-0.3-0.2-0.3-0.3c0-0.2,0.2-0.3,0.3-0.3
						c0.1,0,0.1,0,0.2,0c0.6,0,2.3,0.1,3.7-0.5c0.2-0.1,0.4,0,0.5,0.2s0,0.4-0.2,0.5C80.9,42,79.7,42.1,78.8,42.1z"/>
				</g>
				<path class="st10" d="M74,6.4c0.5,0.5,1.3,0.2,1.9,0.1C79,5.9,82.3,6,85.4,6.3c1.4,0.1,2.8,0.3,4.1,0.9c2.3,1,3.7,3,3.9,5.5
					c0.1,1.5,0.1,3-0.1,4.6c-0.1,0.8-0.2,1.5-0.4,2.3c-0.1,0.6-0.4,1.3-0.1,1.9c0.4,0.8,0.9,0.3,1.7,0.2c0.6-0.1,2.6,0,2.7,0.8
					c0.1,0.6-0.1,1.3-0.3,1.9c-0.5,1.3-1.2,2.5-1.8,3.8c-1.4,3.4-1.7,6.9-1.9,10.5c-0.1,0.8,1.1,0.8,1.3,0.2
					c0.9-2.2,2.3-4.1,3.8-5.9c1.5-1.9,2.9-3.8,4-6c1.7-3.6,2.7-7.8,2.7-11.8c0-3.3-0.9-6.6-3.1-9.1c-4-5.1-11-6-17-5.5
					c-2.2,0.2-4.4,0.6-6.5,1.3c-1.3,0.4-2.6,1-3.5,2C74.4,4.4,73.2,5.6,74,6.4z"/>
				<path class="st2" d="M92.7,25.1c0.3-1.7,1.7-3.7,2.7-4.5c1.3-1.1,3.3-1.7,4.9-0.7c3.1,1.9-1,6.8-2.7,7.9
					c-0.6,0.4-2.5,0.7-3.3,0.6C92.6,28.1,92.5,26.4,92.7,25.1z"/>
			</g>
			<path class="st5" d="M73.7,7.4c0.4-0.7,0.7-0.8,1.5-0.8c1.9,0.1,3.4,1,5.2,1c1.1,0,3.6-1.7,6.3-1.2c5.6,1,8.7,0.9,12.9,0
				c1.9-0.4,3.9-0.7,1.8-3.4c-1.5-1.8-4.4-2-6.5-2.4C90.1-0.3,85.1,0,80.2,0.5c-3.4,0.3-9.2,0.3-7.9,5.6C72.4,6.5,73.2,7.6,73.7,7.4
				z"/>
		</g>
		<path class="st1" d="M73.8,52.7C73,53,71,55.9,70.6,56.2c-1.9,1.4-2.6,2.2-4.9,2.7c-3.8,1-9.3,0.5-12.5,3.1
			c-2.8,2.3-3.7,4.8-4.7,8.2c-1.8,6.3-1,13.9-1.3,20.4c-0.4,7.6-0.8,15.2-1.2,22.9c0,21.4-2.4,42.7-3.6,64c-0.1,1.1-0.1,2.1-0.2,3.2
			c0,0.8-0.2,1.7,0.1,2.5c1.1,3.1,7.4,1.3,10.1,0.6c5-1.2,5.2-9,5.6-13.5c1.6-18.1,1.9-29.7,3.7-47.9c1-9.2,2-18.4,3.3-27.6
			c1.2-8.7,1.9-17.8,5.1-26c1.3-3.3,3.1-5.9,4.3-9.2c0.3-0.9,1.3-6,1.8-7.7C76.4,51.5,74.3,52.5,73.8,52.7z"/>
		<path class="st1" d="M124.7,143.3c-0.5-6.8-0.6-13.5-0.4-20.3s0.4-13.6,0.6-20.5c0.2-7.7,0.6-15.5,0.5-23.2c0-0.4-0.3-0.6-0.6-0.6
			c0.1-1-0.4-2-1.3-2.7c-1.2-1-2.8-1.1-4.3-0.6c-1.7,0.6-3,1.8-4.4,2.9c-1.4,1.2-2.8,2.4-4.2,3.6c-5.5,4.9-10.6,10.4-15,16.3
			c-1.3,1.7-2.5,3.4-3.7,5.1s-2.5,3.5-3.4,5.4c-0.2,0.3,0,0.7,0.3,0.9c0.3,13.3,1.1,26.6,1.9,39.9c0.4,6.3,0.7,12.6,1.1,19
			c0.2,3.1,0.3,6.2,0.5,9.4c0.1,2.4,0.3,5,2.4,6.5c1.8,1.3,4,1.9,6.1,2.2c8.9,1.4,18.6,1.9,27-1.9c0.2-0.1,0.4-0.4,0.4-0.7
			C127,170.5,125.8,156.9,124.7,143.3z"/>
		<g>
			<path class="st11" d="M112.4,72.4c-6,9.9-19,24.3-23.8,31.8c-1.5,2.3-2.9,5-1.8,7.8c1.6,4.1,5,7,9.4,7.2c3.5,0.2,6.6-1.5,9.2-3.7
				c2.9-2.6,5.7-5.7,8.3-8.6c3.5-3.8,10.7-11.2,15.8-18.8C135.7,78.8,116.4,65.8,112.4,72.4z"/>
			<path class="st1" d="M132.9,74.8c-0.4-2.3-1.3-4.5-2.7-6.3c-1.2-1.6-2.8-3-4.5-4.1c-0.1-0.1-0.1-0.2-0.3-0.3
				c-5.4-2.7-11.2-4.4-17.2-5.1c-0.8-0.1-1.5-0.1-2.3-0.2c-0.6,0-3.4-0.9-3.9-0.6c-1.1,0.5,0.5,2.9,0.1,4c-1,2.7-1.4,5.6-1.6,8.5
				c-0.2,2.8,0,5.5,0.2,8.3l-0.1,0.1c-0.8,1.3-2.3,3.1-0.2,4.1c7.7,3.5,14.5,9,19.4,15.8c0.5,0.7,1.4,1.6,2.2,1.2
				c0.8-0.3,1.3-1.6,1.8-2.2C129.3,90.5,134.9,84.8,132.9,74.8z"/>
			<g>
				<g>
					<g>
						<path class="st5" d="M112.4,36.1c0.1-1.7-11.4-14.8-12.8-14c-2.3,1.4-24,22.3-24,23.3c0,1.6,10.7,13,12.5,12.8
							C89.1,58.2,112.2,38.8,112.4,36.1z"/>
					</g>
				</g>
				<g>
					<path class="st2" d="M104.4,112.6c0.1-0.3,0.3-0.7,0.4-1c2.3-6.6-0.5-13-1.1-19.6c-0.8-10.1-0.1-20,0.3-30
						c0.3-6.5,1.6-14.6-0.3-21c-0.9-3.1-2.2-6.1-4.4-8.6c-2-2.3-4.9-4.3-8.1-3.8c-0.7,0.1-2.6,0.6-3.1,1.3c-0.3,0.4-1,1.1-0.6,1.6
						c-0.6,0.2-1.2,0.5-1.7,0.9s-1,1-1.2,1.6c0,0.1,0,0.3,0,0.4c-0.6,0.1-1.1,0.3-1.6,0.7c-0.8,0.6-1.4,1.4-1.9,2.3
						c-0.8,0-1.5,0-2.3,0.3c-1,0.4-2.3,1.3-2,2.5c0.1,0.6,0.6,1,1.1,1.2c0.7,0.3,1.4,0,2.1,0.1c0.9,0.1,1.2,1.1,1.4,1.9
						c0.2,0.9,0.4,1.8,0.5,2.8c0.2,1.7,0.3,3.5,0.4,5.2C82.9,63.6,80.1,75.7,80,88c0,10.7,2,25.2,13.1,29.9
						C98.3,120.1,102.4,117.1,104.4,112.6z"/>
					<g>
						<path class="st3" d="M76.9,40.5c-0.2,0-0.3-0.1-0.3-0.3c-0.3-1.3,0.9-2.4,2.2-2.9c0.7-0.2,1.4-0.4,2.2-0.3
							c0.4-0.7,1-1.6,1.8-2.2c0.4-0.3,0.9-0.6,1.5-0.7c0-0.1,0-0.1,0-0.2c0.2-0.8,0.9-1.5,1.3-1.8c0.4-0.4,0.9-0.7,1.5-0.9
							c0-0.1,0-0.3,0-0.4c0.1-0.8,1.1-1.6,1.5-1.8c0.8-0.5,1.7-0.7,2.6-0.8c1.2-0.2,2.5,0,3.8,0.5c0.2,0.1,0.3,0.3,0.2,0.4
							c-0.1,0.2-0.3,0.3-0.4,0.2c-1.2-0.5-2.3-0.6-3.4-0.5c-0.8,0.1-1.6,0.3-2.3,0.7c-0.5,0.3-1.1,0.9-1.2,1.4c0,0.1,0,0.2,0.1,0.3
							c0.1,0.1,0.1,0.2,0.1,0.3c0,0.1-0.1,0.2-0.2,0.2c-0.6,0.2-1.1,0.5-1.6,0.9c-0.5,0.5-0.9,1-1.1,1.5c0,0.1,0,0.2,0,0.3
							c0,0.2-0.1,0.3-0.3,0.3c-0.5,0.1-1,0.3-1.4,0.7c-0.8,0.6-1.4,1.5-1.8,2.2c-0.1,0.1-0.2,0.2-0.3,0.2c-0.8,0-1.5,0-2.1,0.3
							c-0.8,0.3-2.1,1.1-1.8,2.1C77.3,40.3,77.2,40.5,76.9,40.5L76.9,40.5z"/>
					</g>
					<g>
						<path class="st3" d="M88.5,42.8c-0.1,0-0.2-0.1-0.3-0.2c-1.3-2.1-2.9-4.3-5.4-4.6c-0.2,0-0.3-0.2-0.3-0.4s0.2-0.3,0.4-0.3
							c2.8,0.4,4.6,2.7,5.9,4.9c0.1,0.2,0,0.4-0.1,0.5S88.5,42.8,88.5,42.8z"/>
					</g>
					<g>
						<path class="st3" d="M92.4,39.1c-0.1,0-0.2-0.1-0.3-0.2c-1.4-2.3-4.3-3.8-6.3-4.1c-0.2,0-0.3-0.2-0.3-0.4s0.2-0.3,0.4-0.3
							c2.2,0.3,5.3,1.8,6.8,4.4c0.1,0.2,0,0.4-0.1,0.5S92.5,39.1,92.4,39.1z"/>
					</g>
					<g>
						<path class="st3" d="M95.5,36.1c-0.1,0-0.2-0.1-0.3-0.2c-1.4-2.6-4.4-3.9-6.6-4.2c-0.2,0-0.3-0.2-0.3-0.4
							c0-0.2,0.2-0.3,0.4-0.3c2.3,0.3,5.5,1.6,7.1,4.5c0.1,0.2,0,0.4-0.1,0.5C95.7,36.1,95.6,36.1,95.5,36.1z"/>
					</g>
				</g>
			</g>
			<path class="st1" d="M124.5,94.6c-2.9-2.6-6.1-5-9.6-6.9c-1.7-0.9-3.4-1.8-5.2-2.5c-1.1-0.5-2.5-1.2-3.8-1.1
				c-0.1-3.2-0.5-6.4-0.6-9.5c-0.3-5.3-0.1-10.7,0.4-16c0.1-0.6-0.5-0.8-1-0.8c-3.9,0.7-7.7,1.2-11.6,1.7c-1.9,0.2-3.7,0.4-5.6,0.5
				s-3.9,0.1-5.8,0.5c-0.4,0.1-0.5,0.5-0.4,0.9c-1.2,7.1-2,14.4-2.2,21.7c-0.2,7,0.3,14,2,20.8c2.1,8.4,6.7,18.3,17.2,16
				c4.7-1,8.2-4.3,11.6-7.5c5.3-5,9.7-10.9,14.6-16.3C124.8,95.4,124.9,94.9,124.5,94.6z"/>
			<g>
				<path class="st12" d="M104,96c-0.2,0-0.3-0.1-0.3-0.3c-0.1-1.6,0.2-8.5,0.5-16.4c0.3-7.3,0.6-14.9,0.7-19.5
					c0-0.2,0.2-0.4,0.3-0.3c0.2,0,0.3,0.2,0.3,0.3c-0.1,4.6-0.4,12.2-0.7,19.5c-0.3,7.6-0.6,14.8-0.5,16.4
					C104.3,95.8,104.2,96,104,96L104,96z"/>
			</g>
			<g>
				<path class="st12" d="M95.4,120.3c-1.7,0-3.4-0.4-4.9-1.1c-0.2-0.1-0.2-0.3-0.2-0.5c0.1-0.2,0.3-0.2,0.5-0.2
					c2.2,1.1,4.7,1.3,7.5,0.7c4.7-1,8.1-4.3,11.5-7.5c3.6-3.4,6.8-7.2,9.9-10.9c1.5-1.8,3-3.6,4.6-5.4c0.1-0.1,0.3-0.1,0.5,0
					c0.1,0.1,0.2,0.3,0,0.5c-1.6,1.8-3.1,3.6-4.6,5.4c-3.1,3.7-6.4,7.6-10,11c-3.4,3.2-6.9,6.6-11.8,7.6
					C97.4,120.2,96.3,120.3,95.4,120.3z"/>
			</g>
		</g>
		<g>
			<path class="st3" d="M82.2,60.1L82.2,60.1c-0.2,0-0.4-0.2-0.3-0.4c0.1-1.5,0.2-3.1,0.1-4.6c0-0.2,0.1-0.3,0.3-0.3l0,0
				c0.2,0,0.3,0.1,0.3,0.3c0,1.6,0,3.1-0.1,4.7C82.5,59.9,82.4,60.1,82.2,60.1z"/>
		</g>
		<g>
			<path class="st12" d="M45.9,123.1L45.9,123.1c-0.2,0-0.3-0.2-0.3-0.3c0.1-3.2,0.1-6.2,0.1-9.1l1.2-22.9c0.1-2,0.1-4,0.1-6.2
				c0-4.8,0-9.9,1.2-14.3c0.1-0.2,0.2-0.3,0.4-0.2c0.2,0.1,0.3,0.2,0.2,0.4c-1.2,4.4-1.2,9.3-1.2,14.1c0,2.2,0,4.2-0.1,6.2
				l-1.2,22.9c0,2.9,0,5.9-0.1,9.1C46.2,122.9,46.1,123.1,45.9,123.1z"/>
		</g>
		<g>
			<path class="st12" d="M33.3,109.6c-0.1,0-0.2-0.1-0.3-0.2c-0.6-1.1-1-2.4-1.3-3.6c-0.3-1-0.6-2-1-2.9c-0.1-0.2,0-0.4,0.2-0.4
				c0.2-0.1,0.4,0,0.4,0.2c0.4,1,0.7,2,1.1,2.9c0.4,1.2,0.8,2.4,1.3,3.5c0.1,0.2,0,0.4-0.2,0.5C33.4,109.6,33.3,109.6,33.3,109.6z"/>
		</g>
		<g>
			<path class="st12" d="M61.2,100.3L61.2,100.3c-0.2,0-0.3-0.2-0.3-0.4c0.3-4.6-0.1-9.4-0.5-14.1c-0.2-2.4-0.4-4.8-0.5-7.2
				c0-0.2,0-0.4-0.1-0.5c-0.1-0.5-0.1-1,0.3-1.6c0.5-0.6,1.3-0.7,2-0.7c0.6-0.1,1.1-0.1,1.3-0.4c0.1-0.4-0.7-2.2-1-2.5
				c-0.1-0.1-0.2-0.3-0.1-0.4c0.2-0.6,0.5-1.2,0.7-1.8c0.4-1,0.8-2.1,1.3-3.2c1.3-2.5,2.7-5.3,4.4-7.7c0.1-0.2,0.3-0.4,0.4-0.6
				c0.3-0.4,0.6-0.8,0.8-1.2c0.1-0.2,0.3-0.3,0.4-0.2c0.2,0.1,0.3,0.2,0.2,0.4c-0.2,0.6-0.5,1-0.9,1.5c-0.1,0.2-0.3,0.3-0.4,0.5
				c-1.6,2.4-3.1,5.2-4.3,7.7c-0.5,1-0.9,2.1-1.3,3.1c-0.2,0.5-0.4,1.1-0.6,1.6c0.5,0.7,1.4,2.5,1.1,3.1c-0.3,0.6-1.1,0.7-1.8,0.8
				c-0.6,0.1-1.2,0.1-1.5,0.5c-0.2,0.3-0.2,0.5-0.1,1c0,0.2,0.1,0.4,0.1,0.6c0.1,2.4,0.3,4.8,0.5,7.2c0.4,4.7,0.8,9.5,0.5,14.2
				C61.5,100.1,61.4,100.3,61.2,100.3z"/>
		</g>
		<g>
			<path class="st12" d="M92.2,131.3C92.1,131.3,92.1,131.3,92.2,131.3c-0.4-0.1-0.7-0.3-0.8-0.6c-0.3-0.6-0.3-1.5,0.1-2.8
				c0.1-0.2,0.2-0.3,0.4-0.2c0.2,0.1,0.3,0.2,0.2,0.4c-0.3,1.1-0.4,1.9-0.2,2.3c0,0.1,0.1,0.1,0.1,0.2c0.6-0.7,0.7-1.7,0.5-2.6
				c-0.1,0-0.3-0.1-0.3-0.3c0-0.2,0-0.4,0.1-0.6c0.1-0.1,0.2-0.2,0.3-0.2c0.1,0,0.2,0.1,0.3,0.2C93.4,128.3,93.3,130.2,92.2,131.3
				C92.3,131.3,92.2,131.3,92.2,131.3z"/>
		</g>
		<g>
			<path class="st12" d="M93.6,148.7c-0.1,0-0.3-0.1-0.3-0.2c-0.5-1.2-0.4-2.9,0-4.1c0.1-0.2,0.2-0.3,0.4-0.2
				c0.2,0.1,0.3,0.3,0.2,0.4c-0.3,0.9-0.5,2.3-0.2,3.2c0.1-0.1,0.3-0.3,0.3-0.4c0.4-0.8,0.4-2,0.1-2.5c-0.1-0.2,0-0.4,0.2-0.5
				s0.4,0,0.5,0.2c0.4,0.8,0.3,2.2-0.1,3.1C94.4,148.2,94.1,148.6,93.6,148.7L93.6,148.7z"/>
		</g>
		<g>
			<path class="st12" d="M95,165L95,165c-1.5-0.6-1.1-3-1-3.5c0-0.2,0.2-0.3,0.4-0.3c0.1,0,0.2,0.1,0.3,0.2v-0.1
				c0.1-0.2,0.3-0.3,0.4-0.2c0.4,0.2,0.8,0.5,0.9,1.1c0.2,0.9-0.1,2-0.7,2.7C95.2,164.9,95.1,165,95,165z M94.6,161.5
				C94.6,161.6,94.6,161.6,94.6,161.5c-0.2,1.1-0.2,2.2,0.3,2.6c0.3-0.5,0.5-1.3,0.4-1.8c-0.1-0.3-0.2-0.5-0.5-0.6
				C94.7,161.7,94.6,161.6,94.6,161.5z"/>
		</g>
		<g>
			<path class="st12" d="M108.1,144.7c-0.9,0-1.8-0.1-2.6-0.3c-0.2-0.1-0.3-0.2-0.2-0.4c0.1-0.2,0.2-0.3,0.4-0.2
				c1.7,0.5,4.2,0.2,6.1,0c0.5-0.1,1-0.1,1.4-0.1l1.3-0.1c2.6-0.2,5.4-0.4,7.8-1.1c0.2,0,0.4,0.1,0.4,0.2c0,0.2-0.1,0.4-0.2,0.4
				c-2.4,0.7-5.3,0.9-7.9,1.1l-1.3,0.1c-0.4,0-0.9,0.1-1.4,0.1C110.7,144.6,109.3,144.7,108.1,144.7z"/>
		</g>
		<g>
			<path class="st12" d="M110.5,149.5c-1.3,0-2.7-0.1-4.1-0.6c-0.2-0.1-0.3-0.3-0.2-0.4c0.1-0.2,0.2-0.3,0.4-0.2
				c1.7,0.6,3.4,0.6,5,0.5h0.6c3.1-0.1,7.1-0.3,9.9-1.4c0.2-0.1,0.4,0,0.4,0.2c0.1,0.2,0,0.4-0.2,0.4c-3,1.2-6.9,1.3-10.1,1.4h-0.6
				C111.4,149.4,110.9,149.5,110.5,149.5z"/>
		</g>
		<g>
			<path class="st12" d="M49.1,143.1c-0.1,0-0.1,0-0.2,0c-0.6-0.3-1.3-0.4-2-0.5c-0.6-0.1-1.2-0.2-1.8-0.4c-0.2-0.1-0.3-0.3-0.2-0.4
				c0.1-0.2,0.3-0.3,0.4-0.2c0.5,0.2,1.1,0.3,1.6,0.4c0.7,0.1,1.5,0.2,2.2,0.6C49.3,142.7,49.3,142.9,49.1,143.1
				C49.4,143.1,49.3,143.1,49.1,143.1z"/>
		</g>
		<g>
			<path class="st12" d="M48.5,146.6L48.5,146.6c-0.5-0.1-0.9-0.1-1.4-0.1c-0.6,0-1.3,0-1.9-0.2c-0.2-0.1-0.3-0.3-0.2-0.4
				c0.1-0.2,0.3-0.3,0.4-0.2c0.5,0.2,1.1,0.2,1.7,0.2c0.5,0,1,0,1.4,0.1c0.2,0,0.3,0.2,0.3,0.4C48.8,146.4,48.7,146.6,48.5,146.6z"/>
		</g>
		<g>
			<path class="st12" d="M57.5,149.2c-0.1,0-0.1,0-0.2-0.1c-0.5-0.4-1.1-0.3-1.8-0.2h-0.3c-0.2,0-0.4-0.1-0.4-0.3s0.1-0.4,0.3-0.4
				h0.3c0.7-0.1,1.6-0.2,2.3,0.4c0.1,0.1,0.2,0.3,0.1,0.5C57.7,149.1,57.6,149.2,57.5,149.2z"/>
		</g>
		<g>
			<path class="st12" d="M56.5,162.7h-2.9c-0.2,0-0.3-0.2-0.3-0.3c0-0.2,0.2-0.3,0.3-0.3h2.9c0.2,0,0.3,0.2,0.3,0.3
				S56.7,162.7,56.5,162.7z"/>
		</g>
		<g>
			<path class="st12" d="M106.2,76.4c-0.1,0-0.1,0-0.2-0.1c-0.2-0.1-0.2-0.3-0.1-0.5c1.2-1.7,2.7-3.1,4.2-4.4
				c0.7-0.6,1.4-1.3,2.1-1.9c0.1-0.1,0.3-0.1,0.5,0c0.1,0.1,0.1,0.3,0,0.5c-0.7,0.7-1.4,1.3-2.1,1.9c-1.5,1.3-3,2.7-4.1,4.3
				C106.4,76.4,106.3,76.4,106.2,76.4z"/>
		</g>
	</g>
</g>
</svg>
