<?xml version="1.0" encoding="utf-8"?>
<!-- Generator: Adobe Illustrator 27.4.1, SVG Export Plug-In . SVG Version: 6.00 Build 0)  -->
<svg version="1.1" id="Layer_1" xmlns="http://www.w3.org/2000/svg" xmlns:xlink="http://www.w3.org/1999/xlink" x="0px" y="0px" viewBox="0 0 126.9 400" style="enable-background:new 0 0 126.9 400;" xml:space="preserve">
<style type="text/css">
	.st0{clip-path:url(#SVGID_00000183249247884622308480000011393295853443925895_);}
	.st1{fill:#5C3751;}
	.st2{fill:#AD4A3D;}
	.st3{fill:#832424;}
	.st4{fill:#FFEDDB;}
	.st5{fill:#F5825F;}
	.st6{fill:#DB5248;}
	.st7{fill:#FBBEA2;}
	.st8{fill:#D1D3D4;}
	.st9{fill:#24142C;}
	.st10{fill:#FCCBB5;}
	.st11{fill:#F8B29C;}
</style>
<g>
	<defs>
		<rect id="SVGID_1_" x="-69" y="-77" width="268" height="362"/>
	</defs>
	<clipPath id="SVGID_00000102530020487858940220000008833063636691644821_">
		<use xlink:href="#SVGID_1_" style="overflow:visible;"/>
	</clipPath>
	<g style="clip-path:url(#SVGID_00000102530020487858940220000008833063636691644821_);">
		<g>
			<path class="st1" d="M54.9,392c-0.1-9.2,1.2-23.5,1.2-23.5s-12-0.4-15,0.1c-2.9,0.5-10.8,0.8-10.8,1.2c-0.1,2.2,0.3,4.5,0.5,6.7
				c0.1,0,2.2,14.2,1.4,15.3c-0.3,0.5-0.7,0.8-1.2,1.1c-0.7,0.4-1.6,0.6-2.5,0.8c-1.5,0.4-3,0.7-4.3,1.5s-2.3,2.2-2.3,3.7
				c0,0.9,0,1.2,3.5,1.1c4.5-0.1,23.5,0.1,28.5-0.5c0.4,0,0.6-0.3,0.6-0.7C54.8,397.2,54.9,394.8,54.9,392z"/>
			<path class="st1" d="M92.8,392c0.1-9.2-1.2-23.5-1.2-23.5s12-0.4,15,0.1c2.9,0.5,10.8,0.8,10.8,1.2c0.1,2.2-0.3,4.5-0.5,6.7
				c-0.1,0-2.2,14.2-1.4,15.3c0.3,0.5,0.7,0.8,1.2,1.1c0.7,0.4,1.6,0.6,2.5,0.8c1.5,0.4,3,0.7,4.3,1.5s2.3,2.2,2.3,3.7
				c0,0.9,0,1.2-3.5,1.1c-4.5-0.1-23.5,0.1-28.5-0.5c-0.4,0-0.6-0.3-0.6-0.7C92.9,397.2,92.8,394.8,92.8,392z"/>
			<path class="st2" d="M118.1,386.3c1.1-4.1-2.7-179.9-4.5-200c-1.6-18.5-1.9-38.5-7-56.4c-2.2-8.9-3.4-9.8-12.6-9.4
				c-7.5,0.3-15.1,0.3-20.8,4.6c-4.8,3.7-8.4,9.5-8,15.1c1.1,15.2,3.5,31.5,5.2,46.8c1.7,15.4,18.6,188.3,19,199.1
				C89.4,387.2,117.6,388.1,118.1,386.3z"/>
			<path class="st2" d="M29.3,387.3c-1.1-4.1,4.8-180.8,6.6-200.9c1.6-18.5,2.3-38.3,5.7-57c1.6-9,4.7-9.2,13.9-8.8
				c7.5,0.3,15.1,0.3,20.8,4.6c4.8,3.7,8.4,9.6,8,15.1c-1.1,15.2-3.5,31.5-5.2,46.8c-1.7,15.4-3,29.8-5.4,45.3
				c-2.5,15.8-4.3,31.6-5.4,47.6c-1.2,17-11.6,97-11.9,107.8C56.3,388.8,29.8,389,29.3,387.3z"/>
			<g>
				<path class="st3" d="M74.1,220.9c-0.2,0-0.3-0.1-0.3-0.3L69,177.7c0-0.2,0.1-0.3,0.3-0.4c0.2,0,0.3,0.1,0.4,0.3l4.8,42.9
					C74.4,220.8,74.3,220.9,74.1,220.9L74.1,220.9z"/>
			</g>
		</g>
		<g>
			<path class="st4" d="M86.5,62.3c-5.3-0.3-27.6,0-27.6,0l-3.7,3.4h35L86.5,62.3z"/>
			<g>
				<path class="st5" d="M45.8,72.5c-1.3-1.1-2.9-1.8-4.6-1.9c-1.7-0.2-3.8,0.3-4.9,1.8c-0.5,0.8-0.8,1.8-1,2.8
					c-0.9,4.1-1.3,8.2-1.7,12.3c-0.3,2.8-0.4,5.7-0.9,8.5c-1,6.3-2.2,11.9-3.6,18.2c-1.2,5.6-2.2,11.9-4.4,17.2
					c-2.5,6-5.3,12.4-9,17.7c-3.9,5.6-8.8,10.4-12.1,16.4c-1.9,3.4-3.2,7.1-3.6,11c-0.2,1.9-0.1,3.8,0.3,5.6c0.3,1.3,1,3.8,2.9,3
					c0.5-0.2,0.7-0.6,0.8-1.1c0.2,1,0.6,2,1,2.9c0.5,1.1,1.8,4.3,3.5,3.1c0.7-0.5,0.6-1.5,0.6-2.3c0-0.2,0-0.5,0-0.7
					c0,0.3,1.4,0.1,1.6,0c0.4-0.3,0.8-1.1,0.9-1.6c0.1-0.6,0.2-1.2,0.3-1.8c0-0.2,0-0.3,0-0.5c0.5,0.2,1.1,0.3,1.6,0
					c0.9-0.5,1.2-1.6,1.5-2.5c1.6-4.6,4.4-8.1,7.3-12c8.1-10.8,16.6-19.4,21.5-32.1c3.5-8.9,5.1-18.8,6.6-29.7
					c1.1-7.7,3.1-15.8,1.8-23.6C51.6,79.4,49.1,75,45.8,72.5z"/>
				<g>
					<path class="st6" d="M7.5,176.7c-0.1,0-0.3,0-0.4-0.1c-0.7-0.2-1.4-0.8-1.6-1.5c-0.5-1.6-0.7-3.8-0.5-5.7
						c0-0.2,0.2-0.3,0.4-0.3c0.2,0,0.3,0.2,0.3,0.4c-0.2,1.8,0,3.8,0.5,5.4c0.2,0.5,0.6,0.9,1.1,1c0.3,0.1,0.6,0.1,1-0.3
						c0.3-0.3,2-3.6,3-5.5c0.6-1.1,1.1-2.1,1.3-2.5c0.7-1.2,0.3-2.3-0.1-2.7c-0.1-0.1-0.1-0.4,0.1-0.5c0.1-0.1,0.3-0.1,0.5,0.1
						c0.6,0.8,0.8,2.1,0.1,3.4c-0.2,0.4-0.7,1.4-1.3,2.5c-1.6,3.1-2.8,5.4-3.1,5.7C8.4,176.6,8,176.7,7.5,176.7z"/>
				</g>
				<g>
					<path class="st6" d="M4.1,183.5c-0.2,0-0.3-0.1-0.3-0.3c-0.1-1.6,0.4-5.6,1.2-8.6c0-0.2,0.2-0.3,0.4-0.2c0.2,0,0.3,0.2,0.2,0.4
						c-0.7,2.9-1.3,6.9-1.1,8.4C4.4,183.3,4.3,183.5,4.1,183.5L4.1,183.5z"/>
				</g>
				<g>
					<path class="st6" d="M8.8,186.8c-0.1,0-0.3-0.1-0.3-0.2c-0.7-2.6-0.8-6.6-0.4-8.2c0-0.2,0.2-0.3,0.4-0.2c0.2,0,0.3,0.2,0.2,0.4
						c-0.3,1.4-0.3,5.3,0.4,7.9C9.2,186.6,9.1,186.8,8.8,186.8C8.9,186.8,8.8,186.8,8.8,186.8z"/>
				</g>
				<g>
					<path class="st6" d="M11.9,182.7c-0.2,0-0.3-0.1-0.3-0.3c-0.1-2,0.1-3.2,0.3-4.5c0-0.3,0.1-0.6,0.1-1c0-0.2,0.2-0.3,0.4-0.3
						s0.3,0.2,0.3,0.4c0,0.3-0.1,0.7-0.1,1c-0.2,1.3-0.4,2.4-0.3,4.4C12.2,182.5,12,182.7,11.9,182.7L11.9,182.7z"/>
				</g>
			</g>
			<path class="st1" d="M108.6,124c0,2.2-0.1,4.4-0.1,6.6c0,0.7,0.5,4.5-0.4,4.6c-23.8,2.2-47.2,2.2-70.9,0c-1-0.1-0.4-3.9-0.4-4.6
				c0-2.2-0.1-4.4-0.1-6.6c-0.1-8-0.3-16-0.6-24C35.9,93.9,36,87.8,36,81.8c0-3.3-0.1-6.6,1-9.8c0.8-2.4,2.3-4.8,4.6-5.9
				c2.6-1.3,5.6-1.4,8.4-1.6c1.6-0.1,3.2-0.3,4.8-0.4c11.7-0.8,23.7-0.8,35.4,0c1.7,0.1,3.4,0.2,5,0.4c2.8,0.2,5.9,0.3,8.4,1.6
				c2.4,1.2,3.8,3.5,4.6,5.9c1.1,3.2,0.9,6.5,1,9.8c0,6.1,0.1,12.2-0.1,18.3C108.9,108,108.8,116,108.6,124z"/>
			<path class="st5" d="M90.3,64c-3.8,5.2-8.3,9.9-14.5,12.2c-3.6,1.3-7.6,1.5-11.2,0.2c-3.7-1.3-6.5-4.1-8.1-7.6
				c-0.7-1.5-1.2-3.1-1.5-4.8C66.6,63.2,78.6,63.2,90.3,64z"/>
			<path class="st4" d="M110.6,99.9c0.2-6.1-0.3-12.8-0.4-18.9c0-3.3,0.1-6.6-1-9.8c-0.8-2.4-2.3-4.7-4.7-5.9
				c-2.6-1.3-9.8-2.4-12.6-2.6c-1.6-0.1-3.2-0.2-4.8-0.3c-0.1,0-0.3,0-0.4,0c-1.1,3.8-2.4,15.9-2.7,17.8c-2.1,12.9-2.8,26-1.8,39.1
				c1.1,15.5,3.9,38.7,4.9,54.2c0.2,3.4,0.5,10.4,0.6,13.8c4.2-0.3,24.1-0.6,28.3-1c1-0.1,0.4-3.9,0.4-4.6
				C116.3,179.4,110.3,108,110.6,99.9z"/>
			<path class="st4" d="M35.2,100.1C35,94,35.4,87.3,35.5,81.2c0-3.3-0.1-6.6,1-9.8c0.8-2.4,2.3-4.8,4.6-5.9
				c2.6-1.3,9.8-2.5,12.6-2.7c1.6-0.1,3.2-0.3,4.8-0.4c0.1,0,0.3,0,0.4,0c-1.3,2.4-2.2,5-2.7,7.7c-1,4.9-1.1,9.9-1.3,14.9
				c-0.2,6.4-0.4,12.8-0.6,19.2c-0.2,7-3.7,62.6-4,69.6c-0.2,3.4-0.3,10.4-0.4,13.8c-4.2-0.2-12.7,0.6-16.9,0.2
				c-1-0.1-0.4-3.9-0.4-4.6c0-2.2-0.1-8.1-0.2-10.3C32.4,164.8,35.5,108.2,35.2,100.1z"/>
			<path class="st4" d="M39,67c-6.8,7.1-6.1,18-7.4,27.1c-0.8,5.8-1.4,11.6-2.6,17.3c-1.5,7.1-3.5,15.1-6.7,21.7
				c-1.2,2.4,13.9,10.2,13.9,10.2L39,67z"/>
			<g>
				<path class="st7" d="M33.8,140.3L33.8,140.3c-0.2,0-0.3-0.2-0.3-0.3l2.2-58.2c0-0.2,0.1-0.3,0.3-0.3s0.3,0.2,0.3,0.3L34.1,140
					C34.1,140.1,34,140.3,33.8,140.3z"/>
			</g>
			<path class="st4" d="M23.2,135c-1.9-1.7-2.3-1.8-2.1-4c0.1-1,1.5-5.6,2.1-5.9s4.3,1.3,4.3,1.3L23.2,135z"/>
			<g>
				<path class="st7" d="M32.4,132.1c-0.1,0-0.1,0-0.2,0c-0.1,0-5.1-3.1-6.9-4.3c-0.1-0.1-0.2-0.3-0.1-0.5c0.1-0.1,0.3-0.2,0.5-0.1
					c1.8,1.2,6.8,4.3,6.9,4.3c0.2,0.1,0.2,0.3,0.1,0.5C32.7,132,32.5,132.1,32.4,132.1z"/>
			</g>
			<g>
				<path class="st7" d="M48.9,146.3c-0.7,0-1.5-0.7-1.6-1.7s0.7-1.6,1.4-1.7c1.1-0.1,1.1,1.1,1.2,1.5l0,0
					C50,145.6,49.7,146.3,48.9,146.3C49,146.3,48.9,146.3,48.9,146.3z M48.9,143.6C48.9,143.6,48.8,143.6,48.9,143.6
					c-0.4,0-0.9,0.4-0.9,1c0.1,0.7,0.6,1.1,1,1.1c0.3,0,0.4-0.6,0.3-1.2l0,0C49.2,143.7,49,143.6,48.9,143.6z"/>
			</g>
			<g>
				<path class="st7" d="M50.9,114.3c-0.3,0-0.7-0.2-1-0.5s-0.5-0.8-0.6-1.2c-0.1-1,0.7-1.6,1.4-1.7c0.5,0,0.8,0.2,0.9,0.4
					c0.2,0.2,0.2,0.6,0.3,1.1l0,0c0,0.5,0,0.9-0.1,1.2C51.6,114,51.3,114.2,50.9,114.3L50.9,114.3z M50.8,111.6L50.8,111.6
					c-0.4,0-0.9,0.4-0.9,1c0,0.3,0.2,0.6,0.4,0.8c0.2,0.2,0.4,0.3,0.6,0.3c0.1,0,0.2,0,0.3-0.3c0.1-0.2,0.1-0.5,0.1-0.9l0,0
					c0-0.4-0.1-0.6-0.2-0.7C51,111.6,51,111.6,50.8,111.6z"/>
			</g>
			<g>
				<path class="st7" d="M51.8,83.1c-0.3,0-0.6-0.1-0.9-0.4c-0.4-0.3-0.6-0.8-0.7-1.3c-0.1-1,0.7-1.6,1.4-1.7c0.5,0,0.8,0.2,0.9,0.4
					c0.2,0.2,0.3,0.6,0.3,1.1l0,0c0,0.5,0,0.9-0.1,1.2C52.6,82.8,52.3,83,51.8,83.1C51.9,83.1,51.9,83.1,51.8,83.1z M51.8,80.4
					L51.8,80.4c-0.4,0-0.9,0.4-0.9,1c0,0.3,0.2,0.6,0.4,0.9c0.2,0.1,0.4,0.2,0.5,0.2s0.2,0,0.3-0.3c0.1-0.2,0.1-0.5,0.1-0.9l0,0
					c0-0.4-0.1-0.6-0.2-0.7C52,80.4,51.9,80.4,51.8,80.4z"/>
			</g>
			<g>
				<path class="st7" d="M46.9,175c-0.3,0-0.7-0.2-1-0.5s-0.5-0.8-0.6-1.2c0-0.4,0.1-0.8,0.3-1.1c0.3-0.3,0.7-0.5,1.1-0.6
					c0.5,0,0.8,0.2,0.9,0.4c0.2,0.2,0.3,0.6,0.3,1.1l0,0c0,0.5,0,0.9-0.1,1.2C47.7,174.7,47.4,175,46.9,175C47,175,47,175,46.9,175z
					 M46.9,172.3L46.9,172.3c-0.3,0-0.5,0.1-0.7,0.3c-0.1,0.2-0.2,0.4-0.2,0.6c0,0.3,0.2,0.6,0.4,0.8s0.4,0.3,0.6,0.3
					c0.1,0,0.2,0,0.3-0.3c0.1-0.2,0.1-0.5,0.1-0.9l0,0c0-0.4-0.1-0.6-0.2-0.7C47.1,172.4,47,172.3,46.9,172.3z"/>
			</g>
		</g>
		<path class="st5" d="M56.9,35.3c0.1-2.3,0.4-4.5,0.5-6.8c0.2-3,0.4-6.1,1.2-9C60,13.8,63.7,8.9,69.7,7.4c3.2-0.8,6.9-0.3,10.1,0.3
			c2.8,0.6,5.1,1.5,7.1,3.5c3.1,3.1,4.6,7.5,4.2,11.8c-0.3,2.9-0.9,5.9-2.2,8.5c-1.1,2.5-2.7,4.6-4.3,6.8c-1.6,2.2-3.4,4.5-4.1,7.2
			c-1.3,4.6-0.9,10.1-0.4,14.8c0.2,1.7,0.7,3.5,0.6,5.3c0,0.9-1.1,1.4-1.9,1.7c-3.1,1.4-6.5,2-10,1.5c-1.5-0.2-2.9-0.6-4.3-1.2
			c-0.9-0.4-2.9-1-2.7-2.3l0,0c0.6-3.1,1.4-6.1,2.1-9.2c0.6-3.2,0.9-6.3,0.9-9.6c-1.1-0.1-2.2-0.3-3.3-0.7s-2.2-0.9-3-1.8
			c-1.6-1.8-1.8-4.5-1.7-6.9C56.9,36.6,56.9,36,56.9,35.3z"/>
		<path class="st1" d="M75.4,22.9c0.1,0.8-0.1,1.5-0.6,1.5s-1.2-0.6-1.3-1.4c-0.1-0.8,0.6-1.3,1.1-1.3
			C75.2,21.7,75.4,22.1,75.4,22.9z"/>
		<path class="st1" d="M64.8,22.3c0.1,0.8-0.1,1.5-0.6,1.5s-1.2-0.6-1.3-1.4s0.6-1.3,1.1-1.3C64.5,21.1,64.8,21.5,64.8,22.3z"/>
		<g>
			<path class="st6" d="M66.7,28.8c-0.1,0-0.2,0-0.2-0.1c-0.1-0.1-0.1-0.2-0.1-0.3l1.7-7.4c0-0.2,0.2-0.3,0.4-0.2
				c0.2,0,0.3,0.2,0.2,0.4l-1.6,7L70,28c0.2,0,0.3,0.1,0.4,0.3c0,0.2-0.1,0.3-0.3,0.4L66.7,28.8L66.7,28.8z"/>
		</g>
		<g>
			<path class="st6" d="M66.3,46.8c-0.3,0-0.6,0-0.7,0s-0.2,0-0.2,0c-0.2,0-0.3-0.1-0.3-0.3s0.1-0.3,0.3-0.3c0.1,0,0.1,0,0.2,0
				c0.6,0,2.3,0.1,3.6-0.5c0.2-0.1,0.4,0,0.4,0.2c0.1,0.2,0,0.4-0.2,0.4C68.4,46.8,67.1,46.8,66.3,46.8z"/>
		</g>
		<path class="st1" d="M61.7,12.2c0.5,0.5,1.3,0.2,1.9,0.1c3-0.5,6.2-0.5,9.2-0.2c1.4,0.1,2.7,0.3,4,0.8c2.3,0.9,3.6,3,3.8,5.4
			c0.1,1.5,0.1,3-0.1,4.4c-0.1,0.7-0.2,1.5-0.4,2.2c-0.1,0.6-0.4,1.3,0,1.8c0.4,0.8,0.9,0.3,1.7,0.1c0.6-0.1,2.5,0,2.6,0.8
			c0.1,0.6-0.1,1.2-0.3,1.8c-0.4,1.3-1.2,2.5-1.7,3.7c-1.4,3.3-1.6,6.7-1.9,10.2c-0.1,0.8,1,0.8,1.3,0.2c0.8-2.1,2.2-4,3.7-5.7
			c1.5-1.8,2.8-3.7,3.9-5.8c1.7-3.5,2.7-7.6,2.6-11.5c0-3.2-0.9-6.4-3-8.8C85,7,78.2,6.1,72.4,6.6c-2.1,0.2-4.3,0.6-6.3,1.2
			c-1.3,0.4-2.5,1-3.4,2C62,10.3,60.9,11.4,61.7,12.2z"/>
		<path class="st5" d="M79.8,30.4c0.3-1.7,1.7-3.6,2.6-4.4c1.3-1.1,3.2-1.6,4.7-0.7c3,1.8-1,6.6-2.6,7.7c-0.6,0.4-2.5,0.7-3.2,0.6
			C79.7,33.3,79.6,31.6,79.8,30.4z"/>
		<g>
			<path class="st8" d="M78,19.8c-0.2-0.1-0.3-0.2-0.5-0.4c0-0.1,0-0.3-0.1-0.4c0.6,0.2,1.5-0.4,1-1.1c-0.8-1.3-2.2-2-3.5-2.9
				s-2.5-1.9-3.6-3c-0.1-0.1-0.1-0.2-0.2-0.3c-0.8-0.9-1.9-1-3-0.6c-1.3,0.5-2.7,1.2-3.7,2.1c-1,0.8-1.9,1.7-2.7,2.6
				c-0.3,0.1-0.5,0.3-0.8,0.4s-0.4,0.4-0.4,0.6c-0.1,0.1-0.3,0.2-0.4,0.3c-0.4,0.3-0.3,0.8,0,1.2c-0.3,0.1-0.6,0.2-0.9,0.3
				c-0.8,0.2-0.5,1.4,0.3,1.2c3.3-0.6,6-2.8,8.7-4.8c2.4,2.5,5.7,5.4,9,6.2C78.3,21.4,78.7,20.3,78,19.8z"/>
			<path class="st8" d="M83.5,30.6c0-0.9,0-1.9,0-2.8s-1.1-1.8-1-2.7c0-0.1,0-0.2,0-0.3c0-0.1,0-0.3,0-0.4s0-0.1,0-0.2
				s0.1-0.3,0.1-0.4c0.3-0.8-0.8-1-1.2-0.5c-1.3,1.7-1.5,4-2.1,6s-3.1,5-4.7,6.2c-2.6,1.9-6.3,1.9-9.1,1.5c-3.4-0.5-7.1-2.5-7.4-7.1
				c0-0.2-0.8-0.9-0.9-0.3c-0.8,2.5-1.1,5.2-1.1,7.8c0,2.3,0.1,5.2,1.5,7.2c1.3,1.8,3.8,2.9,5.8,3.5c2.2,0.7,5.3,0.1,7.5-0.5
				c3.3-0.9,5.6-2.6,7.9-5.2c1.3-1.6,2.3-3.4,2.9-5.4c0.3-0.8,1.4-1.7,1.6-2.6c0-0.2,0-0.4,0.1-0.5C83.1,32.8,83.5,31.7,83.5,30.6z"/>
			<path class="st8" d="M79.5,31.6c0.8-0.7,1.4-1.7,1.5-2.7c0.1-0.6-0.9-0.8-1.1-0.3c-1,2-4,4.1-6.2,3c-0.6-0.3-1.1-0.7-1.7-1
				c-1.5-0.9-2.9-1.1-4.5-1.1c-1,0.1-2.4,0.4-3.4,0.6c-0.5,0.1-1.1,0.3-1.6,0.5c-0.4,0.2-0.8,0.6-1.2,0.7c-1.2,0.5-2.7-0.7-3.3-1.7
				c-0.3-0.6-1.1-0.2-1,0.4s0.5,1.2,1,1.6c-0.5,0-1,0.6-0.7,1.2c0.1,0.2,0.2,0.4,0.4,0.6c0,0,0,0,0,0.1c-0.4,1.1,0.7,2,1.6,2.4
				c0.6,0.2,1.2,0.3,1.8,0.3c0.1,0,0.1,0,0.2,0.1c0.5,0.1,0.9,0.1,1.4,0.1c0.3,1.3,1.7,1.2,3.1,0.8c0.5,0.3,1,0.3,1.6,0.2
				c1.6,0.7,3.6,0.1,5.2-0.6c0.6,0.1,1.3-0.4,1.8-0.6c1.8-0.9,3.6-2.1,5.2-3.4c0.1,0,0.1-0.1,0.2-0.1C79.9,32.4,79.8,31.9,79.5,31.6
				z"/>
		</g>
		<g>
			<path class="st9" d="M67.6,32.3c-0.7,0-1.4-0.1-2-0.5c-0.2-0.1-0.2-0.3-0.1-0.4c0.1-0.2,0.3-0.2,0.4-0.1c1.7,0.9,3.3,0.2,4-0.3
				c0.1-0.1,0.4-0.1,0.5,0.1c0.1,0.1,0.1,0.4-0.1,0.5C69.6,32,68.6,32.3,67.6,32.3z"/>
		</g>
		<path class="st10" d="M93.8,15.2c-0.9-1.3-2.8-2.8-4.2-3.6c-0.1-1.6-0.4-3.1-1-4.6c-0.7-1.6-1.7-3.1-3-4.1
			c-0.4-0.5-0.7-1.2-1.2-1.5c-4.1-2.3-7.9-1.3-11.6,0c-1.6,0.6-2.9,1.7-4,2.9c-0.2,0-0.5,0.1-0.7,0.2C66,5,64,6,62.3,7.4
			s-3.1,3.1-4.1,5.1c-0.5,1-0.9,2-1.1,3.1c-0.2,0.7-0.3,1.5-0.4,2.2c-0.1,0.5-0.4,0.9-0.6,1.4c-0.2,0.6-0.1,1.2,0,1.8
			c0.1,0.6,0.4,1.2,0.6,1.8c0.2,0.4,0.9,1,1.2,0.5c1.7-2.8,3.5-5.7,5.8-8c0,0,0.1,0,0.1-0.1c0.2-0.2,0.4-0.4,0.6-0.5
			c1.1-0.9,2.3-1.7,3.5-2.4c2.9,2.2,5.6,4.5,8,7.3c2,2.3,3.9,4.6,5,7.5c1,2.7,0.4,6.5,0,9.4c-0.4,3.1-1.3,9.4-0.8,9.3
			c0.6-0.2,2.4-2.1,2.9-2.4c1.9-1.3,2.8-3.7,4.3-5.5c0.8-0.9,2.5-3.5,3-4.7c1-0.9,1.8-1.9,2.5-3c1.9-1.3,0.8-4.8,1.7-7
			C95.1,21.4,95.5,17.5,93.8,15.2z"/>
		<g>
			<path class="st11" d="M68.1,10.7c-0.1,0-0.2,0-0.3-0.1l-1.7-2.4c-0.2-0.2-0.3-0.6-0.2-0.8C66,7.2,66.1,7.1,66.3,7
				c0.2-0.1,0.4,0.1,0.4,0.2s0,0.3-0.1,0.4c0,0.1,0,0.1,0.1,0.2l1.7,2.4c0.1,0.1,0.1,0.4-0.1,0.5C68.2,10.7,68.1,10.7,68.1,10.7z"/>
		</g>
		<g>
			<path class="st11" d="M88.9,32.6L88.9,32.6c-0.2,0-0.3-0.2-0.3-0.4c0.3-2.7-0.1-5.4-1.2-7.6c-1.2-2.3-3.3-4.2-5.2-5.9
				c-2.2-2-4.4-4-5.6-6.7c-0.1-0.2,0-0.4,0.2-0.4c0.2-0.1,0.4,0,0.4,0.2c1.2,2.6,3.4,4.6,5.5,6.5c2,1.8,4.1,3.7,5.4,6.1
				c1.2,2.3,1.7,5.1,1.3,8C89.2,32.5,89.1,32.6,88.9,32.6z"/>
		</g>
		<g>
			<path class="st11" d="M90.1,22.8c-0.1,0-0.2-0.1-0.3-0.2c-1.1-2.2-2.8-4.1-4.8-5.5c-0.1-0.1-0.2-0.3-0.1-0.5s0.3-0.2,0.5-0.1
				c2.1,1.5,3.9,3.4,5,5.7c0.1,0.2,0,0.4-0.1,0.4C90.2,22.8,90.2,22.8,90.1,22.8z"/>
		</g>
		<g>
			<path class="st11" d="M87.8,13.4c-0.1,0-0.1,0-0.2,0c-1.7-1.1-3.7-1.7-5.6-2.4c-2.7-0.9-5.4-1.8-7.5-3.8c-0.1-0.1-0.1-0.3,0-0.5
				c0.1-0.1,0.3-0.1,0.5,0c2,1.9,4.5,2.7,7.2,3.6c2,0.7,4,1.3,5.8,2.5c0.2,0.1,0.2,0.3,0.1,0.5C88,13.3,87.9,13.4,87.8,13.4z"/>
		</g>
		<path class="st4" d="M102.5,64.8c-6-1.4-10.2,2.4-13.7,6.7c-1.9,2.4,0.4,5.4,1.1,8.4c1.7,7.7,12.5,35.5,13.9,45
			c0.7,4.7,2.8,10.4,7.5,12.6c1.3,0.6,2.7,0.9,4,0.9c17.4-0.3,10.2-25.3,8.1-34.6c-2.5-11.1-3.4-17.3-8.1-27.7
			C113.4,71.8,107.1,65.9,102.5,64.8z"/>
		<g>
			<g>
				<path class="st5" d="M103.4,132.3c1.7-3.8,2.9-6.8,7.4-7.6c6.9-1.2,11.6,4.5,11.8,10.9c0.2,6.8-2.9,13.4-5.4,19.6
					c-2.7,6.7-10.7,24.4-11.9,26.7c-1.2,2.6-3.1,5.9-4.4,8.5c-1.2,2.4-2.6,4.9-5.1,6.3c-0.3,0.2-0.6,0.1-0.8-0.2
					c-3,2.8-5.8,4-7.3,0.5c-1.8-4.4,3.2-13.9,1.9-15.7c-0.6-0.8-2.3,5.4-3.4,5.3c-1-0.1-1.6-1.2-1.6-2.2
					C84.3,179.6,99,142,103.4,132.3z"/>
				<g>
					<path class="st6" d="M89.2,196.3L89.2,196.3c-0.3-0.1-0.3-0.3-0.2-0.4c0-0.1,3.4-7,4.4-11.4c0-0.2,0.2-0.3,0.4-0.3
						c0.2,0,0.3,0.2,0.2,0.4c-1,4.5-4.3,11.2-4.5,11.5C89.5,196.2,89.3,196.3,89.2,196.3z"/>
				</g>
				<g>
					<path class="st6" d="M91.8,197.3c-0.1,0-0.1,0-0.2-0.1s-0.2-0.3-0.1-0.5c0-0.1,4.1-5.7,4.8-9.4c0-0.2,0.2-0.3,0.4-0.3
						c0.2,0,0.3,0.2,0.3,0.4c-0.7,3.8-4.7,9.4-4.9,9.6C92,197.3,91.9,197.3,91.8,197.3z"/>
				</g>
				<g>
					<path class="st6" d="M95.5,195.7c-0.1,0-0.1,0-0.2-0.1s-0.2-0.3,0-0.5c0,0,2.6-3.2,3-4.8c0-0.2,0.2-0.3,0.4-0.2
						c0.2,0,0.3,0.2,0.2,0.4c-0.5,1.8-3,4.9-3.1,5.1C95.7,195.7,95.6,195.7,95.5,195.7z"/>
				</g>
			</g>
			<g>
				<path class="st4" d="M101.6,136.3c3.9-2.3,20.8,4,20.3,5.6c-0.4,1.5-0.7,2.4-0.7,2.4h0.5c2-4.3,3.6-10.4,4.2-14.8
					c0.6-4.6,0-7.9-3.6-11.1c-3.7-3.4-8.1-2.5-12,0.1c-2.5,1.6-4.9,4.5-6.8,10c-0.2,0.7-1.3,0.1-1.7,0.6c-1.5,2.1-3.7,6-3.6,8.5
					c0,0.2,1.4,1.8,2.3,1.5L101.6,136.3z"/>
				<path class="st4" d="M121.3,144.2c1.3,0,1.7,0.3,3.1-1.4c0.6-0.8,2.8-4.9,2.5-5.6c-0.3-0.6-2.5-3.7-2.5-3.7L121.3,144.2z"/>
			</g>
		</g>
		<g>
			<path class="st7" d="M103.9,127.5L103.9,127.5c-0.2,0-0.4-0.2-0.3-0.4c0.2-1.4-0.2-2.8-0.6-4c-1.6-5.2-2.5-10.4-3.3-15.4
				c-0.9-5-1.7-10.2-3.3-15.4c-0.1-0.2,0-0.4,0.2-0.4c0.2-0.1,0.4,0,0.4,0.2c1.6,5.2,2.5,10.4,3.3,15.4c0.9,5,1.7,10.2,3.3,15.4
				c0.4,1.3,0.9,2.8,0.7,4.3C104.2,127.4,104.1,127.5,103.9,127.5z"/>
		</g>
		<g>
			<path class="st7" d="M99.3,139.7L99.3,139.7c-0.6,0-1.1-0.3-1.5-0.8c-0.5-0.6-0.8-1.5-0.7-2.4c0.1-0.9,0.5-1.8,0.8-2.6
				c0.1-0.3,0.3-0.6,0.4-1s0.3-0.7,0.4-1.1c0.3-1,0.7-2.1,1.4-2.9c1.7-1.9,4.6-1.7,7.2-1.3c5.2,0.8,11.7,1.9,16.3,5.7
				c0.1,0.1,0.2,0.3,0,0.5c-0.1,0.1-0.3,0.2-0.5,0c-4.5-3.7-10.9-4.8-16-5.6c-2.4-0.4-5.1-0.6-6.6,1.1c-0.6,0.7-0.9,1.7-1.3,2.6
				c-0.1,0.4-0.2,0.8-0.4,1.1c-0.1,0.3-0.3,0.7-0.4,1c-0.4,0.8-0.7,1.6-0.8,2.4c-0.1,0.7,0.2,1.4,0.6,1.9c0.2,0.2,0.5,0.5,1,0.5
				c0.2,0,0.3,0.2,0.3,0.3C99.6,139.6,99.5,139.7,99.3,139.7z"/>
		</g>
	</g>
</g>
</svg>
