<?xml version="1.0" encoding="utf-8"?>
<!-- Generator: Adobe Illustrator 27.4.1, SVG Export Plug-In . SVG Version: 6.00 Build 0)  -->
<svg version="1.1" id="Layer_1" xmlns="http://www.w3.org/2000/svg" xmlns:xlink="http://www.w3.org/1999/xlink" x="0px" y="0px" viewBox="0 0 160.1 400" style="enable-background:new 0 0 160.1 400;" xml:space="preserve">
<style type="text/css">
	.st0{clip-path:url(#SVGID_00000156568957535964233350000000626651199498743172_);}
	.st1{fill:#5C3751;}
	.st2{fill:#F5825F;}
	.st3{fill:#DB5248;}
	.st4{fill:#978AB1;}
	.st5{fill:#24142C;}
	.st6{fill:#705371;}
	.st7{fill:#FCCBB5;}
	.st8{fill:#F8B29C;}
</style>
<g>
	<g>
		<defs>
			<rect id="SVGID_1_" x="-69" y="-77" width="268" height="362"/>
		</defs>
		<clipPath id="SVGID_00000077316214851953417970000013530375081670964871_">
			<use xlink:href="#SVGID_1_" style="overflow:visible;"/>
		</clipPath>
		<g style="clip-path:url(#SVGID_00000077316214851953417970000013530375081670964871_);">
			<path class="st1" d="M65.8,67.7c0.2-0.5,0.3-0.9,0.5-1.4c1.5-3.3,4.3-5.9,7.9-6.8c1-0.2,1.9-0.4,2.9,0c1.2,0.6,2.3,1.3,3.4,2.1
				c2.5,1.9,4.5,4.4,6.4,7c4.7,6.5,8,13.8,11.5,21c4.3,8.7,9.5,17,15.8,24.5c3.1,3.7,6.6,8.9,5.1,14c-0.4,1.4-1.2,2.7-2.1,3.7
				c-12,13.1-25.8-12-31.5-19.9c-6.8-9.5-13.4-19.6-18.1-30.2C65.6,77.2,64.3,72.3,65.8,67.7z"/>
			<g>
				<path class="st2" d="M101.2,129.7c0,0,0-0.1-0.1-0.1c-2.9-5.4-0.1-10.9,4.5-14.4c5.7-4.3,11.2-9.6,15.8-15
					c4.5-5.3,7.9-11.4,13-16.2c2.9-2.7,6.2-5,9.9-6.4c1.8-0.7,3.7-1,5.6-1.1c1.3-0.1,4,0,3.7,2c-0.1,0.6-0.4,0.9-0.9,1.1
					c1,0,2.1,0,3.1,0.2c1.2,0.2,4.7,0.6,4,2.7c-0.3,0.9-1.3,1-2.1,1.2c-0.2,0.1-0.5,0.1-0.7,0.2c0.3-0.1,0.5,1.4,0.4,1.6
					c-0.2,0.5-0.9,1.1-1.3,1.3c-0.6,0.3-1.1,0.5-1.7,0.7c-0.2,0.1-0.3,0.1-0.5,0.2c0.4,0.4,0.6,1,0.4,1.6c-0.2,1-1.2,1.6-2,2.1
					c-4.2,2.7-6.9,6.4-10,10.3c-8.5,10.8-17.1,24.3-28.4,32.5c0,0,0,0-0.1,0C109.4,137.4,103.7,134.2,101.2,129.7z"/>
				<g>
					<path class="st3" d="M137.2,93.6c-0.4,0-0.8-0.1-1.1-0.2c-0.2-0.1-0.3-0.3-0.2-0.4c0.1-0.2,0.3-0.3,0.4-0.2
						c0.5,0.2,1.7,0.3,2.7-0.7c0.4-0.3,1.2-1.1,2.1-2c1.7-1.5,4.4-4,4.7-4.4c0.2-0.4,0.1-0.8,0-1c-0.3-0.5-0.8-0.8-1.3-0.8
						c-1.6-0.1-3.7,0.3-5.4,0.9c-0.2,0.1-0.4,0-0.4-0.2c-0.1-0.2,0-0.4,0.2-0.4c1.8-0.7,3.9-1.1,5.7-1c0.8,0,1.5,0.5,1.9,1.2
						c0.3,0.6,0.3,1.1,0,1.7c-0.3,0.4-2.1,2.2-4.8,4.6c-1,0.9-1.8,1.6-2.1,1.9C138.9,93.3,138,93.6,137.2,93.6z"/>
				</g>
				<g>
					<path class="st3" d="M144,83.5c-0.1,0-0.2-0.1-0.3-0.2c-0.1-0.2,0-0.4,0.1-0.5c2.7-1.5,6.6-3.1,8.2-3.4c0.2,0,0.4,0.1,0.4,0.3
						c0,0.2-0.1,0.4-0.3,0.4C150.6,80.4,146.7,82,144,83.5C144.1,83.5,144.1,83.5,144,83.5z"/>
				</g>
				<g>
					<path class="st3" d="M148.6,85.6c-0.1,0-0.2-0.1-0.3-0.2c-0.1-0.2,0-0.4,0.1-0.5c1.5-0.8,5.5-1.7,8.2-1.8
						c0.2,0,0.3,0.2,0.3,0.3c0,0.2-0.2,0.3-0.3,0.3l0,0l0,0c-2.8,0-6.6,1-7.9,1.7C148.7,85.6,148.6,85.6,148.6,85.6z"/>
				</g>
				<g>
					<path class="st3" d="M148.1,89.9c-0.1,0-0.3-0.1-0.3-0.2c-0.1-0.2,0-0.4,0.2-0.4c0.3-0.1,0.6-0.3,0.9-0.4
						c1.2-0.5,2.4-1,4.4-1.5c0.2,0,0.4,0.1,0.4,0.3c0,0.2-0.1,0.4-0.3,0.4c-1.9,0.5-3,0.9-4.3,1.5c-0.3,0.1-0.6,0.3-0.9,0.4
						C148.2,89.9,148.2,89.9,148.1,89.9z"/>
				</g>
			</g>
			<path class="st1" d="M141.3,104.8c-0.5,2.3-5,6.6-6,7.9c-2.6,3.2-5.2,6.4-7.9,9.6c-2.4,2.9-5,5.7-7.7,8.3c-2.5,2.4-6,5.4-9.6,5.6
				c-4.1,0.3-9.6-3.6-11.4-6.9c0,0,0-0.1-0.1-0.1c-2.9-5.4,1.5-10.8,6.2-14.3c5.7-4.3,11.2-9.6,15.8-15c1.5-1.7,2.8-3.5,4.1-5.4
				c0.8-1.1,2.5-5,4.1-3.1c1.8,2.2,3.9,4.5,6,6.5c1.1,1.1,2.3,2.2,3.4,3.2c1,0.9,2.4,1.6,3.1,2.8
				C141.4,104.2,141.4,104.5,141.3,104.8z"/>
			<g>
				<path class="st1" d="M83.8,398c-0.3-1.2-1.1-2.3-2.2-3c-1.4-0.8-3-1.1-4.5-1.5c-0.9-0.2-1.8-0.4-2.5-0.8
					c-0.5-0.3-0.9-0.6-1.2-1.1c-0.8-1.1,1.4-15.7,1.4-15.7c0.3-2.3,0.7-4.6,0.5-6.9c0-0.4-8.1-0.7-11.1-1.2
					c-3.1-0.5-15.4-0.1-15.4-0.1s1.3,14.6,1.3,24c0,2.4,0,4.5,0.1,6.1C61.1,397,72.7,399.4,83.8,398z"/>
				<path class="st1" d="M50.2,397.9c0,0.3,0,0.7,0.1,1c0,0.4,0.3,0.6,0.7,0.7c5.2,0.6,24.8,0.4,29.4,0.5c3.6,0.1,3.6-0.2,3.6-1.2
					c0-0.3,0-0.6-0.1-0.8C72.7,399.4,61.1,397,50.2,397.9z"/>
				<g>
					<path class="st4" d="M78.8,383.8c0.1-0.1,0.1-0.1,0.2-0.2c0.8-0.9,0.7-3.3,0.8-4.4c0.5-4.6,0.2-24.9,0.4-29.4
						c0.4-7.7,0.5-15.5,0.9-23.2c0.8-14.6,1.5-29.2,2.3-43.9c1.5-28.9,2.8-57.8,4.1-86.6c0.8-18.1,4.7-40.1-5.3-56.5
						c-6.3-10.4-17-18.4-18.7-18c-2.9,0.7-39.7,4.1-39.7,4.5c0.3,9.8,1.5,19.7,2.2,29.5c1.7,22.7,3.5,45.3,5.2,68
						c2.1,26.6,4.1,53.3,6.3,79.9c1,13.1,2.1,26.7,2.9,39.9c0.5,7,1,32.2,2.4,39c1,5.2,4.4,2.8,8.8,2.7c3.4,0,6.8-0.1,10.3-0.1
						c3.1-0.1,6.2-0.2,9.3-0.4C73.1,384.5,77.1,385.2,78.8,383.8z"/>
				</g>
			</g>
			<g>
				<path class="st1" d="M63.7,398c-0.3-1.2-1.1-2.3-2.2-3c-1.4-0.8-3-1.1-4.5-1.5c-0.9-0.2-1.8-0.4-2.5-0.8
					c-0.5-0.3-0.9-0.6-1.2-1.1c-0.8-1.1,1.4-15.7,1.4-15.7c0.3-2.3,0.7-4.6,0.5-6.9c0-0.4-8.1-0.7-11.1-1.2
					c-3.1-0.5-15.4-0.1-15.4-0.1s1.3,14.6,1.3,24c0,2.4,0,4.5,0.1,6.1C40.9,397,52.6,399.4,63.7,398z"/>
				<g>
					<path class="st5" d="M63.7,398.3c-0.2,0-0.3-0.1-0.3-0.3c-0.2-1.1-1-2.1-2.1-2.8c-1.1-0.7-2.5-1-3.8-1.3l-0.9-0.2
						c-0.8-0.2-1.6-0.4-2.3-0.8c-0.6-0.3-1-0.7-1.3-1.2c-0.1-0.2-0.5-0.7,0.1-6.1c0-0.2,0.2-0.3,0.4-0.3s0.3,0.2,0.3,0.4
						c-0.5,4.9-0.2,5.6-0.2,5.7c0.3,0.4,0.7,0.7,1.1,1c0.6,0.3,1.4,0.5,2.1,0.7l0.9,0.2c1.3,0.3,2.7,0.7,3.9,1.4
						c1.2,0.7,2.1,1.9,2.4,3.2C64,398.1,63.9,398.3,63.7,398.3L63.7,398.3z"/>
				</g>
				<path class="st1" d="M30,397.9c0,0.3,0,0.7,0.1,1c0,0.4,0.3,0.6,0.7,0.7c5.2,0.6,24.8,0.4,29.4,0.5c3.6,0.1,3.6-0.2,3.6-1.2
					c0-0.3,0-0.6-0.1-0.8C52.6,399.4,40.9,397,30,397.9z"/>
				<g>
					<path class="st4" d="M26.3,384.3c-0.1-0.1-0.1-0.1-0.2-0.2c-0.8-0.8-0.8-3.2-1-4.3c-0.6-4.5-1-24.8-1.4-29.4
						c-0.6-7.7-1-15.5-1.7-23.2c-1.3-14.6-2.5-29.2-3.7-43.8c-2.4-28.8-4.7-57.6-7-86.5c-1.4-18.1-6-39.9,3.5-56.7
						c6-10.6,16.4-19,18.1-18.6c3,0.6,39.8,2.8,39.8,3.2c0,9.8-0.8,19.7-1.3,29.6c-1,22.7-2,45.4-3,68.1
						c-1.2,26.7-2.4,53.4-3.7,80.1c-0.6,13.1-1.2,26.7-1.6,40c-0.2,7,0,32.2-1.1,39.1c-0.8,5.2-4.3,2.9-8.7,3
						c-3.4,0.1-6.8,0.2-10.3,0.2c-3.1,0-6.2,0-9.3-0.1C32,384.8,28,385.7,26.3,384.3z"/>
					<g>
						<path class="st6" d="M62.2,383.9L62.2,383.9c-0.2,0-0.3-0.2-0.3-0.3L70.5,174c0-0.2,0.2-0.3,0.3-0.3c0.2,0,0.3,0.2,0.3,0.3
							l-8.7,209.6C62.5,383.7,62.3,383.9,62.2,383.9z"/>
					</g>
				</g>
			</g>
			<path class="st1" d="M85,96.3c0.9-5.8,0.2-9-0.7-16.2c-0.5-3.6-1.4-7.3-1.9-11C82,66.2,81,63.4,78.9,62c-2.2-1.6-2.7-1.7-5.3-2
				c-14-1.6-28.6-1.6-42.6,0c-2.6,0.3-5.5,0.4-7.7,2c-2,1.5-3.1,4.3-3.5,7.1c-0.5,3.7,0.1,7.4,0.5,11c0.8,6.4,2,9.5,2.9,15.3
				c1.1,7.2,1.5,17,2.4,23.4c0.2,1.7,0.5,3.4,0.7,5c0.1,0.5,0,3.2,0.7,3.4c17.3,4.2,33.9,4.4,50.7,0c0.7-0.2,0.6-2.8,0.7-3.4
				c0.2-1.7,0.4-3.3,0.7-5C79.9,112.4,83.9,103.5,85,96.3z"/>
			<g>
				<path class="st2" d="M66.5,30.2c0.2-2.4,0.4-4.9,0.3-7.3c-0.2-3.1-0.4-6.2-1.2-9.2C64.1,7.9,60.4,2.6,54.3,1
					C51,0.2,47.4,0.6,44.1,1.2c-2.8,0.6-5.4,1.9-7.5,3.9c-3.5,3.4-4.9,8.3-4,13.1c0.6,2.8,1.6,5.5,3,8c1.5,2.5,3.5,4.6,5.3,6.9
					c1.7,2.2,2.3,4.2,2.9,7c1.2,5.9,0.5,13.8,0.3,20.7c-0.1,2.2,2.4,2.6,4.1,3.1c2.3,0.5,4.8,0.6,7.2,0.2c1.4-0.3,4.7-1.3,3.9-3.4
					c-0.7-2.2-0.9-4.6-1.3-6.9c-0.3-2-0.6-4-1-6.1c-0.3-2-0.3-4-0.3-6c2.8-0.4,5.1-0.4,7.1-2.6c1.8-2,2.2-4.8,2.4-7.4
					C66.4,31.2,66.4,30.7,66.5,30.2z"/>
				<path class="st1" d="M49.7,18.5c-0.1,0.8,0.1,1.5,0.7,1.6c0.5,0,1.3-0.6,1.3-1.4c0.1-0.8-0.6-1.3-1.1-1.3
					C50,17.3,49.7,17.7,49.7,18.5z"/>
				<path class="st1" d="M60.5,17.9c-0.1,0.8,0.1,1.5,0.7,1.6c0.5,0,1.3-0.6,1.3-1.4c0.1-0.8-0.6-1.3-1.1-1.3
					C60.8,16.6,60.6,17,60.5,17.9z"/>
				<g>
					<path class="st3" d="M57.7,28.1c-1.1,0-2-0.3-2.7-0.8c-0.2-0.1-0.2-0.3-0.1-0.5c0.1-0.2,0.3-0.2,0.5-0.1
						c0.7,0.5,2.4,1.2,4.1,0.3c0.2-0.1,0.4,0,0.5,0.1c0.1,0.2,0,0.4-0.1,0.5C59.1,28,58.4,28.1,57.7,28.1z"/>
				</g>
				<g>
					<path class="st3" d="M58.6,24.6L58.6,24.6l-3.4-0.3c-0.2,0-0.3-0.2-0.3-0.4c0-0.2,0.2-0.3,0.4-0.3l2.9,0.2l-1.5-6.5
						c0-0.2,0.1-0.4,0.3-0.4s0.4,0.1,0.4,0.3l1.6,6.9c0,0.1,0,0.2-0.1,0.3C58.8,24.5,58.7,24.6,58.6,24.6z"/>
				</g>
				<path class="st2" d="M43.9,24.8c-0.3-1.7-1.7-3.7-2.7-4.5c-1.3-1.1-3.3-1.7-4.8-0.7c-3.1,1.9,1.8,6.2,3.5,7.3
					c0.6,0.4,1.4,0.7,2.2,0.5C43.7,27.1,44.1,26.1,43.9,24.8z"/>
			</g>
			<path class="st1" d="M84,118.8c0.3-6.9,1.6-13.5,2.2-20.5c0.6-8.3-1.7-15.8-4.8-23.4c-0.2-0.4-0.6-0.5-0.9-0.4
				c-0.1-0.1-0.2-0.1-0.4-0.1C64.7,73.5,49,78,36.5,87c-3.2,2.3-6.3,4.9-8.8,8c-2.3,2.9-5,6-5.2,9.6c-1.1,26.2-13.2,32.6-13.3,59.6
				c0,13.6,0.8,113,1.9,114.6c1.1,1.5,2.7,2.5,4.3,3.5c1.6,0.9,3.2,1.7,4.9,2.4c7.1,2.9,25.7,3.7,33.3,3.9c4,0.1,7.9,0,11.9-0.1
				c4.3-0.1,8.6-0.4,12.8-1.5c3.1-0.8,6.3-2.2,8.3-4.8c2.7-3.6,12.8-61.5,16.1-99.9c1.8-21-3.9-42-16.2-59.2
				C84.9,120.9,84,119.5,84,118.8z"/>
			<g>
				<path class="st5" d="M84.9,108.2C84.8,108.2,84.8,108.2,84.9,108.2c-0.2,0-0.4-0.2-0.3-0.4l0.3-1.7c0.4-2.6,0.8-5.2,1.1-8
					c0-0.2,0.2-0.3,0.4-0.3c0.2,0,0.3,0.2,0.3,0.4c-0.2,2.7-0.7,5.4-1.1,8l-0.3,1.7C85.2,108.1,85,108.2,84.9,108.2z"/>
			</g>
			<g>
				<path class="st5" d="M86.2,98.5L86.2,98.5c-0.2,0-0.3-0.2-0.3-0.4c0.7-8.7-1.9-16.3-4.8-23.2c-0.1-0.2,0-0.4,0.2-0.4
					c0.2-0.1,0.4,0,0.4,0.2c2.9,7,5.5,14.7,4.8,23.5C86.5,98.4,86.4,98.5,86.2,98.5z"/>
			</g>
			<path class="st1" d="M24.2,66.5c0.5-0.2,0.9-0.3,1.4-0.5c3.5-1,7.3-0.5,10.3,1.7c0.8,0.6,1.6,1.2,1.9,2.3
				c0.3,1.3,0.5,2.6,0.5,3.9c0.1,3.1-0.5,6.3-1.2,9.3c-2,7.8-5.5,15-8.7,22.3c-3.9,8.9-3.1,13.7-4.7,23.2
				c-0.8,4.8-2.5,10.8-7.4,12.9c-1.4,0.6-2.8,0.8-4.1,0.8c-17.7-0.8-11.3-22.9-8.8-32.4c2.9-11.3,6.3-22.9,11.5-33.3
				C16.8,72.5,19.7,68.4,24.2,66.5z"/>
			<g>
				<g>
					<path class="st4" d="M13.3,150.6c0.5-0.4,1-0.8,1.4-1.2c1.3-1,2.6-2.1,3.9-3.1c2.7-2.1,5.3-4.3,8-6.4
						c8.4-6.7,13.5-10.8,21.8-17.5c1.7-1.4,3.5-2.8,5.2-4.2c2.9-2.3,5.2,1.7,6.9,3.8c1.8,2.2,3.7,4.4,5.5,6.6
						c4.2,5,8.4,10.1,12.6,15.1c0.2,0.2,2.1,2.6,3.3,4c0.5,0.6,0.4,1.6-0.2,2.1l-42.2,34c-1.2,1-2.9,0.9-3.9-0.3
						c-3.2-3.8-6.3-7.6-9.5-11.4c-3.5-4.2-7-8.7-10.7-12.7c-1.5-1.7-4.3-3.9-3.4-6.8C12.3,151.7,12.8,151.1,13.3,150.6z"/>
				</g>
				<g>
					<path class="st6" d="M16.7,150.6c0.4-0.4,0.9-0.7,1.3-1c1.2-0.9,2.3-1.9,3.5-2.8c2.4-1.9,4.8-3.9,7.2-5.8
						c7.5-6.1,12.1-9.8,19.7-15.8c1.6-1.3,3.2-2.5,4.7-3.8c2.6-2.1,4.7,1.6,6.2,3.4c1.7,2,3.3,4,5,6c3.8,4.5,7.6,9.1,11.4,13.6
						c0.2,0.2,1.9,2.3,2.9,3.6c0.4,0.5,0.3,1.4-0.2,1.9l-38.1,30.6c-1.1,0.9-2.6,0.8-3.5-0.3c-2.9-3.4-5.7-6.8-8.6-10.2
						c-3.2-3.8-6.3-7.8-9.6-11.5c-1.4-1.5-3.8-3.5-3.1-6.1C15.8,151.6,16.2,151.1,16.7,150.6z"/>
				</g>
			</g>
			<g>
				<path class="st2" d="M10.8,121.8c1.3,0.1,2.6,0.4,3.8,0.8c3,1.1,5.7,2.9,8.3,4.8c2.7,1.9,5.4,3.7,8.1,5.4
					c5.5,3.4,11.1,6.5,16.6,9.7c5.5,3.3,11,6.7,15.7,10.9c2.3,2,4.3,4.3,5.5,7.1c1.1,2.6,1.6,5.9,0,8.3c-0.4,0.6-1.6,2-2.3,2.1
					c-0.5,0.1-1.3,0.4-1.6-0.2c-0.4,0.4-0.9,0.8-1.5,1.1c-0.5,0.2-1.2,0.4-1.8,0.4c-0.1,0-0.2-0.1-0.3-0.1c-0.3,0.4-0.7,0.8-1.2,1
					c-0.8,0.4-1.8,0.6-2.7,0.6c-0.3,0.7-0.6,1.3-1.2,1.8c-0.7,0.7-2,1.4-2.9,0.7c-0.4-0.3-0.6-0.9-0.5-1.4c0.1-0.7,0.5-1.2,0.8-1.8
					c0.3-0.8-0.5-1.4-1-1.9c-0.7-0.6-1.4-1.1-2.1-1.5c-1.4-0.9-2.8-1.6-4.3-2.4C40,164,34,160.5,28.1,156.9
					c-2.9-1.8-5.9-3.6-8.8-5.5c-2.8-1.8-5.6-3.6-8.3-5.6c-5.2-4.1-9.4-9.6-9.1-16.5c0.1-3.1,1.7-6.6,5-7.5
					C7.8,121.6,9.4,121.5,10.8,121.8z"/>
				<g>
					<path class="st3" d="M57.4,173.4L57.4,173.4c-0.3-0.1-0.3-0.3-0.3-0.4c1.2-2.4,0-4.8-1.5-7c-0.1-0.2-0.1-0.4,0.1-0.5
						c0.2-0.1,0.4-0.1,0.5,0.1c1.5,2.3,2.8,4.9,1.5,7.7C57.6,173.3,57.5,173.4,57.4,173.4z"/>
				</g>
				<g>
					<path class="st3" d="M61.4,171.9L61.4,171.9c-0.3-0.1-0.3-0.3-0.3-0.4c0.8-1.8,0.7-5.2-0.8-7.4c-0.1-0.2-0.1-0.4,0.1-0.5
						c0.2-0.1,0.4-0.1,0.5,0.1c1.7,2.5,1.7,6.1,0.8,8.1C61.6,171.8,61.5,171.9,61.4,171.9z"/>
				</g>
				<g>
					<path class="st3" d="M65.1,170.7L65.1,170.7c-0.3-0.1-0.4-0.3-0.3-0.4c0.7-1.7,1.1-5.2-0.7-7.7c-0.1-0.2-0.1-0.4,0.1-0.5
						s0.4-0.1,0.5,0.1c1.9,2.6,1.7,6.1,0.8,8.3C65.4,170.6,65.3,170.7,65.1,170.7z"/>
				</g>
				<path class="st1" d="M39.9,164.7c-2.3-0.1-6.8-4-8.3-4.8c-3.6-2-7.2-4.1-10.8-6.2c-3.3-1.9-6.4-4-9.4-6.2
					c-2.8-2.1-9.1-8.4-10.2-11.8c-1.5-4.6,0.8-12.2,6-14.4c5.6-2.4,16.5,4.6,18.9,6.6c5.8,4.5,21.8,14,23.8,15
					c1.2,0.6,5.3,2.2,3.7,4c-1.9,2.2-4.2,5.4-5.9,7.7c-0.9,1.3-3.4,5-4.3,6.3c-0.7,1.1-1.7,2.7-2.7,3.6
					C40.5,164.6,40.2,164.7,39.9,164.7z"/>
				<g>
					<path class="st5" d="M51.9,145c-0.1,0-0.1,0-0.2-0.1L19.5,124c-0.2-0.1-0.2-0.3-0.1-0.5s0.3-0.2,0.5-0.1l32.2,20.9
						c0.2,0.1,0.2,0.3,0.1,0.5C52.1,145,52,145,51.9,145z"/>
				</g>
				<g>
					<path class="st5" d="M38.5,164.7c-0.1,0-0.1,0-0.2,0c-9-5.3-17.9-10.9-26.6-16.7c-0.2-0.1-0.2-0.3-0.1-0.5
						c0.1-0.2,0.3-0.2,0.5-0.1c8.7,5.7,17.6,11.3,26.6,16.7c0.2,0.1,0.2,0.3,0.1,0.5C38.7,164.6,38.6,164.7,38.5,164.7z"/>
				</g>
				<g>
					<path class="st5" d="M21.6,124.4L21.6,124.4c-0.3,0-0.4-0.2-0.3-0.4c2-9.2,4.4-18.4,7.2-27.4c0.1-0.2,0.2-0.3,0.4-0.2
						c0.2,0.1,0.3,0.2,0.2,0.4c-2.8,9-5.2,18.2-7.2,27.3C21.9,124.3,21.8,124.4,21.6,124.4z"/>
				</g>
				<g>
					<path class="st5" d="M107,113.5c-0.1,0-0.1,0-0.2-0.1s-0.2-0.3-0.1-0.5c0.8-1.1,1.9-2,3-2.7c0.2-0.1,0.4,0,0.5,0.1
						c0.1,0.2,0,0.4-0.1,0.5c-1.1,0.6-2.1,1.5-2.9,2.5C107.1,113.5,107.1,113.5,107,113.5z"/>
				</g>
			</g>
			<g>
				<path class="st7" d="M9.8,86.5c-0.1,2.5,6.5,4.1,8.4,4.5c5.6,1,11.5-0.5,16.2-3.6c2.3-1.5,4.4-3.4,6.2-5.5
					c0.4-0.5,3.1-0.6,3.8-0.8c1.2-0.3,2.5-0.7,3.7-1.1c2.2-0.8,4.4-1.8,6.4-3c4.1-2.4,7.8-5.6,10.8-9.3c0.9-1.2,1.9-2.4,2.7-3.7
					c1.6-0.1,3.3,0.8,4.8,1.1c1.7,0.3,3.4,0.5,5.1,0.4c1.2,0,5.8-0.2,5.8-1.9c0-2.1-6.5-5.1-8.1-6c-3.4-1.9-7.2-3.3-10.8-4.5
					c-0.8-0.3-1.5-0.6-2.2-1c-0.7-2.6-0.8-8.1,0.4-9c2-1.6,3.7-4.9,4.3-7.5c1.7-6.8,2.5-12.9,0.6-19.5c-1.1-3.8-2.8-7.9-5.3-10.9
					C59.3,1,53.8-0.1,48.7,0S37.4,1.8,34,5.8c-3.5,4-4.6,12.6-4.2,17.5c0.4,4.7,1.9,8.6,3.5,12.6c1.9,4.7,4.5,6.8,4,12.1
					c-0.3,3-1.7,6.1-4.4,7.6c-1.7,1-3.6,1.3-5.2,2.4c-1.7,1-3.2,2.2-4.7,3.5c-3.5,3.2-6.8,7.2-8.1,11.8C14.3,75.6,9.2,84.2,9.8,86.5
					z M51.9,39.6c-9.6-6.1-9.4-20-4.2-29c1.7-2.9,4.8-4.5,8.2-4c3.8,0.7,6.1,3.3,7.6,6.7c2.9,6.2,3.5,13.4,2.2,20.1
					c-0.5,2.2-1.4,4.5-3,6.1C59.6,42.5,55.4,41.8,51.9,39.6z"/>
				<g>
					<path class="st8" d="M40.4,80.7c-0.1,0-0.2-0.1-0.3-0.2c-0.1-0.2,0-0.4,0.1-0.5c2-1.1,2.9-3.5,3.8-5.7l0.2-0.4
						c3.2-7.7,7.7-13,13.2-15.4c0.2-0.1,0.4,0,0.4,0.2c0.1,0.2,0,0.4-0.2,0.4C51,62.1,47,69,44.8,74.2l-0.2,0.4
						C43.7,76.8,42.7,79.4,40.4,80.7C40.5,80.7,40.4,80.7,40.4,80.7z"/>
				</g>
				<g>
					<path class="st8" d="M50,56.2c-3.2,0-6.4-0.6-9.3-1.9c-0.2-0.1-0.2-0.3-0.2-0.4c0.1-0.2,0.3-0.3,0.4-0.2
						c6.4,2.7,14.1,2.4,20.2-1c0.2-0.1,0.4,0,0.5,0.1c0.1,0.2,0,0.4-0.1,0.5C58,55.2,54,56.2,50,56.2z"/>
				</g>
				<g>
					<path class="st8" d="M54.8,48.9c-3.1,0-5.9-1-7.7-1.8c-4.1-1.8-7.4-4.6-9.7-7.9c-2.5-3.6-3.6-8-3.1-12.1c0-0.2,0.2-0.3,0.4-0.3
						S35,27,35,27.2c-0.5,3.9,0.6,8.1,3,11.6c2.2,3.2,5.5,5.9,9.4,7.7c2.6,1.2,7.7,2.8,12.3,0.7c0.2-0.1,0.4,0,0.4,0.2
						c0.1,0.2,0,0.4-0.2,0.4C58.3,48.6,56.5,48.9,54.8,48.9z"/>
				</g>
				<g>
					<path class="st8" d="M51.9,45.1C51.9,45.1,51.8,45,51.9,45.1c-2.5-0.3-4.8-1.8-6.5-4.2c-1.6-2.1-2.5-4.6-3.5-6.9
						c-0.1-0.2,0-0.4,0.2-0.4c0.2-0.1,0.4,0,0.4,0.2c0.9,2.3,1.9,4.7,3.4,6.8c1,1.3,3,3.5,6,3.9c0.2,0,0.3,0.2,0.3,0.4
						C52.2,44.9,52,45.1,51.9,45.1z"/>
				</g>
				<g>
					<path class="st8" d="M18.8,69.5h-0.1c-0.2-0.1-0.2-0.3-0.2-0.4c1.3-2.7,4.1-4.9,7.8-6c2.7-0.8,5.6-1,8.4-1.1
						c0.5,0,1-0.1,1.4-0.1c3.7-0.2,6.7-0.7,9.4-2c0.2-0.1,0.4,0,0.5,0.1c0.1,0.2,0,0.4-0.1,0.5c-2.8,1.4-5.9,1.9-9.7,2.1
						c-0.5,0-1,0.1-1.4,0.1c-2.7,0.2-5.6,0.3-8.2,1.1c-3.5,1-6.1,3.1-7.4,5.6C19,69.4,18.9,69.5,18.8,69.5z"/>
				</g>
			</g>
		</g>
	</g>
</g>
</svg>
