<?xml version="1.0" encoding="utf-8"?>
<!-- Generator: Adobe Illustrator 24.1.1, SVG Export Plug-In . SVG Version: 6.00 Build 0)  -->
<svg version="1.1" id="Layer_1" xmlns="http://www.w3.org/2000/svg" xmlns:xlink="http://www.w3.org/1999/xlink" x="0px" y="0px"
	 viewBox="0 0 361 181" style="enable-background:new 0 0 361 181;" xml:space="preserve">
<style type="text/css">
	.st0{fill:#FFFFFF;fill-opacity:0;}
	.st1{fill:#356E88;}
	.st2{opacity:0.5;fill:#356E88;enable-background:new    ;}
</style>
<g id="icomoon-ignore">
</g>
<g>
	<rect x="0.5" y="0.5" class="st0" width="90" height="90"/>
	<path class="st1" d="M55.5,42.8L38.3,25.2c-1.2-1.2-3.2-1.2-4.4,0c-0.6,0.6-0.9,1.4-0.9,2.2l0,0v35.3l0,0c0,0.7,0.3,1.5,0.9,2.1
		c1.2,1.2,3.2,1.2,4.4,0l17.2-17.6C56.7,46,56.7,44,55.5,42.8z"/>
</g>
<g>
	<rect x="0.5" y="90.5" class="st0" width="90" height="90"/>
	<path class="st1" d="M40,117.4c0-1.8-1.6-3.2-3.5-3.1c-1.9,0-3.5,1.5-3.4,3.3v34.8c0,1.8,1.5,3.3,3.4,3.3s3.5-1.4,3.5-3.2V117.4z"
		/>
	<path class="st1" d="M57,117.4c0-1.8-1.6-3.2-3.5-3.1c-1.9,0-3.5,1.5-3.4,3.3v34.8c0,1.8,1.5,3.3,3.4,3.3s3.5-1.4,3.5-3.2V117.4z"
		/>
</g>
<g>
	<rect x="90.5" y="0.5" class="st0" width="90" height="90"/>
	<path class="st1" d="M145.8,60.4c1.2,1.2,1.2,3.2,0,4.4c-1.2,1.2-3.2,1.2-4.4,0l-17.2-17.6c-1.2-1.2-1.2-3.2,0-4.4l17.2-17.6
		c1.2-1.2,3.2-1.2,4.4,0s1.2,3.2,0,4.4L131.7,45L145.8,60.4L145.8,60.4z"/>
</g>
<g>
	<rect x="90.5" y="90.5" class="st0" width="90" height="90"/>
	<path class="st2" d="M145.8,150.4c1.2,1.2,1.2,3.2,0,4.4s-3.2,1.2-4.4,0l-17.2-17.6c-1.2-1.2-1.2-3.2,0-4.4l17.2-17.6
		c1.2-1.2,3.2-1.2,4.4,0s1.2,3.2,0,4.4L131.7,135L145.8,150.4L145.8,150.4z"/>
</g>
<g>
	<rect x="180.5" y="0.5" class="st0" width="90" height="90"/>
	<path class="st1" d="M214.2,60.4c-1.2,1.2-1.2,3.2,0,4.4c1.2,1.2,3.2,1.2,4.4,0l17.2-17.6c1.2-1.2,1.2-3.2,0-4.4l-17.2-17.6
		c-1.2-1.2-3.2-1.2-4.4,0s-1.2,3.2,0,4.4L228.3,45L214.2,60.4L214.2,60.4z"/>
</g>
<g>
	<rect x="180.5" y="90.5" class="st0" width="90" height="90"/>
	<path class="st2" d="M214.2,150.4c-1.2,1.2-1.2,3.2,0,4.4s3.2,1.2,4.4,0l17.2-17.6c1.2-1.2,1.2-3.2,0-4.4l-17.2-17.6
		c-1.2-1.2-3.2-1.2-4.4,0s-1.2,3.2,0,4.4l14.1,15.4L214.2,150.4L214.2,150.4z"/>
</g>
<g>
	<rect x="270.5" y="0.5" class="st0" width="90" height="90"/>
	<path class="st1" d="M332.5,50.4c-1.5-0.8-3.4-0.2-4.2,1.2c-2.9,5.4-8.9,8.2-14.9,7.1c-7.6-1.4-12.6-8.7-11.3-16.3
		c1.4-7.6,8.7-12.6,16.3-11.3c1.4,0.3,2.6,0.7,3.7,1.3l-3.1,2.8l14.6,4.7l-3.2-15l-3.6,3.2c-2-1.5-4.5-2.6-7.3-3.1
		c-5.3-1-10.7,0.2-15.1,3.2c-4.4,3.1-7.4,7.7-8.4,13s0.2,10.7,3.2,15.1c3.1,4.4,7.7,7.4,13,8.4c1.2,0.2,2.5,0.3,3.7,0.3
		c3,0,6-0.7,8.8-2c3.8-1.9,6.9-4.8,8.9-8.5C334.6,53.1,334,51.2,332.5,50.4z"/>
</g>
</svg>
