<?xml version="1.0" encoding="utf-8"?>
<!-- Generator: Adobe Illustrator 27.8.1, SVG Export Plug-In . SVG Version: 6.00 Build 0)  -->
<svg version="1.1" id="Layer_1" xmlns="http://www.w3.org/2000/svg" xmlns:xlink="http://www.w3.org/1999/xlink" x="0px" y="0px" viewBox="0 0 321.2 500" style="enable-background:new 0 0 321.2 500;" xml:space="preserve">
<style type="text/css">
	.st0{fill:#050709;}
	.st1{fill:#F79F8E;}
	.st2{fill:#FBC4B3;}
	.st3{fill:#E2E2E2;}
	.st4{fill:#C4C4C4;}
	.st5{fill:#36ABB4;}
	.st6{fill:#25989B;}
	.st7{fill:#6FC7CD;}
	.st8{fill:#FFFFFF;}
	.st9{fill:#2D2E2D;}
	.st10{fill:#454545;}
	.st11{fill:#232323;}
	.st12{fill:#7071A9;}
	.st13{fill:#8485BB;}
	.st14{fill:#F9AD98;}
</style>
<g>
	<path class="st0" d="M255.8,97.8c0,0-2.9-9.5,9.1-15.3c8.1-3.9,18.1,1,22.6,12.1s5.9,17.5,3.6,26.1c-2.4,8.6-9.1,18.4-6.7,25
		c2.4,6.7,11.4-1.1,11.4-1.1s0.1,12.8-11.4,12.8c-14.8,0-16.6-11.8-19.5-25.8S255.8,97.8,255.8,97.8z"/>
	<path class="st1" d="M250.4,419.9c-5.3-0.2-10.8-0.8-16.1-1.1c0.1,3.3,0.2,6.1,0.2,8.2c0.1,12.2-7.4,23.6-10.2,28
		c-2.8,4.4,6.1,11.3,12.8,4.9c6.7-6.4,11.2-9.7,15-11.7c3.8-2,3.5-4.6-0.2-18.3C251.2,427.2,250.6,423.8,250.4,419.9z"/>
	<path class="st2" d="M298.7,448.2c-5.3,0.9-11,0.6-16.5-0.6c0,0.8,0,1.6,0,2.3c0.1,12.2-7.4,23.6-10.2,28
		c-2.8,4.4,6.1,11.3,12.8,4.9c6.7-6.4,7.4-7.7,11.2-9.7c3.8-2,8.7-4.6,5.7-14.2C301.3,457.5,299,449.9,298.7,448.2z"/>
	<g>
		<path class="st3" d="M231.8,440.7c0,0-6.3,9-11.6,14.9c-6.2,7-8.8,8.6-10.3,12.4c-1.5,3.8,5.5,13,17.6,6
			c12.1-7,14.2-8.9,18.3-12.7c5.3-4.9,10.8-8.1,11.7-15.2c0.7-6-4-9.9-4-9.9s-1.1,4.2-8.4,8.3C239.8,447.6,231.8,440.7,231.8,440.7z
			"/>
		<path class="st4" d="M209.9,468c0,0,8,4.9,9,5.4c7,3.1,13.6-4.2,20.3-8.7c6.7-4.5,10.7-9.1,13.3-14c2.6-4.8,5-7.1,5-7.1
			s4,9.4-1.6,12.8c-6.8,4.1-17.9,12.2-21.1,14.1c-2.7,1.6-16.2,11.7-23.8,4.1C209.3,472.9,209,471.2,209.9,468z"/>
		<path class="st4" d="M227.2,447c0,0,3.1,1.1,6.1,4.5c2.4,2.7,3.9,4.9,3.9,4.9l-2.5,1.8c0,0-4.2-4.1-6.1-6.3
			c-0.7-0.7-3.5-2.3-3.5-2.3L227.2,447z"/>
		<path class="st4" d="M222.8,452.6c0,0,3.2,1.3,6.3,4.7c2.4,2.7,3,4,3,4l-2.2,2.4c0,0-3.6-3.8-5.5-5.9c-0.7-0.7-3.7-2.6-3.7-2.6
			L222.8,452.6z"/>
	</g>
	<g>
		<path class="st3" d="M280,463.3c0,0-6.3,9-11.6,14.9c-6.2,7-8.8,8.6-10.3,12.4c-1.5,3.8,5.5,13,17.6,6c12.1-7,14.2-8.9,18.3-12.7
			c5.3-4.9,10.8-8.1,11.7-15.2c0.7-6-4-9.9-4-9.9s-1.1,4.2-8.4,8.3C287.9,470.1,280,463.3,280,463.3z"/>
		<path class="st4" d="M258.1,490.5c0,0,8,4.9,9,5.4c7,3.1,13.6-4.2,20.3-8.7s10.7-9.1,13.3-14c2.6-4.8,5-7.1,5-7.1s4,9.4-1.6,12.8
			c-6.8,4.1-17.9,12.3-21.1,14.1c-2.7,1.6-16.2,11.7-23.8,4.1C257.5,495.4,257.2,493.7,258.1,490.5z"/>
		<path class="st4" d="M275.4,469.5c0,0,3.1,1.1,6.1,4.5c2.4,2.7,3.9,4.9,3.9,4.9l-2.5,1.8c0,0-4.2-4.1-6.1-6.3
			c-0.7-0.7-3.5-2.3-3.5-2.3L275.4,469.5z"/>
		<path class="st4" d="M271,475.1c0,0,3.2,1.3,6.3,4.7c2.4,2.7,3,4,3,4l-2.2,2.4c0,0-3.6-3.8-5.5-5.9c-0.7-0.7-3.7-2.6-3.7-2.6
			L271,475.1z"/>
	</g>
	<path class="st5" d="M232.6,261.9c0,0-4.6,35.7-4.5,50.2c0.1,21.5-1.2,33.8-0.5,42.4c0.6,8.5,1.7,82.8,1.7,82.8s8.2,4.9,16.4,4.9
		c8.3,0,10.3-7.4,10.3-7.4s3.2-63.2,3.5-80.7c0.2-11.6,3.7-49,3.7-49s2.7,53.1,4.5,69c2,17.7,6.3,84.1,6.3,84.1s7.9,5.1,15.9,5.1
		c8,0,18.2-8.3,18.2-8.3s-8.1-125.6-7.8-142.8c0.3-17.1-3.2-50.2-3.2-50.2H232.6z"/>
	<path class="st5" d="M197.7,219.6c0,0,7.7,7.5,18.1,10c12,2.9,19.9-5.1,19.9-5.1l-5.2-11l-27.6-11L197.7,219.6z"/>
	<path class="st6" d="M197.7,199.1c-3,4.1-5.7,17.8,0,20.5c5.7,2.7,12.9-12,12.9-12S207.4,186,197.7,199.1z"/>
	<path class="st5" d="M240.6,150.3c-8,3.8-21.9,30.6-27.2,39.8c-1.5,4-2.4,8.1-2,12.4c0.3,3.3,2.3,8.8,5.6,11
		c7.8-7.1,15.6-16.8,15.6-16.8l23.6-46.9C256.2,149.8,249.8,146,240.6,150.3z"/>
	<path class="st7" d="M298.4,176.1c-1.6-6.3-20.7-19.4-20.7-19.4s-10.7,8.5-14.4,11.5c-3.6,2.8-9.6,10.1-10.1,10.7c0,0-0.1,0-0.1,0
		c0.1-1.2,0.8-10.7,4.5-20.9c1.2-3.2-0.6-12.6-0.6-12.6s-1.5-0.4-3.7-0.8c-3.3,3.6-9.6,13.2-13.1,17.1c-3.3,3.8-12.9,15.2-12.7,28.1
		c0.5,27.3,0,81.7,0,81.7s19.4,15.4,38.1,21c25.2,7.6,34.4-13.7,34.4-13.7s-5.6-45.8-5-56.7C295.1,222.2,303.6,196.7,298.4,176.1z"/>
	<path class="st1" d="M255.9,146.8c0,0-1.4,8.5-3.3,14.2c-1.6,2.5-6.2,17.2-5.2,24c3.5-2,13.8-12.6,17.1-15.8
		c4-3.8,14.6-11.4,14.6-11.4s-3.9-3.6-3.9-12.1c0-12.1,0-22.6,0-22.6L255.9,146.8z"/>
	<path class="st5" d="M251.6,150.5c0,0-4.8,12.2-7.2,22.8c-2,8.9,0,19.1,0,19.1s17.1-13.5,22.7-17.8c8-6,17.4-13,17.4-13l-5.3-3.9
		c0,0-8.7,4.6-15.8,10.4c-3.3,2.7-14.3,13.6-14.3,13.6s2.3-9,4.4-17.1c1.9-7.1,4-16.7,4-16.7L251.6,150.5z"/>
	<polygon class="st8" points="273.3,198.3 256.2,190.7 258.1,186.5 275.2,194.1 	"/>
	<g>
		<polygon class="st8" points="253.4,241.1 255.9,239.3 254,237.1 250.9,239.7 		"/>
		<polygon class="st8" points="198.5,178.2 200.9,176.9 202.5,179.4 200.3,181.3 		"/>
		<path class="st8" d="M253.9,239.5l-22.6-13.1c-7.1-4.1-12.8-10.1-16.5-17.4L200,179.8c-1-1.9,1.1-3.9,3-2.8l25,14.4
			c4.9,2.8,8.9,7,11.4,12.1l17,33.6C257.2,238.7,255.4,240.4,253.9,239.5z"/>
		<path class="st3" d="M252.9,245.3l-25.1-14.5c-7.9-4.5-14.2-11.3-18.3-19.4L193,179c-1.1-2.1,1.3-4.3,3.3-3.1l27.8,16
			c5.5,3.1,9.9,7.8,12.7,13.4l18.9,37.4C256.6,244.5,254.7,246.3,252.9,245.3z"/>
		<polygon class="st0" points="220.3,196.8 205,188 199.7,178.2 215,187 		"/>
		<polygon class="st9" points="199.7,178.2 204.7,175.5 219.9,184.3 215,187 		"/>
		<polygon class="st10" points="219.9,184.3 215,187 220.3,196.8 222.1,195.8 218,187.9 220.9,186.2 		"/>
	</g>
	<path class="st2" d="M200.7,199.3c-3.6,0.7-2.4,9.9,2.1,14.3c4.5,4.3,11.9,6.5,13.3,1.2C217.5,209.4,211.3,197.3,200.7,199.3z"/>
	<path class="st2" d="M300.1,278.9c0,0-4.7,23.3-4.7,32.1c0,8.8,7.2,17.1,14.5,6.6c10.9-15.8,4.1-32.4,4.1-34
		S300.1,278.9,300.1,278.9z"/>
	<path class="st5" d="M307,185c-4.4-12.7-10.2-15.7-15.2-17.8c-3.7-1.6-10.4,6.7-12.7,13.3c-3.1,9.2,11.8,50.5,12.8,56.7
		c2.1,13.3,1.6,52.3,1.6,52.3s10.7,6.2,16.4,4.8c8.4-2,11-4.7,11-4.7S324.4,235.1,307,185z"/>
	<path class="st2" d="M267.9,104.8c-7.3-5.6-24.7-7.4-31,10.6c-6.6,18.8,10.4,42.2,19.4,38.3c5.1-2.2,15.7-10.2,18.7-20
		C278.5,122.5,273.6,109.2,267.9,104.8z"/>
	<path class="st11" d="M235.7,119c0,0,11.7,1.2,20.3-1.3c2.1,10,9.2,15.2,9.2,15.2s4.1-8.4,6.6-7.7c5,1.5,2,11.7,2,11.7
		s4.1-5.7,4.6-9.3c0.5-3.6,7-22.9-12.5-30.8C248.6,89.7,235.4,100.4,235.7,119z"/>
</g>
<g>
	<g>
		<path class="st2" d="M20.9,369.8c0,0,3.7-3.2,5.4-11.9c0.9-4.4,0-10,0-10l19-3.6c0,0,0.7,11,2.2,16c1.5,5-3.6,16.4-9.9,16.4
			C31.3,376.7,20.9,369.8,20.9,369.8z"/>
		<path class="st3" d="M23.9,365.3c0,0-6.7,9.6-12.4,15.9c-6.6,7.4-9.4,9.2-11,13.3c-1.6,4.1,5.9,13.9,18.8,6.4
			c12.9-7.5,15.2-9.6,19.6-13.6c5.7-5.2,11.6-8.7,12.5-16.2c0.8-6.5-4.2-10.6-4.2-10.6s-1.2,4.5-8.9,8.8
			C32.4,372.7,23.9,365.3,23.9,365.3z"/>
		<path class="st4" d="M0.6,394.5c0,0,8.6,5.3,9.7,5.8c7.5,3.4,14.6-4.5,21.7-9.3c7.1-4.9,11.4-9.7,14.2-14.9
			c2.8-5.2,5.3-7.6,5.3-7.6s4.3,10-1.8,13.7c-7.3,4.4-19.2,13.1-22.6,15.1c-2.9,1.7-17.3,12.5-25.4,4.4
			C-0.1,399.7-0.4,397.9,0.6,394.5z"/>
		<path class="st4" d="M19,372c0,0,3.3,1.2,6.5,4.8c2.5,2.9,4.2,5.2,4.2,5.2l-2.6,2c0,0-4.5-4.4-6.5-6.7c-0.7-0.8-3.7-2.5-3.7-2.5
			L19,372z"/>
		<path class="st4" d="M14.3,378c0,0,3.5,1.4,6.7,5c2.5,2.9,3.2,4.2,3.2,4.2l-2.3,2.6c0,0-3.8-4.1-5.9-6.3c-0.7-0.8-4-2.8-4-2.8
			L14.3,378z"/>
	</g>
	<g>
		<path class="st2" d="M93.2,412c0,0,3.7-3.2,5.4-11.9c0.9-4.4,0-10,0-10l19-3.6c0,0,0.7,11,2.2,16c1.5,5-3.6,16.4-9.9,16.4
			C103.6,418.8,93.2,412,93.2,412z"/>
		<path class="st3" d="M96,408c0,0-6.1,8.8-11.7,15.1c-6.6,7.4-9.4,9.2-11,13.3c-1.6,4.1,5.9,13.9,18.8,6.4s15.2-9.6,19.6-13.6
			c5.7-5.2,11.6-8.7,12.5-16.2c0.8-6.5-4.2-10.6-4.2-10.6s-1.2,4.5-8.9,8.8C105.1,414.6,96,408,96,408z"/>
		<path class="st4" d="M73.3,436.4c0,0,8.6,5.3,9.7,5.8c7.5,3.4,14.6-4.5,21.7-9.3c7.1-4.9,11.4-9.7,14.2-14.9
			c2.8-5.2,5.3-7.6,5.3-7.6s4.3,10-1.8,13.7c-7.3,4.4-19.2,13.1-22.6,15.1c-2.9,1.7-17.3,12.5-25.4,4.4
			C72.6,441.6,72.2,439.8,73.3,436.4z"/>
		<path class="st4" d="M91.7,413.9c0,0,3.3,1.2,6.5,4.8c2.5,2.9,4.2,5.2,4.2,5.2l-2.6,2c0,0-4.5-4.4-6.5-6.7
			c-0.7-0.8-3.7-2.5-3.7-2.5L91.7,413.9z"/>
		<path class="st4" d="M87,420c0,0,3.5,1.4,6.7,5c2.5,2.9,3.2,4.2,3.2,4.2l-2.3,2.6c0,0-3.8-4.1-5.9-6.3c-0.7-0.8-4-2.8-4-2.8
			L87,420z"/>
	</g>
	<path class="st12" d="M116.1,188.9c2.1-33.4-23.3-35.7-23.3-35.7c1.5-11.2-50.7,4.5-50.7,4.5s-11.2,60.5-15.9,92.3
		c-5.4,36.2-6.3,108.5-6.3,108.5s4.9,9.3,18.4,9.2c10.3,0,18-9.1,18-9.1l1.1-83.9l12-59.5c0,0,5.9,63.8,9.2,88
		c2.6,18.7,11.1,99.3,11.1,99.3s12.5,7.5,25.6,5c10.5-2,13.9-13.8,13.9-13.8s1.5-52.9-13.9-87.5C113.8,280,115.1,204.3,116.1,188.9z
		"/>
	<path class="st2" d="M20.3,161.2c0,0-2.3,8.7,0.5,16.1c2.1,5.5,3.6,9.3,3.6,9.3s-7.5-4-8.6-0.2c-1.1,3.8,3.8,4.8,7.7,7.4
		c4.2,2.8,8,0,8,0s5.2-32.1,5.7-34.4C37.7,157.1,31,152.3,20.3,161.2z"/>
	<path class="st12" d="M59.3,58.3c0,0-14.6-3-22.3,11.5c-7.7,14.5-23.2,38.5-28,52.6c-1.4,4.1-2.9,13.4,1,25.5
		C13,157,14.4,167,18,173.3c4-9.6,12.3-13,19.3-10.9c7.5-15.5,4.8-52.9,8.1-49.8C62.1,97.4,71.9,65.4,59.3,58.3z"/>
	<path class="st13" d="M52.1,63.6c0,0-15,6.2-16.8,37.2c-0.4,7-2,36.3-3,52.3c-3.1,46.7-7,63.2-7,63.2s29.9,23.9,56.5,21.7
		c15.8-1.3,37.2-16.7,37.2-16.7c-4-40.8-6.1-35.4-7.4-68.2c-1.2-31.1,0-59.8-0.6-64.3c-1.3-9.6-24-23.7-24-23.7S68.1,57.3,52.1,63.6
		z"/>
	<g>
		<path class="st14" d="M62.4,60.6l-5.9,17.9c0,0-5.5,14.6-2.9,19.6C65.4,93.5,88.4,66.7,86.9,65l-2.6-22.3L62.4,60.6z"/>
		<path class="st12" d="M57.1,64.3c0,0-4.8,12.2-7.2,22.8c-2,8.9,0,19.1,0,19.1S67,92.7,72.6,88.5c8-6,21.2-18.5,21.2-18.5l-6.9-5
			c0,0-10.9,11.1-18,16.9C65.6,84.6,55,93.5,55,93.5s1.7-6.9,3.9-15c1.9-7.1,6.1-17.4,6.1-17.4L57.1,64.3z"/>
		<path class="st2" d="M75.1,14.3c-7.7-5.8-25.8-7.7-32.5,11.1C35.7,45,53.5,69.6,63,65.4c5.3-2.3,16.5-10.7,19.6-21
			C86.2,32.7,81.1,18.8,75.1,14.3z"/>
		<path class="st0" d="M40.7,33.3c5.2,1.1,20.2,2,28.6-2.8c-2,3.6-0.2,7.6,1.4,11.1c0,0,2.2-5.1,6.6-4.2c2.9,0.6,2.7,4.9,2.7,4.9
			s2,7.9,5.4,10.8c2-2.9,4.2-22,4.1-27.4C89.4,18.1,88.1,7,74.3,5.5c-6.8-9.3-16-4.6-21.8-1.6C46.7,7,39.3,12.8,35.3,18.5
			C36.3,23,37.7,28,40.7,33.3z"/>
	</g>
	<path class="st2" d="M99.9,191.1c0,0-4.9,9.6-3.8,18.8c1.1,9.2,8.9,16.1,14.6,18c5.7,1.9,9.1,0,8-2.2c-1.1-2.2-5.8-3.8-5.8-3.8
		s5.6-12,3.5-21.9C114.9,192.9,99.9,191.1,99.9,191.1z"/>
	<path class="st12" d="M106.4,78.7c-7.1-1.3-15,19.2-12.7,32.6c2.6,14.9,13.9,34.6,17.7,41.8c-5.4,14.3-12.3,25.7-15.8,38.7
		c4.1,11.1,16,13.4,23.3,13.4c9.7-17,13.8-25.1,22.4-42.3c5.9-11.7-1.3-27.2-2.6-31.1C128.8,102.9,121.4,81.5,106.4,78.7z"/>
	<polygon class="st8" points="86.6,111.3 69.5,103.7 71.4,99.4 88.5,107 	"/>
</g>
</svg>
