<?xml version="1.0" encoding="utf-8"?>
<!-- Generator: Adobe Illustrator 27.4.1, SVG Export Plug-In . SVG Version: 6.00 Build 0)  -->
<svg version="1.1" id="Layer_1" xmlns="http://www.w3.org/2000/svg" xmlns:xlink="http://www.w3.org/1999/xlink" x="0px" y="0px" viewBox="0 0 483.4 500" style="enable-background:new 0 0 483.4 500;" xml:space="preserve">
<style type="text/css">
	.st0{enable-background:new    ;}
	.st1{fill:#CB2026;}
	.st2{fill:#F26767;}
	.st3{fill:#EF3D39;}
	.st4{fill:#D9D9D8;}
	.st5{fill:#F3F3F3;}
	.st6{fill:#8BC63F;}
	.st7{fill:#FFFFFF;}
</style>
<g>
	<g class="st0">
		<g>
			<polygon class="st1" points="222.3,266 259.3,244.5 259.2,265 222.2,286.5 			"/>
		</g>
		<g>
			<polygon class="st2" points="222.2,286.5 259.2,265 295.8,286.2 258.9,307.6 			"/>
		</g>
		<g>
			<polygon class="st1" points="283.9,244.3 320.9,222.8 295.9,265.7 258.9,287.2 			"/>
		</g>
		<g>
			<polygon class="st2" points="283.9,264.8 320.9,243.3 365.5,397.6 328.5,419.1 			"/>
		</g>
		<g>
			<polygon class="st1" points="347.8,338.5 384.8,317 365.5,377.1 328.6,398.6 			"/>
		</g>
		<g>
			<polygon class="st2" points="347.8,359 384.8,337.5 413.8,354.2 376.8,375.7 			"/>
		</g>
		<g>
			<path class="st2" d="M176.5,123.6l37-21.5c14.7-8.5,35-7.3,57.4,5.6c27.4,15.8,51.5,45.4,66,77.8l-37,21.5
				c-14.5-32.4-38.6-62-66-77.8C211.4,116.3,191.1,115.1,176.5,123.6z"/>
		</g>
		<g>
			<polygon class="st1" points="429.2,391.9 466.2,370.4 334.3,478.5 297.4,500 			"/>
		</g>
		<g>
			<path class="st1" d="M446.4,344.8l37-21.5c-0.1,21.5-6.5,37.6-17.2,47.2l-37,21.5C439.9,382.4,446.3,366.2,446.4,344.8z"/>
		</g>
		<g>
			<path class="st3" d="M446.4,344.8c-0.1,21.5-6.5,37.6-17.2,47.2L297.4,500c-6.4-12.9-127.9-258.5-129.7-262.6
				c-9.4-20.8-14.7-42.3-14.7-62.1c0.1-51.2,36.4-71.8,80.9-46.1c27.4,15.8,51.5,45.4,66,77.8c14.6-15.5,38.8-17.2,66.2-1.5
				C410.6,231.3,446.5,293.6,446.4,344.8z M376.8,375.7l0.1-20.5l-29-16.7l-19.3,60.1L284,244.2l-25,42.9L222.3,266l-0.1,20.5
				l36.6,21.2l25-42.9l44.6,154.3l19.3-60.2L376.8,375.7L376.8,375.7z"/>
		</g>
		<g>
			<path class="st2" d="M308.7,200l37-21.5c14.7-8.5,34.9-7.3,57.3,5.6c44.5,25.7,80.5,88,80.4,139.2l-37,21.5
				c0.1-51.2-35.8-113.5-80.4-139.2C343.7,192.6,323.4,191.5,308.7,200z"/>
		</g>
	</g>
</g>
<g>
	<g class="st0">
		<path class="st4" d="M127.6,167.5c12-7,19.4-21.8,19.5-42.9c0.1-42.4-29.8-94.1-66.7-115.4C61.8-1.6,45-2.6,32.8,4.5l-13.3,7.8
			c12.2-7.1,29-6.1,47.6,4.7c36.9,21.3,66.8,73,66.7,115.4c-0.1,20-6.8,34.2-17.7,41.6c0.1-0.8,0.2-1.7,0.3-2.5l-13.3,7.8
			c-4.9,29.6,10.7,61.6,11.5,63.3l13.3-7.8c-0.8-1.6-15.4-31.8-11.8-60.5L127.6,167.5z"/>
		<g>
			<path class="st5" d="M67.1,16.9c36.9,21.3,66.8,73,66.7,115.4c-0.1,27.1-12.4,43.8-30.8,46.9c-4.9,29.6,10.7,61.6,11.5,63.3
				c-30-26.1-44.8-58-50.6-73.6C28.3,146.7-0.1,96.5,0,55.1C0.1,12.7,30.1-4.4,67.1,16.9z"/>
		</g>
		<path class="st6" d="M124.3,128.9c0,36.4-25.7,51.1-57.4,32.7C35.2,143.4,9.4,99,9.4,62.6s25.7-51.1,57.4-32.7
			C98.6,48.2,124.3,92.5,124.3,128.9z"/>
		<path class="st7" d="M85,45.5l-23.5,64.3l-8.6-29.7c-1.3-5.1-5.4-9.9-9.3-10.6l0,0c-3.8-0.7-5.9,2.8-4.6,8l19.6,73.2
			c0.9,3.6,4.7,5.8,5.6,3.2L98.9,59c1.3-3.6-0.7-9.6-4.5-13.3l0,0C90.5,42,86.3,41.9,85,45.5z"/>
	</g>
</g>
</svg>
