<?xml version="1.0" encoding="utf-8"?>
<!-- Generator: Adobe Illustrator 27.4.1, SVG Export Plug-In . SVG Version: 6.00 Build 0)  -->
<svg version="1.1" id="Layer_1" xmlns="http://www.w3.org/2000/svg" xmlns:xlink="http://www.w3.org/1999/xlink" x="0px" y="0px" viewBox="0 0 500 338.6" style="enable-background:new 0 0 500 338.6;" xml:space="preserve">
<style type="text/css">
	.st0{fill:#A79E81;}
	.st1{fill:#E7DAB2;}
	.st2{fill:#E7E0DE;}
	.st3{fill:#F6F4E0;}
	.st4{fill:#C9B8B0;}
	.st5{fill:#9C8181;}
	.st6{fill:#D1C39A;}
	.st7{opacity:0.15;}
	.st8{fill:#B46628;}
	.st9{fill:#FDB61C;}
	.st10{fill:#D78728;}
	.st11{fill:#F19A20;}
	.st12{fill:#A85A2C;}
	.st13{fill:#EF4441;}
	.st14{fill:url(#SVGID_1_);}
	.st15{fill:#B33025;}
	.st16{fill:url(#SVGID_00000127004174435283808290000000652406545464296844_);}
	.st17{fill:url(#SVGID_00000183939591052437323320000015873668680588272297_);}
	.st18{fill:url(#SVGID_00000175281424746088605490000006925344551032643477_);}
	.st19{fill:url(#SVGID_00000176026180270104070900000013468484096728889765_);}
	.st20{fill:#E6E5E0;}
	.st21{fill:url(#SVGID_00000033346839965167249350000018291243905268854965_);}
	.st22{fill:url(#SVGID_00000057843856797801445170000007528094429592519829_);}
	.st23{fill:#C9B9B3;}
	.st24{fill:#211E10;}
	.st25{fill:#FEF16C;}
	.st26{fill:#EF3E23;}
	.st27{fill:url(#SVGID_00000013191117123648600880000000566333875933419698_);}
	.st28{fill:url(#SVGID_00000170280022853392541470000009895768763236752792_);}
	.st29{fill:url(#SVGID_00000129918023234275776980000002504292630729138860_);}
	.st30{fill:#A2BECC;}
	.st31{fill:#837D63;}
	.st32{fill:url(#SVGID_00000096034050464793300730000000242903656031577253_);}
	.st33{fill:url(#SVGID_00000008835137215999464990000008769444881351956156_);}
	.st34{fill:url(#SVGID_00000124854537213104374860000015718731131270742937_);}
	.st35{fill:url(#SVGID_00000136399846699726794000000011217321007604510618_);}
	.st36{fill:url(#SVGID_00000157293034718627527280000002749141964852516527_);}
	.st37{fill:url(#SVGID_00000141446576720876328320000006324830852596425102_);}
	.st38{fill:url(#SVGID_00000155134968015217156370000003529266398692662968_);}
	.st39{fill:url(#SVGID_00000078761384625917556570000001526420081594709409_);}
	.st40{fill:#7D404F;}
	.st41{fill:#202020;}
	.st42{fill:#010101;}
	.st43{fill:url(#SVGID_00000085242187381195057600000011059170460800798649_);}
	.st44{fill:#2D2D2C;}
	.st45{fill:#292929;}
	.st46{fill:#8F8F8F;}
	.st47{fill:#373636;}
	.st48{fill:#E0E1E0;}
	.st49{fill:#686969;}
	.st50{fill:#AFAFAE;}
	.st51{fill:#CFD0D0;}
	.st52{fill:#8C6965;}
	.st53{fill:#774E4B;}
	.st54{fill:#461612;}
	.st55{fill:#643532;}
	.st56{fill:#6D6E6E;}
	.st57{fill:url(#SVGID_00000130610836843917046900000000320273317919238589_);}
	.st58{fill:url(#SVGID_00000128459794010931674480000011715263514313290150_);}
	.st59{fill:url(#SVGID_00000072253812935968547880000009275833201022875550_);}
	.st60{fill:#5D2D29;}
	.st61{fill:#56231F;}
	.st62{fill:#393030;}
	.st63{fill:#332B2B;}
	.st64{fill:#F37321;}
	.st65{fill:url(#SVGID_00000043423492393654306470000010448779082308520883_);}
	.st66{fill:url(#SVGID_00000085225635211590577550000001178254544367309469_);}
	.st67{fill:url(#SVGID_00000144297521726018781350000007491884862488474532_);}
	.st68{fill:url(#SVGID_00000107584067831753762110000007334086109004590987_);}
	.st69{fill:url(#SVGID_00000018229925369194425760000001555233293422417545_);}
	.st70{fill:url(#SVGID_00000146488332948573278650000013070928288400998017_);}
	.st71{fill:url(#SVGID_00000070101418556054360440000010402364497667081406_);}
	.st72{fill:#6C413D;}
	.st73{fill:#A1A0A0;}
	.st74{fill:url(#SVGID_00000098934905150240257490000004871698538786954386_);}
	.st75{fill:url(#SVGID_00000078007498917583550610000016345273310903154326_);}
	.st76{fill:url(#SVGID_00000132062259168521839100000002233178116449045929_);}
	.st77{fill:url(#SVGID_00000110448470352393871500000013950848156292709008_);}
	.st78{fill:url(#SVGID_00000031205370181654563890000004929613663538265525_);}
	.st79{fill:#F47B20;}
</style>
<polygon class="st0" points="229.5,338.6 0,206.1 0,187.7 486.7,190.1 "/>
<polygon class="st0" points="229.5,320.2 229.5,338.6 500,182.4 500,164 "/>
<polygon class="st1" points="229.5,320.2 0,187.7 257.2,39.2 486.7,171.7 "/>
<g>
	<g>
		<g>
			<polygon class="st1" points="198.3,115.9 149,84.3 275.3,11.4 324.7,43 			"/>
		</g>
		<g>
			<polygon class="st2" points="325.1,39.2 431,128.8 444.4,121.1 338.4,31.5 			"/>
			<polygon class="st3" points="275.3,7.7 325.1,39.2 338.4,31.5 288.7,0 			"/>
			<polygon class="st3" points="444.4,121.1 500,153.2 486.7,160.9 431,128.8 			"/>
			<polygon class="st4" points="500,164 500,153.2 486.7,160.9 486.7,171.7 			"/>
			<polygon class="st5" points="431,128.8 486.7,160.9 486.7,171.7 432.7,140.5 324.7,43 275.3,11.4 275.3,7.7 325.1,39.2 			"/>
		</g>
	</g>
	<g>
		<g>
			<g>
				<g>
					<polygon class="st1" points="382.7,231.7 329.9,199.9 432.7,140.5 486.7,171.7 					"/>
					<polygon class="st6" points="221.9,102.3 329.9,199.9 432.7,140.5 324.7,43 					"/>
					<polygon class="st7" points="486.7,171.7 471.8,171.7 423.4,145.9 321.5,46.5 270,14.1 275.3,11.4 324.7,43 432.7,140.5 					
						"/>
				</g>
			</g>
		</g>
		<g>
			<polygon class="st2" points="208.3,109.3 314.2,198.8 327.5,191.1 221.6,101.6 			"/>
			<polygon class="st3" points="139.9,67.7 208.3,109.3 221.6,101.6 153.2,60 			"/>
			<polygon class="st3" points="327.5,191.1 382.7,220.9 369.4,228.6 314.2,198.8 			"/>
			<polygon class="st4" points="382.7,231.7 382.7,220.9 369.4,228.6 369.4,239.4 			"/>
			<polygon class="st5" points="314.2,198.8 369.4,228.6 369.4,239.4 139.9,106.9 139.9,67.7 208.3,109.3 			"/>
		</g>
		<polygon class="st7" points="369.4,239.4 347,239.4 291.8,210.5 220.4,186.5 116.8,120.2 139.9,106.9 139.9,106.9 		"/>
	</g>
</g>
<g>
	<g id="XMLID_2084_">
		<g id="XMLID_2741_">
			<polygon class="st8" points="303.1,291.9 276.6,307.1 276.6,293.1 303.1,277.8 			"/>
		</g>
		<g id="XMLID_2739_">
			<polygon class="st9" points="276.6,293.1 47.1,160.6 73.6,145.3 303.1,277.8 			"/>
		</g>
	</g>
	<g id="XMLID_1252_">
		<g id="XMLID_1254_">
			<polygon class="st10" points="300.2,281.6 70.7,149.1 70.7,147 300.2,279.5 			"/>
		</g>
		<g id="XMLID_1253_">
			<polygon class="st11" points="69.5,149.8 297.2,281.2 297.2,283.3 300.1,281.6 70.7,149.1 			"/>
		</g>
		<g id="XMLID_1263_">
			<polygon class="st12" points="67.7,148.7 70.7,147 70.7,149.1 69.5,149.8 			"/>
		</g>
	</g>
	<g id="XMLID_5048_">
		<g id="XMLID_5051_">
			<polygon class="st10" points="294.3,285 64.8,152.5 64.8,150.4 294.3,282.9 			"/>
		</g>
		<g id="XMLID_5050_">
			<polygon class="st11" points="63.7,153.2 291.3,284.6 291.3,286.7 294.3,285 64.8,152.5 			"/>
		</g>
		<g id="XMLID_5049_">
			<polygon class="st12" points="61.8,152.1 64.8,150.4 64.8,152.5 63.7,153.2 			"/>
		</g>
	</g>
	<g id="XMLID_5056_">
		<g id="XMLID_5059_">
			<polygon class="st10" points="288.4,288.4 58.9,155.9 58.9,153.8 288.4,286.3 			"/>
		</g>
		<g id="XMLID_5058_">
			<polygon class="st11" points="57.8,156.5 285.4,288 285.4,290.1 288.4,288.4 58.9,155.9 			"/>
		</g>
		<g id="XMLID_5057_">
			<polygon class="st12" points="56,155.5 58.9,153.8 58.9,155.9 57.8,156.5 			"/>
		</g>
	</g>
	<g id="XMLID_5052_">
		<g id="XMLID_5055_">
			<polygon class="st10" points="282.5,291.8 53,159.3 53,157.2 282.5,289.7 			"/>
		</g>
		<g id="XMLID_5054_">
			<polygon class="st11" points="51.9,159.9 279.5,291.4 279.5,293.5 282.5,291.8 53,159.3 			"/>
		</g>
		<g id="XMLID_5053_">
			<polygon class="st12" points="50.1,158.9 53,157.2 53,159.3 51.9,159.9 			"/>
		</g>
	</g>
</g>
<g>
	<path class="st7" d="M157.8,203.5c-0.1-0.5-4.4-1.7-4.4-1.7l-0.4,0.1l-39.5-18.4c7.9-5,7.6-12.8-0.8-17.7c-8.7-5-22.8-5.1-31.4-0.1
		c-8.7,5-8.6,13.1,0.1,18.2c7.7,4.4,19.6,5,28.2,1.6l41.7,19.5c0,0,0.1,0.3,0.2,0.3c0,0.1,3.1,1.8,3.6,2.1s1.7-0.6,2.2-1.7
		C157.9,204.6,157.9,204,157.8,203.5z"/>
	<g>
		<path class="st13" d="M108.5,167.6c0,0-1.7-2.4-1.9-3s-1.4-1.1-1.4-1.1s-3.3,1.7-3.7,2.1c-0.4,0.4-1.8,1.6-1.8,1.6l-1.3,0.2
			c0,0-1.9-1.1-2.3-1.8c-0.4-0.8,0-2.2,0-2.2l0.3-1.8c0,0-1.2,1.2-1.3,2.2c-0.1,0.9-0.2,2.9-0.2,2.9s-0.3,1.3-0.1,2
			c0.2,0.7,1.2,2,2.9,2.7c1.8,0.7,1.6,0.3,2.7,1.1s3.9,3.6,6.2,4.3c2.3,0.7,5.2,0.4,5.9,0c0.8-0.4,2-1.9,2-1.9l0.3-2.1
			c0,0-0.7-2.1-1-2.4C113.7,169.9,108.5,167.6,108.5,167.6z"/>
		<path class="st13" d="M98.1,172.7c0,0-1.1-3.6-1.7-3.7c-0.6-0.1-3.5,0.6-4.4,1.2c-0.9,0.6-3,1.7-3,1.7s-1.2-0.8-1.5-1.2
			s-0.4-2.2-0.4-2.2l0.2-1.5c0,0-0.6-0.2-0.7,0s-0.7,3.4-0.7,4c0,0.7,0.1,2.1,0.1,2.1s1.1,2.3,1.8,3c0.7,0.7,1.5,1.9,1.5,1.9
			s1.4,3.3,3.4,4.4c2,1.1,3,1.3,5.8,1.1c2.8-0.1,4.6-0.9,5.2-1.5s0.7-1.4,0.7-1.4s0.1-1.9-0.7-2.7
			C102.8,177.1,98.1,172.7,98.1,172.7z"/>
		
			<linearGradient id="SVGID_1_" gradientUnits="userSpaceOnUse" x1="105.8982" y1="262.8505" x2="125.1145" y2="262.8505" gradientTransform="matrix(1 0 0 -1 0 340)">
			<stop offset="4.947920e-02" style="stop-color:#F9B8B8"/>
			<stop offset="0.9922" style="stop-color:#F7A4A5"/>
		</linearGradient>
		<path class="st14" d="M125.1,106.4c0,0.8-1,2.4-1.4,2.9c-0.4,0.4-1,0.7-1.2,0.8c-0.1,0-0.1,0-0.1,0l-0.6-0.2c0,0-0.1,0.1-0.2,0.2
			c-0.3,0.2-0.7,0.5-0.9,0.5c-0.1,0-0.3-0.1-0.4-0.2l0,0c-0.1-0.1-0.3-0.2-0.3-0.3l0,0c0,0-0.1,0-0.2-0.1c-0.3-0.1-0.5-0.1-0.6-0.5
			c0-0.1,0-0.1,0-0.2c-0.1-0.5,0.2-0.9,0.2-0.9l0.5-1l0.4-1.6l-0.5,1.1l0,0l-0.5,0.9c0,0-0.3,0.6-0.5,0.7s-0.4,0.1-0.5-0.2
			c0,0,0-0.1-0.1-0.1c-0.1-0.4,0.5-1.9,0.5-2.4s-0.1-3.1-0.1-3.1s-1.2-2.7-2.4-4.3c-1.2-1.6-3.6-11.4-4.9-13.9
			c-0.5-0.9-1.5-6-2.6-12.3c-2-12-3.9-28.4-1.4-28.5c3.8-0.1,4.3,6.8,4.2,8.3c-0.1,1.4,1.1,15.1,1.7,16.6c0.5,1.5,3,7.5,3.4,10.3
			s3.9,15.9,4.7,17.3c0.8,1.4,3.3,4.6,3.5,5.3C124.8,102.1,125.1,105.6,125.1,106.4z"/>
		<path class="st15" d="M81,45.1c0,0-11.7,5.4-12.4,6.7c-0.7,1.3,4.5,31.3,5.3,33.7s12.4-4.7,12.4-4.7L96,59.7
			C95.9,59.7,86.3,43.1,81,45.1z"/>
		
			<linearGradient id="SVGID_00000132057206825024861300000011854842719875259283_" gradientUnits="userSpaceOnUse" x1="109.204" y1="249.6504" x2="158.2053" y2="244.103" gradientTransform="matrix(1 0 0 -1 0 340)">
			<stop offset="0.2656" style="stop-color:#EF7A7A"/>
			<stop offset="0.9922" style="stop-color:#F7A4A5"/>
		</linearGradient>
		<path style="fill:url(#SVGID_00000132057206825024861300000011854842719875259283_);" d="M122.9,108.5c-0.2,0.3-0.7,0.9-0.8,1.1
			c0,0.1,0.1,0.3,0.3,0.5c-0.1,0-0.1,0-0.1,0l-0.6-0.2c0,0-0.1,0.1-0.2,0.2c-0.1-0.1-0.1-0.2-0.1-0.2l0.4-0.9l0.7-1.1l-0.5-0.8
			l-0.4,0.4l-1,2.1c0,0-0.4,0.4-0.4,0.7c-0.1-0.1-0.3-0.2-0.3-0.3c0-0.1,0-0.3,0.1-0.5c0.2-0.4,0.7-1.5,0.7-1.5l0.5-1.3h-0.9l-0.5,1
			c0,0-0.4,1-0.7,1.8c0-0.1,0-0.1,0-0.2c-0.1-0.5,0.2-0.9,0.2-0.9l0.5-1l0.4-1.6l-0.5,1.1c0-0.1,0-0.4,0-0.5
			c-0.1-0.2-0.3-0.3-0.3-0.3s-0.8,0.9-0.8,1.2c0,0.2-0.2,0.8-0.3,1.2c0,0,0-0.1-0.1-0.1c-0.1-0.4,0.5-1.9,0.5-2.4s-0.1-3.1-0.1-3.1
			s-1.2-2.7-2.4-4.3c-1.2-1.6-3.6-11.4-4.9-13.9c-0.5-0.9-1.5-6-2.6-12.3c0.9-0.6,1.6-0.9,1.7-0.4c0.3,1.2,1.1,9.2,1.6,10.6
			c0.4,1.4,3.8,5.1,4.4,10s0.7,5.5,1.1,6s1,3.4,2.8,3.8c1.9,0.4,2.1-1.8,2.1-1.8s0.8,1.2,0.9,1.4c0.1,0.3,0.6,3,0.6,3l0.3,1.5
			C124,106.4,123.1,108.2,122.9,108.5z"/>
		
			<linearGradient id="SVGID_00000142144400200738469530000012900493383208219799_" gradientUnits="userSpaceOnUse" x1="117.8474" y1="238.0389" x2="123.2804" y2="238.0389" gradientTransform="matrix(1 0 0 -1 0 340)">
			<stop offset="4.947920e-02" style="stop-color:#F9B8B8"/>
			<stop offset="0.9922" style="stop-color:#F7A4A5"/>
		</linearGradient>
		<path style="fill:url(#SVGID_00000142144400200738469530000012900493383208219799_);" d="M122.4,107.6c0,0,0.8,0.2,0.8-0.6
			c0-0.8-0.6-2.8-0.6-3.9s-0.1-2.4-0.1-2.4s-0.2-1.5-0.8-2.7c-0.6-1.3-1.7-1.7-1.7-1.7s-2,0.3-2.2,0.9c-0.3,0.6,0.5,3.4,1.3,4.1
			s1.4,1.5,1.4,1.5s0.3,1.1,0.6,1.9c0.3,0.8,0.2,1.1,0.4,1.8C121.8,107.1,122.4,107.6,122.4,107.6z"/>
		
			<linearGradient id="SVGID_00000072267602724894221590000013274418002565866900_" gradientUnits="userSpaceOnUse" x1="93.5554" y1="201.9" x2="110.2124" y2="201.9" gradientTransform="matrix(1 0 0 -1 0 340)">
			<stop offset="4.947920e-02" style="stop-color:#F9B8B8"/>
			<stop offset="0.9922" style="stop-color:#F7A4A5"/>
		</linearGradient>
		<path style="fill:url(#SVGID_00000072267602724894221590000013274418002565866900_);" d="M104.8,134.2c0,0-1.3,16.1-0.9,21.2
			c0.4,5.1,0.6,6.7,1.7,8.8s-2,4.9-2,4.9s-1-0.3-2.3-0.7c-1.7-0.5-3.7-1.2-4.4-1.5c-1.2-0.5-1.4-1.9-1.2-3c0.2-1.1,0.7-2.2,0.8-4.1
			c0.1-1.9-0.6-9.2-1.6-12c-1-2.9-1.3-8.1-1.2-13.5c0.1-5.4,1.5-21.5,3.3-22.8c0.6-0.5,1.9-1,3.2-1.5c2.4-0.9,5.1-1.7,5.1-1.7
			l5.1-1.2c0,0-1.1,11.3-3.2,18.1C104.9,132,104.8,134.2,104.8,134.2z"/>
		
			<linearGradient id="SVGID_00000048498625441857883560000015463738403279039654_" gradientUnits="userSpaceOnUse" x1="93.5554" y1="200.9" x2="101.8874" y2="200.9" gradientTransform="matrix(1 0 0 -1 0 340)">
			<stop offset="0.2656" style="stop-color:#EF7A7A"/>
			<stop offset="0.9922" style="stop-color:#F7A4A5"/>
		</linearGradient>
		<path style="fill:url(#SVGID_00000048498625441857883560000015463738403279039654_);" d="M101.9,166.5c0,0-0.2,0.7-0.6,1.8
			c-1.7-0.5-3.7-1.2-4.4-1.5c-1.2-0.5-1.4-1.9-1.2-3c0.2-1.1,0.7-2.2,0.8-4.1c0.1-1.9-0.6-9.2-1.6-12c-1-2.9-1.3-8.1-1.2-13.5
			c0.1-5.4,1.5-21.5,3.3-22.8c0.6-0.5,1.9-1,3.2-1.5c1.1,1,1.8,2.3,1.7,3c-0.3,2.1-2.7,15.9-2.9,18.5c-0.3,2.6-3,10.3-3,12.4
			c0,2,1.3,12.6,1.3,12.6s0.2,4.7,0.1,5.4s-0.2,3.5,0.3,3.8C98.1,166.1,101.9,166.5,101.9,166.5z"/>
		<path class="st20" d="M108.5,166.5c0,0-1.7-2.4-1.9-3c-0.3-0.6-1.4-1.1-1.4-1.1s-3.3,1.7-3.7,2.1c-0.4,0.4-1.8,1.6-1.8,1.6
			l-1.3,0.2c0,0-1.9-1.1-2.3-1.8c-0.4-0.8,0-2.2,0-2.2l0.3-1.8c0,0-1.2,1.2-1.3,2.2c-0.1,0.9-0.2,2.9-0.2,2.9s-0.3,1.3-0.1,2
			c0.2,0.7,1.2,2,2.9,2.7c1.8,0.7,1.6,0.3,2.7,1.1s3.9,3.6,6.2,4.3c2.3,0.7,5.2,0.4,5.9,0c0.8-0.4,2-1.9,2-1.9l0.3-2.1
			c0,0-0.7-2.1-1-2.4C113.7,168.8,108.5,166.5,108.5,166.5z"/>
		
			<linearGradient id="SVGID_00000119829730956546620580000013940390628916365491_" gradientUnits="userSpaceOnUse" x1="81.3739" y1="200.097" x2="100.4427" y2="200.097" gradientTransform="matrix(1 0 0 -1 0 340)">
			<stop offset="4.947920e-02" style="stop-color:#F9B8B8"/>
			<stop offset="0.9922" style="stop-color:#F7A4A5"/>
		</linearGradient>
		<path style="fill:url(#SVGID_00000119829730956546620580000013940390628916365491_);" d="M94.8,139.2c-0.9,1.9-2.2,16.5-2,19.2
			s2.7,8.5,3.2,10.1c0.5,1.7,0.4,6.6-3.8,6.4c-0.5,0-0.9-0.1-1.3-0.2c-3.1-0.7-3.6-2.9-4.2-4.1c-0.6-1.4,0.3-2.7,0.5-5
			s-3.5-12.6-4.5-17.9c-0.9-5.3,1.9-10.3,2-14.1c0.1-3.9-3.4-21.1-3.4-21.1l0.8-0.4l12-7.2c0,0,6.5,5.7,6.3,9s-3,18.2-3.6,20
			C96.2,135.7,95.7,137.4,94.8,139.2z"/>
		
			<linearGradient id="SVGID_00000033371192551359306550000011917983761841340829_" gradientUnits="userSpaceOnUse" x1="81.3739" y1="196.5" x2="90.9407" y2="196.5" gradientTransform="matrix(1 0 0 -1 0 340)">
			<stop offset="0.2656" style="stop-color:#EF7A7A"/>
			<stop offset="0.9922" style="stop-color:#F7A4A5"/>
		</linearGradient>
		<path style="fill:url(#SVGID_00000033371192551359306550000011917983761841340829_);" d="M90.9,174.8c-3.1-0.7-3.6-2.9-4.2-4.1
			c-0.6-1.4,0.3-2.7,0.5-5s-3.5-12.6-4.5-17.9c-0.9-5.3,1.9-10.3,2-14.1c0.1-3.9-3.4-21.1-3.4-21.1l0.8-0.4c0.5,1.8,0.8,3.9,0.8,5
			c0.1,2.8,1.6,8.3,2,10.7c0.5,2.5,0.5,8.6,0.5,8.6s-1.9,4.3-2.3,8.2c-0.4,3.8,1.9,10.7,2.9,14.2s1.5,7.2,1.5,7.2l-0.2,3.4l0.6,1.3
			l2,0.8C90,171.4,90.5,173.3,90.9,174.8z"/>
		<path class="st20" d="M98.1,171.5c0,0-1.1-3.6-1.7-3.7c-0.6-0.1-3.5,0.6-4.4,1.2c-0.9,0.6-3,1.7-3,1.7s-1.2-0.8-1.5-1.2
			s-0.4-2.2-0.4-2.2l0.2-1.5c0,0-0.6-0.2-0.7,0s-0.7,3.4-0.7,4c0,0.7,0.1,2.1,0.1,2.1s1.1,2.3,1.8,3c0.7,0.7,1.5,1.9,1.5,1.9
			s1.4,3.3,3.4,4.4c2,1.1,3,1.3,5.8,1.1c2.8-0.1,4.6-0.9,5.2-1.5s0.7-1.4,0.7-1.4s0.1-1.9-0.7-2.7C102.8,176,98.1,171.5,98.1,171.5z
			"/>
		<path class="st13" d="M118.3,106.7c0,0-0.5,3.5-2.4,4.9c-1.8,1.4-11.5,4.7-14.6,6.4c-1.2,0.6-3.1,1.1-5.1,1.4
			c-0.6,0.1-1.3,0.2-1.9,0.3c-2.6,0.3-5.2,0.4-6.5,0.4c-2.3,0-7-1.1-9.3-1.5c-0.4-0.1-0.8-0.1-1-0.1c-1.5-0.1-1.6-2.3-1.6-2.6
			s0.5-11.8,1-13.4s1-8.1,2.3-10.1c1.3-2.1,2-6,3.6-7.1c0.7-0.5,6.5-1.2,12.5-1.8l0,0c6.8-0.7,13.8-1.3,13.8-1.3s0.3,0.2,0.7,0.6
			c0.8,0.7,2.3,2.1,3.3,3.7c1.5,2.4,2.4,9.6,2.5,10.8C115.7,98.1,118.3,106.7,118.3,106.7z"/>
		<path class="st23" d="M96.3,119.3c0,0.1,0,0.2-0.1,0.2c-0.3,0.4-1.9,0-1.9,0v-5.2c0,0-1.1-5.1-2.8-7c-1.7-2-5.6-9.9-5.6-9.9
			l-3.3-9.6c0,0-2,4.2-2.7,5.9c-0.7,1.7-1.9,10-1.9,11.4s0,10.8,0,10.8s0.2,1.1,0.5,2.5c-0.4-0.1-0.8-0.1-1-0.1
			c-1.5-0.1-1.6-2.3-1.6-2.6s0.5-11.8,1-13.4s1-8.1,2.3-10.1c1.3-2.1,2-6,3.6-7.1c-0.1-0.1-0.1-0.1-0.1-0.2c-0.6-2-0.2-5.7-1.2-10.3
			c-0.4-2-1.7-5.8-3.1-9.4c2.9-1.8,5.3-3.1,5.3-3.1s4.7,8.4,5.2,10.8s2.9,2.7,2.9,2.7l-0.7,2.8l0.7,3.3l3.6,1.6l-3.3,1.3
			c0,0,1,1.8,1.2,2.8l0,0c0.1,1-0.6,2.6-1.2,4.4c-0.5,1.7,4.3,15.9,4.3,15.9S96.5,117.6,96.3,119.3z"/>
		<g>
			<polygon class="st24" points="91.1,115 90.8,114.5 96.6,110.8 97,111.3 			"/>
		</g>
		<path class="st25" d="M113.3,67.8c-0.9,2.7-3,12.1-3.5,14.6c-0.1,0.4-0.1,0.6-0.1,0.6c-1.1,1.4-3.7,2.9-10.6,3.9
			c-1.9,0.3-3.9,0.4-5.9,0.3c-5-0.1-9.6-1-10.4-2.3c-0.1-0.1-0.1-0.1-0.1-0.2c-0.6-2-0.2-5.7-1.2-10.3c-0.4-2-1.7-5.8-3.1-9.4
			c-1.7-4.7-3.4-9.3-3.2-9.7c0.5-0.8,10.2-12.2,10.2-12.2s6.4-1.7,8.8-1.7s13.1,1.6,14.3,2.4c1.2,0.9,1.6,4.7,2.2,7.8
			C111.2,54.8,114.3,64.7,113.3,67.8z"/>
		<path class="st26" d="M97.7,44.1l9.7,10l4.6,5l0.6-0.1l-0.5-5.2l-3-4.9l-3.6-5.1l-4.6-2.3c0,0-2.8-0.2-3.1,0.4
			C97.5,42.5,97.7,44.1,97.7,44.1z"/>
		<path class="st26" d="M92.5,58l0.3,8.4c0,0-1.8,5.8-2.5,6.6c-0.6,0.8-1.3,2.1-1.5,2.5s-2.7,4.8-2.7,4.8s-2.4-0.7-2.7-1.6
			c-0.4-0.9,2.6-13,2.6-13s0.4-4.2-1.6-8.3c-1.9-4.1-5-6.8-5-6.8h-0.7l-2,2.5l-0.9-2.9l2.1-2.3c0,0,4.5-2.1,5.2-2.1
			c0.7,0.1,3.5,1.4,5,3.4C89.6,51.4,92.5,58,92.5,58z"/>
		
			<linearGradient id="SVGID_00000029754954812286832190000013145007525017406633_" gradientUnits="userSpaceOnUse" x1="85.1769" y1="301.0156" x2="98.6981" y2="301.0156" gradientTransform="matrix(1 0 0 -1 0 340)">
			<stop offset="4.947920e-02" style="stop-color:#F9B8B8"/>
			<stop offset="0.9922" style="stop-color:#F7A4A5"/>
		</linearGradient>
		<path style="fill:url(#SVGID_00000029754954812286832190000013145007525017406633_);" d="M98.5,37.5c0,0-0.8,2.3-0.5,4.4
			c0.3,2,1,4.1,0.5,5.8s-2,3.1-5,2.7c-3-0.4-6.7-2.1-7.6-3.4c-0.9-1.3-0.9-2.3-0.6-2.7s1.2-3.4,1.2-4.8c0-1.4,0.2-3.9-0.2-5.8
			c-0.4-2,2.6-6.2,2.6-6.2l7.8,1.2L98.5,37.5z"/>
		
			<linearGradient id="SVGID_00000119085013031299124470000015743022766676206527_" gradientUnits="userSpaceOnUse" x1="90.0718" y1="297.4585" x2="98.0812" y2="297.4585" gradientTransform="matrix(1 0 0 -1 0 340)">
			<stop offset="0.2656" style="stop-color:#EF7A7A"/>
			<stop offset="0.9922" style="stop-color:#F7A4A5"/>
		</linearGradient>
		<path style="fill:url(#SVGID_00000119085013031299124470000015743022766676206527_);" d="M90.1,39.3c0,0,2.6,1.3,3.5,2.2
			s1.7,2.2,1.7,2.2s0.4,1.9,0.9,3c0.4,1.1,0.9-3.1,1.1-3.5s0.9-1.8,0.9-1.8l-2.6-3.2L90.1,39.3z"/>
		
			<linearGradient id="SVGID_00000105409717086959850400000005797197981284380334_" gradientUnits="userSpaceOnUse" x1="85.7369" y1="309.7108" x2="103.3666" y2="309.7108" gradientTransform="matrix(1 0 0 -1 0 340)">
			<stop offset="4.947920e-02" style="stop-color:#F9B8B8"/>
			<stop offset="0.9922" style="stop-color:#F7A4A5"/>
		</linearGradient>
		<path style="fill:url(#SVGID_00000105409717086959850400000005797197981284380334_);" d="M101.3,40.6c0,0-1,1-2.4,1
			s-7.6-1.2-9.5-2.6s-3.7-5.9-3.7-7.1c0-1.2-0.5-6.5,2.6-8.4s4.1-4.8,8-4.5s5,1.9,5.6,3.8s1.4,6.3,1.4,7.8s-0.6,5.9-1.1,7.3
			C101.9,39.1,101.3,40.6,101.3,40.6z"/>
		<g>
			
				<rect x="125.6" y="106.8" transform="matrix(0.8348 -0.5505 0.5505 0.8348 -67.51 96.6319)" class="st30" width="3.4" height="108"/>
		</g>
		<path class="st31" d="M156.6,201.7l-0.4-0.1c0,0,0.1,1-1.1,1.6c-1.2,0.6-1.9,0.1-1.9,0.1s-0.1,0.3-0.1,0.4c0,0.1,1.7,3.2,2,3.7
			s1.7,0.3,2.8-0.3c1-0.6,1.4-1.1,1.5-1.6C159.6,205,156.6,201.7,156.6,201.7z"/>
		
			<linearGradient id="SVGID_00000154406948132422259920000013112987377343716775_" gradientUnits="userSpaceOnUse" x1="90.9931" y1="249.3801" x2="81.9017" y2="245.6819" gradientTransform="matrix(1 0 0 -1 0 340)">
			<stop offset="4.947920e-02" style="stop-color:#F9B8B8"/>
			<stop offset="0.9922" style="stop-color:#F7A4A5"/>
		</linearGradient>
		<path style="fill:url(#SVGID_00000154406948132422259920000013112987377343716775_);" d="M106.2,125.2c0,0-0.2,0.5-0.7,0.5
			c-0.1,0-0.1,0-0.2,0l0,0c-0.2,0-0.5-0.1-0.6-0.3c-0.2-0.1-0.3-0.3-0.4-0.6c-0.2-0.6-1-2.2-1-2.2l-0.4,0.9l-0.6,1.3l-0.1,0.4
			l-0.1,0.6c0,0-0.1,0-0.2,0c-0.2,0-0.6,0-1.1-0.1c-0.2,0-0.4-0.2-0.6-0.3c-0.3-0.3-0.4-0.6-0.4-0.6l0,0c0,0-0.1,0-0.2,0
			c-0.3,0-1-0.9-1.1-1.1l0,0c0,0-0.1,0-0.3-0.1c-0.2,0-0.4-0.1-0.6-0.1c-0.4,0-1.2-1.5-1.2-1.5l-0.2-0.2l-0.7-1c0,0,0,0-0.1-0.1
			c-0.2-0.3-0.7-0.9-0.7-1.3s0.6-4.5,0.6-4.5s0-0.1,0-0.5v-0.1c0-0.4-0.1-1-0.4-2c-0.6-2-4.3-7.5-6.6-12.1
			c-2.3-4.5-4.6-10.4-4.6-11.6c-0.1-1.1-7-15-9.2-22.3c-2.1-6.7-0.1-9.3,0.9-10.2l0,0c0.1-0.1,0.2-0.1,0.2-0.2
			c0.9-0.7,3.8-0.7,5.8,1c2,1.8,2.2,3.4,3.2,6.1s3.1,11.6,3.1,11.6s2,6,3.4,10.1c1.3,4,2.9,9.6,4.3,13.7s6,13.7,6,13.7
			s3.1,4.7,3.4,5.1s0.8,2,0.8,2.4c0,0.3,0.1,3.3,0.1,3.6C105.5,123.6,106.2,125.2,106.2,125.2z"/>
		
			<linearGradient id="SVGID_00000061445120983833133790000017543124218477396919_" gradientUnits="userSpaceOnUse" x1="73.48" y1="254.7" x2="95.2487" y2="254.7" gradientTransform="matrix(1 0 0 -1 0 340)">
			<stop offset="0.2656" style="stop-color:#EF7A7A"/>
			<stop offset="0.9922" style="stop-color:#F7A4A5"/>
		</linearGradient>
		<path style="fill:url(#SVGID_00000061445120983833133790000017543124218477396919_);" d="M94.3,110.2c0.5,1.1,1,1.6,1,4.2
			c0-0.4-0.1-1-0.4-2c-0.6-2-4.3-7.5-6.6-12.1c-2.3-4.5-4.6-10.4-4.6-11.6c-0.1-1.1-7-15-9.2-22.3c-2.1-6.7-0.1-9.3,0.9-10.2
			c-2.8,3.6-0.2,11.2,0.6,13.7c0.8,2.6,7.5,16.9,7.5,16.9s2.5,7.3,4.3,11.4C89.4,102.3,93.7,109.2,94.3,110.2z"/>
		
			<linearGradient id="SVGID_00000137112559199773776360000007617941682456783496_" gradientUnits="userSpaceOnUse" x1="95.3562" y1="218.65" x2="96.2223" y2="218.65" gradientTransform="matrix(1 0 0 -1 0 340)">
			<stop offset="0.2656" style="stop-color:#EF7A7A"/>
			<stop offset="0.9922" style="stop-color:#F7A4A5"/>
		</linearGradient>
		<path style="fill:url(#SVGID_00000137112559199773776360000007617941682456783496_);" d="M95.6,120.9l0.6,0.6v0.4L95.6,120.9
			c-0.1,0-0.1,0-0.2-0.1L95.6,120.9z"/>
		
			<linearGradient id="SVGID_00000002342229304657674900000016983962501160673157_" gradientUnits="userSpaceOnUse" x1="98.1388" y1="216.7" x2="98.4071" y2="216.7" gradientTransform="matrix(1 0 0 -1 0 340)">
			<stop offset="0.2656" style="stop-color:#EF7A7A"/>
			<stop offset="0.9922" style="stop-color:#F7A4A5"/>
		</linearGradient>
		<path style="fill:url(#SVGID_00000002342229304657674900000016983962501160673157_);" d="M98.2,122.8l0.2,1c0,0-0.1,0-0.3-0.1
			c0-0.4,0.1-0.7,0.1-0.7S98.2,122.8,98.2,122.8z"/>
		
			<linearGradient id="SVGID_00000172399457252963640600000002895162649961810850_" gradientUnits="userSpaceOnUse" x1="99.7349" y1="215.85" x2="100.2086" y2="215.85" gradientTransform="matrix(1 0 0 -1 0 340)">
			<stop offset="0.2656" style="stop-color:#EF7A7A"/>
			<stop offset="0.9922" style="stop-color:#F7A4A5"/>
		</linearGradient>
		<path style="fill:url(#SVGID_00000172399457252963640600000002895162649961810850_);" d="M99.9,122.8l0.3,2.7
			c-0.3-0.3-0.4-0.6-0.4-0.6l0,0c0-0.1,0-0.3,0-0.3C99.7,124.2,99.9,122.8,99.9,122.8z"/>
		
			<linearGradient id="SVGID_00000132792174755294191410000008362543514483098303_" gradientUnits="userSpaceOnUse" x1="101.8874" y1="215.55" x2="102.194" y2="215.55" gradientTransform="matrix(1 0 0 -1 0 340)">
			<stop offset="0.2656" style="stop-color:#EF7A7A"/>
			<stop offset="0.9922" style="stop-color:#F7A4A5"/>
		</linearGradient>
		<path style="fill:url(#SVGID_00000132792174755294191410000008362543514483098303_);" d="M102.2,125.2L102.2,125.2l-0.1,0.6
			c0,0-0.1,0-0.2,0v-1l0.2-1.7L102.2,125.2z"/>
		
			<linearGradient id="SVGID_00000120528908356312800580000016602247893090006701_" gradientUnits="userSpaceOnUse" x1="102.7612" y1="218.2" x2="104.647" y2="218.2" gradientTransform="matrix(1 0 0 -1 0 340)">
			<stop offset="0.2656" style="stop-color:#EF7A7A"/>
			<stop offset="0.9922" style="stop-color:#F7A4A5"/>
		</linearGradient>
		<path style="fill:url(#SVGID_00000120528908356312800580000016602247893090006701_);" d="M103.8,122.7c0.1,1,0.8,2.7,0.8,2.7
			c-0.2-0.1-0.3-0.3-0.4-0.6c-0.2-0.6-1-2.2-1-2.2l-0.4,0.9c0-0.7-0.1-1.4-0.1-1.4l0.3-1.6l0.5-2.3c0,0,0.1,1,0.1,1.1
			C103.6,119.6,103.7,121.7,103.8,122.7z"/>
		
			<linearGradient id="SVGID_00000142160098850771065040000005589963382574637197_" gradientUnits="userSpaceOnUse" x1="104.647" y1="214.45" x2="105.2832" y2="214.45" gradientTransform="matrix(1 0 0 -1 0 340)">
			<stop offset="4.947920e-02" style="stop-color:#F9B8B8"/>
			<stop offset="0.9922" style="stop-color:#F7A4A5"/>
		</linearGradient>
		<path style="fill:url(#SVGID_00000142160098850771065040000005589963382574637197_);" d="M105.3,125.7c-0.2,0-0.5-0.1-0.6-0.3
			L105.3,125.7z"/>
		<path class="st40" d="M97.7,21.6c0,0-2.3-0.2-4.9,2.3c-2.6,2.4-3.2,4.2-3.3,4.7c-0.1,0.5-0.4,3.1-0.4,3.1s-0.6,2.8-0.6,3
			c0,0.2-0.8-2.2-0.8-2.2L86.5,32l0.2,3.9c0,0,0.4,2.6-0.2,5.3s-2,4.2-2,4.2l-2.2,1.9c0,0,1.4-3.8,1.1-7.8C83.2,35.5,83,33,83,33
			s-1.2-3.2-0.9-7.2c0.4-4,2.8-8,6.3-9.6c2.5-0.7,3.9-0.4,3.9-0.4s0.5-0.8,4,0.8c3.5,1.5,4.8,3.4,5,4c0.3,0.5,0.5,1.7,0.5,1.7
			s-1.7-1.9-2.8-1.6C97.9,21,97.7,21.6,97.7,21.6z"/>
	</g>
	<g>
		<path class="st24" d="M103.8,128.3l-0.3-0.1c-5-1.5-14.5-6.6-14-9.3c0.4-2.2,1.9-8.3,4.6-10.6c2-1.7,4.6-2.4,6-2.1
			c0.6,0.1,0.9,0.5,1,0.7c0.5,1.3-0.9,2.6-0.9,2.7l-0.4-0.4c0,0,1.1-1.2,0.8-2.1c-0.1-0.2-0.3-0.3-0.5-0.3c-1.2-0.3-3.7,0.4-5.5,1.9
			c-2.6,2.2-4,8.2-4.4,10.3c-0.3,2,7.8,6.9,13.3,8.6c0.8-1.6,2.7-2.1,2.8-2.1l0.1,0.6c0,0-1.9,0.4-2.5,2L103.8,128.3z"/>
	</g>
	<path id="XMLID_165_" class="st41" d="M99.5,31.5c0.3-0.4,0.4-1,0.4-1.5c0-0.2-0.1-0.5,0.1-0.6s0.4,0,0.5,0.1s0.8,1.5,1,1.7
		s0.7,0.2,1,0.1c0.3,0,0.5-0.2,0.8-0.2s0.5,0,0.7-0.1s0.3-0.3,0.4-0.4c0.2-0.3,0.4-0.6,0.5-1s0-0.8-0.1-1.1
		c-0.1-0.5-0.1-0.9-0.2-1.4l-0.2-0.8c-0.1,0-0.2,0-0.3,0c-0.4,0.1-0.7,0.2-1.1,0.3c-0.3,0.1-0.7,0.2-1,0.3c-0.4,0.1-0.9,0.3-1.2,0.6
		c-0.1,0.1-0.2,0.3-0.4,0.3c-0.2,0.1-0.5,0.2-0.7,0.4c-0.2,0.1-0.4,0.2-0.6,0.1c-0.3-0.1-1.6,0-2.9,0.3s-3,0.9-3,0.9L86,30.7
		c-0.6,0.2-0.4,0.8-0.4,0.8l0.4-0.2l7.8-0.9c0,0,0.2,1.2,0.8,2.1c0.6,1,2.6,0.9,3.9-0.1c0.2-0.1,0.3-0.3,0.4-0.4
		c0.1-0.1,0.3-0.2,0.4-0.3c0.2-0.3,0.4-0.7,0.4-1c0-0.2,0-0.5,0-0.7s0-0.5,0.2-0.6L99.5,31.5z M101.4,28c0.5-0.4,0.8-1,2.1-1
		c0,0,0.7,0,0.8,0.3c0.1,0.2,0.1,1.3,0.1,1.5s0.3,1.5-0.9,2.1c-1.1,0.6-1.7,0.1-1.9-0.1c-0.2-0.2-0.6-1.3-0.6-1.5
		C100.9,29,100.9,28.5,101.4,28z M94.4,30.2c0-0.4,0.2-0.7,0.5-0.8c0.5-0.1,1-0.3,3-0.6c0,0,1.1-0.3,1.4,0.2c0.2,0.4,0,2.4-0.9,3.2
		s-2.5,0.8-3.1,0.3C94.6,32,94.4,30.7,94.4,30.2z"/>
	<path class="st41" d="M104.2,27c0,0-1.6-0.4-2.7,0.7c-1,1.2-1.4,1-1.4,1s-1.1-0.3-2.9,0c-1.8,0.4-2.7,0.6-2.8,1.1
		c-0.1,0.5,0,3.2,2,3.2s2.8-1.7,2.8-1.7c0.1-0.1,0.5-1.7,0.5-1.7c0-0.1,0.8-0.4,0.8-0.4s0.6,2,1.8,2c1.2,0.1,2.2-0.6,2.3-1.1
		c0.1-0.5,0.3-3.2-0.1-3.2C104,27,104.2,27,104.2,27z"/>
	<path class="st41" d="M104.5,26.4h-1.7l0.4,1.2C103.1,27.6,105.4,27.2,104.5,26.4z"/>
	<path id="XMLID_87_" class="st42" d="M102.4,27.1c-0.4,0.1-0.8,0.3-1.1,0.5c-0.1,0.1-0.2,0.2-0.3,0.3l-0.1,0.1
		c-0.1,0.1-0.1,0.1-0.3,0.2c-0.4,0-0.7,0.4-1.1,0.2c-0.3-0.1-1.6,0-2.9,0.3s-3,0.9-3,0.9l-7.9,1.1c-0.6,0.2-0.4,0.8-0.4,0.8l1.1-0.1
		l7.8-0.9c0,0,0.2,1.2,0.8,2.1c0.6,1,2.6,0.9,3.9-0.1s1-2.7,1-2.7s0,0,0.3-0.3s0.5,0,0.6,0.1s0.9,1.4,1.2,1.7
		c0.3,0.2,1.2,0.2,2.3-0.4c1.1-0.6,0.7-3.7,0.7-3.7l-0.2-0.8h-0.2c-0.1,0-0.3,0-0.4,0.1c-0.1,0-0.2,0.1-0.3,0.1
		c-0.1,0-0.2,0.1-0.3,0.1c-0.1,0-0.2,0.1-0.2,0.1C103.1,26.9,102.8,27,102.4,27.1z M101.5,28.2c0.4-0.5,1-1.2,2.4-1.1
		c0,0,0.7,0,0.8,0.3c0.1,0.2,0.1,1.3,0.1,1.5s0.3,1.5-0.9,2.1s-1.7,0.1-1.9-0.1c-0.2-0.2-0.7-1.1-0.8-1.3
		C101.1,29.4,101,28.7,101.5,28.2z M94.8,30.4c0-0.4,0.2-0.7,0.5-0.8c0.5-0.1,1-0.3,3-0.6c0,0,1.1-0.3,1.4,0.2
		c0.2,0.4,0,2.4-0.9,3.2c-0.9,0.8-2.5,0.8-3.1,0.3C95.1,32.1,94.8,30.8,94.8,30.4z"/>
	
		<linearGradient id="SVGID_00000020396678660599637260000015579525750786306440_" gradientUnits="userSpaceOnUse" x1="84.2241" y1="306.8419" x2="88.0046" y2="306.8419" gradientTransform="matrix(1 0 0 -1 0 340)">
		<stop offset="4.947920e-02" style="stop-color:#F9B8B8"/>
		<stop offset="0.9922" style="stop-color:#F7A4A5"/>
	</linearGradient>
	<path style="fill:url(#SVGID_00000020396678660599637260000015579525750786306440_);" d="M87.2,31.8c0,0-0.6-1.2-1.8-1.2
		c-1.2,0-1.2,1.4-1.1,2.5c0.1,1.1,2.1,2.8,3.3,2.6C88.8,35.6,87.2,31.8,87.2,31.8z"/>
</g>
<g>
	<path class="st7" d="M377,186.3l43.7-25.4c2.4-1.4,2.4-4.9,0-6.3L358.5,119c-4.3-2.5-9.6-2.5-13.9,0L305,142c-3.6,2-3.6,7.2,0,9.2
		l0,0l61.2,35C369.5,188.2,373.6,188.2,377,186.3z"/>
	<g>
		<g>
			<path class="st44" d="M396.7,90.5c-8.3-4.8-15.7-4.6-20.5-0.5c-3.6,3.1-5.7,8.4-5.7,15.4c0,16.6,11.7,36.9,26.2,45.2
				c6.7,3.9,12.9,4.5,17.5,2.4c5.4-2.4,8.7-8.5,8.7-17.4C422.9,119.1,411.1,98.8,396.7,90.5z M410.6,147.3c-3.9,3.6-10.1,3.8-17-0.2
				c-11.8-6.8-21.5-23.4-21.5-37c0-7.5,2.9-12.5,7.5-14.4c3.9-3.6,10.1-3.8,17,0.2c11.8,6.8,21.4,23.4,21.4,37
				C418.1,140.4,415.2,145.4,410.6,147.3z"/>
			<path class="st45" d="M393.6,92.4c-6.7-3.9-12.8-4.5-17.5-2.4c-5.4,2.4-8.7,8.5-8.7,17.4c0,16.6,11.7,36.9,26.2,45.2
				c8.3,4.8,15.7,4.6,20.5,0.5c3.6-3.1,5.7-8.3,5.7-15.4C419.8,121,408.1,100.8,393.6,92.4z M379.6,95.8c3.8-1.5,8.6-1,14,2.1
				c11.8,6.8,21.5,23.4,21.5,37c0,5.6-1.6,9.9-4.4,12.4c-3.9,3.6-10.1,3.8-17-0.2c-11.8-6.8-21.5-23.4-21.5-37
				C372.2,102.7,375.1,97.7,379.6,95.8z"/>
			<path class="st46" d="M410.6,147.3c-3.9,3.6-10.1,3.8-17-0.2c-11.8-6.8-21.5-23.4-21.5-37c0-7.5,2.9-12.5,7.5-14.4
				c-2.8,2.5-4.4,6.8-4.4,12.4c0,13.6,9.6,30.2,21.5,37C402,148.3,406.9,148.9,410.6,147.3z"/>
			<g>
				<path class="st47" d="M393.6,92.4c-6.1-3.5-11.7-4.4-16.1-2.9c4.1-0.8,9.1,0.3,14.4,3.4c14.5,8.4,26.2,28.6,26.2,45.2
					c0,9.6-4,15.9-10.1,17.9c7.1-1.3,11.8-7.8,11.8-18.3C419.8,121,408.1,100.8,393.6,92.4z"/>
				<path class="st47" d="M380.3,95.6c-5.9,1-9.8,6.3-9.8,15c0,13.6,9.6,30.2,21.5,37c5.1,2.9,9.7,3.6,13.4,2.4
					c-3.4,0.6-7.4-0.3-11.7-2.8c-11.8-6.8-21.5-23.4-21.5-37C372.2,102.3,375.3,97.2,380.3,95.6z"/>
			</g>
			<g>
				<path class="st48" d="M402.1,151.4c-3.1,0-6.5-1-10-3.1c-12.1-7-21.9-23.9-21.9-37.8c0-6.8,2.3-11.9,6.6-14.4
					c4.3-2.5,10-1.9,16,1.5c12.1,7,21.9,23.9,21.9,37.8c0,6.8-2.3,11.9-6.6,14.4C406.3,150.9,404.3,151.4,402.1,151.4z M382.8,95.9
					c-1.9,0-3.7,0.4-5.3,1.4c-3.8,2.2-5.9,6.9-5.9,13.3c0,13.4,9.5,29.9,21.2,36.6c5.6,3.2,10.8,3.8,14.6,1.5
					c3.8-2.2,5.9-6.9,5.9-13.3c0-13.4-9.5-29.9-21.2-36.6C388.8,96.9,385.6,95.9,382.8,95.9z"/>
			</g>
			<path class="st49" d="M390,119.7c0,2.4,2,6,4,7.2s4.6-0.5,4.6-2.8c0-2.4-1.7-5.2-3.7-6.4C392.8,116.5,390,117.3,390,119.7z"/>
			<path class="st46" d="M348.2,115.7c0,1.4,1,3.2,2.3,3.9c1.3,0.7,2.3,0.1,2.3-1.3s-1-3.2-2.3-3.9
				C349.2,113.7,348.2,114.3,348.2,115.7z"/>
			<path class="st50" d="M349.2,116.3c0,0.8,0.6,1.8,1.3,2.2c0.7,0.4,1.3,0.1,1.3-0.7c0-0.8-0.6-1.8-1.3-2.2
				C349.7,115.2,349.2,115.5,349.2,116.3z"/>
			<g>
				<rect x="374.8" y="80.9" transform="matrix(0.5 -0.866 0.866 0.5 98.827 376.6518)" class="st48" width="1.6" height="43.7"/>
			</g>
			<path class="st44" d="M351.9,105.5c-2.5-1.5-4.9-1.6-6.5-0.7c-0.3,0.1-1.8,1-2,1.2c-1.3,1.1-0.8,2.3-0.8,4.8c0,5.9,4.2,13,9.3,16
				c2.2,1.3,3.2,2.2,4.8,1.7c0.6-0.2,2.2-1.2,2.6-1.7c1.2-1.1,1.8-2.9,1.8-5.3C361.1,115.7,357,108.5,351.9,105.5z M355.5,123.9
				c-1.1,1.2-2.9,1.3-5,0.1c-3.4-1.9-6.1-6.7-6.1-10.6c0-2.3,1-3.8,2.5-4.2c1.1-1.2,2.9-1.3,5-0.1c3.4,1.9,6.1,6.7,6.1,10.6
				C358,122.1,357,123.6,355.5,123.9z"/>
			<path class="st45" d="M350.4,106.4c-2.2-1.3-4.2-1.6-5.8-1c-2.1,0.7-3.4,2.9-3.4,6.3c0,5.9,4.2,13,9.3,16
				c2.9,1.7,5.6,1.6,7.3,0.2c1.3-1.1,2-2.9,2-5.5C359.7,116.5,355.6,109.3,350.4,106.4z M346.9,109.3c1-0.3,2.2,0,3.6,0.7
				c3.4,1.9,6.1,6.7,6.1,10.6c0,1.5-0.4,2.6-1.1,3.4c-1.1,1.2-2.9,1.3-5,0.1c-3.4-1.9-6.1-6.7-6.1-10.6
				C344.3,111.1,345.3,109.6,346.9,109.3z"/>
			<path class="st46" d="M355.5,123.9c-1.1,1.2-2.9,1.3-5,0.1c-3.4-1.9-6.1-6.7-6.1-10.6c0-2.3,1-3.8,2.5-4.2
				c-0.7,0.7-1.1,1.9-1.1,3.4c0,3.9,2.7,8.6,6.1,10.6C353.2,124,354.4,124.2,355.5,123.9z"/>
			<g>
				<path class="st47" d="M350.4,106.4c-3.2-1.9-6.1-1.6-7.8,0.3c1.7-1.1,4.1-1,6.7,0.6c5.1,3,9.3,10.1,9.3,16c0,2.2-0.6,3.9-1.5,5
					c1.6-1,2.5-3,2.5-5.8C359.7,116.5,355.6,109.3,350.4,106.4z"/>
				<path class="st47" d="M343.8,113.8c0,3.9,2.7,8.6,6.1,10.6c2.2,1.3,3.6,1.6,4.7,0.2c-1.1,0.6-2.6,0.5-4.2-0.5
					c-3.4-1.9-6.1-6.7-6.1-10.6c0-1.3,0.3-2.4,0.9-3.1C344,111,343.8,111.8,343.8,113.8z"/>
			</g>
			<path class="st46" d="M351.4,114.1l0.3-8.6l2-0.9l3.7,2.2l0.7,1.2l-1.3,6.3l-2,0.9c0,0-2.2,0.8-2.3,0.7
				C352.4,115.8,351.4,114.1,351.4,114.1z"/>
			<path class="st51" d="M348.7,115.3l2.6-3.5l0.5-6.3l3.7,2.2l0.7,1.2l-1.3,6.3l-3.7,1.5c0,0-1.2,0.5-1.3,0.4
				C349.6,117,348.7,115.3,348.7,115.3z"/>
			<g>
				<polygon class="st48" points="397.6,131.6 355.2,107.1 355.2,88.9 356.7,88.9 356.7,106.2 398.4,130.2 				"/>
			</g>
			<polygon class="st52" points="367.7,77.4 395.4,110.8 396.5,110 396.5,92.6 368.8,76.6 			"/>
			<polygon class="st53" points="367.7,94.8 395.4,110.8 395.4,93.4 367.7,77.4 			"/>
			<g>
				<path class="st48" d="M396.4,116.5h-1.6V90.9l-25.5-14.7c-0.4-0.3-0.8-0.1-1,0c-0.1,0.1-0.5,0.3-0.5,0.9v3.5
					c0,1-0.5,1.9-1.4,2.4s-1.9,0.5-2.7,0l-0.4-0.2c-0.4-0.3-0.8-0.1-1,0c-0.1,0.1-0.5,0.3-0.5,0.9v10.8h-1.6V83.7
					c0-0.9,0.5-1.8,1.3-2.2c0.8-0.5,1.8-0.5,2.6,0l0.4,0.2c0.4,0.2,0.8,0.2,1.2,0c0.4-0.2,0.6-0.6,0.6-1v-3.5c0-0.9,0.5-1.8,1.3-2.2
					c0.8-0.5,1.8-0.5,2.6,0l26.2,15V116.5z"/>
			</g>
			<path class="st46" d="M389.9,120.4c0,2.4,1.7,5.2,3.7,6.4c2,1.2,3.7,0.2,3.7-2.1c0-2.4-1.7-5.2-3.7-6.4S389.9,118,389.9,120.4z"/>
			<path class="st50" d="M391.6,121.3c0,1.3,0.9,2.9,2,3.5c1.1,0.7,2,0.1,2-1.2c0-1.3-0.9-2.9-2-3.5S391.6,120,391.6,121.3z"/>
			<g>
				<path class="st48" d="M342.1,113.6l-1.5-0.2l3.3-22.8c0.3-0.9,1-1.6,1.9-2c0.9-0.3,1.9-0.2,2.7,0.2l7.8,4.5l-0.8,1.3l-7.8-4.5
					c-0.4-0.3-1-0.3-1.4-0.1c-0.5,0.2-0.8,0.5-1,1L342.1,113.6z"/>
			</g>
			<g>
				<rect x="349.1" y="89.5" transform="matrix(0.5 -0.866 0.866 0.5 91.4193 351.2834)" class="st48" width="1.6" height="14"/>
			</g>
			<g>
				<rect x="353.6" y="99" class="st48" width="1.6" height="6.7"/>
			</g>
			<g>
				<rect x="392.8" y="113.2" class="st48" width="1.6" height="15.2"/>
			</g>
			<path class="st54" d="M389.2,87.2l-20.3-11.7c-0.8-0.5-1.2-2.4-0.3-2.9l0.5,1.1c0.9-0.5,2.4-0.6,3.2-0.1L392.9,84
				c0.8,0.5,0.4,2.5-0.5,3.1l0,0C391.4,87.6,390,87.7,389.2,87.2z"/>
			<path class="st55" d="M389.2,85.7L368.9,74c-0.8-0.5-0.7-1.3,0.2-1.9l0,0c0.9-0.5,2.4-0.6,3.2-0.1l20.3,11.7
				c0.8,0.5,0.7,1.3-0.2,1.9l0,0C391.4,86.1,390,86.2,389.2,85.7z"/>
		</g>
		<polygon class="st56" points="310.5,142.2 344.2,122.8 344.2,121.6 303.7,137.1 303.7,138.3 		"/>
		<polygon class="st46" points="310.5,141 344.2,121.6 337.4,117.7 303.7,137.1 		"/>
		<path class="st20" d="M316.8,124.4c0,0-7.4-1.5-8.6-1.4c-1.2,0-4.2,1.7-4.5,2.4s-0.4,2.4-0.4,2.4l3.4,3c0,0,9.1,3.8,9.5,4.2
			s2.5,1.7,5.2,1.2s2.5-2.4,2.4-4.3c0-1.9,0.1-3.2-0.7-4.2c-0.9-1-3-1.5-3-1.5L316.8,124.4z"/>
		<path class="st20" d="M330.5,116l-7.3-0.3c0,0-6-1-6.4-0.4c-0.3,0.6-0.7,2.7,0.1,3.8c0.9,1.2,6,2,7.6,2.9c1.7,0.9,8.1,4.2,9.3,4.3
			c1.2,0.1,3.5-1.1,3.9-2.6s0.3-3-0.2-5.1s-1.2-2.8-1.2-2.8L330.5,116z"/>
		
			<linearGradient id="SVGID_00000067923202494932379490000005719087777929293741_" gradientUnits="userSpaceOnUse" x1="2632.2534" y1="234.1644" x2="2646.9668" y2="234.1644" gradientTransform="matrix(-1 0 0 -1 2975.2261 340)">
			<stop offset="4.947920e-02" style="stop-color:#F9B8B8"/>
			<stop offset="0.9922" style="stop-color:#F7A4A5"/>
		</linearGradient>
		<path style="fill:url(#SVGID_00000067923202494932379490000005719087777929293741_);" d="M340.5,86.3c0,0-3.2-1.2-7.1-1.4
			c-3.9-0.3-4.9,1.8-5.1,3.7c-0.2,1.9,1.2,10.7,3.2,19.6c2,8.8,2.3,13.9,1.8,14.9c-0.6,1,4.2,3.7,5.1,3.7s3.4-0.9,3.3-1.7
			c-0.2-0.8,0.3-13.3,0.3-14.4s2.1-14.4,0.3-15.9C340.3,93.2,340.5,86.3,340.5,86.3z"/>
		
			<linearGradient id="SVGID_00000036245443821405750940000016777708462992176520_" gradientUnits="userSpaceOnUse" x1="2756.0505" y1="19.5237" x2="2774.2549" y2="19.5237" gradientTransform="matrix(-0.9864 -0.1643 0.1643 -0.9864 3041.625 581.2012)">
			<stop offset="4.947920e-02" style="stop-color:#F9B8B8"/>
			<stop offset="0.9922" style="stop-color:#F7A4A5"/>
		</linearGradient>
		<path style="fill:url(#SVGID_00000036245443821405750940000016777708462992176520_);" d="M310.9,105.7c1.1,6.2,4.3,19.8,4.3,20.2
			c0,0.3,1.3,3.4,3.9,3.8c0.4,0.1,0.8,0.1,1.2,0.1c1.9-0.1,2.8-1.3,2.8-1.4c0-0.2-1-8.4-0.3-13.4c0.8-5,2.5-13,2.1-16.5
			c0-0.1,0-0.2,0-0.3C324.4,94.6,323,87,323,87s-3.4-1.2-6.4-0.7s-4.1,1.8-5.3,4.7C309.9,93.7,309.8,99.5,310.9,105.7z"/>
		
			<linearGradient id="SVGID_00000068661057527448519300000012442718373702944409_" gradientUnits="userSpaceOnUse" x1="2756.0505" y1="15.1315" x2="2768.7356" y2="15.1315" gradientTransform="matrix(-0.9864 -0.1643 0.1643 -0.9864 3041.625 581.2012)">
			<stop offset="0.2656" style="stop-color:#EF7A7A"/>
			<stop offset="0.9922" style="stop-color:#F7A4A5"/>
		</linearGradient>
		<path style="fill:url(#SVGID_00000068661057527448519300000012442718373702944409_);" d="M315.8,94.7c0,0-0.6,5.1-0.1,6.3
			c0.6,1.3,4.9,4.9,5.3,6.6c0.4,1.8-0.7,11.4-0.9,13.8c-0.1,1.3,0,5.1,0.1,8.3c1.9-0.1,2.8-1.3,2.8-1.4c0-0.2-1-8.4-0.3-13.4
			c0.8-5,2.5-13,2.1-16.5c0-0.1,0-0.2,0-0.3C321.8,96.8,315.8,94.7,315.8,94.7z"/>
		<g>
			<path class="st60" d="M320.2,110.7c0.5-1.1,11.2-7.3,23.8-14.9c0.6-0.3,1.1-0.6,1.6-0.9c2.5-0.9,3.6-1,5.2-0.9
				c0,0,10.5,1.2,19,7.7c4.4,3.3,9.4,5.8,12.6,9.9c2.2,2.8,1.5,5.7-0.2,8.4c-0.5,0.8-1.2,1.5-2.2,2.2c-8,5.3-17.8,11.3-22.1,12.5
				c-7.7,2.1-12.6-5.3-21.1-11.8c-8.5-6.4-17.9-7.3-17.9-7.3C316.3,111.3,319.7,111.8,320.2,110.7z"/>
			<path class="st61" d="M318,113.3c0.1,0,0.2,0,0.3,0c0.1,0,0.4-0.1,0.7-0.1c0.9,0,2.3,0.2,4.3,0.9c2.1,0.8,11,4.4,14.4,7
				c2.2,1.7,4.2,3.4,6,5.1c0.9,0.8,1.7,1.5,2.5,2.2c3.3,2.8,6.2,4.8,9.5,4.8c0.8,0,1.6-0.1,2.5-0.4c4.4-1.2,14.7-7.3,22.4-12.4
				c1.6-1.1,2.6-2.4,2.8-4.1c0.3-1.9-0.4-4.1-1.9-6.1c-0.4-0.5-0.8-1-1.3-1.5c-2-2.1-4.2-3.7-6.6-5.4c-1-0.7-2.1-1.5-3.2-2.3
				c-2.8-2.1-11.3-5.6-13.1-6.4c-1.9-0.8-3.2-1.1-4.1-1.2c-0.1,0-0.2,0-0.3,0c-0.3,0-0.5,0-0.7,0c-0.1,0-0.1,0-0.1,0H352h-0.1l0,0
				c-0.1,0-0.2,0-0.3,0c-0.2,0-0.5,0-0.7,0c-1,0-2,0.2-3.9,0.9c-0.5,0.3-1,0.6-1.6,0.9l-1,0.6c-11.1,6.6-24.8,14.8-25.7,16
				c-0.1,0.2-0.2,0.4-0.4,0.7C318.2,112.8,318,113.1,318,113.3z"/>
			<path class="st60" d="M346.2,128.4c3.3,2.8,6.2,4.8,9.5,4.8c0.8,0,1.6-0.1,2.5-0.4c4.4-1.2,14.7-7.3,22.4-12.4
				c1.6-1.1,2.6-2.4,2.8-4.1c0.3-1.9-0.4-4.1-1.9-6.1c-0.4-0.5-0.8-1-1.3-1.5L346.2,128.4z"/>
		</g>
		<g>
			<path class="st62" d="M316.5,104.2c0.2,0.6,0.5,1.2,0.7,1.7c0.4,0.8,0.7,1.3,0.9,1.4c0.3,0.2,28,10,30.2,10.8s6.2,1.7,12.2,0
				c4.8-1.4,7-2.7,7.8-3.2c0.2-0.1,0.3-0.2,0.4-0.2c0.4-0.1,0.1-8.3,0.1-8.3l-6.5-4.3l-12.8-9c0,0-25.3-6.1-26.5-6.4
				s-3.6-0.6-3.6-0.6s-0.3,6.2-2,9.4C315.8,98.7,315.9,102.6,316.5,104.2z"/>
			<path class="st23" d="M317.2,105.9c0.4,0.8,0.7,1.3,0.9,1.4c0.3,0.2,28,10,30.2,10.8s6.2,1.7,12.2,0c4.8-1.4,7-2.7,7.8-3.2
				c-1.6-1.6-6-4.8-6-4.8s-5.6,7-9.8,7.5c-4.2,0.6-12.4-3.6-16.9-5.5C331.7,110.5,319.9,106.8,317.2,105.9z"/>
			<path class="st63" d="M334.9,95.8l9.6,9.3l13.1-2.4c0,0,2.8-2.4,4.8-5.3c0.8-1.1,1.4-2.3,1.8-3.5c1.2-4.2-7.1-7.5-7.1-7.5
				l-13.3-2.2l-4.7-0.9c0,0-2.8,2.7-3.4,3.9c-0.3,0.6-0.5,3.1-0.6,5.2C335,94.2,334.9,95.8,334.9,95.8z"/>
			<path class="st23" d="M334.9,95.8l9.6,9.3l13.1-2.4c0,0,2.8-2.4,4.8-5.3l-14-3.5l-13.3-1.6C335,94.2,334.9,95.8,334.9,95.8z"/>
			<path class="st64" d="M346.6,99.5c0,0,1,4.7,1.6,6.8c0.6,2.1,3.6,6.3,4.2,6.7c0.4,0.3,2.8,1.7,7.6,1.9c1.9,0.1,4.1,0,6.7-0.5
				c9.1-1.6,10.7-5.4,13.3-9c2.6-3.6,9.8-17.1,9.8-17.1s2.8-9.8,3.1-11.5c0.4-1.6,1.9-9.8,1.3-13.8s-2.9-5.3-3.5-5.8
				c-0.7-0.6-2.9-0.9-5-0.7c-2.2,0.3-13.2,2.3-14,2.8s-3.5,3.5-6.8,5.9c-3.3,2.3-4.8,4.4-4.8,4.4c-3.3,3.4-6.4,14.8-6.4,14.8
				s-3.8,5.7-4.9,7.5c-0.1,0.2-0.2,0.4-0.3,0.5C347.9,93.4,346.6,99.5,346.6,99.5z"/>
			<path class="st23" d="M346.6,99.5c0,0,1,4.7,1.6,6.8c0.6,2.1,3.6,6.3,4.2,6.7c0.4,0.3,2.8,1.7,7.6,1.9l-0.8-2.2l0.1-3.3
				c0,0-1.2-2.7-0.9-3.6c0.3-0.9,1.5-2.9,1.5-2.9h1.8l4.4-3.4c0,0-0.3-1.6-0.1-2.1c0.3-0.5,1.4-3.8,1.4-3.8l2.3-2.9L372,85l-0.4-2.7
				c0,0-0.4-0.3-0.6-0.8c-0.3-0.5-0.8-3.8-0.8-3.8l-8.9,0.8L348.6,92c-0.1,0.2-0.2,0.4-0.3,0.5C347.9,93.4,346.6,99.5,346.6,99.5z"/>
			
				<linearGradient id="SVGID_00000045579271460336977970000017699901156985130641_" gradientUnits="userSpaceOnUse" x1="2588.4189" y1="293.6174" x2="2608.5359" y2="293.6174" gradientTransform="matrix(-1 0 0 -1 2975.2261 340)">
				<stop offset="4.947920e-02" style="stop-color:#F9B8B8"/>
				<stop offset="0.9922" style="stop-color:#F7A4A5"/>
			</linearGradient>
			<path style="fill:url(#SVGID_00000045579271460336977970000017699901156985130641_);" d="M367.1,43.5c-0.1,0.8,0.1,4.9,0.5,6.7
				c0.1,0.4,0.2,0.7,0.3,0.8c0.6,0.7,3.3,2,3.3,2l0.5,2c0,0-0.3,4.9,0,5.4c0.1,0.1,0.3,0.2,0.8,0.4c1.6,0.6,5.5,1.4,9,1.1
				c4.5-0.3,5.4-2.4,5.3-3.2s-1.8-3.3-2.1-4.9c-0.2-1.6,0.6-6.6,0.6-6.6v-8.9l-12-7.5c0,0-3.4,0.1-4.5,1.1c-1.1,0.9-1.7,5.6-1.7,5.6
				l0.5,2c0,0-0.8,1.3-0.9,1.6c-0.1,0.4,0.6,1,0.6,1S367.2,42.6,367.1,43.5z"/>
			
				<linearGradient id="SVGID_00000043457717302109160790000011418579406107103389_" gradientUnits="userSpaceOnUse" x1="2601.812" y1="294.744" x2="2603.7507" y2="294.744" gradientTransform="matrix(-1 0 0 -1 2975.2261 340)">
				<stop offset="4.947920e-02" style="stop-color:#F9B8B8"/>
				<stop offset="0.9922" style="stop-color:#F7A4A5"/>
			</linearGradient>
			<path style="fill:url(#SVGID_00000043457717302109160790000011418579406107103389_);" d="M371.7,45.6c0,0-0.1-1.3-0.2-2.1
				s-0.2-1.3,0.3-1c0.6,0.4,1.2,0.7,1.3,1.3c0.1,0.6,0.3,2.4,0.2,3c-0.1,0.6-1.2,1.3-1.2,1.3S371.4,47.2,371.7,45.6z"/>
			
				<linearGradient id="SVGID_00000059303004978522160340000006058199309821453442_" gradientUnits="userSpaceOnUse" x1="2622.6758" y1="251.4" x2="2629.7473" y2="251.4" gradientTransform="matrix(-1 0 0 -1 2975.2261 340)">
				<stop offset="4.947920e-02" style="stop-color:#F9B8B8"/>
				<stop offset="0.9922" style="stop-color:#F7A4A5"/>
			</linearGradient>
			<path style="fill:url(#SVGID_00000059303004978522160340000006058199309821453442_);" d="M348.2,88.8c-0.4,0-2,0.5-2.7,0.6l0,0
				l2.5-0.3l3.9-0.7l0.7-0.6l-0.6,0.1C351.9,88,348.6,88.8,348.2,88.8z"/>
			
				<linearGradient id="SVGID_00000059306297198782310030000018028218486003978627_" gradientUnits="userSpaceOnUse" x1="2624.3853" y1="253.7" x2="2632.417" y2="253.7" gradientTransform="matrix(-1 0 0 -1 2975.2261 340)">
				<stop offset="0.2656" style="stop-color:#EF7A7A"/>
				<stop offset="0.9922" style="stop-color:#F7A4A5"/>
			</linearGradient>
			<path style="fill:url(#SVGID_00000059306297198782310030000018028218486003978627_);" d="M345.5,86.3l-2.7,1.6
				C342.9,88,343,88,343,88l1.5-0.7l3.4-2h1.7l0.7,0.7c0,0-0.4,0.1-0.9,0.3l1.3-0.2l-0.1-0.4l-1.1-1l-1.6-0.1L345.5,86.3z"/>
			
				<linearGradient id="SVGID_00000001649228680008573080000018117448710355818669_" gradientUnits="userSpaceOnUse" x1="2627.3354" y1="255.75" x2="2633.0862" y2="255.75" gradientTransform="matrix(-1 0 0 -1 2975.2261 340)">
				<stop offset="0.2656" style="stop-color:#EF7A7A"/>
				<stop offset="0.9922" style="stop-color:#F7A4A5"/>
			</linearGradient>
			<path style="fill:url(#SVGID_00000001649228680008573080000018117448710355818669_);" d="M342.1,84.6c-0.1,0.4,0.7,0.6,0.7,0.6
				l2-0.2l0.5-0.3l2.6-1.4l-3.3,1.1c0,0-1.7,0.3-1.9,0.3C342.7,84.7,342.5,84.7,342.1,84.6z"/>
			
				<linearGradient id="SVGID_00000054964972248325348790000002902475874533738932_" gradientUnits="userSpaceOnUse" x1="2619.6082" y1="254.3" x2="2633.0862" y2="254.3" gradientTransform="matrix(-1 0 0 -1 2975.2261 340)">
				<stop offset="4.947920e-02" style="stop-color:#F9B8B8"/>
				<stop offset="0.9922" style="stop-color:#F7A4A5"/>
			</linearGradient>
			<path style="fill:url(#SVGID_00000054964972248325348790000002902475874533738932_);" d="M342.3,87.5c0,0.1,0.3,0.3,0.5,0.4
				C342.9,88,343,88,343,88l1.5-0.7l3.4-2h1.7l0.7,0.7c0,0-0.4,0.1-0.9,0.3c-0.9,0.3-2.1,0.8-2.2,0.8s-2.3,0.7-2.4,1.2
				c-0.1,0.4,0.4,0.9,0.5,1l0,0l2.5-0.3l3.9-0.7l0.7-0.6l3.1-2.5l-1.4-2.4c0,0-2.9-0.7-3.2-0.7c-0.3,0-5.6,1.1-5.6,1.1
				s-3.1,0.7-3.2,1.1l0,0c-0.1,0.4,0.7,0.6,0.7,0.6l2-0.2l0.5-0.1C345.3,84.9,342.4,87.3,342.3,87.5z"/>
			
				<linearGradient id="SVGID_00000084490175939675589370000000862046081348251304_" gradientUnits="userSpaceOnUse" x1="2602.21" y1="284.5" x2="2607.6348" y2="284.5" gradientTransform="matrix(-1 0 0 -1 2975.2261 340)">
				<stop offset="0.2656" style="stop-color:#EF7A7A"/>
				<stop offset="0.9922" style="stop-color:#F7A4A5"/>
			</linearGradient>
			<path style="fill:url(#SVGID_00000084490175939675589370000000862046081348251304_);" d="M367.6,50.2c0.1,0.4,0.2,0.7,0.3,0.8
				c0.6,0.7,3.3,2,3.3,2l0.5,2c0,0-0.3,4.9,0,5.4c0.1,0.1,0.3,0.2,0.8,0.4c-0.1-0.1-0.1-0.2-0.2-0.3c-0.2-0.8-0.3-3.5-0.3-3.5
				l1.1-3.3l-1.2-0.3l-4.1-3L367.6,50.2z"/>
			<path class="st40" d="M368.9,33.4c0,0-0.1,1.1-0.4,2c-0.3,0.8-0.3,2-0.3,2l1,2.3l1.1,3l0.2,1.7l1.2,0.9c0,0,1.1,0.1,1.8,0.9
				c0.7,0.8,2.1,3.2,2.1,3.2s2.4,3.1,3.4,3.4c1,0.3,4.9-0.3,5.8-0.6s1.7-1.6,1.7-1.6s1.8-2.1,3.7-6.1c2-4,1.2-8.8,0.8-10.1
				c-0.5-1.3-3.4-3.9-3.4-3.9s-0.8-3.4-6.8-4.1s-10.2,0.5-11.5,1.4s-2.1,2.9-2.1,2.9l0.2,3.4l1.1-1.9L368.9,33.4z"/>
		</g>
		<g>
			<path class="st72" d="M358.3,139.5c15.4-4.2,24.6-6.4,33.2-19.2c0.8-9.9,3.5-20.8,4.3-30.8c0-0.4-0.9-0.9-1.3-1
				c-9.3,9.8-15.7,12.8-33.2,19.2C360.4,118,359.1,129.2,358.3,139.5z"/>
		</g>
		<g>
			<path class="st60" d="M359.6,140.4c15.4-4.2,24.6-6.4,33.2-19.2c0.8-10.3,2.1-21.4,3-31.7c-9.3,9.8-15.7,12.8-33.2,19.2
				C361.7,119,360.4,130.1,359.6,140.4z"/>
		</g>
		<g>
			<polygon class="st73" points="391.4,121.8 389.8,121.8 389.8,98.2 398.7,84 405.2,87.8 404.4,89.1 399.2,86.1 391.4,98.7 			"/>
		</g>
		<g>
			<polygon class="st48" points="365.6,137.4 364,137.4 364,113.7 372.9,99.5 379.4,103.3 378.6,104.6 373.4,101.6 365.6,114.2 			
				"/>
		</g>
		<g>
			<path class="st49" d="M353.7,144.8c0,2.4,2,6,4,7.2s4.6-0.5,4.6-2.8s-1.7-5.2-3.7-6.4C356.5,141.7,353.7,142.5,353.7,144.8z"/>
			<path class="st46" d="M311.8,140.9c0,1.4,1,3.2,2.3,3.9s2.3,0.1,2.3-1.3c0-1.4-1-3.2-2.3-3.9
				C312.9,138.8,311.8,139.4,311.8,140.9z"/>
			<path class="st50" d="M312.9,141.5c0,0.8,0.6,1.8,1.3,2.2c0.7,0.4,1.3,0.1,1.3-0.7s-0.6-1.8-1.3-2.2
				C313.4,140.4,312.9,140.7,312.9,141.5z"/>
			<g>
				<rect x="338.5" y="106.1" transform="matrix(0.5 -0.866 0.866 0.5 58.8785 357.82)" class="st48" width="1.6" height="43.7"/>
			</g>
			<path class="st44" d="M315.6,130.7c-2.5-1.5-4.9-1.6-6.5-0.7c-0.3,0.1-1.8,1-2,1.2c-1.3,1.1-0.8,2.3-0.8,4.8c0,5.9,4.2,13,9.3,16
				c2.2,1.3,3.2,2.2,4.8,1.7c0.6-0.2,2.2-1.2,2.6-1.7c1.2-1.1,1.8-2.9,1.8-5.3C324.8,140.8,320.7,133.7,315.6,130.7z M319.1,149.1
				c-1.1,1.2-2.9,1.3-5,0.1c-3.4-1.9-6.1-6.7-6.1-10.6c0-2.3,1-3.8,2.5-4.2c1.1-1.2,2.9-1.3,5-0.1c3.4,1.9,6.1,6.7,6.1,10.6
				C321.7,147.2,320.7,148.7,319.1,149.1z"/>
			<path class="st45" d="M314.1,131.5c-2.2-1.3-4.2-1.6-5.8-1c-2.1,0.7-3.4,2.9-3.4,6.3c0,5.9,4.2,13,9.3,16
				c2.9,1.7,5.6,1.6,7.3,0.2c1.3-1.1,2-2.9,2-5.5C323.4,141.7,319.3,134.5,314.1,131.5z M310.6,134.4c1-0.3,2.2,0,3.6,0.7
				c3.4,1.9,6.1,6.7,6.1,10.6c0,1.5-0.4,2.6-1.1,3.4c-1.1,1.2-2.9,1.3-5,0.1c-3.4-1.9-6.1-6.7-6.1-10.6
				C308,136.3,309,134.8,310.6,134.4z"/>
			<path class="st46" d="M319.1,149.1c-1.1,1.2-2.9,1.3-5,0.1c-3.4-1.9-6.1-6.7-6.1-10.6c0-2.3,1-3.8,2.5-4.2
				c-0.7,0.7-1.1,1.9-1.1,3.4c0,3.9,2.7,8.6,6.1,10.6C316.9,149.2,318.1,149.4,319.1,149.1z"/>
			<g>
				<path class="st47" d="M314.1,131.5c-3.2-1.9-6.1-1.6-7.8,0.3c1.7-1.1,4.1-1,6.7,0.6c5.1,3,9.3,10.1,9.3,16c0,2.2-0.6,3.9-1.5,5
					c1.6-1,2.5-3,2.5-5.8C323.4,141.7,319.3,134.5,314.1,131.5z"/>
				<path class="st47" d="M307.5,138.9c0,3.9,2.7,8.6,6.1,10.6c2.2,1.3,3.6,1.6,4.7,0.2c-1.1,0.6-2.6,0.5-4.2-0.5
					c-3.4-1.9-6.1-6.7-6.1-10.6c0-1.3,0.3-2.4,0.9-3.1C307.7,136.2,307.5,136.9,307.5,138.9z"/>
			</g>
			<path class="st46" d="M315.1,139.3l0.3-8.6l2-0.9l3.7,2.2l0.7,1.2l-1.3,6.3l-2,0.9c0,0-2.2,0.8-2.3,0.7
				C316.1,140.9,315.1,139.3,315.1,139.3z"/>
			<path class="st51" d="M312.3,140.5l2.6-3.5l0.5-6.3l3.7,2.2l0.7,1.2l-1.3,6.3l-3.7,1.5c0,0-1.2,0.5-1.3,0.4
				C313.3,142.1,312.3,140.5,312.3,140.5z"/>
			<g>
				<polygon class="st48" points="361.3,156.8 318.9,132.3 318.9,114.1 320.4,114.1 320.4,131.4 362.1,155.4 				"/>
			</g>
			<polygon class="st52" points="331.4,102.6 359.1,135.9 360.2,135.1 360.2,117.8 332.5,101.8 			"/>
			<polygon class="st53" points="331.4,119.9 359.1,135.9 359.1,118.6 331.4,102.6 			"/>
			<g>
				<path class="st48" d="M360.1,141.7h-1.6v-25.6L333,101.4c-0.4-0.3-0.8-0.1-1,0c-0.1,0.1-0.5,0.3-0.5,0.9v3.5
					c0,1-0.5,1.9-1.4,2.4s-1.9,0.5-2.7,0L327,108c-0.4-0.3-0.8-0.1-1,0c-0.1,0.1-0.5,0.3-0.5,0.9v10.8h-1.6v-10.8
					c0-0.9,0.5-1.7,1.3-2.2s1.8-0.5,2.6,0l0.4,0.2c0.4,0.2,0.8,0.2,1.2,0c0.4-0.2,0.6-0.6,0.6-1v-3.5c0-0.9,0.5-1.8,1.3-2.2
					c0.8-0.5,1.8-0.5,2.6,0l26.3,15.2L360.1,141.7L360.1,141.7z"/>
			</g>
			<path class="st54" d="M352.9,112.4l-20.3-11.7c-0.8-0.5-1.2-2.4-0.3-2.9l0.5,1.1c0.9-0.5,2.4-0.6,3.2-0.1l20.5,10.5
				c0.8,0.5,0.4,2.5-0.5,3.1l0,0C355.1,112.8,353.7,112.8,352.9,112.4z"/>
			<path class="st55" d="M352.9,110.9l-20.3-11.7c-0.8-0.5-0.7-1.3,0.2-1.9l0,0c0.9-0.5,2.4-0.6,3.2-0.1l20.3,11.7
				c0.8,0.5,0.7,1.3-0.2,1.9l0,0C355.1,111.3,353.7,111.4,352.9,110.9z"/>
			
				<linearGradient id="SVGID_00000090294459556782985810000012638959740158158774_" gradientUnits="userSpaceOnUse" x1="2616.2126" y1="245.7206" x2="2664.7493" y2="245.7206" gradientTransform="matrix(-1 0 0 -1 2975.2261 340)">
				<stop offset="4.947920e-02" style="stop-color:#F9B8B8"/>
				<stop offset="0.9922" style="stop-color:#F7A4A5"/>
			</linearGradient>
			<path style="fill:url(#SVGID_00000090294459556782985810000012638959740158158774_);" d="M310.5,89.5L310.5,89.5
				c0.1,0.3,0.7,0.9,0.7,0.9l-0.4,0.5c0,0,0,0.1,0,0.3c0,0.3,0.1,0.9,0.2,1.1l0,0c0.1,0.1,0.3,0.2,0.6,0.3c0.2,0,0.3,0.1,0.3,0.1
				l-0.2,0.6v0.1l0.3,1.3c0,0,0.5,0.4,1,0.8c0.3,0.2,0.6,0.3,0.8,0.4c0.7,0.1,1.6-0.1,1.6-0.1l1.4,0.7c0,0,3.7,0.8,10.2,3.6
				c6.5,2.7,19.5,5.8,21.1,4.9c1.6-0.8,10.7-10.2,10.7-10.2l-2.4-6.5l-0.1-0.4c0,0-0.4,0-1.1,0.1c-2.1,0.2-6.5,0.8-6.6,0.8
				c0,0-0.2,0.3-0.5,0.7c-0.7,1.2-2.2,3.6-3.7,4.6c-1.3,1.4-20-2-20.5-2.1c-0.6-0.1-2.5-2.8-2.5-2.8l-5.5-4.8l-2.1-1l-1.4,0.4
				c0,0-1.3,1.2-1.6,1.8c-0.1,0.2-0.1,0.3,0,0.4c0.1,0.2,0.5,0.3,0.5,0.3s0,0-0.1,0.1s-0.2,0.2-0.4,0.5
				C310.4,87.5,310.5,89.3,310.5,89.5z"/>
			
				<linearGradient id="SVGID_00000095304674810036740260000000209641028357706375_" gradientUnits="userSpaceOnUse" x1="2662.1946" y1="247.35" x2="2663.6072" y2="247.35" gradientTransform="matrix(-1 0 0 -1 2975.2261 340)">
				<stop offset="0.2656" style="stop-color:#EF7A7A"/>
				<stop offset="0.9922" style="stop-color:#F7A4A5"/>
			</linearGradient>
			<path style="fill:url(#SVGID_00000095304674810036740260000000209641028357706375_);" d="M312.4,92.1l-0.8,0.6
				c0.2,0,0.3,0.1,0.3,0.1l-0.2,0.6v0.1c0.3-0.5,0.7-0.9,0.7-0.9l0.6-0.8L312.4,92.1z"/>
			
				<linearGradient id="SVGID_00000114758460402446326670000007745833074166334380_" gradientUnits="userSpaceOnUse" x1="2660.0869" y1="254.2" x2="2664.333" y2="254.2" gradientTransform="matrix(-1 0 0 -1 2975.2261 340)">
				<stop offset="0.2656" style="stop-color:#EF7A7A"/>
				<stop offset="0.9922" style="stop-color:#F7A4A5"/>
			</linearGradient>
			<path style="fill:url(#SVGID_00000114758460402446326670000007745833074166334380_);" d="M315.1,87.2v-0.4l-1.6-1.8
				c0,0-0.9-0.6-1.1-0.6c-0.2,0.1-1.1,1.5-1.1,1.5l-0.5,0.2c0.1,0.2,0.5,0.3,0.5,0.3s0,0-0.1,0.1l0.4-0.2l1,0.3L315.1,87.2z"/>
			
				<linearGradient id="SVGID_00000104687932470647837780000015286307586976009124_" gradientUnits="userSpaceOnUse" x1="2662.0227" y1="250.4" x2="2664.7" y2="250.4" gradientTransform="matrix(-1 0 0 -1 2975.2261 340)">
				<stop offset="0.2656" style="stop-color:#EF7A7A"/>
				<stop offset="0.9922" style="stop-color:#F7A4A5"/>
			</linearGradient>
			<path style="fill:url(#SVGID_00000104687932470647837780000015286307586976009124_);" d="M311.3,90.4l-0.4,0.5c0,0,0,0.1,0,0.3
				V91l2.3-1.2l-0.1-0.3L311,88l-0.4,0.9v0.6C310.6,89.8,311.3,90.4,311.3,90.4z"/>
			
				<linearGradient id="SVGID_00000039115830903673766860000006915134434544301445_" gradientUnits="userSpaceOnUse" x1="2639.9451" y1="237.3341" x2="2638.6113" y2="257.8095" gradientTransform="matrix(-1 0 0 -1 2975.2261 340)">
				<stop offset="0.2656" style="stop-color:#EF7A7A"/>
				<stop offset="0.9922" style="stop-color:#F7A4A5"/>
			</linearGradient>
			<path style="fill:url(#SVGID_00000039115830903673766860000006915134434544301445_);" d="M313.5,94.3l-0.7,0.3l0.2,0.9
				c0.3,0.2,0.6,0.3,0.8,0.4c0.7,0.1,1.6-0.1,1.6-0.1l1.4,0.7c0,0,3.7,0.8,10.2,3.6c6.5,2.7,19.5,5.8,21.1,4.9
				c1.6-0.8,10.7-10.2,10.7-10.2l-2.4-6.5c-0.4-0.1-0.8-0.2-1.2-0.3c-3.6-0.7-7.5-0.1-7.5-0.1s-0.2,0.5,0.4,1.6
				c0.2,0.3,0.4,0.7,0.7,1c1.4,1.8,7.4,5.8,7.4,5.8l-2.8,3.4c0,0-5.7,4.8-6.5,4.8s-5.5-0.9-8.2-1.4c-2.7-0.6-12.9-3.9-13.8-4.4
				s-6.7-2.4-6.7-2.4l-3.6-1L313.5,94.3z"/>
			<path class="st79" d="M347.8,88.8c0,0,2.5,2.3,4.3,3.8s7.2,4.5,7.2,4.5s7.4-9,8.4-10s5.3-7.7,2.4-13.3c-2.9-5.6-8-6-8-6
				s-2,0.7-3.2,1.8c-1.2,1.2-4.9,11.3-4.9,11.3L347.8,88.8z"/>
			<path class="st44" d="M360.4,115.7c-8.3-4.8-15.7-4.6-20.5-0.5c-3.6,3.1-5.7,8.4-5.7,15.4c0,16.6,11.7,36.9,26.2,45.2
				c6.7,3.9,12.9,4.5,17.5,2.4c5.4-2.4,8.7-8.5,8.7-17.4C386.6,144.3,374.8,124,360.4,115.7z M374.3,172.5c-3.9,3.6-10.1,3.8-17-0.2
				c-11.8-6.8-21.5-23.4-21.5-37c0-7.5,2.9-12.5,7.5-14.4c3.9-3.6,10.1-3.8,17,0.2c11.8,6.8,21.4,23.4,21.4,37
				C381.8,165.6,378.9,170.6,374.3,172.5z"/>
			<path class="st45" d="M357.3,117.6c-6.7-3.9-12.8-4.5-17.5-2.4c-5.4,2.4-8.7,8.5-8.7,17.4c0,16.6,11.7,36.9,26.2,45.2
				c8.3,4.8,15.7,4.6,20.5,0.5c3.6-3.1,5.7-8.3,5.7-15.4C383.5,146.2,371.8,126,357.3,117.6z M343.3,121c3.8-1.5,8.6-1,14,2.1
				c11.8,6.8,21.5,23.4,21.5,37c0,5.6-1.6,9.9-4.4,12.4c-3.9,3.6-10.1,3.8-17-0.2c-11.8-6.8-21.5-23.4-21.5-37
				C335.9,127.9,338.8,122.8,343.3,121z"/>
			<path class="st46" d="M374.3,172.5c-3.9,3.6-10.1,3.8-17-0.2c-11.8-6.8-21.5-23.4-21.5-37c0-7.5,2.9-12.5,7.5-14.4
				c-2.8,2.5-4.4,6.8-4.4,12.4c0,13.6,9.6,30.2,21.5,37C365.7,173.4,370.6,174,374.3,172.5z"/>
			<g>
				<path class="st47" d="M357.3,117.6c-6.1-3.5-11.7-4.4-16.1-2.9c4.1-0.8,9.1,0.3,14.4,3.4c14.5,8.4,26.2,28.6,26.2,45.2
					c0,9.6-4,15.9-10.1,17.9c7.1-1.3,11.8-7.8,11.8-18.3C383.5,146.2,371.8,126,357.3,117.6z"/>
				<path class="st47" d="M344,120.7c-5.9,1-9.8,6.3-9.8,15c0,13.6,9.6,30.2,21.5,37c5.1,2.9,9.7,3.6,13.4,2.4
					c-3.4,0.6-7.4-0.3-11.7-2.8c-11.8-6.8-21.5-23.4-21.5-37C335.9,127.5,339,122.4,344,120.7z"/>
			</g>
			<g>
				<path class="st48" d="M365.8,176.5c-3.1,0-6.5-1-10-3.1c-12.1-7-21.9-23.9-21.9-37.8c0-6.8,2.3-11.9,6.6-14.4
					c4.3-2.5,10-1.9,16,1.5c12.1,7,21.9,23.9,21.9,37.8c0,6.8-2.3,11.9-6.6,14.4C370,176,368,176.5,365.8,176.5z M346.5,121.1
					c-1.9,0-3.7,0.4-5.3,1.4c-3.8,2.2-5.9,6.9-5.9,13.3c0,13.4,9.5,29.9,21.2,36.6c5.6,3.2,10.8,3.8,14.6,1.5
					c3.8-2.2,5.9-6.9,5.9-13.3c0-13.4-9.5-29.9-21.2-36.6C352.5,122.1,349.3,121.1,346.5,121.1z"/>
			</g>
			<path class="st46" d="M353.6,145.6c0,2.4,1.7,5.2,3.7,6.4s3.7,0.2,3.7-2.1s-1.7-5.2-3.7-6.4C355.3,142.3,353.6,143.2,353.6,145.6
				z"/>
			<path class="st50" d="M355.3,146.5c0,1.3,0.9,2.9,2,3.5c1.1,0.7,2,0.1,2-1.2s-0.9-2.9-2-3.5C356.2,144.7,355.3,145.2,355.3,146.5
				z"/>
			<g>
				<path class="st48" d="M305.8,138.7l-1.5-0.2l3.3-22.8c0.3-0.9,1-1.6,1.9-2c0.9-0.3,1.9-0.2,2.7,0.2l7.8,4.5l-0.8,1.3l-7.8-4.5
					c-0.4-0.3-1-0.3-1.4-0.1c-0.5,0.2-0.8,0.5-1,1L305.8,138.7z"/>
			</g>
			<g>
				<rect x="312.8" y="114.6" transform="matrix(0.5 -0.866 0.866 0.5 51.4727 332.3477)" class="st48" width="1.6" height="14"/>
			</g>
			<g>
				<rect x="317.3" y="124.2" class="st48" width="1.6" height="6.7"/>
			</g>
			<g>
				<rect x="356.5" y="138.4" class="st48" width="1.6" height="15.2"/>
			</g>
		</g>
	</g>
</g>
</svg>
