<?xml version="1.0" encoding="utf-8"?>
<!-- Generator: Adobe Illustrator 27.8.1, SVG Export Plug-In . SVG Version: 6.00 Build 0)  -->
<svg version="1.1" id="Layer_1" xmlns="http://www.w3.org/2000/svg" xmlns:xlink="http://www.w3.org/1999/xlink" x="0px" y="0px" viewBox="0 0 500 488.6" style="enable-background:new 0 0 500 488.6;" xml:space="preserve">
<style type="text/css">
	.st0{enable-background:new    ;}
	.st1{fill:#569241;}
	.st2{fill:#78C143;}
	.st3{fill:#DDDEE3;}
	.st4{fill:#1F2126;}
	.st5{fill:#17181A;}
	.st6{fill:#F5C2A6;}
	.st7{fill:#FCCEB4;}
	.st8{fill:#262C34;}
	.st9{fill:#337E99;}
	.st10{opacity:0.2;}
	.st11{fill:#196CA5;}
	.st12{fill:#FFFFFF;}
	.st13{opacity:0.2;fill:#2A81BA;}
	.st14{fill:#160E0D;}
	.st15{fill:#FDDECE;}
	.st16{fill:#270F0C;}
</style>
<g>
	<g>
		<g>
			<g>
				<g class="st0">
					<g>
						<g>
							<polygon class="st1" points="500,380.4 500,386.5 324.3,488.6 324.3,482.5 							"/>
						</g>
					</g>
					<g>
						<g>
							<polygon class="st1" points="324.3,482.5 324.3,488.6 0,301.9 0,295.8 							"/>
						</g>
					</g>
					<g>
						<polygon class="st2" points="500,380.4 324.3,482.5 0,295.8 175.7,193.7 						"/>
					</g>
					<path class="st1" d="M185.6,401.5c10.3,0.6,20.6-2,30.7-4.1c2.5-0.5,5-1,7.5-0.6c6.7,1.2,10.3,8.7,10.7,15.5
						c0.4,6.8-1.4,13.6-0.5,20.3c0.3,2.1,0.8,4.2,2.2,5.8c2.5,2.8,6.7,3,10.4,2.5c10.2-1.4,19.8-6.7,26.3-14.5
						c4.3-5.2,7.3-11.3,11.5-16.6c4.2-5.3,10.1-9.8,16.9-9.8c8.4,0,15.2,6.9,23.4,8.7c12.4,2.8,25.4-7.8,27-20.4
						c0.4-2.8,0.2-5.7-0.7-8.4c-1.8-5.2-6.5-8.8-11.3-11.3c-4.8-2.5-10.1-4.3-14.6-7.4c-2-1.3-4.1-3.3-3.9-5.7
						c0.2-2.1,1.9-3.6,3.5-4.9c11.7-9.3,24.7-17.1,38.4-23.1c2.8-1.2,5.7-2.5,7.7-4.8c3.8-4.4,2.9-11.5-0.9-15.9
						c-3.8-4.3-9.8-6.2-15.6-6.4c-5.8-0.2-11.5,1-17.3,1.8c-19.6,2.8-39.7,0.9-59-3.9c-9-2.3-18.1-5.2-27.4-4.5
						c-7.2,0.5-14,3.3-20.4,6.4c-10.7,5.3-20.7,11.8-30.7,18.4c-7.8,5.1-15.8,10.4-21.5,17.7c-5.2,6.6-8.2,14.5-11,22.3
						c-2.5,6.9-6.3,14.3-7.6,21.5C156.8,394.7,173.9,400.9,185.6,401.5z"/>
				</g>
			</g>
		</g>
	</g>
	<g>
		<path class="st3" d="M221.1,121.1c-8.7-9.2-3-27.8,6.6-34.1c17.2-11.3,81.3,60.3,83.6,63.1c0,0,2.6,16.1-8.4,22.5
			C287.1,181.8,226.4,126.8,221.1,121.1z"/>
		<path class="st4" d="M373.1,259.7c-20.6-13.5-103.4-10.8-129.2-12.6c-11.3-0.8-28.2,60.6-28.2,60.6s18.7,8.9,35.8,7
			c20.2-2.2,46.3-3.1,63.5-8.6c16.8-5.3,48.4,1.9,57.9-5.1C396.3,284.1,377.3,262.5,373.1,259.7z"/>
		<path class="st5" d="M243.9,247.2c11.1,0.7,32.9,0.7,55.7,1.4c-1.7,12.3-5.8,24.9-13.9,34c-7.5,8.7-19.7,12.7-27.2,21.4
			c-2.3,2.3,1.2,3.5,2.9,4.6c14.5,5.2,27.8-3.5,41.7-7.5c15-5.1,33.2-4,47.6,3.3c-12.2-0.2-26.3-1.1-35.7,1.9
			c-17.2,5.5-43.3,6.4-63.5,8.6c-17,1.8-35.8-7-35.8-7S232.7,246.4,243.9,247.2z"/>
		<path class="st6" d="M252.8,369.1c0.3,1.9,0.3,3.8-0.1,5.9c-0.8,4.4-2.7,8.6-4.1,12.8c-3.4,10.7-7.5,20.9-9,32.1
			c-0.2,1.6-0.3,3.5,0.7,4.7c1.1,1.2,3,1.3,4.6,1.4c1.6,0,3.4,0,4.8-0.9c2.2-1.4,2.7-4.7,5.1-5.8c1.9-0.9,4.3-0.1,6-1.2
			c1.8-1.1,2.3-3.8,4.3-4.3c0.9-0.2,1.9,0.1,2.9,0.1c1.7,0,3.2-1.3,4-2.8c2.8-5.3,0.3-18.5,3.2-27.4c2.6-7.9,8.2-9.7,16.3-8.9
			c2.5,0.3,5,0.7,7.2,1.8l4.5-3.1l-2-4.3H252.8z"/>
		<path class="st4" d="M368.3,259.2c-11.4-5.5-22.7-2.2-32.3,6.1c-10.9,9.7-22.5,18.3-32.6,28.8c-8.7,9.1-16.2,20.1-25.5,28.7
			c-6,5.6-21.6,20.7-22.7,29.1c-0.3,2,10.8,10.8,19,12c6.1,1,18.1-8.4,23.2-11.6c6.2-3.9,12.6-7.9,19.5-10.5
			c22.9-8.6,43.9-25.8,63.4-48.2c4.4-5,5-10.5,2.7-19.1C381.5,268,374.4,261.9,368.3,259.2z"/>
		<path class="st7" d="M272.4,366.1c0,0-6.5-6-5.1-6.6c3.9-1.6,7.6-3.8,11-6.4c3.5-2.7,5.9-4.9,10.6-4.9c5.4,0.1,10.4,3.2,13.3,7.7
			c2.9,4.5,5.8,6.3,10.7,8.6c4.8,2.3,9.8,4.2,14.9,5.6c3.6,1,7.2,1.8,10.4,3.6c2.1,1.2,4.1,3.1,6.4,3.7c0.7,0.2,1.5,0,2.2,0.3
			c0.9,0.4,1.5,1.5,1.6,2.4c0.2,1.3-0.2,2.7-0.8,3.8c-1.2,2-3.1,3.6-5.4,4.3c-1.1,0.3-2.5,0.6-2.9,1.8c-0.2,0.8,0.2,1.6,0.1,2.4
			c-0.1,1.2-1.2,2-2.3,2.5c-1.1,0.4-2.3,0.6-3.3,1.3c-2.3,1.6-2.5,5.4-5,6.7c-1.3,0.7-2.9,0.6-4.2,0c-1.3-0.6-2.5-1.5-3.6-2.4
			c-2.2-1.8-4.5-3.1-6.8-4.7c-2.7-1.9-5.5-3.8-8.4-5.5c-2.9-1.7-5.8-3.2-8.9-4.4c-0.8-0.3-9-3.3-9.3-2.6c-2.5-0.4-5-0.6-7.6-0.5
			c-3,0.1-6,0.5-9,0.1c-0.7-0.1-1.3-0.2-2-0.4C267.1,382.8,272.4,366.1,272.4,366.1z"/>
		<path class="st8" d="M137.2,379.3c1.2,2.7,3,5.1,5.3,7.1c0.7,0.6,1.4,1.1,2.2,1.6c4.6,3.2,10.4,4.7,16.3,5.3l0.1,0
			c2.7,0.3,5.5,0.4,8.2,0.4c15.5-0.2,30.9,0.8,46.3-0.6c13.4-1.2,27.2-4.7,40.6-5.1c8.7-0.3,16.5,0.7,23.3-4.9
			c1.7-1.4,3.3-2.7,4.2-4.6c0.5-1.1,0.7-2.4,0.6-3.6c0-1.1-0.1-2.1-0.3-3.1c-0.7-4.9-2.3-9.8-5.8-13.7c-4.2-4.7-10.3-4.3-16.7-5.2
			c-7.8-1.1-15.6-2.2-23-4.8c-17.1-5.9-34.7-12.3-52.7-12.3c-8.2,0-16.5,1.4-24.9,4.8c-4.1,1.7-7.8,4.2-11.3,6.8
			c-4.8,3.6-9.5,7.6-12.2,12.7C134.2,366,134.3,373.3,137.2,379.3z"/>
		<path class="st8" d="M133.8,375c-9.8-24.9,11.6-112.2,15.5-140c1.7-12.1,82.4-7.3,82.4-7.3s35.5,25.3,29.7,43
			c-6.8,20.9-77.3,102.6-86.8,111.2C151.3,402.9,135.8,380.1,133.8,375z"/>
		<path class="st4" d="M149.4,235c1.7-12.1,82.4-7.3,82.4-7.3s35.5,25.3,29.7,43c-1.7,5.4-7.7,14.7-15.7,25.8
			c-17.8,7.1-36.4,11.2-55.5,8.6c-13.9-1.7-25.5-17.4-37.6-13.9c-7.5,2.3-8.1,16.8-9.3,26c-2.3,17.9-9.3,34.7-5.2,51.5
			c1.3,5.9,2.9,11.7,4.7,17.4c-5.1-3.8-8.3-9-9.1-11.1C124,350.1,145.4,262.8,149.4,235z"/>
		<g>
			<g>
				<g>
					<g>
						<path class="st9" d="M260.3,258c-0.1,0-0.1,0-0.2-0.1C259.7,257.3,259.8,257.5,260.3,258z"/>
					</g>
					<g>
						<g class="st10">
							<path class="st11" d="M240.8,92.6c2.5,1.7,4.8,3.5,6.9,5.6C245.7,95.9,243.4,94,240.8,92.6z"/>
						</g>
					</g>
					<path class="st12" d="M287.5,259.2c-25.9,35.8-112.2,57.8-145.3,2.3c-12.2-20.5,4.3-93.9,3.6-107.1
						c-0.7-12.6-0.5-38.6,5.6-48.4c2-3.2,23.7-13.6,29.7-15.5c13.4-4.2,18.3-8.2,32.2-6.2c11.4,1.6,17.3,5.7,31.3,18.6
						c30.9,28.4,4.9,52.5,20.3,66.9C305.6,207.9,292.9,246.2,287.5,259.2z"/>
					<path class="st3" d="M144.5,154.4c-0.7-12.6-0.5-38.6,5.6-48.4c0.7-1.1,3.6-3,7.5-5.1c2.5,0.3,5,1,7.2,2.3
						c11,8.1,16.8,20.2,13.9,33.6c-3.5,17.4-8.7,33.6-6.9,50.9c0.6,8.7,11,8.7,18.5,8.1c15-1.2,24.3-14.5,37.6-20.2
						c10.4-4.6,22-7.3,33.9-7.7c0.5,0.7,1.1,1.3,1.8,2c8.6,8,14.8,16.1,19.2,23.9c-8.7,3.2-22.5-5-33-1.4
						c-21.4,6.9-39.9,17.4-59.6,28.3c-8.1,4.6-17.9,2.9-26.6,8.7c-11,7.5-13.3,22.6-7.5,34.1c5.2,9.8,12.1,17.9,22,23.7
						c3.8,2.2,7.5,4.4,11.2,6.6c-19.3-3.4-36.9-13.3-48.3-32.4C128.8,240.9,145.3,167.5,144.5,154.4z"/>
					<path class="st13" d="M174.7,126.7c-0.1-9.8-6.2-15.2-14-18c2.7,2.6,4.6,5.8,4.7,8.6c0.1,1.6-2.3,2.2-3,0.7
						c-2.4-5.4-6.8-8.6-12-10.4c-5.2,10.8-5.3,34.7-4.7,46.7c0.3,5.2-3,19.1-6.1,35c9.3-8.2,17.4-17.7,23.8-28.3
						C169.6,151,174.8,138.7,174.7,126.7z"/>
					<g>
						<g>
							<path class="st6" d="M181,95.9c2.4,3.5,7.2,6.7,14.3,9.3c9,3.4,14.7,0.4,17.4-1.4c7.1-4.9,2-20.2,2-20.2c1.3-4.5,3-7.6,3-7.6
								l-27.3-9.1c0,0-8.1-3.8-7.5,3.1C183.2,75.4,179.4,93.5,181,95.9z"/>
						</g>
					</g>
				</g>
				<g>
					<g>
						<path id="XMLID_54_" class="st14" d="M151.8,69c4.9,2.5,10.7,2.9,16.2-0.2c2.3-1.3,4.1-3.3,5.8-5.3c4.2-4.9,7.9-10.3,11-16
							l-3.6-27.6c-2-4.4-6.1-7.5-10.9-8.8c0,0,0,0-0.1,0c-2.4-0.6-4.8-0.8-7.2-0.5c-7.3,0.9-13.9,5.5-18.2,11.6
							c-6.6,9.2-9.1,22-5.3,32.8c0.5,1.3,1,2.6,1.7,3.8C143.6,63.1,147.3,66.8,151.8,69z"/>
						<g>
							<g>
								<path class="st15" d="M227.6,95.8c-5.9,4.7-17.4,4-25.6,1.3c-5.2-1.7-16.1-6.7-20.7-17.3c-2.7-6.3-4.8-14.7-6.6-22.1
									c-0.5-2-0.8-3.8-0.9-5.6c-1.6-18.3,14.3-20.9,27.9-31.3c14.8-11.4,31.3-7.2,37.6,16.1C244.5,56.7,240.5,85.6,227.6,95.8z"/>
								<path class="st15" d="M225.5,95.5c-5.9,4.7-15.2,3.6-23.4,0.9c6.8,0.6,12.9,2.6,18-0.3c3.1-1.7,6.4-4.4,8.3-7.3
									c5.2-8.2,8.4-20.6,6.8-33c-0.1-0.8-0.9-3.3-3.9-3.3c-6.4,0.1-15,1.3-20.6,4.3c-5.6,3-16.9,5-20.9,4.5
									c-4.1-0.5-2.8-5.8-3.1-9.9l-12.9,0.9c-1.6-18.3,14.3-20.9,27.9-31.3c14.8-11.4,33.5-8.3,35.3,15.7
									C238.7,60.6,238.4,85.3,225.5,95.5z"/>
								<path class="st16" d="M223.5,30.7c6.9,11.9,17.5,16.1,17.5,16.1s8.9-17.1-10.8-37.7c-11-11.5-27.3-10-42-7.1
									c-12.7,2.5-26.2,14-28,26c-2.6,16.6,0.7,39.6,19.2,51.8c6.9,4.6-3.7-15.4,6-15.2c3.1,0.1,1.3-3.8,3.7-4.4
									c1.5,1,16,0.6,23.5-11.4C216.6,42.6,222.9,29.7,223.5,30.7z"/>
								<path class="st15" d="M189.7,61.2c2.6,5.5,2,11.3-1.3,12.8c-3.3,1.6-8.1-1.7-10.7-7.2c-2.6-5.5-2-11.3,1.3-12.8
									C182.3,52.5,187.1,55.7,189.7,61.2z"/>
								<path class="st15" d="M186.8,62.6c1.3,2.9,1,5.8-0.7,6.6c-1.7,0.8-4.2-0.9-5.5-3.7c-1.3-2.9-1-5.8,0.7-6.6
									C183,58.1,185.5,59.7,186.8,62.6z"/>
							</g>
						</g>
					</g>
				</g>
			</g>
		</g>
		<g>
			<path class="st12" d="M139.9,113.7c2.9-8.9,12.9-13.3,20.4-11.4c9.4,2.5,15.8,13.4,14.8,24.3c-2.4,27.7-11.2,40.2-15.6,65.6
				c-9.9,26.7-6.5,29.4-20.3,21.1c-4.3-2.6-12-11.6-12.6-21.9C125,163.1,138,119.4,139.9,113.7z"/>
			<g>
				<path class="st6" d="M228,134.3c1.1,0.3,1.6,1.5,1.9,2.5c0-1.5-0.1-3,0.6-4.3c0.6-1.3,2.2-2.3,3.5-1.9c1.1,0.3,1.8,1.4,2.1,2.5
					c0.5,1.5,0.6,3.2,0.2,4.7c0.9-1,2.2-1.6,3.5-1.5c0.3,0,0.7,0.1,0.9,0.3c0.4,0.3,0.6,0.8,0.7,1.2c0.7,3.2-1.7,6.3-2.4,9.5
					c0.8-0.4,1.9,0,2.4,0.7c0.6,0.7,0.7,1.7,0.8,2.6c0.3,3.3-0.4,6.6-0.7,10c-0.8,9.1,1.5,27.9,1.2,28.1c-0.2,0.1-6.6,0.5-8.2-0.1
					c-1.6-0.6-2.9-1.9-4-3.1c-1.6-1.7-3.2-3.5-4.4-5.6c-3.2-5.8-2.5-12.9-3.7-19.5c-0.6-3-1.5-6-1.7-9.1c-0.2-3.4,0.6-7.3,2-10.4
					C223.6,139,225.4,133.6,228,134.3z"/>
				<path class="st15" d="M238.2,145.2c-0.2-0.9-0.8-2-1.7-1.9c0.5-1.2,1-2.5,1.1-3.8c0.3-4.2-3.6-5-4.5-2.9c-0.5-1.6,0-3.3-0.3-4.9
					c-0.3-1.6-2-3.2-3.2-2.2c-0.6,0.4-0.6,0.8-3,6.3c-0.4-3-1.7-5-4-3.5c-2.7,1.7-3.3,5.5-3.6,8.8c-0.4,3.9-0.8,7.9-1.2,11.8
					c0.1-3.2,0.3-4.7-0.3-6.1c-0.5-1.1-1.9-1.9-2.9-1.3c-0.6,0.4-0.9,1.1-1.2,1.8c-2.8,7.1-3.5,15.3-1.9,22.9
					c0.7,3.1,2.1,7.3,1.3,10.6l1.7-1.8c-0.8,6.5,1.6,18.4,9.9,15.3c3.1-1.2,6.2-3.2,7.4-6.6c0.4-1,0.5-2.1,0.7-3.2
					C236.3,157.9,240.2,152.6,238.2,145.2z"/>
				<path class="st6" d="M212.8,180.7l-2.1,2.3C211.8,183.1,212.5,181.9,212.8,180.7z"/>
			</g>
			<path class="st12" d="M158.7,187.7c14.4-4,38.1-7.3,48-11.2c10-3.7,22,15.9,14.6,21.3c-0.3,0.2-62.9,32.7-79.1,28.7
				c-15.1-3.7-14.9-28.2-15.5-36.2C126.2,183.8,131.7,196.9,158.7,187.7z"/>
			<path class="st12" d="M285.5,184.7c-12.2,2.4-26.2,5.1-37.8,4.6c-7.2-0.3-10.2-16.4-4.1-20.9c0.3-0.1,46.7-22.5,56.8-22.6
				c13.1-0.1,16,12.6,16,19.3C316.4,170.5,308.6,178.7,285.5,184.7z"/>
			<path class="st6" d="M245.6,172.9c1.3,2.8,2,5.9,2,8.9c0,1.6-0.2,3.4-1.1,4.7c-0.9,1.4-2.6,2.3-4.2,2c-0.6-0.2-1.2-0.5-1.8-0.9
				c-1.5-1-2.9-2.2-3.8-3.7c-1.5-2.6-1.3-5.8-0.7-8.7c0.3-1.7,0.9-3.5,2.4-4.4c0.8-0.5,1.7-0.6,2.6-0.6
				C243.6,170,244.5,170.5,245.6,172.9z"/>
		</g>
	</g>
</g>
</svg>
