<?xml version="1.0" encoding="utf-8"?>
<!-- Generator: Adobe Illustrator 27.8.1, SVG Export Plug-In . SVG Version: 6.00 Build 0)  -->
<svg version="1.1" id="Layer_1" xmlns="http://www.w3.org/2000/svg" xmlns:xlink="http://www.w3.org/1999/xlink" x="0px" y="0px" viewBox="0 0 415.1 500" style="enable-background:new 0 0 415.1 500;" xml:space="preserve">
<style type="text/css">
	.st0{fill:#522E25;}
	.st1{fill:#5F3A2E;}
	.st2{fill:#F8A792;}
	.st3{fill:#FFFFFF;}
	.st4{fill:#E7D8EA;}
	.st5{fill:#FAB8A4;}
	.st6{fill:#FBC8B7;}
	.st7{fill:#44241E;}
	.st8{fill:#0C4B4F;}
	.st9{fill:#084040;}
	.st10{fill:#FEDA00;}
	.st11{fill:#0C7D7E;}
	.st12{fill:#C17D57;}
	.st13{fill:#0C6B69;}
	.st14{fill:#169692;}
	.st15{opacity:0.5;fill:#F6E1EE;}
	.st16{opacity:0.3;fill:#FFFFFF;}
	.st17{opacity:0.5;fill:#FFFFFF;}
	.st18{fill:#A4BC43;}
	.st19{fill:#FCAF17;}
	.st20{fill:#F7AC1A;}
	.st21{opacity:0.5;fill:#DBC3C3;}
	.st22{fill:#F9BD15;}
	.st23{fill:#FED8B7;}
	.st24{fill:#FEE5D0;}
	.st25{opacity:0.5;fill:#98D2CF;}
	.st26{opacity:0.5;fill:#169692;}
	.st27{fill:#C7B2D6;}
	.st28{fill:#D4C2DF;}
	.st29{fill:#D6C1C1;}
	.st30{fill:#15A89F;}
	.st31{fill:#39BEB2;}
</style>
<g>
	<g>
		<g>
			<path class="st0" d="M26,369.3c-1.1,1.2-4.6,4.5-5.2,8c-0.5,3.6-1.6,6.6,0,11.8c1.6,5.2,4.3,4.4,4.3,4.4s1.5,9.6,5.3,15.3
				c3.8,5.7,13.9,7.9,18.9,7.9c8.5,0,7.5-5.7,2.7-14.5c-5.1-9.3-8.6-16.3-8.4-23.3c0.3-7,0-15,0-15L26,369.3z"/>
			<path class="st0" d="M100.1,329c0,0-2.2,4.1-4.6,8.3c-2.3,4.2-1.3,5.8-1.5,11.5c-0.2,5.6,9.7,7.5,9.7,7.5l2.7-1.7
				c0,0,1.2,3,9.4,7.8c8.2,4.8,18,5.2,22,2.9c4-2.2,6.2-3.3-1.7-10.8c-8-7.5-16.6-18.5-16.6-18.5L100.1,329z"/>
			<path class="st1" d="M65.1,201.3c0,0,15.7,23.2,22.3,38.2c6.6,15,21.8,27.1,20.9,29.4c-2.2,5.4-14.1,23.7-11.2,40.1
				c2.7,15.2,1.1,26.1,1.1,26.1s13.7,11.2,20.8,3.6c3-14.8,21-76.5,23.8-81.4c-4.8-13.3-15.5-31.9-23.2-56.9
				c-7.7-25-15.9-40.9-16.7-41.4c-0.8-0.5-26.1,15.1-26.1,15.1L65.1,201.3z"/>
			<path class="st1" d="M38.9,172.1c0,0-7.5,12.9-9.2,30.4c-1.6,17.5,2,28.9,4.6,50.9c1.8,15.1,6.1,33,6.1,33s-15.2,25-17,47.9
				c-1.8,22.9,0.2,38,0.2,38s2.6,5.2,7.3,6.3c6.7,1.5,12.9-2.5,12.9-2.5s24.7-64.2,33-76.4c2.8-22.6,6.6-41.3,7.3-53.5
				c0.7-12.1-3.4-27.9-3.4-27.9s15.7-11.4,7.9-44.1C80.7,141.4,38.9,172.1,38.9,172.1z"/>
			<path class="st2" d="M63.7,53.5c0,0,15.3-6.1,30.8,5.9c10.4,8.1,23.3,20.5,23.3,20.5s-5.4-12-6.7-16.2
				c-2.7-8.6-7.5-35.3-7.5-35.3l12.6-0.4c0,0,15.3,33.2,18.7,51.6c1.6,8.4,2,21-1.4,23.3c-3.4,2.3-11.5,1.5-20.6,0
				c-18.2-3-49.2-25.2-49.2-25.2V53.5z"/>
			<path class="st3" d="M75.9,45.6c0,0-5.2,4.2-10.2,12.2c-5.1,8-1.7,18.3,4.8,25c6.5,6.7,14.6,14.7,20.4,18.3
				c5.8,3.6,16.8,1.1,16.8,1.1s-0.2-9.3,2.2-13.6c2.4-4.3,5.4-12,5.4-12s-10.2-14.7-19-21.6C81.5,43.3,75.9,45.6,75.9,45.6z"/>
			<path class="st4" d="M117.8,80c0,0-6.6,5.7-5.9,13.6c0.3,4.2,4.6,10,4.6,10l6.1,1.1c0,0-6.8,5.4-11.4,5.5c-5.5,0.1-7.7-0.2-8.2-8
				c-0.5-7.8,5.2-25.1,7.4-28C112.5,71.4,117.8,80,117.8,80z"/>
			<path class="st5" d="M102,169.5c-4.3-18.1-2.5-36.3-2.1-58.5c0.2-14-3-35-12.3-44.8c-8.6-9-17.2-9.4-17.5-11.2
				c-0.5-3.2-1.1-6.1-1.8-8.9H43c0.5,5.2,0.8,10.4,0.7,15.7c-1.5,2.6-3.1,5.2-4.8,7.7C36.8,72,24.8,82.8,21.5,87.1
				c-3.7,4.9-5.9,11-2.3,22.6c4.2,13.6,8.6,20.7,15.3,33.1c5.1,9.5,5.5,18.5,2.9,42.9C72.6,199.6,102.9,174.8,102,169.5z"/>
			<path class="st4" d="M99.9,111c0.2-14-3-35-12.3-44.8c-0.9-0.9-9.7-1.7-14.2,7.1c-3.9,7.7-27.2,8.6-40.7,2.3
				c-4.2,4.1-9.2,8.9-11.2,11.5c-3.7,4.9-5.9,11-2.3,22.6c4.2,13.6,8.6,20.7,15.3,33.1c5.1,9.5,5,20.7-0.8,41.6
				c44,21.6,76.5-6.6,75.7-11.9C105.1,154.3,99.5,133.2,99.9,111z"/>
			<path class="st1" d="M27.5,80.7c0,0,15.7,2.4,23.2,19c7.5,16.6-11.5,34.1-20,35.9c0.6,2.6,5.3,11.8,5.6,21
				C36.7,166,33,181,33,181s21.2,7.2,30.6,8.8c13.3,2.2,27.1-4.7,27.1-4.7l0.5-10.9l6.1,6.4c0,0,9.1-6.2,13.8-12.9
				c0.7-1-9.1-14.2-9.2-29c0-14.8,3.2-39.1,2-48.1c-2-14.4-9.4-27.7-16.5-32.7c-7.1-5.1-14.3-6.9-14.3-6.9l-3.1,4
				c0,0,4.6,5.1,8.7,14.8c3.2,7.7,2.6,16.9,2.6,16.9S52.8,72.1,39,69.4C31.6,75.5,27.5,80.7,27.5,80.7z"/>
			<path class="st3" d="M115.5,34.6c3.7,6.5,2.8,14.1-2.2,16.9c-5,2.9-12-0.1-15.8-6.6c-3.7-6.5-2.8-14.1,2.2-16.9
				C104.7,25.1,111.7,28.1,115.5,34.6z"/>
			<g>
				<path class="st3" d="M100.7,43.1c2.7,4.8,2,10.3-1.6,12.4c-3.6,2.1-8.8-0.1-11.6-4.8c-2.7-4.8-2-10.3,1.6-12.4
					C92.8,36.2,97.9,38.3,100.7,43.1z"/>
				<path class="st3" d="M125,17.6c0,0-17.3,6-25.3,10.4c-7.9,4.4-12.2,11.7-12.2,11.7L97.9,56c0,0,7.1-0.3,15.3-4.5
					c8.2-4.2,21.6-16.7,21.6-16.7L125,17.6z"/>
				<path class="st4" d="M136.5,22.4c2.7,4.8,2,10.3-1.6,12.4c-3.6,2.1-8.8-0.1-11.6-4.8c-2.7-4.8-2-10.3,1.6-12.4
					C128.6,15.5,133.8,17.6,136.5,22.4z"/>
			</g>
			<path class="st3" d="M42.5,57.3c0,0-1.7,1.1-3.5,6.5c-1.5,4.3-1.9,7.6-1.9,7.6s11.2,3.9,16.5,6.3c5.3,2.4,22,6.1,22,6.1v-10
				l6.7,3.7c0,0,0.7-7.1-0.8-11.2C79.8,62.2,71.6,53,71.6,53s3,10.8,2.1,16.3C59.7,67.7,52.3,63.5,42.5,57.3z"/>
			<path class="st6" d="M80.8,26.7c-1-6.8-3.3-15.2-9.1-19.6C66,2.8,57.1,3.3,50.4,4.4C40,6.2,33.9,18.5,37.1,31.7
				c3,12.2,13.1,30.3,27.2,31.5c1.5,0.1,3,0,4.3-0.5c4.8-1.5,8.3-6.3,10.2-11.8C81.8,42.6,81.6,32.3,80.8,26.7z"/>
			<path class="st7" d="M81.4,89.1c0,0,3.1,25.4,3.1,48.6c0,15.7,3.1,33.8,3.1,33.8s0-28.9,0-48.7C87.5,102.9,81.4,89.1,81.4,89.1z"/>
			<path class="st1" d="M75.6,5.4C67.2-0.8,53.1-1.7,44.3,3C39.1,5.8,35,13.3,34.1,18.8c-1.7,10.2,1.9,18,6.7,25.9
				c8.2-3.2,10.5-10.3,11.8-16.4c16,5.4,34.7-4.4,34.8-22.9C81.3,8.7,79.3,6.3,75.6,5.4z"/>
			<path class="st6" d="M53.5,35.6c0,0-7.5-4.5-10.3,0.5c-2.7,5,2.9,13.4,6.9,11.2C54.1,45,53.5,35.6,53.5,35.6z"/>
			<path class="st6" d="M116.2,67.5c1.7-8-4.7-18.3-6.8-23.7c1.4-4.3,4.1-6.9,5.2-14.6c0.3-2-0.9-4.6-2.6-2.6
				c-0.9,1.1-5.4,9.9-7.6,12.6c0.8-2.4,2-8.1,2.4-10.7c0.2-1.1-1-2.6-2.3-1.7c-5.8,4.3-7.7,8.5-8.7,16.3c-1.1,8.3,5.5,20.7,5.5,20.8
				c-9,20.5-26.9,39-34.8,50c-5.7-7.3-13.9-17-22.6-23.9c-5-4-18.2-7.7-20.5-5.1c-7.7,8.8-8,19.3-2.5,27
				c8.6,11.9,37.2,30.2,50.5,33.3c9.4-13.1,21.1-28.8,28.8-43C104.7,93.8,115.9,69.2,116.2,67.5z"/>
			<path class="st3" d="M27.5,80.7c0,0-5.2,4.2-10.2,12.2c-5.1,8-1.7,18.3,4.8,25c6.5,6.7,14.6,14.7,20.4,18.3
				c5.8,3.6,17.2,6.5,17.2,6.5s-0.6-14.6,1.8-19c2.4-4.3,5.4-12,5.4-12S56.7,97,47.9,90.1C33,78.5,27.5,80.7,27.5,80.7z"/>
			<path class="st4" d="M61.8,104.9c0,0-7.2,6.7-9.2,13.3c-2,6.6,0.5,19.4,1.7,24.5c1.2,5.2,12.6,0,12.6,0l-5-1.2
				c0,0,0.6-10.4,1.8-17.7c1.2-7.2,2.9-10,5.7-13.8C68.9,107.8,61.8,104.9,61.8,104.9z"/>
		</g>
		<g>
			<polygon class="st8" points="403.7,334.6 117.2,500 117.2,308.4 403.7,143 			"/>
			<g>
				<polygon class="st9" points="188.3,294.5 188.3,424.8 127.1,460.2 127.1,466.5 195,427.3 195,290.6 				"/>
				<polygon class="st10" points="188.3,294.5 127.1,329.9 127.1,460.2 188.3,424.8 				"/>
			</g>
			<g>
				<polygon class="st9" points="284.6,237.5 284.6,367.7 223.4,403.1 223.4,409.5 291.3,370.2 291.3,233.6 				"/>
				<polygon class="st10" points="284.6,237.5 223.4,272.8 223.4,403.1 284.6,367.7 				"/>
			</g>
			<g>
				<polygon class="st9" points="382.3,180.5 382.3,310.8 321.1,346.2 321.1,352.5 389.1,313.3 389.1,176.7 				"/>
				<polygon class="st10" points="382.3,180.5 321.1,215.9 321.1,346.2 382.3,310.8 				"/>
			</g>
			<polygon class="st11" points="403.7,334.6 117.2,500 117.2,482.6 403.7,317.2 			"/>
			<polygon class="st12" points="403.7,143 117.2,308.4 11.5,247.9 298,82.5 			"/>
			<polygon class="st9" points="11.5,247.9 11.5,439.5 117.2,500 117.2,308.4 			"/>
			<polygon class="st13" points="11.5,422.6 11.5,439.5 117.2,500 117.2,483.2 			"/>
			<g>
				<polygon class="st11" points="111.9,317.2 111.9,328.1 415.1,153 415.1,142.1 				"/>
				<polygon class="st13" points="0,253.1 0,264 111.9,328.1 111.9,317.2 				"/>
				<polygon class="st14" points="415.1,142.1 111.9,317.2 0,253.1 303.2,78.1 				"/>
			</g>
		</g>
		<g>
			<g>
				<path class="st15" d="M281.1,58.5c-0.1-0.3-0.3-0.5-0.5-0.8c-0.1-0.2-0.2-0.3-0.2-0.3l0,0c-2.7-3.8-9.5-6.4-17.6-6.4
					c-9.4,0-17.2,3.7-18.6,8.5c-1.5,3.2-4,10.3-2.8,20.8c1,8.5,3.2,13.8,4.8,21.3c1.9,9.1,2.9,27.2,2.9,27.5c0,1.4,0.8,2.8,2.1,3.9
					c0.9,0.8,2.1,1.4,3.4,1.9c2.3,0.9,5.1,1.4,8.1,1.4c3.6,0,6.9-0.7,9.3-2c1.5-0.7,2.7-1.6,3.4-2.7c0.6-0.8,1-1.7,1-2.7
					c0,0,0,0,0,0c0.7-8.5,1-18.1,3-27.4c1.6-7.5,3.8-12.8,4.8-21.3C285.6,68.6,282.5,61.1,281.1,58.5z"/>
				<path class="st15" d="M262.8,121.7c-6.8,0-12.4,2.9-12.4,6.6c0,3.6,5.5,6.6,12.4,6.6s12.4-2.9,12.4-6.6
					C275.2,124.7,269.7,121.7,262.8,121.7z"/>
				<path class="st16" d="M247.8,72.8c0.4-1.8,0.8-3.4,1.3-5c-1.1-0.7-2.8-2-3.4-2.7c-1.1,3.5-1.9,7.4-1.7,11.4
					c0.8,14.3,4.3,16.6,5.8,29.2c1.2,9.6,1.4,21.9,1.5,27.1c0.9,0.8,2.1,1.4,3.4,1.9c-0.1-5.1-0.5-19.1-1-25.7
					C252.3,92.2,245.2,85.9,247.8,72.8z"/>
				<path class="st16" d="M282.8,76.5c0.2-4.4-0.7-8.7-2.1-12.5c-0.5,0.9-1.7,2-3.2,3.2c0.5,1.7,1,3.6,1.4,5.6
					c2.7,13-4.5,19.4-5.9,36.3c-0.5,6.4-0.9,19.7-1,25.2c1.5-0.7,2.7-1.6,3.4-2.7c0.1-5.8,0.4-17,1.5-25.9
					C278.5,93.1,282.1,90.8,282.8,76.5z"/>
			</g>
			<ellipse class="st17" cx="262.8" cy="61" rx="18.8" ry="10"/>
			<ellipse class="st15" cx="262.8" cy="60.7" rx="17.4" ry="9.3"/>
			<path class="st3" d="M256.9,90.2c-4,0-7.1-3-7.1-6.9c0-1.7,0.7-5.5,7.1-5.5h13.5c6.4,0,7.1,3.9,7.1,5.5c0,3.9-3.1,6.9-7.1,6.9
				H256.9z"/>
			<path class="st18" d="M270.4,88.7h-13.5c-3.1,0-5.6-2.3-5.6-5.4l0,0c0-3.1,2.5-4,5.6-4h13.5c3.1,0,5.6,1,5.6,4l0,0
				C276,86.4,273.4,88.7,270.4,88.7z"/>
			<polygon class="st3" points="268.9,83.8 268.7,80.8 266,82.5 263.6,80.5 261.3,82.5 258.6,80.8 258.3,83.8 255,83.8 258.3,87.4 
				269,87.4 272.3,83.8 			"/>
			<polygon class="st19" points="268.4,86.4 270.1,84.6 267.9,84.6 267.7,82.5 265.8,84 263.7,82.2 261.7,83.9 259.6,82.5 
				259.4,84.6 257.3,84.6 259,86.4 			"/>
		</g>
		<g>
			<g>
				<path class="st15" d="M246.5,76.7c-0.1-0.3-0.3-0.5-0.5-0.8c-0.1-0.2-0.2-0.3-0.2-0.3l0,0c-2.7-3.8-9.5-6.4-17.6-6.4
					c-9.4,0-17.2,3.7-18.6,8.5c-1.5,3.2-4,10.3-2.8,20.8c1,8.5,3.2,13.8,4.8,21.3c1.9,9.1,2.9,27.2,2.9,27.5c0,1.4,0.8,2.8,2.1,3.9
					c0.9,0.8,2.1,1.4,3.4,1.9c2.3,0.9,5.1,1.4,8.1,1.4c3.6,0,6.9-0.7,9.3-2c1.5-0.7,2.7-1.6,3.4-2.7c0.6-0.8,1-1.7,1-2.7
					c0,0,0,0,0,0c0.7-8.5,1-18.1,3-27.4c1.6-7.5,3.8-12.8,4.8-21.3C251,86.8,247.9,79.4,246.5,76.7z"/>
				<path class="st15" d="M228.3,139.9c-6.8,0-12.4,2.9-12.4,6.6s5.5,6.6,12.4,6.6s12.4-2.9,12.4-6.6S235.1,139.9,228.3,139.9z"/>
				<path class="st16" d="M213.3,91c0.4-1.8,0.8-3.4,1.3-5c-1.1-0.7-2.8-2-3.4-2.7c-1.1,3.5-1.9,7.4-1.7,11.4
					c0.8,14.3,4.3,16.6,5.8,29.2c1.2,9.6,1.4,21.9,1.5,27.1c0.9,0.8,2.1,1.4,3.4,1.9c-0.1-5.1-0.5-19.1-1-25.7
					C217.8,110.5,210.6,104.1,213.3,91z"/>
				<path class="st16" d="M248.2,94.7c0.2-4.4-0.7-8.7-2.1-12.5c-0.5,0.9-1.7,2-3.2,3.2c0.5,1.7,1,3.6,1.4,5.6
					c2.7,13-4.5,19.4-5.9,36.3c-0.5,6.4-0.9,19.7-1,25.2c1.5-0.7,2.7-1.6,3.4-2.7c0.1-5.8,0.4-17,1.5-25.9
					C244,111.3,247.5,109,248.2,94.7z"/>
			</g>
			<ellipse class="st17" cx="228.3" cy="79.2" rx="18.8" ry="10"/>
			<ellipse class="st15" cx="228.3" cy="78.9" rx="17.4" ry="9.3"/>
			<path class="st3" d="M222.3,108.5c-4,0-7.1-3-7.1-6.9c0-1.7,0.7-5.5,7.1-5.5h13.5c6.4,0,7.1,3.9,7.1,5.5c0,3.9-3.1,6.9-7.1,6.9
				H222.3z"/>
			<path class="st18" d="M235.8,106.9h-13.5c-3.1,0-5.6-2.3-5.6-5.4l0,0c0-3.1,2.5-4,5.6-4h13.5c3.1,0,5.6,1,5.6,4l0,0
				C241.4,104.6,238.9,106.9,235.8,106.9z"/>
			<polygon class="st3" points="234.4,102 234.1,99.1 231.4,100.7 229.1,98.8 226.7,100.7 224,99.1 223.8,102 220.4,102 
				223.7,105.6 234.4,105.6 237.7,102 			"/>
			<polygon class="st19" points="233.9,104.7 235.5,102.8 233.3,102.8 233.2,100.7 231.3,102.2 229.1,100.5 227.1,102.2 225,100.7 
				224.8,102.8 222.8,102.8 224.4,104.7 			"/>
		</g>
		<g>
			<g>
				<path class="st15" d="M216.6,159c-0.1-0.3-0.3-0.5-0.4-0.8c-0.1-0.2-0.2-0.3-0.2-0.3l0,0c-2.7-3.7-9.4-6.4-17.3-6.4
					c-9.3,0-16.9,3.6-18.3,8.3c-1.5,3.2-3.9,10.2-2.7,20.5c1,8.4,3.1,13.7,4.7,21c1.9,8.9,2.9,26.9,2.9,27.1c0,1.4,0.8,2.7,2.1,3.9
					c0.9,0.7,2,1.4,3.4,1.9c2.2,0.9,5,1.4,8,1.4c3.5,0,6.8-0.7,9.2-1.9c1.5-0.7,2.6-1.6,3.4-2.6c0.6-0.8,1-1.7,1-2.6c0,0,0,0,0,0
					c0.6-8.4,1-17.9,3-27c1.6-7.4,3.8-12.7,4.7-21C221.1,168.9,218,161.6,216.6,159z"/>
				<path class="st20" d="M217.4,171.8h-37.5c0,0-0.7,6.2,1.5,13.9c2.1,7.7,3.2,10.9,4.1,17.3c0.9,6.4,1.8,20.2,1.8,20.2h11.4H210
					c0,0,0.9-13.8,1.8-20.2c0.9-6.4,2-9.6,4.1-17.3C218,178,217.4,171.8,217.4,171.8z"/>
				<path class="st20" d="M198.6,217.1c-6.3,0-11.3,2.7-11.3,6c0,3.3,5.1,6,11.3,6c6.3,0,11.3-2.7,11.3-6
					C209.9,219.8,204.9,217.1,198.6,217.1z"/>
				<path class="st21" d="M198.6,152c-9.5,0-17.2,4.1-17.2,9.1c0,5,7.7,9.1,17.2,9.1c9.5,0,17.2-4.1,17.2-9.1
					C215.8,156.1,208.1,152,198.6,152z"/>
				<ellipse class="st22" cx="198.7" cy="171.8" rx="18.8" ry="10"/>
				<ellipse class="st23" cx="198.7" cy="171.8" rx="18.8" ry="10"/>
				<path class="st24" d="M181.4,163.9c0.1,5,7.8,9,17.3,9c9.5,0,17.1-4,17.3-9H181.4z"/>
				<g>
					<path class="st16" d="M197.2,212.5c0,0.8-0.6,1.4-1.4,1.4c-0.8,0-1.4-0.6-1.4-1.4c0-0.8,0.6-1.4,1.4-1.4
						C196.6,211.1,197.2,211.7,197.2,212.5z"/>
					<path class="st3" d="M196.1,212.1c0,0.4-0.3,0.7-0.7,0.7c-0.4,0-0.7-0.3-0.7-0.7c0-0.4,0.3-0.7,0.7-0.7
						C195.8,211.5,196.1,211.8,196.1,212.1z"/>
				</g>
				<g>
					<path class="st16" d="M189.1,198.9c0,0.8-0.6,1.4-1.4,1.4c-0.8,0-1.4-0.6-1.4-1.4c0-0.8,0.6-1.4,1.4-1.4
						C188.5,197.5,189.1,198.1,189.1,198.9z"/>
					<path class="st3" d="M188,198.6c0,0.4-0.3,0.7-0.7,0.7c-0.4,0-0.7-0.3-0.7-0.7c0-0.4,0.3-0.7,0.7-0.7
						C187.7,197.9,188,198.2,188,198.6z"/>
				</g>
				<g>
					<path class="st16" d="M202.7,205.7c0,0.7-0.6,1.4-1.4,1.4c-0.8,0-1.4-0.6-1.4-1.4c0-0.8,0.6-1.4,1.4-1.4
						C202.1,204.4,202.7,205,202.7,205.7z"/>
					<path class="st3" d="M201.6,205.4c0,0.4-0.3,0.7-0.7,0.7s-0.7-0.3-0.7-0.7s0.3-0.7,0.7-0.7S201.6,205,201.6,205.4z"/>
				</g>
				<g>
					<path class="st16" d="M202.3,224.5c0,0.8-0.6,1.4-1.4,1.4c-0.8,0-1.4-0.6-1.4-1.4c0-0.8,0.6-1.4,1.4-1.4
						C201.7,223.2,202.3,223.8,202.3,224.5z"/>
					<path class="st3" d="M201.2,224.2c0,0.4-0.3,0.7-0.7,0.7c-0.4,0-0.7-0.3-0.7-0.7c0-0.4,0.3-0.7,0.7-0.7
						C200.9,223.5,201.2,223.8,201.2,224.2z"/>
				</g>
				<g>
					<path class="st16" d="M195.4,199.2c0,0.8-0.6,1.4-1.4,1.4c-0.8,0-1.4-0.6-1.4-1.4c0-0.8,0.6-1.4,1.4-1.4
						C194.8,197.8,195.4,198.5,195.4,199.2z"/>
					<path class="st3" d="M194.4,198.9c0,0.4-0.3,0.7-0.7,0.7c-0.4,0-0.7-0.3-0.7-0.7c0-0.4,0.3-0.7,0.7-0.7
						C194.1,198.2,194.4,198.5,194.4,198.9z"/>
				</g>
				<g>
					<path class="st16" d="M207.6,193.9c0,0.8-0.6,1.4-1.4,1.4c-0.7,0-1.4-0.6-1.4-1.4c0-0.8,0.6-1.4,1.4-1.4
						C207,192.6,207.6,193.2,207.6,193.9z"/>
					<path class="st3" d="M206.5,193.6c0,0.4-0.3,0.7-0.7,0.7c-0.4,0-0.7-0.3-0.7-0.7c0-0.4,0.3-0.7,0.7-0.7
						C206.2,192.9,206.5,193.2,206.5,193.6z"/>
				</g>
				<g>
					<path class="st16" d="M205.5,202.9c0,0.5-0.4,0.8-0.8,0.8c-0.5,0-0.8-0.4-0.8-0.8c0-0.5,0.4-0.8,0.8-0.8
						C205.1,202.1,205.5,202.5,205.5,202.9z"/>
					<path class="st3" d="M204.9,202.7c0,0.2-0.2,0.4-0.4,0.4c-0.2,0-0.4-0.2-0.4-0.4c0-0.2,0.2-0.4,0.4-0.4
						C204.7,202.3,204.9,202.5,204.9,202.7z"/>
				</g>
				<g>
					<path class="st16" d="M211.6,197.5c0,0.5-0.4,0.8-0.8,0.8c-0.5,0-0.8-0.4-0.8-0.8c0-0.5,0.4-0.8,0.8-0.8
						C211.3,196.7,211.6,197.1,211.6,197.5z"/>
					<path class="st3" d="M211,197.3c0,0.2-0.2,0.4-0.4,0.4c-0.2,0-0.4-0.2-0.4-0.4c0-0.2,0.2-0.4,0.4-0.4
						C210.8,196.9,211,197.1,211,197.3z"/>
				</g>
				<g>
					<path class="st16" d="M189.5,218.1c0,0.5-0.4,0.8-0.8,0.8c-0.5,0-0.8-0.4-0.8-0.8c0-0.5,0.4-0.8,0.8-0.8
						C189.1,217.2,189.5,217.6,189.5,218.1z"/>
					<path class="st3" d="M188.9,217.9c0,0.2-0.2,0.4-0.4,0.4c-0.2,0-0.4-0.2-0.4-0.4c0-0.2,0.2-0.4,0.4-0.4
						C188.7,217.5,188.9,217.6,188.9,217.9z"/>
				</g>
				<g>
					<path class="st16" d="M192.7,206.1c0,0.5-0.4,0.8-0.8,0.8c-0.5,0-0.8-0.4-0.8-0.8c0-0.5,0.4-0.8,0.8-0.8
						C192.4,205.3,192.7,205.6,192.7,206.1z"/>
					<path class="st3" d="M192.1,205.9c0,0.2-0.2,0.4-0.4,0.4c-0.2,0-0.4-0.2-0.4-0.4c0-0.2,0.2-0.4,0.4-0.4
						C191.9,205.5,192.1,205.7,192.1,205.9z"/>
				</g>
				<g>
					<path class="st16" d="M215.8,182.4c0,0.5-0.4,0.8-0.8,0.8c-0.5,0-0.8-0.4-0.8-0.8c0-0.5,0.4-0.8,0.8-0.8
						C215.4,181.6,215.8,182,215.8,182.4z"/>
					<path class="st3" d="M215.1,182.2c0,0.2-0.2,0.4-0.4,0.4c-0.2,0-0.4-0.2-0.4-0.4c0-0.2,0.2-0.4,0.4-0.4
						C214.9,181.8,215.1,182,215.1,182.2z"/>
				</g>
				<g>
					<path class="st16" d="M190.2,192.9c0,0.5-0.4,0.8-0.8,0.8c-0.5,0-0.8-0.4-0.8-0.8c0-0.5,0.4-0.8,0.8-0.8
						C189.8,192.1,190.2,192.5,190.2,192.9z"/>
					<path class="st3" d="M189.5,192.7c0,0.2-0.2,0.4-0.4,0.4c-0.2,0-0.4-0.2-0.4-0.4c0-0.2,0.2-0.4,0.4-0.4
						C189.3,192.3,189.5,192.5,189.5,192.7z"/>
				</g>
				<g>
					<path class="st16" d="M193.5,219.5c0,0.5-0.4,0.8-0.8,0.8c-0.5,0-0.8-0.4-0.8-0.8c0-0.5,0.4-0.8,0.8-0.8
						C193.2,218.7,193.5,219,193.5,219.5z"/>
					<path class="st3" d="M192.9,219.3c0,0.2-0.2,0.4-0.4,0.4c-0.2,0-0.4-0.2-0.4-0.4c0-0.2,0.2-0.4,0.4-0.4
						C192.7,218.9,192.9,219.1,192.9,219.3z"/>
				</g>
				<g>
					<path class="st16" d="M203.9,213.8c0,0.5-0.4,0.8-0.8,0.8c-0.5,0-0.8-0.4-0.8-0.8c0-0.5,0.4-0.8,0.8-0.8
						C203.5,213,203.9,213.4,203.9,213.8z"/>
					<path class="st3" d="M203.2,213.6c0,0.2-0.2,0.4-0.4,0.4c-0.2,0-0.4-0.2-0.4-0.4s0.2-0.4,0.4-0.4
						C203,213.2,203.2,213.4,203.2,213.6z"/>
				</g>
				<g>
					<path class="st16" d="M195.4,226.8c0,0.5-0.4,0.8-0.8,0.8c-0.5,0-0.8-0.4-0.8-0.8c0-0.5,0.4-0.8,0.8-0.8
						C195.1,226,195.4,226.4,195.4,226.8z"/>
					<path class="st3" d="M194.8,226.6c0,0.2-0.2,0.4-0.4,0.4c-0.2,0-0.4-0.2-0.4-0.4c0-0.2,0.2-0.4,0.4-0.4
						C194.6,226.2,194.8,226.4,194.8,226.6z"/>
				</g>
				<g>
					<path class="st16" d="M205.3,220.8c0,0.5-0.4,0.8-0.8,0.8c-0.5,0-0.8-0.4-0.8-0.8c0-0.5,0.4-0.8,0.8-0.8
						C204.9,219.9,205.3,220.3,205.3,220.8z"/>
					<path class="st3" d="M204.6,220.6c0,0.2-0.2,0.4-0.4,0.4c-0.2,0-0.4-0.2-0.4-0.4c0-0.2,0.2-0.4,0.4-0.4
						C204.4,220.2,204.6,220.3,204.6,220.6z"/>
				</g>
				<path class="st24" d="M179.8,171.8c0,0,0.4-8,2.9-10.6c2.4-2.6,4-2,4-2s-0.2-2.5,1.8-3.7c1.6-1,3.2,1.1,3.2,1.1s0.5-2.5,2.6-2.8
					c2.1-0.3,3.2,1.7,3.2,1.7s1.5-1.4,3.4-1.3c2.2,0.1,3,2.3,3,2.3s1.7-1.6,4.3-0.7c2.7,1,2.4,3.7,2.4,3.7s2.1-1.3,3.5,0.3
					c2.5,2.9,3.4,12,3.4,12H179.8z"/>
				<path class="st23" d="M181,164.7c-1,3.2-1.2,7.1-1.2,7.1l19.3,3.6l18.3-3.6c0,0-0.3-3.8-1.3-7.2c-1.9,2.6-7.2,6.7-16.7,6.7
					C187.7,171.3,183.1,167.2,181,164.7z"/>
				<path class="st16" d="M183.8,173.1c0.4-1.7,0.8-3.4,1.2-4.9c-1.5-0.8-2.8-2-3.4-2.7c-1.1,3.4-1.9,7.3-1.7,11.2
					c0.8,14.1,4.2,16.4,5.7,28.8c1.1,9.5,1.4,21.6,1.5,26.8c0.9,0.7,2,1.4,3.4,1.9c-0.1-5.1-0.4-18.8-1-25.3
					C188.2,192.3,181.1,186,183.8,173.1z"/>
				<path class="st16" d="M217.1,177.3c0.2-4.3-0.5-7.9-1.8-11.6c-0.5,0.9-2.3,2.2-3.5,2.6c0.5,1.7,1.1,3.3,1.5,5.3
					c2.6,12.9-4.4,19.2-5.8,35.8c-0.5,6.3-0.8,19.4-1,24.8c1.5-0.7,2.7-1,3.5-2c0.1-5.7,0.3-17.3,1.4-26.2
					C212.9,193.6,216.4,191.3,217.1,177.3z"/>
				<path class="st17" d="M198.6,151.6c-10.3,0-18.6,4.4-18.6,9.9c0,5.5,8.3,9.9,18.6,9.9c10.3,0,18.6-4.4,18.6-9.9
					C217.2,156,208.8,151.6,198.6,151.6z M198.6,170.3c-9.5,0-17.2-4.1-17.2-9.1c0-5,7.7-9.1,17.2-9.1c9.5,0,17.2,4.1,17.2,9.1
					C215.8,166.2,208.1,170.3,198.6,170.3z"/>
				<path class="st3" d="M192,190.3c-3.9,0-7-3-7-6.8c0-1.6,0.7-5.5,7-5.5h13.3c6.3,0,7,3.8,7,5.5c0,3.8-3.1,6.8-7,6.8H192z"/>
				<path class="st18" d="M205.3,188.8H192c-3,0-5.5-2.3-5.5-5.3l0,0c0-3,2.5-4,5.5-4h13.3c3,0,5.5,0.9,5.5,4l0,0
					C210.8,186.5,208.3,188.8,205.3,188.8z"/>
				<polygon class="st3" points="203.9,183.9 203.6,181 201,182.7 198.7,180.7 196.4,182.7 193.7,181 193.4,183.9 190.2,183.9 
					193.4,187.5 203.9,187.5 207.2,183.9 				"/>
				<polygon class="st19" points="203.4,186.6 205,184.8 202.9,184.8 202.7,182.7 200.8,184.2 198.7,182.4 196.7,184.1 194.7,182.7 
					194.5,184.8 192.5,184.8 194.1,186.6 				"/>
			</g>
			<circle class="st3" cx="200.1" cy="165.1" r="1.2"/>
			<path class="st3" d="M193.9,159.3c0,0.5-0.4,0.9-0.9,0.9c-0.5,0-0.9-0.4-0.9-0.9c0-0.5,0.4-0.9,0.9-0.9
				C193.5,158.4,193.9,158.8,193.9,159.3z"/>
			<path class="st3" d="M195.7,167.8c0,0.5-0.4,0.9-0.9,0.9c-0.5,0-0.9-0.4-0.9-0.9c0-0.5,0.4-0.9,0.9-0.9
				C195.3,166.9,195.7,167.3,195.7,167.8z"/>
			<path class="st3" d="M192.3,162.1c0,0.4-0.3,0.8-0.8,0.8c-0.4,0-0.8-0.3-0.8-0.8c0-0.4,0.3-0.8,0.8-0.8
				C192,161.4,192.3,161.7,192.3,162.1z"/>
			<path class="st3" d="M205.2,166c0,0.4-0.3,0.8-0.8,0.8c-0.4,0-0.8-0.3-0.8-0.8c0-0.4,0.3-0.8,0.8-0.8
				C204.9,165.2,205.2,165.6,205.2,166z"/>
			<path class="st3" d="M207.3,158.8c0,0.4-0.3,0.8-0.8,0.8c-0.4,0-0.8-0.3-0.8-0.8c0-0.4,0.3-0.8,0.8-0.8
				C206.9,158,207.3,158.4,207.3,158.8z"/>
			<path class="st23" d="M209.1,164.1c0,0-0.6-1.9,0-2.6c0.8-0.9,1.9-0.9,1.9-0.9s-1.3-1-2.3-0.2c-1.3,1.1-0.8,2.1-0.8,2.1
				s-1-0.4-1.9-0.2c-0.7,0.2-0.9,0.8-0.9,0.8S208,162.8,209.1,164.1z"/>
			<path class="st23" d="M197,159.8c0,0,0.6-0.5,1.3-0.5c0.7,0.1,1.4,0.9,1.4,0.9s1.2-0.7,2.2-0.2c0.9,0.4,1.3,1.2,1.3,1.2
				s-0.9-0.7-1.8-0.6c-0.9,0-1.8,1.4-1.8,1.4s-0.4-1.3-1-1.7C197.7,159.8,197,159.8,197,159.8z"/>
			<path class="st23" d="M187.3,162c0,0,0.9-0.3,1.6,0.1c0.7,0.4,1,1.6,1,1.6s1.6-0.1,2.4,0.8c0.8,0.9,0.7,1.9,0.7,1.9
				s-0.6-1.1-1.6-1.5c-1-0.4-2.5,0.6-2.5,0.6s0.2-1.6-0.3-2.3S187.3,162,187.3,162z"/>
		</g>
		<g>
			<path class="st25" d="M149.1,200.3c-6.7,0-12.1-2.9-12.1-6.4l2,22.5c0,3,4.5,5.3,10,5.3c5.5,0,10-2.4,10-5.3l2-22.5
				C161.1,197.5,155.7,200.3,149.1,200.3z"/>
			<path class="st17" d="M149.1,187.5c-6.7,0-12.1,2.9-12.1,6.4c0,3.5,5.4,6.4,12.1,6.4c6.7,0,12.1-2.9,12.1-6.4
				C161.1,190.4,155.7,187.5,149.1,187.5z"/>
			<path class="st26" d="M149.1,188.1c-5.8,0-10.5,2.5-10.5,5.6c0,3.1,4.7,5.6,10.5,5.6c5.8,0,10.5-2.5,10.5-5.6
				C159.5,190.6,154.8,188.1,149.1,188.1z"/>
			<path class="st25" d="M149.1,210.9c-5.1,0-9.2,2.2-9.2,4.9c0,2.7,4.1,4.9,9.2,4.9c5.1,0,9.2-2.2,9.2-4.9
				C158.2,213,154.1,210.9,149.1,210.9z"/>
			<path class="st16" d="M155.4,199.4l-1.5,21.7c1.2-0.4,2.3-0.9,3.2-1.5l1.9-22.1C158.1,198.3,156.8,198.9,155.4,199.4z"/>
			<path class="st16" d="M142.7,199.4l1.5,21.7c-1.2-0.4-2.3-0.9-3.2-1.5l-1.9-22.1C140.1,198.3,141.3,198.9,142.7,199.4z"/>
		</g>
		<g>
			<path class="st25" d="M117.8,217.5c-6.7,0-12.1-2.9-12.1-6.4l2,22.5c0,3,4.5,5.3,10,5.3c5.5,0,10-2.4,10-5.3l2-22.5
				C129.8,214.6,124.4,217.5,117.8,217.5z"/>
			<path class="st17" d="M117.8,204.6c-6.7,0-12.1,2.9-12.1,6.4c0,3.5,5.4,6.4,12.1,6.4c6.7,0,12.1-2.9,12.1-6.4
				C129.8,207.5,124.4,204.6,117.8,204.6z"/>
			<path class="st26" d="M117.8,205.3c-5.8,0-10.5,2.5-10.5,5.6c0,3.1,4.7,5.6,10.5,5.6c5.8,0,10.5-2.5,10.5-5.6
				C128.2,207.8,123.5,205.3,117.8,205.3z"/>
			<path class="st25" d="M117.8,228c-5.1,0-9.2,2.2-9.2,4.9c0,2.7,4.1,4.9,9.2,4.9c5.1,0,9.2-2.2,9.2-4.9
				C126.9,230.2,122.8,228,117.8,228z"/>
			<path class="st16" d="M124.1,216.5l-1.5,21.7c1.2-0.4,2.3-0.9,3.2-1.5l1.9-22.1C126.8,215.4,125.5,216,124.1,216.5z"/>
			<path class="st16" d="M111.4,216.5l1.5,21.7c-1.2-0.4-2.3-0.9-3.2-1.5l-1.9-22.1C108.8,215.4,110,216,111.4,216.5z"/>
		</g>
		<g>
			<path class="st25" d="M84.4,235.6c-6.7,0-12.1-2.9-12.1-6.4l2,22.5c0,3,4.5,5.3,10,5.3c5.5,0,10-2.4,10-5.3l2-22.5
				C96.5,232.8,91.1,235.6,84.4,235.6z"/>
			<path class="st17" d="M84.4,222.8c-6.7,0-12.1,2.9-12.1,6.4c0,3.5,5.4,6.4,12.1,6.4c6.7,0,12.1-2.9,12.1-6.4
				C96.5,225.7,91.1,222.8,84.4,222.8z"/>
			<path class="st26" d="M84.4,223.4c-5.8,0-10.5,2.5-10.5,5.6c0,3.1,4.7,5.6,10.5,5.6c5.8,0,10.5-2.5,10.5-5.6
				C94.9,225.9,90.2,223.4,84.4,223.4z"/>
			<path class="st25" d="M84.4,246.2c-5.1,0-9.2,2.2-9.2,4.9c0,2.7,4.1,4.9,9.2,4.9c5.1,0,9.2-2.2,9.2-4.9
				C93.6,248.3,89.5,246.2,84.4,246.2z"/>
			<path class="st16" d="M90.8,234.7l-1.5,21.7c1.2-0.4,2.3-0.9,3.2-1.5l1.9-22.1C93.5,233.6,92.2,234.2,90.8,234.7z"/>
			<path class="st16" d="M78.1,234.7l1.5,21.7c-1.2-0.4-2.3-0.9-3.2-1.5l-1.9-22.1C75.4,233.6,76.7,234.2,78.1,234.7z"/>
		</g>
		<g>
			<g>
				<polygon class="st4" points="366.4,142.7 281.7,191.6 245,170.4 329.7,121.5 				"/>
				<g>
					<polygon class="st27" points="252.1,171.6 250.2,170.4 329.4,124.5 360.9,142.7 358.9,143.8 329.4,126.8 					"/>
					<polygon class="st28" points="252.1,171.6 329.4,126.8 358.9,143.8 281.7,188.6 					"/>
				</g>
				<polygon class="st27" points="366.4,142.7 366.4,145 281.7,193.9 281.7,191.6 				"/>
				<polygon class="st28" points="245,170.4 245,172.7 281.7,193.9 281.7,191.6 				"/>
			</g>
			<g>
				<path class="st28" d="M256.7,202.3c5.5,0,9.9,2.4,9.9,5.3c0,2.9-4.4,5.3-9.9,5.3c-5.5,0-9.9-2.4-9.9-5.3
					C246.8,204.7,251.2,202.3,256.7,202.3z"/>
				<g>
					<g>
						<path class="st28" d="M317,45.8c-2.6-1.5-5.3-1.7-7.4-0.4c-2.5,1.4-3.9,4.5-3.9,8.3v3c0,0.7,1,1.3,2.3,1.3
							c1.3,0,2.3-0.6,2.3-1.3v-3c0-2.1,0.6-3.7,1.5-4.3c0.9-0.5,2.1,0,2.7,0.4l10.3,6v-5.4L317,45.8z"/>
						<path class="st4" d="M323,46.6C323,46.6,322.9,46.6,323,46.6L323,46.6L323,46.6c-0.7-0.4-1.4-0.4-2.3,0
							c-1.8,1-3.2,3.8-3.2,6.2c0,1.2,0.4,2.1,1,2.6l0,0l23.1,13.3l4.2-9L323,46.6z"/>
						<path class="st29" d="M340.5,66.1c0,2.4,1.4,3.5,3.2,2.4c1.8-1,3.2-3.8,3.2-6.2c0-2.4-1.4-3.5-3.2-2.4
							C342,61,340.5,63.8,340.5,66.1z"/>
						<path class="st28" d="M323.7,47.4v2.8c0,0.6,0.9,1.1,1.9,1.1c1.1,0,1.9-0.5,1.9-1.1v-2.8H323.7z"/>
						<path class="st1" d="M325.6,24.5c-1.9,0-3.3,0.5-3.3,7c0,6.5,0.8,15.9,0.8,15.9c0,0.8,1.1,1.4,2.5,1.4c1.4,0,2.5-0.6,2.5-1.4
							c0,0,0.8-9.4,0.8-15.9C329,25,327.5,24.5,325.6,24.5z"/>
					</g>
					<g>
						<path class="st28" d="M287.4,62.7c-2.6-1.5-5.3-1.7-7.4-0.4c-2.5,1.4-3.9,4.5-3.9,8.3v3c0,0.7,1,1.3,2.3,1.3
							c1.3,0,2.3-0.6,2.3-1.3v-3c0-2.1,0.6-3.7,1.5-4.3c0.9-0.5,2.1,0,2.7,0.4l10.3,6v-5.4L287.4,62.7z"/>
						<path class="st4" d="M293.4,63.5C293.4,63.5,293.4,63.5,293.4,63.5L293.4,63.5L293.4,63.5c-0.7-0.4-1.4-0.4-2.3,0
							c-1.8,1-3.2,3.8-3.2,6.2c0,1.2,0.4,2.1,1,2.6l0,0L312,85.6l4.2-9L293.4,63.5z"/>
						<path class="st29" d="M311,83c0,2.4,1.5,3.5,3.2,2.4c1.8-1,3.2-3.8,3.2-6.2c0-2.4-1.4-3.5-3.2-2.4C312.4,77.9,311,80.7,311,83
							z"/>
						<path class="st28" d="M294.1,64.3v2.8c0,0.6,0.9,1.1,1.9,1.1c1.1,0,1.9-0.5,1.9-1.1v-2.8H294.1z"/>
						<path class="st1" d="M296,41.4c-1.9,0-3.3,0.5-3.3,7c0,6.5,0.8,15.9,0.8,15.9c0,0.8,1.1,1.4,2.5,1.4c1.4,0,2.5-0.6,2.5-1.4
							c0,0,0.8-9.4,0.8-15.9C299.4,41.8,298,41.4,296,41.4z"/>
					</g>
					<g>
						<path class="st28" d="M258,79.8c-2.6-1.5-5.3-1.7-7.4-0.4c-2.5,1.4-3.9,4.5-3.9,8.3v3c0,0.7,1,1.3,2.3,1.3
							c1.3,0,2.3-0.6,2.3-1.3v-3c0-2.1,0.6-3.7,1.5-4.3c0.9-0.5,2.1,0,2.7,0.4l10.3,6v-5.4L258,79.8z"/>
						<path class="st4" d="M264,80.6C264,80.6,264,80.6,264,80.6L264,80.6L264,80.6c-0.7-0.4-1.4-0.4-2.3,0c-1.8,1-3.2,3.8-3.2,6.2
							c0,1.2,0.4,2.1,1,2.5l0,0l23.1,13.3l4.2-9L264,80.6z"/>
						<path class="st29" d="M281.6,100.2c0,2.4,1.4,3.5,3.2,2.4c1.8-1,3.2-3.8,3.2-6.2c0-2.4-1.5-3.5-3.2-2.4
							C283,95,281.6,97.8,281.6,100.2z"/>
						<path class="st28" d="M264.7,81.4v2.8c0,0.6,0.9,1.1,1.9,1.1c1.1,0,1.9-0.5,1.9-1.1v-2.8H264.7z"/>
						<path class="st1" d="M266.7,58.5c-1.9,0-3.3,0.5-3.3,7c0,6.5,0.8,15.9,0.8,15.9c0,0.8,1.1,1.4,2.5,1.4c1.4,0,2.5-0.6,2.5-1.4
							c0,0,0.8-9.4,0.8-15.9C270,59,268.6,58.5,266.7,58.5z"/>
					</g>
				</g>
				<path class="st28" d="M382.7,129.4c5.5,0,9.9,2.4,9.9,5.3c0,2.9-4.4,5.3-9.9,5.3c-5.5,0-9.9-2.4-9.9-5.3
					C372.8,131.8,377.3,129.4,382.7,129.4z"/>
				<path class="st3" d="M272.7,100L359,50.1c7-4.1,14.4-4.4,20.4-1c6.7,3.9,10.6,12,10.6,22.4v62.1c0,2.2-3.3,4-7.5,4
					c-4.1,0-7.5-1.8-7.5-4V71.4c0-5.7-1.7-8.6-3.1-9.5c-0.4-0.2-0.9-0.3-1.4-0.3c-1.5,0-3.2,0.9-4,1.3l-86.3,49.9
					c-8.5,4.9-16,19.5-16,31.2v62.2c0,2.2-3.3,4-7.5,4c-4.1,0-7.5-1.8-7.5-4v-62.2C249.2,127,259.5,107.6,272.7,100z"/>
				<g>
					<path class="st27" d="M349.8,52.7l1.3-0.8l0,0c1.1-0.5,2.5-0.4,4,0.4c3.5,2,6.4,7.5,6.4,12.2c0,2.2-0.7,3.9-1.7,4.8l-1.4,0.9
						c0,0-2.1-0.2-3.2-0.9c-3.5-2-6.4-7.5-6.4-12.2C348.7,55.3,349.8,52.7,349.8,52.7z"/>
					<path class="st28" d="M347.9,57.7c0,4.7,2.9,10.2,6.4,12.2c3.5,2,6.4-0.1,6.4-4.8c0-4.7-2.9-10.2-6.4-12.2
						C350.7,50.8,347.9,53,347.9,57.7z"/>
					<path class="st3" d="M345.6,57.9l5.1-3l0,0c0.8-0.4,1.9-0.3,3,0.3c2.7,1.6,4.9,5.8,4.9,9.4c0,1.9-0.6,3.2-1.5,3.8l0,0l-4,2.3
						l-6-7.3L345.6,57.9z"/>
				</g>
				<g>
					<path class="st27" d="M317.6,71.3l1.3-0.8l0,0c1.1-0.5,2.5-0.4,4,0.4c3.5,2,6.4,7.5,6.4,12.2c0,2.2-0.7,3.9-1.7,4.8l-1.4,0.9
						c0,0-2.1-0.2-3.2-0.9c-3.5-2-6.4-7.5-6.4-12.2C316.5,73.9,317.6,71.3,317.6,71.3z"/>
					<path class="st28" d="M315.6,76.3c0,4.7,2.9,10.2,6.4,12.2c3.5,2,6.4-0.1,6.4-4.8c0-4.7-2.9-10.2-6.4-12.2
						C318.5,69.4,315.6,71.6,315.6,76.3z"/>
					<path class="st3" d="M313.9,76.2l4.5-2.6c0.8-0.4,1.9-0.3,3,0.3c2.7,1.6,4.9,5.8,4.9,9.4c0,1.9-0.6,3.2-1.5,3.8l-4,2.3l-6-7.3
						L313.9,76.2z"/>
				</g>
				<g>
					<path class="st27" d="M285.3,89.9l1.3-0.8l0,0c1.1-0.5,2.5-0.4,4,0.4c3.5,2,6.4,7.5,6.4,12.2c0,2.2-0.7,3.9-1.7,4.8l-1.4,0.9
						c0,0-2.1-0.2-3.2-0.9c-3.5-2-6.4-7.5-6.4-12.2C284.2,92.5,285.3,89.9,285.3,89.9z"/>
					<path class="st28" d="M283.4,94.9c0,4.7,2.9,10.2,6.4,12.2c3.5,2,6.4-0.1,6.4-4.8c0-4.7-2.9-10.2-6.4-12.2
						C286.2,88,283.4,90.2,283.4,94.9z"/>
					<path class="st3" d="M281.4,95l4.7-2.8c0.8-0.4,1.9-0.3,3,0.3c2.7,1.6,4.9,5.8,4.9,9.4c0,1.9-0.6,3.2-1.5,3.8l0,0l-4.6,2.7
						l-5.4-7.7L281.4,95z"/>
				</g>
			</g>
		</g>
	</g>
	<g>
		<g>
			<g>
				<path class="st3" d="M255,341.5V457c0,0,0,4,0,4.1c0,1.3-1.9,2.3-4.3,2.3c-2.4,0-4.3-1-4.3-2.3c0,0,0-4.1,0-4.1V341.5H255z"/>
				<path class="st3" d="M313.6,341.5V457c0,0,0,4,0,4.1c0,1.3-1.9,2.3-4.3,2.3c-2.4,0-4.3-1-4.3-2.3c0,0,0-4.1,0-4.1V341.5H313.6z"/>
				<path class="st3" d="M284.3,354.8v115.4c0,0,0,4,0,4.1c0,1.3-1.9,2.3-4.3,2.3c-2.4,0-4.3-1-4.3-2.3c0,0,0-4.1,0-4.1V354.8H284.3
					z"/>
			</g>
			<g>
				<path class="st3" d="M314,338.7v10.7c0,0,0,0.5,0,0.7c0,10-15.2,18.1-34,18.1c-18.8,0-34-8.1-34-18.1c0-0.2,0-0.7,0-0.7v-10.7
					H314z"/>
				<path class="st7" d="M318.9,336.1v5.8c0,0,0,0.5,0,0.8c0,11.3-17.3,20.5-38.6,20.5c-21.3,0-38.6-9.2-38.6-20.5
					c0-0.3,0-0.8,0-0.8v-5.8H318.9z"/>
				<path class="st1" d="M280.3,315.6c21.3,0,38.6,9.2,38.6,20.5c0,11.3-17.3,20.5-38.6,20.5c-21.3,0-38.6-9.2-38.6-20.5
					C241.6,324.8,258.9,315.6,280.3,315.6z"/>
				<path class="st30" d="M316.8,331.9h-0.7c-3.4-8.9-18.2-15.5-35.9-15.5c-17.7,0-32.4,6.7-35.9,15.5h-0.8v4
					c0,10.8,16.4,19.5,36.6,19.5c19.8,0,35.9-8.3,36.6-18.7L316.8,331.9z"/>
				<path class="st31" d="M280.3,313.1c20.2,0,36.6,8.7,36.6,19.5c0,10.8-16.4,19.5-36.6,19.5c-20.2,0-36.6-8.7-36.6-19.5
					C243.6,321.8,260,313.1,280.3,313.1z"/>
				<g>
					<path class="st1" d="M275.9,390c-8,0.4-15.2,2.2-20.8,5v4.8c5.3-3,12.6-5.1,20.8-5.5V390z"/>
					<path class="st1" d="M284.3,390v4.3c8,0.6,15.7,2.9,20.7,6v-4.9C299.6,392.6,292.1,390.6,284.3,390z"/>
					<path class="st1" d="M313.6,401.5v9.7l0,0c-0.6,8.7-16.4,15.9-33.8,15.9c-17.8,0-33.2-9-33.2-17.1v-8.8c-2.5,2.8-3.9,6-3.9,9.4
						c0,11.6,16.3,20.8,37.2,20.8c20.8,0,37.8-7.8,37.8-20.8C317.6,407.5,316.1,404.3,313.6,401.5z"/>
				</g>
			</g>
		</g>
		<g>
			<g>
				<path class="st3" d="M341.2,293.8v115.4c0,0,0,4,0,4.1c0,1.3-1.9,2.3-4.3,2.3c-2.4,0-4.3-1-4.3-2.3c0,0,0-4.1,0-4.1V293.8H341.2
					z"/>
				<path class="st3" d="M399.7,293.8v115.4c0,0,0,4,0,4.1c0,1.3-1.9,2.3-4.3,2.3c-2.4,0-4.3-1-4.3-2.3c0,0,0-4.1,0-4.1V293.8H399.7
					z"/>
				<path class="st3" d="M370.4,307.1v115.4c0,0,0,4,0,4.1c0,1.3-1.9,2.3-4.3,2.3c-2.4,0-4.3-1-4.3-2.3c0,0,0-4.1,0-4.1V307.1H370.4
					z"/>
			</g>
			<g>
				<path class="st3" d="M400.2,291v10.7c0,0,0,0.5,0,0.7c0,10-15.2,18.1-34,18.1c-18.8,0-34-8.1-34-18.1c0-0.2,0-0.7,0-0.7V291
					H400.2z"/>
				<path class="st7" d="M405,288.4v5.8c0,0,0,0.5,0,0.8c0,11.3-17.3,20.5-38.6,20.5c-21.3,0-38.6-9.2-38.6-20.5c0-0.3,0-0.8,0-0.8
					v-5.8H405z"/>
				<path class="st1" d="M366.4,267.9c21.3,0,38.6,9.2,38.6,20.5c0,11.3-17.3,20.5-38.6,20.5c-21.3,0-38.6-9.2-38.6-20.5
					C327.8,277.1,345.1,267.9,366.4,267.9z"/>
				<path class="st30" d="M403,284.2h-0.7c-3.4-8.9-18.2-15.5-35.9-15.5c-17.7,0-32.4,6.7-35.9,15.5h-0.8v4
					c0,10.8,16.4,19.5,36.6,19.5c19.8,0,35.9-8.3,36.6-18.7L403,284.2z"/>
				<path class="st31" d="M366.4,265.4c20.2,0,36.6,8.7,36.6,19.5c0,10.8-16.4,19.5-36.6,19.5c-20.2,0-36.6-8.7-36.6-19.5
					C329.8,274.1,346.2,265.4,366.4,265.4z"/>
				<g>
					<path class="st1" d="M362,342.3c-8,0.4-15.2,2.2-20.8,5v4.8c5.3-3,12.6-5.1,20.8-5.5V342.3z"/>
					<path class="st1" d="M370.4,342.3v4.3c8,0.6,15.7,2.9,20.7,6v-4.9C385.7,344.9,378.2,342.9,370.4,342.3z"/>
					<path class="st1" d="M399.7,353.8v9.7l0,0c-0.6,8.7-16.4,15.9-33.8,15.9c-17.8,0-33.2-9-33.2-17.1v-8.8c-2.5,2.8-3.9,6-3.9,9.4
						c0,11.6,16.3,20.8,37.2,20.8c20.8,0,37.8-7.8,37.8-20.8C403.7,359.8,402.2,356.6,399.7,353.8z"/>
				</g>
			</g>
		</g>
	</g>
</g>
</svg>
