<?xml version="1.0" encoding="utf-8"?>
<!-- Generator: Adobe Illustrator 24.1.0, SVG Export Plug-In . SVG Version: 6.00 Build 0)  -->
<svg version="1.1" id="Layer_1" xmlns="http://www.w3.org/2000/svg" xmlns:xlink="http://www.w3.org/1999/xlink" x="0px" y="0px"
	 viewBox="0 0 22.8 24.2" style="enable-background:new 0 0 22.8 24.2;" xml:space="preserve">
<style type="text/css">
	.st0{fill:#FFFFFF;}
</style>
<g id="XMLID_271_">
	<g>
		<path class="st0" d="M20.9,13c0.2,0,0.4,0.1,0.5,0.3c0,0.2-0.1,0.4-0.3,0.5l-0.3,0.1c0-0.1,0.1-0.1,0.2-0.2L4.4,16.4
			c0,0.1,0,0.2,0.1,0.4l-0.3,0.1c-0.2,0-0.4-0.1-0.5-0.3c0-0.2,0.1-0.4,0.3-0.5L20.9,13z"/>
		<path class="st0" d="M4.4,16.4l16.5-2.6c-0.1,0.1-0.1,0.1-0.2,0.2L4.4,16.8C4.4,16.6,4.4,16.4,4.4,16.4z"/>
		<path class="st0" d="M4.4,16.8l16.3-2.9c-1.5,1.8-0.3,2.5-1.3,4.8c-0.7,1.7-1.9,2.5-3.2,3.2c-1.1,0.6-3.2,0.9-5.2,0.8
			c-2-0.1-3.5-0.5-5-1.9C4.9,19.7,4.5,17.7,4.4,16.8z M19,16.8c0-0.2-0.5-0.4-0.9-0.3c-0.5,0.1-0.8,0.3-0.8,0.6
			c0,0.2,0.5,0.4,0.9,0.3C18.7,17.3,19,17,19,16.8z M16.7,19c0-0.2-0.5-0.3-1-0.2c-0.5,0.1-0.9,0.3-0.9,0.5c0,0.2,0.5,0.3,1,0.2
			C16.4,19.4,16.7,19.2,16.7,19z M15.3,16.7c0-0.2-0.6-0.2-1.4-0.1c-0.7,0.1-1.3,0.4-1.3,0.6c0,0.2,0.6,0.2,1.4,0.1
			C14.7,17.1,15.3,16.9,15.3,16.7z M11.4,18.9c0-0.2-0.4-0.3-0.9-0.2c-0.4,0.1-0.8,0.3-0.7,0.5c0,0.2,0.4,0.3,0.9,0.2
			C11.1,19.3,11.5,19.1,11.4,18.9z M8.6,17.4C8.5,17,7.9,16.9,7.2,17S5.9,17.5,6,17.8c0.1,0.3,0.7,0.5,1.4,0.3
			C8.1,18,8.7,17.7,8.6,17.4z"/>
		<path class="st0" d="M19,11.2c0.2,0.4,0.2,0.9-0.1,1.2L6.2,14.6l5.3-4.8c0.2,0.4,1.1,0.3,1.4-0.1c0.3-0.5-0.2-1.1,0.9-1.5
			c1-0.4,0.8,0.6,1.4,0.5c0.6-0.1,0.1-1.3,1.7-1c1,0.1,0.2,1.5,0.7,1.5c0.5-0.1,1-0.2,1,0.4c0,0.8-0.8,1.1-0.4,1.2
			C18.5,10.8,18.7,10.6,19,11.2z"/>
		<path class="st0" d="M16.8,2.9c0.1,0.2,0.1,0.4,0,0.6l-5.8,5.4c-0.1,0-0.2,0-0.2,0c-0.2,0.1-0.4,0.1-0.6,0.1l6-5.7
			c-0.1,0-0.2,0-0.3,0.1l0.4-0.4C16.4,2.7,16.6,2.7,16.8,2.9z"/>
		<path class="st0" d="M16.1,3.2l-6,5.7c-0.1,0-0.2-0.1-0.3-0.1l6-5.5C15.9,3.2,16,3.2,16.1,3.2z"/>
		<path class="st0" d="M15.8,3.2l-6,5.5c0,0,0,0,0,0c-0.2-0.1-0.5-0.3-1-0.2C8.2,8.7,8.1,9,8.1,9.1c0,0.1-0.1,0.4-0.6,0.6
			C7,9.8,6.8,9.4,6.3,10.1c-0.2-0.1-0.6,0.1-1,0.5c-0.4,0.4-0.7,0.9-0.5,1.1c0.2,0.2,0.7,0,1.1-0.4c0,0,0,0,0.1-0.1
			c0,0.2,0.1,0.4,0.1,0.4c-0.3,0-0.9,0.1-1,0.5c-0.2,0.3-0.2,0.9,0,1.1l-1.2,1.1c-0.6-0.6-1.8-2-2.2-3.5c-0.5-1.8,0.1-4.1,0.5-5
			c0.6-1.4,2.9-3.6,5.4-4.1c1.7-0.3,2.2-0.4,3.9,0.2C12.6,2.3,14.3,3.5,15.8,3.2z M13.2,5c0.7-0.6,1-1.4,0.7-1.6s-1,0-1.7,0.6
			c-0.7,0.6-1,1.4-0.7,1.6C11.7,5.9,12.5,5.7,13.2,5z M9.4,3.7c0.4-0.4,0.7-0.8,0.6-0.9S9.5,2.9,9.1,3.3C8.7,3.7,8.4,4.1,8.5,4.2
			C8.6,4.3,9,4,9.4,3.7z M9.1,6.4C9.7,5.8,10,5.3,9.8,5C9.6,4.8,9,5.1,8.4,5.6C7.8,6.1,7.5,6.7,7.7,6.9C7.9,7.1,8.5,6.9,9.1,6.4z
			 M5.5,8.9c0.3-0.2,0.4-0.5,0.3-0.6c-0.1-0.1-0.4,0-0.6,0.2C4.9,8.8,4.8,9.1,4.9,9.2C5,9.3,5.3,9.2,5.5,8.9z"/>
		<polygon class="st0" points="10.9,8.8 5.4,13.9 5.4,13.9 10.9,8.8 		"/>
		<path class="st0" d="M10.9,8.8l-5.5,5c0-0.1-0.1-0.3-0.2-0.4l4.8-4.6c0.2,0,0.4,0,0.6-0.1C10.7,8.8,10.8,8.8,10.9,8.8z"/>
		<path class="st0" d="M10.1,8.9l-4.8,4.6c-0.1-0.1-0.1-0.2-0.2-0.2c0,0,0,0,0-0.1l4.8-4.4C9.8,8.8,9.9,8.9,10.1,8.9z"/>
		<path class="st0" d="M9.8,8.8L5,13.1c-0.1-0.2-0.1-0.7,0-1.1c0.2-0.4,0.7-0.5,1-0.5c0,0-0.1-0.1-0.1-0.4c0.4-0.4,0.6-0.8,0.4-1
			c0,0-0.1,0-0.1-0.1C6.8,9.4,7,9.8,7.5,9.6C8,9.5,8.1,9.2,8.1,9.1c0-0.1,0.1-0.3,0.6-0.5C9.3,8.4,9.6,8.7,9.8,8.8
			C9.8,8.8,9.8,8.8,9.8,8.8z"/>
		<path class="st0" d="M5.4,13.9l-1.4,1.3c-0.2,0.1-0.4,0.1-0.6,0c-0.1-0.2-0.1-0.4,0-0.6l0.3-0.3c0.1,0.1,0.2,0.2,0.3,0.3l1.2-1.1
			C5.3,13.6,5.4,13.7,5.4,13.9z"/>
		<path class="st0" d="M5.3,13.4l-1.2,1.1c-0.1-0.1-0.2-0.2-0.3-0.3L5,13.1c0,0,0,0,0,0.1C5.1,13.3,5.2,13.3,5.3,13.4z"/>
	</g>
	<g>
	</g>
</g>
</svg>
