<?xml version="1.0" encoding="utf-8"?>
<!-- Generator: Adobe Illustrator 21.1.0, SVG Export Plug-In . SVG Version: 6.00 Build 0)  -->
<svg version="1.1" id="Layer_1" xmlns="http://www.w3.org/2000/svg" xmlns:xlink="http://www.w3.org/1999/xlink" x="0px" y="0px"
	 viewBox="0 0 429.5 429.5" style="enable-background:new 0 0 429.5 429.5;" xml:space="preserve">
<style type="text/css">
	.st0{fill:#CCCCCC;}
	.st1{fill:#AFBBC9;}
	.st2{fill:url(#SVGID_1_);}
	.st3{fill:#004A80;}
	.st4{fill:url(#SVGID_2_);}
	.st5{fill:url(#SVGID_3_);}
	.st6{fill:url(#SVGID_4_);}
	.st7{fill:url(#SVGID_5_);}
	.st8{fill:url(#SVGID_6_);}
	.st9{fill:#FFFFFF;}
	.st10{fill:url(#SVGID_7_);}
	.st11{fill:#231F20;}
</style>
<g>
	
		<rect x="62.8" y="63.5" transform="matrix(0.7071 0.7071 -0.7071 0.7071 214.905 -88.5872)" class="st0" width="303.2" height="303.2"/>
	
		<rect x="63.5" y="62.8" transform="matrix(0.7071 0.7071 -0.7071 0.7071 214.6014 -89.3202)" class="st1" width="303.2" height="303.2"/>
	<linearGradient id="SVGID_1_" gradientUnits="userSpaceOnUse" x1="214.3867" y1="13.5152" x2="214.3867" y2="416.7241">
		<stop  offset="0" style="stop-color:#0281B4"/>
		<stop  offset="1" style="stop-color:#0053B5"/>
	</linearGradient>
	<polygon class="st2" points="214.4,416.7 12.8,215.1 214.4,13.5 416,215.1 	"/>
	<g>
		<polygon class="st3" points="214.8,215.1 155.8,72.9 72.2,156.6 		"/>
		<linearGradient id="SVGID_2_" gradientUnits="userSpaceOnUse" x1="267.7023" y1="184.5878" x2="180.5923" y2="33.7089">
			<stop  offset="0" style="stop-color:#0281B4"/>
			<stop  offset="1" style="stop-color:#004A80"/>
		</linearGradient>
		<polygon class="st4" points="214.8,13.9 155.5,73.3 214.8,215.1 273.7,72.8 		"/>
		<polygon class="st3" points="273.3,72.5 214.8,215.1 357,156.1 		"/>
		<linearGradient id="SVGID_3_" gradientUnits="userSpaceOnUse" x1="351.3226" y1="277.3302" x2="290.2589" y2="171.5647">
			<stop  offset="0" style="stop-color:#0281B4"/>
			<stop  offset="1" style="stop-color:#004A80"/>
		</linearGradient>
		<polygon class="st5" points="356.7,155.8 214.8,215.1 357.1,274 416,215.1 		"/>
		<polygon class="st3" points="214.8,215.1 273.8,357.3 357.5,273.6 		"/>
		<linearGradient id="SVGID_4_" gradientUnits="userSpaceOnUse" x1="255.2885" y1="407.3418" x2="181.9904" y2="280.3859">
			<stop  offset="0" style="stop-color:#0281B4"/>
			<stop  offset="1" style="stop-color:#004A80"/>
		</linearGradient>
		<polygon class="st6" points="214.8,416.3 274.1,357 214.8,215.1 156,357.4 		"/>
		<polygon class="st3" points="156.3,357.8 214.8,215.1 72.6,274.1 		"/>
		<linearGradient id="SVGID_5_" gradientUnits="userSpaceOnUse" x1="140.7712" y1="261.0842" x2="80.0576" y2="155.9251">
			<stop  offset="0" style="stop-color:#0281B4"/>
			<stop  offset="1" style="stop-color:#004A80"/>
		</linearGradient>
		<polygon class="st7" points="73,274.4 214.8,215.1 72.5,156.3 13.6,215.1 		"/>
	</g>
	<polygon class="st1" points="227.6,408.8 215.1,417.8 201.2,408.8 201.2,166.1 227.6,166.1 	"/>
	<g>
		<linearGradient id="SVGID_6_" gradientUnits="userSpaceOnUse" x1="263.0005" y1="49.1131" x2="263.0005" y2="260.1254">
			<stop  offset="0" style="stop-color:#EF3745"/>
			<stop  offset="1" style="stop-color:#8A1129"/>
		</linearGradient>
		<polygon class="st8" points="406,154.6 319,49.1 319,92.3 120,111.7 120,200.7 319,217 319,260.1 		"/>
		<g>
			<path class="st9" d="M146.5,162.2l-10.5-39.5l10.8-0.8l4.8,24.6l0.1,0l5.1-25.4l11.5-0.9l-11.6,42.2v26.8l-10.2-0.8V162.2z"/>
			<path class="st9" d="M185.6,192.9c-15.2-1.2-17.1-15.5-17.1-37.7c0-22.2,2-36.5,17.1-37.7c17.5-1.4,18.5,16.8,18.5,37.7
				C204.1,176.1,203.1,194.3,185.6,192.9z M185.5,181.5c4.9,0.3,5.6-6.2,5.6-26.3c0-20.2-0.7-26.6-5.6-26.3
				c-4.6,0.3-5.3,6.6-5.3,26.3C180.2,174.8,180.9,181.2,185.5,181.5z"/>
			<path class="st9" d="M250.3,169.2c0,16.2-3.7,28.7-20.8,27.3c-16-1.3-19.2-13.3-19.2-28.3v-51.2l13.6-1.1v58
				c0,6.2,1.8,9.9,5.6,10.1c3.9,0.2,5.8-3.4,5.8-9.7V115l15-1.2V169.2z"/>
			<path class="st9" d="M259.2,113.1l28.3-2.2c15.5-1.2,21,9.7,21,22.3c0,13.4-4.7,20-13.3,22.4v0.3c11.8,1.9,12.5,10.5,12.7,22.9
				c0.3,18.1,0.9,20,3.6,21.5v1.2l-20.1-1.6c-1.4-3.1-1.9-8.1-1.9-18.2c0-15.4-1.8-18.7-7.3-18.8l-6.6-0.1v35.8l-16.5-1.3V113.1z
				 M275.7,148.4l5.3-0.1c7.1-0.1,9-6.5,9-11.7c0-6.7-2.1-11.1-9.1-10.7l-5.2,0.3V148.4z"/>
		</g>
		
			<linearGradient id="SVGID_7_" gradientUnits="userSpaceOnUse" x1="396.0113" y1="167.4757" x2="396.0113" y2="378.488" gradientTransform="matrix(-1 0 0 1 561.7841 0)">
			<stop  offset="0" style="stop-color:#D9D9D9"/>
			<stop  offset="0.9946" style="stop-color:#A6A6A6"/>
		</linearGradient>
		<polygon class="st10" points="22.8,273 109.8,167.5 109.8,210.6 308.7,230 308.7,319.1 109.8,335.3 109.8,378.5 		"/>
		<g>
			<path class="st11" d="M132.3,246.4l-16.5-0.7v-17.3l48.9,3.4v16l-14.9-0.6v69.6l-17.5,1.2V246.4z"/>
			<path class="st11" d="M211.1,287c0,15.2-3.3,27.4-20.1,28.6c-17.8,1.2-21.6-11.3-21.6-27.7v-55.8l15.6,1.1v59.9c0,6.4,2,10,6,9.8
				c4-0.2,5.9-4,5.9-10.2V234l14.2,1V287z"/>
			<path class="st11" d="M218.8,235.6l21.8,1.5c10.4,0.7,13.9,9.8,13.9,19.6c0,10.4-3,15.5-8.6,17.5v0.2c7.7,1.5,8.1,8.2,8.2,17.9
				c0.2,14.2,0.6,15.5,2.2,16.4v0.9l-13,0.9c-1-2.4-1.3-6.5-1.3-14.8c0-12.7-1.3-15.4-5.2-15.4l-4.9,0.1v30.9l-13.2,0.9V235.6z
				 M232,268l4,0c5.1,0.1,6.4-5.2,6.4-9.5c0-5.5-1.5-9.3-6.5-9.5l-3.9-0.2V268z"/>
			<path class="st11" d="M261.4,238.5l12.9,0.9l8.8,44.6l0.1,0v-44l9.6,0.7v66.4l-11.8,0.8l-9.5-47.1l-0.1,0v47.8l-10.1,0.7V238.5z"
				/>
		</g>
	</g>
</g>
</svg>
