<?xml version="1.0" encoding="utf-8"?>
<!-- Generator: Adobe Illustrator 27.4.1, SVG Export Plug-In . SVG Version: 6.00 Build 0)  -->
<svg version="1.1" id="Layer_1" xmlns:serif="http://www.serif.com/" xmlns="http://www.w3.org/2000/svg" xmlns:xlink="http://www.w3.org/1999/xlink" x="0px" y="0px" viewBox="0 0 864 437.8" style="enable-background:new 0 0 864 437.8;" xml:space="preserve">
<style type="text/css">
	.st0{fill-rule:evenodd;clip-rule:evenodd;fill:#EBEBEB;}
	.st1{fill-rule:evenodd;clip-rule:evenodd;fill:#FFFFFF;}
	.st2{fill-rule:evenodd;clip-rule:evenodd;fill:#3D6680;}
</style>
<rect class="st0" width="864" height="437.8"/>
<path class="st1" d="M455.4,214.3L455.4,214.3c0-0.6,0.3-1.2,0.9-1.5c0,0,0,0,0,0l80.3-47.4c0.1,0,0.1-0.1,0.2-0.1V72.1
	c-0.1-0.2-0.1-0.4-0.1-0.6c0-0.6,0.3-1.2,0.9-1.5l80.3-47.4c0.5-0.3,1.2-0.3,1.7,0l85.1,49.1c0.5,0.3,0.9,0.9,0.9,1.5v51l80.5,46.5
	l0,0c0.5,0.3,0.9,0.9,0.9,1.5v100.9c0,0.6-0.3,1.2-0.9,1.5L705.2,321c-0.3,0.4-0.7,0.6-1.2,0.7l-80.7,46.6l0,0l-81.3,46.8l0,0
	c-0.5,0.3-1.2,0.3-1.7,0l-84.1-48.5c-0.5-0.3-0.9-0.9-0.9-1.5L455.4,214.3L455.4,214.3z"/>
<g>
	<path class="st2" d="M703,126.7c-0.8-0.5-1.1-1.5-0.6-2.4c0.5-0.8,1.5-1.1,2.4-0.6l81.2,46.9c0.5,0.3,0.9,0.9,0.9,1.5
		c0,0.6-0.3,1.2-0.9,1.5l-81.2,46.8c-0.8,0.5-1.9,0.2-2.4-0.6c-0.5-0.8-0.2-1.9,0.6-2.4l78.6-45.3L703,126.7L703,126.7z"/>
	<path class="st2" d="M624.2,366.8c0,1-0.8,1.7-1.7,1.7c-1,0-1.7-0.8-1.7-1.7v-93.8v0l0.1-57v-95l-80.6-46.5v93c0,1-0.8,1.7-1.7,1.7
		s-1.7-0.8-1.7-1.7v-96c0-0.6,0.3-1.2,0.9-1.5c0.5-0.3,1.2-0.3,1.7,0l84.1,48.5c0.5,0.3,0.9,0.9,0.9,1.5v96v0l-0.1,57V366.8z"/>
	<path class="st2" d="M621.6,121.6L537.5,73c-0.5-0.3-0.9-0.9-0.9-1.5s0.3-1.2,0.9-1.5l80.3-47.4c0.5-0.3,1.2-0.3,1.7,0l85.1,49.1
		c0.5,0.3,0.9,0.9,0.9,1.5c0,0.6-0.3,1.2-0.9,1.5l-81.2,46.9C622.8,121.9,622.2,121.9,621.6,121.6L621.6,121.6z M622.5,118
		l77.8-44.9l-81.6-47.1l-76.9,45.4L622.5,118L622.5,118z"/>
	<path class="st2" d="M540.4,415.1l-84.1-48.5c-0.5-0.3-0.9-0.9-0.9-1.5V214.2c0-0.6,0.3-1.2,0.9-1.5c0.5-0.3,1.2-0.3,1.7,0
		l84.1,48.6c0.5,0.3,0.9,0.9,0.9,1.5v150.8c0,0.6-0.3,1.2-0.9,1.5C541.6,415.5,540.9,415.5,540.4,415.1L540.4,415.1z M539.5,410.6
		c0-20.1,0-134.8,0-146.8l-80.6-46.6v146.9L539.5,410.6L539.5,410.6z"/>
	<path class="st2" d="M540.4,264.4l-84.1-48.6c-0.5-0.3-0.9-0.9-0.9-1.5c0-0.6,0.3-1.2,0.9-1.5l80.3-47.4c0.5-0.3,1.2-0.3,1.7,0
		l85.1,49.1c0.5,0.3,0.9,0.9,0.9,1.5c0,0.6-0.3,1.2-0.9,1.5l-81.3,46.9C541.6,264.7,540.9,264.7,540.4,264.4L540.4,264.4z
		 M541.2,260.9L619,216l-81.6-47.1l-76.9,45.3L541.2,260.9z"/>
	<path class="st2" d="M705.5,73.2v142.8l78.7-45.3c0.5-0.3,1.2-0.3,1.7,0c0.5,0.3,0.9,0.9,0.9,1.5v100.9c0,0.6-0.3,1.2-0.9,1.5
		l-81.3,46.8l-81.2,46.9l0,0l-81.3,46.8c-0.5,0.3-1.2,0.3-1.7,0c-0.5-0.3-0.9-0.9-0.9-1.5V262.9c0-0.6,0.3-1.2,0.9-1.5l80.4-46.4
		v-94.9c0-0.6,0.3-1.2,0.9-1.5l81.2-46.9c0.5-0.3,1.2-0.3,1.7,0C705.2,72,705.5,72.6,705.5,73.2L705.5,73.2z M702,76.2l-77.8,44.9
		V216c0,0.6-0.3,1.2-0.9,1.5L543,263.9v146.8l78.7-45.3l81.2-46.9l0,0l80.5-46.3v-96.9l-78.7,45.3c-0.5,0.3-1.2,0.3-1.7,0
		s-0.9-0.9-0.9-1.5V76.2L702,76.2z"/>
	<path class="st2" d="M705.6,320c0,1-0.8,1.7-1.7,1.7c-1,0-1.7-0.8-1.7-1.7v-101c0-1,0.8-1.7,1.7-1.7c1,0,1.7,0.8,1.7,1.7V320z"/>
	<path class="st2" d="M734,236c-0.8,0.5-1.9,0.2-2.4-0.6c-0.5-0.8-0.2-1.9,0.6-2.4l18.5-10.7c0.8-0.5,1.9-0.2,2.4,0.6
		c0.5,0.8,0.2,1.9-0.6,2.4L734,236z"/>
	<path class="st2" d="M752.5,225.3c-0.8,0.5-1.9,0.2-2.4-0.6s-0.2-1.9,0.6-2.4c2.2-1.3,4.2-1.2,5.7-0.4c1.4,0.8,2.5,2.6,2.5,5.1
		c0,1-0.8,1.7-1.7,1.7s-1.7-0.8-1.7-1.7c0-1-0.2-1.8-0.8-2.1C754.1,224.6,753.4,224.8,752.5,225.3z"/>
	<path class="st2" d="M755.5,227.1c0-1,0.8-1.7,1.7-1.7s1.7,0.8,1.7,1.7V255c0,1-0.8,1.7-1.7,1.7s-1.7-0.8-1.7-1.7V227.1z"/>
	<path class="st2" d="M755.5,255c0-1,0.8-1.7,1.7-1.7s1.7,0.8,1.7,1.7c0,4.1-2.9,9.2-6.5,11.2c-0.8,0.5-1.9,0.2-2.4-0.6
		c-0.5-0.8-0.2-1.9,0.6-2.4C753.4,261.7,755.5,258,755.5,255L755.5,255z"/>
	<path class="st2" d="M750.8,263.2c0.8-0.5,1.9-0.2,2.4,0.6s0.2,1.9-0.6,2.4L734,276.9c-0.8,0.5-1.9,0.2-2.4-0.6
		c-0.5-0.8-0.2-1.9,0.6-2.4L750.8,263.2z"/>
	<path class="st2" d="M734.4,256.3c-0.8,0.5-1.9,0.2-2.4-0.6c-0.5-0.8-0.2-1.9,0.6-2.4l23.7-13.7c0.8-0.5,1.9-0.2,2.4,0.6
		c0.5,0.8,0.2,1.9-0.6,2.4L734.4,256.3z"/>
	<path class="st2" d="M567.6,280.3c-0.8,0.5-1.9,0.2-2.4-0.6c-0.5-0.8-0.2-1.9,0.6-2.4l18.6-10.7c0.8-0.5,1.9-0.2,2.4,0.6
		s0.2,1.9-0.6,2.4L567.6,280.3z"/>
	<path class="st2" d="M586.2,269.6c-0.8,0.5-1.9,0.2-2.4-0.6c-0.5-0.8-0.2-1.9,0.6-2.4c2.2-1.3,4.2-1.2,5.7-0.4
		c1.5,0.8,2.5,2.6,2.5,5.1c0,1-0.8,1.7-1.7,1.7s-1.7-0.8-1.7-1.7c0-1-0.2-1.8-0.8-2.1C587.8,268.9,587.1,269.1,586.2,269.6
		L586.2,269.6z"/>
	<path class="st2" d="M589.2,271.4c0-1,0.8-1.7,1.7-1.7s1.7,0.8,1.7,1.7v7c0,1-0.8,1.7-1.7,1.7s-1.7-0.8-1.7-1.7V271.4z"/>
	<path class="st2" d="M589.2,278.3c0-1,0.8-1.7,1.7-1.7s1.7,0.8,1.7,1.7c0,4-2.9,9.1-6.4,11.1c-0.8,0.5-1.9,0.2-2.4-0.6
		c-0.5-0.8-0.2-1.9,0.6-2.4C587,285,589.2,281.3,589.2,278.3z"/>
	<path class="st2" d="M584.5,286.5c0.8-0.5,1.9-0.2,2.4,0.6c0.5,0.8,0.2,1.9-0.6,2.4l-13.6,7.8c-0.8,0.5-1.9,0.2-2.4-0.6
		c-0.5-0.8-0.2-1.9,0.6-2.4L584.5,286.5z"/>
	<path class="st2" d="M570.8,294.3c0.8-0.5,1.9-0.2,2.4,0.6c0.5,0.8,0.2,1.9-0.6,2.4c-2.6,1.5-4.7,5.2-4.7,8.2c0,1-0.8,1.7-1.7,1.7
		c-1,0-1.7-0.8-1.7-1.7C564.4,301.3,567.3,296.3,570.8,294.3L570.8,294.3z"/>
	<path class="st2" d="M564.4,305.5c0-1,0.8-1.7,1.7-1.7c1,0,1.7,0.8,1.7,1.7v8.2c0,1-0.8,1.7-1.7,1.7c-1,0-1.7-0.8-1.7-1.7V305.5z"/>
	<path class="st2" d="M564.4,313.7c0-1,0.8-1.7,1.7-1.7c1,0,1.7,0.8,1.7,1.7c0,1,0.2,1.8,0.8,2.1c0.6,0.3,1.3,0.1,2.2-0.4
		c0.8-0.5,1.9-0.2,2.4,0.6c0.5,0.8,0.2,1.9-0.6,2.4c-2.2,1.3-4.2,1.3-5.7,0.4C565.4,317.9,564.4,316.2,564.4,313.7L564.4,313.7z"/>
	<path class="st2" d="M572.6,318.4c-0.8,0.5-1.9,0.2-2.4-0.6c-0.5-0.8-0.2-1.9,0.6-2.4l19.5-11.3c0.8-0.5,1.9-0.2,2.4,0.6
		c0.5,0.8,0.2,1.9-0.6,2.4L572.6,318.4z"/>
	<path class="st2" d="M661,127.8c0-1,0.8-1.7,1.7-1.7c1,0,1.7,0.8,1.7,1.7v40.9c0,1-0.8,1.7-1.7,1.7c-1,0-1.7-0.8-1.7-1.7V127.8
		L661,127.8z"/>
	<path class="st2" d="M538,390.6c0.8-0.5,1.9-0.2,2.4,0.6c0.5,0.8,0.2,1.9-0.6,2.4l-15.3,8.8c-0.8,0.5-1.9,0.2-2.4-0.6
		c-0.5-0.8-0.2-1.9,0.6-2.4L538,390.6L538,390.6z"/>
	<path class="st2" d="M538.6,372c0.8-0.5,1.9-0.2,2.4,0.6c0.5,0.8,0.2,1.9-0.6,2.4l-32.1,18.5c-0.8,0.5-1.9,0.2-2.4-0.6
		c-0.5-0.8-0.2-1.9,0.6-2.4L538.6,372z"/>
	<path class="st2" d="M539.2,353.6c0.8-0.5,1.9-0.2,2.4,0.6c0.5,0.8,0.2,1.9-0.6,2.4L492,384.8c-0.8,0.5-1.9,0.2-2.4-0.6
		c-0.5-0.8-0.2-1.9,0.6-2.4L539.2,353.6z"/>
	<path class="st2" d="M539.7,335c0.8-0.5,1.9-0.2,2.4,0.6c0.5,0.8,0.2,1.9-0.6,2.4l-65.8,38c-0.8,0.5-1.9,0.2-2.4-0.6
		c-0.5-0.8-0.2-1.9,0.6-2.4L539.7,335z"/>
	<path class="st2" d="M540.2,316.5c0.8-0.5,1.9-0.2,2.4,0.6c0.5,0.8,0.2,1.9-0.6,2.4l-82.6,47.7c-0.8,0.5-1.9,0.2-2.4-0.6
		c-0.5-0.8-0.2-1.9,0.6-2.4L540.2,316.5L540.2,316.5z"/>
	<path class="st2" d="M540.3,298.3c0.8-0.5,1.9-0.2,2.4,0.6c0.5,0.8,0.2,1.9-0.6,2.4l-83.8,48.4c-0.8,0.5-1.9,0.2-2.4-0.6
		c-0.5-0.8-0.2-1.9,0.6-2.4L540.3,298.3z"/>
	<path class="st2" d="M540.3,280.2c0.8-0.5,1.9-0.2,2.4,0.6c0.5,0.8,0.2,1.9-0.6,2.4l-83.8,48.4c-0.8,0.5-1.9,0.2-2.4-0.6
		c-0.5-0.8-0.2-1.9,0.6-2.4L540.3,280.2z"/>
	<path class="st2" d="M540.3,262c0.8-0.5,1.9-0.2,2.4,0.6c0.5,0.8,0.2,1.9-0.6,2.4l-83.8,48.4c-0.8,0.5-1.9,0.2-2.4-0.6
		c-0.5-0.8-0.2-1.9,0.6-2.4L540.3,262z"/>
	<path class="st2" d="M524.4,252.9c0.8-0.5,1.9-0.2,2.4,0.6s0.2,1.9-0.6,2.4l-67.4,39c-0.8,0.5-1.9,0.2-2.4-0.6
		c-0.5-0.8-0.2-1.9,0.6-2.4L524.4,252.9L524.4,252.9z"/>
	<path class="st2" d="M508,244.2c0.8-0.5,1.9-0.2,2.4,0.6c0.5,0.8,0.2,1.9-0.6,2.4l-50.5,29.2c-0.8,0.5-1.9,0.2-2.4-0.6
		c-0.5-0.8-0.2-1.9,0.6-2.4L508,244.2L508,244.2z"/>
	<path class="st2" d="M491.8,235.4c0.8-0.5,1.9-0.2,2.4,0.6c0.5,0.8,0.2,1.9-0.6,2.4l-33.7,19.4c-0.8,0.5-1.9,0.2-2.4-0.6
		c-0.5-0.8-0.2-1.9,0.6-2.4L491.8,235.4z"/>
	<path class="st2" d="M475.5,226.6c0.8-0.5,1.9-0.2,2.4,0.6c0.5,0.8,0.2,1.9-0.6,2.4l-16.8,9.7c-0.8,0.5-1.9,0.2-2.4-0.6
		c-0.5-0.8-0.2-1.9,0.6-2.4L475.5,226.6z"/>
	<path class="st2" d="M479.2,222.4c0.5,0.8,0.2,1.9-0.6,2.4c-0.8,0.5-1.9,0.2-2.4-0.6l-7.9-13.5c-0.5-0.8-0.2-1.9,0.6-2.4
		c0.8-0.5,1.9-0.2,2.4,0.6L479.2,222.4z"/>
	<path class="st2" d="M534.7,255.5c0.5,0.8,0.2,1.9-0.6,2.4c-0.8,0.5-1.9,0.2-2.4-0.6l-37.2-64.4c-0.5-0.8-0.2-1.9,0.6-2.4
		c0.8-0.5,1.9-0.2,2.4,0.6L534.7,255.5z"/>
	<path class="st2" d="M566.8,248.1c0.5,0.8,0.2,1.9-0.6,2.4c-0.8,0.5-1.9,0.2-2.4-0.6l-42.3-73.3c-0.5-0.8-0.2-1.9,0.6-2.4
		c0.8-0.5,1.9-0.2,2.4,0.6L566.8,248.1z"/>
	<path class="st2" d="M593.6,231.5c0.5,0.8,0.2,1.9-0.6,2.4c-0.8,0.5-1.9,0.2-2.4-0.6L563.3,186c-0.5-0.8-0.2-1.9,0.6-2.4
		c0.8-0.5,1.9-0.2,2.4,0.6L593.6,231.5L593.6,231.5z"/>
	<path class="st2" d="M561.1,80c0.5,0.8,0.2,1.9-0.6,2.4c-0.8,0.5-1.9,0.2-2.4-0.6L550,67.5c-0.5-0.8-0.2-1.9,0.6-2.4
		c0.8-0.5,1.9-0.2,2.4,0.6L561.1,80z"/>
	<path class="st2" d="M616.6,113.1c0.5,0.8,0.2,1.9-0.6,2.4c-0.8,0.5-1.9,0.2-2.4-0.6l-37.4-65c-0.5-0.8-0.2-1.9,0.6-2.4
		c0.8-0.5,1.9-0.2,2.4,0.6L616.6,113.1z"/>
	<path class="st2" d="M648.5,105.1c0.5,0.8,0.2,1.9-0.6,2.4c-0.8,0.5-1.9,0.2-2.4-0.6l-42.3-73.3c-0.5-0.8-0.2-1.9,0.6-2.4
		c0.8-0.5,1.9-0.2,2.4,0.6L648.5,105.1L648.5,105.1z"/>
	<path class="st2" d="M675.3,88.5c0.5,0.8,0.2,1.9-0.6,2.4c-0.8,0.5-1.9,0.2-2.4-0.6l-27-46.8c-0.5-0.8-0.2-1.9,0.6-2.4
		c0.8-0.5,1.9-0.2,2.4,0.6L675.3,88.5z"/>
	<path class="st2" d="M733.3,200.7c0.5,0.8,0.2,1.9-0.6,2.4c-0.8,0.5-1.9,0.2-2.4-0.6l-25.9-44.8c-0.5-0.8-0.2-1.9,0.6-2.4
		c0.8-0.5,1.9-0.2,2.4,0.6L733.3,200.7L733.3,200.7z"/>
	<path class="st2" d="M760.5,184.8c0.5,0.8,0.2,1.9-0.6,2.4c-0.8,0.5-1.9,0.2-2.4-0.6l-22.6-39.1c-0.5-0.8-0.2-1.9,0.6-2.4
		c0.8-0.5,1.9-0.2,2.4,0.6L760.5,184.8L760.5,184.8z"/>
	<path class="st2" d="M619.3,191.7c0.8-0.5,1.9-0.2,2.4,0.6c0.5,0.8,0.2,1.9-0.6,2.4l-16.4,9.5c-0.8,0.5-1.9,0.2-2.4-0.6
		c-0.5-0.8-0.2-1.9,0.6-2.4L619.3,191.7z"/>
	<path class="st2" d="M619.9,173.2c0.8-0.5,1.9-0.2,2.4,0.6c0.5,0.8,0.2,1.9-0.6,2.4l-33.2,19.1c-0.8,0.5-1.9,0.2-2.4-0.6
		c-0.5-0.8-0.2-1.9,0.6-2.4L619.9,173.2L619.9,173.2z"/>
	<path class="st2" d="M620.5,154.7c0.8-0.5,1.9-0.2,2.4,0.6s0.2,1.9-0.6,2.4l-50.1,28.9c-0.8,0.5-1.9,0.2-2.4-0.6
		c-0.5-0.8-0.2-1.9,0.6-2.4L620.5,154.7L620.5,154.7z"/>
	<path class="st2" d="M621.1,136.2c0.8-0.5,1.9-0.2,2.4,0.6c0.5,0.8,0.2,1.9-0.6,2.4l-66.9,38.6c-0.8,0.5-1.9,0.2-2.4-0.6
		c-0.5-0.8-0.2-1.9,0.6-2.4L621.1,136.2L621.1,136.2z"/>
	<path class="st2" d="M620.6,118.2c0.8-0.5,1.9-0.2,2.4,0.6c0.5,0.8,0.2,1.9-0.6,2.4L539.6,169c-0.8,0.5-1.9,0.2-2.4-0.6
		c-0.5-0.8-0.2-1.9,0.6-2.4L620.6,118.2z"/>
	<path class="st2" d="M604.3,109.4c0.8-0.5,1.9-0.2,2.4,0.6c0.5,0.8,0.2,1.9-0.6,2.4l-65.9,38.1c-0.8,0.5-1.9,0.2-2.4-0.6
		c-0.5-0.8-0.2-1.9,0.6-2.4L604.3,109.4L604.3,109.4z"/>
	<path class="st2" d="M588,100.7c0.8-0.5,1.9-0.2,2.4,0.6c0.5,0.8,0.2,1.9-0.6,2.4l-49.1,28.4c-0.8,0.5-1.9,0.2-2.4-0.6
		c-0.5-0.8-0.2-1.9,0.6-2.4L588,100.7z"/>
	<path class="st2" d="M571.7,91.9c0.8-0.5,1.9-0.2,2.4,0.6c0.5,0.8,0.2,1.9-0.6,2.4l-32.2,18.6c-0.8,0.5-1.9,0.2-2.4-0.6
		c-0.5-0.8-0.2-1.9,0.6-2.4L571.7,91.9z"/>
	<path class="st2" d="M555.5,83.1c0.8-0.5,1.9-0.2,2.4,0.6s0.2,1.9-0.6,2.4L541.8,95c-0.8,0.5-1.9,0.2-2.4-0.6
		c-0.5-0.8-0.2-1.9,0.6-2.4C540,92,555.5,83.1,555.5,83.1z"/>
</g>
</svg>
