<?xml version="1.0" encoding="UTF-8" standalone="no"?><!DOCTYPE svg PUBLIC "-//W3C//DTD SVG 1.1//EN" "http://www.w3.org/Graphics/SVG/1.1/DTD/svg11.dtd"><svg width="100%" height="100%" viewBox="0 0 1120 1374" version="1.1" xmlns="http://www.w3.org/2000/svg" xmlns:xlink="http://www.w3.org/1999/xlink" xml:space="preserve" xmlns:serif="http://www.serif.com/" style="fill-rule:evenodd;clip-rule:evenodd;stroke-linejoin:round;stroke-miterlimit:2;"><path d="M704.726,1370.42l-69.439,-113.295l15.898,-9.27l0.052,0.091c8.503,-4.753 20.234,-4.063 33.281,3.242c26.341,14.74 47.995,50.781 48.347,80.495c0.182,14.245 -4.61,24.401 -12.513,29.531l0.038,0.052l-0.702,0.417l-0.573,0.351l-14.389,8.386Z" style="fill:#030404;fill-rule:nonzero;"/><path d="M647.643,1264.13l28.49,-16.771c2.721,0.99 5.52,2.213 8.385,3.828c26.341,14.74 47.995,50.781 48.347,80.495c0.078,5.469 -0.599,10.312 -1.888,14.518l-17.449,10.208c-4.075,-1.132 -8.333,-2.838 -12.734,-5.312c-4.883,-2.721 -9.583,-6.159 -14.088,-10.065l-36.459,-59.505c-1.484,-5.886 -2.395,-11.745 -2.604,-17.396Z" style="fill:#1e1f1f;fill-rule:nonzero;"/><path d="M622.682,1286.9c0.365,29.701 22.005,65.742 48.347,80.495c26.341,14.74 47.395,2.604 47.044,-27.109c-0.365,-29.714 -22.018,-65.743 -48.36,-80.495c-26.328,-14.74 -47.395,-2.604 -47.031,27.109Z" style="fill:#292a29;fill-rule:nonzero;"/><path d="M624.531,1287.93c0.339,28.555 21.159,63.203 46.471,77.383c25.326,14.179 45.573,2.513 45.222,-26.055c-0.352,-28.568 -21.159,-63.216 -46.484,-77.383c-25.313,-14.18 -45.561,-2.513 -45.209,26.055Z" style="fill:#1c1c1c;fill-rule:nonzero;"/><path d="M634.779,1293.67c0.273,22.174 16.432,49.076 36.08,60.078c19.662,11.003 35.378,1.953 35.117,-20.234c-0.273,-22.175 -16.432,-49.076 -36.093,-60.078c-19.662,-11.003 -35.378,-1.953 -35.104,20.234Z" style="fill:#3b3b3b;fill-rule:nonzero;"/><path d="M637.188,1295.01c0.26,20.677 15.312,45.755 33.645,56.016c18.321,10.26 32.982,1.81 32.722,-18.868c-0.248,-20.663 -15.313,-45.742 -33.633,-56.002c-18.334,-10.26 -32.982,-1.81 -32.734,18.854Z" style="fill:#f05052;fill-rule:nonzero;"/><path d="M670.352,1276.42c18.125,10.416 32.955,35.234 33.203,55.741c0.039,2.943 -0.261,5.612 -0.795,8.034l-23.88,14.18c-2.578,-0.716 -5.26,-1.797 -8.047,-3.346c-18.021,-10.091 -32.851,-34.492 -33.58,-54.961l33.099,-19.648Z" style="fill:#d12b27;fill-rule:nonzero;"/><path d="M688.568,1292.97c6.562,8.594 11.471,18.789 13.684,28.737l-39.622,23.528c-7.852,-6.614 -14.622,-15.715 -19.193,-25.481l45.131,-26.784Z" style="fill:#e9eae7;fill-rule:nonzero;"/><path d="M688.568,1292.97c6.562,8.594 11.471,18.789 13.684,28.737l-39.622,23.528c-7.852,-6.614 -14.622,-15.715 -19.193,-25.481l45.131,-26.784Z" style="fill:#f48273;fill-rule:nonzero;"/><path d="M643.373,1296.13c0.221,17.799 13.189,39.401 28.984,48.242c15.781,8.841 28.411,1.563 28.19,-16.237c-0.221,-17.825 -13.19,-39.414 -28.985,-48.255c-15.781,-8.841 -28.411,-1.562 -28.189,16.25Z" style="fill:#af1f23;fill-rule:nonzero;"/><path d="M643.373,1303.7c0.168,14.101 10.442,31.198 22.942,38.203c12.5,6.992 22.487,1.237 22.318,-12.864c-0.17,-14.102 -10.443,-31.198 -22.943,-38.19c-12.5,-7.006 -22.487,-1.25 -22.317,12.851Z" style="fill:#991b1e;fill-rule:nonzero;"/><path d="M683.112,1236.09l-8.49,94.648l18.073,-12.825l40.235,-55.026l-49.818,-26.797Z" style="fill:#c4c4c4;fill-rule:nonzero;"/><path d="M665.039,1248.92l-9.049,66.067l18.632,15.755l40.235,-55.026l-49.818,-26.796Z" style="fill:#828383;fill-rule:nonzero;"/><path d="M958.164,1223.75l-69.427,-113.281l15.885,-9.284l0.065,0.091c8.49,-4.752 20.235,-4.062 33.282,3.242c26.341,14.74 47.982,50.794 48.346,80.508c0.182,14.245 -4.609,24.401 -12.513,29.531l0.026,0.053l-0.703,0.416l-0.573,0.339l-14.388,8.385Z" style="fill:#030404;fill-rule:nonzero;"/><path d="M901.081,1117.46l28.489,-16.758c2.734,0.977 5.521,2.214 8.399,3.815c26.341,14.74 47.982,50.794 48.346,80.508c0.065,5.456 -0.612,10.313 -1.901,14.518l-17.448,10.209c-4.076,-1.146 -8.32,-2.839 -12.734,-5.313c-4.87,-2.734 -9.584,-6.159 -14.076,-10.065l-36.471,-59.518c-1.471,-5.885 -2.396,-11.732 -2.604,-17.396Z" style="fill:#1e1f1f;fill-rule:nonzero;"/><path d="M876.133,1140.23c0.351,29.714 22.005,65.756 48.346,80.495c26.341,14.753 47.396,2.617 47.031,-27.096c-0.364,-29.714 -22.005,-65.755 -48.346,-80.508c-26.341,-14.739 -47.396,-2.604 -47.031,27.109Z" style="fill:#292a29;fill-rule:nonzero;"/><path d="M877.969,1141.26c0.351,28.568 21.159,63.216 46.484,77.396c25.326,14.167 45.56,2.5 45.208,-26.055c-0.338,-28.567 -21.145,-63.216 -46.471,-77.396c-25.325,-14.179 -45.573,-2.512 -45.221,26.055Z" style="fill:#1c1c1c;fill-rule:nonzero;"/><path d="M888.216,1147.01c0.273,22.175 16.432,49.076 36.094,60.092c19.661,11.002 35.378,1.94 35.104,-20.235c-0.274,-22.187 -16.419,-49.088 -36.081,-60.091c-19.661,-11.003 -35.377,-1.953 -35.117,20.234Z" style="fill:#3b3b3b;fill-rule:nonzero;"/><path d="M890.638,1148.36c0.247,20.665 15.312,45.743 33.633,56.003c18.333,10.261 32.982,1.823 32.734,-18.854c-0.26,-20.677 -15.312,-45.755 -33.646,-56.015c-18.32,-10.261 -32.982,-1.81 -32.721,18.866Z" style="fill:#c92026;fill-rule:nonzero;"/><path d="M923.789,1129.75c18.125,10.416 32.969,35.247 33.216,55.755c0.026,2.943 -0.26,5.599 -0.794,8.034l-23.893,14.18c-2.565,-0.717 -5.261,-1.797 -8.047,-3.36c-18.021,-10.078 -32.839,-34.492 -33.581,-54.948l33.099,-19.661Z" style="fill:#f26452;fill-rule:nonzero;"/><path d="M942.018,1146.3c6.55,8.594 11.472,18.802 13.685,28.75l-39.635,23.529c-7.839,-6.615 -14.61,-15.716 -19.193,-25.482l45.143,-26.797Z" style="fill:#e9eae7;fill-rule:nonzero;"/><path d="M942.018,1146.3c6.55,8.594 11.472,18.802 13.685,28.75l-39.635,23.529c-7.839,-6.615 -14.61,-15.716 -19.193,-25.482l45.143,-26.797Z" style="fill:#f48273;fill-rule:nonzero;"/><path d="M896.81,1149.47c0.221,17.813 13.203,39.414 28.984,48.256c15.794,8.841 28.412,1.562 28.203,-16.251c-0.221,-17.812 -13.203,-39.413 -28.984,-48.255c-15.794,-8.841 -28.411,-1.562 -28.203,16.25Z" style="fill:#af1f23;fill-rule:nonzero;"/><path d="M896.81,1157.05c0.182,14.088 10.443,31.197 22.943,38.189c12.499,7.006 22.499,1.251 22.317,-12.851c-0.169,-14.102 -10.443,-31.211 -22.943,-38.203c-12.486,-7.005 -22.486,-1.237 -22.317,12.865Z" style="fill:#991b1e;fill-rule:nonzero;"/><path d="M539.128,936.172l-69.428,-113.294l15.886,-9.284l0.065,0.104c8.489,-4.753 20.234,-4.062 33.281,3.242c26.341,14.74 47.982,50.782 48.346,80.495c0.183,14.258 -4.609,24.401 -12.513,29.544l0.027,0.052l-0.691,0.404l-0.573,0.351l-14.4,8.386Z" style="fill:#030404;fill-rule:nonzero;"/><path d="M482.057,829.87l28.477,-16.758c2.734,0.99 5.521,2.214 8.398,3.828c26.341,14.74 47.982,50.782 48.346,80.495c0.066,5.469 -0.611,10.312 -1.901,14.531l-17.434,10.196c-4.089,-1.133 -8.334,-2.839 -12.748,-5.3c-4.869,-2.734 -9.583,-6.172 -14.075,-10.078l-36.471,-59.505c-1.472,-5.886 -2.397,-11.745 -2.592,-17.409Z" style="fill:#1e1f1f;fill-rule:nonzero;"/><path d="M457.096,852.656c0.365,29.714 22.005,65.755 48.347,80.495c26.341,14.753 47.396,2.604 47.031,-27.109c-0.365,-29.714 -22.005,-65.756 -48.346,-80.495c-26.342,-14.753 -47.396,-2.617 -47.032,27.109Z" style="fill:#292a29;fill-rule:nonzero;"/><path d="M458.932,853.685c0.352,28.568 21.159,63.216 46.485,77.383c25.325,14.179 45.56,2.513 45.221,-26.055c-0.352,-28.568 -21.159,-63.216 -46.484,-77.383c-25.326,-14.179 -45.56,-2.513 -45.222,26.055Z" style="fill:#1c1c1c;fill-rule:nonzero;"/><path d="M469.193,859.414c0.26,22.188 16.419,49.089 36.08,60.091c19.662,11.016 35.378,1.953 35.105,-20.234c-0.261,-22.174 -16.42,-49.076 -36.081,-60.078c-19.662,-11.016 -35.378,-1.953 -35.104,20.221Z" style="fill:#3b3b3b;fill-rule:nonzero;"/><path d="M471.601,860.769c0.248,20.676 15.313,45.754 33.633,56.015c18.334,10.261 32.982,1.823 32.735,-18.854c-0.248,-20.677 -15.313,-45.755 -33.646,-56.016c-18.321,-10.26 -32.969,-1.823 -32.722,18.855Z" style="fill:#f05052;fill-rule:nonzero;"/><path d="M504.752,842.175c18.138,10.403 32.969,35.234 33.217,55.755c0.039,2.929 -0.261,5.599 -0.794,8.02l-23.881,14.194c-2.578,-0.73 -5.273,-1.797 -8.06,-3.36c-18.007,-10.091 -32.838,-34.492 -33.58,-54.961l33.098,-19.648Z" style="fill:#d12b27;fill-rule:nonzero;"/><path d="M522.982,858.724c6.549,8.594 11.471,18.802 13.685,28.75l-39.636,23.529c-7.838,-6.628 -14.609,-15.717 -19.192,-25.482l45.143,-26.797Z" style="fill:#e9eae7;fill-rule:nonzero;"/><path d="M522.982,858.724c6.549,8.594 11.471,18.802 13.685,28.75l-39.636,23.529c-7.838,-6.628 -14.609,-15.717 -19.192,-25.482l45.143,-26.797Z" style="fill:#fec022;fill-rule:nonzero;"/><path d="M477.786,861.875c0.209,17.812 13.191,39.427 28.972,48.255c15.794,8.841 28.411,1.576 28.203,-16.237c-0.222,-17.812 -13.203,-39.427 -28.984,-48.255c-15.795,-8.841 -28.412,-1.575 -28.191,16.237Z" style="fill:#af1f23;fill-rule:nonzero;"/><path d="M477.786,869.453c0.17,14.102 10.443,31.211 22.93,38.203c12.513,7.005 22.5,1.237 22.331,-12.864c-0.182,-14.102 -10.443,-31.198 -22.943,-38.203c-12.5,-6.992 -22.5,-1.237 -22.318,12.864Z" style="fill:#d92e27;fill-rule:nonzero;"/><path d="M205.169,1126.43l-69.427,-113.294l15.885,-9.271l0.066,0.091c8.489,-4.752 20.234,-4.062 33.281,3.242c26.341,14.74 47.982,50.782 48.346,80.495c0.17,14.258 -4.609,24.414 -12.513,29.545l0.026,0.052l-0.69,0.416l-0.586,0.339l-14.388,8.385Z" style="fill:#030404;fill-rule:nonzero;"/><path d="M148.099,1020.14l28.477,-16.77c2.734,0.989 5.52,2.213 8.398,3.827c26.341,14.74 47.982,50.782 48.346,80.495c0.065,5.469 -0.612,10.326 -1.901,14.532l-17.448,10.208c-4.075,-1.146 -8.32,-2.852 -12.734,-5.312c-4.87,-2.735 -9.583,-6.159 -14.076,-10.078l-36.471,-59.506c-1.471,-5.885 -2.396,-11.732 -2.591,-17.396Z" style="fill:#1e1f1f;fill-rule:nonzero;"/><path d="M123.138,1042.92c0.364,29.713 22.005,65.755 48.346,80.495c26.341,14.752 47.396,2.617 47.031,-27.097c-0.364,-29.713 -22.004,-65.755 -48.346,-80.508c-26.341,-14.739 -47.396,-2.604 -47.031,27.11Z" style="fill:#292a29;fill-rule:nonzero;"/><path d="M124.974,1043.95c0.352,28.567 21.159,63.215 46.484,77.382c25.313,14.18 45.56,2.513 45.222,-26.055c-0.352,-28.554 -21.159,-63.203 -46.485,-77.382c-25.325,-14.18 -45.56,-2.513 -45.221,26.055Z" style="fill:#1c1c1c;fill-rule:nonzero;"/><path d="M135.221,1049.69c0.274,22.175 16.433,49.076 36.094,60.079c19.661,11.016 35.378,1.953 35.104,-20.222c-0.26,-22.187 -16.419,-49.088 -36.08,-60.091c-19.662,-11.002 -35.378,-1.953 -35.118,20.234Z" style="fill:#3b3b3b;fill-rule:nonzero;"/><path d="M137.643,1051.04c0.248,20.664 15.313,45.742 33.633,56.002c18.333,10.261 32.982,1.823 32.734,-18.854c-0.26,-20.677 -15.312,-45.755 -33.646,-56.016c-18.32,-10.26 -32.981,-1.809 -32.721,18.868Z" style="fill:#c92026;fill-rule:nonzero;"/><path d="M170.794,1032.43c18.125,10.417 32.969,35.248 33.216,55.755c0.039,2.943 -0.26,5.599 -0.794,8.034l-23.893,14.18c-2.565,-0.717 -5.261,-1.797 -8.047,-3.36c-18.008,-10.091 -32.839,-34.492 -33.581,-54.96l33.099,-19.649Z" style="fill:#f26452;fill-rule:nonzero;"/><path d="M189.023,1048.99c6.55,8.593 11.472,18.802 13.685,28.75l-39.635,23.528c-7.839,-6.615 -14.609,-15.716 -19.193,-25.481l45.143,-26.797Z" style="fill:#e9eae7;fill-rule:nonzero;"/><path d="M189.023,1048.99c6.55,8.593 11.472,18.802 13.685,28.75l-39.635,23.528c-7.839,-6.615 -14.609,-15.716 -19.193,-25.481l45.143,-26.797Z" style="fill:#f48273;fill-rule:nonzero;"/><path d="M143.815,1052.15c0.221,17.812 13.203,39.414 28.984,48.255c15.795,8.841 28.412,1.562 28.191,-16.25c-0.209,-17.813 -13.19,-39.414 -28.972,-48.255c-15.794,-8.841 -28.411,-1.563 -28.203,16.25Z" style="fill:#af1f23;fill-rule:nonzero;"/><path d="M143.815,1059.71c0.182,14.101 10.443,31.211 22.943,38.203c12.5,7.005 22.5,1.25 22.317,-12.865c-0.169,-14.088 -10.442,-31.198 -22.942,-38.19c-12.487,-7.005 -22.487,-1.25 -22.318,12.852Z" style="fill:#991b1e;fill-rule:nonzero;"/><path d="M181.771,992.526l-8.477,94.636l18.073,-12.813l40.222,-55.026l-49.818,-26.797Z" style="fill:#c4c4c4;fill-rule:nonzero;"/><path d="M163.698,1005.34l-9.037,66.08l18.633,15.743l40.222,-55.027l-49.818,-26.796Z" style="fill:#828383;fill-rule:nonzero;"/><path d="M936.276,1073.8l-16.836,6.341l25.365,84.61l40.221,-55.039l-48.75,-35.912Z" style="fill:#c4c4c4;fill-rule:nonzero;"/><path d="M918.203,1086.62l-10.104,75.208l18.633,15.742l40.221,-55.026l-48.75,-35.924Z" style="fill:#828383;fill-rule:nonzero;"/><path d="M498.555,818.581c-8.842,-0 -17.696,2.266 -25.586,6.81l-292.201,168.711c-2.318,1.341 -2.591,3.45 -2.539,4.609c0.052,1.146 0.482,3.216 2.904,4.362l526.914,247.904c15.169,7.109 32.929,6.406 47.448,-1.98l204.153,-117.877c2.11,-1.224 2.501,-3.164 2.539,-4.193c0.039,-1.041 -0.195,-3.008 -2.2,-4.375l-432.513,-295.104c-8.633,-5.899 -18.776,-8.867 -28.919,-8.867Zm231.302,460.872c-10.86,0 -21.732,-2.356 -31.849,-7.109l-526.914,-247.904c-9.701,-4.557 -16.003,-14.036 -16.446,-24.739c-0.455,-10.703 5.026,-20.69 14.323,-26.029l292.188,-168.711c24.765,-14.297 56.015,-13.125 79.622,2.982l432.5,295.104c8.19,5.586 12.865,14.857 12.487,24.779c-0.365,9.896 -5.729,18.789 -14.323,23.75l-204.141,117.851c-11.549,6.667 -24.479,10.026 -37.447,10.026Z" style="fill:#c4c4c4;fill-rule:nonzero;"/><path d="M503.086,811.068c-9.935,-0 -19.701,2.591 -28.242,7.513l-292.201,168.711c-3.424,1.992 -5.351,5.534 -5.182,9.453c0.143,3.867 2.37,7.226 5.924,8.919l526.941,247.917c7.499,3.502 15.833,5.351 24.114,5.351c9.922,0 19.688,-2.604 28.255,-7.552l204.154,-117.864c3.177,-1.836 5.065,-4.987 5.182,-8.633c0.118,-3.646 -1.523,-6.888 -4.518,-8.932l-432.513,-295.104c-9.375,-6.394 -20.417,-9.779 -31.914,-9.779Zm231.315,460.872c-10.182,0 -20.417,-2.292 -29.596,-6.601l-526.915,-247.917c-7.903,-3.698 -13.033,-11.432 -13.398,-20.156c-0.377,-8.724 4.089,-16.849 11.654,-21.211l292.2,-168.711c10.482,-6.055 22.5,-9.245 34.74,-9.245c14.14,0 27.708,4.167 39.245,12.031l432.5,295.105c6.666,4.544 10.468,12.083 10.182,20.182c-0.312,8.06 -4.662,15.299 -11.693,19.349l-204.14,117.852c-10.547,6.08 -22.579,9.322 -34.779,9.322Z" style="fill:#e0e1e0;fill-rule:nonzero;"/><path d="M498.112,810.677l-9.05,66.081l18.633,15.742l40.221,-55.026l-49.804,-26.797Z" style="fill:#828383;fill-rule:nonzero;"/><path d="M230.43,965.703l477.617,224.714c10.417,4.883 19.804,17.799 29.739,31.471c5.886,8.086 16.589,22.8 21.862,25.326l201.341,-116.25c4.688,-11.25 3.243,-59.206 -2.187,-69.779l-431.328,-294.31c-4.974,0.586 -18.086,17.995 -25.117,27.37c-9.896,13.138 -19.232,25.547 -29.388,31.406l-242.539,140.052Zm529.44,305.573c-15.352,0 -28.92,-18.672 -41.172,-35.508c-6.654,-9.14 -15.769,-21.679 -20.69,-23.984l-492.474,-231.719l-24.766,14.297c-6.797,3.959 -17.057,26.524 -21.315,20.091c-18.346,-27.76 24.649,-68.854 32.083,-65.338l12.878,4.349l256.745,-148.243c6.002,-3.476 14.674,-15.012 22.33,-25.195c15.899,-21.12 35.652,-47.396 57.292,-32.643l432.5,295.091c15.664,10.69 14.193,62.761 13.985,68.672c-1.081,28.737 -7.045,35.976 -12.735,39.271l-204.141,117.851c-3.606,2.097 -7.109,3.008 -10.52,3.008Z" style="fill:#c4c4c4;fill-rule:nonzero;"/><path d="M530.534,759.766c-5.482,0.638 -12.474,7.786 -28.75,29.427c-9.557,12.721 -18.581,24.7 -27.787,30.013l-251.341,145.13l486.81,229.036c9.193,4.323 18.19,16.706 27.708,29.805c11.016,15.117 18.451,24.388 23.868,26.98l2.526,1.21l205.312,-118.541l0.703,-1.667c5.378,-12.93 3.802,-62.187 -2.37,-74.245l-0.624,-1.198l-434.089,-296.197l-1.966,0.247Zm233.021,504.362c-12.644,-0 -25.508,-17.709 -36.875,-33.308c-9.428,-12.968 -17.031,-23.007 -22.735,-25.69l-492.161,-231.445c-4.584,-2.148 -10.026,-0.938 -13.255,2.956l-8.828,10.612c-1.797,1.029 -11.172,24.609 -13.06,24.609c-2.917,-0 -7.514,-2.513 -9.558,-4.818c-6.901,-7.773 28.62,-56.106 30.248,-55.338l11.015,5.885l259.154,-149.622c6.94,-4.024 15.573,-15.508 23.919,-26.589c11.68,-15.533 26.198,-34.83 40.13,-34.83c3.347,-0 6.602,1.106 9.922,3.372l432.5,295.104c8.972,6.12 12.657,36.849 11.667,64.076c-1.107,29.7 -7.63,33.45 -10.078,34.87l-204.141,117.851c-2.669,1.563 -5.234,2.305 -7.864,2.305Z" style="fill:#e0e1e0;fill-rule:nonzero;"/><path d="M254.037,977.643c-0,0 -3.998,5.495 -13.646,2.005c-11.589,-4.205 -9.961,-7.851 -9.961,-7.851l30.104,-127.135l-38.229,-16.524l-27.123,126.536l-12.109,15.287l-15.169,-2.708l36.822,-173.256l84.18,36.433l-34.869,147.213Z" style="fill:#828383;fill-rule:nonzero;"/><path d="M249.609,979.648l-2.981,-0.612c-7.37,-2.655 -6.277,-8.763 -6.133,-9.44l29.922,-126.276l-47.422,-20.507l-28.125,131.236l-9.597,12.11l-7.356,-1.315l34.544,-162.513l74.974,32.461l-33.932,143.229l-0,-0.078c-0.157,-0 -1.407,1.705 -3.894,1.705Z" style="fill:#b9b8b9;fill-rule:nonzero;"/><path d="M568.763,829.688c0,-0 -3.633,7.968 -13.281,4.466c-11.589,-4.193 -9.232,-15.052 -9.232,-15.052l29.01,-122.396l-38.229,-16.537l-27.109,126.537l-12.11,15.286l-15.182,-2.708l36.823,-173.242l84.193,36.432l-34.883,147.214Z" style="fill:#828383;fill-rule:nonzero;"/><path d="M512.149,309.766c-7.787,-4.545 -16.238,-7.787 -25.001,-9.74l-5.677,-94.935l-0.651,-11.197l32.292,-1.941l1.797,30.339l5.507,92.187l-8.267,-4.713Z" style="fill:#b9b8b9;fill-rule:nonzero;"/><path d="M526.588,418.008l-12.825,-7.305c-6.485,-3.724 -13.463,-6.653 -20.612,-8.593l-5.026,-84.389c5.521,1.459 10.716,3.738 15.586,6.654l17.851,10.391l5.026,83.242Z" style="fill:#b9b8b9;fill-rule:nonzero;"/><path d="M532.76,524.154l-16.067,-9.258c-1.954,-1.133 -4.063,-1.94 -6.003,-2.917c-3.737,-1.784 -7.474,-3.255 -11.367,-4.388l-5.195,-87.474c3.893,1.303 7.63,2.93 11.197,5.039l22.396,12.982l5.039,86.016Z" style="fill:#b9b8b9;fill-rule:nonzero;"/><path d="M538.268,616.003l-32.448,1.94l-5.52,-92.982c2.76,1.133 5.52,2.435 8.281,4.05l3.072,1.783l22.396,12.995l4.219,72.214Z" style="fill:#b9b8b9;fill-rule:nonzero;"/><path d="M1032.11,897.396l-1.302,0.807l-0.156,0l-2.435,1.459l-49.492,28.567l-0.326,0.17l-0.976,0.481l-48.203,28.073l-2.11,0.977l-1.133,0.651l-45.598,26.445c-1.302,0.821 -2.761,1.471 -4.219,2.279l-4.063,1.94c-11.041,4.87 -23.047,7.474 -35.052,7.474c-8.607,-0 -16.875,-1.146 -25.156,-3.737c-1.784,-0.482 -3.568,-1.133 -5.352,-1.784l-559.896,-209.349c-13.632,-5.195 -23.046,-16.549 -25.468,-30.352c-0.651,-3.567 -0.82,-7.304 -0.495,-11.197l1.628,-16.875c0.325,-3.568 0.651,-7.136 1.133,-10.704l22.877,-13.32c-0.638,8.933 -1.614,17.539 -2.422,26.302l-1.302,13.464l-0.326,3.242c-0.65,7.148 2.761,15.742 11.849,19.154l560.052,209.349c9.571,3.567 19.636,4.869 29.532,3.736c7.305,-0.82 14.44,-2.76 21.093,-6.002l2.436,-1.146l2.278,-1.133l4.219,-2.435l43.971,-25.482l0.651,-0.325l9.245,-5.351l42.526,-24.506l11.198,-6.484l39.909,-23.047l0.338,0.651l10.547,18.008Z" style="fill:#828383;fill-rule:nonzero;"/><path d="M1036.32,895.13l-1.12,0.313l0,0.169l-1.966,1.459l-1.94,1.132l-1.289,0.821l-0.169,-0l-0.17,0.156l-0.976,0.482l-45.912,26.627l-0.651,0.313l-47.552,27.591c-1.94,1.133 -3.724,1.953 -5.351,2.76l-2.11,0.977l-1.133,0.651l-1.627,0.651l-2.109,0.807c-10.066,3.737 -20.612,5.677 -31.159,5.677c-5.847,0 -11.68,-0.651 -17.357,-1.784c-2.761,-0.481 -5.365,-1.132 -7.956,-2.109c-1.627,-0.325 -3.242,-0.807 -4.87,-1.458l-560.052,-209.519c-13.789,-5.182 -23.203,-16.705 -25.481,-30.664c-0.638,-3.567 -0.808,-7.304 -0.482,-11.041l1.627,-16.224c0.482,-3.893 0.808,-7.787 1.133,-11.523l23.047,-13.308c-0.82,9.089 -1.628,18.177 -2.604,27.096l-1.289,12.67l-0.326,3.568c-0.651,6.978 2.761,15.742 11.849,19.14l560.209,209.518c9.088,3.412 18.828,4.701 28.554,3.737c6.498,-0.494 12.982,-2.109 18.997,-4.544l1.615,-0.821l0.651,-0.325l4.219,-1.94l1.302,-0.651l4.375,-2.591l45.443,-26.133l0.169,-0.169l8.112,-4.701l39.427,-22.877l4.87,-2.761l0.325,0.156l0.17,0l1.458,0.326l-0,9.74l8.099,8.606Z" style="fill:#828383;fill-rule:nonzero;"/><path d="M1037.29,893.333l0.82,1.303l-6.003,3.411l-0.169,0.156l-0.169,0l-2.422,1.459l-40.404,23.541c-2.109,1.133 -4.062,2.266 -6.172,3.086l-0.651,0.313l-3.398,1.627l-0.326,0.17l-0.976,0.481l-1.133,0.482l-1.302,0.326c-9.583,3.411 -19.479,5.195 -29.544,5.195c-5.834,-0 -11.511,-0.651 -17.201,-1.94l-0.651,-0.169l-0.156,-0c-2.279,-0.482 -4.375,-0.977 -6.498,-1.628l-0.963,-0.156l-0.326,-0.157c-1.458,-0.494 -2.929,-0.976 -4.388,-1.471l-560.052,-209.349c-13.945,-5.182 -23.359,-17.2 -25.638,-31.159c-0.482,-3.398 -0.651,-6.81 -0.325,-10.377l1.953,-19.323c0.325,-3.073 0.651,-6.159 0.807,-9.245l0.169,0l22.878,-13.151c-0.651,8.281 -1.458,16.393 -2.266,24.518l-1.471,15.091l-0.482,4.05c-0.651,7.148 2.761,15.911 11.849,19.31l560.052,209.349c9.089,3.411 18.659,4.713 28.073,3.737c6.003,-0.326 12.006,-1.628 17.683,-3.893l1.627,-0.652l1.628,-0.651l0.312,-0.156l1.628,-0.651l0.169,-0.169c1.615,-0.638 3.073,-1.459 4.544,-2.266l3.894,-2.435l0.156,0l39.114,-22.552l5.026,-2.93l0.17,0l0.976,-0.65l4.545,-0.964l-0,10.221l10.377,5.026l-5.364,3.242Z" style="fill:#828383;fill-rule:nonzero;"/><path d="M1037.29,893.333l0.82,1.303l-4.883,3.411l-1.12,-0l-0.169,0.156l-1.289,0l-0.651,0.821l-0.169,-0l-0.17,0.156l-0.312,0.482l-2.916,-0c-8.607,2.76 -17.696,4.231 -26.615,4.231c-5.86,0 -11.693,-0.651 -17.37,-1.953l-0.482,0l-0.651,-0.156c-2.591,-0.495 -5.195,-1.302 -7.786,-2.122c-1.472,-0.313 -2.761,-0.808 -4.063,-1.289l-560.052,-209.349c-14.114,-5.196 -23.529,-17.201 -25.638,-31.328l0,-0.157c-0.482,-3.242 -0.651,-6.653 -0.325,-10.065l1.627,-16.224c0.482,-4.219 0.807,-8.437 1.289,-12.656l22.891,-13.151c-0.808,9.414 -1.784,18.659 -2.605,27.916l-1.132,11.68l-0.482,4.388c-0.651,7.136 2.76,15.899 11.849,19.31l560.208,209.349c8.763,3.242 18.008,4.544 27.097,3.893c5.026,-0.325 10.065,-1.302 14.765,-2.76l1.303,-1.133l6.002,-1.784l0.325,0.156l0.17,0l0.976,-0.65l0.808,-0.482l3.737,-0.482l-0,10.221l10.377,5.026l-5.364,3.242Z" style="fill:#828383;fill-rule:nonzero;"/><path d="M1072.68,870.625c-6.172,1.459 -12.501,2.266 -18.985,2.266c-8.776,-0 -17.695,-1.458 -26.302,-4.219c-1.289,-0.482 -2.422,-0.807 -3.724,-1.302l-559.883,-209.349c-14.128,-5.195 -23.698,-17.526 -25.482,-31.966c-0.651,-3.086 -0.651,-6.328 -0.325,-9.74l1.133,-10.221c0.65,-5.677 1.302,-11.367 1.783,-16.875c7.149,-2.604 14.454,-4.063 21.915,-4.714c-0.496,8.112 -1.459,16.068 -2.279,24.024l-0.977,9.245l-0.156,0.82c-0.651,6.979 2.591,15.742 11.849,19.14l560.039,209.349c8.281,3.086 16.888,4.388 25.469,3.894c3.75,-0 7.487,-0.638 11.054,-1.459l2.435,-0.156l0,11.198l2.436,10.065Z" style="fill:#828383;fill-rule:nonzero;"/><path d="M840.286,988.607c-8.437,0 -16.197,-1.146 -23.698,-3.503c-1.822,-0.508 -3.476,-1.12 -5.143,-1.731l-559.843,-209.336c-11.875,-4.506 -20.248,-14.454 -22.396,-26.615c-0.573,-3.151 -0.716,-6.497 -0.43,-9.948c0,-0 2.122,-22.291 2.435,-25.013l12.721,-7.383c-0.26,2.761 -3.268,33.594 -3.268,33.594c-0.807,8.971 3.502,19.896 14.987,24.206l560.052,209.349c7.917,2.955 16.081,4.44 24.284,4.44c2.5,-0 5.013,-0.143 7.5,-0.43c8.138,-0.911 15.768,-3.086 22.695,-6.458l2.357,-1.12l2.721,-1.38l147.461,-85.143l5.99,10.26l-48.06,27.721l-0.664,0l-1.094,1.003l-48.88,28.385l-2.279,0.964l-0.95,0.651l-45.612,26.445l-4.128,2.227l-3.802,1.823c-10.325,4.544 -21.771,6.992 -32.956,6.992Z" style="fill:#e0e1e0;fill-rule:nonzero;"/><path d="M894.336,957.604c-5.26,0 -10.794,-0.573 -16.432,-1.679c-2.553,-0.469 -4.87,-1.029 -7.188,-1.901c-2.07,-0.482 -3.424,-0.886 -4.765,-1.433l-560.157,-209.544c-12.005,-4.518 -20.364,-14.583 -22.383,-26.888c-0.573,-3.255 -0.716,-6.536 -0.429,-9.831l1.614,-16.172c0.378,-2.994 0.651,-6.067 0.912,-9.062l12.734,-7.357c-0.547,5.938 -1.106,11.849 -1.745,17.682l-1.627,16.302c-0.834,8.92 3.476,19.857 14.974,24.167l560.221,209.505c7.683,2.878 15.742,4.349 23.971,4.349c2.253,0 4.506,-0.104 6.771,-0.325c6.654,-0.508 13.737,-2.201 20.352,-4.883l6.693,-3.177l0.52,-0.169l5.599,-3.308l45.391,-26.106l47.226,-27.461l0,4.895l5.339,5.651l-0.703,0.052l-1.589,1.433l-46.054,26.471l-1.185,0.417l-0.625,0.859l-46.393,26.641c-1.394,0.82 -2.683,1.445 -3.881,2.031l-2.487,1.172l-1.797,0.976l-3.463,1.329c-9.544,3.554 -19.453,5.364 -29.414,5.364Z" style="fill:#e0e1e0;fill-rule:nonzero;"/><path d="M948.698,926.771c-5.234,0 -10.286,-0.547 -15.404,-1.654l-0.43,-0.429l-1.497,-0.013l-0.456,-0.118l-0.156,0.079c-1.276,-0.352 -3.203,-0.795 -5.13,-1.394l-1.003,-0.495l-1.731,-0.025l-2.878,-1.225l-559.844,-209.283c-12.057,-4.493 -20.482,-14.727 -22.552,-27.383c-0.443,-3.164 -0.547,-6.185 -0.273,-9.154c-0,0 2.422,-23.776 2.591,-26.002l12.721,-7.292c-0.468,5.065 -2.942,30.247 -2.942,30.247l-0.469,3.972c-0.834,9.127 3.489,20.143 14.974,24.453l560.052,209.349c7.695,2.891 15.651,4.349 23.632,4.349c2.227,-0 4.441,-0.117 6.654,-0.339c6.38,-0.338 12.865,-1.758 18.997,-4.232l2.37,-0.95l1.068,-0l0.912,-0.82l1.758,-0.704l0.208,-0.182c1.432,-0.651 2.786,-1.38 4.127,-2.122l3.321,-2.084l43.333,-24.947l-0,6.484l5.052,2.461l-1.901,1.159l0.742,1.185l-44.804,26.107c-2.565,1.366 -3.959,2.148 -5.456,2.721l-1.302,0.494l-1.211,1.107l-0.026,-0.208l-1.146,0.39l-2.435,1.12l-1.276,0.365c-9.453,3.359 -18.841,5.013 -28.19,5.013Z" style="fill:#e0e1e0;fill-rule:nonzero;"/><path d="M1003.05,895.782c-5.495,-0 -10.963,-0.626 -16.276,-1.824c-3.724,-0.664 -6.133,-1.432 -8.542,-2.174c-1.601,-0.377 -2.695,-0.794 -3.789,-1.211l-560.078,-209.362c-12.213,-4.492 -20.625,-14.752 -22.526,-27.474c-0.469,-3.255 -0.56,-6.25 -0.287,-9.049l2.657,-26.368l12.578,-7.226l-2.865,30.221l-0.481,4.323c-0.821,9.102 3.489,20.104 14.973,24.414l560.222,209.349c7.825,2.904 15.976,4.362 24.245,4.362c1.627,0 3.281,-0.052 4.909,-0.169c5.338,-0.352 10.689,-1.354 15.885,-2.982l0.964,-0.299l1.262,-1.094l3.933,-1.146l0.82,-0l-0,6.784l5.052,2.461l-1.901,1.159l0.912,1.458l-0.313,0l-0.299,0.169l-1.25,0l-1.224,0.807l-0.404,0l-0.742,0.652l-0.821,-0c-9.622,2.838 -18.307,4.219 -26.614,4.219Z" style="fill:#e0e1e0;fill-rule:nonzero;"/><path d="M1056.93,864.779c-8.203,-0 -16.549,-1.341 -24.792,-3.998l-3.502,-1.197l-559.896,-209.376c-12.214,-4.479 -20.768,-15.195 -22.357,-28.007c-0.56,-2.709 -0.638,-5.326 -0.312,-8.646c-0,-0 2.2,-19.492 2.63,-23.984c3.854,-1.237 7.851,-2.149 12.07,-2.787c-0.352,4.115 -0.794,8.19 -1.224,12.266l-1.575,14.974c-1.003,9.83 3.32,20.781 14.843,25.026l560.027,209.362c7.643,2.851 15.611,4.283 23.711,4.283c1.223,0 3.789,-0.091 3.802,-0.091c2.851,0 5.729,-0.377 8.281,-0.859l-0,5.573l1.445,6.289c-4.427,0.781 -8.841,1.172 -13.151,1.172Z" style="fill:#e0e1e0;fill-rule:nonzero;"/><path d="M240.508,826.432l-11.224,-18.502l316.51,-191.719l11.224,18.516l-316.51,191.705Z" style="fill:#afafae;fill-rule:nonzero;"/><path d="M293.438,846.12l-11.212,-18.503l316.498,-191.744l11.224,18.515l-316.51,191.732Z" style="fill:#afafae;fill-rule:nonzero;"/><path d="M358.516,865.794l-11.224,-18.515l316.51,-191.732l11.211,18.516l-316.497,191.731Z" style="fill:#afafae;fill-rule:nonzero;"/><path d="M408.008,890.365l-11.224,-18.503l316.497,-191.732l11.224,18.503l-316.497,191.732Z" style="fill:#afafae;fill-rule:nonzero;"/><path d="M468.867,907.787l-11.224,-18.516l316.51,-191.732l11.224,18.516l-316.51,191.732Z" style="fill:#afafae;fill-rule:nonzero;"/><path d="M522.813,930.26l-11.224,-18.515l316.497,-191.706l11.224,18.503l-316.497,191.718Z" style="fill:#afafae;fill-rule:nonzero;"/><path d="M576.758,958.828l-11.224,-18.502l316.497,-191.732l11.224,18.503l-316.497,191.731Z" style="fill:#afafae;fill-rule:nonzero;"/><path d="M637.083,977.018l-11.224,-18.515l316.498,-191.732l11.224,18.515l-316.498,191.732Z" style="fill:#afafae;fill-rule:nonzero;"/><path d="M697.396,995.169l-11.224,-18.502l316.51,-191.719l11.224,18.516l-316.51,191.705Z" style="fill:#afafae;fill-rule:nonzero;"/><path d="M234.284,805.365l308.177,-186.68l6.172,10.182l-308.177,186.68l-6.172,-10.182Z" style="fill:#e0e1e0;fill-rule:nonzero;"/><path d="M287.213,825.052l308.177,-186.693l6.172,10.17l-308.177,186.693l-6.172,-10.17Z" style="fill:#e0e1e0;fill-rule:nonzero;"/><path d="M352.292,844.714l308.177,-186.693l6.172,10.182l-308.177,186.693l-6.172,-10.182Z" style="fill:#e0e1e0;fill-rule:nonzero;"/><path d="M401.784,869.297l308.164,-186.693l6.185,10.183l-308.177,186.692l-6.172,-10.182Z" style="fill:#e0e1e0;fill-rule:nonzero;"/><path d="M462.643,886.719l308.177,-186.693l6.172,10.169l-308.177,186.693l-6.172,-10.169Z" style="fill:#e0e1e0;fill-rule:nonzero;"/><path d="M516.588,909.193l308.165,-186.68l6.172,10.17l-308.164,186.679l-6.173,-10.169Z" style="fill:#e0e1e0;fill-rule:nonzero;"/><path d="M570.534,937.761l308.177,-186.693l6.172,10.182l-308.177,186.693l-6.172,-10.182Z" style="fill:#e0e1e0;fill-rule:nonzero;"/><path d="M630.859,955.938l308.177,-186.693l6.172,10.182l-308.177,186.693l-6.172,-10.182Z" style="fill:#e0e1e0;fill-rule:nonzero;"/><path d="M691.172,974.102l308.177,-186.68l6.172,10.182l-308.177,186.68l-6.172,-10.182Z" style="fill:#e0e1e0;fill-rule:nonzero;"/><path d="M612.422,645.833l-16.172,-1.171l26.419,-369.519l16.172,1.172l-26.419,369.518Z" style="fill:#828383;fill-rule:nonzero;"/><path d="M669.713,667.344l-16.172,-1.211l26.42,-354.115l16.172,1.211l-26.42,354.115Z" style="fill:#828383;fill-rule:nonzero;"/><path d="M727.018,688.854l-16.185,-1.263l26.42,-338.711l16.184,1.276l-26.419,338.698Z" style="fill:#828383;fill-rule:nonzero;"/><path d="M784.31,710.378l-16.185,-1.328l26.419,-323.321l16.185,1.328l-26.419,323.321Z" style="fill:#828383;fill-rule:nonzero;"/><path d="M841.602,731.914l-16.172,-1.393l26.419,-307.93l16.172,1.394l-26.419,307.929Z" style="fill:#828383;fill-rule:nonzero;"/><path d="M898.893,753.438l-16.172,-1.459l26.42,-292.526l16.171,1.459l-26.419,292.526Z" style="fill:#828383;fill-rule:nonzero;"/><path d="M956.185,774.974l-16.146,-1.549l26.419,-277.123l16.146,1.55l-26.419,277.122Z" style="fill:#828383;fill-rule:nonzero;"/><path d="M1013.48,796.498l-16.159,-1.615l26.419,-261.732l16.159,1.615l-26.419,261.732Z" style="fill:#828383;fill-rule:nonzero;"/><path d="M1070.77,818.06l-16.146,-1.745l26.433,-246.328l16.119,1.732l-26.406,246.341Z" style="fill:#828383;fill-rule:nonzero;"/><path d="M559.505,625.846l-16.211,-0.755l18.49,-386.132l16.211,0.768l-18.49,386.119Z" style="fill:#828383;fill-rule:nonzero;"/><path d="M605.456,640.925l25.729,-359.805l6.458,0.456l-25.716,359.804l-6.471,-0.455Z" style="fill:#b9b8b9;fill-rule:nonzero;"/><path d="M662.76,662.396l25.703,-344.401l6.472,0.495l-25.703,344.401l-6.472,-0.495Z" style="fill:#b9b8b9;fill-rule:nonzero;"/><path d="M720.078,683.88l25.664,-328.997l6.471,0.495l-25.664,329.01l-6.471,-0.508Z" style="fill:#b9b8b9;fill-rule:nonzero;"/><path d="M777.383,705.365l25.625,-313.62l6.484,0.534l-25.625,313.62l-6.484,-0.534Z" style="fill:#b9b8b9;fill-rule:nonzero;"/><path d="M834.713,726.849l25.586,-298.229l6.459,0.573l-25.586,298.229l-6.459,-0.573Z" style="fill:#b9b8b9;fill-rule:nonzero;"/><path d="M892.018,748.347l25.547,-282.839l6.472,0.573l-25.547,282.826l-6.472,-0.56Z" style="fill:#b9b8b9;fill-rule:nonzero;"/><path d="M949.349,769.818l25.495,-267.448l6.458,0.625l-25.495,267.435l-6.458,-0.612Z" style="fill:#b9b8b9;fill-rule:nonzero;"/><path d="M1006.67,791.289l25.442,-252.044l6.459,0.638l-25.443,252.057l-6.458,-0.651Z" style="fill:#b9b8b9;fill-rule:nonzero;"/><path d="M1063.98,812.761l25.391,-236.654l6.445,0.69l-25.364,236.667l-6.472,-0.703Z" style="fill:#b9b8b9;fill-rule:nonzero;"/><path d="M552.396,621.224l18.02,-376.419l6.498,0.312l-18.021,376.406l-6.497,-0.299Z" style="fill:#b9b8b9;fill-rule:nonzero;"/><path d="M879.883,730.886l-36.354,21.106l-213.242,-79.844l-124.467,-80.989l374.063,139.727Z" style="fill:#c4c4c4;fill-rule:nonzero;"/><path d="M1060.01,798.242l-0.482,6.329l-1.94,20.286l-0.833,8.268c-1.12,-1.289 -2.748,-2.591 -5.013,-3.398l-168.776,-63.138l36.354,-20.925l140.69,52.578Z" style="fill:#c4c4c4;fill-rule:nonzero;"/><path d="M489.427,518.464c-19.154,-7.956 -41.224,-6.654 -59.557,3.893l-231.42,133.724l-12.669,7.304c-5.182,2.917 -8.763,7.787 -10.052,13.464c0.156,-2.109 0.482,-6.003 -0.169,-11.523c-0.808,-8.92 -9.401,-5.847 -9.401,-5.847c3.073,-4.049 6.966,-7.617 11.51,-10.221l19.154,-11.029l224.935,-130c20.443,-11.679 44.778,-14.114 66.693,-7.135l0.976,17.37Z" style="fill:#828383;fill-rule:nonzero;"/><path d="M185.364,657.435c-0.729,-2.24 -1.992,-4.089 -3.684,-5.365c1.276,-1.028 2.63,-1.939 4.01,-2.734l244.088,-141.028c11.876,-6.785 25.417,-10.378 39.154,-10.378c6.953,-0 13.802,0.911 20.443,2.708l0.378,6.641c-6.641,-1.966 -13.503,-2.969 -20.521,-2.969c-12.683,0 -25.209,3.346 -36.198,9.687l-244.089,141.016c-1.276,0.716 -2.474,1.537 -3.581,2.422Z" style="fill:#c4c4c4;fill-rule:nonzero;"/><path d="M484.076,414.245c-19.154,-7.956 -41.225,-6.654 -59.558,3.893l-231.419,133.724l-12.669,7.305c-5.183,2.916 -8.763,7.786 -10.053,13.463c0.157,-2.109 0.482,-6.002 -0.169,-11.523c-0.807,-8.919 -9.414,-5.846 -9.414,-5.846c3.086,-4.05 6.98,-7.617 11.524,-10.222l19.153,-11.028l224.922,-130c20.456,-11.68 44.792,-14.115 66.706,-7.136l0.977,17.37Z" style="fill:#828383;fill-rule:nonzero;"/><path d="M180.013,553.216c-0.729,-2.239 -1.992,-4.088 -3.698,-5.364c1.289,-1.029 2.63,-1.94 4.011,-2.722l244.101,-141.042c11.875,-6.783 25.417,-10.377 39.154,-10.377c6.94,-0 13.802,0.925 20.442,2.708l0.365,6.641c-6.628,-1.966 -13.503,-2.969 -20.508,-2.969c-12.695,0 -25.208,3.347 -36.211,9.688l-244.075,141.016c-1.277,0.716 -2.474,1.536 -3.581,2.421Z" style="fill:#c4c4c4;fill-rule:nonzero;"/><path d="M481.471,314.779c-19.154,-7.943 -41.224,-6.654 -59.557,3.893l-231.419,133.724l-12.657,7.305c-5.195,2.929 -8.763,7.799 -10.064,13.476c0.156,-2.109 0.481,-6.003 -0.157,-11.523c-0.82,-8.932 -9.414,-5.847 -9.414,-5.847c3.073,-4.049 6.979,-7.63 11.524,-10.221l19.14,-11.042l224.935,-129.987c20.443,-11.679 44.792,-14.114 66.693,-7.135l0.976,17.357Z" style="fill:#828383;fill-rule:nonzero;"/><path d="M177.409,453.776c-0.729,-2.265 -1.993,-4.088 -3.685,-5.377c1.289,-1.029 2.63,-1.928 4.01,-2.722l244.089,-141.054c11.875,-6.784 25.416,-10.378 39.128,-10.378c6.966,0 13.827,0.924 20.468,2.721l0.378,6.641c-6.641,-1.953 -13.503,-2.956 -20.508,-2.956c-12.695,-0 -25.208,3.347 -36.211,9.662l-244.088,141.041c-1.276,0.704 -2.474,1.524 -3.581,2.422Z" style="fill:#c4c4c4;fill-rule:nonzero;"/><path d="M920.937,931.146l-0.963,-0.156l-0.326,-0.157l-22.565,12.982c6.498,-0.494 12.982,-2.109 18.997,-4.544l1.615,-0.821l0.651,-0.325l9.089,-5.351c-2.279,-0.482 -4.375,-0.977 -6.498,-1.628Zm0,0l-0.963,-0.156l-0.326,-0.157l-22.565,12.982c6.498,-0.494 12.982,-2.109 18.997,-4.544l1.615,-0.821l0.651,-0.325l9.089,-5.351c-2.279,-0.326 -4.375,-0.977 -6.498,-1.628Zm0,0l-0.963,-0.156l-0.326,-0.157l-22.565,12.982c6.498,-0.494 12.982,-2.109 18.997,-4.544l1.615,-0.821l0.651,-0.325l9.089,-5.351c-2.279,-0.326 -4.375,-0.977 -6.498,-1.628Zm0,0l-0.963,-0.156l-0.326,-0.157l-22.565,12.982c6.498,-0.494 12.982,-2.109 18.997,-4.544l1.615,-0.821l0.651,-0.325l9.089,-5.351c-2.279,-0.326 -4.375,-0.977 -6.498,-1.628Zm-41.054,-200.26l-36.354,21.106l39.44,14.597l36.354,-20.925l-39.44,-14.778Zm41.054,200.26l-0.963,-0.156l-0.326,-0.157l-22.565,12.982c6.498,-0.494 12.982,-2.109 18.997,-4.544l1.615,-0.821l0.651,-0.325l9.089,-5.351c-2.279,-0.482 -4.375,-0.977 -6.498,-1.628Zm0,0l-0.963,-0.156l-0.326,-0.157l-22.565,12.982c6.498,-0.494 12.982,-2.109 18.997,-4.544l1.615,-0.821l0.651,-0.325l9.089,-5.351c-2.279,-0.326 -4.375,-0.977 -6.498,-1.628Zm0,0l-0.963,-0.156l-0.326,-0.157l-22.565,12.982c6.498,-0.494 12.982,-2.109 18.997,-4.544l1.615,-0.821l0.651,-0.325l9.089,-5.351c-2.279,-0.326 -4.375,-0.977 -6.498,-1.628Zm0,0l-0.963,-0.156l-0.326,-0.157l-22.565,12.982c6.498,-0.494 12.982,-2.109 18.997,-4.544l1.615,-0.821l0.651,-0.325l9.089,-5.351c-2.279,-0.326 -4.375,-0.977 -6.498,-1.628Zm0,0l-0.963,-0.156l-0.326,-0.157l-22.565,12.982c6.498,-0.494 12.982,-2.109 18.997,-4.544l1.615,-0.821l0.651,-0.325l9.089,-5.351c-2.279,-0.326 -4.375,-0.977 -6.498,-1.628Zm0,0l-0.963,-0.156l-0.326,-0.157l-22.565,12.982c6.498,-0.494 12.982,-2.109 18.997,-4.544l1.615,-0.821l0.651,-0.325l9.089,-5.351c-2.279,-0.482 -4.375,-0.977 -6.498,-1.628Z" style="fill:#c4c4c4;fill-rule:nonzero;"/><path d="M1069.92,881.497l-241.159,139.232c-14.115,8.282 -30.026,12.344 -45.924,12.344c-10.873,-0 -21.915,-1.953 -32.292,-5.846l-560.221,-209.349c-16.55,-6.172 -27.904,-21.094 -29.362,-38.945c-1.472,-17.696 7.135,-34.245 22.552,-43.178l39.922,-23.034l22.877,-13.32l31.328,-18.007l23.047,-13.308l31.315,-18.177l0.169,0l22.878,-13.151l31.315,-18.164l22.891,-13.151l15.416,-8.919c5.196,-3.086 10.547,-5.521 16.224,-7.305l1.628,-0.495l48.203,31.485c-10.065,-3.725 -20.781,-4.545 -31.172,-2.435c-6.484,1.146 -12.812,3.411 -18.659,6.823l-2.591,1.458l-32.786,18.984l-21.745,12.5l0,0.157l-32.461,18.671l-21.745,12.487l-32.773,18.998l-21.432,12.33l-32.774,18.985l-21.419,12.33l-21.432,12.331c-6.485,3.737 -6.654,9.909 -6.485,12.5c0.157,2.435 1.459,8.607 8.438,11.198l560.208,209.349c16.55,6.003 34.727,4.714 49.987,-3.893l0.651,-0.325l31.159,-18.009l22.07,-12.825l31.315,-18.008c6.498,-0.494 12.982,-2.109 18.997,-4.544l1.615,-0.821l0.651,-0.325l9.089,-5.351c-2.279,-0.482 -4.375,-0.977 -6.498,-1.628l-0.963,-0.156l-0.326,-0.157l31.159,-18.02l22.722,-13.151l30.664,-17.683l23.203,-13.307l26.302,-15.26l1.458,-0.964l1.602,-1.471c3.594,-3.568 3.75,-8.112 3.424,-10.052c-0.169,-1.628 -0.807,-5.039 -3.424,-7.8l0.833,-8.268l1.94,-20.286l0.482,-6.329l3.086,1.133c12.995,4.714 22.552,14.766 26.927,27.266c1.315,3.567 2.292,7.461 2.604,11.523c1.459,17.852 -7.291,34.401 -22.708,43.333Z" style="fill:#c4c4c4;fill-rule:nonzero;"/><path d="M915.378,763.958l-392.201,-226.679l-22.396,-12.982l-3.086,-1.784c-2.747,-1.614 -5.508,-2.917 -8.268,-4.049l-0.976,-17.37c3.893,1.133 7.63,2.591 11.367,4.388c1.94,0.964 4.049,1.784 6.002,2.917l16.068,9.244l402.93,232.943c2.109,1.133 -8.294,14.024 -9.44,13.372Z" style="fill:#828383;fill-rule:nonzero;"/><path d="M500.156,514.935c-2.018,-1.172 -8.984,-5.742 -11.003,-6.654l-0.39,-7.109c1.328,0.56 11.198,6.393 11.198,6.393l3.398,1.667l415.639,240.221c-1.133,1.693 -2.748,3.776 -4.063,5.248l-414.779,-239.766Z" style="fill:#c4c4c4;fill-rule:nonzero;"/><path d="M501.276,303.268c-7.8,-4.544 -16.237,-7.786 -25,-9.739l-5.677,-94.935l-0.651,-11.198l32.291,-1.953l1.797,30.351l5.508,92.175l-8.268,-4.701Z" style="fill:#828383;fill-rule:nonzero;"/><path d="M509.544,307.969l-8.268,-4.701c-4.544,-2.76 -9.414,-4.869 -14.453,-6.653l-5.508,-91.537l-0.651,-11.198l22.07,-1.289l1.302,23.203l5.508,92.175Z" style="fill:#9e9e9f;fill-rule:nonzero;"/><path d="M515.716,411.51l-12.825,-7.304c-6.485,-3.724 -13.464,-6.654 -20.612,-8.594l-5.027,-84.388c5.521,1.458 10.717,3.724 15.587,6.654l17.851,10.377l5.026,83.255Z" style="fill:#828383;fill-rule:nonzero;"/><path d="M515.716,411.51l-12.825,-7.304c-3.243,-1.784 -6.654,-3.568 -10.052,-5.026l-4.87,-81.471c5.507,1.458 10.703,3.736 15.573,6.653l7.148,4.219l5.026,82.929Z" style="fill:#9e9e9f;fill-rule:nonzero;"/><path d="M521.888,517.643l-16.068,-9.244c-1.953,-1.133 -4.062,-1.953 -6.002,-2.917c-3.737,-1.797 -7.474,-3.255 -11.367,-4.388l-5.196,-87.474c3.893,1.302 7.63,2.929 11.198,5.039l22.396,12.982l5.039,86.002Z" style="fill:#828383;fill-rule:nonzero;"/><path d="M521.888,517.643l-16.068,-9.244c-1.953,-1.133 -4.062,-1.953 -6.002,-2.917l-0.821,-0.325l-5.026,-85.04c3.893,1.289 7.631,2.917 11.198,5.026l11.68,6.81l5.039,85.69Z" style="fill:#9e9e9f;fill-rule:nonzero;"/><path d="M527.396,609.505l-32.448,1.941l-5.521,-92.982c2.76,1.132 5.521,2.435 8.268,4.049l3.086,1.784l22.396,12.982l4.219,72.226Z" style="fill:#828383;fill-rule:nonzero;"/><path d="M527.396,609.505l-22.227,1.289l-5.039,-85.846c2.761,1.133 5.521,2.435 8.281,4.063l3.086,1.783l11.68,6.81l4.219,71.901Z" style="fill:#9e9e9f;fill-rule:nonzero;"/><path d="M246.315,699.401l-22.877,13.32c2.916,-30.351 5.195,-59.4 2.278,-88.945l-30.521,-309.791l21.589,-2.123l30.508,309.805c2.604,26.133 1.302,52.265 -0.977,77.734Z" style="fill:#9e9e9f;fill-rule:nonzero;"/><path d="M300.69,668.086l-23.047,13.308c3.242,-31.003 5.677,-60.691 3.086,-90.717l-27.76,-310.286l21.588,-1.953l27.591,310.286c2.435,26.614 0.977,53.229 -1.458,79.362Z" style="fill:#9e9e9f;fill-rule:nonzero;"/><path d="M355.052,636.758l-22.878,13.151c2.917,-30.989 5.352,-60.365 2.748,-90.391l-27.747,-310.286l21.588,-1.953l27.747,310.286c2.279,26.615 0.977,53.229 -1.458,79.193Z" style="fill:#9e9e9f;fill-rule:nonzero;"/><path d="M409.258,605.443l-22.891,13.151c2.761,-29.701 4.87,-58.099 1.953,-86.823l-31.484,-311.107l21.588,-2.279l31.485,311.277c2.591,25.312 1.458,50.794 -0.651,75.781Z" style="fill:#9e9e9f;fill-rule:nonzero;"/><path d="M462.813,584.505c-7.461,0.651 -14.766,2.11 -21.915,4.714c0.652,-8.438 0.977,-16.888 0.495,-25.156l-35.065,-372.123l21.588,-1.953l35.053,372.448c0.494,7.474 0.325,14.935 -0.156,22.07Z" style="fill:#9e9e9f;fill-rule:nonzero;"/><path d="M234.036,704.519c2.448,-26.876 4.063,-53.399 1.38,-80.443l-30.026,-304.961l11.888,-1.172l30.04,304.974c2.617,26.406 1.159,52.252 -0.755,74.31l-12.527,7.292Z" style="fill:#b2b2b2;fill-rule:nonzero;"/><path d="M288.32,673.164c2.617,-26.354 4.545,-54.115 2.123,-82.135l-27.318,-305.482l11.888,-1.055l27.148,305.43c2.474,26.966 0.834,53.412 -1.237,75.977l-12.604,7.265Z" style="fill:#b2b2b2;fill-rule:nonzero;"/><path d="M342.747,641.771c2.578,-28.568 4.232,-54.922 1.901,-81.901l-27.317,-305.469l11.875,-1.067l27.317,305.429c1.888,22.097 1.511,45.56 -1.224,75.794l-12.552,7.214Z" style="fill:#b2b2b2;fill-rule:nonzero;"/><path d="M396.927,610.456c2.305,-26.211 3.789,-52.071 1.107,-78.411l-30.99,-306.29l11.888,-1.25l30.99,306.407c2.656,25.807 1.224,51.953 -0.443,72.357l-12.552,7.187Z" style="fill:#b2b2b2;fill-rule:nonzero;"/><path d="M451.081,583.216c0.364,-6.979 0.364,-13.034 0.039,-18.685l-34.609,-367.422l11.887,-1.08l34.584,367.63c0.351,5.261 0.377,10.95 0.078,17.214c-4.167,0.533 -8.138,1.315 -11.979,2.343Z" style="fill:#b2b2b2;fill-rule:nonzero;"/><path d="M896.732,971.446l-16.172,-1.459l21.041,-234.01l16.172,1.458l-21.041,234.011Z" style="fill:#9e9e9f;fill-rule:nonzero;"/><path d="M971.94,926.393l-16.172,-1.458l21.055,-234.01l16.159,1.458l-21.042,234.01Z" style="fill:#9e9e9f;fill-rule:nonzero;"/><path d="M1034.82,893.763l-16.172,-1.458l21.055,-234.011l16.145,1.459l-21.028,234.01Z" style="fill:#9e9e9f;fill-rule:nonzero;"/><path d="M844.831,780.065l-5.195,58.581l-1.941,20.456l-6.979,77.734l-1.628,19.635l-3.242,35.86c0,-0 -1.133,16.719 -17.695,19.479c-13.958,2.266 -15.898,-9.414 -15.898,-9.414l3.411,-38.294l1.614,-17.045l6.98,-77.578l1.458,-17.2l6.823,-75.131l32.292,2.917Z" style="fill:#9e9e9f;fill-rule:nonzero;"/><path d="M1107.58,632.383l-10.573,118.138l-4.844,53.724l-2.135,22.396l-1.601,18.502c-0,0 -0.977,17.527 -15.417,17.527c-12.995,0.156 -17.852,-10.222 -17.852,-10.222l1.602,-19.323l0.833,-8.268l1.94,-20.286l0.482,-6.329l4.544,-50.143l1.628,-18.177l9.088,-100.456l32.305,2.917Z" style="fill:#9e9e9f;fill-rule:nonzero;"/><path d="M1066.18,729.922l-1.628,18.177l-547.708,-316.458l-22.396,-12.982c-3.568,-2.11 -7.305,-3.737 -11.198,-5.039l-0.976,-18.008c7.148,1.94 14.127,4.87 20.612,8.594l12.825,7.304l550.469,318.412Z" style="fill:#828383;fill-rule:nonzero;"/><path d="M496.888,411.068c-2.76,-1.641 -13.399,-6.94 -16.641,-8.177l-0.403,-7.748c4.44,1.615 16.458,7.527 20.625,9.909l12.838,7.331l547.761,316.836l-0.664,7.474l-563.516,-325.625Z" style="fill:#c4c4c4;fill-rule:nonzero;"/><path d="M1060.51,626.537l-16.875,9.739l-532.943,-308.021l-17.851,-10.377c-4.87,-2.93 -10.066,-5.196 -15.587,-6.654l-0.976,-17.695c8.763,1.953 17.2,5.195 25,9.739l8.268,4.701l550.964,318.568Z" style="fill:#828383;fill-rule:nonzero;"/><path d="M513.112,320.677l-17.826,-10.377c-4.284,-2.566 -14.205,-5.756 -18.802,-7.266l-0.417,-7.604c6.094,1.849 17.344,5.521 22.748,8.672l8.32,4.739l543.62,314.336l-7.122,4.102l-530.521,-306.602Z" style="fill:#c4c4c4;fill-rule:nonzero;"/><path d="M1105.62,652.188l-0.482,4.856l0,0.326c0,0 -10.234,10.065 -10.234,20.612l-0,0.651c-0,10.221 -22.071,-23.373 -22.071,-23.373l0.17,-1.939l1.784,-18.503l0.312,-2.917l30.521,20.287Z" style="fill:#9e9e9f;fill-rule:nonzero;"/><path d="M288.242,830.977c-7.825,1.758 -9.453,-8.412 -9.453,-8.412l24.87,-347.734l16.172,1.172l-24.831,347.161c0,0 0.872,6.094 -6.758,7.813Z" style="fill:#828383;fill-rule:nonzero;"/><path d="M345.13,850.261c-7.083,-0.873 -8.854,-7.891 -8.854,-7.891l24.675,-330.664l16.171,1.211l-24.687,330.95c-0,0 0.521,7.344 -7.305,6.394Z" style="fill:#828383;fill-rule:nonzero;"/><path d="M402.982,871.888c-6.003,1.341 -9.336,-8.008 -9.336,-8.008l24.596,-315.325l16.185,1.263l-24.648,315.976c-0,0 0.104,4.558 -6.797,6.094Z" style="fill:#828383;fill-rule:nonzero;"/><path d="M460.638,895.13c-7.825,2.852 -9.87,-6.588 -9.87,-6.588l24.766,-303.125l16.185,1.328l-24.519,300c0,0 1.302,5.508 -6.562,8.385Z" style="fill:#828383;fill-rule:nonzero;"/><path d="M518.685,917.461c-11.432,2.669 -10.612,-6.432 -10.612,-6.432l24.766,-288.75l16.171,1.393l-24.518,285.768c0,0 -0.39,6.758 -5.807,8.021Z" style="fill:#828383;fill-rule:nonzero;"/><path d="M574.818,938.086c-5.951,0.677 -9.284,-6.523 -9.284,-6.523l24.596,-272.422l16.172,1.458l-24.57,271.966c-0,0 -0.235,4.753 -6.914,5.521Z" style="fill:#828383;fill-rule:nonzero;"/><path d="M630.951,957.748c-9.024,-0 -7.709,-7.904 -7.709,-7.904l24.206,-253.867l16.146,1.549l-24.18,253.581c-0,-0 -0.872,6.641 -8.463,6.641Z" style="fill:#828383;fill-rule:nonzero;"/><path d="M690.898,980.469c-11.393,1.458 -10.247,-9.076 -10.247,-9.076l24.088,-238.554l16.146,1.614l-24.036,238.112c0,0 -0.065,7.149 -5.951,7.904Z" style="fill:#828383;fill-rule:nonzero;"/><path d="M747.799,1003.57c-9.479,0.95 -10.052,-7.383 -10.052,-7.383l24.297,-226.51l16.133,1.745l-23.997,223.749c-0,0 -0.313,7.787 -6.381,8.399Z" style="fill:#828383;fill-rule:nonzero;"/><path d="M230.768,808.62c-4.115,-0.039 -5.364,-7.122 -5.364,-7.122l17.369,-362.852l16.211,0.768l-17.461,364.831c0,0 -2.929,4.466 -10.755,4.375Z" style="fill:#828383;fill-rule:nonzero;"/><path d="M288.971,826.497c-1.77,0 -2.799,-3.919 -2.903,-4.531l24.583,-341.731l6.458,0.455l-24.479,342.331c0.091,2.07 -0.911,2.93 -2.982,3.385l-0.677,0.091Z" style="fill:#b9b8b9;fill-rule:nonzero;"/><path d="M348.203,845.612c-3.542,-0.43 -4.622,-3.906 -4.74,-4.31l24.453,-324.192l6.485,0.494l-24.336,326.081l-0.286,1.862l-0.821,0.117l-0.755,-0.052Z" style="fill:#b9b8b9;fill-rule:nonzero;"/><path d="M404.297,867.344c-0.664,-0 -2.24,-1.888 -3.216,-4.037l24.127,-309.335l6.471,0.507l-24.27,311.12c-0.078,0.43 -0.808,1.237 -3.008,1.732l-0.104,0.013Z" style="fill:#b9b8b9;fill-rule:nonzero;"/><path d="M460.325,890.99l-2.33,-3.334l24.479,-296.796l6.484,0.533l-24.127,295.157c0.13,1.992 -0.729,3.229 -3.386,4.179l-1.12,0.261Z" style="fill:#b9b8b9;fill-rule:nonzero;"/><path d="M517.357,913.281l-1.602,-0.364l24.023,-285.17l6.446,0.56l-24.102,280.912c0,0.104 -0.351,3.294 -2.07,3.698l-2.695,0.364Z" style="fill:#b9b8b9;fill-rule:nonzero;"/><path d="M576.51,933.464c-1.315,-0 -2.695,-1.537 -3.515,-2.787l24.036,-266.055l6.472,0.573l-24.141,267.11c-0.078,0.338 -0.833,0.937 -2.63,1.145l-0.222,0.014Z" style="fill:#b9b8b9;fill-rule:nonzero;"/><path d="M633.425,953.06c-1.498,-0 -2.305,-0.312 -2.553,-0.612l-0.338,-1.601l23.776,-249.375l6.458,0.625l-23.724,248.737c-0.26,1.38 -1.497,2.226 -3.619,2.226Z" style="fill:#b9b8b9;fill-rule:nonzero;"/><path d="M691.315,975.937c-1.25,0 -2.109,-0.26 -2.552,-0.768l-0.781,-3.072l23.593,-233.737l6.459,0.651l-23.542,233.242c-0.026,0.429 -0.143,3.359 -1.731,3.568l-1.446,0.116Z" style="fill:#b9b8b9;fill-rule:nonzero;"/><path d="M748.828,998.985c-3.19,-0 -3.685,-2.071 -3.737,-2.956l23.75,-220.807l6.458,0.689l-23.489,218.933c-0.026,0.325 -0.326,3.893 -2.019,4.075l-0.963,0.066Z" style="fill:#b9b8b9;fill-rule:nonzero;"/><path d="M233.307,803.945l-0.625,-3.099l17.201,-356.927l6.484,0.313l-17.135,358.151c-0.899,0.651 -2.708,1.562 -5.73,1.562l-0.195,0Z" style="fill:#b9b8b9;fill-rule:nonzero;"/><path d="M1080.14,615.182l-19.635,11.355l-16.875,9.739l-163.75,94.61l-36.354,21.106l-15.248,8.764c-20.456,11.679 -45.286,11.028 -64.922,-1.785l-133.072,-86.823l-124.467,-80.989l-261.445,-170.404l-15.912,-10.221l-55.664,-36.354c-6.002,-3.724 -6.484,-9.727 -6.328,-12.005c0,-2.435 0.821,-8.268 6.979,-11.849l251.876,-145.404c13.958,-8.112 30.182,-10.221 45.273,-6.328c6.823,1.458 13.307,4.219 19.479,8.112l13.958,9.088l576.602,375.534c5.99,3.894 6.471,9.74 6.471,12.162c-0.143,2.278 -0.963,8.281 -6.966,11.692Zm18.347,-50.963l-590.73,-384.61c-29.856,-19.635 -67.825,-20.612 -98.671,-2.76l-251.863,145.404c-14.114,8.112 -22.721,22.721 -23.203,38.945c-0.494,16.393 7.461,31.328 21.094,40.248l41.862,27.265l15.742,10.222l229.805,149.791l48.203,31.485l254.948,166.015c15.742,10.234 33.594,15.261 51.601,15.261c16.238,-0 32.462,-4.219 47.227,-12.657l38.464,-22.239l36.354,-20.925l156.927,-90.56l16.719,-9.739l3.398,-1.94c13.971,-8.281 22.721,-22.891 23.216,-39.115c0.313,-16.237 -7.46,-31.328 -21.093,-40.091Z" style="fill:#c4c4c4;fill-rule:nonzero;"/><path d="M1105.79,774.87c0,11.68 -5.038,22.07 -13.633,29.375c-1.627,1.458 -3.593,2.76 -5.533,3.893l-29.037,16.719l-220.872,127.721c-2.435,1.459 -5.026,2.748 -7.631,3.893c-10.547,4.701 -21.9,7.305 -33.424,7.631l1.614,-17.045c10.873,-0.325 21.589,-3.411 31.159,-8.932l2.279,-1.289l228.815,-132.265l18.828,-10.873c6.823,-3.893 10.873,-10.872 10.873,-18.828c-0,-1.953 -0.326,-3.893 -0.807,-5.677l-0,-0.17c-0.17,-10.703 8.58,-18.502 8.58,-18.502c5.703,6.667 8.789,15.26 8.789,24.349Z" style="fill:#c4c4c4;fill-rule:nonzero;"/><path d="M801.732,946.693c10.156,-0.938 20.156,-4.128 29.14,-9.31l249.922,-144.44c8.334,-4.753 13.295,-13.373 13.295,-23.034c-0,-2.252 -0.339,-4.596 -0.977,-6.979c0.026,-3.568 1.758,-6.953 3.528,-9.479c2.774,4.883 4.285,10.56 4.285,16.458c-0,10.026 -4.258,19.14 -11.927,25.664c-1.277,1.159 -2.878,2.253 -4.805,3.386l-29.024,16.718l-220.885,127.721c-2.331,1.394 -4.74,2.592 -7.149,3.659c-8.359,3.725 -17.109,6.016 -26.093,6.876l0.69,-7.24Z" style="fill:#e0e1e0;fill-rule:nonzero;"/><path d="M1111.63,678.477c0,14.114 -7.135,26.614 -19.309,33.593l-253.008,146.211l-1.615,0.821c-10.39,5.833 -21.914,9.244 -33.437,10.377l1.458,-17.2c8.763,-1.133 17.37,-4.05 25.156,-8.594l8.764,-5.039l244.244,-141.185c6.81,-3.893 11.029,-10.872 11.029,-18.828l-0,-0.651c-0,-10.547 10.234,-20.612 10.234,-20.612l0,-0.326c4.206,6.172 6.484,13.633 6.484,21.433Z" style="fill:#c4c4c4;fill-rule:nonzero;"/><path d="M810.247,851.523c8.06,-1.51 15.977,-4.452 23.086,-8.606l252.982,-146.198c8.424,-4.818 13.464,-13.438 13.464,-23.047c-0,-4.583 2.278,-9.193 4.622,-12.682c1.562,3.906 2.37,8.138 2.37,12.526c-0,12.33 -6.315,23.307 -16.888,29.349l-253.008,146.25l-0.599,0.156l-0.963,0.625c-7.774,4.362 -16.563,7.422 -25.691,8.997l0.625,-7.37Z" style="fill:#e0e1e0;fill-rule:nonzero;"/><path d="M203.646,710.287l-5.196,-54.206l-1.627,-17.852l-0.651,-6.328l-1.94,-20.286l-5.365,-56.641l-1.784,-18.177l-0.482,-5.521l-1.953,-20.442l-5.026,-52.748l-1.627,-18.503l-2.37,-24.778l-20.508,-13.359c-6.341,-4.154 -11.302,-9.701 -14.909,-15.99l7.279,77.174l4.388,46.419l4.544,48.191l5.195,54.049l4.545,48.19l4.7,49.506l8.047,72.057c0,-0 4.453,20.443 18.451,20.443c10.403,-0 13.945,-10.365 13.945,-10.365l-5.716,-60.873l-1.94,-19.96Z" style="fill:#828383;fill-rule:nonzero;"/><path d="M200.156,798.151c-9.739,0 -13.672,-16.471 -13.711,-16.628l-7.955,-71.549l-29.128,-307.435c1.836,1.641 3.802,3.138 5.885,4.505l18.542,12.084l2.148,22.435l1.615,18.476l7.474,78.711l1.797,18.216l7.943,83.269l1.614,17.799l7.148,74.206l5.6,59.635c-0.899,1.862 -3.594,6.276 -8.972,6.276Z" style="fill:#b9b8b9;fill-rule:nonzero;"/><path d="M588.581,932.774c-1.941,-0.652 -12.657,-4.219 -18.177,-1.784c-5.196,2.435 -6.485,6.328 -6.485,6.328l-358.333,-207.071l-27.917,-16.067c-2.591,-1.459 -4.87,-3.256 -6.81,-5.195c-7.63,-7.149 -11.849,-16.875 -11.849,-27.435c0,-8.112 2.604,-15.899 7.149,-22.071c-0,0 8.593,-3.073 9.401,5.847c0.651,5.52 0.325,9.414 0.169,11.523l0,0.326l-0.325,1.627l-0.17,2.748c0,7.799 3.893,14.609 10.547,18.502l17.865,10.235l384.935,222.487Z" style="fill:#828383;fill-rule:nonzero;"/><path d="M181.38,706.641c-2.135,-1.198 -4.075,-2.67 -5.82,-4.401c-6.758,-6.341 -10.417,-14.831 -10.417,-23.998c0,-6.276 1.797,-12.435 5.104,-17.578l0.3,0c1.081,0 1.315,0.365 1.445,1.797c0.586,5.026 0.326,8.477 0.169,10.534c-0.52,2.812 -0.52,4.115 -0.52,5.247c-0,9.466 4.843,17.956 12.955,22.709l17.891,10.26l367.005,212.109c-2.565,1.251 -4.427,2.761 -5.781,4.206l-382.331,-220.885Z" style="fill:#c4c4c4;fill-rule:nonzero;"/><path d="M797.278,947.057l-1.614,17.045l-1.953,-0c-14.935,-0 -29.857,-3.907 -43.008,-11.524l-554.531,-320.677l-29.375,-17.044c-1.94,-1.133 -3.568,-2.279 -5.183,-3.568c-8.932,-7.148 -13.958,-17.851 -13.958,-29.544c0,-9.245 3.073,-17.852 8.763,-24.505c0,-0 8.594,-3.073 9.401,5.846c0.495,4.388 0.495,7.63 0.169,9.896c-1.132,2.604 -1.783,5.69 -1.783,8.763c-0,7.799 4.049,14.935 10.872,18.828l19.154,11.042l564.752,326.51c11.849,6.823 25.156,9.909 38.294,8.932Z" style="fill:#828383;fill-rule:nonzero;"/><path d="M801.042,953.933c-13.425,-0.391 -35.079,-2.175 -46.628,-8.881l-583.906,-337.708c-1.706,-1.003 -3.138,-2.018 -4.584,-3.177c-7.708,-6.159 -12.135,-15.534 -12.135,-25.716c0,-7.422 2.305,-14.454 6.523,-20.013l0.482,-0.026c1.094,-0 1.328,0.364 1.445,1.81c0.535,4.713 0.404,7.356 0.209,8.775c-1.055,1.954 -1.836,5.756 -1.836,9.454c-0,9.518 5.104,18.346 13.333,23.046l583.867,337.54c10.912,6.276 31.68,7.539 43.92,7.656l-0.69,7.24Z" style="fill:#c4c4c4;fill-rule:nonzero;"/><path d="M805.716,852.279l-1.458,17.2c-2.917,0.326 -5.677,0.495 -8.594,0.495c-14.935,-0 -30.026,-3.893 -43.503,-11.693l-565.56,-327.005l-25.481,-14.766c-3.568,-2.109 -6.654,-4.544 -9.245,-7.461c-6.328,-6.978 -10.065,-16.236 -10.065,-26.132c-0,-7.305 1.953,-14.284 5.677,-20.287c-0,0 10.065,-3.411 10.872,5.521c0.977,8.919 0.326,14.115 0.326,14.115l-0,0.651c-0,7.955 4.062,15.091 10.872,19.154l15.091,8.763l575.951,332.851c13.802,7.943 29.701,10.872 45.117,8.594Z" style="fill:#828383;fill-rule:nonzero;"/><path d="M796.927,861.797c-14.362,-0 -28.567,-3.815 -41.055,-11.029l-591.041,-341.784c-3.217,-1.901 -5.86,-4.023 -8.047,-6.484c-5.716,-6.276 -8.828,-14.401 -8.828,-22.904c-0,-5.69 1.354,-11.185 3.945,-15.989l0.95,-0.065c1.628,-0 1.797,0.286 1.928,1.745c0.898,8.216 0.351,13.034 0.338,13.086c-0.026,10.911 4.922,19.635 13.229,24.57l591.107,341.641c11.328,6.549 24.245,10 37.357,10c1.614,-0 11.836,-2.956 13.437,-3.061l-0.625,7.37c-1.341,0.079 -11.302,2.904 -12.695,2.904Z" style="fill:#c4c4c4;fill-rule:nonzero;"/><path d="M455.664,181.029c-12.031,-0 -23.932,3.229 -34.427,9.31l-251.836,145.416c-10.247,5.938 -11.042,15.938 -11.042,18.868c-0.404,5.533 2.032,13.841 10.156,18.906l55.521,36.25l15.951,10.247l261.393,170.378l124.492,80.976l133.06,86.836c11.446,7.461 24.675,11.433 38.242,11.433c12.24,-0 24.375,-3.269 35.131,-9.414l15.273,-8.763l36.38,-21.12l200.261,-115.703c6.484,-3.672 10.416,-10.131 10.989,-18.099c0.039,-8.594 -3.593,-15.339 -10.169,-19.584l-590.534,-384.609c-7.174,-4.531 -14.622,-7.63 -22.213,-9.258c-5.196,-1.341 -10.912,-2.07 -16.628,-2.07Zm341.614,604.791c-16.809,0 -33.125,-4.817 -47.174,-13.945l-254.948,-166.028l-335.612,-218.751c-11.302,-7.382 -17.812,-19.804 -17.409,-33.216c0.404,-13.476 7.553,-25.481 19.128,-32.135l251.888,-145.43c13.138,-7.604 28.034,-11.614 43.086,-11.614c16.719,-0 32.995,4.883 47.07,14.14l590.743,384.636c11.197,7.187 17.695,19.57 17.422,33.125c-0.404,13.281 -7.592,25.377 -19.245,32.291l-251.771,145.365c-13.269,7.552 -28.204,11.562 -43.178,11.562Z" style="fill:#e0e1e0;fill-rule:nonzero;"/><path d="M496.471,193.594c-21.588,-2.93 -26.458,-22.565 -26.458,-22.565l-26.94,-53.711l-96.888,-47.878l-6.328,-57.617l124.323,79.857l4.374,3.724l43.816,89.427c-0,-0 1.302,11.198 -15.899,8.763Z" style="fill:#828383;fill-rule:nonzero;"/><path d="M41.419,268.503l-24.375,-42.162l331.172,-191.562c7.735,-4.466 17.63,-1.823 22.097,5.911l2.161,3.737c7.799,13.477 3.19,30.729 -10.299,38.542l-320.756,185.534Z" style="fill:url(#_Linear1);"/><path d="M112.656,310.781l-8.867,-15.351l338.464,-195.104c2.812,-1.628 6.419,-0.664 8.047,2.161l0.781,1.354c2.838,4.909 1.159,11.198 -3.751,14.037l-334.674,192.903Z" style="fill:url(#_Linear2);"/><path d="M339.844,12.07l17.2,-12.07l111.433,95.469l-12.488,7.435l-116.145,-90.834Z" style="fill:#e0e1e0;fill-rule:nonzero;"/><path d="M496.471,193.594l-40.416,-90.716l12.499,-7.474l43.816,89.427c-0,-0 1.302,11.198 -15.899,8.763Z" style="fill:#b9b8b9;fill-rule:nonzero;"/><path d="M163.62,364.635l-0,0.496c-0,2.109 -0.651,10.221 -12.175,8.919l-2.76,0.169c-9.245,1.289 -8.594,16.224 -8.594,16.224l-37.005,-75.625l-96.719,-47.709l-6.328,-57.617l124.31,79.844l4.219,3.737l1.458,2.76l33.594,68.802Z" style="fill:#828383;fill-rule:nonzero;"/><path d="M-0,209.688l17.2,-12.058l111.433,95.469l-12.487,7.435l-116.146,-90.846Z" style="fill:#e0e1e0;fill-rule:nonzero;"/><path d="M163.62,365.131c-0,2.109 -0.651,10.221 -12.175,8.919l-2.76,0.169l-32.617,-73.203l12.5,-7.461l35.052,71.576Z" style="fill:#b9b8b9;fill-rule:nonzero;"/><defs><linearGradient id="_Linear1" x1="0" y1="0" x2="1" y2="0" gradientUnits="userSpaceOnUse" gradientTransform="matrix(24.5013,42.4375,-42.4375,24.5013,189.557,126.376)"><stop offset="0" style="stop-color:#f0494b;stop-opacity:1"/><stop offset="0.1" style="stop-color:#f0494b;stop-opacity:1"/><stop offset="0.2" style="stop-color:#f05656;stop-opacity:1"/><stop offset="0.4" style="stop-color:#f05656;stop-opacity:1"/><stop offset="0.5" style="stop-color:#c23327;stop-opacity:1"/><stop offset="0.8" style="stop-color:#c23327;stop-opacity:1"/><stop offset="0.9" style="stop-color:#961f1f;stop-opacity:1"/><stop offset="1" style="stop-color:#961f1f;stop-opacity:1"/></linearGradient><linearGradient id="_Linear2" x1="0" y1="0" x2="1" y2="0" gradientUnits="userSpaceOnUse" gradientTransform="matrix(9.00643,15.5996,-15.5996,9.00643,275.495,196.28)"><stop offset="0" style="stop-color:#e8e8e9;stop-opacity:1"/><stop offset="0.1" style="stop-color:#e8e8e9;stop-opacity:1"/><stop offset="0.2" style="stop-color:#dcdbdb;stop-opacity:1"/><stop offset="0.4" style="stop-color:#dcdbdb;stop-opacity:1"/><stop offset="0.5" style="stop-color:#a9aaac;stop-opacity:1"/><stop offset="0.8" style="stop-color:#a9aaac;stop-opacity:1"/><stop offset="0.9" style="stop-color:#7e7f81;stop-opacity:1"/><stop offset="1" style="stop-color:#7e7f81;stop-opacity:1"/></linearGradient></defs></svg>