<?xml version="1.0" encoding="UTF-8" standalone="no"?><!DOCTYPE svg PUBLIC "-//W3C//DTD SVG 1.1//EN" "http://www.w3.org/Graphics/SVG/1.1/DTD/svg11.dtd"><svg width="100%" height="100%" viewBox="0 0 2681 5947" version="1.1" xmlns="http://www.w3.org/2000/svg" xmlns:xlink="http://www.w3.org/1999/xlink" xml:space="preserve" xmlns:serif="http://www.serif.com/" style="fill-rule:evenodd;clip-rule:evenodd;stroke-linejoin:round;stroke-miterlimit:2;"><path d="M1945.58,2609.26c-0.652,12.629 -1.694,25.259 -0.912,38.151c2.994,56.38 63.41,137.239 -7.293,177.604c-32.682,18.62 -78.516,4.036 -94.792,-29.557c-6.51,-13.412 -6.641,-28.907 -6.38,-43.88c0.913,-55.339 4.168,-111.85 -11.066,-164.975c-6.901,-23.827 -17.449,-46.744 -21.616,-71.223c-2.995,-17.058 -2.734,-34.375 -2.213,-51.564c0.652,-19.79 5.859,-32.421 19.14,-46.614c2.995,-3.125 31.901,-39.062 23.569,-42.057c19.401,6.902 31.509,25.781 41.145,44.011c14.193,26.822 26.041,54.817 37.11,83.073c9.375,24.349 18.359,49.219 22.265,75.13c1.561,10.807 1.434,21.353 1.043,31.901Z" style="fill:#f5874d;fill-rule:nonzero;"/><path d="M1109.38,4732.05l-0,0.651c-6.384,76.172 -59.767,151.172 -160.809,209.245c-216.147,124.739 -567.449,124.088 -785.287,-1.302c-87.5,-50.911 -139.844,-114.193 -157.032,-179.557c-4.295,-16.146 -6.25,-32.292 -6.25,-48.829l0,-1.302c3.646,-21.094 7.162,-42.318 11.199,-63.02c53.775,-305.209 111.459,-610.157 198.959,-907.422c23.047,-77.605 118.488,-389.063 151.17,-464.584c68.62,-160.156 143.49,-317.187 218.099,-474.609c15.497,-32.292 31.252,-65.235 55.078,-92.057c46.876,124.479 196.616,209.895 305.859,271.614c36.59,20.443 76.564,39.974 107.292,69.011c26.693,25 25.002,71.224 21.356,105.859c-5.859,57.161 -24.999,112.5 -54.427,161.719c-13.802,23.046 -35.289,41.927 -48.828,64.062c-12.89,20.443 -2.994,51.433 -1.694,74.48c2.085,46.614 4.037,92.708 5.989,138.932c2.346,59.114 76.304,630.859 129.687,1059.89c3.255,26.433 6.641,52.084 9.639,77.214Z" style="fill:#fab089;fill-rule:nonzero;"/><path d="M2680.34,5612.12c5.859,86.719 -48.568,174.219 -163.021,240.104c-218.751,126.433 -574.869,125.781 -795.314,-1.301c-88.669,-51.433 -141.795,-115.495 -159.244,-181.772c-0.782,-6.64 -1.04,-13.541 -1.431,-20.833c-0.912,-19.792 -23.699,-837.369 -37.501,-1140.62c-9.245,-210.938 -23.439,-421.745 -47.916,-631.25c-10.287,-89.844 -9.896,-196.094 -53.778,-274.61c-43.227,-77.213 -113.15,-135.546 -181.51,-189.713c-43.23,-33.984 -78.516,-81.12 -114.453,-123.046c-81.25,-95.313 -139.974,-211.459 -239.582,-290.366c-33.986,-27.082 -72.267,-48.828 -105.601,-77.213c-39.323,-33.333 -70.572,-74.87 -101.951,-115.886c-20.443,-26.952 -40.626,-53.776 -61.07,-80.468c-6.898,-9.246 -13.799,-18.49 -20.831,-27.343c-6.902,-9.246 -14.064,-18.881 -21.095,-28.126c-7.159,-9.896 -15.103,-20.052 -19.141,-32.03c-9.244,-26.042 4.95,-55.991 5.989,-83.073c1.695,-32.683 -2.603,-65.626 -12.89,-97.006c-7.55,-23.178 -18.489,-45.573 -23.435,-69.662c-4.95,-23.697 -2.998,-50.781 12.499,-69.921c20.183,-24.74 57.16,-28.776 88.8,-23.178c18.231,3.386 35.938,9.246 51.174,19.922c21.092,14.453 35.677,36.849 47.786,60.026c21.483,40.495 37.371,85.157 67.056,120.052c39.844,47.266 99.611,71.615 155.341,98.047c41.926,19.792 98.435,71.875 142.316,33.334c16.798,-14.844 28.385,-35.677 45.834,-50.131c37.89,-31.119 94.401,-25.521 139.192,-6.38c45.312,19.531 84.505,50.521 130.078,68.359c60.027,23.699 127.735,23.047 190.366,7.553c62.758,-15.495 120.834,-45.183 176.56,-78.125c10.809,-6.641 23.699,-13.542 36.329,-9.896c21.747,6.511 23.699,35.938 27.997,54.037c7.94,33.333 18.097,66.406 27.341,99.349c18.492,67.317 36.981,134.244 55.469,201.562c36.981,134.375 74.218,268.619 111.199,402.994c39.975,145.183 83.853,289.063 128.386,432.553c54.427,175.911 109.896,351.432 160.415,528.906c57.684,203.906 216.668,764.844 342.448,1266.15c5.989,23.047 11.591,46.224 17.189,69.01Z" style="fill:#fedfc4;fill-rule:nonzero;"/><path d="M1606.51,1977.62c31.9,-8.203 69.011,-11.459 95.053,8.855c27.602,21.743 31.77,60.936 42.578,94.401c20.571,62.89 70.572,112.889 91.794,175.651c9.766,29.297 13.021,60.286 17.189,91.015c8.723,63.803 22.135,127.084 39.975,188.933c10.156,35.807 22.004,73.437 12.369,109.245c-2.082,7.29 -5.207,14.713 -11.069,19.4c-7.42,5.599 -17.576,5.99 -26.56,3.906c-30.73,-6.9 -50.131,-36.979 -62.11,-66.146c-11.72,-28.645 -19.661,-58.593 -28.518,-88.281c-43.226,-144.531 -112.107,-283.073 -213.54,-394.661c-14.842,-16.145 -30.6,-32.552 -37.629,-53.256c-19.792,-58.464 37.238,-77.995 80.468,-89.062Z" style="fill:#f79460;fill-rule:nonzero;"/><path d="M1081.25,1901.06c20.834,-22.917 43.099,-48.176 73.569,-53.646c33.852,-5.989 66.274,14.323 94.789,33.465c114.714,76.822 234.636,149.609 327.346,251.822c28.905,31.77 55.729,68.229 61.718,110.808c-86.848,-47.787 -176.433,-96.485 -274.61,-109.636c-70.312,-9.375 -142.187,-0 -212.368,-10.026c-56.251,-7.943 -110.028,-28.124 -163.021,-48.438c-18.361,-7.031 -36.85,-16.797 -36.328,-39.192c0.391,-16.146 13.411,-23.828 24.608,-33.463c36.98,-31.642 71.744,-65.626 104.297,-101.694Z" style="fill:#fedfc4;fill-rule:nonzero;"/><path d="M1460.81,2261.99c7.289,41.277 51.431,65.887 67.056,104.819c6.901,17.317 7.944,36.718 16.015,53.385c8.593,17.708 24.481,30.859 33.595,48.178c5.859,11.198 8.723,23.567 11.717,35.807c16.016,65.233 38.281,128.905 66.278,189.843c16.536,36.329 36.067,72.656 66.404,98.567c15.758,13.282 35.028,23.829 55.599,24.089c35.938,0.651 66.277,-30.469 76.434,-64.974c10.157,-34.374 4.686,-71.354 -1.955,-106.77c-38.541,-206.511 -112.238,-406.38 -217.056,-588.541c-10.939,-19.012 -23.569,-40.366 -42.318,-52.866c-17.967,-11.849 -41.405,-10.807 -62.11,-9.635c-56.899,3.385 -113.411,10.156 -170.053,16.797c-32.812,3.906 -142.968,29.036 -165.233,36.588c-13.673,4.687 -27.342,9.376 -40.624,14.844c-2.994,1.171 -6.38,2.864 -7.422,5.989c-1.304,3.777 1.43,7.814 4.167,10.939c30.597,35.807 56.378,70.182 95.571,97.656c19.922,13.931 41.018,26.042 63.152,36.068c21.875,9.896 46.486,13.931 67.838,24.218c27.864,13.282 50.65,25.781 82.945,24.999Z" style="fill:#f8a174;fill-rule:nonzero;"/><path d="M983.985,2318.89c-40.235,-7.16 -76.691,-27.604 -110.807,-49.869c-49.089,38.672 -98.178,77.345 -147.267,116.016c-19.791,15.755 -50.91,30.729 -67.316,11.328c-15.103,-17.838 -1.434,-60.547 6.901,-79.948c14.321,-33.204 30.858,-65.625 48.568,-97.004c35.025,-62.371 76.303,-121.355 122.785,-175.653c14.976,-17.578 30.861,-34.895 51.174,-45.962c32.81,-17.969 73.436,-16.928 109.244,-5.73c35.677,11.328 67.577,32.032 99.09,52.344c81.38,52.865 162.76,105.599 244.14,158.464c44.531,28.775 89.321,57.812 128.775,93.358c58.333,52.344 103.906,117.579 143.49,185.286c35.546,60.548 64.061,123.179 79.555,191.538c16.928,74.088 30.47,148.958 40.627,224.349c-22.917,-29.037 -54.166,-55.859 -73.697,-86.849c-16.146,-25.521 -29.297,-53.386 -46.094,-79.167c-18.362,-28.256 -33.595,-55.469 -56.512,-80.078c-24.738,-26.563 -49.349,-53.125 -73.957,-79.557c-54.948,-58.985 -110.417,-117.968 -172.917,-169.011c-31.119,-25.52 -64.062,-48.958 -99.09,-68.75c-25.39,-14.453 -77.343,-48.828 -107.552,-44.402c-17.316,2.606 -34.504,21.616 -52.732,26.694c-21.486,5.989 -44.534,6.51 -66.408,2.603Z" style="fill:#fedfc4;fill-rule:nonzero;"/><path d="M1727.74,2866.68c1.952,36.978 -14.194,77.213 -47.919,92.447c-24.999,11.198 -55.078,6.511 -79.556,-6.249c-24.35,-12.891 -44.142,-33.074 -62.631,-53.516c-59.375,-66.016 -111.198,-138.542 -174.869,-200.912c-29.427,-29.036 -62.761,-59.114 -98.047,-80.209c-1.694,-1.041 -3.255,-1.691 -4.949,-2.343c-9.505,-4.557 -20.832,-6.249 -32.292,-5.858c-34.634,0.91 -74.87,17.447 -102.993,24.088c-21.096,4.948 -42.839,8.464 -64.714,7.812c-21.356,-0.912 -37.501,-8.464 -57.032,-15.496c-31.64,-10.806 -60.025,-26.041 -89.713,-41.535c-54.426,-27.995 -108.595,-60.678 -150.782,-105.86c-21.483,-22.786 -41.014,-56.51 -38.28,-89.192c2.603,-29.949 21.092,-41.927 46.094,-53.776c51.823,-24.349 107.552,-39.845 164.321,-48.178c71.354,-10.546 143.62,-10.546 215.496,-6.511c36.328,1.954 72.657,5.209 108.594,11.459c33.983,6.251 73.306,13.933 102.603,33.073c33.725,21.745 60.419,52.474 85.809,83.073c91.797,110.938 174.608,228.647 243.488,354.818c17.841,32.291 35.026,66.276 37.372,102.865Z" style="fill:#fab793;fill-rule:nonzero;"/><path d="M531.511,2417.98c6.511,29.297 17.84,57.421 29.167,85.155c8.335,1.693 14.194,-7.681 18.749,-14.974c15.237,-24.479 43.751,-37.889 60.158,-61.588c2.864,-4.166 5.337,-8.853 5.468,-13.801c0.13,-3.386 -0.913,-6.771 -1.952,-10.027c-7.814,-25 -18.231,-49.349 -31.122,-72.266c-2.734,-4.948 -5.598,-9.896 -9.765,-13.671c-4.817,-4.298 -11.066,-6.771 -17.316,-8.333c-67.711,-17.578 -62.37,68.879 -53.387,109.505Z" style="fill:#5a469c;fill-rule:nonzero;"/><path d="M717.58,2533.48c-9.896,72.916 -45.834,142.187 -99.612,191.666c-6.898,-9.246 -13.799,-18.49 -20.831,-27.343c3.385,-1.954 7.032,-3.646 9.635,-5.339c21.092,-12.891 38.932,-29.297 54.426,-48.437c26.433,-32.422 46.225,-70.052 56.382,-110.547Z" style="fill:#fab793;fill-rule:nonzero;"/><path d="M1303,2704.31c-71.354,-8.594 -152.734,12.76 -216.017,29.037c-97.787,25.259 -191.536,66.666 -274.738,124.088c-41.535,28.646 -80.468,60.676 -118.1,94.14c-100.259,89.324 -132.942,221.094 -55.599,337.76c40.887,61.719 107.683,106.511 180.861,117.058c26.172,3.646 53.254,3.125 78.256,-5.599c42.966,-14.843 75.518,-53.125 89.581,-96.354c16.016,-49.219 5.99,-92.318 -3.906,-140.755c-8.463,-41.537 43.36,-65.235 75.26,-82.422c61.067,-32.943 122.268,-65.886 185.156,-95.052c51.823,-23.828 108.725,-51.563 146.224,-97.266c19.14,-23.438 31.773,-51.042 35.416,-81.12c4.95,-40.625 -10.675,-55.729 -44.009,-77.084c-23.438,-14.844 -50.131,-23.045 -78.385,-26.431Z" style="fill:#fab793;fill-rule:nonzero;"/><path d="M1242.32,2759.39c-2.864,1.693 -5.732,3.386 -8.596,5.078c-36.977,22.135 -42.709,54.167 -32.161,94.792c3.907,14.973 9.244,30.208 19.661,41.667c24.872,27.082 65.887,22.134 97.657,11.979c23.829,-7.553 45.964,-19.532 67.577,-32.032c36.589,-20.963 77.346,-56.51 63.152,-104.297c-5.337,-18.23 -20.704,-32.552 -38.15,-40.104c-17.579,-7.422 -37.11,-8.985 -56.12,-8.333c-39.454,1.432 -78.386,12.369 -113.02,31.25Z" style="fill:#ef4746;fill-rule:nonzero;"/><path d="M1625.26,2823.71c0.522,22.266 7.944,45.183 17.58,63.152c17.055,31.51 43.227,57.031 69.399,81.641c7.292,6.9 15.106,14.062 25.002,16.015c43.748,8.334 23.047,-72.005 16.406,-90.495c-14.454,-39.583 -34.637,-77.083 -59.636,-110.807c-9.636,-12.891 -28.255,-33.074 -44.791,-19.141c-17.971,15.235 -24.481,37.11 -23.96,59.635Z" style="fill:#ef4746;fill-rule:nonzero;"/><path d="M1259.77,2615.9c-9.505,-4.557 -20.832,-6.249 -32.292,-5.858c-8.332,-14.194 -14.19,-29.819 -18.228,-45.314c-11.199,-40.886 -9.896,-85.416 5.338,-125c-5.338,61.328 16.145,121.094 45.182,176.172Z" style="fill:#f8a174;fill-rule:nonzero;"/><path d="M1777.6,2664.73c-2.082,27.735 2.474,56.119 9.636,82.291c3.125,11.589 6.249,23.308 11.59,34.115c7.162,14.974 18.358,27.995 32.031,37.501c4.685,3.385 10.287,6.38 16.015,5.338c18.619,-3.645 13.282,-45.312 13.021,-58.724c-0.782,-26.302 -4.689,-52.605 -9.896,-78.386c-3.516,-18.099 -7.944,-36.457 -16.146,-53.124c-4.428,-8.725 -16.276,-34.636 -26.563,-35.286c-26.041,-1.432 -27.993,47.266 -29.557,63.542c-0,0.91 -0.131,1.821 -0.131,2.733Z" style="fill:#ef4746;fill-rule:nonzero;"/><path d="M1852.08,2499.1c-6.641,25.129 -5.598,52.083 0,77.473c5.601,25.52 15.628,49.869 26.433,73.568c4.689,10.157 10.026,20.833 19.792,26.303c3.255,1.692 7.292,2.733 10.678,1.041c4.167,-2.343 4.946,-7.943 5.207,-12.761c2.085,-51.692 -4.686,-103.645 -20.183,-152.864c-3.125,-10.026 -8.332,-25.911 -19.01,-30.468c-11.848,-5.079 -20.053,7.421 -22.917,17.708Z" style="fill:#ef4746;fill-rule:nonzero;"/><path d="M1967.06,2841.16c2.473,2.343 5.468,4.297 8.853,5.468c-0.778,-0.26 -1.3,-55.86 -1.56,-60.286c-1.695,-29.947 -4.95,-78.516 -27.867,-100.782c-16.406,-15.885 -10.805,26.042 -10.414,36.59c1.04,22.917 4.425,45.703 10.284,67.838c4.167,15.885 8.074,39.583 20.704,51.172Z" style="fill:#ef4746;fill-rule:nonzero;"/><path d="M745.964,201.76l310.288,-180.313c57.811,-33.581 137.888,-28.854 226.3,22.174c156.511,90.378 286.067,295.457 312.109,481.824l-310.284,180.3c-26.042,-186.355 -155.599,-391.433 -312.109,-481.824c-88.412,-51.029 -168.492,-55.755 -226.304,-22.161Z" style="fill:#e81d24;fill-rule:nonzero;"/><path d="M1594.66,525.497l-310.154,180.248c-5.21,-36.72 -14.324,-73.959 -26.954,-111.146l310.548,-179.31c12.5,36.836 21.614,73.814 26.56,110.208Z" style="fill:#f2692a;fill-rule:nonzero;"/><path d="M1372.14,563.205l310.284,-180.3c57.815,-33.58 137.762,-28.88 226.043,22.097l-310.287,180.313c-88.282,-50.977 -168.228,-55.69 -226.04,-22.11Z" style="fill:#e81d24;fill-rule:nonzero;"/><path d="M2132.68,1157.96l-310.288,180.338c57.033,-33.204 92.58,-103.645 92.841,-203.906c0.521,-201.823 -141.408,-447.657 -317.059,-549.075l310.287,-180.313c175.651,101.418 317.577,347.226 317.059,549.049c-0.261,100.26 -35.807,170.703 -92.84,203.907Z" style="fill:#e81d24;fill-rule:nonzero;"/><path d="M2225.52,953.921c-0,16.797 -1.043,32.422 -3.125,47.396l-310.027,179.036c1.952,-14.452 2.865,-29.948 2.865,-46.094c0.26,-57.551 -11.33,-119.01 -32.031,-179.427l310.675,-179.296c20.444,60.156 31.773,121.093 31.643,178.385Z" style="fill:#f2692a;fill-rule:nonzero;"/><path d="M2222.53,999.885c-9.377,76.171 -41.929,130.208 -89.976,158.073l-310.157,180.338c48.18,-27.995 80.993,-82.421 90.107,-159.244l310.026,-179.167Z" style="fill:#ffc627;fill-rule:nonzero;"/><path d="M1598.18,585.315c175.651,101.418 317.58,347.252 317.059,549.075c-0.261,102.473 -37.241,173.697 -96.484,205.99l-536.979,300.129l-535.809,-922.004c-57.812,-100.378 -92.967,-212.019 -92.707,-312.774c0.519,-201.757 143.36,-283.23 319.011,-181.81c156.51,90.391 286.067,295.469 312.109,481.824c26.951,-155.796 157.42,-210.769 313.8,-120.43Z" style="fill:#ecedec;fill-rule:nonzero;"/><path d="M1915.24,1134.26c-0,16.407 -0.913,31.902 -2.865,46.616c-9.374,75.129 -41.535,128.774 -88.933,156.639c-1.431,1.043 -3.125,1.954 -4.686,2.866l-178.127,99.608l-183.071,102.215l-175.781,98.437l-174.741,-300.781l-181.64,-312.761l-179.298,-308.593c-0.912,-1.563 -1.691,-2.866 -2.342,-4.298c-47.268,-82.943 -79.038,-173.306 -87.891,-258.711c-1.825,-16.874 -2.734,-33.45 -2.734,-49.739c0.261,-56.497 11.457,-103.45 31.64,-139.701c0.26,-0.586 0.521,-1.028 0.782,-1.471c50.519,-89.805 155.337,-112.11 277.083,-46.068c3.125,1.758 6.381,3.516 9.505,5.43c0.779,0.429 1.431,0.729 2.083,1.171c125.001,73.074 232.683,219.077 283.594,369.78c0.26,0.885 0.521,1.614 0.651,2.5c12.239,36.08 20.962,72.668 26.042,108.347c5.077,-29.949 14.06,-56.121 26.172,-78.256c0.391,-0.391 0.649,-1.042 0.909,-1.433c50.653,-89.7 155.471,-112.16 277.084,-46.12c3.125,1.758 6.25,3.516 9.505,5.417c0.782,0.456 1.564,0.885 2.346,1.472c124.868,73.086 232.29,218.788 283.203,369.44c0.261,0.781 0.649,1.563 0.779,2.343c19.922,59.246 30.991,119.272 30.731,175.651Z" style="fill:#fcb144;fill-rule:nonzero;"/><path d="M1257.81,594.898c0.26,0.885 0.521,1.614 0.651,2.5l-573.698,-331.342c0.26,-0.586 0.521,-1.028 0.782,-1.471c50.519,-89.805 155.337,-112.11 277.083,-46.068c3.125,1.758 6.381,3.516 9.505,5.43c0.779,0.429 1.431,0.729 2.083,1.171c125.001,73.074 232.683,219.077 283.594,369.78Z" style="fill:#ef4746;fill-rule:nonzero;"/><path d="M1884.51,958.608l-573.826,-331.119c0.391,-0.391 0.649,-1.042 0.909,-1.433c50.653,-89.7 155.471,-112.16 277.084,-46.12c3.125,1.758 6.25,3.516 9.505,5.417c0.782,0.456 1.564,0.885 2.346,1.472c124.868,73.086 232.29,218.788 283.203,369.44c0.261,0.781 0.649,1.563 0.779,2.343Z" style="fill:#ef4746;fill-rule:nonzero;"/><path d="M1915.24,1134.26c-0,16.407 -0.913,31.902 -2.865,46.616l-1256.51,-725.379c-1.825,-16.874 -2.734,-33.45 -2.734,-49.739c0.261,-56.497 11.457,-103.45 31.64,-139.701c0.26,-0.586 0.521,-1.028 0.782,-1.471l572.265,330.313c0.26,0.885 0.521,1.614 0.651,2.5c12.239,36.08 20.962,72.668 26.042,108.347c5.077,-29.949 14.06,-56.121 26.172,-78.256c0.391,-0.391 0.649,-1.042 0.909,-1.433l572.138,330.209c0.261,0.781 0.649,1.563 0.779,2.343c19.922,59.246 30.991,119.272 30.731,175.651Z" style="fill:#f57f29;fill-rule:nonzero;"/><path d="M1912.37,1180.88c-9.374,75.129 -41.535,128.774 -88.933,156.639l-1079.69,-623.307c-47.268,-82.943 -79.038,-173.306 -87.891,-258.711l1256.51,725.379Z" style="fill:#fdd656;fill-rule:nonzero;"/><path d="M1823.44,1337.51c-1.431,1.043 -3.125,1.954 -4.686,2.866l-178.127,99.608l-715.233,-412.89l-179.298,-308.593c-0.912,-1.563 -1.691,-2.866 -2.342,-4.298l1079.69,623.307Z" style="fill:#41b64e;fill-rule:nonzero;"/><path d="M1640.62,1439.99l-183.071,102.215l-350.522,-202.344l-181.64,-312.761l715.233,412.89Z" style="fill:#43a3db;fill-rule:nonzero;"/><path d="M1457.55,1542.2l-175.781,98.437l-174.741,-300.781l350.522,202.344Z" style="fill:#5a469c;fill-rule:nonzero;"/></svg>