<?xml version="1.0" encoding="UTF-8" standalone="no"?><!DOCTYPE svg PUBLIC "-//W3C//DTD SVG 1.1//EN" "http://www.w3.org/Graphics/SVG/1.1/DTD/svg11.dtd"><svg width="100%" height="100%" viewBox="0 0 11951 25547" version="1.1" xmlns="http://www.w3.org/2000/svg" xmlns:xlink="http://www.w3.org/1999/xlink" xml:space="preserve" xmlns:serif="http://www.serif.com/" style="fill-rule:evenodd;clip-rule:evenodd;stroke-linejoin:round;stroke-miterlimit:2;"><path d="M3176.3,24757.3c0,-393.75 278.126,-873.438 621.224,-1071.47c172.787,-99.753 328.776,-108.738 441.407,-43.243l564.062,360.417l-914.844,1491.93l-529.687,-338.542c-112.63,-64.062 -182.162,-202.083 -182.162,-399.088Z" style="fill:#1a1e2d;fill-rule:nonzero;"/><path d="M3723.96,25107.3c0,393.75 278.125,552.344 621.224,354.297c343.1,-198.177 621.225,-677.865 621.225,-1071.62c-0,-393.75 -278.125,-552.344 -621.225,-354.166c-343.099,198.046 -621.224,677.864 -621.224,1071.48Z" style="fill:#313540;fill-rule:nonzero;"/><path d="M9588.8,21055.1c-0,-393.751 278.124,-873.438 621.223,-1071.62c172.787,-99.739 328.776,-108.723 441.407,-43.099l564.061,360.417l-914.843,1491.93l-529.687,-338.541c-112.5,-64.063 -182.161,-202.213 -182.161,-399.088Z" style="fill:#1a1e2d;fill-rule:nonzero;"/><path d="M10136.5,21405.1c0,393.751 278.255,552.344 621.225,354.167c343.229,-198.047 621.224,-677.865 621.224,-1071.48c-0,-393.75 -277.995,-552.344 -621.224,-354.298c-342.97,198.178 -621.225,677.865 -621.225,1071.62Z" style="fill:#313540;fill-rule:nonzero;"/><path d="M10312.2,21303.6c0,282.291 199.48,395.964 445.444,253.906c246.093,-142.057 445.573,-486.068 445.573,-768.359c-0,-282.422 -199.48,-396.094 -445.573,-254.037c-245.964,142.058 -445.444,486.068 -445.444,768.49Z" style="fill:#c3bdb4;fill-rule:nonzero;"/><path d="M3899.74,25005.9c-0,282.291 199.478,396.093 445.442,254.036c246.094,-142.057 445.444,-486.068 445.444,-768.359c-0,-282.422 -199.35,-396.094 -445.444,-254.037c-245.964,142.057 -445.442,486.068 -445.442,768.36Z" style="fill:#c3bdb4;fill-rule:nonzero;"/><path d="M500.182,23212c0,-393.619 278.139,-873.437 621.237,-1071.48c172.708,-99.74 328.776,-108.724 441.407,-43.099l564.049,360.417l-914.844,1491.81l-529.726,-338.541c-112.526,-63.945 -182.123,-202.097 -182.123,-399.102Z" style="fill:#1a1e2d;fill-rule:nonzero;"/><path d="M1047.83,23562.1c-0,393.606 278.19,552.2 621.263,354.153c343.125,-198.047 621.237,-677.865 621.237,-1071.61c-0,-393.62 -278.112,-552.214 -621.237,-354.167c-343.073,198.177 -621.263,677.864 -621.263,1071.63Z" style="fill:#313540;fill-rule:nonzero;"/><path d="M209.818,21237.4c-0,0 192.734,198.958 290.586,144.662c512.682,-284.376 1045.22,-527.214 1567.06,-786.459c121.601,72.656 243.229,145.313 364.818,217.969l-0,150.781c-319.87,184.766 -639.753,369.401 -959.648,554.036c-126.876,252.344 -253.776,504.558 -380.665,756.771c-161.263,93.099 -322.526,186.198 -483.789,279.297c-132.799,-196.354 -265.56,-392.708 -398.359,-589.062l-0,-727.995Z" style="fill:#3b3444;fill-rule:nonzero;"/><path d="M1049.19,8220.6c1953.91,-1128.07 3907.84,-2256.16 5861.61,-3384.25c559.896,-323.163 1061.72,-62.147 1049.22,598.204c0,3741.07 -1494.53,6619.48 -1494.53,10360.5c0,44.531 -31.771,99.219 -70.443,121.615c-2606.38,1504.82 -3527.39,4578.65 -6133.74,6083.33c-38.79,22.396 -261.316,-702.083 -261.316,-746.484l-0,-11223.2c0.026,-642.382 480.026,-1495.47 1049.19,-1809.74Z" style="fill:url(#_Linear1);"/><path d="M11426.2,6356.82l-3055.6,-1763.76c-4.166,-2.42 -8.334,-4.882 -12.63,-7.238l-5.078,-3.009c-235.156,-127.864 -554.427,-108.385 -901.302,91.901c-1982.68,1144.7 -3965.24,2289.39 -5947.96,3434.08c-704.206,406.523 -1296.69,1427.89 -1296.65,2236.52l-0,11534.5c-0,53.776 19.011,90.625 47.344,112.37l-1.406,2.994l8.425,4.818c1.275,0.911 2.499,1.562 3.827,2.214l3063.24,1769.4l3305.99,-7109.77c142.969,-82.552 285.937,-165.104 428.906,-247.656c104.688,-60.417 190.364,-208.073 190.364,-328.255l0,-755.73l4172.53,-8973.39Z" style="fill:url(#_Linear2);"/><path d="M2690.47,7579.69l808.88,466.979l3830.99,-2211.8l-808.984,-466.992l-3830.89,2211.81Z" style="fill:#9ba2b4;fill-rule:nonzero;"/><path d="M5560.16,18784.4c-0,393.62 287.499,557.552 630.598,359.505c342.969,-198.176 630.469,-693.88 630.469,-1087.63c-0,-393.62 -287.5,-557.552 -630.469,-359.375c-343.099,198.047 -630.598,693.75 -630.598,1087.5Z" style="fill:#3b3444;fill-rule:nonzero;"/><path d="M5750.52,18674.5c0,268.36 212.11,371.615 440.234,250.911c243.36,-128.775 440.104,-508.202 440.104,-759.244c0,-250.911 -196.744,-403.125 -440.104,-250.911c-228.124,142.578 -440.234,490.885 -440.234,759.244Z" style="fill:#3b3444;fill-rule:nonzero;"/><path d="M7253.65,15445.1c0,0 -192.707,421.484 -290.624,480.209c-513.021,307.421 -1045.31,679.818 -1567.06,1023.05c-121.616,213.021 -243.23,426.042 -364.844,639.193l-0,150.781c319.921,-184.635 639.844,-369.27 959.635,-554.036c126.953,105.729 253.776,211.458 380.729,317.187c161.328,-93.098 322.526,-186.198 483.724,-279.297c132.814,-349.739 265.625,-699.348 398.437,-1049.09l0,-727.995Z" style="fill:#3b3444;fill-rule:nonzero;"/><path d="M4566.8,9877.48c1982.68,-1144.62 3965.23,-2289.31 5947.92,-3434c704.818,-406.941 1296.74,-68.854 1296.61,739.296l-0,11534.5c-0,120.182 -85.546,267.838 -190.234,328.386c-2720.18,1570.44 -5440.36,3140.89 -8160.55,4711.46c-104.688,60.417 -190.364,11.589 -190.364,-108.593l-0,-11534.5c-0.131,-808.593 592.448,-1829.95 1296.61,-2236.59Z" style="fill:url(#_Linear3);"/><path d="M4858.33,10246.9c1953.91,-1128.14 3907.81,-2256.21 5861.72,-3384.3c559.765,-323.164 1061.72,-62.15 1049.22,598.203l-0,11223.2c-0,44.531 -31.77,99.219 -70.574,121.615c-2606.25,1504.69 -5212.63,3009.51 -7819.01,4514.32c-38.802,22.396 -70.442,4.297 -70.442,-40.234l0,-11223.2c0,-642.317 479.948,-1495.44 1049.09,-1809.63Z" style="fill:#c6ccda;fill-rule:nonzero;"/><path d="M5649.35,22115.5l3782.81,-2184.12l-0,354.948l-3782.81,2184.12l-0,-354.948Z" style="fill:#3b3444;fill-rule:nonzero;"/><path d="M11811.3,18076.4c-0,-0 -192.579,421.484 -290.494,480.208c-513.021,307.422 -1045.31,679.817 -1567.06,1023.05c-121.614,213.022 -243.228,426.173 -364.842,639.193l-0,150.912l138.54,104.167c0,-0 622.788,-543.75 821.095,-658.204c126.953,105.6 253.776,211.329 380.729,317.058c161.198,-93.099 322.526,-186.198 483.724,-279.297c132.812,-349.609 536.979,-1672.79 536.979,-1672.79c0,-0 -53.515,-76.954 -138.672,-104.297Z" style="fill:#2b2337;fill-rule:nonzero;"/><path d="M11950,18180.7c0,-0 -192.709,421.484 -290.624,480.207c-512.891,307.423 -1045.18,679.818 -1567.06,1023.05c-121.614,213.022 -243.228,426.042 -364.844,639.193l0,150.782c319.923,-184.636 639.844,-369.272 959.767,-554.037c126.823,105.729 253.776,211.459 380.599,317.188c161.328,-93.099 322.526,-186.199 483.854,-279.297c132.682,-349.74 265.495,-699.349 398.307,-1049.09l0,-727.994Z" style="fill:#3b3444;fill-rule:nonzero;"/><path d="M3273.05,23006.1c-0,-0 192.709,198.958 290.495,144.662c512.761,-284.375 1045.31,-527.214 1567.06,-786.459c121.614,72.656 243.229,145.312 364.844,217.969l0,150.781c-319.792,184.766 -639.713,369.401 -959.636,554.037c-126.823,252.356 -710.546,1142.19 -710.546,1142.19l-153.907,-106.12c-0,0 -265.508,-392.695 -398.307,-589.062l-0,-727.995Z" style="fill:#2b2337;fill-rule:nonzero;"/><path d="M3426.82,23112.1c-0,-0 192.707,198.958 290.624,144.661c512.63,-284.375 1045.18,-527.083 1567.06,-786.328c121.616,72.656 243.23,145.182 364.844,217.838l-0,150.912c-319.921,184.635 -639.844,369.271 -959.635,554.036c-126.953,252.214 -253.776,504.44 -380.729,756.771c-161.198,93.099 -322.526,186.198 -483.724,279.297c-132.814,-196.354 -265.626,-392.708 -398.437,-589.063l-0,-728.124Z" style="fill:#3b3444;fill-rule:nonzero;"/><path d="M10183.7,19198.2c113.411,-65.494 170.183,-98.307 283.594,-163.672c126.953,-73.437 229.948,-251.041 229.948,-396.744l0,-11193.9c0,-145.754 -102.995,-204.466 -229.948,-131.12c-113.411,65.495 -170.183,98.242 -283.594,163.725c-126.953,73.333 -229.949,250.937 -229.949,396.705l0,11193.9c0,145.703 102.996,204.427 229.949,131.12Z" style="fill:#a5afca;fill-rule:nonzero;"/><path d="M4614.19,22413.7c113.541,-65.495 170.183,-98.177 283.594,-163.672c127.083,-73.307 230.077,-250.911 230.077,-396.744l-0,-11193.9c-0,-145.704 -102.994,-204.428 -230.077,-131.12c-113.411,65.495 -170.053,98.308 -283.594,163.672c-126.953,73.438 -229.949,251.042 -229.949,396.745l0,11193.9c0,145.834 102.996,204.427 229.949,131.12Z" style="fill:#a5afca;fill-rule:nonzero;"/><path d="M10432.3,19361.9c113.543,-65.494 170.183,-98.307 283.594,-163.802c127.084,-73.307 230.079,-250.911 230.079,-396.614l-0,-11193.9c-0,-145.769 -102.995,-204.481 -230.079,-131.146c-113.411,65.493 -170.051,98.241 -283.594,163.723c-126.953,73.346 -229.947,250.977 -229.947,396.719l0,11193.9c0,145.703 102.994,204.427 229.947,131.12Z" style="fill:#ced3e4;fill-rule:nonzero;"/><path d="M4862.89,22577.3c113.413,-65.495 170.053,-98.177 283.594,-163.672c126.953,-73.307 229.949,-250.911 229.949,-396.744l-0,-11193.9c-0,-145.702 -102.995,-204.426 -229.949,-131.119c-113.541,65.496 -170.181,98.307 -283.594,163.802c-127.083,73.307 -230.077,250.912 -230.077,396.616l0,11193.9c0,145.834 102.994,204.557 230.077,131.12Z" style="fill:#ced3e4;fill-rule:nonzero;"/><path d="M5649.35,22182.7l156.641,50.391l444.531,-12808.4l-845.964,-86.837l244.792,452.318l-0,12392.5Z" style="fill:#a5afca;fill-rule:nonzero;"/><path d="M5805.99,22233.1l3782.94,-2183.98l-0,-12508.1l-3782.94,2184.06l-0,12508Z" style="fill:#c4cce0;fill-rule:nonzero;"/><path d="M5404.56,9337.87l3782.94,-2184.06l401.433,387.201l-3782.94,2184.06l-401.433,-387.201Z" style="fill:#e2e5f2;fill-rule:nonzero;"/><path d="M8628.65,20304.2c137.238,-79.297 248.567,-292.058 248.567,-475.13l-0,-11058.7c-0,-183.1 -111.329,-267.241 -248.567,-187.955c-137.371,79.283 -248.7,291.953 -248.7,475.052l0,11058.7c0,183.073 111.329,267.318 248.7,188.021Z" style="fill:#a5afca;fill-rule:nonzero;"/><path d="M7678.78,20852.5c14.974,-8.594 22.395,-12.891 37.239,-21.484c127.084,-73.308 230.079,-251.042 230.079,-396.745l-0,-11193.9c-0,-145.782 -102.995,-204.479 -230.079,-131.133c-14.844,8.607 -22.265,12.903 -37.239,21.51c-126.953,73.334 -229.949,250.951 -229.949,396.693l0,11193.9c0,145.703 102.996,204.426 229.949,131.119Z" style="fill:#a5afca;fill-rule:nonzero;"/><path d="M6747.66,21390.1c14.974,-8.594 22.397,-13.02 37.239,-21.484c127.084,-73.438 230.079,-251.042 230.079,-396.745l-0,-11193.9c-0,-145.756 -102.995,-204.466 -230.079,-131.108c-14.842,8.582 -22.265,12.905 -37.239,21.485c-126.953,73.36 -229.947,250.952 -229.947,396.784l0,11193.9c0,145.703 102.994,204.427 229.947,131.119Z" style="fill:#a5afca;fill-rule:nonzero;"/><path d="M8877.21,20467.8c137.24,-79.297 248.567,-292.058 248.567,-475.131l0,-11058.7c0,-183.072 -111.327,-267.239 -248.567,-187.955c-137.371,79.284 -248.698,291.979 -248.698,475.078l0,11058.7c0,183.073 111.327,267.187 248.698,188.021Z" style="fill:#ced3e4;fill-rule:nonzero;"/><path d="M7927.47,21016.1c14.844,-8.594 22.267,-12.891 37.241,-21.484c126.953,-73.438 229.947,-251.042 229.947,-396.745l0,-11193.9c0,-145.755 -102.994,-204.467 -229.947,-131.107c-14.974,8.607 -22.397,12.891 -37.241,21.498c-127.083,73.332 -230.077,250.95 -230.077,396.719l0,11193.9c0,145.703 102.994,204.427 230.077,131.12Z" style="fill:#ced3e4;fill-rule:nonzero;"/><path d="M6996.23,21553.8c14.972,-8.724 22.395,-12.89 37.369,-21.615c126.954,-73.307 229.947,-250.911 229.947,-396.614l0,-11193.9c0,-145.795 -102.993,-204.519 -229.947,-131.172c-14.974,8.607 -22.397,12.904 -37.369,21.536c-126.953,73.307 -229.949,250.912 -229.949,396.616l0,11193.9c0,145.834 102.996,204.558 229.949,131.25Z" style="fill:#ced3e4;fill-rule:nonzero;"/><path d="M6769.53,1477.2l-547.788,-281.667l547.788,-324.428l-0,606.095Z" style="fill:#1b1129;fill-rule:nonzero;"/><path d="M6221.74,589.456c160.157,-92.462 240.236,-138.712 400.391,-231.171l-0,606.079c-160.155,92.475 -240.234,138.699 -400.391,231.171l0,-606.079Z" style="fill:#3b3444;fill-rule:nonzero;"/><path d="M3610.81,2096.93c-160.157,92.45 -240.235,138.7 -400.522,231.16l0,606.081c160.287,-92.461 240.365,-138.698 400.522,-231.173l0,-606.068Z" style="fill:#3b3444;fill-rule:nonzero;"/><path d="M6769.53,871.107c160.285,-92.458 240.233,-138.696 400.521,-231.17l-0,606.082c-160.288,92.487 -240.236,138.721 -400.521,231.183l-0,-606.095Z" style="fill:#332c3e;fill-rule:nonzero;"/><path d="M3911.2,2089.79c-249.753,87.084 -374.61,694.832 -624.349,781.915l-0,4717.33c-0.13,0.273 -0,0.521 -0,0.82l-0,5.573c0.391,-0.144 0.651,-0.144 1.042,-0.312c1.042,10.104 6.249,19.805 18.75,27.043l168.88,97.461c29.935,17.331 82.682,15.104 117.318,-4.831l289.714,-167.277c17.708,-10.209 27.083,-23.125 28.124,-35.677c0.26,-0.053 0.391,-0.053 0.521,-0.145l-0,-5421.9Z" style="fill:url(#_Linear4);"/><path d="M6714.71,508.87c-249.87,86.784 -374.87,242.5 -624.741,329.323l0,5134.65c0.261,-0.091 0.391,-0.131 0.652,-0.183c-0.652,11.55 5.469,22.748 19.531,30.911l168.88,97.476c29.949,17.277 82.813,15.103 117.318,-4.883l289.714,-167.214c18.62,-10.782 27.473,-24.57 27.734,-37.721c0.391,-0.08 0.521,-0.143 0.782,-0.248c0,-1154.82 0,-4227.23 0.13,-5382.11Z" style="fill:url(#_Linear5);"/><path d="M7349.48,300.406l-547.918,-281.68c-1.301,-1.03 -3.255,-1.459 -4.557,-2.356l-1.953,-0.979c-18.36,-11.86 -43.489,-18.072 -79.166,-14.283c-498.568,53.165 -1239.19,531.057 -1799.61,853.269c-561.847,325.794 -1300.91,702.069 -1799.61,1224.79c-156.939,164.466 -125.533,288.568 -93.749,357.123c70.703,152.616 130.338,491.133 187.5,497.877l547.786,281.68l137.501,-948.777l2309.11,-1333.67c104.297,90.428 373.697,86.874 417.317,30.963c29.948,-38.242 60.417,-166.642 92.579,-313.619l634.766,-350.339Z" style="fill:url(#_Linear6);"/><path d="M4158.59,2378.58c-160.157,92.474 -240.234,138.698 -400.391,231.171l0,606.095c160.157,-92.474 240.234,-138.725 400.391,-231.172l-0,-606.094Z" style="fill:#332c3e;fill-rule:nonzero;"/><path d="M7263.67,282.789c-498.438,53.164 -1239.06,531.041 -1799.61,853.268c-561.85,325.728 -1300.91,702.057 -1799.61,1224.73c-156.902,164.531 -125.521,288.607 -93.751,357.175c70.834,152.617 130.339,491.133 187.5,497.891c47.396,5.598 348.307,-339.975 438.671,-556.316c171.225,-410.156 956.903,-797.46 1267.19,-975.975c310.416,-179.872 1103.52,-701.627 1267.19,-487.305c84.897,110.963 392.058,109.53 438.804,49.766c57.551,-73.738 117.187,-480.576 187.37,-714.274c31.509,-104.986 63.15,-265.687 -93.751,-248.956Z" style="fill:#332c3e;fill-rule:nonzero;"/><path d="M1898.56,21421.6l-201.628,-0l-0,-10142.7c1.172,-66.406 44.505,-1591.9 1348,-2324.36c1253.12,-704.036 5899.74,-3406.03 5946.61,-3433.2c30.729,-16.431 669.53,-344.282 1022.52,-80.324l-120.443,161.458c-209.114,-155.964 -651.822,15.951 -804.947,95.39c-42.578,25.001 -4690.62,2727.68 -5944.92,3432.51c-1201.28,674.869 -1245,2135.9 -1245.19,2150.61l-0,10140.6Z" style="fill:#858fa5;fill-rule:nonzero;"/><path d="M3426.82,23112.1l-153.777,-105.99l-185.156,-101.042l-0,907.292l583.463,510.807l-398.307,-589.062l153.777,-622.005Z" style="fill:#2b2337;fill-rule:nonzero;"/><path d="M945.534,22699.2l275.534,-144.792l-161.967,-161.979l-54.752,-214.063l0,-593.098l-794.531,-347.917l-0,727.995l398.359,589.062l337.357,144.792Z" style="fill:#2b2337;fill-rule:nonzero;"/><defs><linearGradient id="_Linear1" x1="0" y1="0" x2="1" y2="0" gradientUnits="userSpaceOnUse" gradientTransform="matrix(9310.56,-16126.3,16126.3,9310.56,-1544.77,20959.8)"><stop offset="0" style="stop-color:#999fb1;stop-opacity:1"/><stop offset="0.1" style="stop-color:#858fa5;stop-opacity:1"/><stop offset="0.5" style="stop-color:#858fa5;stop-opacity:1"/><stop offset="0.6" style="stop-color:#b7bcc6;stop-opacity:1"/><stop offset="0.7" style="stop-color:#cdd0d3;stop-opacity:1"/><stop offset="0.9" style="stop-color:#cdd0d3;stop-opacity:1"/><stop offset="1" style="stop-color:#c2c5cd;stop-opacity:1"/></linearGradient><linearGradient id="_Linear2" x1="0" y1="0" x2="1" y2="0" gradientUnits="userSpaceOnUse" gradientTransform="matrix(9565.33,-16567.6,16567.6,9565.33,-879.753,21342.2)"><stop offset="0" style="stop-color:#abb3c7;stop-opacity:1"/><stop offset="0.1" style="stop-color:#949eb8;stop-opacity:1"/><stop offset="0.5" style="stop-color:#949eb8;stop-opacity:1"/><stop offset="0.6" style="stop-color:#d0d3de;stop-opacity:1"/><stop offset="0.7" style="stop-color:#e8eaf0;stop-opacity:1"/><stop offset="0.9" style="stop-color:#e8eaf0;stop-opacity:1"/><stop offset="1" style="stop-color:#dcdfe9;stop-opacity:1"/></linearGradient><linearGradient id="_Linear3" x1="0" y1="0" x2="1" y2="0" gradientUnits="userSpaceOnUse" gradientTransform="matrix(9565.43,-16567.8,16567.8,9565.43,2758.06,23442.7)"><stop offset="0" style="stop-color:#b8c0d5;stop-opacity:1"/><stop offset="0.1" style="stop-color:#a2acc8;stop-opacity:1"/><stop offset="0.5" style="stop-color:#a2acc8;stop-opacity:1"/><stop offset="0.6" style="stop-color:#dadfed;stop-opacity:1"/><stop offset="0.7" style="stop-color:#f6f8fc;stop-opacity:1"/><stop offset="0.9" style="stop-color:#f6f8fc;stop-opacity:1"/><stop offset="1" style="stop-color:#e7eaf6;stop-opacity:1"/></linearGradient><linearGradient id="_Linear4" x1="0" y1="0" x2="1" y2="0" gradientUnits="userSpaceOnUse" gradientTransform="matrix(624.353,0,0,624.353,3286.85,4910.55)"><stop offset="0" style="stop-color:#1b1129;stop-opacity:1"/><stop offset="0.3" style="stop-color:#1b1129;stop-opacity:1"/><stop offset="0.5" style="stop-color:#383142;stop-opacity:1"/><stop offset="1" style="stop-color:#3b3444;stop-opacity:1"/></linearGradient><linearGradient id="_Linear5" x1="0" y1="0" x2="1" y2="0" gradientUnits="userSpaceOnUse" gradientTransform="matrix(624.685,0,0,624.685,6089.97,3310.78)"><stop offset="0" style="stop-color:#1b1129;stop-opacity:1"/><stop offset="0.3" style="stop-color:#1b1129;stop-opacity:1"/><stop offset="0.5" style="stop-color:#383142;stop-opacity:1"/><stop offset="1" style="stop-color:#3b3444;stop-opacity:1"/></linearGradient><linearGradient id="_Linear6" x1="0" y1="0" x2="1" y2="0" gradientUnits="userSpaceOnUse" gradientTransform="matrix(2175.91,-3768.79,3768.79,2175.91,3964.19,3370.99)"><stop offset="0" style="stop-color:#1b1129;stop-opacity:1"/><stop offset="0.2" style="stop-color:#3b3444;stop-opacity:1"/><stop offset="1" style="stop-color:#3b3444;stop-opacity:1"/></linearGradient></defs></svg>